ISO-10303-21;
HEADER;
/* Generated by software containing ST-Developer
 * from STEP Tools, Inc. (www.steptools.com) 
 */
/* OPTION: using custom renumber hook */

FILE_DESCRIPTION(
/* description */ ('STEP AP242 Edition 2',
'CAx-IF Rec.Pracs.---Representation and Presentation of Product Manufa
cturing Information (PMI)---4.0---2014-10-13',
'CAx-IF Rec.Pracs.---3D Tessellated Geometry---0.4---2014-09-14','2;1',
'CAx-IF Rec.Pracs.---User Defined Attributes---1.5---2016-08-15'),
/* implementation_level */ '2;1');

FILE_NAME(
/* name */ 'AlarmClockBaseFastPrint2',
/* time_stamp */ '2026-08-12T18:00:57Z',
/* author */ (''),
/* organization */ (''),
/* preprocessor_version */ 'ST-DEVELOPER v20',
/* originating_system */ 'ONSHAPE BY PTC INC, 1.219',
/* authorisation */ '  ');

FILE_SCHEMA (('AP242_MANAGED_MODEL_BASED_3D_ENGINEERING_MIM_LF { 1 0 10303 442 3 1 4 }'));
ENDSEC;

DATA;
#10=SHAPE_REPRESENTATION_RELATIONSHIP('','',#1011,#11);
#11=ADVANCED_BREP_SHAPE_REPRESENTATION('',(#1009),#1581);
#12=ORIENTED_EDGE('',*,*,#288,.F.);
#13=ORIENTED_EDGE('',*,*,#289,.T.);
#14=ORIENTED_EDGE('',*,*,#290,.T.);
#15=ORIENTED_EDGE('',*,*,#291,.F.);
#16=ORIENTED_EDGE('',*,*,#292,.F.);
#17=ORIENTED_EDGE('',*,*,#293,.F.);
#18=ORIENTED_EDGE('',*,*,#294,.T.);
#19=ORIENTED_EDGE('',*,*,#295,.T.);
#20=ORIENTED_EDGE('',*,*,#296,.T.);
#21=ORIENTED_EDGE('',*,*,#297,.F.);
#22=ORIENTED_EDGE('',*,*,#290,.F.);
#23=ORIENTED_EDGE('',*,*,#298,.T.);
#24=ORIENTED_EDGE('',*,*,#299,.T.);
#25=ORIENTED_EDGE('',*,*,#300,.F.);
#26=ORIENTED_EDGE('',*,*,#301,.F.);
#27=ORIENTED_EDGE('',*,*,#302,.T.);
#28=ORIENTED_EDGE('',*,*,#303,.F.);
#29=ORIENTED_EDGE('',*,*,#304,.T.);
#30=ORIENTED_EDGE('',*,*,#305,.F.);
#31=ORIENTED_EDGE('',*,*,#306,.F.);
#32=ORIENTED_EDGE('',*,*,#307,.T.);
#33=ORIENTED_EDGE('',*,*,#308,.F.);
#34=ORIENTED_EDGE('',*,*,#309,.T.);
#35=ORIENTED_EDGE('',*,*,#310,.T.);
#36=ORIENTED_EDGE('',*,*,#311,.F.);
#37=ORIENTED_EDGE('',*,*,#312,.T.);
#38=ORIENTED_EDGE('',*,*,#313,.T.);
#39=ORIENTED_EDGE('',*,*,#314,.T.);
#40=ORIENTED_EDGE('',*,*,#315,.F.);
#41=ORIENTED_EDGE('',*,*,#316,.T.);
#42=ORIENTED_EDGE('',*,*,#317,.T.);
#43=ORIENTED_EDGE('',*,*,#318,.F.);
#44=ORIENTED_EDGE('',*,*,#319,.T.);
#45=ORIENTED_EDGE('',*,*,#320,.T.);
#46=ORIENTED_EDGE('',*,*,#321,.F.);
#47=ORIENTED_EDGE('',*,*,#322,.F.);
#48=ORIENTED_EDGE('',*,*,#323,.T.);
#49=ORIENTED_EDGE('',*,*,#324,.T.);
#50=ORIENTED_EDGE('',*,*,#325,.F.);
#51=ORIENTED_EDGE('',*,*,#288,.T.);
#52=ORIENTED_EDGE('',*,*,#326,.T.);
#53=ORIENTED_EDGE('',*,*,#327,.F.);
#54=ORIENTED_EDGE('',*,*,#328,.F.);
#55=ORIENTED_EDGE('',*,*,#329,.F.);
#56=ORIENTED_EDGE('',*,*,#305,.T.);
#57=ORIENTED_EDGE('',*,*,#330,.T.);
#58=ORIENTED_EDGE('',*,*,#331,.T.);
#59=ORIENTED_EDGE('',*,*,#332,.T.);
#60=ORIENTED_EDGE('',*,*,#319,.F.);
#61=ORIENTED_EDGE('',*,*,#333,.F.);
#62=ORIENTED_EDGE('',*,*,#334,.T.);
#63=ORIENTED_EDGE('',*,*,#335,.F.);
#64=ORIENTED_EDGE('',*,*,#336,.T.);
#65=ORIENTED_EDGE('',*,*,#337,.T.);
#66=ORIENTED_EDGE('',*,*,#334,.F.);
#67=ORIENTED_EDGE('',*,*,#338,.T.);
#68=ORIENTED_EDGE('',*,*,#339,.F.);
#69=ORIENTED_EDGE('',*,*,#340,.T.);
#70=ORIENTED_EDGE('',*,*,#341,.F.);
#71=ORIENTED_EDGE('',*,*,#331,.F.);
#72=ORIENTED_EDGE('',*,*,#342,.T.);
#73=ORIENTED_EDGE('',*,*,#343,.T.);
#74=ORIENTED_EDGE('',*,*,#344,.F.);
#75=ORIENTED_EDGE('',*,*,#345,.F.);
#76=ORIENTED_EDGE('',*,*,#320,.F.);
#77=ORIENTED_EDGE('',*,*,#332,.F.);
#78=ORIENTED_EDGE('',*,*,#341,.T.);
#79=ORIENTED_EDGE('',*,*,#346,.T.);
#80=ORIENTED_EDGE('',*,*,#347,.T.);
#81=ORIENTED_EDGE('',*,*,#348,.T.);
#82=ORIENTED_EDGE('',*,*,#349,.F.);
#83=ORIENTED_EDGE('',*,*,#350,.F.);
#84=ORIENTED_EDGE('',*,*,#351,.T.);
#85=ORIENTED_EDGE('',*,*,#352,.T.);
#86=ORIENTED_EDGE('',*,*,#353,.F.);
#87=ORIENTED_EDGE('',*,*,#354,.F.);
#88=ORIENTED_EDGE('',*,*,#355,.F.);
#89=ORIENTED_EDGE('',*,*,#356,.T.);
#90=ORIENTED_EDGE('',*,*,#310,.F.);
#91=ORIENTED_EDGE('',*,*,#357,.F.);
#92=ORIENTED_EDGE('',*,*,#344,.T.);
#93=ORIENTED_EDGE('',*,*,#358,.T.);
#94=ORIENTED_EDGE('',*,*,#302,.F.);
#95=ORIENTED_EDGE('',*,*,#359,.F.);
#96=ORIENTED_EDGE('',*,*,#360,.F.);
#97=ORIENTED_EDGE('',*,*,#361,.T.);
#98=ORIENTED_EDGE('',*,*,#362,.F.);
#99=ORIENTED_EDGE('',*,*,#363,.F.);
#100=ORIENTED_EDGE('',*,*,#322,.T.);
#101=ORIENTED_EDGE('',*,*,#364,.F.);
#102=ORIENTED_EDGE('',*,*,#338,.F.);
#103=ORIENTED_EDGE('',*,*,#333,.T.);
#104=ORIENTED_EDGE('',*,*,#340,.F.);
#105=ORIENTED_EDGE('',*,*,#365,.T.);
#106=ORIENTED_EDGE('',*,*,#307,.F.);
#107=ORIENTED_EDGE('',*,*,#366,.F.);
#108=ORIENTED_EDGE('',*,*,#336,.F.);
#109=ORIENTED_EDGE('',*,*,#364,.T.);
#110=ORIENTED_EDGE('',*,*,#321,.T.);
#111=ORIENTED_EDGE('',*,*,#346,.F.);
#112=ORIENTED_EDGE('',*,*,#367,.F.);
#113=ORIENTED_EDGE('',*,*,#345,.T.);
#114=ORIENTED_EDGE('',*,*,#357,.T.);
#115=ORIENTED_EDGE('',*,*,#309,.F.);
#116=ORIENTED_EDGE('',*,*,#306,.T.);
#117=ORIENTED_EDGE('',*,*,#335,.T.);
#118=ORIENTED_EDGE('',*,*,#337,.F.);
#119=ORIENTED_EDGE('',*,*,#366,.T.);
#120=ORIENTED_EDGE('',*,*,#343,.F.);
#121=ORIENTED_EDGE('',*,*,#368,.T.);
#122=ORIENTED_EDGE('',*,*,#303,.T.);
#123=ORIENTED_EDGE('',*,*,#358,.F.);
#124=ORIENTED_EDGE('',*,*,#369,.F.);
#125=ORIENTED_EDGE('',*,*,#370,.F.);
#126=ORIENTED_EDGE('',*,*,#371,.T.);
#127=ORIENTED_EDGE('',*,*,#354,.T.);
#128=ORIENTED_EDGE('',*,*,#299,.F.);
#129=ORIENTED_EDGE('',*,*,#356,.F.);
#130=ORIENTED_EDGE('',*,*,#372,.T.);
#131=ORIENTED_EDGE('',*,*,#373,.T.);
#132=ORIENTED_EDGE('',*,*,#371,.F.);
#133=ORIENTED_EDGE('',*,*,#374,.T.);
#134=ORIENTED_EDGE('',*,*,#372,.F.);
#135=ORIENTED_EDGE('',*,*,#355,.T.);
#136=ORIENTED_EDGE('',*,*,#301,.T.);
#137=ORIENTED_EDGE('',*,*,#375,.F.);
#138=ORIENTED_EDGE('',*,*,#376,.F.);
#139=ORIENTED_EDGE('',*,*,#359,.T.);
#140=ORIENTED_EDGE('',*,*,#300,.T.);
#141=ORIENTED_EDGE('',*,*,#373,.F.);
#142=ORIENTED_EDGE('',*,*,#374,.F.);
#143=ORIENTED_EDGE('',*,*,#370,.T.);
#144=ORIENTED_EDGE('',*,*,#377,.F.);
#145=ORIENTED_EDGE('',*,*,#378,.F.);
#146=ORIENTED_EDGE('',*,*,#379,.F.);
#147=ORIENTED_EDGE('',*,*,#375,.T.);
#148=ORIENTED_EDGE('',*,*,#378,.T.);
#149=ORIENTED_EDGE('',*,*,#380,.T.);
#150=ORIENTED_EDGE('',*,*,#361,.F.);
#151=ORIENTED_EDGE('',*,*,#381,.F.);
#152=ORIENTED_EDGE('',*,*,#360,.T.);
#153=ORIENTED_EDGE('',*,*,#376,.T.);
#154=ORIENTED_EDGE('',*,*,#379,.T.);
#155=ORIENTED_EDGE('',*,*,#381,.T.);
#156=ORIENTED_EDGE('',*,*,#317,.F.);
#157=ORIENTED_EDGE('',*,*,#382,.F.);
#158=ORIENTED_EDGE('',*,*,#383,.T.);
#159=ORIENTED_EDGE('',*,*,#384,.T.);
#160=ORIENTED_EDGE('',*,*,#316,.F.);
#161=ORIENTED_EDGE('',*,*,#385,.F.);
#162=ORIENTED_EDGE('',*,*,#386,.F.);
#163=ORIENTED_EDGE('',*,*,#387,.F.);
#164=ORIENTED_EDGE('',*,*,#388,.T.);
#165=ORIENTED_EDGE('',*,*,#382,.T.);
#166=ORIENTED_EDGE('',*,*,#389,.F.);
#167=ORIENTED_EDGE('',*,*,#390,.F.);
#168=ORIENTED_EDGE('',*,*,#391,.T.);
#169=ORIENTED_EDGE('',*,*,#387,.T.);
#170=ORIENTED_EDGE('',*,*,#390,.T.);
#171=ORIENTED_EDGE('',*,*,#392,.T.);
#172=ORIENTED_EDGE('',*,*,#393,.F.);
#173=ORIENTED_EDGE('',*,*,#394,.F.);
#174=ORIENTED_EDGE('',*,*,#315,.T.);
#175=ORIENTED_EDGE('',*,*,#395,.F.);
#176=ORIENTED_EDGE('',*,*,#396,.F.);
#177=ORIENTED_EDGE('',*,*,#393,.T.);
#178=ORIENTED_EDGE('',*,*,#397,.T.);
#179=ORIENTED_EDGE('',*,*,#385,.T.);
#180=ORIENTED_EDGE('',*,*,#318,.T.);
#181=ORIENTED_EDGE('',*,*,#384,.F.);
#182=ORIENTED_EDGE('',*,*,#398,.F.);
#183=ORIENTED_EDGE('',*,*,#395,.T.);
#184=ORIENTED_EDGE('',*,*,#383,.F.);
#185=ORIENTED_EDGE('',*,*,#388,.F.);
#186=ORIENTED_EDGE('',*,*,#391,.F.);
#187=ORIENTED_EDGE('',*,*,#394,.T.);
#188=ORIENTED_EDGE('',*,*,#396,.T.);
#189=ORIENTED_EDGE('',*,*,#398,.T.);
#190=ORIENTED_EDGE('',*,*,#314,.F.);
#191=ORIENTED_EDGE('',*,*,#399,.F.);
#192=ORIENTED_EDGE('',*,*,#400,.T.);
#193=ORIENTED_EDGE('',*,*,#401,.T.);
#194=ORIENTED_EDGE('',*,*,#313,.F.);
#195=ORIENTED_EDGE('',*,*,#402,.F.);
#196=ORIENTED_EDGE('',*,*,#403,.T.);
#197=ORIENTED_EDGE('',*,*,#399,.T.);
#198=ORIENTED_EDGE('',*,*,#312,.F.);
#199=ORIENTED_EDGE('',*,*,#404,.F.);
#200=ORIENTED_EDGE('',*,*,#405,.F.);
#201=ORIENTED_EDGE('',*,*,#406,.F.);
#202=ORIENTED_EDGE('',*,*,#407,.T.);
#203=ORIENTED_EDGE('',*,*,#402,.T.);
#204=ORIENTED_EDGE('',*,*,#408,.F.);
#205=ORIENTED_EDGE('',*,*,#409,.F.);
#206=ORIENTED_EDGE('',*,*,#410,.T.);
#207=ORIENTED_EDGE('',*,*,#406,.T.);
#208=ORIENTED_EDGE('',*,*,#411,.F.);
#209=ORIENTED_EDGE('',*,*,#412,.F.);
#210=ORIENTED_EDGE('',*,*,#413,.T.);
#211=ORIENTED_EDGE('',*,*,#409,.T.);
#212=ORIENTED_EDGE('',*,*,#311,.T.);
#213=ORIENTED_EDGE('',*,*,#401,.F.);
#214=ORIENTED_EDGE('',*,*,#414,.F.);
#215=ORIENTED_EDGE('',*,*,#412,.T.);
#216=ORIENTED_EDGE('',*,*,#415,.T.);
#217=ORIENTED_EDGE('',*,*,#404,.T.);
#218=ORIENTED_EDGE('',*,*,#400,.F.);
#219=ORIENTED_EDGE('',*,*,#403,.F.);
#220=ORIENTED_EDGE('',*,*,#407,.F.);
#221=ORIENTED_EDGE('',*,*,#410,.F.);
#222=ORIENTED_EDGE('',*,*,#413,.F.);
#223=ORIENTED_EDGE('',*,*,#414,.T.);
#224=ORIENTED_EDGE('',*,*,#411,.T.);
#225=ORIENTED_EDGE('',*,*,#408,.T.);
#226=ORIENTED_EDGE('',*,*,#405,.T.);
#227=ORIENTED_EDGE('',*,*,#415,.F.);
#228=ORIENTED_EDGE('',*,*,#392,.F.);
#229=ORIENTED_EDGE('',*,*,#389,.T.);
#230=ORIENTED_EDGE('',*,*,#386,.T.);
#231=ORIENTED_EDGE('',*,*,#397,.F.);
#232=ORIENTED_EDGE('',*,*,#353,.T.);
#233=ORIENTED_EDGE('',*,*,#416,.T.);
#234=ORIENTED_EDGE('',*,*,#348,.F.);
#235=ORIENTED_EDGE('',*,*,#417,.F.);
#236=ORIENTED_EDGE('',*,*,#362,.T.);
#237=ORIENTED_EDGE('',*,*,#380,.F.);
#238=ORIENTED_EDGE('',*,*,#377,.T.);
#239=ORIENTED_EDGE('',*,*,#369,.T.);
#240=ORIENTED_EDGE('',*,*,#347,.F.);
#241=ORIENTED_EDGE('',*,*,#418,.F.);
#242=ORIENTED_EDGE('',*,*,#363,.T.);
#243=ORIENTED_EDGE('',*,*,#417,.T.);
#244=ORIENTED_EDGE('',*,*,#350,.T.);
#245=ORIENTED_EDGE('',*,*,#419,.F.);
#246=ORIENTED_EDGE('',*,*,#351,.F.);
#247=ORIENTED_EDGE('',*,*,#418,.T.);
#248=ORIENTED_EDGE('',*,*,#349,.T.);
#249=ORIENTED_EDGE('',*,*,#416,.F.);
#250=ORIENTED_EDGE('',*,*,#352,.F.);
#251=ORIENTED_EDGE('',*,*,#419,.T.);
#252=ORIENTED_EDGE('',*,*,#420,.T.);
#253=ORIENTED_EDGE('',*,*,#293,.T.);
#254=ORIENTED_EDGE('',*,*,#421,.F.);
#255=ORIENTED_EDGE('',*,*,#323,.F.);
#256=ORIENTED_EDGE('',*,*,#328,.T.);
#257=ORIENTED_EDGE('',*,*,#422,.T.);
#258=ORIENTED_EDGE('',*,*,#295,.F.);
#259=ORIENTED_EDGE('',*,*,#423,.F.);
#260=ORIENTED_EDGE('',*,*,#329,.T.);
#261=ORIENTED_EDGE('',*,*,#423,.T.);
#262=ORIENTED_EDGE('',*,*,#294,.F.);
#263=ORIENTED_EDGE('',*,*,#420,.F.);
#264=ORIENTED_EDGE('',*,*,#304,.F.);
#265=ORIENTED_EDGE('',*,*,#368,.F.);
#266=ORIENTED_EDGE('',*,*,#342,.F.);
#267=ORIENTED_EDGE('',*,*,#330,.F.);
#268=ORIENTED_EDGE('',*,*,#339,.T.);
#269=ORIENTED_EDGE('',*,*,#367,.T.);
#270=ORIENTED_EDGE('',*,*,#308,.T.);
#271=ORIENTED_EDGE('',*,*,#365,.F.);
#272=ORIENTED_EDGE('',*,*,#291,.T.);
#273=ORIENTED_EDGE('',*,*,#297,.T.);
#274=ORIENTED_EDGE('',*,*,#424,.F.);
#275=ORIENTED_EDGE('',*,*,#326,.F.);
#276=ORIENTED_EDGE('',*,*,#327,.T.);
#277=ORIENTED_EDGE('',*,*,#424,.T.);
#278=ORIENTED_EDGE('',*,*,#296,.F.);
#279=ORIENTED_EDGE('',*,*,#422,.F.);
#280=ORIENTED_EDGE('',*,*,#421,.T.);
#281=ORIENTED_EDGE('',*,*,#292,.T.);
#282=ORIENTED_EDGE('',*,*,#425,.F.);
#283=ORIENTED_EDGE('',*,*,#324,.F.);
#284=ORIENTED_EDGE('',*,*,#325,.T.);
#285=ORIENTED_EDGE('',*,*,#425,.T.);
#286=ORIENTED_EDGE('',*,*,#298,.F.);
#287=ORIENTED_EDGE('',*,*,#289,.F.);
#288=EDGE_CURVE('',#426,#427,#518,.T.);
#289=EDGE_CURVE('',#426,#428,#519,.T.);
#290=EDGE_CURVE('',#428,#429,#520,.T.);
#291=EDGE_CURVE('',#427,#429,#521,.T.);
#292=EDGE_CURVE('',#430,#431,#522,.T.);
#293=EDGE_CURVE('',#432,#430,#523,.T.);
#294=EDGE_CURVE('',#432,#433,#524,.T.);
#295=EDGE_CURVE('',#433,#434,#525,.T.);
#296=EDGE_CURVE('',#434,#435,#526,.T.);
#297=EDGE_CURVE('',#429,#435,#527,.T.);
#298=EDGE_CURVE('',#428,#431,#528,.T.);
#299=EDGE_CURVE('',#436,#437,#529,.T.);
#300=EDGE_CURVE('',#438,#437,#530,.T.);
#301=EDGE_CURVE('',#439,#438,#531,.T.);
#302=EDGE_CURVE('',#439,#440,#532,.T.);
#303=EDGE_CURVE('',#441,#440,#533,.T.);
#304=EDGE_CURVE('',#441,#442,#534,.T.);
#305=EDGE_CURVE('',#443,#442,#535,.T.);
#306=EDGE_CURVE('',#444,#443,#536,.T.);
#307=EDGE_CURVE('',#444,#445,#537,.T.);
#308=EDGE_CURVE('',#446,#445,#538,.T.);
#309=EDGE_CURVE('',#446,#447,#539,.T.);
#310=EDGE_CURVE('',#447,#436,#540,.T.);
#311=EDGE_CURVE('',#448,#449,#541,.T.);
#312=EDGE_CURVE('',#448,#450,#542,.T.);
#313=EDGE_CURVE('',#450,#451,#543,.T.);
#314=EDGE_CURVE('',#451,#449,#544,.T.);
#315=EDGE_CURVE('',#452,#453,#545,.T.);
#316=EDGE_CURVE('',#452,#454,#546,.T.);
#317=EDGE_CURVE('',#454,#455,#547,.T.);
#318=EDGE_CURVE('',#453,#455,#548,.T.);
#319=EDGE_CURVE('',#456,#457,#549,.T.);
#320=EDGE_CURVE('',#457,#458,#550,.T.);
#321=EDGE_CURVE('',#459,#458,#551,.T.);
#322=EDGE_CURVE('',#456,#459,#552,.T.);
#323=EDGE_CURVE('',#460,#461,#553,.T.);
#324=EDGE_CURVE('',#461,#462,#554,.T.);
#325=EDGE_CURVE('',#426,#462,#555,.T.);
#326=EDGE_CURVE('',#427,#463,#556,.T.);
#327=EDGE_CURVE('',#464,#463,#557,.T.);
#328=EDGE_CURVE('',#465,#464,#558,.T.);
#329=EDGE_CURVE('',#460,#465,#559,.T.);
#330=EDGE_CURVE('',#442,#466,#560,.T.);
#331=EDGE_CURVE('',#466,#467,#561,.T.);
#332=EDGE_CURVE('',#467,#457,#562,.T.);
#333=EDGE_CURVE('',#468,#456,#563,.T.);
#334=EDGE_CURVE('',#468,#469,#564,.T.);
#335=EDGE_CURVE('',#443,#469,#565,.T.);
#336=EDGE_CURVE('',#470,#471,#566,.T.);
#337=EDGE_CURVE('',#471,#469,#567,.T.);
#338=EDGE_CURVE('',#468,#470,#568,.T.);
#339=EDGE_CURVE('',#472,#473,#569,.T.);
#340=EDGE_CURVE('',#472,#474,#570,.T.);
#341=EDGE_CURVE('',#467,#474,#571,.T.);
#342=EDGE_CURVE('',#466,#475,#572,.T.);
#343=EDGE_CURVE('',#475,#476,#573,.T.);
#344=EDGE_CURVE('',#477,#476,#574,.T.);
#345=EDGE_CURVE('',#473,#477,#575,.T.);
#346=EDGE_CURVE('',#474,#458,#576,.T.);
#347=EDGE_CURVE('',#478,#479,#577,.T.);
#348=EDGE_CURVE('',#479,#480,#578,.T.);
#349=EDGE_CURVE('',#481,#480,#579,.T.);
#350=EDGE_CURVE('',#478,#481,#580,.T.);
#351=EDGE_CURVE('',#482,#483,#581,.T.);
#352=EDGE_CURVE('',#483,#484,#582,.T.);
#353=EDGE_CURVE('',#485,#484,#583,.T.);
#354=EDGE_CURVE('',#486,#485,#584,.T.);
#355=EDGE_CURVE('',#487,#486,#585,.T.);
#356=EDGE_CURVE('',#487,#436,#586,.T.);
#357=EDGE_CURVE('',#477,#447,#587,.T.);
#358=EDGE_CURVE('',#476,#440,#588,.T.);
#359=EDGE_CURVE('',#488,#439,#589,.T.);
#360=EDGE_CURVE('',#489,#488,#590,.T.);
#361=EDGE_CURVE('',#489,#490,#591,.T.);
#362=EDGE_CURVE('',#491,#490,#592,.T.);
#363=EDGE_CURVE('',#482,#491,#593,.T.);
#364=EDGE_CURVE('',#470,#459,#594,.T.);
#365=EDGE_CURVE('',#472,#445,#595,.T.);
#366=EDGE_CURVE('',#471,#444,#596,.T.);
#367=EDGE_CURVE('',#473,#446,#597,.T.);
#368=EDGE_CURVE('',#475,#441,#598,.T.);
#369=EDGE_CURVE('',#492,#485,#599,.T.);
#370=EDGE_CURVE('',#493,#492,#600,.T.);
#371=EDGE_CURVE('',#493,#486,#601,.T.);
#372=EDGE_CURVE('',#487,#494,#602,.T.);
#373=EDGE_CURVE('',#494,#437,#603,.T.);
#374=EDGE_CURVE('',#493,#494,#604,.T.);
#375=EDGE_CURVE('',#495,#438,#605,.T.);
#376=EDGE_CURVE('',#488,#495,#606,.T.);
#377=EDGE_CURVE('',#496,#492,#607,.T.);
#378=EDGE_CURVE('',#497,#496,#608,.T.);
#379=EDGE_CURVE('',#495,#497,#609,.T.);
#380=EDGE_CURVE('',#496,#490,#610,.T.);
#381=EDGE_CURVE('',#497,#489,#611,.T.);
#382=EDGE_CURVE('',#498,#454,#612,.T.);
#383=EDGE_CURVE('',#498,#499,#613,.T.);
#384=EDGE_CURVE('',#499,#455,#614,.T.);
#385=EDGE_CURVE('',#500,#452,#615,.T.);
#386=EDGE_CURVE('',#501,#500,#616,.T.);
#387=EDGE_CURVE('',#502,#501,#617,.T.);
#388=EDGE_CURVE('',#502,#498,#618,.T.);
#389=EDGE_CURVE('',#503,#501,#619,.T.);
#390=EDGE_CURVE('',#504,#503,#620,.T.);
#391=EDGE_CURVE('',#504,#502,#621,.T.);
#392=EDGE_CURVE('',#503,#505,#622,.T.);
#393=EDGE_CURVE('',#506,#505,#623,.T.);
#394=EDGE_CURVE('',#504,#506,#624,.T.);
#395=EDGE_CURVE('',#507,#453,#625,.T.);
#396=EDGE_CURVE('',#506,#507,#626,.T.);
#397=EDGE_CURVE('',#505,#500,#627,.T.);
#398=EDGE_CURVE('',#507,#499,#628,.T.);
#399=EDGE_CURVE('',#508,#451,#629,.T.);
#400=EDGE_CURVE('',#508,#509,#630,.T.);
#401=EDGE_CURVE('',#509,#449,#631,.T.);
#402=EDGE_CURVE('',#510,#450,#632,.T.);
#403=EDGE_CURVE('',#510,#508,#633,.T.);
#404=EDGE_CURVE('',#511,#448,#634,.T.);
#405=EDGE_CURVE('',#512,#511,#635,.T.);
#406=EDGE_CURVE('',#513,#512,#636,.T.);
#407=EDGE_CURVE('',#513,#510,#637,.T.);
#408=EDGE_CURVE('',#514,#512,#638,.T.);
#409=EDGE_CURVE('',#515,#514,#639,.T.);
#410=EDGE_CURVE('',#515,#513,#640,.T.);
#411=EDGE_CURVE('',#516,#514,#641,.T.);
#412=EDGE_CURVE('',#517,#516,#642,.T.);
#413=EDGE_CURVE('',#517,#515,#643,.T.);
#414=EDGE_CURVE('',#517,#509,#644,.T.);
#415=EDGE_CURVE('',#516,#511,#645,.T.);
#416=EDGE_CURVE('',#484,#480,#646,.T.);
#417=EDGE_CURVE('',#491,#479,#647,.T.);
#418=EDGE_CURVE('',#482,#478,#648,.T.);
#419=EDGE_CURVE('',#483,#481,#649,.T.);
#420=EDGE_CURVE('',#460,#432,#650,.T.);
#421=EDGE_CURVE('',#461,#430,#651,.T.);
#422=EDGE_CURVE('',#464,#434,#652,.T.);
#423=EDGE_CURVE('',#465,#433,#653,.T.);
#424=EDGE_CURVE('',#463,#435,#654,.T.);
#425=EDGE_CURVE('',#462,#431,#655,.T.);
#426=VERTEX_POINT('',#1303);
#427=VERTEX_POINT('',#1304);
#428=VERTEX_POINT('',#1306);
#429=VERTEX_POINT('',#1308);
#430=VERTEX_POINT('',#1312);
#431=VERTEX_POINT('',#1313);
#432=VERTEX_POINT('',#1315);
#433=VERTEX_POINT('',#1317);
#434=VERTEX_POINT('',#1319);
#435=VERTEX_POINT('',#1321);
#436=VERTEX_POINT('',#1325);
#437=VERTEX_POINT('',#1326);
#438=VERTEX_POINT('',#1328);
#439=VERTEX_POINT('',#1330);
#440=VERTEX_POINT('',#1332);
#441=VERTEX_POINT('',#1334);
#442=VERTEX_POINT('',#1336);
#443=VERTEX_POINT('',#1338);
#444=VERTEX_POINT('',#1340);
#445=VERTEX_POINT('',#1342);
#446=VERTEX_POINT('',#1344);
#447=VERTEX_POINT('',#1346);
#448=VERTEX_POINT('',#1349);
#449=VERTEX_POINT('',#1350);
#450=VERTEX_POINT('',#1352);
#451=VERTEX_POINT('',#1354);
#452=VERTEX_POINT('',#1357);
#453=VERTEX_POINT('',#1358);
#454=VERTEX_POINT('',#1360);
#455=VERTEX_POINT('',#1362);
#456=VERTEX_POINT('',#1366);
#457=VERTEX_POINT('',#1367);
#458=VERTEX_POINT('',#1369);
#459=VERTEX_POINT('',#1371);
#460=VERTEX_POINT('',#1374);
#461=VERTEX_POINT('',#1375);
#462=VERTEX_POINT('',#1377);
#463=VERTEX_POINT('',#1380);
#464=VERTEX_POINT('',#1382);
#465=VERTEX_POINT('',#1384);
#466=VERTEX_POINT('',#1388);
#467=VERTEX_POINT('',#1390);
#468=VERTEX_POINT('',#1393);
#469=VERTEX_POINT('',#1395);
#470=VERTEX_POINT('',#1399);
#471=VERTEX_POINT('',#1400);
#472=VERTEX_POINT('',#1405);
#473=VERTEX_POINT('',#1406);
#474=VERTEX_POINT('',#1408);
#475=VERTEX_POINT('',#1411);
#476=VERTEX_POINT('',#1413);
#477=VERTEX_POINT('',#1415);
#478=VERTEX_POINT('',#1420);
#479=VERTEX_POINT('',#1421);
#480=VERTEX_POINT('',#1423);
#481=VERTEX_POINT('',#1425);
#482=VERTEX_POINT('',#1429);
#483=VERTEX_POINT('',#1430);
#484=VERTEX_POINT('',#1432);
#485=VERTEX_POINT('',#1434);
#486=VERTEX_POINT('',#1436);
#487=VERTEX_POINT('',#1438);
#488=VERTEX_POINT('',#1443);
#489=VERTEX_POINT('',#1445);
#490=VERTEX_POINT('',#1447);
#491=VERTEX_POINT('',#1449);
#492=VERTEX_POINT('',#1463);
#493=VERTEX_POINT('',#1465);
#494=VERTEX_POINT('',#1469);
#495=VERTEX_POINT('',#1475);
#496=VERTEX_POINT('',#1479);
#497=VERTEX_POINT('',#1481);
#498=VERTEX_POINT('',#1489);
#499=VERTEX_POINT('',#1491);
#500=VERTEX_POINT('',#1495);
#501=VERTEX_POINT('',#1497);
#502=VERTEX_POINT('',#1499);
#503=VERTEX_POINT('',#1503);
#504=VERTEX_POINT('',#1505);
#505=VERTEX_POINT('',#1509);
#506=VERTEX_POINT('',#1511);
#507=VERTEX_POINT('',#1515);
#508=VERTEX_POINT('',#1523);
#509=VERTEX_POINT('',#1525);
#510=VERTEX_POINT('',#1529);
#511=VERTEX_POINT('',#1533);
#512=VERTEX_POINT('',#1535);
#513=VERTEX_POINT('',#1537);
#514=VERTEX_POINT('',#1541);
#515=VERTEX_POINT('',#1543);
#516=VERTEX_POINT('',#1547);
#517=VERTEX_POINT('',#1549);
#518=LINE('',#1302,#656);
#519=LINE('',#1305,#657);
#520=LINE('',#1307,#658);
#521=LINE('',#1309,#659);
#522=LINE('',#1311,#660);
#523=LINE('',#1314,#661);
#524=LINE('',#1316,#662);
#525=LINE('',#1318,#663);
#526=LINE('',#1320,#664);
#527=LINE('',#1322,#665);
#528=LINE('',#1323,#666);
#529=LINE('',#1324,#667);
#530=LINE('',#1327,#668);
#531=LINE('',#1329,#669);
#532=LINE('',#1331,#670);
#533=LINE('',#1333,#671);
#534=LINE('',#1335,#672);
#535=LINE('',#1337,#673);
#536=LINE('',#1339,#674);
#537=LINE('',#1341,#675);
#538=LINE('',#1343,#676);
#539=LINE('',#1345,#677);
#540=LINE('',#1347,#678);
#541=LINE('',#1348,#679);
#542=LINE('',#1351,#680);
#543=LINE('',#1353,#681);
#544=LINE('',#1355,#682);
#545=LINE('',#1356,#683);
#546=LINE('',#1359,#684);
#547=LINE('',#1361,#685);
#548=LINE('',#1363,#686);
#549=LINE('',#1365,#687);
#550=LINE('',#1368,#688);
#551=LINE('',#1370,#689);
#552=LINE('',#1372,#690);
#553=LINE('',#1373,#691);
#554=LINE('',#1376,#692);
#555=LINE('',#1378,#693);
#556=LINE('',#1379,#694);
#557=LINE('',#1381,#695);
#558=LINE('',#1383,#696);
#559=LINE('',#1385,#697);
#560=LINE('',#1387,#698);
#561=LINE('',#1389,#699);
#562=LINE('',#1391,#700);
#563=LINE('',#1392,#701);
#564=LINE('',#1394,#702);
#565=LINE('',#1396,#703);
#566=LINE('',#1398,#704);
#567=LINE('',#1401,#705);
#568=LINE('',#1402,#706);
#569=LINE('',#1404,#707);
#570=LINE('',#1407,#708);
#571=LINE('',#1409,#709);
#572=LINE('',#1410,#710);
#573=LINE('',#1412,#711);
#574=LINE('',#1414,#712);
#575=LINE('',#1416,#713);
#576=LINE('',#1418,#714);
#577=LINE('',#1419,#715);
#578=LINE('',#1422,#716);
#579=LINE('',#1424,#717);
#580=LINE('',#1426,#718);
#581=LINE('',#1428,#719);
#582=LINE('',#1431,#720);
#583=LINE('',#1433,#721);
#584=LINE('',#1435,#722);
#585=LINE('',#1437,#723);
#586=LINE('',#1439,#724);
#587=LINE('',#1440,#725);
#588=LINE('',#1441,#726);
#589=LINE('',#1442,#727);
#590=LINE('',#1444,#728);
#591=LINE('',#1446,#729);
#592=LINE('',#1448,#730);
#593=LINE('',#1450,#731);
#594=LINE('',#1452,#732);
#595=LINE('',#1454,#733);
#596=LINE('',#1455,#734);
#597=LINE('',#1457,#735);
#598=LINE('',#1460,#736);
#599=LINE('',#1462,#737);
#600=LINE('',#1464,#738);
#601=LINE('',#1466,#739);
#602=LINE('',#1468,#740);
#603=LINE('',#1470,#741);
#604=LINE('',#1472,#742);
#605=LINE('',#1474,#743);
#606=LINE('',#1476,#744);
#607=LINE('',#1478,#745);
#608=LINE('',#1480,#746);
#609=LINE('',#1482,#747);
#610=LINE('',#1484,#748);
#611=LINE('',#1485,#749);
#612=LINE('',#1488,#750);
#613=LINE('',#1490,#751);
#614=LINE('',#1492,#752);
#615=LINE('',#1494,#753);
#616=LINE('',#1496,#754);
#617=LINE('',#1498,#755);
#618=LINE('',#1500,#756);
#619=LINE('',#1502,#757);
#620=LINE('',#1504,#758);
#621=LINE('',#1506,#759);
#622=LINE('',#1508,#760);
#623=LINE('',#1510,#761);
#624=LINE('',#1512,#762);
#625=LINE('',#1514,#763);
#626=LINE('',#1516,#764);
#627=LINE('',#1517,#765);
#628=LINE('',#1519,#766);
#629=LINE('',#1522,#767);
#630=LINE('',#1524,#768);
#631=LINE('',#1526,#769);
#632=LINE('',#1528,#770);
#633=LINE('',#1530,#771);
#634=LINE('',#1532,#772);
#635=LINE('',#1534,#773);
#636=LINE('',#1536,#774);
#637=LINE('',#1538,#775);
#638=LINE('',#1540,#776);
#639=LINE('',#1542,#777);
#640=LINE('',#1544,#778);
#641=LINE('',#1546,#779);
#642=LINE('',#1548,#780);
#643=LINE('',#1550,#781);
#644=LINE('',#1552,#782);
#645=LINE('',#1553,#783);
#646=LINE('',#1558,#784);
#647=LINE('',#1559,#785);
#648=LINE('',#1561,#786);
#649=LINE('',#1563,#787);
#650=LINE('',#1566,#788);
#651=LINE('',#1567,#789);
#652=LINE('',#1569,#790);
#653=LINE('',#1570,#791);
#654=LINE('',#1575,#792);
#655=LINE('',#1578,#793);
#656=VECTOR('',#1066,1.);
#657=VECTOR('',#1067,1.);
#658=VECTOR('',#1068,1.);
#659=VECTOR('',#1069,1.);
#660=VECTOR('',#1072,1.);
#661=VECTOR('',#1073,1.);
#662=VECTOR('',#1074,1.);
#663=VECTOR('',#1075,1.);
#664=VECTOR('',#1076,1.);
#665=VECTOR('',#1077,1.);
#666=VECTOR('',#1078,1.);
#667=VECTOR('',#1079,1.);
#668=VECTOR('',#1080,1.);
#669=VECTOR('',#1081,1.);
#670=VECTOR('',#1082,1.);
#671=VECTOR('',#1083,1.);
#672=VECTOR('',#1084,1.);
#673=VECTOR('',#1085,1.);
#674=VECTOR('',#1086,1.);
#675=VECTOR('',#1087,1.);
#676=VECTOR('',#1088,1.);
#677=VECTOR('',#1089,1.);
#678=VECTOR('',#1090,1.);
#679=VECTOR('',#1091,1.);
#680=VECTOR('',#1092,1.);
#681=VECTOR('',#1093,1.);
#682=VECTOR('',#1094,1.);
#683=VECTOR('',#1095,1.);
#684=VECTOR('',#1096,1.);
#685=VECTOR('',#1097,1.);
#686=VECTOR('',#1098,1.);
#687=VECTOR('',#1101,1.);
#688=VECTOR('',#1102,1.);
#689=VECTOR('',#1103,1.);
#690=VECTOR('',#1104,1.);
#691=VECTOR('',#1105,1.);
#692=VECTOR('',#1106,1.);
#693=VECTOR('',#1107,1.);
#694=VECTOR('',#1108,1.);
#695=VECTOR('',#1109,1.);
#696=VECTOR('',#1110,1.);
#697=VECTOR('',#1111,1.);
#698=VECTOR('',#1114,1.);
#699=VECTOR('',#1115,1.);
#700=VECTOR('',#1116,1.);
#701=VECTOR('',#1117,1.);
#702=VECTOR('',#1118,1.);
#703=VECTOR('',#1119,1.);
#704=VECTOR('',#1122,1.);
#705=VECTOR('',#1123,1.);
#706=VECTOR('',#1124,1.);
#707=VECTOR('',#1127,1.);
#708=VECTOR('',#1128,1.);
#709=VECTOR('',#1129,1.);
#710=VECTOR('',#1130,1.);
#711=VECTOR('',#1131,1.);
#712=VECTOR('',#1132,1.);
#713=VECTOR('',#1133,1.);
#714=VECTOR('',#1136,1.);
#715=VECTOR('',#1137,1.);
#716=VECTOR('',#1138,1.);
#717=VECTOR('',#1139,1.);
#718=VECTOR('',#1140,1.);
#719=VECTOR('',#1143,1.);
#720=VECTOR('',#1144,1.);
#721=VECTOR('',#1145,1.);
#722=VECTOR('',#1146,1.);
#723=VECTOR('',#1147,1.);
#724=VECTOR('',#1148,1.);
#725=VECTOR('',#1149,1.);
#726=VECTOR('',#1150,1.);
#727=VECTOR('',#1151,1.);
#728=VECTOR('',#1152,1.);
#729=VECTOR('',#1153,1.);
#730=VECTOR('',#1154,1.);
#731=VECTOR('',#1155,1.);
#732=VECTOR('',#1158,1.);
#733=VECTOR('',#1161,1.);
#734=VECTOR('',#1162,1.);
#735=VECTOR('',#1165,1.);
#736=VECTOR('',#1170,1.);
#737=VECTOR('',#1173,1.);
#738=VECTOR('',#1174,1.);
#739=VECTOR('',#1175,1.);
#740=VECTOR('',#1178,1.);
#741=VECTOR('',#1179,1.);
#742=VECTOR('',#1182,1.);
#743=VECTOR('',#1185,1.);
#744=VECTOR('',#1186,1.);
#745=VECTOR('',#1189,1.);
#746=VECTOR('',#1190,1.);
#747=VECTOR('',#1191,1.);
#748=VECTOR('',#1194,1.);
#749=VECTOR('',#1195,1.);
#750=VECTOR('',#1200,1.);
#751=VECTOR('',#1201,1.);
#752=VECTOR('',#1202,1.);
#753=VECTOR('',#1205,1.);
#754=VECTOR('',#1206,1.);
#755=VECTOR('',#1207,1.);
#756=VECTOR('',#1208,1.);
#757=VECTOR('',#1211,1.);
#758=VECTOR('',#1212,1.);
#759=VECTOR('',#1213,1.);
#760=VECTOR('',#1216,1.);
#761=VECTOR('',#1217,1.);
#762=VECTOR('',#1218,1.);
#763=VECTOR('',#1221,1.);
#764=VECTOR('',#1222,1.);
#765=VECTOR('',#1223,1.);
#766=VECTOR('',#1226,1.);
#767=VECTOR('',#1231,1.);
#768=VECTOR('',#1232,1.);
#769=VECTOR('',#1233,1.);
#770=VECTOR('',#1236,1.);
#771=VECTOR('',#1237,1.);
#772=VECTOR('',#1240,1.);
#773=VECTOR('',#1241,1.);
#774=VECTOR('',#1242,1.);
#775=VECTOR('',#1243,1.);
#776=VECTOR('',#1246,1.);
#777=VECTOR('',#1247,1.);
#778=VECTOR('',#1248,1.);
#779=VECTOR('',#1251,1.);
#780=VECTOR('',#1252,1.);
#781=VECTOR('',#1253,1.);
#782=VECTOR('',#1256,1.);
#783=VECTOR('',#1257,1.);
#784=VECTOR('',#1266,1.);
#785=VECTOR('',#1267,1.);
#786=VECTOR('',#1270,1.);
#787=VECTOR('',#1273,1.);
#788=VECTOR('',#1278,1.);
#789=VECTOR('',#1279,1.);
#790=VECTOR('',#1282,1.);
#791=VECTOR('',#1283,1.);
#792=VECTOR('',#1292,1.);
#793=VECTOR('',#1297,1.);
#794=EDGE_LOOP('',(#12,#13,#14,#15));
#795=EDGE_LOOP('',(#16,#17,#18,#19,#20,#21,#22,#23));
#796=EDGE_LOOP('',(#24,#25,#26,#27,#28,#29,#30,#31,#32,#33,#34,#35));
#797=EDGE_LOOP('',(#36,#37,#38,#39));
#798=EDGE_LOOP('',(#40,#41,#42,#43));
#799=EDGE_LOOP('',(#44,#45,#46,#47));
#800=EDGE_LOOP('',(#48,#49,#50,#51,#52,#53,#54,#55));
#801=EDGE_LOOP('',(#56,#57,#58,#59,#60,#61,#62,#63));
#802=EDGE_LOOP('',(#64,#65,#66,#67));
#803=EDGE_LOOP('',(#68,#69,#70,#71,#72,#73,#74,#75));
#804=EDGE_LOOP('',(#76,#77,#78,#79));
#805=EDGE_LOOP('',(#80,#81,#82,#83));
#806=EDGE_LOOP('',(#84,#85,#86,#87,#88,#89,#90,#91,#92,#93,#94,#95,#96,
#97,#98,#99));
#807=EDGE_LOOP('',(#100,#101,#102,#103));
#808=EDGE_LOOP('',(#104,#105,#106,#107,#108,#109,#110,#111));
#809=EDGE_LOOP('',(#112,#113,#114,#115));
#810=EDGE_LOOP('',(#116,#117,#118,#119));
#811=EDGE_LOOP('',(#120,#121,#122,#123));
#812=EDGE_LOOP('',(#124,#125,#126,#127));
#813=EDGE_LOOP('',(#128,#129,#130,#131));
#814=EDGE_LOOP('',(#132,#133,#134,#135));
#815=EDGE_LOOP('',(#136,#137,#138,#139));
#816=EDGE_LOOP('',(#140,#141,#142,#143,#144,#145,#146,#147));
#817=EDGE_LOOP('',(#148,#149,#150,#151));
#818=EDGE_LOOP('',(#152,#153,#154,#155));
#819=EDGE_LOOP('',(#156,#157,#158,#159));
#820=EDGE_LOOP('',(#160,#161,#162,#163,#164,#165));
#821=EDGE_LOOP('',(#166,#167,#168,#169));
#822=EDGE_LOOP('',(#170,#171,#172,#173));
#823=EDGE_LOOP('',(#174,#175,#176,#177,#178,#179));
#824=EDGE_LOOP('',(#180,#181,#182,#183));
#825=EDGE_LOOP('',(#184,#185,#186,#187,#188,#189));
#826=EDGE_LOOP('',(#190,#191,#192,#193));
#827=EDGE_LOOP('',(#194,#195,#196,#197));
#828=EDGE_LOOP('',(#198,#199,#200,#201,#202,#203));
#829=EDGE_LOOP('',(#204,#205,#206,#207));
#830=EDGE_LOOP('',(#208,#209,#210,#211));
#831=EDGE_LOOP('',(#212,#213,#214,#215,#216,#217));
#832=EDGE_LOOP('',(#218,#219,#220,#221,#222,#223));
#833=EDGE_LOOP('',(#224,#225,#226,#227));
#834=EDGE_LOOP('',(#228,#229,#230,#231));
#835=EDGE_LOOP('',(#232,#233,#234,#235,#236,#237,#238,#239));
#836=EDGE_LOOP('',(#240,#241,#242,#243));
#837=EDGE_LOOP('',(#244,#245,#246,#247));
#838=EDGE_LOOP('',(#248,#249,#250,#251));
#839=EDGE_LOOP('',(#252,#253,#254,#255));
#840=EDGE_LOOP('',(#256,#257,#258,#259));
#841=EDGE_LOOP('',(#260,#261,#262,#263));
#842=EDGE_LOOP('',(#264,#265,#266,#267));
#843=EDGE_LOOP('',(#268,#269,#270,#271));
#844=EDGE_LOOP('',(#272,#273,#274,#275));
#845=EDGE_LOOP('',(#276,#277,#278,#279));
#846=EDGE_LOOP('',(#280,#281,#282,#283));
#847=EDGE_LOOP('',(#284,#285,#286,#287));
#848=FACE_BOUND('',#794,.T.);
#849=FACE_BOUND('',#795,.T.);
#850=FACE_BOUND('',#796,.T.);
#851=FACE_BOUND('',#797,.T.);
#852=FACE_BOUND('',#798,.T.);
#853=FACE_BOUND('',#799,.T.);
#854=FACE_BOUND('',#800,.T.);
#855=FACE_BOUND('',#801,.T.);
#856=FACE_BOUND('',#802,.T.);
#857=FACE_BOUND('',#803,.T.);
#858=FACE_BOUND('',#804,.T.);
#859=FACE_BOUND('',#805,.T.);
#860=FACE_BOUND('',#806,.T.);
#861=FACE_BOUND('',#807,.T.);
#862=FACE_BOUND('',#808,.T.);
#863=FACE_BOUND('',#809,.T.);
#864=FACE_BOUND('',#810,.T.);
#865=FACE_BOUND('',#811,.T.);
#866=FACE_BOUND('',#812,.T.);
#867=FACE_BOUND('',#813,.T.);
#868=FACE_BOUND('',#814,.T.);
#869=FACE_BOUND('',#815,.T.);
#870=FACE_BOUND('',#816,.T.);
#871=FACE_BOUND('',#817,.T.);
#872=FACE_BOUND('',#818,.T.);
#873=FACE_BOUND('',#819,.T.);
#874=FACE_BOUND('',#820,.T.);
#875=FACE_BOUND('',#821,.T.);
#876=FACE_BOUND('',#822,.T.);
#877=FACE_BOUND('',#823,.T.);
#878=FACE_BOUND('',#824,.T.);
#879=FACE_BOUND('',#825,.T.);
#880=FACE_BOUND('',#826,.T.);
#881=FACE_BOUND('',#827,.T.);
#882=FACE_BOUND('',#828,.T.);
#883=FACE_BOUND('',#829,.T.);
#884=FACE_BOUND('',#830,.T.);
#885=FACE_BOUND('',#831,.T.);
#886=FACE_BOUND('',#832,.T.);
#887=FACE_BOUND('',#833,.T.);
#888=FACE_BOUND('',#834,.T.);
#889=FACE_BOUND('',#835,.T.);
#890=FACE_BOUND('',#836,.T.);
#891=FACE_BOUND('',#837,.T.);
#892=FACE_BOUND('',#838,.T.);
#893=FACE_BOUND('',#839,.T.);
#894=FACE_BOUND('',#840,.T.);
#895=FACE_BOUND('',#841,.T.);
#896=FACE_BOUND('',#842,.T.);
#897=FACE_BOUND('',#843,.T.);
#898=FACE_BOUND('',#844,.T.);
#899=FACE_BOUND('',#845,.T.);
#900=FACE_BOUND('',#846,.T.);
#901=FACE_BOUND('',#847,.T.);
#902=PLANE('',#1013);
#903=PLANE('',#1014);
#904=PLANE('',#1015);
#905=PLANE('',#1016);
#906=PLANE('',#1017);
#907=PLANE('',#1018);
#908=PLANE('',#1019);
#909=PLANE('',#1020);
#910=PLANE('',#1021);
#911=PLANE('',#1022);
#912=PLANE('',#1023);
#913=PLANE('',#1024);
#914=PLANE('',#1025);
#915=PLANE('',#1026);
#916=PLANE('',#1027);
#917=PLANE('',#1028);
#918=PLANE('',#1029);
#919=PLANE('',#1030);
#920=PLANE('',#1031);
#921=PLANE('',#1032);
#922=PLANE('',#1033);
#923=PLANE('',#1034);
#924=PLANE('',#1035);
#925=PLANE('',#1036);
#926=PLANE('',#1037);
#927=PLANE('',#1038);
#928=PLANE('',#1039);
#929=PLANE('',#1040);
#930=PLANE('',#1041);
#931=PLANE('',#1042);
#932=PLANE('',#1043);
#933=PLANE('',#1044);
#934=PLANE('',#1045);
#935=PLANE('',#1046);
#936=PLANE('',#1047);
#937=PLANE('',#1048);
#938=PLANE('',#1049);
#939=PLANE('',#1050);
#940=PLANE('',#1051);
#941=PLANE('',#1052);
#942=PLANE('',#1053);
#943=PLANE('',#1054);
#944=PLANE('',#1055);
#945=PLANE('',#1056);
#946=PLANE('',#1057);
#947=PLANE('',#1058);
#948=PLANE('',#1059);
#949=PLANE('',#1060);
#950=PLANE('',#1061);
#951=ADVANCED_FACE('',(#848),#902,.F.);
#952=ADVANCED_FACE('',(#849,#850,#851,#852),#903,.T.);
#953=ADVANCED_FACE('',(#853,#854),#904,.F.);
#954=ADVANCED_FACE('',(#855),#905,.T.);
#955=ADVANCED_FACE('',(#856),#906,.T.);
#956=ADVANCED_FACE('',(#857),#907,.T.);
#957=ADVANCED_FACE('',(#858,#859),#908,.T.);
#958=ADVANCED_FACE('',(#860),#909,.T.);
#959=ADVANCED_FACE('',(#861),#910,.F.);
#960=ADVANCED_FACE('',(#862),#911,.F.);
#961=ADVANCED_FACE('',(#863),#912,.T.);
#962=ADVANCED_FACE('',(#864),#913,.F.);
#963=ADVANCED_FACE('',(#865),#914,.F.);
#964=ADVANCED_FACE('',(#866),#915,.T.);
#965=ADVANCED_FACE('',(#867),#916,.T.);
#966=ADVANCED_FACE('',(#868),#917,.T.);
#967=ADVANCED_FACE('',(#869),#918,.F.);
#968=ADVANCED_FACE('',(#870),#919,.F.);
#969=ADVANCED_FACE('',(#871),#920,.F.);
#970=ADVANCED_FACE('',(#872),#921,.T.);
#971=ADVANCED_FACE('',(#873),#922,.T.);
#972=ADVANCED_FACE('',(#874),#923,.T.);
#973=ADVANCED_FACE('',(#875),#924,.T.);
#974=ADVANCED_FACE('',(#876),#925,.F.);
#975=ADVANCED_FACE('',(#877),#926,.F.);
#976=ADVANCED_FACE('',(#878),#927,.F.);
#977=ADVANCED_FACE('',(#879),#928,.T.);
#978=ADVANCED_FACE('',(#880),#929,.T.);
#979=ADVANCED_FACE('',(#881),#930,.T.);
#980=ADVANCED_FACE('',(#882),#931,.T.);
#981=ADVANCED_FACE('',(#883),#932,.T.);
#982=ADVANCED_FACE('',(#884),#933,.T.);
#983=ADVANCED_FACE('',(#885),#934,.F.);
#984=ADVANCED_FACE('',(#886),#935,.T.);
#985=ADVANCED_FACE('',(#887),#936,.T.);
#986=ADVANCED_FACE('',(#888),#937,.T.);
#987=ADVANCED_FACE('',(#889),#938,.T.);
#988=ADVANCED_FACE('',(#890),#939,.T.);
#989=ADVANCED_FACE('',(#891),#940,.F.);
#990=ADVANCED_FACE('',(#892),#941,.F.);
#991=ADVANCED_FACE('',(#893),#942,.F.);
#992=ADVANCED_FACE('',(#894),#943,.T.);
#993=ADVANCED_FACE('',(#895),#944,.T.);
#994=ADVANCED_FACE('',(#896),#945,.T.);
#995=ADVANCED_FACE('',(#897),#946,.F.);
#996=ADVANCED_FACE('',(#898),#947,.F.);
#997=ADVANCED_FACE('',(#899),#948,.T.);
#998=ADVANCED_FACE('',(#900),#949,.F.);
#999=ADVANCED_FACE('',(#901),#950,.T.);
#1000=CLOSED_SHELL('',(#951,#952,#953,#954,#955,#956,#957,#958,#959,#960,
#961,#962,#963,#964,#965,#966,#967,#968,#969,#970,#971,#972,#973,#974,#975,
#976,#977,#978,#979,#980,#981,#982,#983,#984,#985,#986,#987,#988,#989,#990,
#991,#992,#993,#994,#995,#996,#997,#998,#999));
#1001=STYLED_ITEM('',(#1002),#1009);
#1002=PRESENTATION_STYLE_ASSIGNMENT((#1003));
#1003=SURFACE_STYLE_USAGE(.BOTH.,#1004);
#1004=SURFACE_SIDE_STYLE('',(#1005));
#1005=SURFACE_STYLE_FILL_AREA(#1006);
#1006=FILL_AREA_STYLE('',(#1007));
#1007=FILL_AREA_STYLE_COLOUR('',#1008);
#1008=COLOUR_RGB('',0.615686274509804,0.811764705882353,0.929411764705882);
#1009=MANIFOLD_SOLID_BREP('Part 1',#1000);
#1010=SHAPE_DEFINITION_REPRESENTATION(#1586,#1011);
#1011=SHAPE_REPRESENTATION('Part 1',(#1012),#1581);
#1012=AXIS2_PLACEMENT_3D('',#1300,#1062,#1063);
#1013=AXIS2_PLACEMENT_3D('',#1301,#1064,#1065);
#1014=AXIS2_PLACEMENT_3D('',#1310,#1070,#1071);
#1015=AXIS2_PLACEMENT_3D('',#1364,#1099,#1100);
#1016=AXIS2_PLACEMENT_3D('',#1386,#1112,#1113);
#1017=AXIS2_PLACEMENT_3D('',#1397,#1120,#1121);
#1018=AXIS2_PLACEMENT_3D('',#1403,#1125,#1126);
#1019=AXIS2_PLACEMENT_3D('',#1417,#1134,#1135);
#1020=AXIS2_PLACEMENT_3D('',#1427,#1141,#1142);
#1021=AXIS2_PLACEMENT_3D('',#1451,#1156,#1157);
#1022=AXIS2_PLACEMENT_3D('',#1453,#1159,#1160);
#1023=AXIS2_PLACEMENT_3D('',#1456,#1163,#1164);
#1024=AXIS2_PLACEMENT_3D('',#1458,#1166,#1167);
#1025=AXIS2_PLACEMENT_3D('',#1459,#1168,#1169);
#1026=AXIS2_PLACEMENT_3D('',#1461,#1171,#1172);
#1027=AXIS2_PLACEMENT_3D('',#1467,#1176,#1177);
#1028=AXIS2_PLACEMENT_3D('',#1471,#1180,#1181);
#1029=AXIS2_PLACEMENT_3D('',#1473,#1183,#1184);
#1030=AXIS2_PLACEMENT_3D('',#1477,#1187,#1188);
#1031=AXIS2_PLACEMENT_3D('',#1483,#1192,#1193);
#1032=AXIS2_PLACEMENT_3D('',#1486,#1196,#1197);
#1033=AXIS2_PLACEMENT_3D('',#1487,#1198,#1199);
#1034=AXIS2_PLACEMENT_3D('',#1493,#1203,#1204);
#1035=AXIS2_PLACEMENT_3D('',#1501,#1209,#1210);
#1036=AXIS2_PLACEMENT_3D('',#1507,#1214,#1215);
#1037=AXIS2_PLACEMENT_3D('',#1513,#1219,#1220);
#1038=AXIS2_PLACEMENT_3D('',#1518,#1224,#1225);
#1039=AXIS2_PLACEMENT_3D('',#1520,#1227,#1228);
#1040=AXIS2_PLACEMENT_3D('',#1521,#1229,#1230);
#1041=AXIS2_PLACEMENT_3D('',#1527,#1234,#1235);
#1042=AXIS2_PLACEMENT_3D('',#1531,#1238,#1239);
#1043=AXIS2_PLACEMENT_3D('',#1539,#1244,#1245);
#1044=AXIS2_PLACEMENT_3D('',#1545,#1249,#1250);
#1045=AXIS2_PLACEMENT_3D('',#1551,#1254,#1255);
#1046=AXIS2_PLACEMENT_3D('',#1554,#1258,#1259);
#1047=AXIS2_PLACEMENT_3D('',#1555,#1260,#1261);
#1048=AXIS2_PLACEMENT_3D('',#1556,#1262,#1263);
#1049=AXIS2_PLACEMENT_3D('',#1557,#1264,#1265);
#1050=AXIS2_PLACEMENT_3D('',#1560,#1268,#1269);
#1051=AXIS2_PLACEMENT_3D('',#1562,#1271,#1272);
#1052=AXIS2_PLACEMENT_3D('',#1564,#1274,#1275);
#1053=AXIS2_PLACEMENT_3D('',#1565,#1276,#1277);
#1054=AXIS2_PLACEMENT_3D('',#1568,#1280,#1281);
#1055=AXIS2_PLACEMENT_3D('',#1571,#1284,#1285);
#1056=AXIS2_PLACEMENT_3D('',#1572,#1286,#1287);
#1057=AXIS2_PLACEMENT_3D('',#1573,#1288,#1289);
#1058=AXIS2_PLACEMENT_3D('',#1574,#1290,#1291);
#1059=AXIS2_PLACEMENT_3D('',#1576,#1293,#1294);
#1060=AXIS2_PLACEMENT_3D('',#1577,#1295,#1296);
#1061=AXIS2_PLACEMENT_3D('',#1579,#1298,#1299);
#1062=DIRECTION('',(0.,0.,1.));
#1063=DIRECTION('',(1.,0.,0.));
#1064=DIRECTION('',(0.,-1.,0.));
#1065=DIRECTION('',(0.,0.,-1.));
#1066=DIRECTION('',(1.,0.,0.));
#1067=DIRECTION('',(0.,0.,1.));
#1068=DIRECTION('',(1.,0.,0.));
#1069=DIRECTION('',(0.,0.,1.));
#1070=DIRECTION('',(0.,0.,1.));
#1071=DIRECTION('',(1.,0.,0.));
#1072=DIRECTION('',(1.,0.,0.));
#1073=DIRECTION('',(0.,-1.,0.));
#1074=DIRECTION('',(1.,0.,0.));
#1075=DIRECTION('',(0.,-1.,0.));
#1076=DIRECTION('',(-1.,0.,0.));
#1077=DIRECTION('',(4.04070106502096E-16,-1.,0.));
#1078=DIRECTION('',(0.,-1.,0.));
#1079=DIRECTION('',(-3.41480999208033E-16,1.,0.));
#1080=DIRECTION('',(-1.,0.,0.));
#1081=DIRECTION('',(3.41480999208033E-16,1.,0.));
#1082=DIRECTION('',(1.,0.,0.));
#1083=DIRECTION('',(0.,-1.,0.));
#1084=DIRECTION('',(1.,0.,0.));
#1085=DIRECTION('',(-5.46369598732853E-17,-1.,0.));
#1086=DIRECTION('',(1.,0.,0.));
#1087=DIRECTION('',(-5.46369598732853E-17,-1.,0.));
#1088=DIRECTION('',(-1.,0.,0.));
#1089=DIRECTION('',(0.,-1.,0.));
#1090=DIRECTION('',(1.,0.,0.));
#1091=DIRECTION('',(0.,1.,0.));
#1092=DIRECTION('',(-1.,0.,0.));
#1093=DIRECTION('',(-3.35212265889238E-16,1.,0.));
#1094=DIRECTION('',(1.,0.,0.));
#1095=DIRECTION('',(1.,0.,0.));
#1096=DIRECTION('',(0.,1.,0.));
#1097=DIRECTION('',(1.,0.,0.));
#1098=DIRECTION('',(3.35212265889238E-16,1.,0.));
#1099=DIRECTION('',(0.,0.,1.));
#1100=DIRECTION('',(1.,0.,0.));
#1101=DIRECTION('',(-5.46369598732853E-17,-1.,0.));
#1102=DIRECTION('',(-1.,0.,0.));
#1103=DIRECTION('',(-5.46369598732853E-17,-1.,0.));
#1104=DIRECTION('',(-1.,0.,0.));
#1105=DIRECTION('',(0.,-1.,0.));
#1106=DIRECTION('',(1.,0.,0.));
#1107=DIRECTION('',(0.,-1.,0.));
#1108=DIRECTION('',(4.04070106502096E-16,-1.,0.));
#1109=DIRECTION('',(-1.,0.,0.));
#1110=DIRECTION('',(0.,-1.,0.));
#1111=DIRECTION('',(1.,0.,0.));
#1112=DIRECTION('',(1.,-5.46369598732853E-17,0.));
#1113=DIRECTION('',(5.46369598732853E-17,1.,0.));
#1114=DIRECTION('',(0.,0.,1.));
#1115=DIRECTION('',(-5.46369598732853E-17,-1.,0.));
#1116=DIRECTION('',(0.,0.,-1.));
#1117=DIRECTION('',(0.,0.,-1.));
#1118=DIRECTION('',(-5.46369598732853E-17,-1.,0.));
#1119=DIRECTION('',(0.,0.,1.));
#1120=DIRECTION('',(0.,0.,1.));
#1121=DIRECTION('',(1.,0.,0.));
#1122=DIRECTION('',(-5.46369598732853E-17,-1.,0.));
#1123=DIRECTION('',(1.,0.,0.));
#1124=DIRECTION('',(-1.,0.,0.));
#1125=DIRECTION('',(0.,0.,1.));
#1126=DIRECTION('',(1.,0.,0.));
#1127=DIRECTION('',(1.,0.,0.));
#1128=DIRECTION('',(-5.46369598732853E-17,-1.,0.));
#1129=DIRECTION('',(-1.,0.,0.));
#1130=DIRECTION('',(-1.,0.,0.));
#1131=DIRECTION('',(0.,-1.,0.));
#1132=DIRECTION('',(1.,0.,0.));
#1133=DIRECTION('',(0.,-1.,0.));
#1134=DIRECTION('',(0.,-1.,0.));
#1135=DIRECTION('',(0.,0.,-1.));
#1136=DIRECTION('',(0.,0.,-1.));
#1137=DIRECTION('',(0.,0.,-1.));
#1138=DIRECTION('',(-1.,0.,0.));
#1139=DIRECTION('',(0.,0.,-1.));
#1140=DIRECTION('',(-1.,0.,0.));
#1141=DIRECTION('',(0.,1.,0.));
#1142=DIRECTION('',(0.,0.,1.));
#1143=DIRECTION('',(-1.,0.,0.));
#1144=DIRECTION('',(0.,0.,-1.));
#1145=DIRECTION('',(1.,0.,0.));
#1146=DIRECTION('',(0.,0.,-1.));
#1147=DIRECTION('',(1.,0.,0.));
#1148=DIRECTION('',(0.,0.,-1.));
#1149=DIRECTION('',(0.,0.,-1.));
#1150=DIRECTION('',(0.,0.,-1.));
#1151=DIRECTION('',(0.,0.,-1.));
#1152=DIRECTION('',(1.,0.,0.));
#1153=DIRECTION('',(0.,0.,-1.));
#1154=DIRECTION('',(1.,0.,0.));
#1155=DIRECTION('',(0.,0.,-1.));
#1156=DIRECTION('',(0.,-1.,0.));
#1157=DIRECTION('',(0.,0.,-1.));
#1158=DIRECTION('',(0.,0.,-1.));
#1159=DIRECTION('',(1.,-5.46369598732853E-17,0.));
#1160=DIRECTION('',(5.46369598732853E-17,1.,0.));
#1161=DIRECTION('',(0.,0.,-1.));
#1162=DIRECTION('',(0.,0.,-1.));
#1163=DIRECTION('',(1.,0.,0.));
#1164=DIRECTION('',(0.,0.,-1.));
#1165=DIRECTION('',(0.,0.,-1.));
#1166=DIRECTION('',(0.,1.,0.));
#1167=DIRECTION('',(0.,0.,1.));
#1168=DIRECTION('',(1.,0.,0.));
#1169=DIRECTION('',(0.,0.,-1.));
#1170=DIRECTION('',(0.,0.,-1.));
#1171=DIRECTION('',(1.,-3.41480999208033E-16,0.));
#1172=DIRECTION('',(3.41480999208033E-16,1.,0.));
#1173=DIRECTION('',(-3.41480999208033E-16,-1.,0.));
#1174=DIRECTION('',(0.,0.,-1.));
#1175=DIRECTION('',(-3.41480999208033E-16,-1.,0.));
#1176=DIRECTION('',(-1.,-3.41480999208033E-16,0.));
#1177=DIRECTION('',(3.41480999208033E-16,-1.,0.));
#1178=DIRECTION('',(-3.41480999208033E-16,1.,0.));
#1179=DIRECTION('',(0.,0.,-1.));
#1180=DIRECTION('',(0.,0.,1.));
#1181=DIRECTION('',(1.,0.,0.));
#1182=DIRECTION('',(-1.,0.,0.));
#1183=DIRECTION('',(-1.,3.41480999208033E-16,0.));
#1184=DIRECTION('',(-3.41480999208033E-16,-1.,0.));
#1185=DIRECTION('',(0.,0.,-1.));
#1186=DIRECTION('',(3.41480999208033E-16,1.,0.));
#1187=DIRECTION('',(0.,-1.,0.));
#1188=DIRECTION('',(0.,0.,-1.));
#1189=DIRECTION('',(-1.,0.,0.));
#1190=DIRECTION('',(0.,0.,-1.));
#1191=DIRECTION('',(-1.,0.,0.));
#1192=DIRECTION('',(1.,-3.41480999208033E-16,0.));
#1193=DIRECTION('',(3.41480999208033E-16,1.,0.));
#1194=DIRECTION('',(-3.41480999208033E-16,-1.,0.));
#1195=DIRECTION('',(-3.41480999208033E-16,-1.,0.));
#1196=DIRECTION('',(0.,0.,1.));
#1197=DIRECTION('',(1.,0.,0.));
#1198=DIRECTION('',(0.,1.,0.));
#1199=DIRECTION('',(0.,0.,1.));
#1200=DIRECTION('',(0.,0.,-1.));
#1201=DIRECTION('',(1.,0.,0.));
#1202=DIRECTION('',(0.,0.,-1.));
#1203=DIRECTION('',(-1.,0.,0.));
#1204=DIRECTION('',(0.,0.,1.));
#1205=DIRECTION('',(0.,0.,-1.));
#1206=DIRECTION('',(0.,-1.,0.));
#1207=DIRECTION('',(0.,0.,-1.));
#1208=DIRECTION('',(0.,1.,0.));
#1209=DIRECTION('',(0.,-1.,0.));
#1210=DIRECTION('',(0.,0.,-1.));
#1211=DIRECTION('',(-1.,0.,0.));
#1212=DIRECTION('',(0.,0.,-1.));
#1213=DIRECTION('',(-1.,0.,0.));
#1214=DIRECTION('',(1.,0.,0.));
#1215=DIRECTION('',(0.,0.,-1.));
#1216=DIRECTION('',(0.,-1.,0.));
#1217=DIRECTION('',(0.,0.,-1.));
#1218=DIRECTION('',(0.,-1.,0.));
#1219=DIRECTION('',(0.,1.,0.));
#1220=DIRECTION('',(0.,0.,1.));
#1221=DIRECTION('',(0.,0.,-1.));
#1222=DIRECTION('',(1.,0.,0.));
#1223=DIRECTION('',(-1.,0.,0.));
#1224=DIRECTION('',(-1.,3.35212265889238E-16,0.));
#1225=DIRECTION('',(-3.35212265889238E-16,-1.,0.));
#1226=DIRECTION('',(3.35212265889238E-16,1.,0.));
#1227=DIRECTION('',(0.,0.,1.));
#1228=DIRECTION('',(1.,0.,0.));
#1229=DIRECTION('',(0.,1.,0.));
#1230=DIRECTION('',(0.,0.,1.));
#1231=DIRECTION('',(0.,0.,-1.));
#1232=DIRECTION('',(1.,0.,0.));
#1233=DIRECTION('',(0.,0.,-1.));
#1234=DIRECTION('',(-1.,-3.35212265889238E-16,0.));
#1235=DIRECTION('',(3.35212265889238E-16,-1.,0.));
#1236=DIRECTION('',(0.,0.,-1.));
#1237=DIRECTION('',(-3.35212265889238E-16,1.,0.));
#1238=DIRECTION('',(0.,-1.,0.));
#1239=DIRECTION('',(0.,0.,-1.));
#1240=DIRECTION('',(0.,0.,-1.));
#1241=DIRECTION('',(1.,0.,0.));
#1242=DIRECTION('',(0.,0.,-1.));
#1243=DIRECTION('',(-1.,0.,0.));
#1244=DIRECTION('',(1.,0.,0.));
#1245=DIRECTION('',(0.,0.,-1.));
#1246=DIRECTION('',(0.,-1.,0.));
#1247=DIRECTION('',(0.,0.,-1.));
#1248=DIRECTION('',(0.,-1.,0.));
#1249=DIRECTION('',(0.,-1.,0.));
#1250=DIRECTION('',(0.,0.,-1.));
#1251=DIRECTION('',(-1.,0.,0.));
#1252=DIRECTION('',(0.,0.,-1.));
#1253=DIRECTION('',(-1.,0.,0.));
#1254=DIRECTION('',(-1.,0.,0.));
#1255=DIRECTION('',(0.,0.,1.));
#1256=DIRECTION('',(0.,1.,0.));
#1257=DIRECTION('',(0.,-1.,0.));
#1258=DIRECTION('',(0.,0.,1.));
#1259=DIRECTION('',(1.,0.,0.));
#1260=DIRECTION('',(0.,0.,1.));
#1261=DIRECTION('',(1.,0.,0.));
#1262=DIRECTION('',(0.,0.,1.));
#1263=DIRECTION('',(1.,0.,0.));
#1264=DIRECTION('',(0.,0.,1.));
#1265=DIRECTION('',(1.,0.,0.));
#1266=DIRECTION('',(0.,-1.,0.));
#1267=DIRECTION('',(0.,-1.,0.));
#1268=DIRECTION('',(-1.,0.,0.));
#1269=DIRECTION('',(0.,0.,1.));
#1270=DIRECTION('',(0.,-1.,0.));
#1271=DIRECTION('',(0.,0.,1.));
#1272=DIRECTION('',(1.,0.,0.));
#1273=DIRECTION('',(0.,-1.,0.));
#1274=DIRECTION('',(-1.,0.,0.));
#1275=DIRECTION('',(0.,0.,1.));
#1276=DIRECTION('',(-1.,0.,0.));
#1277=DIRECTION('',(0.,0.,1.));
#1278=DIRECTION('',(0.,0.,1.));
#1279=DIRECTION('',(0.,0.,1.));
#1280=DIRECTION('',(-1.,0.,0.));
#1281=DIRECTION('',(0.,0.,1.));
#1282=DIRECTION('',(0.,0.,1.));
#1283=DIRECTION('',(0.,0.,1.));
#1284=DIRECTION('',(0.,-1.,0.));
#1285=DIRECTION('',(0.,0.,-1.));
#1286=DIRECTION('',(0.,1.,0.));
#1287=DIRECTION('',(0.,0.,1.));
#1288=DIRECTION('',(0.,-1.,0.));
#1289=DIRECTION('',(0.,0.,-1.));
#1290=DIRECTION('',(-1.,-4.04070106502096E-16,0.));
#1291=DIRECTION('',(4.04070106502096E-16,-1.,0.));
#1292=DIRECTION('',(0.,0.,1.));
#1293=DIRECTION('',(0.,1.,0.));
#1294=DIRECTION('',(0.,0.,1.));
#1295=DIRECTION('',(0.,-1.,0.));
#1296=DIRECTION('',(0.,0.,-1.));
#1297=DIRECTION('',(0.,0.,1.));
#1298=DIRECTION('',(-1.,0.,0.));
#1299=DIRECTION('',(0.,0.,1.));
#1300=CARTESIAN_POINT('',(0.,0.,0.));
#1301=CARTESIAN_POINT('',(0.019225,-0.021075,-0.0224));
#1302=CARTESIAN_POINT('',(0.,-0.021075,0.));
#1303=CARTESIAN_POINT('',(-0.0177625,-0.021075,0.));
#1304=CARTESIAN_POINT('',(0.0177625,-0.021075,-6.93889390390723E-18));
#1305=CARTESIAN_POINT('',(-0.0177625,-0.021075,-0.0224));
#1306=CARTESIAN_POINT('',(-0.0177625,-0.021075,0.003));
#1307=CARTESIAN_POINT('',(0.019225,-0.021075,0.003));
#1308=CARTESIAN_POINT('',(0.0177625,-0.021075,0.003));
#1309=CARTESIAN_POINT('',(0.0177625,-0.021075,-0.0224));
#1310=CARTESIAN_POINT('',(0.,0.,0.003));
#1311=CARTESIAN_POINT('',(-0.02810625,-0.05542,0.003));
#1312=CARTESIAN_POINT('',(-0.03845,-0.05542,0.003));
#1313=CARTESIAN_POINT('',(-0.0177625,-0.05542,0.003));
#1314=CARTESIAN_POINT('',(-0.03845,0.03860625,0.003));
#1315=CARTESIAN_POINT('',(-0.03845,0.0575,0.003));
#1316=CARTESIAN_POINT('',(-0.019225,0.0575,0.003));
#1317=CARTESIAN_POINT('',(0.03845,0.0575,0.003));
#1318=CARTESIAN_POINT('',(0.03845,0.03860625,0.003));
#1319=CARTESIAN_POINT('',(0.03845,-0.05542,0.003));
#1320=CARTESIAN_POINT('',(0.02810625,-0.05542,0.003));
#1321=CARTESIAN_POINT('',(0.0177625,-0.05542,0.003));
#1322=CARTESIAN_POINT('',(0.0177625,-0.0382475,0.003));
#1323=CARTESIAN_POINT('',(-0.0177625,-0.0382475,0.003));
#1324=CARTESIAN_POINT('',(-0.0147625,-0.05796,0.003));
#1325=CARTESIAN_POINT('',(-0.0147625,-0.0605,0.003));
#1326=CARTESIAN_POINT('',(-0.0147625,-0.05542,0.003));
#1327=CARTESIAN_POINT('',(0.0137625,-0.05542,0.003));
#1328=CARTESIAN_POINT('',(0.0147625,-0.05542,0.003));
#1329=CARTESIAN_POINT('',(0.0147625,-0.05796,0.003));
#1330=CARTESIAN_POINT('',(0.0147625,-0.0605,0.003));
#1331=CARTESIAN_POINT('',(-6.93889390390723E-18,-0.0605,0.003));
#1332=CARTESIAN_POINT('',(0.04145,-0.0605,0.003));
#1333=CARTESIAN_POINT('',(0.04145,0.,0.003));
#1334=CARTESIAN_POINT('',(0.04145,-0.021075,0.003));
#1335=CARTESIAN_POINT('',(0.0499211953043938,-0.021075,0.003));
#1336=CARTESIAN_POINT('',(0.04445,-0.021075,0.003));
#1337=CARTESIAN_POINT('',(0.04445,0.,0.003));
#1338=CARTESIAN_POINT('',(0.04445,0.0605,0.003));
#1339=CARTESIAN_POINT('',(0.,0.0605,0.003));
#1340=CARTESIAN_POINT('',(-0.04445,0.0605,0.003));
#1341=CARTESIAN_POINT('',(-0.04445,0.,0.003));
#1342=CARTESIAN_POINT('',(-0.04445,-0.021075,0.003));
#1343=CARTESIAN_POINT('',(-0.046773805564642,-0.021075,0.003));
#1344=CARTESIAN_POINT('',(-0.04145,-0.021075,0.003));
#1345=CARTESIAN_POINT('',(-0.04145,6.93889390390723E-18,0.003));
#1346=CARTESIAN_POINT('',(-0.04145,-0.0605,0.003));
#1347=CARTESIAN_POINT('',(-6.93889390390723E-18,-0.0605,0.003));
#1348=CARTESIAN_POINT('',(-0.0095875,-0.025075,0.003));
#1349=CARTESIAN_POINT('',(-0.0095875,-0.02925,0.003));
#1350=CARTESIAN_POINT('',(-0.0095875,-0.024075,0.003));
#1351=CARTESIAN_POINT('',(-0.0137625,-0.02925,0.003));
#1352=CARTESIAN_POINT('',(-0.0147625,-0.02925,0.003));
#1353=CARTESIAN_POINT('',(-0.0147625,-0.0266625,0.003));
#1354=CARTESIAN_POINT('',(-0.0147625,-0.024075,0.003));
#1355=CARTESIAN_POINT('',(-0.012175,-0.024075,0.003));
#1356=CARTESIAN_POINT('',(0.0137625,-0.02925,0.003));
#1357=CARTESIAN_POINT('',(0.0095875,-0.02925,0.003));
#1358=CARTESIAN_POINT('',(0.0147625,-0.02925,0.003));
#1359=CARTESIAN_POINT('',(0.0095875,-0.025075,0.003));
#1360=CARTESIAN_POINT('',(0.0095875,-0.024075,0.003));
#1361=CARTESIAN_POINT('',(0.012175,-0.024075,0.003));
#1362=CARTESIAN_POINT('',(0.0147625,-0.024075,0.003));
#1363=CARTESIAN_POINT('',(0.0147625,-0.0266625,0.003));
#1364=CARTESIAN_POINT('',(0.,0.,0.));
#1365=CARTESIAN_POINT('',(0.04445,0.,0.));
#1366=CARTESIAN_POINT('',(0.04445,0.0635,0.));
#1367=CARTESIAN_POINT('',(0.04445,-0.0635,0.));
#1368=CARTESIAN_POINT('',(-6.93889390390723E-18,-0.0635,0.));
#1369=CARTESIAN_POINT('',(-0.04445,-0.0635,0.));
#1370=CARTESIAN_POINT('',(-0.04445,0.,0.));
#1371=CARTESIAN_POINT('',(-0.04445,0.0635,0.));
#1372=CARTESIAN_POINT('',(6.93889390390723E-18,0.0635,0.));
#1373=CARTESIAN_POINT('',(-0.03845,0.,0.));
#1374=CARTESIAN_POINT('',(-0.03845,0.0575,0.));
#1375=CARTESIAN_POINT('',(-0.03845,-0.05542,-6.93889390390723E-18));
#1376=CARTESIAN_POINT('',(0.,-0.05542,0.));
#1377=CARTESIAN_POINT('',(-0.0177625,-0.05542,-6.93889390390723E-18));
#1378=CARTESIAN_POINT('',(-0.0177625,0.,0.));
#1379=CARTESIAN_POINT('',(0.0177625,7.17729526674348E-18,0.));
#1380=CARTESIAN_POINT('',(0.0177625,-0.05542,-6.93889390390723E-18));
#1381=CARTESIAN_POINT('',(0.,-0.05542,0.));
#1382=CARTESIAN_POINT('',(0.03845,-0.05542,0.));
#1383=CARTESIAN_POINT('',(0.03845,0.,0.));
#1384=CARTESIAN_POINT('',(0.03845,0.0575,-6.93889390390723E-18));
#1385=CARTESIAN_POINT('',(0.,0.0575,0.));
#1386=CARTESIAN_POINT('',(0.04445,0.,0.003));
#1387=CARTESIAN_POINT('',(0.04445,-0.021075,0.003));
#1388=CARTESIAN_POINT('',(0.04445,-0.021075,0.03475));
#1389=CARTESIAN_POINT('',(0.04445,0.,0.03475));
#1390=CARTESIAN_POINT('',(0.04445,-0.0635,0.03475));
#1391=CARTESIAN_POINT('',(0.04445,-0.0635,0.003));
#1392=CARTESIAN_POINT('',(0.04445,0.0635,0.003));
#1393=CARTESIAN_POINT('',(0.04445,0.0635,0.03475));
#1394=CARTESIAN_POINT('',(0.04445,0.,0.03475));
#1395=CARTESIAN_POINT('',(0.04445,0.0605,0.03475));
#1396=CARTESIAN_POINT('',(0.04445,0.0605,0.003));
#1397=CARTESIAN_POINT('',(0.,0.,0.03475));
#1398=CARTESIAN_POINT('',(-0.04445,0.,0.03475));
#1399=CARTESIAN_POINT('',(-0.04445,0.0635,0.03475));
#1400=CARTESIAN_POINT('',(-0.04445,0.0605,0.03475));
#1401=CARTESIAN_POINT('',(0.,0.0605,0.03475));
#1402=CARTESIAN_POINT('',(6.93889390390723E-18,0.0635,0.03475));
#1403=CARTESIAN_POINT('',(0.,0.,0.03475));
#1404=CARTESIAN_POINT('',(0.,-0.021075,0.03475));
#1405=CARTESIAN_POINT('',(-0.04445,-0.021075,0.03475));
#1406=CARTESIAN_POINT('',(-0.04145,-0.021075,0.03475));
#1407=CARTESIAN_POINT('',(-0.04445,0.,0.03475));
#1408=CARTESIAN_POINT('',(-0.04445,-0.0635,0.03475));
#1409=CARTESIAN_POINT('',(-6.93889390390723E-18,-0.0635,0.03475));
#1410=CARTESIAN_POINT('',(0.,-0.021075,0.03475));
#1411=CARTESIAN_POINT('',(0.04145,-0.021075,0.03475));
#1412=CARTESIAN_POINT('',(0.04145,0.,0.03475));
#1413=CARTESIAN_POINT('',(0.04145,-0.0605,0.03475));
#1414=CARTESIAN_POINT('',(-6.93889390390723E-18,-0.0605,0.03475));
#1415=CARTESIAN_POINT('',(-0.04145,-0.0605,0.03475));
#1416=CARTESIAN_POINT('',(-0.04145,6.93889390390723E-18,0.03475));
#1417=CARTESIAN_POINT('',(-6.93889390390723E-18,-0.0635,0.003));
#1418=CARTESIAN_POINT('',(-0.04445,-0.0635,0.003));
#1419=CARTESIAN_POINT('',(0.00635,-0.0635,0.028175));
#1420=CARTESIAN_POINT('',(0.00635,-0.0635,0.03135));
#1421=CARTESIAN_POINT('',(0.00635,-0.0635,0.025));
#1422=CARTESIAN_POINT('',(-0.003175,-0.0635,0.025));
#1423=CARTESIAN_POINT('',(-0.00635,-0.0635,0.025));
#1424=CARTESIAN_POINT('',(-0.00635,-0.0635,0.028175));
#1425=CARTESIAN_POINT('',(-0.00635,-0.0635,0.03135));
#1426=CARTESIAN_POINT('',(-0.003175,-0.0635,0.03135));
#1427=CARTESIAN_POINT('',(-6.93889390390723E-18,-0.0605,0.03475));
#1428=CARTESIAN_POINT('',(-0.003175,-0.0605,0.03135));
#1429=CARTESIAN_POINT('',(0.00635,-0.0605,0.03135));
#1430=CARTESIAN_POINT('',(-0.00635,-0.0605,0.03135));
#1431=CARTESIAN_POINT('',(-0.00635,-0.0605,0.028175));
#1432=CARTESIAN_POINT('',(-0.00635,-0.0605,0.025));
#1433=CARTESIAN_POINT('',(-6.93889390390723E-18,-0.0605,0.025));
#1434=CARTESIAN_POINT('',(-0.0127625,-0.0605,0.025));
#1435=CARTESIAN_POINT('',(-0.0127625,-0.0605,0.028));
#1436=CARTESIAN_POINT('',(-0.0127625,-0.0605,0.028));
#1437=CARTESIAN_POINT('',(-6.93889390390723E-18,-0.0605,0.028));
#1438=CARTESIAN_POINT('',(-0.0147625,-0.0605,0.028));
#1439=CARTESIAN_POINT('',(-0.0147625,-0.0605,0.028));
#1440=CARTESIAN_POINT('',(-0.04145,-0.0605,0.03475));
#1441=CARTESIAN_POINT('',(0.04145,-0.0605,0.03475));
#1442=CARTESIAN_POINT('',(0.0147625,-0.0605,0.028));
#1443=CARTESIAN_POINT('',(0.0147625,-0.0605,0.028));
#1444=CARTESIAN_POINT('',(-6.93889390390723E-18,-0.0605,0.028));
#1445=CARTESIAN_POINT('',(0.0127625,-0.0605,0.028));
#1446=CARTESIAN_POINT('',(0.0127625,-0.0605,0.028));
#1447=CARTESIAN_POINT('',(0.0127625,-0.0605,0.025));
#1448=CARTESIAN_POINT('',(-6.93889390390723E-18,-0.0605,0.025));
#1449=CARTESIAN_POINT('',(0.00635,-0.0605,0.025));
#1450=CARTESIAN_POINT('',(0.00635,-0.0605,0.028175));
#1451=CARTESIAN_POINT('',(6.93889390390723E-18,0.0635,0.003));
#1452=CARTESIAN_POINT('',(-0.04445,0.0635,0.003));
#1453=CARTESIAN_POINT('',(-0.04445,0.,0.003));
#1454=CARTESIAN_POINT('',(-0.04445,-0.021075,0.003));
#1455=CARTESIAN_POINT('',(-0.04445,0.0605,0.003));
#1456=CARTESIAN_POINT('',(-0.04145,6.93889390390723E-18,0.03475));
#1457=CARTESIAN_POINT('',(-0.04145,-0.021075,0.0538));
#1458=CARTESIAN_POINT('',(0.,0.0605,0.03475));
#1459=CARTESIAN_POINT('',(0.04145,0.,0.03475));
#1460=CARTESIAN_POINT('',(0.04145,-0.021075,0.0538));
#1461=CARTESIAN_POINT('',(-0.0127625,-0.05796,0.028));
#1462=CARTESIAN_POINT('',(-0.0127625,-0.05796,0.025));
#1463=CARTESIAN_POINT('',(-0.0127625,-0.05542,0.025));
#1464=CARTESIAN_POINT('',(-0.0127625,-0.05542,0.028));
#1465=CARTESIAN_POINT('',(-0.0127625,-0.05542,0.028));
#1466=CARTESIAN_POINT('',(-0.0127625,-0.05796,0.028));
#1467=CARTESIAN_POINT('',(-0.0147625,-0.05796,0.028));
#1468=CARTESIAN_POINT('',(-0.0147625,-0.05796,0.028));
#1469=CARTESIAN_POINT('',(-0.0147625,-0.05542,0.028));
#1470=CARTESIAN_POINT('',(-0.0147625,-0.05542,0.028));
#1471=CARTESIAN_POINT('',(0.,0.,0.028));
#1472=CARTESIAN_POINT('',(-0.0137625,-0.05542,0.028));
#1473=CARTESIAN_POINT('',(0.0147625,-0.05796,0.028));
#1474=CARTESIAN_POINT('',(0.0147625,-0.05542,0.028));
#1475=CARTESIAN_POINT('',(0.0147625,-0.05542,0.028));
#1476=CARTESIAN_POINT('',(0.0147625,-0.05796,0.028));
#1477=CARTESIAN_POINT('',(0.0137625,-0.05542,0.028));
#1478=CARTESIAN_POINT('',(-0.00638125,-0.05542,0.025));
#1479=CARTESIAN_POINT('',(0.0127625,-0.05542,0.025));
#1480=CARTESIAN_POINT('',(0.0127625,-0.05542,0.028));
#1481=CARTESIAN_POINT('',(0.0127625,-0.05542,0.028));
#1482=CARTESIAN_POINT('',(0.0137625,-0.05542,0.028));
#1483=CARTESIAN_POINT('',(0.0127625,-0.05796,0.028));
#1484=CARTESIAN_POINT('',(0.0127625,-0.05796,0.025));
#1485=CARTESIAN_POINT('',(0.0127625,-0.05796,0.028));
#1486=CARTESIAN_POINT('',(0.,0.,0.028));
#1487=CARTESIAN_POINT('',(0.012175,-0.024075,0.028));
#1488=CARTESIAN_POINT('',(0.0095875,-0.024075,0.028));
#1489=CARTESIAN_POINT('',(0.0095875,-0.024075,0.028));
#1490=CARTESIAN_POINT('',(0.012175,-0.024075,0.028));
#1491=CARTESIAN_POINT('',(0.0147625,-0.024075,0.028));
#1492=CARTESIAN_POINT('',(0.0147625,-0.024075,0.028));
#1493=CARTESIAN_POINT('',(0.0095875,-0.025075,0.028));
#1494=CARTESIAN_POINT('',(0.0095875,-0.02925,0.025));
#1495=CARTESIAN_POINT('',(0.0095875,-0.02925,0.025));
#1496=CARTESIAN_POINT('',(0.0095875,-0.0276625,0.025));
#1497=CARTESIAN_POINT('',(0.0095875,-0.026075,0.025));
#1498=CARTESIAN_POINT('',(0.0095875,-0.026075,0.028));
#1499=CARTESIAN_POINT('',(0.0095875,-0.026075,0.028));
#1500=CARTESIAN_POINT('',(0.0095875,-0.025075,0.028));
#1501=CARTESIAN_POINT('',(0.011175,-0.026075,0.028));
#1502=CARTESIAN_POINT('',(0.011175,-0.026075,0.025));
#1503=CARTESIAN_POINT('',(0.0127625,-0.026075,0.025));
#1504=CARTESIAN_POINT('',(0.0127625,-0.026075,0.028));
#1505=CARTESIAN_POINT('',(0.0127625,-0.026075,0.028));
#1506=CARTESIAN_POINT('',(0.011175,-0.026075,0.028));
#1507=CARTESIAN_POINT('',(0.0127625,-0.0276625,0.028));
#1508=CARTESIAN_POINT('',(0.0127625,-0.0276625,0.025));
#1509=CARTESIAN_POINT('',(0.0127625,-0.02925,0.025));
#1510=CARTESIAN_POINT('',(0.0127625,-0.02925,0.028));
#1511=CARTESIAN_POINT('',(0.0127625,-0.02925,0.028));
#1512=CARTESIAN_POINT('',(0.0127625,-0.0276625,0.028));
#1513=CARTESIAN_POINT('',(0.0137625,-0.02925,0.028));
#1514=CARTESIAN_POINT('',(0.0147625,-0.02925,0.028));
#1515=CARTESIAN_POINT('',(0.0147625,-0.02925,0.028));
#1516=CARTESIAN_POINT('',(0.0137625,-0.02925,0.028));
#1517=CARTESIAN_POINT('',(0.011175,-0.02925,0.025));
#1518=CARTESIAN_POINT('',(0.0147625,-0.0266625,0.028));
#1519=CARTESIAN_POINT('',(0.0147625,-0.0266625,0.028));
#1520=CARTESIAN_POINT('',(0.,0.,0.028));
#1521=CARTESIAN_POINT('',(-0.012175,-0.024075,0.028));
#1522=CARTESIAN_POINT('',(-0.0147625,-0.024075,0.028));
#1523=CARTESIAN_POINT('',(-0.0147625,-0.024075,0.028));
#1524=CARTESIAN_POINT('',(-0.012175,-0.024075,0.028));
#1525=CARTESIAN_POINT('',(-0.0095875,-0.024075,0.028));
#1526=CARTESIAN_POINT('',(-0.0095875,-0.024075,0.028));
#1527=CARTESIAN_POINT('',(-0.0147625,-0.0266625,0.028));
#1528=CARTESIAN_POINT('',(-0.0147625,-0.02925,0.028));
#1529=CARTESIAN_POINT('',(-0.0147625,-0.02925,0.028));
#1530=CARTESIAN_POINT('',(-0.0147625,-0.0266625,0.028));
#1531=CARTESIAN_POINT('',(-0.0137625,-0.02925,0.028));
#1532=CARTESIAN_POINT('',(-0.0095875,-0.02925,0.025));
#1533=CARTESIAN_POINT('',(-0.0095875,-0.02925,0.025));
#1534=CARTESIAN_POINT('',(-0.011175,-0.02925,0.025));
#1535=CARTESIAN_POINT('',(-0.0127625,-0.02925,0.025));
#1536=CARTESIAN_POINT('',(-0.0127625,-0.02925,0.028));
#1537=CARTESIAN_POINT('',(-0.0127625,-0.02925,0.028));
#1538=CARTESIAN_POINT('',(-0.0137625,-0.02925,0.028));
#1539=CARTESIAN_POINT('',(-0.0127625,-0.0276625,0.028));
#1540=CARTESIAN_POINT('',(-0.0127625,-0.0276625,0.025));
#1541=CARTESIAN_POINT('',(-0.0127625,-0.026075,0.025));
#1542=CARTESIAN_POINT('',(-0.0127625,-0.026075,0.028));
#1543=CARTESIAN_POINT('',(-0.0127625,-0.026075,0.028));
#1544=CARTESIAN_POINT('',(-0.0127625,-0.0276625,0.028));
#1545=CARTESIAN_POINT('',(-0.011175,-0.026075,0.028));
#1546=CARTESIAN_POINT('',(-0.011175,-0.026075,0.025));
#1547=CARTESIAN_POINT('',(-0.0095875,-0.026075,0.025));
#1548=CARTESIAN_POINT('',(-0.0095875,-0.026075,0.028));
#1549=CARTESIAN_POINT('',(-0.0095875,-0.026075,0.028));
#1550=CARTESIAN_POINT('',(-0.011175,-0.026075,0.028));
#1551=CARTESIAN_POINT('',(-0.0095875,-0.025075,0.028));
#1552=CARTESIAN_POINT('',(-0.0095875,-0.025075,0.028));
#1553=CARTESIAN_POINT('',(-0.0095875,-0.0276625,0.025));
#1554=CARTESIAN_POINT('',(0.,0.,0.028));
#1555=CARTESIAN_POINT('',(0.,0.,0.025));
#1556=CARTESIAN_POINT('',(0.,0.,0.025));
#1557=CARTESIAN_POINT('',(0.,0.,0.025));
#1558=CARTESIAN_POINT('',(-0.00635,-0.0605,0.025));
#1559=CARTESIAN_POINT('',(0.00635,-0.0605,0.025));
#1560=CARTESIAN_POINT('',(0.00635,-0.0605,0.028175));
#1561=CARTESIAN_POINT('',(0.00635,-0.0605,0.03135));
#1562=CARTESIAN_POINT('',(-0.003175,-0.0605,0.03135));
#1563=CARTESIAN_POINT('',(-0.00635,-0.0605,0.03135));
#1564=CARTESIAN_POINT('',(-0.00635,-0.0605,0.028175));
#1565=CARTESIAN_POINT('',(-0.03845,0.03860625,-0.0224));
#1566=CARTESIAN_POINT('',(-0.03845,0.0575,-0.0224));
#1567=CARTESIAN_POINT('',(-0.03845,-0.05542,-0.0224));
#1568=CARTESIAN_POINT('',(0.03845,0.03860625,-0.0224));
#1569=CARTESIAN_POINT('',(0.03845,-0.05542,-0.0224));
#1570=CARTESIAN_POINT('',(0.03845,0.0575,-0.0224));
#1571=CARTESIAN_POINT('',(-0.019225,0.0575,-0.0224));
#1572=CARTESIAN_POINT('',(0.0499211953043938,-0.021075,0.0538));
#1573=CARTESIAN_POINT('',(-0.046773805564642,-0.021075,0.0538));
#1574=CARTESIAN_POINT('',(0.0177625,-0.0382475,-0.0224));
#1575=CARTESIAN_POINT('',(0.0177625,-0.05542,-0.0224));
#1576=CARTESIAN_POINT('',(0.02810625,-0.05542,-0.0224));
#1577=CARTESIAN_POINT('',(-0.02810625,-0.05542,-0.0224));
#1578=CARTESIAN_POINT('',(-0.0177625,-0.05542,-0.0224));
#1579=CARTESIAN_POINT('',(-0.0177625,-0.0382475,-0.0224));
#1580=MECHANICAL_DESIGN_GEOMETRIC_PRESENTATION_REPRESENTATION('',(#1001),
#1581);
#1581=(
GEOMETRIC_REPRESENTATION_CONTEXT(3)
GLOBAL_UNCERTAINTY_ASSIGNED_CONTEXT((#1582))
GLOBAL_UNIT_ASSIGNED_CONTEXT((#1585,#1584,#1583))
REPRESENTATION_CONTEXT('Part 1','TOP_LEVEL_ASSEMBLY_PART')
);
#1582=UNCERTAINTY_MEASURE_WITH_UNIT(LENGTH_MEASURE(1.E-8),#1585,
'DISTANCE_ACCURACY_VALUE','Maximum Tolerance applied to model');
#1583=(
NAMED_UNIT(*)
SI_UNIT($,.STERADIAN.)
SOLID_ANGLE_UNIT()
);
#1584=(
NAMED_UNIT(*)
PLANE_ANGLE_UNIT()
SI_UNIT($,.RADIAN.)
);
#1585=(
LENGTH_UNIT()
NAMED_UNIT(*)
SI_UNIT($,.METRE.)
);
#1586=PRODUCT_DEFINITION_SHAPE('','',#1587);
#1587=PRODUCT_DEFINITION('','',#1589,#1588);
#1588=PRODUCT_DEFINITION_CONTEXT('',#1595,'design');
#1589=PRODUCT_DEFINITION_FORMATION_WITH_SPECIFIED_SOURCE('','',#1591,
 .NOT_KNOWN.);
#1590=PRODUCT_RELATED_PRODUCT_CATEGORY('','',(#1591));
#1591=PRODUCT('Part 1','Part 1','Part 1',(#1593));
#1592=PRODUCT_CATEGORY('','');
#1593=PRODUCT_CONTEXT('',#1595,'mechanical');
#1594=APPLICATION_PROTOCOL_DEFINITION('international standard',
'ap242_managed_model_based_3d_engineering',2020,#1595);
#1595=APPLICATION_CONTEXT('managed model based 3d engineering');
ENDSEC;
END-ISO-10303-21;
