ISO-10303-21;
HEADER;
/* Generated by software containing ST-Developer
 * from STEP Tools, Inc. (www.steptools.com) 
 */
/* OPTION: using custom renumber hook */

FILE_DESCRIPTION(
/* description */ ('STEP AP242 Edition 2',
'CAx-IF Rec.Pracs.---Representation and Presentation of Product Manufa
cturing Information (PMI)---4.0---2014-10-13',
'CAx-IF Rec.Pracs.---3D Tessellated Geometry---0.4---2014-09-14','2;1',
'CAx-IF Rec.Pracs.---User Defined Attributes---1.5---2016-08-15'),
/* implementation_level */ '2;1');

FILE_NAME(
/* name */ 'Alarm Clock Base v2',
/* time_stamp */ '2026-08-12T17:57:45Z',
/* author */ (''),
/* organization */ (''),
/* preprocessor_version */ 'ST-DEVELOPER v20',
/* originating_system */ 'ONSHAPE BY PTC INC, 1.219',
/* authorisation */ '  ');

FILE_SCHEMA (('AP242_MANAGED_MODEL_BASED_3D_ENGINEERING_MIM_LF { 1 0 10303 442 3 1 4 }'));
ENDSEC;

DATA;
#10=SHAPE_REPRESENTATION_RELATIONSHIP('','',#761,#11);
#11=ADVANCED_BREP_SHAPE_REPRESENTATION('',(#759),#1191);
#12=ORIENTED_EDGE('',*,*,#216,.F.);
#13=ORIENTED_EDGE('',*,*,#217,.F.);
#14=ORIENTED_EDGE('',*,*,#218,.T.);
#15=ORIENTED_EDGE('',*,*,#219,.T.);
#16=ORIENTED_EDGE('',*,*,#220,.T.);
#17=ORIENTED_EDGE('',*,*,#221,.T.);
#18=ORIENTED_EDGE('',*,*,#222,.F.);
#19=ORIENTED_EDGE('',*,*,#223,.F.);
#20=ORIENTED_EDGE('',*,*,#224,.T.);
#21=ORIENTED_EDGE('',*,*,#225,.T.);
#22=ORIENTED_EDGE('',*,*,#226,.F.);
#23=ORIENTED_EDGE('',*,*,#227,.F.);
#24=ORIENTED_EDGE('',*,*,#228,.F.);
#25=ORIENTED_EDGE('',*,*,#229,.T.);
#26=ORIENTED_EDGE('',*,*,#230,.F.);
#27=ORIENTED_EDGE('',*,*,#231,.F.);
#28=ORIENTED_EDGE('',*,*,#232,.T.);
#29=ORIENTED_EDGE('',*,*,#233,.T.);
#30=ORIENTED_EDGE('',*,*,#234,.F.);
#31=ORIENTED_EDGE('',*,*,#235,.F.);
#32=ORIENTED_EDGE('',*,*,#236,.F.);
#33=ORIENTED_EDGE('',*,*,#237,.T.);
#34=ORIENTED_EDGE('',*,*,#238,.F.);
#35=ORIENTED_EDGE('',*,*,#239,.F.);
#36=ORIENTED_EDGE('',*,*,#240,.T.);
#37=ORIENTED_EDGE('',*,*,#241,.T.);
#38=ORIENTED_EDGE('',*,*,#242,.T.);
#39=ORIENTED_EDGE('',*,*,#234,.T.);
#40=ORIENTED_EDGE('',*,*,#243,.F.);
#41=ORIENTED_EDGE('',*,*,#244,.F.);
#42=ORIENTED_EDGE('',*,*,#245,.T.);
#43=ORIENTED_EDGE('',*,*,#230,.T.);
#44=ORIENTED_EDGE('',*,*,#246,.F.);
#45=ORIENTED_EDGE('',*,*,#247,.T.);
#46=ORIENTED_EDGE('',*,*,#248,.T.);
#47=ORIENTED_EDGE('',*,*,#249,.T.);
#48=ORIENTED_EDGE('',*,*,#250,.F.);
#49=ORIENTED_EDGE('',*,*,#251,.T.);
#50=ORIENTED_EDGE('',*,*,#252,.T.);
#51=ORIENTED_EDGE('',*,*,#253,.F.);
#52=ORIENTED_EDGE('',*,*,#254,.F.);
#53=ORIENTED_EDGE('',*,*,#255,.F.);
#54=ORIENTED_EDGE('',*,*,#256,.T.);
#55=ORIENTED_EDGE('',*,*,#217,.T.);
#56=ORIENTED_EDGE('',*,*,#257,.T.);
#57=ORIENTED_EDGE('',*,*,#258,.F.);
#58=ORIENTED_EDGE('',*,*,#259,.F.);
#59=ORIENTED_EDGE('',*,*,#255,.T.);
#60=ORIENTED_EDGE('',*,*,#260,.T.);
#61=ORIENTED_EDGE('',*,*,#219,.F.);
#62=ORIENTED_EDGE('',*,*,#261,.F.);
#63=ORIENTED_EDGE('',*,*,#258,.T.);
#64=ORIENTED_EDGE('',*,*,#254,.T.);
#65=ORIENTED_EDGE('',*,*,#216,.T.);
#66=ORIENTED_EDGE('',*,*,#260,.F.);
#67=ORIENTED_EDGE('',*,*,#257,.F.);
#68=ORIENTED_EDGE('',*,*,#245,.F.);
#69=ORIENTED_EDGE('',*,*,#262,.F.);
#70=ORIENTED_EDGE('',*,*,#263,.T.);
#71=ORIENTED_EDGE('',*,*,#231,.T.);
#72=ORIENTED_EDGE('',*,*,#244,.T.);
#73=ORIENTED_EDGE('',*,*,#264,.F.);
#74=ORIENTED_EDGE('',*,*,#265,.F.);
#75=ORIENTED_EDGE('',*,*,#262,.T.);
#76=ORIENTED_EDGE('',*,*,#243,.T.);
#77=ORIENTED_EDGE('',*,*,#233,.F.);
#78=ORIENTED_EDGE('',*,*,#266,.F.);
#79=ORIENTED_EDGE('',*,*,#264,.T.);
#80=ORIENTED_EDGE('',*,*,#263,.F.);
#81=ORIENTED_EDGE('',*,*,#265,.T.);
#82=ORIENTED_EDGE('',*,*,#266,.T.);
#83=ORIENTED_EDGE('',*,*,#232,.F.);
#84=ORIENTED_EDGE('',*,*,#256,.F.);
#85=ORIENTED_EDGE('',*,*,#259,.T.);
#86=ORIENTED_EDGE('',*,*,#261,.T.);
#87=ORIENTED_EDGE('',*,*,#218,.F.);
#88=ORIENTED_EDGE('',*,*,#267,.F.);
#89=ORIENTED_EDGE('',*,*,#268,.F.);
#90=ORIENTED_EDGE('',*,*,#269,.T.);
#91=ORIENTED_EDGE('',*,*,#227,.T.);
#92=ORIENTED_EDGE('',*,*,#240,.F.);
#93=ORIENTED_EDGE('',*,*,#229,.F.);
#94=ORIENTED_EDGE('',*,*,#270,.T.);
#95=ORIENTED_EDGE('',*,*,#271,.T.);
#96=ORIENTED_EDGE('',*,*,#269,.F.);
#97=ORIENTED_EDGE('',*,*,#272,.T.);
#98=ORIENTED_EDGE('',*,*,#270,.F.);
#99=ORIENTED_EDGE('',*,*,#228,.T.);
#100=ORIENTED_EDGE('',*,*,#241,.F.);
#101=ORIENTED_EDGE('',*,*,#271,.F.);
#102=ORIENTED_EDGE('',*,*,#272,.F.);
#103=ORIENTED_EDGE('',*,*,#268,.T.);
#104=ORIENTED_EDGE('',*,*,#273,.F.);
#105=ORIENTED_EDGE('',*,*,#274,.F.);
#106=ORIENTED_EDGE('',*,*,#275,.T.);
#107=ORIENTED_EDGE('',*,*,#276,.T.);
#108=ORIENTED_EDGE('',*,*,#274,.T.);
#109=ORIENTED_EDGE('',*,*,#277,.T.);
#110=ORIENTED_EDGE('',*,*,#237,.F.);
#111=ORIENTED_EDGE('',*,*,#278,.F.);
#112=ORIENTED_EDGE('',*,*,#242,.F.);
#113=ORIENTED_EDGE('',*,*,#276,.F.);
#114=ORIENTED_EDGE('',*,*,#279,.T.);
#115=ORIENTED_EDGE('',*,*,#235,.T.);
#116=ORIENTED_EDGE('',*,*,#275,.F.);
#117=ORIENTED_EDGE('',*,*,#278,.T.);
#118=ORIENTED_EDGE('',*,*,#236,.T.);
#119=ORIENTED_EDGE('',*,*,#279,.F.);
#120=ORIENTED_EDGE('',*,*,#252,.F.);
#121=ORIENTED_EDGE('',*,*,#280,.F.);
#122=ORIENTED_EDGE('',*,*,#281,.T.);
#123=ORIENTED_EDGE('',*,*,#282,.T.);
#124=ORIENTED_EDGE('',*,*,#251,.F.);
#125=ORIENTED_EDGE('',*,*,#283,.F.);
#126=ORIENTED_EDGE('',*,*,#284,.F.);
#127=ORIENTED_EDGE('',*,*,#285,.F.);
#128=ORIENTED_EDGE('',*,*,#286,.T.);
#129=ORIENTED_EDGE('',*,*,#280,.T.);
#130=ORIENTED_EDGE('',*,*,#287,.F.);
#131=ORIENTED_EDGE('',*,*,#288,.F.);
#132=ORIENTED_EDGE('',*,*,#289,.T.);
#133=ORIENTED_EDGE('',*,*,#285,.T.);
#134=ORIENTED_EDGE('',*,*,#288,.T.);
#135=ORIENTED_EDGE('',*,*,#290,.T.);
#136=ORIENTED_EDGE('',*,*,#291,.F.);
#137=ORIENTED_EDGE('',*,*,#292,.F.);
#138=ORIENTED_EDGE('',*,*,#250,.T.);
#139=ORIENTED_EDGE('',*,*,#293,.F.);
#140=ORIENTED_EDGE('',*,*,#294,.F.);
#141=ORIENTED_EDGE('',*,*,#291,.T.);
#142=ORIENTED_EDGE('',*,*,#295,.T.);
#143=ORIENTED_EDGE('',*,*,#283,.T.);
#144=ORIENTED_EDGE('',*,*,#253,.T.);
#145=ORIENTED_EDGE('',*,*,#282,.F.);
#146=ORIENTED_EDGE('',*,*,#296,.F.);
#147=ORIENTED_EDGE('',*,*,#293,.T.);
#148=ORIENTED_EDGE('',*,*,#281,.F.);
#149=ORIENTED_EDGE('',*,*,#286,.F.);
#150=ORIENTED_EDGE('',*,*,#289,.F.);
#151=ORIENTED_EDGE('',*,*,#292,.T.);
#152=ORIENTED_EDGE('',*,*,#294,.T.);
#153=ORIENTED_EDGE('',*,*,#296,.T.);
#154=ORIENTED_EDGE('',*,*,#249,.F.);
#155=ORIENTED_EDGE('',*,*,#297,.F.);
#156=ORIENTED_EDGE('',*,*,#298,.T.);
#157=ORIENTED_EDGE('',*,*,#299,.T.);
#158=ORIENTED_EDGE('',*,*,#248,.F.);
#159=ORIENTED_EDGE('',*,*,#300,.F.);
#160=ORIENTED_EDGE('',*,*,#301,.T.);
#161=ORIENTED_EDGE('',*,*,#297,.T.);
#162=ORIENTED_EDGE('',*,*,#247,.F.);
#163=ORIENTED_EDGE('',*,*,#302,.F.);
#164=ORIENTED_EDGE('',*,*,#303,.F.);
#165=ORIENTED_EDGE('',*,*,#304,.F.);
#166=ORIENTED_EDGE('',*,*,#305,.T.);
#167=ORIENTED_EDGE('',*,*,#300,.T.);
#168=ORIENTED_EDGE('',*,*,#306,.F.);
#169=ORIENTED_EDGE('',*,*,#307,.F.);
#170=ORIENTED_EDGE('',*,*,#308,.T.);
#171=ORIENTED_EDGE('',*,*,#304,.T.);
#172=ORIENTED_EDGE('',*,*,#309,.F.);
#173=ORIENTED_EDGE('',*,*,#310,.F.);
#174=ORIENTED_EDGE('',*,*,#311,.T.);
#175=ORIENTED_EDGE('',*,*,#307,.T.);
#176=ORIENTED_EDGE('',*,*,#246,.T.);
#177=ORIENTED_EDGE('',*,*,#299,.F.);
#178=ORIENTED_EDGE('',*,*,#312,.F.);
#179=ORIENTED_EDGE('',*,*,#310,.T.);
#180=ORIENTED_EDGE('',*,*,#313,.T.);
#181=ORIENTED_EDGE('',*,*,#302,.T.);
#182=ORIENTED_EDGE('',*,*,#298,.F.);
#183=ORIENTED_EDGE('',*,*,#301,.F.);
#184=ORIENTED_EDGE('',*,*,#305,.F.);
#185=ORIENTED_EDGE('',*,*,#308,.F.);
#186=ORIENTED_EDGE('',*,*,#311,.F.);
#187=ORIENTED_EDGE('',*,*,#312,.T.);
#188=ORIENTED_EDGE('',*,*,#309,.T.);
#189=ORIENTED_EDGE('',*,*,#306,.T.);
#190=ORIENTED_EDGE('',*,*,#303,.T.);
#191=ORIENTED_EDGE('',*,*,#313,.F.);
#192=ORIENTED_EDGE('',*,*,#290,.F.);
#193=ORIENTED_EDGE('',*,*,#287,.T.);
#194=ORIENTED_EDGE('',*,*,#284,.T.);
#195=ORIENTED_EDGE('',*,*,#295,.F.);
#196=ORIENTED_EDGE('',*,*,#226,.T.);
#197=ORIENTED_EDGE('',*,*,#314,.T.);
#198=ORIENTED_EDGE('',*,*,#221,.F.);
#199=ORIENTED_EDGE('',*,*,#315,.F.);
#200=ORIENTED_EDGE('',*,*,#238,.T.);
#201=ORIENTED_EDGE('',*,*,#277,.F.);
#202=ORIENTED_EDGE('',*,*,#273,.T.);
#203=ORIENTED_EDGE('',*,*,#267,.T.);
#204=ORIENTED_EDGE('',*,*,#220,.F.);
#205=ORIENTED_EDGE('',*,*,#316,.F.);
#206=ORIENTED_EDGE('',*,*,#239,.T.);
#207=ORIENTED_EDGE('',*,*,#315,.T.);
#208=ORIENTED_EDGE('',*,*,#223,.T.);
#209=ORIENTED_EDGE('',*,*,#317,.F.);
#210=ORIENTED_EDGE('',*,*,#224,.F.);
#211=ORIENTED_EDGE('',*,*,#316,.T.);
#212=ORIENTED_EDGE('',*,*,#222,.T.);
#213=ORIENTED_EDGE('',*,*,#314,.F.);
#214=ORIENTED_EDGE('',*,*,#225,.F.);
#215=ORIENTED_EDGE('',*,*,#317,.T.);
#216=EDGE_CURVE('',#318,#319,#386,.T.);
#217=EDGE_CURVE('',#320,#318,#387,.T.);
#218=EDGE_CURVE('',#320,#321,#388,.T.);
#219=EDGE_CURVE('',#321,#319,#389,.T.);
#220=EDGE_CURVE('',#322,#323,#390,.T.);
#221=EDGE_CURVE('',#323,#324,#391,.T.);
#222=EDGE_CURVE('',#325,#324,#392,.T.);
#223=EDGE_CURVE('',#322,#325,#393,.T.);
#224=EDGE_CURVE('',#326,#327,#394,.T.);
#225=EDGE_CURVE('',#327,#328,#395,.T.);
#226=EDGE_CURVE('',#329,#328,#396,.T.);
#227=EDGE_CURVE('',#330,#329,#397,.T.);
#228=EDGE_CURVE('',#331,#330,#398,.T.);
#229=EDGE_CURVE('',#331,#332,#399,.T.);
#230=EDGE_CURVE('',#333,#332,#400,.T.);
#231=EDGE_CURVE('',#334,#333,#401,.T.);
#232=EDGE_CURVE('',#334,#335,#402,.T.);
#233=EDGE_CURVE('',#335,#336,#403,.T.);
#234=EDGE_CURVE('',#337,#336,#404,.T.);
#235=EDGE_CURVE('',#338,#337,#405,.T.);
#236=EDGE_CURVE('',#339,#338,#406,.T.);
#237=EDGE_CURVE('',#339,#340,#407,.T.);
#238=EDGE_CURVE('',#341,#340,#408,.T.);
#239=EDGE_CURVE('',#326,#341,#409,.T.);
#240=EDGE_CURVE('',#332,#342,#410,.T.);
#241=EDGE_CURVE('',#342,#343,#411,.T.);
#242=EDGE_CURVE('',#343,#337,#412,.T.);
#243=EDGE_CURVE('',#344,#336,#413,.T.);
#244=EDGE_CURVE('',#345,#344,#414,.T.);
#245=EDGE_CURVE('',#345,#333,#415,.T.);
#246=EDGE_CURVE('',#346,#347,#416,.T.);
#247=EDGE_CURVE('',#346,#348,#417,.T.);
#248=EDGE_CURVE('',#348,#349,#418,.T.);
#249=EDGE_CURVE('',#349,#347,#419,.T.);
#250=EDGE_CURVE('',#350,#351,#420,.T.);
#251=EDGE_CURVE('',#350,#352,#421,.T.);
#252=EDGE_CURVE('',#352,#353,#422,.T.);
#253=EDGE_CURVE('',#351,#353,#423,.T.);
#254=EDGE_CURVE('',#354,#318,#424,.T.);
#255=EDGE_CURVE('',#355,#354,#425,.T.);
#256=EDGE_CURVE('',#355,#320,#426,.T.);
#257=EDGE_CURVE('',#354,#356,#427,.T.);
#258=EDGE_CURVE('',#357,#356,#428,.T.);
#259=EDGE_CURVE('',#355,#357,#429,.T.);
#260=EDGE_CURVE('',#356,#319,#430,.T.);
#261=EDGE_CURVE('',#357,#321,#431,.T.);
#262=EDGE_CURVE('',#358,#345,#432,.T.);
#263=EDGE_CURVE('',#358,#334,#433,.T.);
#264=EDGE_CURVE('',#359,#344,#434,.T.);
#265=EDGE_CURVE('',#358,#359,#435,.T.);
#266=EDGE_CURVE('',#359,#335,#436,.T.);
#267=EDGE_CURVE('',#360,#329,#437,.T.);
#268=EDGE_CURVE('',#361,#360,#438,.T.);
#269=EDGE_CURVE('',#361,#330,#439,.T.);
#270=EDGE_CURVE('',#331,#362,#440,.T.);
#271=EDGE_CURVE('',#362,#342,#441,.T.);
#272=EDGE_CURVE('',#361,#362,#442,.T.);
#273=EDGE_CURVE('',#363,#360,#443,.T.);
#274=EDGE_CURVE('',#364,#363,#444,.T.);
#275=EDGE_CURVE('',#364,#365,#445,.T.);
#276=EDGE_CURVE('',#365,#343,#446,.T.);
#277=EDGE_CURVE('',#363,#340,#447,.T.);
#278=EDGE_CURVE('',#364,#339,#448,.T.);
#279=EDGE_CURVE('',#365,#338,#449,.T.);
#280=EDGE_CURVE('',#366,#352,#450,.T.);
#281=EDGE_CURVE('',#366,#367,#451,.T.);
#282=EDGE_CURVE('',#367,#353,#452,.T.);
#283=EDGE_CURVE('',#368,#350,#453,.T.);
#284=EDGE_CURVE('',#369,#368,#454,.T.);
#285=EDGE_CURVE('',#370,#369,#455,.T.);
#286=EDGE_CURVE('',#370,#366,#456,.T.);
#287=EDGE_CURVE('',#371,#369,#457,.T.);
#288=EDGE_CURVE('',#372,#371,#458,.T.);
#289=EDGE_CURVE('',#372,#370,#459,.T.);
#290=EDGE_CURVE('',#371,#373,#460,.T.);
#291=EDGE_CURVE('',#374,#373,#461,.T.);
#292=EDGE_CURVE('',#372,#374,#462,.T.);
#293=EDGE_CURVE('',#375,#351,#463,.T.);
#294=EDGE_CURVE('',#374,#375,#464,.T.);
#295=EDGE_CURVE('',#373,#368,#465,.T.);
#296=EDGE_CURVE('',#375,#367,#466,.T.);
#297=EDGE_CURVE('',#376,#349,#467,.T.);
#298=EDGE_CURVE('',#376,#377,#468,.T.);
#299=EDGE_CURVE('',#377,#347,#469,.T.);
#300=EDGE_CURVE('',#378,#348,#470,.T.);
#301=EDGE_CURVE('',#378,#376,#471,.T.);
#302=EDGE_CURVE('',#379,#346,#472,.T.);
#303=EDGE_CURVE('',#380,#379,#473,.T.);
#304=EDGE_CURVE('',#381,#380,#474,.T.);
#305=EDGE_CURVE('',#381,#378,#475,.T.);
#306=EDGE_CURVE('',#382,#380,#476,.T.);
#307=EDGE_CURVE('',#383,#382,#477,.T.);
#308=EDGE_CURVE('',#383,#381,#478,.T.);
#309=EDGE_CURVE('',#384,#382,#479,.T.);
#310=EDGE_CURVE('',#385,#384,#480,.T.);
#311=EDGE_CURVE('',#385,#383,#481,.T.);
#312=EDGE_CURVE('',#385,#377,#482,.T.);
#313=EDGE_CURVE('',#384,#379,#483,.T.);
#314=EDGE_CURVE('',#328,#324,#484,.T.);
#315=EDGE_CURVE('',#341,#323,#485,.T.);
#316=EDGE_CURVE('',#326,#322,#486,.T.);
#317=EDGE_CURVE('',#327,#325,#487,.T.);
#318=VERTEX_POINT('',#984);
#319=VERTEX_POINT('',#985);
#320=VERTEX_POINT('',#987);
#321=VERTEX_POINT('',#989);
#322=VERTEX_POINT('',#992);
#323=VERTEX_POINT('',#993);
#324=VERTEX_POINT('',#995);
#325=VERTEX_POINT('',#997);
#326=VERTEX_POINT('',#1001);
#327=VERTEX_POINT('',#1002);
#328=VERTEX_POINT('',#1004);
#329=VERTEX_POINT('',#1006);
#330=VERTEX_POINT('',#1008);
#331=VERTEX_POINT('',#1010);
#332=VERTEX_POINT('',#1012);
#333=VERTEX_POINT('',#1014);
#334=VERTEX_POINT('',#1016);
#335=VERTEX_POINT('',#1018);
#336=VERTEX_POINT('',#1020);
#337=VERTEX_POINT('',#1022);
#338=VERTEX_POINT('',#1024);
#339=VERTEX_POINT('',#1026);
#340=VERTEX_POINT('',#1028);
#341=VERTEX_POINT('',#1030);
#342=VERTEX_POINT('',#1034);
#343=VERTEX_POINT('',#1036);
#344=VERTEX_POINT('',#1039);
#345=VERTEX_POINT('',#1041);
#346=VERTEX_POINT('',#1044);
#347=VERTEX_POINT('',#1045);
#348=VERTEX_POINT('',#1047);
#349=VERTEX_POINT('',#1049);
#350=VERTEX_POINT('',#1052);
#351=VERTEX_POINT('',#1053);
#352=VERTEX_POINT('',#1055);
#353=VERTEX_POINT('',#1057);
#354=VERTEX_POINT('',#1061);
#355=VERTEX_POINT('',#1063);
#356=VERTEX_POINT('',#1067);
#357=VERTEX_POINT('',#1069);
#358=VERTEX_POINT('',#1077);
#359=VERTEX_POINT('',#1081);
#360=VERTEX_POINT('',#1088);
#361=VERTEX_POINT('',#1090);
#362=VERTEX_POINT('',#1094);
#363=VERTEX_POINT('',#1100);
#364=VERTEX_POINT('',#1102);
#365=VERTEX_POINT('',#1104);
#366=VERTEX_POINT('',#1114);
#367=VERTEX_POINT('',#1116);
#368=VERTEX_POINT('',#1120);
#369=VERTEX_POINT('',#1122);
#370=VERTEX_POINT('',#1124);
#371=VERTEX_POINT('',#1128);
#372=VERTEX_POINT('',#1130);
#373=VERTEX_POINT('',#1134);
#374=VERTEX_POINT('',#1136);
#375=VERTEX_POINT('',#1140);
#376=VERTEX_POINT('',#1148);
#377=VERTEX_POINT('',#1150);
#378=VERTEX_POINT('',#1154);
#379=VERTEX_POINT('',#1158);
#380=VERTEX_POINT('',#1160);
#381=VERTEX_POINT('',#1162);
#382=VERTEX_POINT('',#1166);
#383=VERTEX_POINT('',#1168);
#384=VERTEX_POINT('',#1172);
#385=VERTEX_POINT('',#1174);
#386=LINE('',#983,#488);
#387=LINE('',#986,#489);
#388=LINE('',#988,#490);
#389=LINE('',#990,#491);
#390=LINE('',#991,#492);
#391=LINE('',#994,#493);
#392=LINE('',#996,#494);
#393=LINE('',#998,#495);
#394=LINE('',#1000,#496);
#395=LINE('',#1003,#497);
#396=LINE('',#1005,#498);
#397=LINE('',#1007,#499);
#398=LINE('',#1009,#500);
#399=LINE('',#1011,#501);
#400=LINE('',#1013,#502);
#401=LINE('',#1015,#503);
#402=LINE('',#1017,#504);
#403=LINE('',#1019,#505);
#404=LINE('',#1021,#506);
#405=LINE('',#1023,#507);
#406=LINE('',#1025,#508);
#407=LINE('',#1027,#509);
#408=LINE('',#1029,#510);
#409=LINE('',#1031,#511);
#410=LINE('',#1033,#512);
#411=LINE('',#1035,#513);
#412=LINE('',#1037,#514);
#413=LINE('',#1038,#515);
#414=LINE('',#1040,#516);
#415=LINE('',#1042,#517);
#416=LINE('',#1043,#518);
#417=LINE('',#1046,#519);
#418=LINE('',#1048,#520);
#419=LINE('',#1050,#521);
#420=LINE('',#1051,#522);
#421=LINE('',#1054,#523);
#422=LINE('',#1056,#524);
#423=LINE('',#1058,#525);
#424=LINE('',#1060,#526);
#425=LINE('',#1062,#527);
#426=LINE('',#1064,#528);
#427=LINE('',#1066,#529);
#428=LINE('',#1068,#530);
#429=LINE('',#1070,#531);
#430=LINE('',#1072,#532);
#431=LINE('',#1073,#533);
#432=LINE('',#1076,#534);
#433=LINE('',#1078,#535);
#434=LINE('',#1080,#536);
#435=LINE('',#1082,#537);
#436=LINE('',#1084,#538);
#437=LINE('',#1087,#539);
#438=LINE('',#1089,#540);
#439=LINE('',#1091,#541);
#440=LINE('',#1093,#542);
#441=LINE('',#1095,#543);
#442=LINE('',#1097,#544);
#443=LINE('',#1099,#545);
#444=LINE('',#1101,#546);
#445=LINE('',#1103,#547);
#446=LINE('',#1105,#548);
#447=LINE('',#1107,#549);
#448=LINE('',#1108,#550);
#449=LINE('',#1110,#551);
#450=LINE('',#1113,#552);
#451=LINE('',#1115,#553);
#452=LINE('',#1117,#554);
#453=LINE('',#1119,#555);
#454=LINE('',#1121,#556);
#455=LINE('',#1123,#557);
#456=LINE('',#1125,#558);
#457=LINE('',#1127,#559);
#458=LINE('',#1129,#560);
#459=LINE('',#1131,#561);
#460=LINE('',#1133,#562);
#461=LINE('',#1135,#563);
#462=LINE('',#1137,#564);
#463=LINE('',#1139,#565);
#464=LINE('',#1141,#566);
#465=LINE('',#1142,#567);
#466=LINE('',#1144,#568);
#467=LINE('',#1147,#569);
#468=LINE('',#1149,#570);
#469=LINE('',#1151,#571);
#470=LINE('',#1153,#572);
#471=LINE('',#1155,#573);
#472=LINE('',#1157,#574);
#473=LINE('',#1159,#575);
#474=LINE('',#1161,#576);
#475=LINE('',#1163,#577);
#476=LINE('',#1165,#578);
#477=LINE('',#1167,#579);
#478=LINE('',#1169,#580);
#479=LINE('',#1171,#581);
#480=LINE('',#1173,#582);
#481=LINE('',#1175,#583);
#482=LINE('',#1177,#584);
#483=LINE('',#1178,#585);
#484=LINE('',#1183,#586);
#485=LINE('',#1184,#587);
#486=LINE('',#1186,#588);
#487=LINE('',#1188,#589);
#488=VECTOR('',#805,1.);
#489=VECTOR('',#806,1.);
#490=VECTOR('',#807,1.);
#491=VECTOR('',#808,1.);
#492=VECTOR('',#809,1.);
#493=VECTOR('',#810,1.);
#494=VECTOR('',#811,1.);
#495=VECTOR('',#812,1.);
#496=VECTOR('',#815,1.);
#497=VECTOR('',#816,1.);
#498=VECTOR('',#817,1.);
#499=VECTOR('',#818,1.);
#500=VECTOR('',#819,1.);
#501=VECTOR('',#820,1.);
#502=VECTOR('',#821,1.);
#503=VECTOR('',#822,1.);
#504=VECTOR('',#823,1.);
#505=VECTOR('',#824,1.);
#506=VECTOR('',#825,1.);
#507=VECTOR('',#826,1.);
#508=VECTOR('',#827,1.);
#509=VECTOR('',#828,1.);
#510=VECTOR('',#829,1.);
#511=VECTOR('',#830,1.);
#512=VECTOR('',#833,1.);
#513=VECTOR('',#834,1.);
#514=VECTOR('',#835,1.);
#515=VECTOR('',#836,1.);
#516=VECTOR('',#837,1.);
#517=VECTOR('',#838,1.);
#518=VECTOR('',#839,1.);
#519=VECTOR('',#840,1.);
#520=VECTOR('',#841,1.);
#521=VECTOR('',#842,1.);
#522=VECTOR('',#843,1.);
#523=VECTOR('',#844,1.);
#524=VECTOR('',#845,1.);
#525=VECTOR('',#846,1.);
#526=VECTOR('',#849,1.);
#527=VECTOR('',#850,1.);
#528=VECTOR('',#851,1.);
#529=VECTOR('',#854,1.);
#530=VECTOR('',#855,1.);
#531=VECTOR('',#856,1.);
#532=VECTOR('',#859,1.);
#533=VECTOR('',#860,1.);
#534=VECTOR('',#865,1.);
#535=VECTOR('',#866,1.);
#536=VECTOR('',#869,1.);
#537=VECTOR('',#870,1.);
#538=VECTOR('',#873,1.);
#539=VECTOR('',#878,1.);
#540=VECTOR('',#879,1.);
#541=VECTOR('',#880,1.);
#542=VECTOR('',#883,1.);
#543=VECTOR('',#884,1.);
#544=VECTOR('',#887,1.);
#545=VECTOR('',#890,1.);
#546=VECTOR('',#891,1.);
#547=VECTOR('',#892,1.);
#548=VECTOR('',#893,1.);
#549=VECTOR('',#896,1.);
#550=VECTOR('',#897,1.);
#551=VECTOR('',#900,1.);
#552=VECTOR('',#905,1.);
#553=VECTOR('',#906,1.);
#554=VECTOR('',#907,1.);
#555=VECTOR('',#910,1.);
#556=VECTOR('',#911,1.);
#557=VECTOR('',#912,1.);
#558=VECTOR('',#913,1.);
#559=VECTOR('',#916,1.);
#560=VECTOR('',#917,1.);
#561=VECTOR('',#918,1.);
#562=VECTOR('',#921,1.);
#563=VECTOR('',#922,1.);
#564=VECTOR('',#923,1.);
#565=VECTOR('',#926,1.);
#566=VECTOR('',#927,1.);
#567=VECTOR('',#928,1.);
#568=VECTOR('',#931,1.);
#569=VECTOR('',#936,1.);
#570=VECTOR('',#937,1.);
#571=VECTOR('',#938,1.);
#572=VECTOR('',#941,1.);
#573=VECTOR('',#942,1.);
#574=VECTOR('',#945,1.);
#575=VECTOR('',#946,1.);
#576=VECTOR('',#947,1.);
#577=VECTOR('',#948,1.);
#578=VECTOR('',#951,1.);
#579=VECTOR('',#952,1.);
#580=VECTOR('',#953,1.);
#581=VECTOR('',#956,1.);
#582=VECTOR('',#957,1.);
#583=VECTOR('',#958,1.);
#584=VECTOR('',#961,1.);
#585=VECTOR('',#962,1.);
#586=VECTOR('',#971,1.);
#587=VECTOR('',#972,1.);
#588=VECTOR('',#975,1.);
#589=VECTOR('',#978,1.);
#590=EDGE_LOOP('',(#12,#13,#14,#15));
#591=EDGE_LOOP('',(#16,#17,#18,#19));
#592=EDGE_LOOP('',(#20,#21,#22,#23,#24,#25,#26,#27,#28,#29,#30,#31,#32,
#33,#34,#35));
#593=EDGE_LOOP('',(#36,#37,#38,#39,#40,#41,#42,#43));
#594=EDGE_LOOP('',(#44,#45,#46,#47));
#595=EDGE_LOOP('',(#48,#49,#50,#51));
#596=EDGE_LOOP('',(#52,#53,#54,#55));
#597=EDGE_LOOP('',(#56,#57,#58,#59));
#598=EDGE_LOOP('',(#60,#61,#62,#63));
#599=EDGE_LOOP('',(#64,#65,#66,#67));
#600=EDGE_LOOP('',(#68,#69,#70,#71));
#601=EDGE_LOOP('',(#72,#73,#74,#75));
#602=EDGE_LOOP('',(#76,#77,#78,#79));
#603=EDGE_LOOP('',(#80,#81,#82,#83));
#604=EDGE_LOOP('',(#84,#85,#86,#87));
#605=EDGE_LOOP('',(#88,#89,#90,#91));
#606=EDGE_LOOP('',(#92,#93,#94,#95));
#607=EDGE_LOOP('',(#96,#97,#98,#99));
#608=EDGE_LOOP('',(#100,#101,#102,#103,#104,#105,#106,#107));
#609=EDGE_LOOP('',(#108,#109,#110,#111));
#610=EDGE_LOOP('',(#112,#113,#114,#115));
#611=EDGE_LOOP('',(#116,#117,#118,#119));
#612=EDGE_LOOP('',(#120,#121,#122,#123));
#613=EDGE_LOOP('',(#124,#125,#126,#127,#128,#129));
#614=EDGE_LOOP('',(#130,#131,#132,#133));
#615=EDGE_LOOP('',(#134,#135,#136,#137));
#616=EDGE_LOOP('',(#138,#139,#140,#141,#142,#143));
#617=EDGE_LOOP('',(#144,#145,#146,#147));
#618=EDGE_LOOP('',(#148,#149,#150,#151,#152,#153));
#619=EDGE_LOOP('',(#154,#155,#156,#157));
#620=EDGE_LOOP('',(#158,#159,#160,#161));
#621=EDGE_LOOP('',(#162,#163,#164,#165,#166,#167));
#622=EDGE_LOOP('',(#168,#169,#170,#171));
#623=EDGE_LOOP('',(#172,#173,#174,#175));
#624=EDGE_LOOP('',(#176,#177,#178,#179,#180,#181));
#625=EDGE_LOOP('',(#182,#183,#184,#185,#186,#187));
#626=EDGE_LOOP('',(#188,#189,#190,#191));
#627=EDGE_LOOP('',(#192,#193,#194,#195));
#628=EDGE_LOOP('',(#196,#197,#198,#199,#200,#201,#202,#203));
#629=EDGE_LOOP('',(#204,#205,#206,#207));
#630=EDGE_LOOP('',(#208,#209,#210,#211));
#631=EDGE_LOOP('',(#212,#213,#214,#215));
#632=FACE_BOUND('',#590,.T.);
#633=FACE_BOUND('',#591,.T.);
#634=FACE_BOUND('',#592,.T.);
#635=FACE_BOUND('',#593,.T.);
#636=FACE_BOUND('',#594,.T.);
#637=FACE_BOUND('',#595,.T.);
#638=FACE_BOUND('',#596,.T.);
#639=FACE_BOUND('',#597,.T.);
#640=FACE_BOUND('',#598,.T.);
#641=FACE_BOUND('',#599,.T.);
#642=FACE_BOUND('',#600,.T.);
#643=FACE_BOUND('',#601,.T.);
#644=FACE_BOUND('',#602,.T.);
#645=FACE_BOUND('',#603,.T.);
#646=FACE_BOUND('',#604,.T.);
#647=FACE_BOUND('',#605,.T.);
#648=FACE_BOUND('',#606,.T.);
#649=FACE_BOUND('',#607,.T.);
#650=FACE_BOUND('',#608,.T.);
#651=FACE_BOUND('',#609,.T.);
#652=FACE_BOUND('',#610,.T.);
#653=FACE_BOUND('',#611,.T.);
#654=FACE_BOUND('',#612,.T.);
#655=FACE_BOUND('',#613,.T.);
#656=FACE_BOUND('',#614,.T.);
#657=FACE_BOUND('',#615,.T.);
#658=FACE_BOUND('',#616,.T.);
#659=FACE_BOUND('',#617,.T.);
#660=FACE_BOUND('',#618,.T.);
#661=FACE_BOUND('',#619,.T.);
#662=FACE_BOUND('',#620,.T.);
#663=FACE_BOUND('',#621,.T.);
#664=FACE_BOUND('',#622,.T.);
#665=FACE_BOUND('',#623,.T.);
#666=FACE_BOUND('',#624,.T.);
#667=FACE_BOUND('',#625,.T.);
#668=FACE_BOUND('',#626,.T.);
#669=FACE_BOUND('',#627,.T.);
#670=FACE_BOUND('',#628,.T.);
#671=FACE_BOUND('',#629,.T.);
#672=FACE_BOUND('',#630,.T.);
#673=FACE_BOUND('',#631,.T.);
#674=PLANE('',#763);
#675=PLANE('',#764);
#676=PLANE('',#765);
#677=PLANE('',#766);
#678=PLANE('',#767);
#679=PLANE('',#768);
#680=PLANE('',#769);
#681=PLANE('',#770);
#682=PLANE('',#771);
#683=PLANE('',#772);
#684=PLANE('',#773);
#685=PLANE('',#774);
#686=PLANE('',#775);
#687=PLANE('',#776);
#688=PLANE('',#777);
#689=PLANE('',#778);
#690=PLANE('',#779);
#691=PLANE('',#780);
#692=PLANE('',#781);
#693=PLANE('',#782);
#694=PLANE('',#783);
#695=PLANE('',#784);
#696=PLANE('',#785);
#697=PLANE('',#786);
#698=PLANE('',#787);
#699=PLANE('',#788);
#700=PLANE('',#789);
#701=PLANE('',#790);
#702=PLANE('',#791);
#703=PLANE('',#792);
#704=PLANE('',#793);
#705=PLANE('',#794);
#706=PLANE('',#795);
#707=PLANE('',#796);
#708=PLANE('',#797);
#709=PLANE('',#798);
#710=PLANE('',#799);
#711=PLANE('',#800);
#712=ADVANCED_FACE('',(#632,#633),#674,.T.);
#713=ADVANCED_FACE('',(#634),#675,.T.);
#714=ADVANCED_FACE('',(#635,#636,#637),#676,.T.);
#715=ADVANCED_FACE('',(#638),#677,.T.);
#716=ADVANCED_FACE('',(#639),#678,.F.);
#717=ADVANCED_FACE('',(#640),#679,.F.);
#718=ADVANCED_FACE('',(#641),#680,.F.);
#719=ADVANCED_FACE('',(#642),#681,.T.);
#720=ADVANCED_FACE('',(#643),#682,.F.);
#721=ADVANCED_FACE('',(#644),#683,.F.);
#722=ADVANCED_FACE('',(#645,#646),#684,.T.);
#723=ADVANCED_FACE('',(#647),#685,.T.);
#724=ADVANCED_FACE('',(#648),#686,.T.);
#725=ADVANCED_FACE('',(#649),#687,.T.);
#726=ADVANCED_FACE('',(#650),#688,.T.);
#727=ADVANCED_FACE('',(#651),#689,.F.);
#728=ADVANCED_FACE('',(#652),#690,.T.);
#729=ADVANCED_FACE('',(#653),#691,.T.);
#730=ADVANCED_FACE('',(#654),#692,.T.);
#731=ADVANCED_FACE('',(#655),#693,.T.);
#732=ADVANCED_FACE('',(#656),#694,.T.);
#733=ADVANCED_FACE('',(#657),#695,.F.);
#734=ADVANCED_FACE('',(#658),#696,.F.);
#735=ADVANCED_FACE('',(#659),#697,.F.);
#736=ADVANCED_FACE('',(#660),#698,.T.);
#737=ADVANCED_FACE('',(#661),#699,.T.);
#738=ADVANCED_FACE('',(#662),#700,.T.);
#739=ADVANCED_FACE('',(#663),#701,.T.);
#740=ADVANCED_FACE('',(#664),#702,.T.);
#741=ADVANCED_FACE('',(#665),#703,.T.);
#742=ADVANCED_FACE('',(#666),#704,.F.);
#743=ADVANCED_FACE('',(#667),#705,.T.);
#744=ADVANCED_FACE('',(#668),#706,.T.);
#745=ADVANCED_FACE('',(#669),#707,.T.);
#746=ADVANCED_FACE('',(#670),#708,.T.);
#747=ADVANCED_FACE('',(#671),#709,.T.);
#748=ADVANCED_FACE('',(#672),#710,.F.);
#749=ADVANCED_FACE('',(#673),#711,.F.);
#750=CLOSED_SHELL('',(#712,#713,#714,#715,#716,#717,#718,#719,#720,#721,
#722,#723,#724,#725,#726,#727,#728,#729,#730,#731,#732,#733,#734,#735,#736,
#737,#738,#739,#740,#741,#742,#743,#744,#745,#746,#747,#748,#749));
#751=STYLED_ITEM('',(#752),#759);
#752=PRESENTATION_STYLE_ASSIGNMENT((#753));
#753=SURFACE_STYLE_USAGE(.BOTH.,#754);
#754=SURFACE_SIDE_STYLE('',(#755));
#755=SURFACE_STYLE_FILL_AREA(#756);
#756=FILL_AREA_STYLE('',(#757));
#757=FILL_AREA_STYLE_COLOUR('',#758);
#758=COLOUR_RGB('',0.615686274509804,0.811764705882353,0.929411764705882);
#759=MANIFOLD_SOLID_BREP('Part 1',#750);
#760=SHAPE_DEFINITION_REPRESENTATION(#1196,#761);
#761=SHAPE_REPRESENTATION('Part 1',(#762),#1191);
#762=AXIS2_PLACEMENT_3D('',#981,#801,#802);
#763=AXIS2_PLACEMENT_3D('',#982,#803,#804);
#764=AXIS2_PLACEMENT_3D('',#999,#813,#814);
#765=AXIS2_PLACEMENT_3D('',#1032,#831,#832);
#766=AXIS2_PLACEMENT_3D('',#1059,#847,#848);
#767=AXIS2_PLACEMENT_3D('',#1065,#852,#853);
#768=AXIS2_PLACEMENT_3D('',#1071,#857,#858);
#769=AXIS2_PLACEMENT_3D('',#1074,#861,#862);
#770=AXIS2_PLACEMENT_3D('',#1075,#863,#864);
#771=AXIS2_PLACEMENT_3D('',#1079,#867,#868);
#772=AXIS2_PLACEMENT_3D('',#1083,#871,#872);
#773=AXIS2_PLACEMENT_3D('',#1085,#874,#875);
#774=AXIS2_PLACEMENT_3D('',#1086,#876,#877);
#775=AXIS2_PLACEMENT_3D('',#1092,#881,#882);
#776=AXIS2_PLACEMENT_3D('',#1096,#885,#886);
#777=AXIS2_PLACEMENT_3D('',#1098,#888,#889);
#778=AXIS2_PLACEMENT_3D('',#1106,#894,#895);
#779=AXIS2_PLACEMENT_3D('',#1109,#898,#899);
#780=AXIS2_PLACEMENT_3D('',#1111,#901,#902);
#781=AXIS2_PLACEMENT_3D('',#1112,#903,#904);
#782=AXIS2_PLACEMENT_3D('',#1118,#908,#909);
#783=AXIS2_PLACEMENT_3D('',#1126,#914,#915);
#784=AXIS2_PLACEMENT_3D('',#1132,#919,#920);
#785=AXIS2_PLACEMENT_3D('',#1138,#924,#925);
#786=AXIS2_PLACEMENT_3D('',#1143,#929,#930);
#787=AXIS2_PLACEMENT_3D('',#1145,#932,#933);
#788=AXIS2_PLACEMENT_3D('',#1146,#934,#935);
#789=AXIS2_PLACEMENT_3D('',#1152,#939,#940);
#790=AXIS2_PLACEMENT_3D('',#1156,#943,#944);
#791=AXIS2_PLACEMENT_3D('',#1164,#949,#950);
#792=AXIS2_PLACEMENT_3D('',#1170,#954,#955);
#793=AXIS2_PLACEMENT_3D('',#1176,#959,#960);
#794=AXIS2_PLACEMENT_3D('',#1179,#963,#964);
#795=AXIS2_PLACEMENT_3D('',#1180,#965,#966);
#796=AXIS2_PLACEMENT_3D('',#1181,#967,#968);
#797=AXIS2_PLACEMENT_3D('',#1182,#969,#970);
#798=AXIS2_PLACEMENT_3D('',#1185,#973,#974);
#799=AXIS2_PLACEMENT_3D('',#1187,#976,#977);
#800=AXIS2_PLACEMENT_3D('',#1189,#979,#980);
#801=DIRECTION('',(0.,0.,1.));
#802=DIRECTION('',(1.,0.,0.));
#803=DIRECTION('',(0.,-1.,0.));
#804=DIRECTION('',(0.,0.,-1.));
#805=DIRECTION('',(-1.,0.,0.));
#806=DIRECTION('',(0.,0.,-1.));
#807=DIRECTION('',(-1.,0.,0.));
#808=DIRECTION('',(0.,0.,-1.));
#809=DIRECTION('',(0.,0.,-1.));
#810=DIRECTION('',(-1.,0.,0.));
#811=DIRECTION('',(0.,0.,-1.));
#812=DIRECTION('',(-1.,0.,0.));
#813=DIRECTION('',(0.,1.,0.));
#814=DIRECTION('',(0.,0.,1.));
#815=DIRECTION('',(-1.,0.,0.));
#816=DIRECTION('',(0.,0.,-1.));
#817=DIRECTION('',(1.,0.,0.));
#818=DIRECTION('',(0.,0.,-1.));
#819=DIRECTION('',(1.,0.,0.));
#820=DIRECTION('',(0.,0.,-1.));
#821=DIRECTION('',(1.,0.,0.));
#822=DIRECTION('',(0.,0.,-1.));
#823=DIRECTION('',(1.,0.,0.));
#824=DIRECTION('',(0.,0.,-1.));
#825=DIRECTION('',(1.,0.,0.));
#826=DIRECTION('',(0.,0.,-1.));
#827=DIRECTION('',(1.,0.,0.));
#828=DIRECTION('',(0.,0.,-1.));
#829=DIRECTION('',(1.,0.,0.));
#830=DIRECTION('',(0.,0.,-1.));
#831=DIRECTION('',(0.,0.,1.));
#832=DIRECTION('',(1.,0.,0.));
#833=DIRECTION('',(3.41480999208033E-16,1.,0.));
#834=DIRECTION('',(1.,0.,0.));
#835=DIRECTION('',(0.,-1.,0.));
#836=DIRECTION('',(0.,-1.,0.));
#837=DIRECTION('',(1.,0.,0.));
#838=DIRECTION('',(0.,-1.,0.));
#839=DIRECTION('',(0.,1.,0.));
#840=DIRECTION('',(-1.,0.,0.));
#841=DIRECTION('',(3.35212265889238E-16,1.,0.));
#842=DIRECTION('',(1.,0.,0.));
#843=DIRECTION('',(1.,0.,0.));
#844=DIRECTION('',(0.,1.,0.));
#845=DIRECTION('',(1.,0.,0.));
#846=DIRECTION('',(-3.35212265889238E-16,1.,0.));
#847=DIRECTION('',(1.,-6.07077331925392E-17,0.));
#848=DIRECTION('',(6.07077331925392E-17,1.,0.));
#849=DIRECTION('',(-6.07077331925392E-17,-1.,0.));
#850=DIRECTION('',(0.,0.,-1.));
#851=DIRECTION('',(-6.07077331925392E-17,-1.,0.));
#852=DIRECTION('',(0.,-1.,0.));
#853=DIRECTION('',(0.,0.,-1.));
#854=DIRECTION('',(-1.,0.,0.));
#855=DIRECTION('',(0.,0.,-1.));
#856=DIRECTION('',(-1.,0.,0.));
#857=DIRECTION('',(1.,-6.07077331925392E-17,0.));
#858=DIRECTION('',(6.07077331925392E-17,1.,0.));
#859=DIRECTION('',(-6.07077331925392E-17,-1.,0.));
#860=DIRECTION('',(-6.07077331925392E-17,-1.,0.));
#861=DIRECTION('',(0.,0.,1.));
#862=DIRECTION('',(1.,0.,0.));
#863=DIRECTION('',(1.,0.,0.));
#864=DIRECTION('',(0.,0.,-1.));
#865=DIRECTION('',(0.,0.,-1.));
#866=DIRECTION('',(0.,-1.,0.));
#867=DIRECTION('',(0.,1.,0.));
#868=DIRECTION('',(0.,0.,1.));
#869=DIRECTION('',(0.,0.,-1.));
#870=DIRECTION('',(1.,0.,0.));
#871=DIRECTION('',(1.,0.,0.));
#872=DIRECTION('',(0.,0.,-1.));
#873=DIRECTION('',(0.,-1.,0.));
#874=DIRECTION('',(0.,0.,1.));
#875=DIRECTION('',(1.,0.,0.));
#876=DIRECTION('',(1.,0.,0.));
#877=DIRECTION('',(0.,0.,-1.));
#878=DIRECTION('',(0.,-1.,0.));
#879=DIRECTION('',(0.,0.,-1.));
#880=DIRECTION('',(0.,-1.,0.));
#881=DIRECTION('',(-1.,3.41480999208033E-16,0.));
#882=DIRECTION('',(-3.41480999208033E-16,-1.,0.));
#883=DIRECTION('',(3.41480999208033E-16,1.,0.));
#884=DIRECTION('',(0.,0.,-1.));
#885=DIRECTION('',(0.,0.,1.));
#886=DIRECTION('',(1.,0.,0.));
#887=DIRECTION('',(-1.,0.,0.));
#888=DIRECTION('',(0.,1.,0.));
#889=DIRECTION('',(0.,0.,1.));
#890=DIRECTION('',(-1.,0.,0.));
#891=DIRECTION('',(0.,0.,-1.));
#892=DIRECTION('',(1.,0.,0.));
#893=DIRECTION('',(0.,0.,-1.));
#894=DIRECTION('',(1.,0.,0.));
#895=DIRECTION('',(0.,0.,-1.));
#896=DIRECTION('',(0.,-1.,0.));
#897=DIRECTION('',(0.,-1.,0.));
#898=DIRECTION('',(1.,0.,0.));
#899=DIRECTION('',(0.,0.,-1.));
#900=DIRECTION('',(0.,-1.,0.));
#901=DIRECTION('',(0.,0.,1.));
#902=DIRECTION('',(1.,0.,0.));
#903=DIRECTION('',(0.,1.,0.));
#904=DIRECTION('',(0.,0.,1.));
#905=DIRECTION('',(0.,0.,-1.));
#906=DIRECTION('',(1.,0.,0.));
#907=DIRECTION('',(0.,0.,-1.));
#908=DIRECTION('',(-1.,0.,0.));
#909=DIRECTION('',(0.,0.,1.));
#910=DIRECTION('',(0.,0.,-1.));
#911=DIRECTION('',(0.,-1.,0.));
#912=DIRECTION('',(0.,0.,-1.));
#913=DIRECTION('',(0.,1.,0.));
#914=DIRECTION('',(0.,-1.,0.));
#915=DIRECTION('',(0.,0.,-1.));
#916=DIRECTION('',(-1.,0.,0.));
#917=DIRECTION('',(0.,0.,-1.));
#918=DIRECTION('',(-1.,0.,0.));
#919=DIRECTION('',(1.,0.,0.));
#920=DIRECTION('',(0.,0.,-1.));
#921=DIRECTION('',(0.,-1.,0.));
#922=DIRECTION('',(0.,0.,-1.));
#923=DIRECTION('',(0.,-1.,0.));
#924=DIRECTION('',(0.,1.,0.));
#925=DIRECTION('',(0.,0.,1.));
#926=DIRECTION('',(0.,0.,-1.));
#927=DIRECTION('',(1.,0.,0.));
#928=DIRECTION('',(-1.,0.,0.));
#929=DIRECTION('',(-1.,-3.35212265889238E-16,0.));
#930=DIRECTION('',(3.35212265889238E-16,-1.,0.));
#931=DIRECTION('',(-3.35212265889238E-16,1.,0.));
#932=DIRECTION('',(0.,0.,1.));
#933=DIRECTION('',(1.,0.,0.));
#934=DIRECTION('',(0.,1.,0.));
#935=DIRECTION('',(0.,0.,1.));
#936=DIRECTION('',(0.,0.,-1.));
#937=DIRECTION('',(1.,0.,0.));
#938=DIRECTION('',(0.,0.,-1.));
#939=DIRECTION('',(-1.,3.35212265889238E-16,0.));
#940=DIRECTION('',(-3.35212265889238E-16,-1.,0.));
#941=DIRECTION('',(0.,0.,-1.));
#942=DIRECTION('',(3.35212265889238E-16,1.,0.));
#943=DIRECTION('',(0.,-1.,0.));
#944=DIRECTION('',(0.,0.,-1.));
#945=DIRECTION('',(0.,0.,-1.));
#946=DIRECTION('',(1.,0.,0.));
#947=DIRECTION('',(0.,0.,-1.));
#948=DIRECTION('',(-1.,0.,0.));
#949=DIRECTION('',(1.,0.,0.));
#950=DIRECTION('',(0.,0.,-1.));
#951=DIRECTION('',(0.,-1.,0.));
#952=DIRECTION('',(0.,0.,-1.));
#953=DIRECTION('',(0.,-1.,0.));
#954=DIRECTION('',(0.,-1.,0.));
#955=DIRECTION('',(0.,0.,-1.));
#956=DIRECTION('',(-1.,0.,0.));
#957=DIRECTION('',(0.,0.,-1.));
#958=DIRECTION('',(-1.,0.,0.));
#959=DIRECTION('',(-1.,0.,0.));
#960=DIRECTION('',(0.,0.,1.));
#961=DIRECTION('',(0.,1.,0.));
#962=DIRECTION('',(0.,-1.,0.));
#963=DIRECTION('',(0.,0.,1.));
#964=DIRECTION('',(1.,0.,0.));
#965=DIRECTION('',(0.,0.,1.));
#966=DIRECTION('',(1.,0.,0.));
#967=DIRECTION('',(0.,0.,1.));
#968=DIRECTION('',(1.,0.,0.));
#969=DIRECTION('',(0.,0.,1.));
#970=DIRECTION('',(1.,0.,0.));
#971=DIRECTION('',(0.,-1.,0.));
#972=DIRECTION('',(0.,-1.,0.));
#973=DIRECTION('',(-1.,0.,0.));
#974=DIRECTION('',(0.,0.,1.));
#975=DIRECTION('',(0.,-1.,0.));
#976=DIRECTION('',(0.,0.,1.));
#977=DIRECTION('',(1.,0.,0.));
#978=DIRECTION('',(0.,-1.,0.));
#979=DIRECTION('',(-1.,0.,0.));
#980=DIRECTION('',(0.,0.,1.));
#981=CARTESIAN_POINT('',(0.,0.,0.));
#982=CARTESIAN_POINT('',(-6.93889390390723E-18,-0.05715,0.003));
#983=CARTESIAN_POINT('',(-6.93889390390723E-18,-0.05715,0.));
#984=CARTESIAN_POINT('',(0.04445,-0.05715,0.));
#985=CARTESIAN_POINT('',(-0.04445,-0.05715,0.));
#986=CARTESIAN_POINT('',(0.04445,-0.05715,0.003));
#987=CARTESIAN_POINT('',(0.04445,-0.05715,0.03475));
#988=CARTESIAN_POINT('',(-6.93889390390723E-18,-0.05715,0.03475));
#989=CARTESIAN_POINT('',(-0.04445,-0.05715,0.03475));
#990=CARTESIAN_POINT('',(-0.04445,-0.05715,0.003));
#991=CARTESIAN_POINT('',(0.00635,-0.05715,0.028175));
#992=CARTESIAN_POINT('',(0.00635,-0.05715,0.03135));
#993=CARTESIAN_POINT('',(0.00635,-0.05715,0.025));
#994=CARTESIAN_POINT('',(-0.003175,-0.05715,0.025));
#995=CARTESIAN_POINT('',(-0.00635,-0.05715,0.025));
#996=CARTESIAN_POINT('',(-0.00635,-0.05715,0.028175));
#997=CARTESIAN_POINT('',(-0.00635,-0.05715,0.03135));
#998=CARTESIAN_POINT('',(-0.003175,-0.05715,0.03135));
#999=CARTESIAN_POINT('',(-6.93889390390723E-18,-0.05415,0.03475));
#1000=CARTESIAN_POINT('',(-0.003175,-0.05415,0.03135));
#1001=CARTESIAN_POINT('',(0.00635,-0.05415,0.03135));
#1002=CARTESIAN_POINT('',(-0.00635,-0.05415,0.03135));
#1003=CARTESIAN_POINT('',(-0.00635,-0.05415,0.028175));
#1004=CARTESIAN_POINT('',(-0.00635,-0.05415,0.025));
#1005=CARTESIAN_POINT('',(-6.93889390390723E-18,-0.05415,0.025));
#1006=CARTESIAN_POINT('',(-0.0127625,-0.05415,0.025));
#1007=CARTESIAN_POINT('',(-0.0127625,-0.05415,0.028));
#1008=CARTESIAN_POINT('',(-0.0127625,-0.05415,0.028));
#1009=CARTESIAN_POINT('',(-6.93889390390723E-18,-0.05415,0.028));
#1010=CARTESIAN_POINT('',(-0.0147625,-0.05415,0.028));
#1011=CARTESIAN_POINT('',(-0.0147625,-0.05415,0.028));
#1012=CARTESIAN_POINT('',(-0.0147625,-0.05415,0.003));
#1013=CARTESIAN_POINT('',(-6.93889390390723E-18,-0.05415,0.003));
#1014=CARTESIAN_POINT('',(-0.04145,-0.05415,0.003));
#1015=CARTESIAN_POINT('',(-0.04145,-0.05415,0.03475));
#1016=CARTESIAN_POINT('',(-0.04145,-0.05415,0.03475));
#1017=CARTESIAN_POINT('',(-6.93889390390723E-18,-0.05415,0.03475));
#1018=CARTESIAN_POINT('',(0.04145,-0.05415,0.03475));
#1019=CARTESIAN_POINT('',(0.04145,-0.05415,0.03475));
#1020=CARTESIAN_POINT('',(0.04145,-0.05415,0.003));
#1021=CARTESIAN_POINT('',(-6.93889390390723E-18,-0.05415,0.003));
#1022=CARTESIAN_POINT('',(0.0172625,-0.05415,0.003));
#1023=CARTESIAN_POINT('',(0.0172625,-0.05415,0.028));
#1024=CARTESIAN_POINT('',(0.0172625,-0.05415,0.028));
#1025=CARTESIAN_POINT('',(-6.93889390390723E-18,-0.05415,0.028));
#1026=CARTESIAN_POINT('',(0.0142625,-0.05415,0.028));
#1027=CARTESIAN_POINT('',(0.0142625,-0.05415,0.028));
#1028=CARTESIAN_POINT('',(0.0142625,-0.05415,0.025));
#1029=CARTESIAN_POINT('',(-6.93889390390723E-18,-0.05415,0.025));
#1030=CARTESIAN_POINT('',(0.00635,-0.05415,0.025));
#1031=CARTESIAN_POINT('',(0.00635,-0.05415,0.028175));
#1032=CARTESIAN_POINT('',(0.,0.,0.003));
#1033=CARTESIAN_POINT('',(-0.0147625,-0.05161,0.003));
#1034=CARTESIAN_POINT('',(-0.0147625,-0.04907,0.003));
#1035=CARTESIAN_POINT('',(0.0160125,-0.04907,0.003));
#1036=CARTESIAN_POINT('',(0.0172625,-0.04907,0.003));
#1037=CARTESIAN_POINT('',(0.0172625,-0.05161,0.003));
#1038=CARTESIAN_POINT('',(0.04145,0.,0.003));
#1039=CARTESIAN_POINT('',(0.04145,0.05415,0.003));
#1040=CARTESIAN_POINT('',(0.,0.05415,0.003));
#1041=CARTESIAN_POINT('',(-0.04145,0.05415,0.003));
#1042=CARTESIAN_POINT('',(-0.04145,6.93889390390723E-18,0.003));
#1043=CARTESIAN_POINT('',(-0.0095875,-0.018725,0.003));
#1044=CARTESIAN_POINT('',(-0.0095875,-0.0229,0.003));
#1045=CARTESIAN_POINT('',(-0.0095875,-0.017725,0.003));
#1046=CARTESIAN_POINT('',(-0.0137625,-0.0229,0.003));
#1047=CARTESIAN_POINT('',(-0.0147625,-0.0229,0.003));
#1048=CARTESIAN_POINT('',(-0.0147625,-0.0203125,0.003));
#1049=CARTESIAN_POINT('',(-0.0147625,-0.017725,0.003));
#1050=CARTESIAN_POINT('',(-0.012175,-0.017725,0.003));
#1051=CARTESIAN_POINT('',(0.0137625,-0.0229,0.003));
#1052=CARTESIAN_POINT('',(0.0095875,-0.0229,0.003));
#1053=CARTESIAN_POINT('',(0.0147625,-0.0229,0.003));
#1054=CARTESIAN_POINT('',(0.0095875,-0.018725,0.003));
#1055=CARTESIAN_POINT('',(0.0095875,-0.017725,0.003));
#1056=CARTESIAN_POINT('',(0.012175,-0.017725,0.003));
#1057=CARTESIAN_POINT('',(0.0147625,-0.017725,0.003));
#1058=CARTESIAN_POINT('',(0.0147625,-0.0203125,0.003));
#1059=CARTESIAN_POINT('',(0.04445,0.,0.003));
#1060=CARTESIAN_POINT('',(0.04445,0.,0.));
#1061=CARTESIAN_POINT('',(0.04445,0.05715,0.));
#1062=CARTESIAN_POINT('',(0.04445,0.05715,0.003));
#1063=CARTESIAN_POINT('',(0.04445,0.05715,0.03475));
#1064=CARTESIAN_POINT('',(0.04445,0.,0.03475));
#1065=CARTESIAN_POINT('',(0.,0.05715,0.003));
#1066=CARTESIAN_POINT('',(0.,0.05715,0.));
#1067=CARTESIAN_POINT('',(-0.04445,0.05715,0.));
#1068=CARTESIAN_POINT('',(-0.04445,0.05715,0.003));
#1069=CARTESIAN_POINT('',(-0.04445,0.05715,0.03475));
#1070=CARTESIAN_POINT('',(0.,0.05715,0.03475));
#1071=CARTESIAN_POINT('',(-0.04445,0.,0.003));
#1072=CARTESIAN_POINT('',(-0.04445,0.,0.));
#1073=CARTESIAN_POINT('',(-0.04445,0.,0.03475));
#1074=CARTESIAN_POINT('',(0.,0.,0.));
#1075=CARTESIAN_POINT('',(-0.04145,6.93889390390723E-18,0.03475));
#1076=CARTESIAN_POINT('',(-0.04145,0.05415,0.03475));
#1077=CARTESIAN_POINT('',(-0.04145,0.05415,0.03475));
#1078=CARTESIAN_POINT('',(-0.04145,6.93889390390723E-18,0.03475));
#1079=CARTESIAN_POINT('',(0.,0.05415,0.03475));
#1080=CARTESIAN_POINT('',(0.04145,0.05415,0.03475));
#1081=CARTESIAN_POINT('',(0.04145,0.05415,0.03475));
#1082=CARTESIAN_POINT('',(0.,0.05415,0.03475));
#1083=CARTESIAN_POINT('',(0.04145,0.,0.03475));
#1084=CARTESIAN_POINT('',(0.04145,0.,0.03475));
#1085=CARTESIAN_POINT('',(0.,0.,0.03475));
#1086=CARTESIAN_POINT('',(-0.0127625,-0.05161,0.028));
#1087=CARTESIAN_POINT('',(-0.0127625,-0.05161,0.025));
#1088=CARTESIAN_POINT('',(-0.0127625,-0.04907,0.025));
#1089=CARTESIAN_POINT('',(-0.0127625,-0.04907,0.028));
#1090=CARTESIAN_POINT('',(-0.0127625,-0.04907,0.028));
#1091=CARTESIAN_POINT('',(-0.0127625,-0.05161,0.028));
#1092=CARTESIAN_POINT('',(-0.0147625,-0.05161,0.028));
#1093=CARTESIAN_POINT('',(-0.0147625,-0.05161,0.028));
#1094=CARTESIAN_POINT('',(-0.0147625,-0.04907,0.028));
#1095=CARTESIAN_POINT('',(-0.0147625,-0.04907,0.028));
#1096=CARTESIAN_POINT('',(0.,0.,0.028));
#1097=CARTESIAN_POINT('',(-0.0137625,-0.04907,0.028));
#1098=CARTESIAN_POINT('',(0.0160125,-0.04907,0.028));
#1099=CARTESIAN_POINT('',(-0.00638125,-0.04907,0.025));
#1100=CARTESIAN_POINT('',(0.0142625,-0.04907,0.025));
#1101=CARTESIAN_POINT('',(0.0142625,-0.04907,0.028));
#1102=CARTESIAN_POINT('',(0.0142625,-0.04907,0.028));
#1103=CARTESIAN_POINT('',(0.0160125,-0.04907,0.028));
#1104=CARTESIAN_POINT('',(0.0172625,-0.04907,0.028));
#1105=CARTESIAN_POINT('',(0.0172625,-0.04907,0.028));
#1106=CARTESIAN_POINT('',(0.0142625,-0.05161,0.028));
#1107=CARTESIAN_POINT('',(0.0142625,-0.05161,0.025));
#1108=CARTESIAN_POINT('',(0.0142625,-0.05161,0.028));
#1109=CARTESIAN_POINT('',(0.0172625,-0.05161,0.028));
#1110=CARTESIAN_POINT('',(0.0172625,-0.05161,0.028));
#1111=CARTESIAN_POINT('',(0.,0.,0.028));
#1112=CARTESIAN_POINT('',(0.012175,-0.017725,0.028));
#1113=CARTESIAN_POINT('',(0.0095875,-0.017725,0.028));
#1114=CARTESIAN_POINT('',(0.0095875,-0.017725,0.028));
#1115=CARTESIAN_POINT('',(0.012175,-0.017725,0.028));
#1116=CARTESIAN_POINT('',(0.0147625,-0.017725,0.028));
#1117=CARTESIAN_POINT('',(0.0147625,-0.017725,0.028));
#1118=CARTESIAN_POINT('',(0.0095875,-0.018725,0.028));
#1119=CARTESIAN_POINT('',(0.0095875,-0.0229,0.025));
#1120=CARTESIAN_POINT('',(0.0095875,-0.0229,0.025));
#1121=CARTESIAN_POINT('',(0.0095875,-0.0213125,0.025));
#1122=CARTESIAN_POINT('',(0.0095875,-0.019725,0.025));
#1123=CARTESIAN_POINT('',(0.0095875,-0.019725,0.028));
#1124=CARTESIAN_POINT('',(0.0095875,-0.019725,0.028));
#1125=CARTESIAN_POINT('',(0.0095875,-0.018725,0.028));
#1126=CARTESIAN_POINT('',(0.011175,-0.019725,0.028));
#1127=CARTESIAN_POINT('',(0.011175,-0.019725,0.025));
#1128=CARTESIAN_POINT('',(0.0127625,-0.019725,0.025));
#1129=CARTESIAN_POINT('',(0.0127625,-0.019725,0.028));
#1130=CARTESIAN_POINT('',(0.0127625,-0.019725,0.028));
#1131=CARTESIAN_POINT('',(0.011175,-0.019725,0.028));
#1132=CARTESIAN_POINT('',(0.0127625,-0.0213125,0.028));
#1133=CARTESIAN_POINT('',(0.0127625,-0.0213125,0.025));
#1134=CARTESIAN_POINT('',(0.0127625,-0.0229,0.025));
#1135=CARTESIAN_POINT('',(0.0127625,-0.0229,0.028));
#1136=CARTESIAN_POINT('',(0.0127625,-0.0229,0.028));
#1137=CARTESIAN_POINT('',(0.0127625,-0.0213125,0.028));
#1138=CARTESIAN_POINT('',(0.0137625,-0.0229,0.028));
#1139=CARTESIAN_POINT('',(0.0147625,-0.0229,0.028));
#1140=CARTESIAN_POINT('',(0.0147625,-0.0229,0.028));
#1141=CARTESIAN_POINT('',(0.0137625,-0.0229,0.028));
#1142=CARTESIAN_POINT('',(0.011175,-0.0229,0.025));
#1143=CARTESIAN_POINT('',(0.0147625,-0.0203125,0.028));
#1144=CARTESIAN_POINT('',(0.0147625,-0.0203125,0.028));
#1145=CARTESIAN_POINT('',(0.,0.,0.028));
#1146=CARTESIAN_POINT('',(-0.012175,-0.017725,0.028));
#1147=CARTESIAN_POINT('',(-0.0147625,-0.017725,0.028));
#1148=CARTESIAN_POINT('',(-0.0147625,-0.017725,0.028));
#1149=CARTESIAN_POINT('',(-0.012175,-0.017725,0.028));
#1150=CARTESIAN_POINT('',(-0.0095875,-0.017725,0.028));
#1151=CARTESIAN_POINT('',(-0.0095875,-0.017725,0.028));
#1152=CARTESIAN_POINT('',(-0.0147625,-0.0203125,0.028));
#1153=CARTESIAN_POINT('',(-0.0147625,-0.0229,0.028));
#1154=CARTESIAN_POINT('',(-0.0147625,-0.0229,0.028));
#1155=CARTESIAN_POINT('',(-0.0147625,-0.0203125,0.028));
#1156=CARTESIAN_POINT('',(-0.0137625,-0.0229,0.028));
#1157=CARTESIAN_POINT('',(-0.0095875,-0.0229,0.025));
#1158=CARTESIAN_POINT('',(-0.0095875,-0.0229,0.025));
#1159=CARTESIAN_POINT('',(-0.011175,-0.0229,0.025));
#1160=CARTESIAN_POINT('',(-0.0127625,-0.0229,0.025));
#1161=CARTESIAN_POINT('',(-0.0127625,-0.0229,0.028));
#1162=CARTESIAN_POINT('',(-0.0127625,-0.0229,0.028));
#1163=CARTESIAN_POINT('',(-0.0137625,-0.0229,0.028));
#1164=CARTESIAN_POINT('',(-0.0127625,-0.0213125,0.028));
#1165=CARTESIAN_POINT('',(-0.0127625,-0.0213125,0.025));
#1166=CARTESIAN_POINT('',(-0.0127625,-0.019725,0.025));
#1167=CARTESIAN_POINT('',(-0.0127625,-0.019725,0.028));
#1168=CARTESIAN_POINT('',(-0.0127625,-0.019725,0.028));
#1169=CARTESIAN_POINT('',(-0.0127625,-0.0213125,0.028));
#1170=CARTESIAN_POINT('',(-0.011175,-0.019725,0.028));
#1171=CARTESIAN_POINT('',(-0.011175,-0.019725,0.025));
#1172=CARTESIAN_POINT('',(-0.0095875,-0.019725,0.025));
#1173=CARTESIAN_POINT('',(-0.0095875,-0.019725,0.028));
#1174=CARTESIAN_POINT('',(-0.0095875,-0.019725,0.028));
#1175=CARTESIAN_POINT('',(-0.011175,-0.019725,0.028));
#1176=CARTESIAN_POINT('',(-0.0095875,-0.018725,0.028));
#1177=CARTESIAN_POINT('',(-0.0095875,-0.018725,0.028));
#1178=CARTESIAN_POINT('',(-0.0095875,-0.0213125,0.025));
#1179=CARTESIAN_POINT('',(0.,0.,0.028));
#1180=CARTESIAN_POINT('',(0.,0.,0.025));
#1181=CARTESIAN_POINT('',(0.,0.,0.025));
#1182=CARTESIAN_POINT('',(0.,0.,0.025));
#1183=CARTESIAN_POINT('',(-0.00635,-0.05415,0.025));
#1184=CARTESIAN_POINT('',(0.00635,-0.05415,0.025));
#1185=CARTESIAN_POINT('',(0.00635,-0.05415,0.028175));
#1186=CARTESIAN_POINT('',(0.00635,-0.05415,0.03135));
#1187=CARTESIAN_POINT('',(-0.003175,-0.05415,0.03135));
#1188=CARTESIAN_POINT('',(-0.00635,-0.05415,0.03135));
#1189=CARTESIAN_POINT('',(-0.00635,-0.05415,0.028175));
#1190=MECHANICAL_DESIGN_GEOMETRIC_PRESENTATION_REPRESENTATION('',(#751),
#1191);
#1191=(
GEOMETRIC_REPRESENTATION_CONTEXT(3)
GLOBAL_UNCERTAINTY_ASSIGNED_CONTEXT((#1192))
GLOBAL_UNIT_ASSIGNED_CONTEXT((#1195,#1194,#1193))
REPRESENTATION_CONTEXT('Part 1','TOP_LEVEL_ASSEMBLY_PART')
);
#1192=UNCERTAINTY_MEASURE_WITH_UNIT(LENGTH_MEASURE(1.E-8),#1195,
'DISTANCE_ACCURACY_VALUE','Maximum Tolerance applied to model');
#1193=(
NAMED_UNIT(*)
SI_UNIT($,.STERADIAN.)
SOLID_ANGLE_UNIT()
);
#1194=(
NAMED_UNIT(*)
PLANE_ANGLE_UNIT()
SI_UNIT($,.RADIAN.)
);
#1195=(
LENGTH_UNIT()
NAMED_UNIT(*)
SI_UNIT($,.METRE.)
);
#1196=PRODUCT_DEFINITION_SHAPE('','',#1197);
#1197=PRODUCT_DEFINITION('','',#1199,#1198);
#1198=PRODUCT_DEFINITION_CONTEXT('',#1205,'design');
#1199=PRODUCT_DEFINITION_FORMATION_WITH_SPECIFIED_SOURCE('','',#1201,
 .NOT_KNOWN.);
#1200=PRODUCT_RELATED_PRODUCT_CATEGORY('','',(#1201));
#1201=PRODUCT('Part 1','Part 1','Part 1',(#1203));
#1202=PRODUCT_CATEGORY('','');
#1203=PRODUCT_CONTEXT('',#1205,'mechanical');
#1204=APPLICATION_PROTOCOL_DEFINITION('international standard',
'ap242_managed_model_based_3d_engineering',2020,#1205);
#1205=APPLICATION_CONTEXT('managed model based 3d engineering');
ENDSEC;
END-ISO-10303-21;
