ISO-10303-21;
HEADER;
/* Generated by software containing ST-Developer
 * from STEP Tools, Inc. (www.steptools.com) 
 */
/* OPTION: using custom renumber hook */

FILE_DESCRIPTION(
/* description */ ('STEP AP242 Edition 2',
'CAx-IF Rec.Pracs.---Representation and Presentation of Product Manufa
cturing Information (PMI)---4.0---2014-10-13',
'CAx-IF Rec.Pracs.---3D Tessellated Geometry---0.4---2014-09-14','2;1',
'CAx-IF Rec.Pracs.---User Defined Attributes---1.5---2016-08-15'),
/* implementation_level */ '2;1');

FILE_NAME(
/* name */ 'Alarm Clock Lid v2',
/* time_stamp */ '2026-08-12T17:55:16Z',
/* author */ (''),
/* organization */ (''),
/* preprocessor_version */ 'ST-DEVELOPER v20',
/* originating_system */ 'ONSHAPE BY PTC INC, 1.219',
/* authorisation */ '  ');

FILE_SCHEMA (('AP242_MANAGED_MODEL_BASED_3D_ENGINEERING_MIM_LF { 1 0 10303 442 3 1 4 }'));
ENDSEC;

DATA;
#10=SHAPE_REPRESENTATION_RELATIONSHIP('','',#1400,#11);
#11=ADVANCED_BREP_SHAPE_REPRESENTATION('',(#1398),#2237);
#12=CYLINDRICAL_SURFACE('',#1452,0.00125);
#13=CYLINDRICAL_SURFACE('',#1453,0.00125);
#14=CYLINDRICAL_SURFACE('',#1458,0.007);
#15=CYLINDRICAL_SURFACE('',#1465,0.0061);
#16=CYLINDRICAL_SURFACE('',#1469,0.0045);
#17=CYLINDRICAL_SURFACE('',#1473,0.0045);
#18=CYLINDRICAL_SURFACE('',#1487,0.00762);
#19=CYLINDRICAL_SURFACE('',#1488,0.00762);
#20=CYLINDRICAL_SURFACE('',#1489,0.00762);
#21=CYLINDRICAL_SURFACE('',#1490,0.00762);
#22=CIRCLE('',#1403,0.00125);
#23=CIRCLE('',#1404,0.00125);
#24=CIRCLE('',#1405,0.007);
#25=CIRCLE('',#1427,0.00125);
#26=CIRCLE('',#1428,0.00125);
#27=CIRCLE('',#1429,0.00762);
#28=CIRCLE('',#1430,0.00762);
#29=CIRCLE('',#1431,0.00762);
#30=CIRCLE('',#1432,0.00762);
#31=CIRCLE('',#1433,0.0061);
#32=CIRCLE('',#1435,0.00762);
#33=CIRCLE('',#1436,0.00762);
#34=CIRCLE('',#1437,0.00762);
#35=CIRCLE('',#1438,0.00762);
#36=CIRCLE('',#1459,0.007);
#37=CIRCLE('',#1461,0.0061);
#38=CIRCLE('',#1462,0.0045);
#39=CIRCLE('',#1463,0.0061);
#40=CIRCLE('',#1464,0.0045);
#41=CIRCLE('',#1466,0.0061);
#42=CIRCLE('',#1467,0.0061);
#43=CIRCLE('',#1470,0.0045);
#44=CIRCLE('',#1474,0.0045);
#45=ORIENTED_EDGE('',*,*,#419,.F.);
#46=ORIENTED_EDGE('',*,*,#420,.F.);
#47=ORIENTED_EDGE('',*,*,#421,.T.);
#48=ORIENTED_EDGE('',*,*,#422,.T.);
#49=ORIENTED_EDGE('',*,*,#423,.F.);
#50=ORIENTED_EDGE('',*,*,#424,.T.);
#51=ORIENTED_EDGE('',*,*,#425,.T.);
#52=ORIENTED_EDGE('',*,*,#426,.F.);
#53=ORIENTED_EDGE('',*,*,#427,.T.);
#54=ORIENTED_EDGE('',*,*,#428,.T.);
#55=ORIENTED_EDGE('',*,*,#429,.F.);
#56=ORIENTED_EDGE('',*,*,#430,.T.);
#57=ORIENTED_EDGE('',*,*,#431,.T.);
#58=ORIENTED_EDGE('',*,*,#432,.F.);
#59=ORIENTED_EDGE('',*,*,#433,.F.);
#60=ORIENTED_EDGE('',*,*,#434,.F.);
#61=ORIENTED_EDGE('',*,*,#435,.T.);
#62=ORIENTED_EDGE('',*,*,#436,.F.);
#63=ORIENTED_EDGE('',*,*,#437,.F.);
#64=ORIENTED_EDGE('',*,*,#438,.T.);
#65=ORIENTED_EDGE('',*,*,#439,.T.);
#66=ORIENTED_EDGE('',*,*,#440,.F.);
#67=ORIENTED_EDGE('',*,*,#441,.F.);
#68=ORIENTED_EDGE('',*,*,#442,.F.);
#69=ORIENTED_EDGE('',*,*,#443,.F.);
#70=ORIENTED_EDGE('',*,*,#444,.T.);
#71=ORIENTED_EDGE('',*,*,#445,.F.);
#72=ORIENTED_EDGE('',*,*,#446,.T.);
#73=ORIENTED_EDGE('',*,*,#442,.T.);
#74=ORIENTED_EDGE('',*,*,#447,.T.);
#75=ORIENTED_EDGE('',*,*,#448,.F.);
#76=ORIENTED_EDGE('',*,*,#449,.T.);
#77=ORIENTED_EDGE('',*,*,#448,.T.);
#78=ORIENTED_EDGE('',*,*,#450,.T.);
#79=ORIENTED_EDGE('',*,*,#451,.F.);
#80=ORIENTED_EDGE('',*,*,#444,.F.);
#81=ORIENTED_EDGE('',*,*,#452,.F.);
#82=ORIENTED_EDGE('',*,*,#451,.T.);
#83=ORIENTED_EDGE('',*,*,#453,.F.);
#84=ORIENTED_EDGE('',*,*,#454,.F.);
#85=ORIENTED_EDGE('',*,*,#455,.F.);
#86=ORIENTED_EDGE('',*,*,#456,.T.);
#87=ORIENTED_EDGE('',*,*,#457,.F.);
#88=ORIENTED_EDGE('',*,*,#458,.T.);
#89=ORIENTED_EDGE('',*,*,#454,.T.);
#90=ORIENTED_EDGE('',*,*,#459,.T.);
#91=ORIENTED_EDGE('',*,*,#460,.F.);
#92=ORIENTED_EDGE('',*,*,#461,.T.);
#93=ORIENTED_EDGE('',*,*,#460,.T.);
#94=ORIENTED_EDGE('',*,*,#462,.T.);
#95=ORIENTED_EDGE('',*,*,#463,.F.);
#96=ORIENTED_EDGE('',*,*,#456,.F.);
#97=ORIENTED_EDGE('',*,*,#464,.F.);
#98=ORIENTED_EDGE('',*,*,#463,.T.);
#99=ORIENTED_EDGE('',*,*,#465,.F.);
#100=ORIENTED_EDGE('',*,*,#466,.F.);
#101=ORIENTED_EDGE('',*,*,#467,.F.);
#102=ORIENTED_EDGE('',*,*,#468,.T.);
#103=ORIENTED_EDGE('',*,*,#469,.F.);
#104=ORIENTED_EDGE('',*,*,#470,.T.);
#105=ORIENTED_EDGE('',*,*,#466,.T.);
#106=ORIENTED_EDGE('',*,*,#471,.T.);
#107=ORIENTED_EDGE('',*,*,#472,.F.);
#108=ORIENTED_EDGE('',*,*,#473,.T.);
#109=ORIENTED_EDGE('',*,*,#472,.T.);
#110=ORIENTED_EDGE('',*,*,#474,.T.);
#111=ORIENTED_EDGE('',*,*,#475,.F.);
#112=ORIENTED_EDGE('',*,*,#468,.F.);
#113=ORIENTED_EDGE('',*,*,#476,.F.);
#114=ORIENTED_EDGE('',*,*,#475,.T.);
#115=ORIENTED_EDGE('',*,*,#477,.F.);
#116=ORIENTED_EDGE('',*,*,#478,.F.);
#117=ORIENTED_EDGE('',*,*,#479,.F.);
#118=ORIENTED_EDGE('',*,*,#480,.T.);
#119=ORIENTED_EDGE('',*,*,#481,.F.);
#120=ORIENTED_EDGE('',*,*,#482,.T.);
#121=ORIENTED_EDGE('',*,*,#478,.T.);
#122=ORIENTED_EDGE('',*,*,#483,.T.);
#123=ORIENTED_EDGE('',*,*,#484,.F.);
#124=ORIENTED_EDGE('',*,*,#485,.T.);
#125=ORIENTED_EDGE('',*,*,#484,.T.);
#126=ORIENTED_EDGE('',*,*,#486,.T.);
#127=ORIENTED_EDGE('',*,*,#487,.F.);
#128=ORIENTED_EDGE('',*,*,#480,.F.);
#129=ORIENTED_EDGE('',*,*,#488,.F.);
#130=ORIENTED_EDGE('',*,*,#487,.T.);
#131=ORIENTED_EDGE('',*,*,#489,.F.);
#132=ORIENTED_EDGE('',*,*,#490,.F.);
#133=ORIENTED_EDGE('',*,*,#491,.F.);
#134=ORIENTED_EDGE('',*,*,#492,.T.);
#135=ORIENTED_EDGE('',*,*,#493,.F.);
#136=ORIENTED_EDGE('',*,*,#494,.T.);
#137=ORIENTED_EDGE('',*,*,#490,.T.);
#138=ORIENTED_EDGE('',*,*,#495,.T.);
#139=ORIENTED_EDGE('',*,*,#496,.F.);
#140=ORIENTED_EDGE('',*,*,#497,.T.);
#141=ORIENTED_EDGE('',*,*,#496,.T.);
#142=ORIENTED_EDGE('',*,*,#498,.T.);
#143=ORIENTED_EDGE('',*,*,#499,.F.);
#144=ORIENTED_EDGE('',*,*,#492,.F.);
#145=ORIENTED_EDGE('',*,*,#500,.F.);
#146=ORIENTED_EDGE('',*,*,#499,.T.);
#147=ORIENTED_EDGE('',*,*,#501,.F.);
#148=ORIENTED_EDGE('',*,*,#481,.T.);
#149=ORIENTED_EDGE('',*,*,#489,.T.);
#150=ORIENTED_EDGE('',*,*,#486,.F.);
#151=ORIENTED_EDGE('',*,*,#483,.F.);
#152=ORIENTED_EDGE('',*,*,#457,.T.);
#153=ORIENTED_EDGE('',*,*,#465,.T.);
#154=ORIENTED_EDGE('',*,*,#462,.F.);
#155=ORIENTED_EDGE('',*,*,#459,.F.);
#156=ORIENTED_EDGE('',*,*,#502,.T.);
#157=ORIENTED_EDGE('',*,*,#503,.T.);
#158=ORIENTED_EDGE('',*,*,#504,.F.);
#159=ORIENTED_EDGE('',*,*,#505,.F.);
#160=ORIENTED_EDGE('',*,*,#506,.F.);
#161=ORIENTED_EDGE('',*,*,#507,.F.);
#162=ORIENTED_EDGE('',*,*,#508,.F.);
#163=ORIENTED_EDGE('',*,*,#509,.T.);
#164=ORIENTED_EDGE('',*,*,#510,.T.);
#165=ORIENTED_EDGE('',*,*,#511,.T.);
#166=ORIENTED_EDGE('',*,*,#512,.T.);
#167=ORIENTED_EDGE('',*,*,#513,.T.);
#168=ORIENTED_EDGE('',*,*,#514,.F.);
#169=ORIENTED_EDGE('',*,*,#515,.T.);
#170=ORIENTED_EDGE('',*,*,#445,.T.);
#171=ORIENTED_EDGE('',*,*,#453,.T.);
#172=ORIENTED_EDGE('',*,*,#450,.F.);
#173=ORIENTED_EDGE('',*,*,#447,.F.);
#174=ORIENTED_EDGE('',*,*,#469,.T.);
#175=ORIENTED_EDGE('',*,*,#477,.T.);
#176=ORIENTED_EDGE('',*,*,#474,.F.);
#177=ORIENTED_EDGE('',*,*,#471,.F.);
#178=ORIENTED_EDGE('',*,*,#493,.T.);
#179=ORIENTED_EDGE('',*,*,#501,.T.);
#180=ORIENTED_EDGE('',*,*,#498,.F.);
#181=ORIENTED_EDGE('',*,*,#495,.F.);
#182=ORIENTED_EDGE('',*,*,#516,.F.);
#183=ORIENTED_EDGE('',*,*,#517,.F.);
#184=ORIENTED_EDGE('',*,*,#518,.T.);
#185=ORIENTED_EDGE('',*,*,#519,.T.);
#186=ORIENTED_EDGE('',*,*,#520,.T.);
#187=ORIENTED_EDGE('',*,*,#521,.T.);
#188=ORIENTED_EDGE('',*,*,#522,.T.);
#189=ORIENTED_EDGE('',*,*,#523,.F.);
#190=ORIENTED_EDGE('',*,*,#524,.T.);
#191=ORIENTED_EDGE('',*,*,#525,.F.);
#192=ORIENTED_EDGE('',*,*,#526,.T.);
#193=ORIENTED_EDGE('',*,*,#527,.T.);
#194=ORIENTED_EDGE('',*,*,#528,.F.);
#195=ORIENTED_EDGE('',*,*,#510,.F.);
#196=ORIENTED_EDGE('',*,*,#529,.T.);
#197=ORIENTED_EDGE('',*,*,#517,.T.);
#198=ORIENTED_EDGE('',*,*,#530,.T.);
#199=ORIENTED_EDGE('',*,*,#519,.F.);
#200=ORIENTED_EDGE('',*,*,#531,.T.);
#201=ORIENTED_EDGE('',*,*,#508,.T.);
#202=ORIENTED_EDGE('',*,*,#532,.T.);
#203=ORIENTED_EDGE('',*,*,#514,.T.);
#204=ORIENTED_EDGE('',*,*,#533,.T.);
#205=ORIENTED_EDGE('',*,*,#521,.F.);
#206=ORIENTED_EDGE('',*,*,#534,.T.);
#207=ORIENTED_EDGE('',*,*,#512,.F.);
#208=ORIENTED_EDGE('',*,*,#535,.T.);
#209=ORIENTED_EDGE('',*,*,#523,.T.);
#210=ORIENTED_EDGE('',*,*,#536,.T.);
#211=ORIENTED_EDGE('',*,*,#526,.F.);
#212=ORIENTED_EDGE('',*,*,#537,.F.);
#213=ORIENTED_EDGE('',*,*,#538,.T.);
#214=ORIENTED_EDGE('',*,*,#539,.T.);
#215=ORIENTED_EDGE('',*,*,#525,.T.);
#216=ORIENTED_EDGE('',*,*,#540,.F.);
#217=ORIENTED_EDGE('',*,*,#541,.F.);
#218=ORIENTED_EDGE('',*,*,#537,.T.);
#219=ORIENTED_EDGE('',*,*,#528,.T.);
#220=ORIENTED_EDGE('',*,*,#542,.F.);
#221=ORIENTED_EDGE('',*,*,#543,.F.);
#222=ORIENTED_EDGE('',*,*,#540,.T.);
#223=ORIENTED_EDGE('',*,*,#430,.F.);
#224=ORIENTED_EDGE('',*,*,#544,.F.);
#225=ORIENTED_EDGE('',*,*,#545,.T.);
#226=ORIENTED_EDGE('',*,*,#546,.T.);
#227=ORIENTED_EDGE('',*,*,#429,.T.);
#228=ORIENTED_EDGE('',*,*,#547,.F.);
#229=ORIENTED_EDGE('',*,*,#548,.F.);
#230=ORIENTED_EDGE('',*,*,#544,.T.);
#231=ORIENTED_EDGE('',*,*,#432,.T.);
#232=ORIENTED_EDGE('',*,*,#549,.F.);
#233=ORIENTED_EDGE('',*,*,#550,.F.);
#234=ORIENTED_EDGE('',*,*,#547,.T.);
#235=ORIENTED_EDGE('',*,*,#431,.F.);
#236=ORIENTED_EDGE('',*,*,#546,.F.);
#237=ORIENTED_EDGE('',*,*,#551,.T.);
#238=ORIENTED_EDGE('',*,*,#549,.T.);
#239=ORIENTED_EDGE('',*,*,#527,.F.);
#240=ORIENTED_EDGE('',*,*,#539,.F.);
#241=ORIENTED_EDGE('',*,*,#552,.T.);
#242=ORIENTED_EDGE('',*,*,#542,.T.);
#243=ORIENTED_EDGE('',*,*,#545,.F.);
#244=ORIENTED_EDGE('',*,*,#548,.T.);
#245=ORIENTED_EDGE('',*,*,#550,.T.);
#246=ORIENTED_EDGE('',*,*,#551,.F.);
#247=ORIENTED_EDGE('',*,*,#538,.F.);
#248=ORIENTED_EDGE('',*,*,#541,.T.);
#249=ORIENTED_EDGE('',*,*,#543,.T.);
#250=ORIENTED_EDGE('',*,*,#552,.F.);
#251=ORIENTED_EDGE('',*,*,#428,.F.);
#252=ORIENTED_EDGE('',*,*,#507,.T.);
#253=ORIENTED_EDGE('',*,*,#427,.F.);
#254=ORIENTED_EDGE('',*,*,#506,.T.);
#255=ORIENTED_EDGE('',*,*,#502,.F.);
#256=ORIENTED_EDGE('',*,*,#553,.F.);
#257=ORIENTED_EDGE('',*,*,#423,.T.);
#258=ORIENTED_EDGE('',*,*,#554,.T.);
#259=ORIENTED_EDGE('',*,*,#505,.T.);
#260=ORIENTED_EDGE('',*,*,#555,.F.);
#261=ORIENTED_EDGE('',*,*,#424,.F.);
#262=ORIENTED_EDGE('',*,*,#553,.T.);
#263=ORIENTED_EDGE('',*,*,#504,.T.);
#264=ORIENTED_EDGE('',*,*,#556,.F.);
#265=ORIENTED_EDGE('',*,*,#425,.F.);
#266=ORIENTED_EDGE('',*,*,#555,.T.);
#267=ORIENTED_EDGE('',*,*,#503,.F.);
#268=ORIENTED_EDGE('',*,*,#554,.F.);
#269=ORIENTED_EDGE('',*,*,#426,.T.);
#270=ORIENTED_EDGE('',*,*,#556,.T.);
#271=ORIENTED_EDGE('',*,*,#433,.T.);
#272=ORIENTED_EDGE('',*,*,#557,.T.);
#273=ORIENTED_EDGE('',*,*,#558,.T.);
#274=ORIENTED_EDGE('',*,*,#559,.T.);
#275=ORIENTED_EDGE('',*,*,#560,.F.);
#276=ORIENTED_EDGE('',*,*,#561,.T.);
#277=ORIENTED_EDGE('',*,*,#562,.F.);
#278=ORIENTED_EDGE('',*,*,#563,.T.);
#279=ORIENTED_EDGE('',*,*,#564,.T.);
#280=ORIENTED_EDGE('',*,*,#565,.T.);
#281=ORIENTED_EDGE('',*,*,#557,.F.);
#282=ORIENTED_EDGE('',*,*,#516,.T.);
#283=ORIENTED_EDGE('',*,*,#566,.T.);
#284=ORIENTED_EDGE('',*,*,#567,.F.);
#285=ORIENTED_EDGE('',*,*,#568,.F.);
#286=ORIENTED_EDGE('',*,*,#563,.F.);
#287=ORIENTED_EDGE('',*,*,#569,.T.);
#288=ORIENTED_EDGE('',*,*,#570,.F.);
#289=ORIENTED_EDGE('',*,*,#571,.F.);
#290=ORIENTED_EDGE('',*,*,#559,.F.);
#291=ORIENTED_EDGE('',*,*,#572,.F.);
#292=ORIENTED_EDGE('',*,*,#573,.F.);
#293=ORIENTED_EDGE('',*,*,#560,.T.);
#294=ORIENTED_EDGE('',*,*,#571,.T.);
#295=ORIENTED_EDGE('',*,*,#573,.T.);
#296=ORIENTED_EDGE('',*,*,#574,.T.);
#297=ORIENTED_EDGE('',*,*,#575,.F.);
#298=ORIENTED_EDGE('',*,*,#561,.F.);
#299=ORIENTED_EDGE('',*,*,#576,.F.);
#300=ORIENTED_EDGE('',*,*,#569,.F.);
#301=ORIENTED_EDGE('',*,*,#562,.T.);
#302=ORIENTED_EDGE('',*,*,#575,.T.);
#303=ORIENTED_EDGE('',*,*,#568,.T.);
#304=ORIENTED_EDGE('',*,*,#577,.T.);
#305=ORIENTED_EDGE('',*,*,#578,.F.);
#306=ORIENTED_EDGE('',*,*,#564,.F.);
#307=ORIENTED_EDGE('',*,*,#578,.T.);
#308=ORIENTED_EDGE('',*,*,#579,.T.);
#309=ORIENTED_EDGE('',*,*,#580,.F.);
#310=ORIENTED_EDGE('',*,*,#565,.F.);
#311=ORIENTED_EDGE('',*,*,#580,.T.);
#312=ORIENTED_EDGE('',*,*,#581,.T.);
#313=ORIENTED_EDGE('',*,*,#566,.F.);
#314=ORIENTED_EDGE('',*,*,#558,.F.);
#315=ORIENTED_EDGE('',*,*,#577,.F.);
#316=ORIENTED_EDGE('',*,*,#567,.T.);
#317=ORIENTED_EDGE('',*,*,#581,.F.);
#318=ORIENTED_EDGE('',*,*,#579,.F.);
#319=ORIENTED_EDGE('',*,*,#570,.T.);
#320=ORIENTED_EDGE('',*,*,#576,.T.);
#321=ORIENTED_EDGE('',*,*,#574,.F.);
#322=ORIENTED_EDGE('',*,*,#572,.T.);
#323=ORIENTED_EDGE('',*,*,#435,.F.);
#324=ORIENTED_EDGE('',*,*,#582,.F.);
#325=ORIENTED_EDGE('',*,*,#583,.T.);
#326=ORIENTED_EDGE('',*,*,#584,.T.);
#327=ORIENTED_EDGE('',*,*,#434,.T.);
#328=ORIENTED_EDGE('',*,*,#585,.F.);
#329=ORIENTED_EDGE('',*,*,#586,.F.);
#330=ORIENTED_EDGE('',*,*,#582,.T.);
#331=ORIENTED_EDGE('',*,*,#441,.T.);
#332=ORIENTED_EDGE('',*,*,#587,.F.);
#333=ORIENTED_EDGE('',*,*,#588,.F.);
#334=ORIENTED_EDGE('',*,*,#585,.T.);
#335=ORIENTED_EDGE('',*,*,#440,.T.);
#336=ORIENTED_EDGE('',*,*,#589,.F.);
#337=ORIENTED_EDGE('',*,*,#590,.F.);
#338=ORIENTED_EDGE('',*,*,#587,.T.);
#339=ORIENTED_EDGE('',*,*,#439,.F.);
#340=ORIENTED_EDGE('',*,*,#591,.F.);
#341=ORIENTED_EDGE('',*,*,#592,.T.);
#342=ORIENTED_EDGE('',*,*,#589,.T.);
#343=ORIENTED_EDGE('',*,*,#438,.F.);
#344=ORIENTED_EDGE('',*,*,#593,.F.);
#345=ORIENTED_EDGE('',*,*,#594,.T.);
#346=ORIENTED_EDGE('',*,*,#591,.T.);
#347=ORIENTED_EDGE('',*,*,#437,.T.);
#348=ORIENTED_EDGE('',*,*,#595,.F.);
#349=ORIENTED_EDGE('',*,*,#596,.F.);
#350=ORIENTED_EDGE('',*,*,#593,.T.);
#351=ORIENTED_EDGE('',*,*,#436,.T.);
#352=ORIENTED_EDGE('',*,*,#584,.F.);
#353=ORIENTED_EDGE('',*,*,#597,.F.);
#354=ORIENTED_EDGE('',*,*,#595,.T.);
#355=ORIENTED_EDGE('',*,*,#443,.T.);
#356=ORIENTED_EDGE('',*,*,#446,.F.);
#357=ORIENTED_EDGE('',*,*,#449,.F.);
#358=ORIENTED_EDGE('',*,*,#452,.T.);
#359=ORIENTED_EDGE('',*,*,#470,.F.);
#360=ORIENTED_EDGE('',*,*,#473,.F.);
#361=ORIENTED_EDGE('',*,*,#476,.T.);
#362=ORIENTED_EDGE('',*,*,#467,.T.);
#363=ORIENTED_EDGE('',*,*,#494,.F.);
#364=ORIENTED_EDGE('',*,*,#497,.F.);
#365=ORIENTED_EDGE('',*,*,#500,.T.);
#366=ORIENTED_EDGE('',*,*,#491,.T.);
#367=ORIENTED_EDGE('',*,*,#583,.F.);
#368=ORIENTED_EDGE('',*,*,#586,.T.);
#369=ORIENTED_EDGE('',*,*,#588,.T.);
#370=ORIENTED_EDGE('',*,*,#590,.T.);
#371=ORIENTED_EDGE('',*,*,#592,.F.);
#372=ORIENTED_EDGE('',*,*,#594,.F.);
#373=ORIENTED_EDGE('',*,*,#596,.T.);
#374=ORIENTED_EDGE('',*,*,#597,.T.);
#375=ORIENTED_EDGE('',*,*,#455,.T.);
#376=ORIENTED_EDGE('',*,*,#458,.F.);
#377=ORIENTED_EDGE('',*,*,#461,.F.);
#378=ORIENTED_EDGE('',*,*,#464,.T.);
#379=ORIENTED_EDGE('',*,*,#488,.T.);
#380=ORIENTED_EDGE('',*,*,#479,.T.);
#381=ORIENTED_EDGE('',*,*,#482,.F.);
#382=ORIENTED_EDGE('',*,*,#485,.F.);
#383=ORIENTED_EDGE('',*,*,#518,.F.);
#384=ORIENTED_EDGE('',*,*,#529,.F.);
#385=ORIENTED_EDGE('',*,*,#509,.F.);
#386=ORIENTED_EDGE('',*,*,#531,.F.);
#387=ORIENTED_EDGE('',*,*,#524,.F.);
#388=ORIENTED_EDGE('',*,*,#535,.F.);
#389=ORIENTED_EDGE('',*,*,#511,.F.);
#390=ORIENTED_EDGE('',*,*,#530,.F.);
#391=ORIENTED_EDGE('',*,*,#522,.F.);
#392=ORIENTED_EDGE('',*,*,#533,.F.);
#393=ORIENTED_EDGE('',*,*,#513,.F.);
#394=ORIENTED_EDGE('',*,*,#536,.F.);
#395=ORIENTED_EDGE('',*,*,#520,.F.);
#396=ORIENTED_EDGE('',*,*,#532,.F.);
#397=ORIENTED_EDGE('',*,*,#515,.F.);
#398=ORIENTED_EDGE('',*,*,#534,.F.);
#399=ORIENTED_EDGE('',*,*,#419,.T.);
#400=ORIENTED_EDGE('',*,*,#598,.F.);
#401=ORIENTED_EDGE('',*,*,#599,.F.);
#402=ORIENTED_EDGE('',*,*,#600,.T.);
#403=ORIENTED_EDGE('',*,*,#422,.F.);
#404=ORIENTED_EDGE('',*,*,#601,.F.);
#405=ORIENTED_EDGE('',*,*,#602,.T.);
#406=ORIENTED_EDGE('',*,*,#598,.T.);
#407=ORIENTED_EDGE('',*,*,#421,.F.);
#408=ORIENTED_EDGE('',*,*,#603,.F.);
#409=ORIENTED_EDGE('',*,*,#604,.T.);
#410=ORIENTED_EDGE('',*,*,#601,.T.);
#411=ORIENTED_EDGE('',*,*,#420,.T.);
#412=ORIENTED_EDGE('',*,*,#600,.F.);
#413=ORIENTED_EDGE('',*,*,#605,.F.);
#414=ORIENTED_EDGE('',*,*,#603,.T.);
#415=ORIENTED_EDGE('',*,*,#599,.T.);
#416=ORIENTED_EDGE('',*,*,#602,.F.);
#417=ORIENTED_EDGE('',*,*,#604,.F.);
#418=ORIENTED_EDGE('',*,*,#605,.T.);
#419=EDGE_CURVE('',#606,#607,#733,.T.);
#420=EDGE_CURVE('',#608,#606,#734,.T.);
#421=EDGE_CURVE('',#608,#609,#735,.T.);
#422=EDGE_CURVE('',#609,#607,#736,.T.);
#423=EDGE_CURVE('',#610,#611,#737,.T.);
#424=EDGE_CURVE('',#610,#612,#738,.T.);
#425=EDGE_CURVE('',#612,#613,#739,.T.);
#426=EDGE_CURVE('',#611,#613,#740,.T.);
#427=EDGE_CURVE('',#614,#614,#22,.T.);
#428=EDGE_CURVE('',#615,#615,#23,.T.);
#429=EDGE_CURVE('',#616,#617,#741,.T.);
#430=EDGE_CURVE('',#616,#618,#742,.T.);
#431=EDGE_CURVE('',#618,#619,#743,.T.);
#432=EDGE_CURVE('',#617,#619,#744,.T.);
#433=EDGE_CURVE('',#620,#620,#24,.T.);
#434=EDGE_CURVE('',#621,#622,#745,.T.);
#435=EDGE_CURVE('',#621,#623,#746,.T.);
#436=EDGE_CURVE('',#624,#623,#747,.T.);
#437=EDGE_CURVE('',#625,#624,#748,.T.);
#438=EDGE_CURVE('',#625,#626,#749,.T.);
#439=EDGE_CURVE('',#626,#627,#750,.T.);
#440=EDGE_CURVE('',#628,#627,#751,.T.);
#441=EDGE_CURVE('',#622,#628,#752,.T.);
#442=EDGE_CURVE('',#629,#630,#753,.T.);
#443=EDGE_CURVE('',#631,#629,#754,.T.);
#444=EDGE_CURVE('',#631,#632,#755,.T.);
#445=EDGE_CURVE('',#630,#632,#756,.T.);
#446=EDGE_CURVE('',#633,#629,#757,.T.);
#447=EDGE_CURVE('',#630,#634,#758,.T.);
#448=EDGE_CURVE('',#633,#634,#759,.T.);
#449=EDGE_CURVE('',#635,#633,#760,.T.);
#450=EDGE_CURVE('',#634,#636,#761,.T.);
#451=EDGE_CURVE('',#635,#636,#762,.T.);
#452=EDGE_CURVE('',#635,#631,#763,.T.);
#453=EDGE_CURVE('',#632,#636,#764,.T.);
#454=EDGE_CURVE('',#637,#638,#765,.T.);
#455=EDGE_CURVE('',#639,#637,#766,.T.);
#456=EDGE_CURVE('',#639,#640,#767,.T.);
#457=EDGE_CURVE('',#638,#640,#768,.T.);
#458=EDGE_CURVE('',#641,#637,#769,.T.);
#459=EDGE_CURVE('',#638,#642,#770,.T.);
#460=EDGE_CURVE('',#641,#642,#771,.T.);
#461=EDGE_CURVE('',#643,#641,#772,.T.);
#462=EDGE_CURVE('',#642,#644,#773,.T.);
#463=EDGE_CURVE('',#643,#644,#774,.T.);
#464=EDGE_CURVE('',#643,#639,#775,.T.);
#465=EDGE_CURVE('',#640,#644,#776,.T.);
#466=EDGE_CURVE('',#645,#646,#777,.T.);
#467=EDGE_CURVE('',#647,#645,#778,.T.);
#468=EDGE_CURVE('',#647,#648,#779,.T.);
#469=EDGE_CURVE('',#646,#648,#780,.T.);
#470=EDGE_CURVE('',#649,#645,#781,.T.);
#471=EDGE_CURVE('',#646,#650,#782,.T.);
#472=EDGE_CURVE('',#649,#650,#783,.T.);
#473=EDGE_CURVE('',#651,#649,#784,.T.);
#474=EDGE_CURVE('',#650,#652,#785,.T.);
#475=EDGE_CURVE('',#651,#652,#786,.T.);
#476=EDGE_CURVE('',#651,#647,#787,.T.);
#477=EDGE_CURVE('',#648,#652,#788,.T.);
#478=EDGE_CURVE('',#653,#654,#789,.T.);
#479=EDGE_CURVE('',#655,#653,#790,.T.);
#480=EDGE_CURVE('',#655,#656,#791,.T.);
#481=EDGE_CURVE('',#654,#656,#792,.T.);
#482=EDGE_CURVE('',#657,#653,#793,.T.);
#483=EDGE_CURVE('',#654,#658,#794,.T.);
#484=EDGE_CURVE('',#657,#658,#795,.T.);
#485=EDGE_CURVE('',#659,#657,#796,.T.);
#486=EDGE_CURVE('',#658,#660,#797,.T.);
#487=EDGE_CURVE('',#659,#660,#798,.T.);
#488=EDGE_CURVE('',#659,#655,#799,.T.);
#489=EDGE_CURVE('',#656,#660,#800,.T.);
#490=EDGE_CURVE('',#661,#662,#801,.T.);
#491=EDGE_CURVE('',#663,#661,#802,.T.);
#492=EDGE_CURVE('',#663,#664,#803,.T.);
#493=EDGE_CURVE('',#662,#664,#804,.T.);
#494=EDGE_CURVE('',#665,#661,#805,.T.);
#495=EDGE_CURVE('',#662,#666,#806,.T.);
#496=EDGE_CURVE('',#665,#666,#807,.T.);
#497=EDGE_CURVE('',#667,#665,#808,.T.);
#498=EDGE_CURVE('',#666,#668,#809,.T.);
#499=EDGE_CURVE('',#667,#668,#810,.T.);
#500=EDGE_CURVE('',#667,#663,#811,.T.);
#501=EDGE_CURVE('',#664,#668,#812,.T.);
#502=EDGE_CURVE('',#669,#670,#813,.T.);
#503=EDGE_CURVE('',#670,#671,#814,.T.);
#504=EDGE_CURVE('',#672,#671,#815,.T.);
#505=EDGE_CURVE('',#669,#672,#816,.T.);
#506=EDGE_CURVE('',#673,#673,#25,.T.);
#507=EDGE_CURVE('',#674,#674,#26,.T.);
#508=EDGE_CURVE('',#675,#676,#817,.T.);
#509=EDGE_CURVE('',#675,#677,#27,.F.);
#510=EDGE_CURVE('',#677,#678,#818,.T.);
#511=EDGE_CURVE('',#678,#679,#28,.F.);
#512=EDGE_CURVE('',#679,#680,#819,.T.);
#513=EDGE_CURVE('',#680,#681,#29,.F.);
#514=EDGE_CURVE('',#682,#681,#820,.T.);
#515=EDGE_CURVE('',#682,#676,#30,.F.);
#516=EDGE_CURVE('',#683,#683,#31,.T.);
#517=EDGE_CURVE('',#684,#685,#821,.T.);
#518=EDGE_CURVE('',#684,#686,#32,.T.);
#519=EDGE_CURVE('',#686,#687,#822,.T.);
#520=EDGE_CURVE('',#687,#688,#33,.T.);
#521=EDGE_CURVE('',#688,#689,#823,.T.);
#522=EDGE_CURVE('',#689,#690,#34,.T.);
#523=EDGE_CURVE('',#691,#690,#824,.T.);
#524=EDGE_CURVE('',#691,#685,#35,.T.);
#525=EDGE_CURVE('',#692,#693,#825,.T.);
#526=EDGE_CURVE('',#692,#694,#826,.T.);
#527=EDGE_CURVE('',#694,#695,#827,.T.);
#528=EDGE_CURVE('',#693,#695,#828,.T.);
#529=EDGE_CURVE('',#677,#684,#829,.F.);
#530=EDGE_CURVE('',#685,#678,#830,.T.);
#531=EDGE_CURVE('',#686,#675,#831,.T.);
#532=EDGE_CURVE('',#676,#687,#832,.F.);
#533=EDGE_CURVE('',#681,#689,#833,.F.);
#534=EDGE_CURVE('',#688,#682,#834,.T.);
#535=EDGE_CURVE('',#679,#691,#835,.F.);
#536=EDGE_CURVE('',#690,#680,#836,.T.);
#537=EDGE_CURVE('',#696,#692,#837,.T.);
#538=EDGE_CURVE('',#696,#697,#838,.T.);
#539=EDGE_CURVE('',#697,#694,#839,.T.);
#540=EDGE_CURVE('',#698,#693,#840,.T.);
#541=EDGE_CURVE('',#696,#698,#841,.T.);
#542=EDGE_CURVE('',#699,#695,#842,.T.);
#543=EDGE_CURVE('',#698,#699,#843,.T.);
#544=EDGE_CURVE('',#700,#616,#844,.T.);
#545=EDGE_CURVE('',#700,#701,#845,.T.);
#546=EDGE_CURVE('',#701,#618,#846,.T.);
#547=EDGE_CURVE('',#702,#617,#847,.T.);
#548=EDGE_CURVE('',#700,#702,#848,.T.);
#549=EDGE_CURVE('',#703,#619,#849,.T.);
#550=EDGE_CURVE('',#702,#703,#850,.T.);
#551=EDGE_CURVE('',#701,#703,#851,.T.);
#552=EDGE_CURVE('',#697,#699,#852,.T.);
#553=EDGE_CURVE('',#610,#669,#853,.T.);
#554=EDGE_CURVE('',#611,#670,#854,.T.);
#555=EDGE_CURVE('',#612,#672,#855,.T.);
#556=EDGE_CURVE('',#613,#671,#856,.T.);
#557=EDGE_CURVE('',#704,#704,#36,.T.);
#558=EDGE_CURVE('',#705,#706,#857,.T.);
#559=EDGE_CURVE('',#706,#707,#37,.T.);
#560=EDGE_CURVE('',#708,#707,#858,.T.);
#561=EDGE_CURVE('',#708,#709,#38,.T.);
#562=EDGE_CURVE('',#710,#709,#859,.T.);
#563=EDGE_CURVE('',#710,#711,#39,.T.);
#564=EDGE_CURVE('',#711,#712,#860,.T.);
#565=EDGE_CURVE('',#712,#705,#40,.T.);
#566=EDGE_CURVE('',#706,#713,#861,.T.);
#567=EDGE_CURVE('',#714,#713,#41,.T.);
#568=EDGE_CURVE('',#711,#714,#862,.T.);
#569=EDGE_CURVE('',#710,#715,#863,.T.);
#570=EDGE_CURVE('',#716,#715,#42,.T.);
#571=EDGE_CURVE('',#707,#716,#864,.T.);
#572=EDGE_CURVE('',#717,#716,#865,.T.);
#573=EDGE_CURVE('',#708,#717,#866,.T.);
#574=EDGE_CURVE('',#717,#718,#43,.T.);
#575=EDGE_CURVE('',#709,#718,#867,.T.);
#576=EDGE_CURVE('',#715,#718,#868,.T.);
#577=EDGE_CURVE('',#714,#719,#869,.T.);
#578=EDGE_CURVE('',#712,#719,#870,.T.);
#579=EDGE_CURVE('',#719,#720,#44,.T.);
#580=EDGE_CURVE('',#705,#720,#871,.T.);
#581=EDGE_CURVE('',#720,#713,#872,.T.);
#582=EDGE_CURVE('',#721,#621,#873,.T.);
#583=EDGE_CURVE('',#721,#722,#874,.T.);
#584=EDGE_CURVE('',#722,#623,#875,.T.);
#585=EDGE_CURVE('',#723,#622,#876,.T.);
#586=EDGE_CURVE('',#721,#723,#877,.T.);
#587=EDGE_CURVE('',#724,#628,#878,.T.);
#588=EDGE_CURVE('',#723,#724,#879,.T.);
#589=EDGE_CURVE('',#725,#627,#880,.T.);
#590=EDGE_CURVE('',#724,#725,#881,.T.);
#591=EDGE_CURVE('',#726,#626,#882,.T.);
#592=EDGE_CURVE('',#726,#725,#883,.T.);
#593=EDGE_CURVE('',#727,#625,#884,.T.);
#594=EDGE_CURVE('',#727,#726,#885,.T.);
#595=EDGE_CURVE('',#728,#624,#886,.T.);
#596=EDGE_CURVE('',#727,#728,#887,.T.);
#597=EDGE_CURVE('',#728,#722,#888,.T.);
#598=EDGE_CURVE('',#729,#607,#889,.T.);
#599=EDGE_CURVE('',#730,#729,#890,.T.);
#600=EDGE_CURVE('',#730,#606,#891,.T.);
#601=EDGE_CURVE('',#731,#609,#892,.T.);
#602=EDGE_CURVE('',#731,#729,#893,.T.);
#603=EDGE_CURVE('',#732,#608,#894,.T.);
#604=EDGE_CURVE('',#732,#731,#895,.T.);
#605=EDGE_CURVE('',#732,#730,#896,.T.);
#606=VERTEX_POINT('',#1853);
#607=VERTEX_POINT('',#1854);
#608=VERTEX_POINT('',#1856);
#609=VERTEX_POINT('',#1858);
#610=VERTEX_POINT('',#1861);
#611=VERTEX_POINT('',#1862);
#612=VERTEX_POINT('',#1864);
#613=VERTEX_POINT('',#1866);
#614=VERTEX_POINT('',#1869);
#615=VERTEX_POINT('',#1871);
#616=VERTEX_POINT('',#1873);
#617=VERTEX_POINT('',#1874);
#618=VERTEX_POINT('',#1876);
#619=VERTEX_POINT('',#1878);
#620=VERTEX_POINT('',#1881);
#621=VERTEX_POINT('',#1883);
#622=VERTEX_POINT('',#1884);
#623=VERTEX_POINT('',#1886);
#624=VERTEX_POINT('',#1888);
#625=VERTEX_POINT('',#1890);
#626=VERTEX_POINT('',#1892);
#627=VERTEX_POINT('',#1894);
#628=VERTEX_POINT('',#1896);
#629=VERTEX_POINT('',#1900);
#630=VERTEX_POINT('',#1901);
#631=VERTEX_POINT('',#1903);
#632=VERTEX_POINT('',#1905);
#633=VERTEX_POINT('',#1909);
#634=VERTEX_POINT('',#1911);
#635=VERTEX_POINT('',#1915);
#636=VERTEX_POINT('',#1917);
#637=VERTEX_POINT('',#1924);
#638=VERTEX_POINT('',#1925);
#639=VERTEX_POINT('',#1927);
#640=VERTEX_POINT('',#1929);
#641=VERTEX_POINT('',#1933);
#642=VERTEX_POINT('',#1935);
#643=VERTEX_POINT('',#1939);
#644=VERTEX_POINT('',#1941);
#645=VERTEX_POINT('',#1948);
#646=VERTEX_POINT('',#1949);
#647=VERTEX_POINT('',#1951);
#648=VERTEX_POINT('',#1953);
#649=VERTEX_POINT('',#1957);
#650=VERTEX_POINT('',#1959);
#651=VERTEX_POINT('',#1963);
#652=VERTEX_POINT('',#1965);
#653=VERTEX_POINT('',#1972);
#654=VERTEX_POINT('',#1973);
#655=VERTEX_POINT('',#1975);
#656=VERTEX_POINT('',#1977);
#657=VERTEX_POINT('',#1981);
#658=VERTEX_POINT('',#1983);
#659=VERTEX_POINT('',#1987);
#660=VERTEX_POINT('',#1989);
#661=VERTEX_POINT('',#1996);
#662=VERTEX_POINT('',#1997);
#663=VERTEX_POINT('',#1999);
#664=VERTEX_POINT('',#2001);
#665=VERTEX_POINT('',#2005);
#666=VERTEX_POINT('',#2007);
#667=VERTEX_POINT('',#2011);
#668=VERTEX_POINT('',#2013);
#669=VERTEX_POINT('',#2020);
#670=VERTEX_POINT('',#2021);
#671=VERTEX_POINT('',#2023);
#672=VERTEX_POINT('',#2025);
#673=VERTEX_POINT('',#2028);
#674=VERTEX_POINT('',#2030);
#675=VERTEX_POINT('',#2032);
#676=VERTEX_POINT('',#2033);
#677=VERTEX_POINT('',#2035);
#678=VERTEX_POINT('',#2037);
#679=VERTEX_POINT('',#2039);
#680=VERTEX_POINT('',#2041);
#681=VERTEX_POINT('',#2043);
#682=VERTEX_POINT('',#2045);
#683=VERTEX_POINT('',#2048);
#684=VERTEX_POINT('',#2051);
#685=VERTEX_POINT('',#2052);
#686=VERTEX_POINT('',#2054);
#687=VERTEX_POINT('',#2056);
#688=VERTEX_POINT('',#2058);
#689=VERTEX_POINT('',#2060);
#690=VERTEX_POINT('',#2062);
#691=VERTEX_POINT('',#2064);
#692=VERTEX_POINT('',#2067);
#693=VERTEX_POINT('',#2068);
#694=VERTEX_POINT('',#2070);
#695=VERTEX_POINT('',#2072);
#696=VERTEX_POINT('',#2088);
#697=VERTEX_POINT('',#2090);
#698=VERTEX_POINT('',#2094);
#699=VERTEX_POINT('',#2098);
#700=VERTEX_POINT('',#2102);
#701=VERTEX_POINT('',#2104);
#702=VERTEX_POINT('',#2108);
#703=VERTEX_POINT('',#2112);
#704=VERTEX_POINT('',#2131);
#705=VERTEX_POINT('',#2134);
#706=VERTEX_POINT('',#2135);
#707=VERTEX_POINT('',#2137);
#708=VERTEX_POINT('',#2139);
#709=VERTEX_POINT('',#2141);
#710=VERTEX_POINT('',#2143);
#711=VERTEX_POINT('',#2145);
#712=VERTEX_POINT('',#2147);
#713=VERTEX_POINT('',#2151);
#714=VERTEX_POINT('',#2153);
#715=VERTEX_POINT('',#2156);
#716=VERTEX_POINT('',#2158);
#717=VERTEX_POINT('',#2162);
#718=VERTEX_POINT('',#2166);
#719=VERTEX_POINT('',#2172);
#720=VERTEX_POINT('',#2176);
#721=VERTEX_POINT('',#2184);
#722=VERTEX_POINT('',#2186);
#723=VERTEX_POINT('',#2190);
#724=VERTEX_POINT('',#2194);
#725=VERTEX_POINT('',#2198);
#726=VERTEX_POINT('',#2202);
#727=VERTEX_POINT('',#2206);
#728=VERTEX_POINT('',#2210);
#729=VERTEX_POINT('',#2221);
#730=VERTEX_POINT('',#2223);
#731=VERTEX_POINT('',#2227);
#732=VERTEX_POINT('',#2231);
#733=LINE('',#1852,#897);
#734=LINE('',#1855,#898);
#735=LINE('',#1857,#899);
#736=LINE('',#1859,#900);
#737=LINE('',#1860,#901);
#738=LINE('',#1863,#902);
#739=LINE('',#1865,#903);
#740=LINE('',#1867,#904);
#741=LINE('',#1872,#905);
#742=LINE('',#1875,#906);
#743=LINE('',#1877,#907);
#744=LINE('',#1879,#908);
#745=LINE('',#1882,#909);
#746=LINE('',#1885,#910);
#747=LINE('',#1887,#911);
#748=LINE('',#1889,#912);
#749=LINE('',#1891,#913);
#750=LINE('',#1893,#914);
#751=LINE('',#1895,#915);
#752=LINE('',#1897,#916);
#753=LINE('',#1899,#917);
#754=LINE('',#1902,#918);
#755=LINE('',#1904,#919);
#756=LINE('',#1906,#920);
#757=LINE('',#1908,#921);
#758=LINE('',#1910,#922);
#759=LINE('',#1912,#923);
#760=LINE('',#1914,#924);
#761=LINE('',#1916,#925);
#762=LINE('',#1918,#926);
#763=LINE('',#1920,#927);
#764=LINE('',#1921,#928);
#765=LINE('',#1923,#929);
#766=LINE('',#1926,#930);
#767=LINE('',#1928,#931);
#768=LINE('',#1930,#932);
#769=LINE('',#1932,#933);
#770=LINE('',#1934,#934);
#771=LINE('',#1936,#935);
#772=LINE('',#1938,#936);
#773=LINE('',#1940,#937);
#774=LINE('',#1942,#938);
#775=LINE('',#1944,#939);
#776=LINE('',#1945,#940);
#777=LINE('',#1947,#941);
#778=LINE('',#1950,#942);
#779=LINE('',#1952,#943);
#780=LINE('',#1954,#944);
#781=LINE('',#1956,#945);
#782=LINE('',#1958,#946);
#783=LINE('',#1960,#947);
#784=LINE('',#1962,#948);
#785=LINE('',#1964,#949);
#786=LINE('',#1966,#950);
#787=LINE('',#1968,#951);
#788=LINE('',#1969,#952);
#789=LINE('',#1971,#953);
#790=LINE('',#1974,#954);
#791=LINE('',#1976,#955);
#792=LINE('',#1978,#956);
#793=LINE('',#1980,#957);
#794=LINE('',#1982,#958);
#795=LINE('',#1984,#959);
#796=LINE('',#1986,#960);
#797=LINE('',#1988,#961);
#798=LINE('',#1990,#962);
#799=LINE('',#1992,#963);
#800=LINE('',#1993,#964);
#801=LINE('',#1995,#965);
#802=LINE('',#1998,#966);
#803=LINE('',#2000,#967);
#804=LINE('',#2002,#968);
#805=LINE('',#2004,#969);
#806=LINE('',#2006,#970);
#807=LINE('',#2008,#971);
#808=LINE('',#2010,#972);
#809=LINE('',#2012,#973);
#810=LINE('',#2014,#974);
#811=LINE('',#2016,#975);
#812=LINE('',#2017,#976);
#813=LINE('',#2019,#977);
#814=LINE('',#2022,#978);
#815=LINE('',#2024,#979);
#816=LINE('',#2026,#980);
#817=LINE('',#2031,#981);
#818=LINE('',#2036,#982);
#819=LINE('',#2040,#983);
#820=LINE('',#2044,#984);
#821=LINE('',#2050,#985);
#822=LINE('',#2055,#986);
#823=LINE('',#2059,#987);
#824=LINE('',#2063,#988);
#825=LINE('',#2066,#989);
#826=LINE('',#2069,#990);
#827=LINE('',#2071,#991);
#828=LINE('',#2073,#992);
#829=LINE('',#2075,#993);
#830=LINE('',#2076,#994);
#831=LINE('',#2078,#995);
#832=LINE('',#2079,#996);
#833=LINE('',#2081,#997);
#834=LINE('',#2082,#998);
#835=LINE('',#2084,#999);
#836=LINE('',#2085,#1000);
#837=LINE('',#2087,#1001);
#838=LINE('',#2089,#1002);
#839=LINE('',#2091,#1003);
#840=LINE('',#2093,#1004);
#841=LINE('',#2095,#1005);
#842=LINE('',#2097,#1006);
#843=LINE('',#2099,#1007);
#844=LINE('',#2101,#1008);
#845=LINE('',#2103,#1009);
#846=LINE('',#2105,#1010);
#847=LINE('',#2107,#1011);
#848=LINE('',#2109,#1012);
#849=LINE('',#2111,#1013);
#850=LINE('',#2113,#1014);
#851=LINE('',#2115,#1015);
#852=LINE('',#2117,#1016);
#853=LINE('',#2122,#1017);
#854=LINE('',#2123,#1018);
#855=LINE('',#2125,#1019);
#856=LINE('',#2127,#1020);
#857=LINE('',#2133,#1021);
#858=LINE('',#2138,#1022);
#859=LINE('',#2142,#1023);
#860=LINE('',#2146,#1024);
#861=LINE('',#2150,#1025);
#862=LINE('',#2154,#1026);
#863=LINE('',#2155,#1027);
#864=LINE('',#2159,#1028);
#865=LINE('',#2161,#1029);
#866=LINE('',#2163,#1030);
#867=LINE('',#2167,#1031);
#868=LINE('',#2169,#1032);
#869=LINE('',#2171,#1033);
#870=LINE('',#2173,#1034);
#871=LINE('',#2177,#1035);
#872=LINE('',#2179,#1036);
#873=LINE('',#2183,#1037);
#874=LINE('',#2185,#1038);
#875=LINE('',#2187,#1039);
#876=LINE('',#2189,#1040);
#877=LINE('',#2191,#1041);
#878=LINE('',#2193,#1042);
#879=LINE('',#2195,#1043);
#880=LINE('',#2197,#1044);
#881=LINE('',#2199,#1045);
#882=LINE('',#2201,#1046);
#883=LINE('',#2203,#1047);
#884=LINE('',#2205,#1048);
#885=LINE('',#2207,#1049);
#886=LINE('',#2209,#1050);
#887=LINE('',#2211,#1051);
#888=LINE('',#2213,#1052);
#889=LINE('',#2220,#1053);
#890=LINE('',#2222,#1054);
#891=LINE('',#2224,#1055);
#892=LINE('',#2226,#1056);
#893=LINE('',#2228,#1057);
#894=LINE('',#2230,#1058);
#895=LINE('',#2232,#1059);
#896=LINE('',#2234,#1060);
#897=VECTOR('',#1500,1.);
#898=VECTOR('',#1501,1.);
#899=VECTOR('',#1502,1.);
#900=VECTOR('',#1503,1.);
#901=VECTOR('',#1504,1.);
#902=VECTOR('',#1505,1.);
#903=VECTOR('',#1506,1.);
#904=VECTOR('',#1507,1.);
#905=VECTOR('',#1512,1.);
#906=VECTOR('',#1513,1.);
#907=VECTOR('',#1514,1.);
#908=VECTOR('',#1515,1.);
#909=VECTOR('',#1518,1.);
#910=VECTOR('',#1519,1.);
#911=VECTOR('',#1520,1.);
#912=VECTOR('',#1521,1.);
#913=VECTOR('',#1522,1.);
#914=VECTOR('',#1523,1.);
#915=VECTOR('',#1524,1.);
#916=VECTOR('',#1525,1.);
#917=VECTOR('',#1528,1.);
#918=VECTOR('',#1529,1.);
#919=VECTOR('',#1530,1.);
#920=VECTOR('',#1531,1.);
#921=VECTOR('',#1534,1.);
#922=VECTOR('',#1535,1.);
#923=VECTOR('',#1536,1.);
#924=VECTOR('',#1539,1.);
#925=VECTOR('',#1540,1.);
#926=VECTOR('',#1541,1.);
#927=VECTOR('',#1544,1.);
#928=VECTOR('',#1545,1.);
#929=VECTOR('',#1548,1.);
#930=VECTOR('',#1549,1.);
#931=VECTOR('',#1550,1.);
#932=VECTOR('',#1551,1.);
#933=VECTOR('',#1554,1.);
#934=VECTOR('',#1555,1.);
#935=VECTOR('',#1556,1.);
#936=VECTOR('',#1559,1.);
#937=VECTOR('',#1560,1.);
#938=VECTOR('',#1561,1.);
#939=VECTOR('',#1564,1.);
#940=VECTOR('',#1565,1.);
#941=VECTOR('',#1568,1.);
#942=VECTOR('',#1569,1.);
#943=VECTOR('',#1570,1.);
#944=VECTOR('',#1571,1.);
#945=VECTOR('',#1574,1.);
#946=VECTOR('',#1575,1.);
#947=VECTOR('',#1576,1.);
#948=VECTOR('',#1579,1.);
#949=VECTOR('',#1580,1.);
#950=VECTOR('',#1581,1.);
#951=VECTOR('',#1584,1.);
#952=VECTOR('',#1585,1.);
#953=VECTOR('',#1588,1.);
#954=VECTOR('',#1589,1.);
#955=VECTOR('',#1590,1.);
#956=VECTOR('',#1591,1.);
#957=VECTOR('',#1594,1.);
#958=VECTOR('',#1595,1.);
#959=VECTOR('',#1596,1.);
#960=VECTOR('',#1599,1.);
#961=VECTOR('',#1600,1.);
#962=VECTOR('',#1601,1.);
#963=VECTOR('',#1604,1.);
#964=VECTOR('',#1605,1.);
#965=VECTOR('',#1608,1.);
#966=VECTOR('',#1609,1.);
#967=VECTOR('',#1610,1.);
#968=VECTOR('',#1611,1.);
#969=VECTOR('',#1614,1.);
#970=VECTOR('',#1615,1.);
#971=VECTOR('',#1616,1.);
#972=VECTOR('',#1619,1.);
#973=VECTOR('',#1620,1.);
#974=VECTOR('',#1621,1.);
#975=VECTOR('',#1624,1.);
#976=VECTOR('',#1625,1.);
#977=VECTOR('',#1628,1.);
#978=VECTOR('',#1629,1.);
#979=VECTOR('',#1630,1.);
#980=VECTOR('',#1631,1.);
#981=VECTOR('',#1636,1.);
#982=VECTOR('',#1639,1.);
#983=VECTOR('',#1642,1.);
#984=VECTOR('',#1645,1.);
#985=VECTOR('',#1652,1.);
#986=VECTOR('',#1655,1.);
#987=VECTOR('',#1658,1.);
#988=VECTOR('',#1661,1.);
#989=VECTOR('',#1664,1.);
#990=VECTOR('',#1665,1.);
#991=VECTOR('',#1666,1.);
#992=VECTOR('',#1667,1.);
#993=VECTOR('',#1670,1.);
#994=VECTOR('',#1671,1.);
#995=VECTOR('',#1674,1.);
#996=VECTOR('',#1675,1.);
#997=VECTOR('',#1678,1.);
#998=VECTOR('',#1679,1.);
#999=VECTOR('',#1682,1.);
#1000=VECTOR('',#1683,1.);
#1001=VECTOR('',#1686,1.);
#1002=VECTOR('',#1687,1.);
#1003=VECTOR('',#1688,1.);
#1004=VECTOR('',#1691,1.);
#1005=VECTOR('',#1692,1.);
#1006=VECTOR('',#1695,1.);
#1007=VECTOR('',#1696,1.);
#1008=VECTOR('',#1699,1.);
#1009=VECTOR('',#1700,1.);
#1010=VECTOR('',#1701,1.);
#1011=VECTOR('',#1704,1.);
#1012=VECTOR('',#1705,1.);
#1013=VECTOR('',#1708,1.);
#1014=VECTOR('',#1709,1.);
#1015=VECTOR('',#1712,1.);
#1016=VECTOR('',#1715,1.);
#1017=VECTOR('',#1724,1.);
#1018=VECTOR('',#1725,1.);
#1019=VECTOR('',#1728,1.);
#1020=VECTOR('',#1731,1.);
#1021=VECTOR('',#1740,1.);
#1022=VECTOR('',#1743,1.);
#1023=VECTOR('',#1746,1.);
#1024=VECTOR('',#1749,1.);
#1025=VECTOR('',#1754,1.);
#1026=VECTOR('',#1757,1.);
#1027=VECTOR('',#1758,1.);
#1028=VECTOR('',#1761,1.);
#1029=VECTOR('',#1764,1.);
#1030=VECTOR('',#1765,1.);
#1031=VECTOR('',#1770,1.);
#1032=VECTOR('',#1773,1.);
#1033=VECTOR('',#1776,1.);
#1034=VECTOR('',#1777,1.);
#1035=VECTOR('',#1782,1.);
#1036=VECTOR('',#1785,1.);
#1037=VECTOR('',#1792,1.);
#1038=VECTOR('',#1793,1.);
#1039=VECTOR('',#1794,1.);
#1040=VECTOR('',#1797,1.);
#1041=VECTOR('',#1798,1.);
#1042=VECTOR('',#1801,1.);
#1043=VECTOR('',#1802,1.);
#1044=VECTOR('',#1805,1.);
#1045=VECTOR('',#1806,1.);
#1046=VECTOR('',#1809,1.);
#1047=VECTOR('',#1810,1.);
#1048=VECTOR('',#1813,1.);
#1049=VECTOR('',#1814,1.);
#1050=VECTOR('',#1817,1.);
#1051=VECTOR('',#1818,1.);
#1052=VECTOR('',#1821,1.);
#1053=VECTOR('',#1834,1.);
#1054=VECTOR('',#1835,1.);
#1055=VECTOR('',#1836,1.);
#1056=VECTOR('',#1839,1.);
#1057=VECTOR('',#1840,1.);
#1058=VECTOR('',#1843,1.);
#1059=VECTOR('',#1844,1.);
#1060=VECTOR('',#1847,1.);
#1061=EDGE_LOOP('',(#45,#46,#47,#48));
#1062=EDGE_LOOP('',(#49,#50,#51,#52));
#1063=EDGE_LOOP('',(#53));
#1064=EDGE_LOOP('',(#54));
#1065=EDGE_LOOP('',(#55,#56,#57,#58));
#1066=EDGE_LOOP('',(#59));
#1067=EDGE_LOOP('',(#60,#61,#62,#63,#64,#65,#66,#67));
#1068=EDGE_LOOP('',(#68,#69,#70,#71));
#1069=EDGE_LOOP('',(#72,#73,#74,#75));
#1070=EDGE_LOOP('',(#76,#77,#78,#79));
#1071=EDGE_LOOP('',(#80,#81,#82,#83));
#1072=EDGE_LOOP('',(#84,#85,#86,#87));
#1073=EDGE_LOOP('',(#88,#89,#90,#91));
#1074=EDGE_LOOP('',(#92,#93,#94,#95));
#1075=EDGE_LOOP('',(#96,#97,#98,#99));
#1076=EDGE_LOOP('',(#100,#101,#102,#103));
#1077=EDGE_LOOP('',(#104,#105,#106,#107));
#1078=EDGE_LOOP('',(#108,#109,#110,#111));
#1079=EDGE_LOOP('',(#112,#113,#114,#115));
#1080=EDGE_LOOP('',(#116,#117,#118,#119));
#1081=EDGE_LOOP('',(#120,#121,#122,#123));
#1082=EDGE_LOOP('',(#124,#125,#126,#127));
#1083=EDGE_LOOP('',(#128,#129,#130,#131));
#1084=EDGE_LOOP('',(#132,#133,#134,#135));
#1085=EDGE_LOOP('',(#136,#137,#138,#139));
#1086=EDGE_LOOP('',(#140,#141,#142,#143));
#1087=EDGE_LOOP('',(#144,#145,#146,#147));
#1088=EDGE_LOOP('',(#148,#149,#150,#151));
#1089=EDGE_LOOP('',(#152,#153,#154,#155));
#1090=EDGE_LOOP('',(#156,#157,#158,#159));
#1091=EDGE_LOOP('',(#160));
#1092=EDGE_LOOP('',(#161));
#1093=EDGE_LOOP('',(#162,#163,#164,#165,#166,#167,#168,#169));
#1094=EDGE_LOOP('',(#170,#171,#172,#173));
#1095=EDGE_LOOP('',(#174,#175,#176,#177));
#1096=EDGE_LOOP('',(#178,#179,#180,#181));
#1097=EDGE_LOOP('',(#182));
#1098=EDGE_LOOP('',(#183,#184,#185,#186,#187,#188,#189,#190));
#1099=EDGE_LOOP('',(#191,#192,#193,#194));
#1100=EDGE_LOOP('',(#195,#196,#197,#198));
#1101=EDGE_LOOP('',(#199,#200,#201,#202));
#1102=EDGE_LOOP('',(#203,#204,#205,#206));
#1103=EDGE_LOOP('',(#207,#208,#209,#210));
#1104=EDGE_LOOP('',(#211,#212,#213,#214));
#1105=EDGE_LOOP('',(#215,#216,#217,#218));
#1106=EDGE_LOOP('',(#219,#220,#221,#222));
#1107=EDGE_LOOP('',(#223,#224,#225,#226));
#1108=EDGE_LOOP('',(#227,#228,#229,#230));
#1109=EDGE_LOOP('',(#231,#232,#233,#234));
#1110=EDGE_LOOP('',(#235,#236,#237,#238));
#1111=EDGE_LOOP('',(#239,#240,#241,#242));
#1112=EDGE_LOOP('',(#243,#244,#245,#246));
#1113=EDGE_LOOP('',(#247,#248,#249,#250));
#1114=EDGE_LOOP('',(#251));
#1115=EDGE_LOOP('',(#252));
#1116=EDGE_LOOP('',(#253));
#1117=EDGE_LOOP('',(#254));
#1118=EDGE_LOOP('',(#255,#256,#257,#258));
#1119=EDGE_LOOP('',(#259,#260,#261,#262));
#1120=EDGE_LOOP('',(#263,#264,#265,#266));
#1121=EDGE_LOOP('',(#267,#268,#269,#270));
#1122=EDGE_LOOP('',(#271));
#1123=EDGE_LOOP('',(#272));
#1124=EDGE_LOOP('',(#273,#274,#275,#276,#277,#278,#279,#280));
#1125=EDGE_LOOP('',(#281));
#1126=EDGE_LOOP('',(#282));
#1127=EDGE_LOOP('',(#283,#284,#285,#286,#287,#288,#289,#290));
#1128=EDGE_LOOP('',(#291,#292,#293,#294));
#1129=EDGE_LOOP('',(#295,#296,#297,#298));
#1130=EDGE_LOOP('',(#299,#300,#301,#302));
#1131=EDGE_LOOP('',(#303,#304,#305,#306));
#1132=EDGE_LOOP('',(#307,#308,#309,#310));
#1133=EDGE_LOOP('',(#311,#312,#313,#314));
#1134=EDGE_LOOP('',(#315,#316,#317,#318));
#1135=EDGE_LOOP('',(#319,#320,#321,#322));
#1136=EDGE_LOOP('',(#323,#324,#325,#326));
#1137=EDGE_LOOP('',(#327,#328,#329,#330));
#1138=EDGE_LOOP('',(#331,#332,#333,#334));
#1139=EDGE_LOOP('',(#335,#336,#337,#338));
#1140=EDGE_LOOP('',(#339,#340,#341,#342));
#1141=EDGE_LOOP('',(#343,#344,#345,#346));
#1142=EDGE_LOOP('',(#347,#348,#349,#350));
#1143=EDGE_LOOP('',(#351,#352,#353,#354));
#1144=EDGE_LOOP('',(#355,#356,#357,#358));
#1145=EDGE_LOOP('',(#359,#360,#361,#362));
#1146=EDGE_LOOP('',(#363,#364,#365,#366));
#1147=EDGE_LOOP('',(#367,#368,#369,#370,#371,#372,#373,#374));
#1148=EDGE_LOOP('',(#375,#376,#377,#378));
#1149=EDGE_LOOP('',(#379,#380,#381,#382));
#1150=EDGE_LOOP('',(#383,#384,#385,#386));
#1151=EDGE_LOOP('',(#387,#388,#389,#390));
#1152=EDGE_LOOP('',(#391,#392,#393,#394));
#1153=EDGE_LOOP('',(#395,#396,#397,#398));
#1154=EDGE_LOOP('',(#399,#400,#401,#402));
#1155=EDGE_LOOP('',(#403,#404,#405,#406));
#1156=EDGE_LOOP('',(#407,#408,#409,#410));
#1157=EDGE_LOOP('',(#411,#412,#413,#414));
#1158=EDGE_LOOP('',(#415,#416,#417,#418));
#1159=FACE_BOUND('',#1061,.T.);
#1160=FACE_BOUND('',#1062,.T.);
#1161=FACE_BOUND('',#1063,.T.);
#1162=FACE_BOUND('',#1064,.T.);
#1163=FACE_BOUND('',#1065,.T.);
#1164=FACE_BOUND('',#1066,.T.);
#1165=FACE_BOUND('',#1067,.T.);
#1166=FACE_BOUND('',#1068,.T.);
#1167=FACE_BOUND('',#1069,.T.);
#1168=FACE_BOUND('',#1070,.T.);
#1169=FACE_BOUND('',#1071,.T.);
#1170=FACE_BOUND('',#1072,.T.);
#1171=FACE_BOUND('',#1073,.T.);
#1172=FACE_BOUND('',#1074,.T.);
#1173=FACE_BOUND('',#1075,.T.);
#1174=FACE_BOUND('',#1076,.T.);
#1175=FACE_BOUND('',#1077,.T.);
#1176=FACE_BOUND('',#1078,.T.);
#1177=FACE_BOUND('',#1079,.T.);
#1178=FACE_BOUND('',#1080,.T.);
#1179=FACE_BOUND('',#1081,.T.);
#1180=FACE_BOUND('',#1082,.T.);
#1181=FACE_BOUND('',#1083,.T.);
#1182=FACE_BOUND('',#1084,.T.);
#1183=FACE_BOUND('',#1085,.T.);
#1184=FACE_BOUND('',#1086,.T.);
#1185=FACE_BOUND('',#1087,.T.);
#1186=FACE_BOUND('',#1088,.T.);
#1187=FACE_BOUND('',#1089,.T.);
#1188=FACE_BOUND('',#1090,.T.);
#1189=FACE_BOUND('',#1091,.T.);
#1190=FACE_BOUND('',#1092,.T.);
#1191=FACE_BOUND('',#1093,.T.);
#1192=FACE_BOUND('',#1094,.T.);
#1193=FACE_BOUND('',#1095,.T.);
#1194=FACE_BOUND('',#1096,.T.);
#1195=FACE_BOUND('',#1097,.T.);
#1196=FACE_BOUND('',#1098,.T.);
#1197=FACE_BOUND('',#1099,.T.);
#1198=FACE_BOUND('',#1100,.T.);
#1199=FACE_BOUND('',#1101,.T.);
#1200=FACE_BOUND('',#1102,.T.);
#1201=FACE_BOUND('',#1103,.T.);
#1202=FACE_BOUND('',#1104,.T.);
#1203=FACE_BOUND('',#1105,.T.);
#1204=FACE_BOUND('',#1106,.T.);
#1205=FACE_BOUND('',#1107,.T.);
#1206=FACE_BOUND('',#1108,.T.);
#1207=FACE_BOUND('',#1109,.T.);
#1208=FACE_BOUND('',#1110,.T.);
#1209=FACE_BOUND('',#1111,.T.);
#1210=FACE_BOUND('',#1112,.T.);
#1211=FACE_BOUND('',#1113,.T.);
#1212=FACE_BOUND('',#1114,.T.);
#1213=FACE_BOUND('',#1115,.T.);
#1214=FACE_BOUND('',#1116,.T.);
#1215=FACE_BOUND('',#1117,.T.);
#1216=FACE_BOUND('',#1118,.T.);
#1217=FACE_BOUND('',#1119,.T.);
#1218=FACE_BOUND('',#1120,.T.);
#1219=FACE_BOUND('',#1121,.T.);
#1220=FACE_BOUND('',#1122,.T.);
#1221=FACE_BOUND('',#1123,.T.);
#1222=FACE_BOUND('',#1124,.T.);
#1223=FACE_BOUND('',#1125,.T.);
#1224=FACE_BOUND('',#1126,.T.);
#1225=FACE_BOUND('',#1127,.T.);
#1226=FACE_BOUND('',#1128,.T.);
#1227=FACE_BOUND('',#1129,.T.);
#1228=FACE_BOUND('',#1130,.T.);
#1229=FACE_BOUND('',#1131,.T.);
#1230=FACE_BOUND('',#1132,.T.);
#1231=FACE_BOUND('',#1133,.T.);
#1232=FACE_BOUND('',#1134,.T.);
#1233=FACE_BOUND('',#1135,.T.);
#1234=FACE_BOUND('',#1136,.T.);
#1235=FACE_BOUND('',#1137,.T.);
#1236=FACE_BOUND('',#1138,.T.);
#1237=FACE_BOUND('',#1139,.T.);
#1238=FACE_BOUND('',#1140,.T.);
#1239=FACE_BOUND('',#1141,.T.);
#1240=FACE_BOUND('',#1142,.T.);
#1241=FACE_BOUND('',#1143,.T.);
#1242=FACE_BOUND('',#1144,.T.);
#1243=FACE_BOUND('',#1145,.T.);
#1244=FACE_BOUND('',#1146,.T.);
#1245=FACE_BOUND('',#1147,.T.);
#1246=FACE_BOUND('',#1148,.T.);
#1247=FACE_BOUND('',#1149,.T.);
#1248=FACE_BOUND('',#1150,.T.);
#1249=FACE_BOUND('',#1151,.T.);
#1250=FACE_BOUND('',#1152,.T.);
#1251=FACE_BOUND('',#1153,.T.);
#1252=FACE_BOUND('',#1154,.T.);
#1253=FACE_BOUND('',#1155,.T.);
#1254=FACE_BOUND('',#1156,.T.);
#1255=FACE_BOUND('',#1157,.T.);
#1256=FACE_BOUND('',#1158,.T.);
#1257=PLANE('',#1402);
#1258=PLANE('',#1406);
#1259=PLANE('',#1407);
#1260=PLANE('',#1408);
#1261=PLANE('',#1409);
#1262=PLANE('',#1410);
#1263=PLANE('',#1411);
#1264=PLANE('',#1412);
#1265=PLANE('',#1413);
#1266=PLANE('',#1414);
#1267=PLANE('',#1415);
#1268=PLANE('',#1416);
#1269=PLANE('',#1417);
#1270=PLANE('',#1418);
#1271=PLANE('',#1419);
#1272=PLANE('',#1420);
#1273=PLANE('',#1421);
#1274=PLANE('',#1422);
#1275=PLANE('',#1423);
#1276=PLANE('',#1424);
#1277=PLANE('',#1425);
#1278=PLANE('',#1426);
#1279=PLANE('',#1434);
#1280=PLANE('',#1439);
#1281=PLANE('',#1440);
#1282=PLANE('',#1441);
#1283=PLANE('',#1442);
#1284=PLANE('',#1443);
#1285=PLANE('',#1444);
#1286=PLANE('',#1445);
#1287=PLANE('',#1446);
#1288=PLANE('',#1447);
#1289=PLANE('',#1448);
#1290=PLANE('',#1449);
#1291=PLANE('',#1450);
#1292=PLANE('',#1451);
#1293=PLANE('',#1454);
#1294=PLANE('',#1455);
#1295=PLANE('',#1456);
#1296=PLANE('',#1457);
#1297=PLANE('',#1460);
#1298=PLANE('',#1468);
#1299=PLANE('',#1471);
#1300=PLANE('',#1472);
#1301=PLANE('',#1475);
#1302=PLANE('',#1476);
#1303=PLANE('',#1477);
#1304=PLANE('',#1478);
#1305=PLANE('',#1479);
#1306=PLANE('',#1480);
#1307=PLANE('',#1481);
#1308=PLANE('',#1482);
#1309=PLANE('',#1483);
#1310=PLANE('',#1484);
#1311=PLANE('',#1485);
#1312=PLANE('',#1486);
#1313=PLANE('',#1491);
#1314=PLANE('',#1492);
#1315=PLANE('',#1493);
#1316=PLANE('',#1494);
#1317=PLANE('',#1495);
#1318=ADVANCED_FACE('',(#1159,#1160,#1161,#1162,#1163,#1164,#1165),#1257,
 .T.);
#1319=ADVANCED_FACE('',(#1166),#1258,.T.);
#1320=ADVANCED_FACE('',(#1167),#1259,.F.);
#1321=ADVANCED_FACE('',(#1168),#1260,.F.);
#1322=ADVANCED_FACE('',(#1169),#1261,.T.);
#1323=ADVANCED_FACE('',(#1170),#1262,.T.);
#1324=ADVANCED_FACE('',(#1171),#1263,.F.);
#1325=ADVANCED_FACE('',(#1172),#1264,.F.);
#1326=ADVANCED_FACE('',(#1173),#1265,.T.);
#1327=ADVANCED_FACE('',(#1174),#1266,.T.);
#1328=ADVANCED_FACE('',(#1175),#1267,.F.);
#1329=ADVANCED_FACE('',(#1176),#1268,.F.);
#1330=ADVANCED_FACE('',(#1177),#1269,.T.);
#1331=ADVANCED_FACE('',(#1178),#1270,.T.);
#1332=ADVANCED_FACE('',(#1179),#1271,.F.);
#1333=ADVANCED_FACE('',(#1180),#1272,.F.);
#1334=ADVANCED_FACE('',(#1181),#1273,.T.);
#1335=ADVANCED_FACE('',(#1182),#1274,.T.);
#1336=ADVANCED_FACE('',(#1183),#1275,.F.);
#1337=ADVANCED_FACE('',(#1184),#1276,.F.);
#1338=ADVANCED_FACE('',(#1185),#1277,.T.);
#1339=ADVANCED_FACE('',(#1186,#1187,#1188,#1189,#1190,#1191,#1192,#1193,
#1194,#1195),#1278,.F.);
#1340=ADVANCED_FACE('',(#1196,#1197),#1279,.T.);
#1341=ADVANCED_FACE('',(#1198),#1280,.T.);
#1342=ADVANCED_FACE('',(#1199),#1281,.F.);
#1343=ADVANCED_FACE('',(#1200),#1282,.F.);
#1344=ADVANCED_FACE('',(#1201),#1283,.T.);
#1345=ADVANCED_FACE('',(#1202),#1284,.T.);
#1346=ADVANCED_FACE('',(#1203),#1285,.F.);
#1347=ADVANCED_FACE('',(#1204),#1286,.F.);
#1348=ADVANCED_FACE('',(#1205),#1287,.T.);
#1349=ADVANCED_FACE('',(#1206),#1288,.F.);
#1350=ADVANCED_FACE('',(#1207),#1289,.F.);
#1351=ADVANCED_FACE('',(#1208),#1290,.T.);
#1352=ADVANCED_FACE('',(#1209),#1291,.T.);
#1353=ADVANCED_FACE('',(#1210,#1211),#1292,.T.);
#1354=ADVANCED_FACE('',(#1212,#1213),#12,.F.);
#1355=ADVANCED_FACE('',(#1214,#1215),#13,.F.);
#1356=ADVANCED_FACE('',(#1216),#1293,.T.);
#1357=ADVANCED_FACE('',(#1217),#1294,.F.);
#1358=ADVANCED_FACE('',(#1218),#1295,.F.);
#1359=ADVANCED_FACE('',(#1219),#1296,.T.);
#1360=ADVANCED_FACE('',(#1220,#1221),#14,.T.);
#1361=ADVANCED_FACE('',(#1222,#1223),#1297,.F.);
#1362=ADVANCED_FACE('',(#1224,#1225),#15,.F.);
#1363=ADVANCED_FACE('',(#1226),#1298,.T.);
#1364=ADVANCED_FACE('',(#1227),#16,.F.);
#1365=ADVANCED_FACE('',(#1228),#1299,.T.);
#1366=ADVANCED_FACE('',(#1229),#1300,.F.);
#1367=ADVANCED_FACE('',(#1230),#17,.F.);
#1368=ADVANCED_FACE('',(#1231),#1301,.F.);
#1369=ADVANCED_FACE('',(#1232),#1302,.T.);
#1370=ADVANCED_FACE('',(#1233),#1303,.T.);
#1371=ADVANCED_FACE('',(#1234),#1304,.T.);
#1372=ADVANCED_FACE('',(#1235),#1305,.F.);
#1373=ADVANCED_FACE('',(#1236),#1306,.F.);
#1374=ADVANCED_FACE('',(#1237),#1307,.F.);
#1375=ADVANCED_FACE('',(#1238),#1308,.T.);
#1376=ADVANCED_FACE('',(#1239),#1309,.T.);
#1377=ADVANCED_FACE('',(#1240),#1310,.F.);
#1378=ADVANCED_FACE('',(#1241),#1311,.F.);
#1379=ADVANCED_FACE('',(#1242,#1243,#1244,#1245,#1246,#1247),#1312,.T.);
#1380=ADVANCED_FACE('',(#1248),#18,.T.);
#1381=ADVANCED_FACE('',(#1249),#19,.T.);
#1382=ADVANCED_FACE('',(#1250),#20,.T.);
#1383=ADVANCED_FACE('',(#1251),#21,.T.);
#1384=ADVANCED_FACE('',(#1252),#1313,.F.);
#1385=ADVANCED_FACE('',(#1253),#1314,.T.);
#1386=ADVANCED_FACE('',(#1254),#1315,.T.);
#1387=ADVANCED_FACE('',(#1255),#1316,.F.);
#1388=ADVANCED_FACE('',(#1256),#1317,.T.);
#1389=CLOSED_SHELL('',(#1318,#1319,#1320,#1321,#1322,#1323,#1324,#1325,
#1326,#1327,#1328,#1329,#1330,#1331,#1332,#1333,#1334,#1335,#1336,#1337,
#1338,#1339,#1340,#1341,#1342,#1343,#1344,#1345,#1346,#1347,#1348,#1349,
#1350,#1351,#1352,#1353,#1354,#1355,#1356,#1357,#1358,#1359,#1360,#1361,
#1362,#1363,#1364,#1365,#1366,#1367,#1368,#1369,#1370,#1371,#1372,#1373,
#1374,#1375,#1376,#1377,#1378,#1379,#1380,#1381,#1382,#1383,#1384,#1385,
#1386,#1387,#1388));
#1390=STYLED_ITEM('',(#1391),#1398);
#1391=PRESENTATION_STYLE_ASSIGNMENT((#1392));
#1392=SURFACE_STYLE_USAGE(.BOTH.,#1393);
#1393=SURFACE_SIDE_STYLE('',(#1394));
#1394=SURFACE_STYLE_FILL_AREA(#1395);
#1395=FILL_AREA_STYLE('',(#1396));
#1396=FILL_AREA_STYLE_COLOUR('',#1397);
#1397=COLOUR_RGB('',0.615686274509804,0.811764705882353,0.929411764705882);
#1398=MANIFOLD_SOLID_BREP('Part 1',#1389);
#1399=SHAPE_DEFINITION_REPRESENTATION(#2242,#1400);
#1400=SHAPE_REPRESENTATION('Part 1',(#1401),#2237);
#1401=AXIS2_PLACEMENT_3D('',#1850,#1496,#1497);
#1402=AXIS2_PLACEMENT_3D('',#1851,#1498,#1499);
#1403=AXIS2_PLACEMENT_3D('',#1868,#1508,#1509);
#1404=AXIS2_PLACEMENT_3D('',#1870,#1510,#1511);
#1405=AXIS2_PLACEMENT_3D('',#1880,#1516,#1517);
#1406=AXIS2_PLACEMENT_3D('',#1898,#1526,#1527);
#1407=AXIS2_PLACEMENT_3D('',#1907,#1532,#1533);
#1408=AXIS2_PLACEMENT_3D('',#1913,#1537,#1538);
#1409=AXIS2_PLACEMENT_3D('',#1919,#1542,#1543);
#1410=AXIS2_PLACEMENT_3D('',#1922,#1546,#1547);
#1411=AXIS2_PLACEMENT_3D('',#1931,#1552,#1553);
#1412=AXIS2_PLACEMENT_3D('',#1937,#1557,#1558);
#1413=AXIS2_PLACEMENT_3D('',#1943,#1562,#1563);
#1414=AXIS2_PLACEMENT_3D('',#1946,#1566,#1567);
#1415=AXIS2_PLACEMENT_3D('',#1955,#1572,#1573);
#1416=AXIS2_PLACEMENT_3D('',#1961,#1577,#1578);
#1417=AXIS2_PLACEMENT_3D('',#1967,#1582,#1583);
#1418=AXIS2_PLACEMENT_3D('',#1970,#1586,#1587);
#1419=AXIS2_PLACEMENT_3D('',#1979,#1592,#1593);
#1420=AXIS2_PLACEMENT_3D('',#1985,#1597,#1598);
#1421=AXIS2_PLACEMENT_3D('',#1991,#1602,#1603);
#1422=AXIS2_PLACEMENT_3D('',#1994,#1606,#1607);
#1423=AXIS2_PLACEMENT_3D('',#2003,#1612,#1613);
#1424=AXIS2_PLACEMENT_3D('',#2009,#1617,#1618);
#1425=AXIS2_PLACEMENT_3D('',#2015,#1622,#1623);
#1426=AXIS2_PLACEMENT_3D('',#2018,#1626,#1627);
#1427=AXIS2_PLACEMENT_3D('',#2027,#1632,#1633);
#1428=AXIS2_PLACEMENT_3D('',#2029,#1634,#1635);
#1429=AXIS2_PLACEMENT_3D('',#2034,#1637,#1638);
#1430=AXIS2_PLACEMENT_3D('',#2038,#1640,#1641);
#1431=AXIS2_PLACEMENT_3D('',#2042,#1643,#1644);
#1432=AXIS2_PLACEMENT_3D('',#2046,#1646,#1647);
#1433=AXIS2_PLACEMENT_3D('',#2047,#1648,#1649);
#1434=AXIS2_PLACEMENT_3D('',#2049,#1650,#1651);
#1435=AXIS2_PLACEMENT_3D('',#2053,#1653,#1654);
#1436=AXIS2_PLACEMENT_3D('',#2057,#1656,#1657);
#1437=AXIS2_PLACEMENT_3D('',#2061,#1659,#1660);
#1438=AXIS2_PLACEMENT_3D('',#2065,#1662,#1663);
#1439=AXIS2_PLACEMENT_3D('',#2074,#1668,#1669);
#1440=AXIS2_PLACEMENT_3D('',#2077,#1672,#1673);
#1441=AXIS2_PLACEMENT_3D('',#2080,#1676,#1677);
#1442=AXIS2_PLACEMENT_3D('',#2083,#1680,#1681);
#1443=AXIS2_PLACEMENT_3D('',#2086,#1684,#1685);
#1444=AXIS2_PLACEMENT_3D('',#2092,#1689,#1690);
#1445=AXIS2_PLACEMENT_3D('',#2096,#1693,#1694);
#1446=AXIS2_PLACEMENT_3D('',#2100,#1697,#1698);
#1447=AXIS2_PLACEMENT_3D('',#2106,#1702,#1703);
#1448=AXIS2_PLACEMENT_3D('',#2110,#1706,#1707);
#1449=AXIS2_PLACEMENT_3D('',#2114,#1710,#1711);
#1450=AXIS2_PLACEMENT_3D('',#2116,#1713,#1714);
#1451=AXIS2_PLACEMENT_3D('',#2118,#1716,#1717);
#1452=AXIS2_PLACEMENT_3D('',#2119,#1718,#1719);
#1453=AXIS2_PLACEMENT_3D('',#2120,#1720,#1721);
#1454=AXIS2_PLACEMENT_3D('',#2121,#1722,#1723);
#1455=AXIS2_PLACEMENT_3D('',#2124,#1726,#1727);
#1456=AXIS2_PLACEMENT_3D('',#2126,#1729,#1730);
#1457=AXIS2_PLACEMENT_3D('',#2128,#1732,#1733);
#1458=AXIS2_PLACEMENT_3D('',#2129,#1734,#1735);
#1459=AXIS2_PLACEMENT_3D('',#2130,#1736,#1737);
#1460=AXIS2_PLACEMENT_3D('',#2132,#1738,#1739);
#1461=AXIS2_PLACEMENT_3D('',#2136,#1741,#1742);
#1462=AXIS2_PLACEMENT_3D('',#2140,#1744,#1745);
#1463=AXIS2_PLACEMENT_3D('',#2144,#1747,#1748);
#1464=AXIS2_PLACEMENT_3D('',#2148,#1750,#1751);
#1465=AXIS2_PLACEMENT_3D('',#2149,#1752,#1753);
#1466=AXIS2_PLACEMENT_3D('',#2152,#1755,#1756);
#1467=AXIS2_PLACEMENT_3D('',#2157,#1759,#1760);
#1468=AXIS2_PLACEMENT_3D('',#2160,#1762,#1763);
#1469=AXIS2_PLACEMENT_3D('',#2164,#1766,#1767);
#1470=AXIS2_PLACEMENT_3D('',#2165,#1768,#1769);
#1471=AXIS2_PLACEMENT_3D('',#2168,#1771,#1772);
#1472=AXIS2_PLACEMENT_3D('',#2170,#1774,#1775);
#1473=AXIS2_PLACEMENT_3D('',#2174,#1778,#1779);
#1474=AXIS2_PLACEMENT_3D('',#2175,#1780,#1781);
#1475=AXIS2_PLACEMENT_3D('',#2178,#1783,#1784);
#1476=AXIS2_PLACEMENT_3D('',#2180,#1786,#1787);
#1477=AXIS2_PLACEMENT_3D('',#2181,#1788,#1789);
#1478=AXIS2_PLACEMENT_3D('',#2182,#1790,#1791);
#1479=AXIS2_PLACEMENT_3D('',#2188,#1795,#1796);
#1480=AXIS2_PLACEMENT_3D('',#2192,#1799,#1800);
#1481=AXIS2_PLACEMENT_3D('',#2196,#1803,#1804);
#1482=AXIS2_PLACEMENT_3D('',#2200,#1807,#1808);
#1483=AXIS2_PLACEMENT_3D('',#2204,#1811,#1812);
#1484=AXIS2_PLACEMENT_3D('',#2208,#1815,#1816);
#1485=AXIS2_PLACEMENT_3D('',#2212,#1819,#1820);
#1486=AXIS2_PLACEMENT_3D('',#2214,#1822,#1823);
#1487=AXIS2_PLACEMENT_3D('',#2215,#1824,#1825);
#1488=AXIS2_PLACEMENT_3D('',#2216,#1826,#1827);
#1489=AXIS2_PLACEMENT_3D('',#2217,#1828,#1829);
#1490=AXIS2_PLACEMENT_3D('',#2218,#1830,#1831);
#1491=AXIS2_PLACEMENT_3D('',#2219,#1832,#1833);
#1492=AXIS2_PLACEMENT_3D('',#2225,#1837,#1838);
#1493=AXIS2_PLACEMENT_3D('',#2229,#1841,#1842);
#1494=AXIS2_PLACEMENT_3D('',#2233,#1845,#1846);
#1495=AXIS2_PLACEMENT_3D('',#2235,#1848,#1849);
#1496=DIRECTION('',(0.,0.,1.));
#1497=DIRECTION('',(1.,0.,0.));
#1498=DIRECTION('',(0.,0.,1.));
#1499=DIRECTION('',(1.,0.,0.));
#1500=DIRECTION('',(0.,1.,0.));
#1501=DIRECTION('',(1.,0.,0.));
#1502=DIRECTION('',(0.,1.,0.));
#1503=DIRECTION('',(1.,0.,0.));
#1504=DIRECTION('',(0.,1.,0.));
#1505=DIRECTION('',(-1.,1.10141173077892E-16,0.));
#1506=DIRECTION('',(0.,1.,0.));
#1507=DIRECTION('',(-1.,2.20282346155785E-16,0.));
#1508=DIRECTION('',(0.,0.,-1.));
#1509=DIRECTION('',(-1.,0.,0.));
#1510=DIRECTION('',(0.,0.,-1.));
#1511=DIRECTION('',(-1.,0.,0.));
#1512=DIRECTION('',(1.,0.,0.));
#1513=DIRECTION('',(0.,-1.,0.));
#1514=DIRECTION('',(1.,0.,0.));
#1515=DIRECTION('',(0.,-1.,0.));
#1516=DIRECTION('',(0.,0.,1.));
#1517=DIRECTION('',(1.,0.,0.));
#1518=DIRECTION('',(-1.,0.,0.));
#1519=DIRECTION('',(0.,1.,0.));
#1520=DIRECTION('',(-1.,0.,0.));
#1521=DIRECTION('',(0.,1.,0.));
#1522=DIRECTION('',(-1.,0.,0.));
#1523=DIRECTION('',(0.,1.,0.));
#1524=DIRECTION('',(-1.,0.,0.));
#1525=DIRECTION('',(0.,1.,0.));
#1526=DIRECTION('',(-1.,0.,0.));
#1527=DIRECTION('',(0.,0.,1.));
#1528=DIRECTION('',(0.,0.,-1.));
#1529=DIRECTION('',(0.,-1.,0.));
#1530=DIRECTION('',(0.,0.,-1.));
#1531=DIRECTION('',(0.,1.,0.));
#1532=DIRECTION('',(0.,-1.,0.));
#1533=DIRECTION('',(0.,0.,-1.));
#1534=DIRECTION('',(1.,0.,0.));
#1535=DIRECTION('',(-1.,0.,0.));
#1536=DIRECTION('',(0.,0.,-1.));
#1537=DIRECTION('',(-1.,0.,0.));
#1538=DIRECTION('',(0.,0.,1.));
#1539=DIRECTION('',(0.,-1.,0.));
#1540=DIRECTION('',(0.,1.,0.));
#1541=DIRECTION('',(0.,0.,-1.));
#1542=DIRECTION('',(0.,-1.,0.));
#1543=DIRECTION('',(0.,0.,-1.));
#1544=DIRECTION('',(1.,0.,0.));
#1545=DIRECTION('',(-1.,0.,0.));
#1546=DIRECTION('',(-1.,0.,0.));
#1547=DIRECTION('',(0.,0.,1.));
#1548=DIRECTION('',(0.,0.,-1.));
#1549=DIRECTION('',(0.,-1.,0.));
#1550=DIRECTION('',(0.,0.,-1.));
#1551=DIRECTION('',(0.,1.,0.));
#1552=DIRECTION('',(-1.1616451848059E-16,-1.,0.));
#1553=DIRECTION('',(1.,-1.1616451848059E-16,0.));
#1554=DIRECTION('',(1.,-1.1616451848059E-16,0.));
#1555=DIRECTION('',(-1.,1.1616451848059E-16,0.));
#1556=DIRECTION('',(0.,0.,-1.));
#1557=DIRECTION('',(-1.,0.,0.));
#1558=DIRECTION('',(0.,0.,1.));
#1559=DIRECTION('',(0.,-1.,0.));
#1560=DIRECTION('',(0.,1.,0.));
#1561=DIRECTION('',(0.,0.,-1.));
#1562=DIRECTION('',(0.,-1.,0.));
#1563=DIRECTION('',(0.,0.,-1.));
#1564=DIRECTION('',(1.,0.,0.));
#1565=DIRECTION('',(-1.,0.,0.));
#1566=DIRECTION('',(-1.,-2.47817639425258E-16,0.));
#1567=DIRECTION('',(2.47817639425259E-16,-1.,0.));
#1568=DIRECTION('',(0.,0.,-1.));
#1569=DIRECTION('',(2.47817639425259E-16,-1.,0.));
#1570=DIRECTION('',(0.,0.,-1.));
#1571=DIRECTION('',(-2.47817639425258E-16,1.,0.));
#1572=DIRECTION('',(1.23908819712629E-16,-1.,0.));
#1573=DIRECTION('',(1.,1.23908819712629E-16,0.));
#1574=DIRECTION('',(1.,1.23908819712629E-16,0.));
#1575=DIRECTION('',(-1.,-1.23908819712629E-16,0.));
#1576=DIRECTION('',(0.,0.,-1.));
#1577=DIRECTION('',(-1.,0.,0.));
#1578=DIRECTION('',(0.,0.,1.));
#1579=DIRECTION('',(0.,-1.,0.));
#1580=DIRECTION('',(0.,1.,0.));
#1581=DIRECTION('',(0.,0.,-1.));
#1582=DIRECTION('',(0.,-1.,0.));
#1583=DIRECTION('',(0.,0.,-1.));
#1584=DIRECTION('',(1.,0.,0.));
#1585=DIRECTION('',(-1.,0.,0.));
#1586=DIRECTION('',(-1.,0.,0.));
#1587=DIRECTION('',(0.,0.,1.));
#1588=DIRECTION('',(0.,0.,-1.));
#1589=DIRECTION('',(0.,-1.,0.));
#1590=DIRECTION('',(0.,0.,-1.));
#1591=DIRECTION('',(0.,1.,0.));
#1592=DIRECTION('',(0.,-1.,0.));
#1593=DIRECTION('',(0.,0.,-1.));
#1594=DIRECTION('',(1.,0.,0.));
#1595=DIRECTION('',(-1.,0.,0.));
#1596=DIRECTION('',(0.,0.,-1.));
#1597=DIRECTION('',(-1.,0.,0.));
#1598=DIRECTION('',(0.,0.,1.));
#1599=DIRECTION('',(0.,-1.,0.));
#1600=DIRECTION('',(0.,1.,0.));
#1601=DIRECTION('',(0.,0.,-1.));
#1602=DIRECTION('',(-1.23908819712629E-16,-1.,0.));
#1603=DIRECTION('',(1.,-1.23908819712629E-16,0.));
#1604=DIRECTION('',(1.,-1.23908819712629E-16,0.));
#1605=DIRECTION('',(-1.,1.23908819712629E-16,0.));
#1606=DIRECTION('',(-1.,6.19544098563145E-17,0.));
#1607=DIRECTION('',(-6.19544098563146E-17,-1.,0.));
#1608=DIRECTION('',(0.,0.,-1.));
#1609=DIRECTION('',(-6.19544098563146E-17,-1.,0.));
#1610=DIRECTION('',(0.,0.,-1.));
#1611=DIRECTION('',(6.19544098563145E-17,1.,0.));
#1612=DIRECTION('',(0.,-1.,0.));
#1613=DIRECTION('',(0.,0.,-1.));
#1614=DIRECTION('',(1.,0.,0.));
#1615=DIRECTION('',(-1.,0.,0.));
#1616=DIRECTION('',(0.,0.,-1.));
#1617=DIRECTION('',(-1.,6.19544098563145E-17,0.));
#1618=DIRECTION('',(-6.19544098563146E-17,-1.,0.));
#1619=DIRECTION('',(-6.19544098563146E-17,-1.,0.));
#1620=DIRECTION('',(6.19544098563145E-17,1.,0.));
#1621=DIRECTION('',(0.,0.,-1.));
#1622=DIRECTION('',(-1.23908819712629E-16,-1.,0.));
#1623=DIRECTION('',(1.,-1.23908819712629E-16,0.));
#1624=DIRECTION('',(1.,-1.23908819712629E-16,0.));
#1625=DIRECTION('',(-1.,1.23908819712629E-16,0.));
#1626=DIRECTION('',(0.,0.,1.));
#1627=DIRECTION('',(1.,0.,0.));
#1628=DIRECTION('',(0.,1.,0.));
#1629=DIRECTION('',(-1.,2.20282346155785E-16,0.));
#1630=DIRECTION('',(0.,1.,0.));
#1631=DIRECTION('',(-1.,1.10141173077892E-16,0.));
#1632=DIRECTION('',(0.,0.,-1.));
#1633=DIRECTION('',(-1.,0.,0.));
#1634=DIRECTION('',(0.,0.,-1.));
#1635=DIRECTION('',(-1.,0.,0.));
#1636=DIRECTION('',(-1.82123199577617E-16,-1.,0.));
#1637=DIRECTION('',(0.,0.,1.));
#1638=DIRECTION('',(1.,0.,0.));
#1639=DIRECTION('',(1.,0.,0.));
#1640=DIRECTION('',(0.,0.,1.));
#1641=DIRECTION('',(1.,0.,0.));
#1642=DIRECTION('',(-1.82123199577617E-16,-1.,0.));
#1643=DIRECTION('',(0.,0.,1.));
#1644=DIRECTION('',(1.,0.,0.));
#1645=DIRECTION('',(1.,0.,0.));
#1646=DIRECTION('',(0.,0.,1.));
#1647=DIRECTION('',(1.,0.,0.));
#1648=DIRECTION('',(0.,0.,-1.));
#1649=DIRECTION('',(-1.,0.,0.));
#1650=DIRECTION('',(0.,0.,1.));
#1651=DIRECTION('',(1.,0.,0.));
#1652=DIRECTION('',(1.,0.,0.));
#1653=DIRECTION('',(0.,0.,1.));
#1654=DIRECTION('',(1.,0.,0.));
#1655=DIRECTION('',(-1.82123199577617E-16,-1.,0.));
#1656=DIRECTION('',(0.,0.,1.));
#1657=DIRECTION('',(1.,0.,0.));
#1658=DIRECTION('',(1.,0.,0.));
#1659=DIRECTION('',(0.,0.,1.));
#1660=DIRECTION('',(1.,0.,0.));
#1661=DIRECTION('',(-1.82123199577617E-16,-1.,0.));
#1662=DIRECTION('',(0.,0.,1.));
#1663=DIRECTION('',(1.,0.,0.));
#1664=DIRECTION('',(0.,-1.,0.));
#1665=DIRECTION('',(1.,0.,0.));
#1666=DIRECTION('',(0.,-1.,0.));
#1667=DIRECTION('',(1.,0.,0.));
#1668=DIRECTION('',(0.,1.,0.));
#1669=DIRECTION('',(0.,0.,1.));
#1670=DIRECTION('',(0.,0.,-1.));
#1671=DIRECTION('',(0.,0.,-1.));
#1672=DIRECTION('',(1.,-1.82123199577617E-16,0.));
#1673=DIRECTION('',(1.82123199577617E-16,1.,0.));
#1674=DIRECTION('',(0.,0.,-1.));
#1675=DIRECTION('',(0.,0.,-1.));
#1676=DIRECTION('',(0.,1.,0.));
#1677=DIRECTION('',(0.,0.,1.));
#1678=DIRECTION('',(0.,0.,-1.));
#1679=DIRECTION('',(0.,0.,-1.));
#1680=DIRECTION('',(1.,-1.82123199577617E-16,0.));
#1681=DIRECTION('',(1.82123199577617E-16,1.,0.));
#1682=DIRECTION('',(0.,0.,-1.));
#1683=DIRECTION('',(0.,0.,-1.));
#1684=DIRECTION('',(0.,1.,0.));
#1685=DIRECTION('',(0.,0.,1.));
#1686=DIRECTION('',(0.,0.,-1.));
#1687=DIRECTION('',(1.,0.,0.));
#1688=DIRECTION('',(0.,0.,-1.));
#1689=DIRECTION('',(1.,0.,0.));
#1690=DIRECTION('',(0.,0.,-1.));
#1691=DIRECTION('',(0.,0.,-1.));
#1692=DIRECTION('',(0.,-1.,0.));
#1693=DIRECTION('',(0.,1.,0.));
#1694=DIRECTION('',(0.,0.,1.));
#1695=DIRECTION('',(0.,0.,-1.));
#1696=DIRECTION('',(1.,0.,0.));
#1697=DIRECTION('',(1.,0.,0.));
#1698=DIRECTION('',(0.,0.,-1.));
#1699=DIRECTION('',(0.,0.,-1.));
#1700=DIRECTION('',(0.,-1.,0.));
#1701=DIRECTION('',(0.,0.,-1.));
#1702=DIRECTION('',(0.,1.,0.));
#1703=DIRECTION('',(0.,0.,1.));
#1704=DIRECTION('',(0.,0.,-1.));
#1705=DIRECTION('',(1.,0.,0.));
#1706=DIRECTION('',(1.,0.,0.));
#1707=DIRECTION('',(0.,0.,-1.));
#1708=DIRECTION('',(0.,0.,-1.));
#1709=DIRECTION('',(0.,-1.,0.));
#1710=DIRECTION('',(0.,1.,0.));
#1711=DIRECTION('',(0.,0.,1.));
#1712=DIRECTION('',(1.,0.,0.));
#1713=DIRECTION('',(1.,0.,0.));
#1714=DIRECTION('',(0.,0.,-1.));
#1715=DIRECTION('',(0.,-1.,0.));
#1716=DIRECTION('',(0.,0.,1.));
#1717=DIRECTION('',(1.,0.,0.));
#1718=DIRECTION('',(0.,0.,-1.));
#1719=DIRECTION('',(-1.,0.,0.));
#1720=DIRECTION('',(0.,0.,-1.));
#1721=DIRECTION('',(-1.,0.,0.));
#1722=DIRECTION('',(-1.,0.,0.));
#1723=DIRECTION('',(0.,0.,1.));
#1724=DIRECTION('',(0.,0.,-1.));
#1725=DIRECTION('',(0.,0.,-1.));
#1726=DIRECTION('',(-1.10141173077892E-16,-1.,0.));
#1727=DIRECTION('',(1.,-1.10141173077892E-16,0.));
#1728=DIRECTION('',(0.,0.,-1.));
#1729=DIRECTION('',(-1.,0.,0.));
#1730=DIRECTION('',(0.,0.,1.));
#1731=DIRECTION('',(0.,0.,-1.));
#1732=DIRECTION('',(-2.20282346155785E-16,-1.,0.));
#1733=DIRECTION('',(1.,-2.20282346155785E-16,0.));
#1734=DIRECTION('',(0.,0.,-1.));
#1735=DIRECTION('',(-1.,0.,0.));
#1736=DIRECTION('',(0.,0.,-1.));
#1737=DIRECTION('',(-1.,0.,0.));
#1738=DIRECTION('',(0.,0.,-1.));
#1739=DIRECTION('',(1.,0.,0.));
#1740=DIRECTION('',(-0.5,0.866025403784439,0.));
#1741=DIRECTION('',(0.,0.,-1.));
#1742=DIRECTION('',(-1.,0.,0.));
#1743=DIRECTION('',(0.5,0.866025403784439,0.));
#1744=DIRECTION('',(0.,0.,-1.));
#1745=DIRECTION('',(-1.,0.,0.));
#1746=DIRECTION('',(-0.5,0.866025403784438,0.));
#1747=DIRECTION('',(0.,0.,-1.));
#1748=DIRECTION('',(-1.,0.,0.));
#1749=DIRECTION('',(0.5,0.866025403784438,0.));
#1750=DIRECTION('',(0.,0.,-1.));
#1751=DIRECTION('',(-1.,0.,0.));
#1752=DIRECTION('',(0.,0.,-1.));
#1753=DIRECTION('',(-1.,0.,0.));
#1754=DIRECTION('',(0.,0.,-1.));
#1755=DIRECTION('',(0.,0.,-1.));
#1756=DIRECTION('',(-1.,0.,0.));
#1757=DIRECTION('',(0.,0.,-1.));
#1758=DIRECTION('',(0.,0.,-1.));
#1759=DIRECTION('',(0.,0.,-1.));
#1760=DIRECTION('',(-1.,0.,0.));
#1761=DIRECTION('',(0.,0.,-1.));
#1762=DIRECTION('',(-0.866025403784438,0.5,0.));
#1763=DIRECTION('',(-0.5,-0.866025403784439,0.));
#1764=DIRECTION('',(0.5,0.866025403784439,0.));
#1765=DIRECTION('',(0.,0.,-1.));
#1766=DIRECTION('',(0.,0.,-1.));
#1767=DIRECTION('',(-1.,0.,0.));
#1768=DIRECTION('',(0.,0.,-1.));
#1769=DIRECTION('',(-1.,0.,0.));
#1770=DIRECTION('',(0.,0.,-1.));
#1771=DIRECTION('',(-0.866025403784438,-0.5,0.));
#1772=DIRECTION('',(0.5,-0.866025403784438,0.));
#1773=DIRECTION('',(-0.5,0.866025403784438,0.));
#1774=DIRECTION('',(-0.866025403784438,0.5,0.));
#1775=DIRECTION('',(-0.5,-0.866025403784438,0.));
#1776=DIRECTION('',(0.5,0.866025403784439,0.));
#1777=DIRECTION('',(0.,0.,-1.));
#1778=DIRECTION('',(0.,0.,-1.));
#1779=DIRECTION('',(-1.,0.,0.));
#1780=DIRECTION('',(0.,0.,-1.));
#1781=DIRECTION('',(-1.,0.,0.));
#1782=DIRECTION('',(0.,0.,-1.));
#1783=DIRECTION('',(-0.866025403784439,-0.5,0.));
#1784=DIRECTION('',(0.5,-0.866025403784439,0.));
#1785=DIRECTION('',(-0.5,0.866025403784439,0.));
#1786=DIRECTION('',(0.,0.,-1.));
#1787=DIRECTION('',(1.,0.,0.));
#1788=DIRECTION('',(0.,0.,-1.));
#1789=DIRECTION('',(1.,0.,0.));
#1790=DIRECTION('',(1.,0.,0.));
#1791=DIRECTION('',(0.,0.,-1.));
#1792=DIRECTION('',(0.,0.,1.));
#1793=DIRECTION('',(0.,1.,0.));
#1794=DIRECTION('',(0.,0.,1.));
#1795=DIRECTION('',(0.,1.,0.));
#1796=DIRECTION('',(0.,0.,1.));
#1797=DIRECTION('',(0.,0.,1.));
#1798=DIRECTION('',(-1.,0.,0.));
#1799=DIRECTION('',(1.,0.,0.));
#1800=DIRECTION('',(0.,0.,-1.));
#1801=DIRECTION('',(0.,0.,1.));
#1802=DIRECTION('',(0.,1.,0.));
#1803=DIRECTION('',(0.,1.,0.));
#1804=DIRECTION('',(0.,0.,1.));
#1805=DIRECTION('',(0.,0.,1.));
#1806=DIRECTION('',(-1.,0.,0.));
#1807=DIRECTION('',(1.,0.,0.));
#1808=DIRECTION('',(0.,0.,-1.));
#1809=DIRECTION('',(0.,0.,1.));
#1810=DIRECTION('',(0.,1.,0.));
#1811=DIRECTION('',(0.,1.,0.));
#1812=DIRECTION('',(0.,0.,1.));
#1813=DIRECTION('',(0.,0.,1.));
#1814=DIRECTION('',(-1.,0.,0.));
#1815=DIRECTION('',(1.,0.,0.));
#1816=DIRECTION('',(0.,0.,-1.));
#1817=DIRECTION('',(0.,0.,1.));
#1818=DIRECTION('',(0.,1.,0.));
#1819=DIRECTION('',(0.,1.,0.));
#1820=DIRECTION('',(0.,0.,1.));
#1821=DIRECTION('',(-1.,0.,0.));
#1822=DIRECTION('',(0.,0.,1.));
#1823=DIRECTION('',(1.,0.,0.));
#1824=DIRECTION('',(0.,0.,1.));
#1825=DIRECTION('',(1.,0.,0.));
#1826=DIRECTION('',(0.,0.,-1.));
#1827=DIRECTION('',(-1.,0.,0.));
#1828=DIRECTION('',(0.,0.,1.));
#1829=DIRECTION('',(1.,0.,0.));
#1830=DIRECTION('',(0.,0.,-1.));
#1831=DIRECTION('',(-1.,0.,0.));
#1832=DIRECTION('',(1.,0.,0.));
#1833=DIRECTION('',(0.,0.,-1.));
#1834=DIRECTION('',(0.,0.,1.));
#1835=DIRECTION('',(0.,1.,0.));
#1836=DIRECTION('',(0.,0.,1.));
#1837=DIRECTION('',(0.,-1.,0.));
#1838=DIRECTION('',(0.,0.,-1.));
#1839=DIRECTION('',(0.,0.,1.));
#1840=DIRECTION('',(1.,0.,0.));
#1841=DIRECTION('',(1.,0.,0.));
#1842=DIRECTION('',(0.,0.,-1.));
#1843=DIRECTION('',(0.,0.,1.));
#1844=DIRECTION('',(0.,1.,0.));
#1845=DIRECTION('',(0.,-1.,0.));
#1846=DIRECTION('',(0.,0.,-1.));
#1847=DIRECTION('',(1.,0.,0.));
#1848=DIRECTION('',(0.,0.,1.));
#1849=DIRECTION('',(1.,0.,0.));
#1850=CARTESIAN_POINT('',(0.,0.,0.));
#1851=CARTESIAN_POINT('',(0.,6.93889390390723E-18,0.003));
#1852=CARTESIAN_POINT('',(0.039685,-0.0413908285714285,0.003));
#1853=CARTESIAN_POINT('',(0.039685,-0.04995,0.003));
#1854=CARTESIAN_POINT('',(0.039685,-0.03165,0.003));
#1855=CARTESIAN_POINT('',(0.035875,-0.04995,0.003));
#1856=CARTESIAN_POINT('',(0.032065,-0.04995,0.003));
#1857=CARTESIAN_POINT('',(0.032065,-0.0493591714285715,0.003));
#1858=CARTESIAN_POINT('',(0.032065,-0.03165,0.003));
#1859=CARTESIAN_POINT('',(0.035875,-0.03165,0.003));
#1860=CARTESIAN_POINT('',(0.0315,-0.0408,0.003));
#1861=CARTESIAN_POINT('',(0.0315,-0.04995,0.003));
#1862=CARTESIAN_POINT('',(0.0315,-0.03165,0.003));
#1863=CARTESIAN_POINT('',(2.77555756156289E-17,-0.04995,0.003));
#1864=CARTESIAN_POINT('',(-0.0315,-0.04995,0.003));
#1865=CARTESIAN_POINT('',(-0.0315,-0.0408,0.003));
#1866=CARTESIAN_POINT('',(-0.0315,-0.03165,0.003));
#1867=CARTESIAN_POINT('',(2.77555756156289E-17,-0.03165,0.003));
#1868=CARTESIAN_POINT('',(-0.0362,-0.04919,0.003));
#1869=CARTESIAN_POINT('',(-0.03745,-0.04919,0.003));
#1870=CARTESIAN_POINT('',(-0.0362,-0.03253,0.003));
#1871=CARTESIAN_POINT('',(-0.03745,-0.03253,0.003));
#1872=CARTESIAN_POINT('',(0.,0.05295,0.003));
#1873=CARTESIAN_POINT('',(-0.04025,0.05295,0.003));
#1874=CARTESIAN_POINT('',(0.04025,0.05295,0.003));
#1875=CARTESIAN_POINT('',(-0.04025,0.,0.003));
#1876=CARTESIAN_POINT('',(-0.04025,-0.05295,0.003));
#1877=CARTESIAN_POINT('',(0.,-0.05295,0.003));
#1878=CARTESIAN_POINT('',(0.04025,-0.05295,0.003));
#1879=CARTESIAN_POINT('',(0.04025,0.,0.003));
#1880=CARTESIAN_POINT('',(-3.31653560152977E-18,0.0064,0.003));
#1881=CARTESIAN_POINT('',(0.007,0.0064,0.003));
#1882=CARTESIAN_POINT('',(0.0047625,-0.003125,0.003));
#1883=CARTESIAN_POINT('',(0.009525,-0.003125,0.003));
#1884=CARTESIAN_POINT('',(-0.009525,-0.003125,0.003));
#1885=CARTESIAN_POINT('',(0.009525,0.0144,0.003));
#1886=CARTESIAN_POINT('',(0.009525,0.0154,0.003));
#1887=CARTESIAN_POINT('',(0.0187875,0.0154,0.003));
#1888=CARTESIAN_POINT('',(0.02805,0.0154,0.003));
#1889=CARTESIAN_POINT('',(0.02805,-0.003125,0.003));
#1890=CARTESIAN_POINT('',(0.02805,-0.02165,0.003));
#1891=CARTESIAN_POINT('',(-3.46944695195361E-18,-0.02165,0.003));
#1892=CARTESIAN_POINT('',(-0.02805,-0.02165,0.003));
#1893=CARTESIAN_POINT('',(-0.02805,-0.003125,0.003));
#1894=CARTESIAN_POINT('',(-0.02805,0.0154,0.003));
#1895=CARTESIAN_POINT('',(-0.0187875,0.0154,0.003));
#1896=CARTESIAN_POINT('',(-0.009525,0.0154,0.003));
#1897=CARTESIAN_POINT('',(-0.009525,0.0144,0.003));
#1898=CARTESIAN_POINT('',(-0.01205,-0.01265,0.0254));
#1899=CARTESIAN_POINT('',(-0.01205,-0.01965,0.0254));
#1900=CARTESIAN_POINT('',(-0.01205,-0.01965,0.0025));
#1901=CARTESIAN_POINT('',(-0.01205,-0.01965,0.));
#1902=CARTESIAN_POINT('',(-0.01205,6.93889390390723E-18,0.0025));
#1903=CARTESIAN_POINT('',(-0.01205,-0.00565,0.0025));
#1904=CARTESIAN_POINT('',(-0.01205,-0.00565,0.0254));
#1905=CARTESIAN_POINT('',(-0.01205,-0.00565,0.));
#1906=CARTESIAN_POINT('',(-0.01205,-0.01265,0.));
#1907=CARTESIAN_POINT('',(-0.01905,-0.01965,0.0254));
#1908=CARTESIAN_POINT('',(0.,-0.01965,0.0025));
#1909=CARTESIAN_POINT('',(-0.02605,-0.01965,0.0025));
#1910=CARTESIAN_POINT('',(-0.01905,-0.01965,0.));
#1911=CARTESIAN_POINT('',(-0.02605,-0.01965,0.));
#1912=CARTESIAN_POINT('',(-0.02605,-0.01965,0.0254));
#1913=CARTESIAN_POINT('',(-0.02605,-0.01265,0.0254));
#1914=CARTESIAN_POINT('',(-0.02605,6.93889390390723E-18,0.0025));
#1915=CARTESIAN_POINT('',(-0.02605,-0.00565,0.0025));
#1916=CARTESIAN_POINT('',(-0.02605,-0.01265,0.));
#1917=CARTESIAN_POINT('',(-0.02605,-0.00565,0.));
#1918=CARTESIAN_POINT('',(-0.02605,-0.00565,0.0254));
#1919=CARTESIAN_POINT('',(-0.01905,-0.00565,0.0254));
#1920=CARTESIAN_POINT('',(0.,-0.00565,0.0025));
#1921=CARTESIAN_POINT('',(-0.01905,-0.00565,0.));
#1922=CARTESIAN_POINT('',(0.02605,0.0064,0.0254));
#1923=CARTESIAN_POINT('',(0.02605,-0.0006,0.0254));
#1924=CARTESIAN_POINT('',(0.02605,-0.0006,0.0025));
#1925=CARTESIAN_POINT('',(0.02605,-0.0006,0.));
#1926=CARTESIAN_POINT('',(0.02605,6.93889390390723E-18,0.0025));
#1927=CARTESIAN_POINT('',(0.02605,0.0134,0.0025));
#1928=CARTESIAN_POINT('',(0.02605,0.0134,0.0254));
#1929=CARTESIAN_POINT('',(0.02605,0.0134,0.));
#1930=CARTESIAN_POINT('',(0.02605,0.0064,0.));
#1931=CARTESIAN_POINT('',(0.01905,-0.0006,0.0254));
#1932=CARTESIAN_POINT('',(-6.96987110883542E-20,-0.0006,0.0025));
#1933=CARTESIAN_POINT('',(0.01205,-0.0006,0.0025));
#1934=CARTESIAN_POINT('',(0.01905,-0.0006,0.));
#1935=CARTESIAN_POINT('',(0.01205,-0.0006,0.));
#1936=CARTESIAN_POINT('',(0.01205,-0.0006,0.0254));
#1937=CARTESIAN_POINT('',(0.01205,0.0064,0.0254));
#1938=CARTESIAN_POINT('',(0.01205,6.93889390390723E-18,0.0025));
#1939=CARTESIAN_POINT('',(0.01205,0.0134,0.0025));
#1940=CARTESIAN_POINT('',(0.01205,0.0064,0.));
#1941=CARTESIAN_POINT('',(0.01205,0.0134,0.));
#1942=CARTESIAN_POINT('',(0.01205,0.0134,0.0254));
#1943=CARTESIAN_POINT('',(0.01905,0.0134,0.0254));
#1944=CARTESIAN_POINT('',(0.,0.0134,0.0025));
#1945=CARTESIAN_POINT('',(0.01905,0.0134,0.));
#1946=CARTESIAN_POINT('',(-0.01205,0.0064,0.0254));
#1947=CARTESIAN_POINT('',(-0.01205,-0.00059999999999999,0.0254));
#1948=CARTESIAN_POINT('',(-0.01205,-0.00059999999999999,0.0025));
#1949=CARTESIAN_POINT('',(-0.01205,-0.00059999999999999,0.));
#1950=CARTESIAN_POINT('',(-0.01205,3.95269134883286E-18,0.0025));
#1951=CARTESIAN_POINT('',(-0.01205,0.0134,0.0025));
#1952=CARTESIAN_POINT('',(-0.01205,0.0134,0.0254));
#1953=CARTESIAN_POINT('',(-0.01205,0.0134,0.));
#1954=CARTESIAN_POINT('',(-0.01205,0.0064,0.));
#1955=CARTESIAN_POINT('',(-0.01905,-0.000599999999999991,0.0254));
#1956=CARTESIAN_POINT('',(7.43452918275769E-20,-0.000599999999999989,0.0025));
#1957=CARTESIAN_POINT('',(-0.02605,-0.000599999999999992,0.0025));
#1958=CARTESIAN_POINT('',(-0.01905,-0.000599999999999991,0.));
#1959=CARTESIAN_POINT('',(-0.02605,-0.000599999999999992,0.));
#1960=CARTESIAN_POINT('',(-0.02605,-0.000599999999999992,0.0254));
#1961=CARTESIAN_POINT('',(-0.02605,0.0064,0.0254));
#1962=CARTESIAN_POINT('',(-0.02605,6.93889390390723E-18,0.0025));
#1963=CARTESIAN_POINT('',(-0.02605,0.0134,0.0025));
#1964=CARTESIAN_POINT('',(-0.02605,0.0064,0.));
#1965=CARTESIAN_POINT('',(-0.02605,0.0134,0.));
#1966=CARTESIAN_POINT('',(-0.02605,0.0134,0.0254));
#1967=CARTESIAN_POINT('',(-0.01905,0.0134,0.0254));
#1968=CARTESIAN_POINT('',(0.,0.0134,0.0025));
#1969=CARTESIAN_POINT('',(-0.01905,0.0134,0.));
#1970=CARTESIAN_POINT('',(0.02605,-0.01265,0.0254));
#1971=CARTESIAN_POINT('',(0.02605,-0.01965,0.0254));
#1972=CARTESIAN_POINT('',(0.02605,-0.01965,0.0025));
#1973=CARTESIAN_POINT('',(0.02605,-0.01965,0.));
#1974=CARTESIAN_POINT('',(0.02605,6.93889390390723E-18,0.0025));
#1975=CARTESIAN_POINT('',(0.02605,-0.00565,0.0025));
#1976=CARTESIAN_POINT('',(0.02605,-0.00565,0.0254));
#1977=CARTESIAN_POINT('',(0.02605,-0.00565,0.));
#1978=CARTESIAN_POINT('',(0.02605,-0.01265,0.));
#1979=CARTESIAN_POINT('',(0.01905,-0.01965,0.0254));
#1980=CARTESIAN_POINT('',(0.,-0.01965,0.0025));
#1981=CARTESIAN_POINT('',(0.01205,-0.01965,0.0025));
#1982=CARTESIAN_POINT('',(0.01905,-0.01965,0.));
#1983=CARTESIAN_POINT('',(0.01205,-0.01965,0.));
#1984=CARTESIAN_POINT('',(0.01205,-0.01965,0.0254));
#1985=CARTESIAN_POINT('',(0.01205,-0.01265,0.0254));
#1986=CARTESIAN_POINT('',(0.01205,6.93889390390723E-18,0.0025));
#1987=CARTESIAN_POINT('',(0.01205,-0.00565,0.0025));
#1988=CARTESIAN_POINT('',(0.01205,-0.01265,0.));
#1989=CARTESIAN_POINT('',(0.01205,-0.00565,0.));
#1990=CARTESIAN_POINT('',(0.01205,-0.00565,0.0254));
#1991=CARTESIAN_POINT('',(0.01905,-0.00565,0.0254));
#1992=CARTESIAN_POINT('',(-7.00084831376355E-19,-0.00565,0.0025));
#1993=CARTESIAN_POINT('',(0.01905,-0.00565,0.));
#1994=CARTESIAN_POINT('',(0.007,-0.01265,0.0254));
#1995=CARTESIAN_POINT('',(0.007,-0.01965,0.0254));
#1996=CARTESIAN_POINT('',(0.007,-0.01965,0.0025));
#1997=CARTESIAN_POINT('',(0.007,-0.01965,0.));
#1998=CARTESIAN_POINT('',(0.007,6.50521303491303E-18,0.0025));
#1999=CARTESIAN_POINT('',(0.007,-0.00565,0.0025));
#2000=CARTESIAN_POINT('',(0.007,-0.00565,0.0254));
#2001=CARTESIAN_POINT('',(0.007,-0.00565,0.));
#2002=CARTESIAN_POINT('',(0.007,-0.01265,0.));
#2003=CARTESIAN_POINT('',(-0.0035,-0.01965,0.0254));
#2004=CARTESIAN_POINT('',(0.,-0.01965,0.0025));
#2005=CARTESIAN_POINT('',(-0.007,-0.01965,0.0025));
#2006=CARTESIAN_POINT('',(-0.0035,-0.01965,0.));
#2007=CARTESIAN_POINT('',(-0.007,-0.01965,0.));
#2008=CARTESIAN_POINT('',(-0.007,-0.01965,0.0254));
#2009=CARTESIAN_POINT('',(-0.007,-0.01265,0.0254));
#2010=CARTESIAN_POINT('',(-0.007,7.37257477290143E-18,0.0025));
#2011=CARTESIAN_POINT('',(-0.007,-0.00565,0.0025));
#2012=CARTESIAN_POINT('',(-0.007,-0.01265,0.));
#2013=CARTESIAN_POINT('',(-0.007,-0.00565,0.));
#2014=CARTESIAN_POINT('',(-0.007,-0.00565,0.0254));
#2015=CARTESIAN_POINT('',(-0.0035,-0.00565,0.0254));
#2016=CARTESIAN_POINT('',(-7.00084831376354E-19,-0.00565,0.0025));
#2017=CARTESIAN_POINT('',(-0.0035,-0.00565,0.));
#2018=CARTESIAN_POINT('',(0.,6.93889390390723E-18,0.));
#2019=CARTESIAN_POINT('',(0.0315,-0.0408,0.));
#2020=CARTESIAN_POINT('',(0.0315,-0.04995,0.));
#2021=CARTESIAN_POINT('',(0.0315,-0.03165,0.));
#2022=CARTESIAN_POINT('',(2.77555756156289E-17,-0.03165,0.));
#2023=CARTESIAN_POINT('',(-0.0315,-0.03165,0.));
#2024=CARTESIAN_POINT('',(-0.0315,-0.0408,0.));
#2025=CARTESIAN_POINT('',(-0.0315,-0.04995,0.));
#2026=CARTESIAN_POINT('',(2.77555756156289E-17,-0.04995,0.));
#2027=CARTESIAN_POINT('',(-0.0362,-0.04919,0.));
#2028=CARTESIAN_POINT('',(-0.03745,-0.04919,0.));
#2029=CARTESIAN_POINT('',(-0.0362,-0.03253,0.));
#2030=CARTESIAN_POINT('',(-0.03745,-0.03253,0.));
#2031=CARTESIAN_POINT('',(-0.04445,6.93889390390723E-18,0.));
#2032=CARTESIAN_POINT('',(-0.04445,0.04953,0.));
#2033=CARTESIAN_POINT('',(-0.04445,-0.04953,0.));
#2034=CARTESIAN_POINT('',(-0.03683,0.04953,0.));
#2035=CARTESIAN_POINT('',(-0.03683,0.05715,0.));
#2036=CARTESIAN_POINT('',(1.38777878078145E-17,0.05715,0.));
#2037=CARTESIAN_POINT('',(0.03683,0.05715,0.));
#2038=CARTESIAN_POINT('',(0.03683,0.04953,0.));
#2039=CARTESIAN_POINT('',(0.04445,0.04953,0.));
#2040=CARTESIAN_POINT('',(0.04445,0.,0.));
#2041=CARTESIAN_POINT('',(0.04445,-0.04953,0.));
#2042=CARTESIAN_POINT('',(0.03683,-0.04953,0.));
#2043=CARTESIAN_POINT('',(0.03683,-0.05715,0.));
#2044=CARTESIAN_POINT('',(-6.93889390390723E-18,-0.05715,0.));
#2045=CARTESIAN_POINT('',(-0.03683,-0.05715,0.));
#2046=CARTESIAN_POINT('',(-0.03683,-0.04953,0.));
#2047=CARTESIAN_POINT('',(-1.34671986484423E-17,0.0064,0.));
#2048=CARTESIAN_POINT('',(-0.00610000000000001,0.0064,0.));
#2049=CARTESIAN_POINT('',(0.,6.93889390390723E-18,0.003));
#2050=CARTESIAN_POINT('',(1.38777878078145E-17,0.05715,0.003));
#2051=CARTESIAN_POINT('',(-0.03683,0.05715,0.003));
#2052=CARTESIAN_POINT('',(0.03683,0.05715,0.003));
#2053=CARTESIAN_POINT('',(-0.03683,0.04953,0.003));
#2054=CARTESIAN_POINT('',(-0.04445,0.04953,0.003));
#2055=CARTESIAN_POINT('',(-0.04445,6.93889390390723E-18,0.003));
#2056=CARTESIAN_POINT('',(-0.04445,-0.04953,0.003));
#2057=CARTESIAN_POINT('',(-0.03683,-0.04953,0.003));
#2058=CARTESIAN_POINT('',(-0.03683,-0.05715,0.003));
#2059=CARTESIAN_POINT('',(-6.93889390390723E-18,-0.05715,0.003));
#2060=CARTESIAN_POINT('',(0.03683,-0.05715,0.003));
#2061=CARTESIAN_POINT('',(0.03683,-0.04953,0.003));
#2062=CARTESIAN_POINT('',(0.04445,-0.04953,0.003));
#2063=CARTESIAN_POINT('',(0.04445,0.,0.003));
#2064=CARTESIAN_POINT('',(0.04445,0.04953,0.003));
#2065=CARTESIAN_POINT('',(0.03683,0.04953,0.003));
#2066=CARTESIAN_POINT('',(-0.04125,0.,0.003));
#2067=CARTESIAN_POINT('',(-0.04125,0.05395,0.003));
#2068=CARTESIAN_POINT('',(-0.04125,-0.05395,0.003));
#2069=CARTESIAN_POINT('',(0.,0.05395,0.003));
#2070=CARTESIAN_POINT('',(0.04125,0.05395,0.003));
#2071=CARTESIAN_POINT('',(0.04125,0.,0.003));
#2072=CARTESIAN_POINT('',(0.04125,-0.05395,0.003));
#2073=CARTESIAN_POINT('',(0.,-0.05395,0.003));
#2074=CARTESIAN_POINT('',(1.38777878078145E-17,0.05715,0.003));
#2075=CARTESIAN_POINT('',(-0.03683,0.05715,0.003));
#2076=CARTESIAN_POINT('',(0.03683,0.05715,0.003));
#2077=CARTESIAN_POINT('',(-0.04445,6.93889390390723E-18,0.003));
#2078=CARTESIAN_POINT('',(-0.04445,0.04953,0.));
#2079=CARTESIAN_POINT('',(-0.04445,-0.04953,0.003));
#2080=CARTESIAN_POINT('',(-6.93889390390723E-18,-0.05715,0.003));
#2081=CARTESIAN_POINT('',(0.03683,-0.05715,0.003));
#2082=CARTESIAN_POINT('',(-0.03683,-0.05715,0.003));
#2083=CARTESIAN_POINT('',(0.04445,0.,0.003));
#2084=CARTESIAN_POINT('',(0.04445,0.04953,0.003));
#2085=CARTESIAN_POINT('',(0.04445,-0.04953,0.));
#2086=CARTESIAN_POINT('',(0.,0.05395,0.006));
#2087=CARTESIAN_POINT('',(-0.04125,0.05395,0.006));
#2088=CARTESIAN_POINT('',(-0.04125,0.05395,0.006));
#2089=CARTESIAN_POINT('',(0.,0.05395,0.006));
#2090=CARTESIAN_POINT('',(0.04125,0.05395,0.006));
#2091=CARTESIAN_POINT('',(0.04125,0.05395,0.006));
#2092=CARTESIAN_POINT('',(-0.04125,0.,0.006));
#2093=CARTESIAN_POINT('',(-0.04125,-0.05395,0.006));
#2094=CARTESIAN_POINT('',(-0.04125,-0.05395,0.006));
#2095=CARTESIAN_POINT('',(-0.04125,0.,0.006));
#2096=CARTESIAN_POINT('',(0.,-0.05395,0.006));
#2097=CARTESIAN_POINT('',(0.04125,-0.05395,0.006));
#2098=CARTESIAN_POINT('',(0.04125,-0.05395,0.006));
#2099=CARTESIAN_POINT('',(0.,-0.05395,0.006));
#2100=CARTESIAN_POINT('',(-0.04025,0.,0.006));
#2101=CARTESIAN_POINT('',(-0.04025,0.05295,0.006));
#2102=CARTESIAN_POINT('',(-0.04025,0.05295,0.006));
#2103=CARTESIAN_POINT('',(-0.04025,0.,0.006));
#2104=CARTESIAN_POINT('',(-0.04025,-0.05295,0.006));
#2105=CARTESIAN_POINT('',(-0.04025,-0.05295,0.006));
#2106=CARTESIAN_POINT('',(0.,0.05295,0.006));
#2107=CARTESIAN_POINT('',(0.04025,0.05295,0.006));
#2108=CARTESIAN_POINT('',(0.04025,0.05295,0.006));
#2109=CARTESIAN_POINT('',(0.,0.05295,0.006));
#2110=CARTESIAN_POINT('',(0.04025,0.,0.006));
#2111=CARTESIAN_POINT('',(0.04025,-0.05295,0.006));
#2112=CARTESIAN_POINT('',(0.04025,-0.05295,0.006));
#2113=CARTESIAN_POINT('',(0.04025,0.,0.006));
#2114=CARTESIAN_POINT('',(0.,-0.05295,0.006));
#2115=CARTESIAN_POINT('',(0.,-0.05295,0.006));
#2116=CARTESIAN_POINT('',(0.04125,0.,0.006));
#2117=CARTESIAN_POINT('',(0.04125,0.,0.006));
#2118=CARTESIAN_POINT('',(0.,0.,0.006));
#2119=CARTESIAN_POINT('',(-0.0362,-0.03253,0.003));
#2120=CARTESIAN_POINT('',(-0.0362,-0.04919,0.003));
#2121=CARTESIAN_POINT('',(0.0315,-0.0408,0.003));
#2122=CARTESIAN_POINT('',(0.0315,-0.04995,0.003));
#2123=CARTESIAN_POINT('',(0.0315,-0.03165,0.003));
#2124=CARTESIAN_POINT('',(2.77555756156289E-17,-0.04995,0.003));
#2125=CARTESIAN_POINT('',(-0.0315,-0.04995,0.003));
#2126=CARTESIAN_POINT('',(-0.0315,-0.0408,0.003));
#2127=CARTESIAN_POINT('',(-0.0315,-0.03165,0.003));
#2128=CARTESIAN_POINT('',(2.77555756156289E-17,-0.03165,0.003));
#2129=CARTESIAN_POINT('',(-3.31653560152977E-18,0.0064,0.0116));
#2130=CARTESIAN_POINT('',(-3.31653560152977E-18,0.0064,0.0116));
#2131=CARTESIAN_POINT('',(-0.007,0.0064,0.0116));
#2132=CARTESIAN_POINT('',(0.,6.93889390390723E-18,0.0116));
#2133=CARTESIAN_POINT('',(0.0027712812921102,0.0016,0.0116));
#2134=CARTESIAN_POINT('',(-0.00225,0.01029711431703,0.0116));
#2135=CARTESIAN_POINT('',(-0.00305,0.0116827549630851,0.0116));
#2136=CARTESIAN_POINT('',(-1.34671986484423E-17,0.0064,0.0116));
#2137=CARTESIAN_POINT('',(0.00305,0.0116827549630851,0.0116));
#2138=CARTESIAN_POINT('',(-0.0027712812921102,0.0016,0.0116));
#2139=CARTESIAN_POINT('',(0.00225,0.01029711431703,0.0116));
#2140=CARTESIAN_POINT('',(-2.16840434497101E-18,0.0064,0.0116));
#2141=CARTESIAN_POINT('',(0.00225,0.00250288568297003,0.0116));
#2142=CARTESIAN_POINT('',(0.0027712812921102,0.0016,0.0116));
#2143=CARTESIAN_POINT('',(0.00305,0.00111724503691493,0.0116));
#2144=CARTESIAN_POINT('',(-1.58229372873423E-18,0.0064,0.0116));
#2145=CARTESIAN_POINT('',(-0.00305,0.00111724503691493,0.0116));
#2146=CARTESIAN_POINT('',(-0.0027712812921102,0.0016,0.0116));
#2147=CARTESIAN_POINT('',(-0.00225,0.00250288568297003,0.0116));
#2148=CARTESIAN_POINT('',(-2.38524477946811E-18,0.0064,0.0116));
#2149=CARTESIAN_POINT('',(-1.34671986484423E-17,0.0064,0.0254));
#2150=CARTESIAN_POINT('',(-0.00305,0.0116827549630851,0.0254));
#2151=CARTESIAN_POINT('',(-0.00305,0.0116827549630851,0.0096));
#2152=CARTESIAN_POINT('',(-2.38524477946811E-18,0.0064,0.0096));
#2153=CARTESIAN_POINT('',(-0.00305,0.00111724503691493,0.0096));
#2154=CARTESIAN_POINT('',(-0.00305,0.00111724503691493,0.0254));
#2155=CARTESIAN_POINT('',(0.00305,0.00111724503691493,0.0254));
#2156=CARTESIAN_POINT('',(0.00305,0.00111724503691493,0.0096));
#2157=CARTESIAN_POINT('',(-1.3010426069826E-18,0.0064,0.0096));
#2158=CARTESIAN_POINT('',(0.00305,0.0116827549630851,0.0096));
#2159=CARTESIAN_POINT('',(0.00305,0.0116827549630851,0.0254));
#2160=CARTESIAN_POINT('',(0.00265,0.0109899346400575,0.0254));
#2161=CARTESIAN_POINT('',(0.00265,0.0109899346400575,0.0096));
#2162=CARTESIAN_POINT('',(0.00225,0.01029711431703,0.0096));
#2163=CARTESIAN_POINT('',(0.00225,0.01029711431703,0.0254));
#2164=CARTESIAN_POINT('',(-2.16840434497101E-18,0.0064,0.0254));
#2165=CARTESIAN_POINT('',(-2.16840434497101E-18,0.0064,0.0096));
#2166=CARTESIAN_POINT('',(0.00225,0.00250288568297003,0.0096));
#2167=CARTESIAN_POINT('',(0.00225,0.00250288568297003,0.0254));
#2168=CARTESIAN_POINT('',(0.00265,0.00181006535994248,0.0254));
#2169=CARTESIAN_POINT('',(0.00265,0.00181006535994248,0.0096));
#2170=CARTESIAN_POINT('',(-0.00265,0.00181006535994248,0.0254));
#2171=CARTESIAN_POINT('',(-0.00265,0.00181006535994248,0.0096));
#2172=CARTESIAN_POINT('',(-0.00225,0.00250288568297003,0.0096));
#2173=CARTESIAN_POINT('',(-0.00225,0.00250288568297003,0.0254));
#2174=CARTESIAN_POINT('',(-2.38524477946811E-18,0.0064,0.0254));
#2175=CARTESIAN_POINT('',(-2.38524477946811E-18,0.0064,0.0096));
#2176=CARTESIAN_POINT('',(-0.00225,0.01029711431703,0.0096));
#2177=CARTESIAN_POINT('',(-0.00225,0.01029711431703,0.0254));
#2178=CARTESIAN_POINT('',(-0.00265,0.0109899346400575,0.0254));
#2179=CARTESIAN_POINT('',(-0.00265,0.0109899346400575,0.0096));
#2180=CARTESIAN_POINT('',(0.,6.93889390390723E-18,0.0096));
#2181=CARTESIAN_POINT('',(0.,6.93889390390723E-18,0.0096));
#2182=CARTESIAN_POINT('',(0.009525,0.0144,0.0025));
#2183=CARTESIAN_POINT('',(0.009525,-0.003125,0.0025));
#2184=CARTESIAN_POINT('',(0.009525,-0.003125,0.0025));
#2185=CARTESIAN_POINT('',(0.009525,0.0144,0.0025));
#2186=CARTESIAN_POINT('',(0.009525,0.0154,0.0025));
#2187=CARTESIAN_POINT('',(0.009525,0.0154,0.0025));
#2188=CARTESIAN_POINT('',(0.0047625,-0.003125,0.0025));
#2189=CARTESIAN_POINT('',(-0.009525,-0.003125,0.0025));
#2190=CARTESIAN_POINT('',(-0.009525,-0.003125,0.0025));
#2191=CARTESIAN_POINT('',(0.0047625,-0.003125,0.0025));
#2192=CARTESIAN_POINT('',(-0.009525,0.0144,0.0025));
#2193=CARTESIAN_POINT('',(-0.009525,0.0154,0.0025));
#2194=CARTESIAN_POINT('',(-0.009525,0.0154,0.0025));
#2195=CARTESIAN_POINT('',(-0.009525,0.0144,0.0025));
#2196=CARTESIAN_POINT('',(-0.0187875,0.0154,0.0025));
#2197=CARTESIAN_POINT('',(-0.02805,0.0154,0.0025));
#2198=CARTESIAN_POINT('',(-0.02805,0.0154,0.0025));
#2199=CARTESIAN_POINT('',(-0.0187875,0.0154,0.0025));
#2200=CARTESIAN_POINT('',(-0.02805,-0.003125,0.0025));
#2201=CARTESIAN_POINT('',(-0.02805,-0.02165,0.0025));
#2202=CARTESIAN_POINT('',(-0.02805,-0.02165,0.0025));
#2203=CARTESIAN_POINT('',(-0.02805,-0.003125,0.0025));
#2204=CARTESIAN_POINT('',(-3.46944695195361E-18,-0.02165,0.0025));
#2205=CARTESIAN_POINT('',(0.02805,-0.02165,0.0025));
#2206=CARTESIAN_POINT('',(0.02805,-0.02165,0.0025));
#2207=CARTESIAN_POINT('',(-3.46944695195361E-18,-0.02165,0.0025));
#2208=CARTESIAN_POINT('',(0.02805,-0.003125,0.0025));
#2209=CARTESIAN_POINT('',(0.02805,0.0154,0.0025));
#2210=CARTESIAN_POINT('',(0.02805,0.0154,0.0025));
#2211=CARTESIAN_POINT('',(0.02805,-0.003125,0.0025));
#2212=CARTESIAN_POINT('',(0.0187875,0.0154,0.0025));
#2213=CARTESIAN_POINT('',(0.0187875,0.0154,0.0025));
#2214=CARTESIAN_POINT('',(0.,0.,0.0025));
#2215=CARTESIAN_POINT('',(-0.03683,0.04953,0.003));
#2216=CARTESIAN_POINT('',(0.03683,0.04953,0.003));
#2217=CARTESIAN_POINT('',(0.03683,-0.04953,0.003));
#2218=CARTESIAN_POINT('',(-0.03683,-0.04953,0.003));
#2219=CARTESIAN_POINT('',(0.039685,-0.0413908285714285,0.001));
#2220=CARTESIAN_POINT('',(0.039685,-0.03165,0.001));
#2221=CARTESIAN_POINT('',(0.039685,-0.03165,0.001));
#2222=CARTESIAN_POINT('',(0.039685,-0.0413908285714285,0.001));
#2223=CARTESIAN_POINT('',(0.039685,-0.04995,0.001));
#2224=CARTESIAN_POINT('',(0.039685,-0.04995,0.001));
#2225=CARTESIAN_POINT('',(0.035875,-0.03165,0.001));
#2226=CARTESIAN_POINT('',(0.032065,-0.03165,0.001));
#2227=CARTESIAN_POINT('',(0.032065,-0.03165,0.001));
#2228=CARTESIAN_POINT('',(0.035875,-0.03165,0.001));
#2229=CARTESIAN_POINT('',(0.032065,-0.0493591714285715,0.001));
#2230=CARTESIAN_POINT('',(0.032065,-0.04995,0.001));
#2231=CARTESIAN_POINT('',(0.032065,-0.04995,0.001));
#2232=CARTESIAN_POINT('',(0.032065,-0.0493591714285715,0.001));
#2233=CARTESIAN_POINT('',(0.035875,-0.04995,0.001));
#2234=CARTESIAN_POINT('',(0.035875,-0.04995,0.001));
#2235=CARTESIAN_POINT('',(0.,0.,0.001));
#2236=MECHANICAL_DESIGN_GEOMETRIC_PRESENTATION_REPRESENTATION('',(#1390),
#2237);
#2237=(
GEOMETRIC_REPRESENTATION_CONTEXT(3)
GLOBAL_UNCERTAINTY_ASSIGNED_CONTEXT((#2238))
GLOBAL_UNIT_ASSIGNED_CONTEXT((#2241,#2240,#2239))
REPRESENTATION_CONTEXT('Part 1','TOP_LEVEL_ASSEMBLY_PART')
);
#2238=UNCERTAINTY_MEASURE_WITH_UNIT(LENGTH_MEASURE(1.E-8),#2241,
'DISTANCE_ACCURACY_VALUE','Maximum Tolerance applied to model');
#2239=(
NAMED_UNIT(*)
SI_UNIT($,.STERADIAN.)
SOLID_ANGLE_UNIT()
);
#2240=(
NAMED_UNIT(*)
PLANE_ANGLE_UNIT()
SI_UNIT($,.RADIAN.)
);
#2241=(
LENGTH_UNIT()
NAMED_UNIT(*)
SI_UNIT($,.METRE.)
);
#2242=PRODUCT_DEFINITION_SHAPE('','',#2243);
#2243=PRODUCT_DEFINITION('','',#2245,#2244);
#2244=PRODUCT_DEFINITION_CONTEXT('',#2251,'design');
#2245=PRODUCT_DEFINITION_FORMATION_WITH_SPECIFIED_SOURCE('','',#2247,
 .NOT_KNOWN.);
#2246=PRODUCT_RELATED_PRODUCT_CATEGORY('','',(#2247));
#2247=PRODUCT('Part 1','Part 1','Part 1',(#2249));
#2248=PRODUCT_CATEGORY('','');
#2249=PRODUCT_CONTEXT('',#2251,'mechanical');
#2250=APPLICATION_PROTOCOL_DEFINITION('international standard',
'ap242_managed_model_based_3d_engineering',2020,#2251);
#2251=APPLICATION_CONTEXT('managed model based 3d engineering');
ENDSEC;
END-ISO-10303-21;
