ISO-10303-21;
HEADER;
/* Generated by software containing ST-Developer
 * from STEP Tools, Inc. (www.steptools.com) 
 */
/* OPTION: using custom renumber hook */

FILE_DESCRIPTION(
/* description */ ('STEP AP242 Edition 2',
'CAx-IF Rec.Pracs.---Representation and Presentation of Product Manufa
cturing Information (PMI)---4.0---2014-10-13',
'CAx-IF Rec.Pracs.---3D Tessellated Geometry---0.4---2014-09-14','2;1',
'CAx-IF Rec.Pracs.---User Defined Attributes---1.5---2016-08-15'),
/* implementation_level */ '2;1');

FILE_NAME(
/* name */ 'Alarm Clock Lid v4',
/* time_stamp */ '2026-08-13T00:21:05Z',
/* author */ (''),
/* organization */ (''),
/* preprocessor_version */ 'ST-DEVELOPER v20',
/* originating_system */ 'ONSHAPE BY PTC INC, 1.219',
/* authorisation */ '  ');

FILE_SCHEMA (('AP242_MANAGED_MODEL_BASED_3D_ENGINEERING_MIM_LF { 1 0 10303 442 3 1 4 }'));
ENDSEC;

DATA;
#10=SHAPE_REPRESENTATION_RELATIONSHIP('','',#1388,#11);
#11=ADVANCED_BREP_SHAPE_REPRESENTATION('',(#1386),#2217);
#12=CYLINDRICAL_SURFACE('',#1447,0.00125);
#13=CYLINDRICAL_SURFACE('',#1448,0.00125);
#14=CYLINDRICAL_SURFACE('',#1452,0.007);
#15=CYLINDRICAL_SURFACE('',#1460,0.0061);
#16=CYLINDRICAL_SURFACE('',#1464,0.0045);
#17=CYLINDRICAL_SURFACE('',#1468,0.0045);
#18=CYLINDRICAL_SURFACE('',#1475,0.00762);
#19=CYLINDRICAL_SURFACE('',#1476,0.00762);
#20=CYLINDRICAL_SURFACE('',#1477,0.00762);
#21=CYLINDRICAL_SURFACE('',#1478,0.00762);
#22=LINE('',#1838,#186);
#23=LINE('',#1841,#187);
#24=LINE('',#1843,#188);
#25=LINE('',#1845,#189);
#26=LINE('',#1847,#190);
#27=LINE('',#1849,#191);
#28=LINE('',#1851,#192);
#29=LINE('',#1853,#193);
#30=LINE('',#1855,#194);
#31=LINE('',#1858,#195);
#32=LINE('',#1860,#196);
#33=LINE('',#1862,#197);
#34=LINE('',#1864,#198);
#35=LINE('',#1867,#199);
#36=LINE('',#1869,#200);
#37=LINE('',#1871,#201);
#38=LINE('',#1873,#202);
#39=LINE('',#1875,#203);
#40=LINE('',#1877,#204);
#41=LINE('',#1879,#205);
#42=LINE('',#1881,#206);
#43=LINE('',#1883,#207);
#44=LINE('',#1885,#208);
#45=LINE('',#1887,#209);
#46=LINE('',#1889,#210);
#47=LINE('',#1891,#211);
#48=LINE('',#1893,#212);
#49=LINE('',#1895,#213);
#50=LINE('',#1897,#214);
#51=LINE('',#1898,#215);
#52=LINE('',#1900,#216);
#53=LINE('',#1903,#217);
#54=LINE('',#1905,#218);
#55=LINE('',#1907,#219);
#56=LINE('',#1909,#220);
#57=LINE('',#1912,#221);
#58=LINE('',#1914,#222);
#59=LINE('',#1916,#223);
#60=LINE('',#1918,#224);
#61=LINE('',#1920,#225);
#62=LINE('',#1922,#226);
#63=LINE('',#1924,#227);
#64=LINE('',#1926,#228);
#65=LINE('',#1928,#229);
#66=LINE('',#1930,#230);
#67=LINE('',#1931,#231);
#68=LINE('',#1933,#232);
#69=LINE('',#1936,#233);
#70=LINE('',#1938,#234);
#71=LINE('',#1940,#235);
#72=LINE('',#1942,#236);
#73=LINE('',#1944,#237);
#74=LINE('',#1946,#238);
#75=LINE('',#1948,#239);
#76=LINE('',#1950,#240);
#77=LINE('',#1952,#241);
#78=LINE('',#1954,#242);
#79=LINE('',#1955,#243);
#80=LINE('',#1957,#244);
#81=LINE('',#1960,#245);
#82=LINE('',#1962,#246);
#83=LINE('',#1964,#247);
#84=LINE('',#1966,#248);
#85=LINE('',#1968,#249);
#86=LINE('',#1970,#250);
#87=LINE('',#1972,#251);
#88=LINE('',#1974,#252);
#89=LINE('',#1976,#253);
#90=LINE('',#1978,#254);
#91=LINE('',#1979,#255);
#92=LINE('',#1981,#256);
#93=LINE('',#1984,#257);
#94=LINE('',#1986,#258);
#95=LINE('',#1988,#259);
#96=LINE('',#1990,#260);
#97=LINE('',#1992,#261);
#98=LINE('',#1994,#262);
#99=LINE('',#1996,#263);
#100=LINE('',#1998,#264);
#101=LINE('',#2000,#265);
#102=LINE('',#2002,#266);
#103=LINE('',#2003,#267);
#104=LINE('',#2005,#268);
#105=LINE('',#2008,#269);
#106=LINE('',#2010,#270);
#107=LINE('',#2012,#271);
#108=LINE('',#2014,#272);
#109=LINE('',#2016,#273);
#110=LINE('',#2018,#274);
#111=LINE('',#2020,#275);
#112=LINE('',#2022,#276);
#113=LINE('',#2024,#277);
#114=LINE('',#2026,#278);
#115=LINE('',#2027,#279);
#116=LINE('',#2029,#280);
#117=LINE('',#2031,#281);
#118=LINE('',#2033,#282);
#119=LINE('',#2038,#283);
#120=LINE('',#2043,#284);
#121=LINE('',#2047,#285);
#122=LINE('',#2051,#286);
#123=LINE('',#2057,#287);
#124=LINE('',#2062,#288);
#125=LINE('',#2066,#289);
#126=LINE('',#2070,#290);
#127=LINE('',#2073,#291);
#128=LINE('',#2076,#292);
#129=LINE('',#2078,#293);
#130=LINE('',#2080,#294);
#131=LINE('',#2082,#295);
#132=LINE('',#2083,#296);
#133=LINE('',#2085,#297);
#134=LINE('',#2086,#298);
#135=LINE('',#2088,#299);
#136=LINE('',#2089,#300);
#137=LINE('',#2091,#301);
#138=LINE('',#2092,#302);
#139=LINE('',#2094,#303);
#140=LINE('',#2096,#304);
#141=LINE('',#2098,#305);
#142=LINE('',#2100,#306);
#143=LINE('',#2102,#307);
#144=LINE('',#2104,#308);
#145=LINE('',#2106,#309);
#146=LINE('',#2108,#310);
#147=LINE('',#2110,#311);
#148=LINE('',#2112,#312);
#149=LINE('',#2114,#313);
#150=LINE('',#2116,#314);
#151=LINE('',#2118,#315);
#152=LINE('',#2120,#316);
#153=LINE('',#2122,#317);
#154=LINE('',#2124,#318);
#155=LINE('',#2126,#319);
#156=LINE('',#2127,#320);
#157=LINE('',#2129,#321);
#158=LINE('',#2131,#322);
#159=LINE('',#2132,#323);
#160=LINE('',#2134,#324);
#161=LINE('',#2136,#325);
#162=LINE('',#2138,#326);
#163=LINE('',#2143,#327);
#164=LINE('',#2144,#328);
#165=LINE('',#2146,#329);
#166=LINE('',#2148,#330);
#167=LINE('',#2155,#331);
#168=LINE('',#2160,#332);
#169=LINE('',#2164,#333);
#170=LINE('',#2168,#334);
#171=LINE('',#2172,#335);
#172=LINE('',#2176,#336);
#173=LINE('',#2177,#337);
#174=LINE('',#2181,#338);
#175=LINE('',#2183,#339);
#176=LINE('',#2185,#340);
#177=LINE('',#2189,#341);
#178=LINE('',#2191,#342);
#179=LINE('',#2193,#343);
#180=LINE('',#2195,#344);
#181=LINE('',#2199,#345);
#182=LINE('',#2201,#346);
#183=LINE('',#2205,#347);
#184=LINE('',#2206,#348);
#185=LINE('',#2214,#349);
#186=VECTOR('',#1490,1.);
#187=VECTOR('',#1491,1.);
#188=VECTOR('',#1492,1.);
#189=VECTOR('',#1493,1.);
#190=VECTOR('',#1494,1.);
#191=VECTOR('',#1495,1.);
#192=VECTOR('',#1496,1.);
#193=VECTOR('',#1497,1.);
#194=VECTOR('',#1500,1.);
#195=VECTOR('',#1501,1.);
#196=VECTOR('',#1502,1.);
#197=VECTOR('',#1503,1.);
#198=VECTOR('',#1506,1.);
#199=VECTOR('',#1507,1.);
#200=VECTOR('',#1508,1.);
#201=VECTOR('',#1509,1.);
#202=VECTOR('',#1512,1.);
#203=VECTOR('',#1513,1.);
#204=VECTOR('',#1514,1.);
#205=VECTOR('',#1517,1.);
#206=VECTOR('',#1518,1.);
#207=VECTOR('',#1519,1.);
#208=VECTOR('',#1522,1.);
#209=VECTOR('',#1523,1.);
#210=VECTOR('',#1524,1.);
#211=VECTOR('',#1527,1.);
#212=VECTOR('',#1528,1.);
#213=VECTOR('',#1529,1.);
#214=VECTOR('',#1532,1.);
#215=VECTOR('',#1533,1.);
#216=VECTOR('',#1536,1.);
#217=VECTOR('',#1537,1.);
#218=VECTOR('',#1538,1.);
#219=VECTOR('',#1539,1.);
#220=VECTOR('',#1542,1.);
#221=VECTOR('',#1543,1.);
#222=VECTOR('',#1544,1.);
#223=VECTOR('',#1545,1.);
#224=VECTOR('',#1548,1.);
#225=VECTOR('',#1549,1.);
#226=VECTOR('',#1550,1.);
#227=VECTOR('',#1553,1.);
#228=VECTOR('',#1554,1.);
#229=VECTOR('',#1555,1.);
#230=VECTOR('',#1558,1.);
#231=VECTOR('',#1559,1.);
#232=VECTOR('',#1562,1.);
#233=VECTOR('',#1563,1.);
#234=VECTOR('',#1564,1.);
#235=VECTOR('',#1565,1.);
#236=VECTOR('',#1568,1.);
#237=VECTOR('',#1569,1.);
#238=VECTOR('',#1570,1.);
#239=VECTOR('',#1573,1.);
#240=VECTOR('',#1574,1.);
#241=VECTOR('',#1575,1.);
#242=VECTOR('',#1578,1.);
#243=VECTOR('',#1579,1.);
#244=VECTOR('',#1582,1.);
#245=VECTOR('',#1583,1.);
#246=VECTOR('',#1584,1.);
#247=VECTOR('',#1585,1.);
#248=VECTOR('',#1588,1.);
#249=VECTOR('',#1589,1.);
#250=VECTOR('',#1590,1.);
#251=VECTOR('',#1593,1.);
#252=VECTOR('',#1594,1.);
#253=VECTOR('',#1595,1.);
#254=VECTOR('',#1598,1.);
#255=VECTOR('',#1599,1.);
#256=VECTOR('',#1602,1.);
#257=VECTOR('',#1603,1.);
#258=VECTOR('',#1604,1.);
#259=VECTOR('',#1605,1.);
#260=VECTOR('',#1608,1.);
#261=VECTOR('',#1609,1.);
#262=VECTOR('',#1610,1.);
#263=VECTOR('',#1613,1.);
#264=VECTOR('',#1614,1.);
#265=VECTOR('',#1615,1.);
#266=VECTOR('',#1618,1.);
#267=VECTOR('',#1619,1.);
#268=VECTOR('',#1622,1.);
#269=VECTOR('',#1623,1.);
#270=VECTOR('',#1624,1.);
#271=VECTOR('',#1625,1.);
#272=VECTOR('',#1628,1.);
#273=VECTOR('',#1629,1.);
#274=VECTOR('',#1630,1.);
#275=VECTOR('',#1633,1.);
#276=VECTOR('',#1634,1.);
#277=VECTOR('',#1635,1.);
#278=VECTOR('',#1638,1.);
#279=VECTOR('',#1639,1.);
#280=VECTOR('',#1642,1.);
#281=VECTOR('',#1643,1.);
#282=VECTOR('',#1644,1.);
#283=VECTOR('',#1649,1.);
#284=VECTOR('',#1652,1.);
#285=VECTOR('',#1655,1.);
#286=VECTOR('',#1658,1.);
#287=VECTOR('',#1665,1.);
#288=VECTOR('',#1668,1.);
#289=VECTOR('',#1671,1.);
#290=VECTOR('',#1674,1.);
#291=VECTOR('',#1677,1.);
#292=VECTOR('',#1678,1.);
#293=VECTOR('',#1679,1.);
#294=VECTOR('',#1680,1.);
#295=VECTOR('',#1683,1.);
#296=VECTOR('',#1684,1.);
#297=VECTOR('',#1687,1.);
#298=VECTOR('',#1688,1.);
#299=VECTOR('',#1691,1.);
#300=VECTOR('',#1692,1.);
#301=VECTOR('',#1695,1.);
#302=VECTOR('',#1696,1.);
#303=VECTOR('',#1699,1.);
#304=VECTOR('',#1700,1.);
#305=VECTOR('',#1701,1.);
#306=VECTOR('',#1704,1.);
#307=VECTOR('',#1705,1.);
#308=VECTOR('',#1708,1.);
#309=VECTOR('',#1709,1.);
#310=VECTOR('',#1712,1.);
#311=VECTOR('',#1713,1.);
#312=VECTOR('',#1714,1.);
#313=VECTOR('',#1715,1.);
#314=VECTOR('',#1716,1.);
#315=VECTOR('',#1719,1.);
#316=VECTOR('',#1720,1.);
#317=VECTOR('',#1721,1.);
#318=VECTOR('',#1724,1.);
#319=VECTOR('',#1725,1.);
#320=VECTOR('',#1726,1.);
#321=VECTOR('',#1727,1.);
#322=VECTOR('',#1728,1.);
#323=VECTOR('',#1729,1.);
#324=VECTOR('',#1730,1.);
#325=VECTOR('',#1733,1.);
#326=VECTOR('',#1736,1.);
#327=VECTOR('',#1745,1.);
#328=VECTOR('',#1746,1.);
#329=VECTOR('',#1749,1.);
#330=VECTOR('',#1752,1.);
#331=VECTOR('',#1761,1.);
#332=VECTOR('',#1764,1.);
#333=VECTOR('',#1767,1.);
#334=VECTOR('',#1770,1.);
#335=VECTOR('',#1775,1.);
#336=VECTOR('',#1778,1.);
#337=VECTOR('',#1779,1.);
#338=VECTOR('',#1782,1.);
#339=VECTOR('',#1785,1.);
#340=VECTOR('',#1786,1.);
#341=VECTOR('',#1791,1.);
#342=VECTOR('',#1794,1.);
#343=VECTOR('',#1797,1.);
#344=VECTOR('',#1798,1.);
#345=VECTOR('',#1803,1.);
#346=VECTOR('',#1806,1.);
#347=VECTOR('',#1813,1.);
#348=VECTOR('',#1814,1.);
#349=VECTOR('',#1829,1.);
#350=ORIENTED_EDGE('',*,*,#724,.T.);
#351=ORIENTED_EDGE('',*,*,#725,.T.);
#352=ORIENTED_EDGE('',*,*,#726,.F.);
#353=ORIENTED_EDGE('',*,*,#727,.T.);
#354=ORIENTED_EDGE('',*,*,#728,.T.);
#355=ORIENTED_EDGE('',*,*,#729,.T.);
#356=ORIENTED_EDGE('',*,*,#730,.F.);
#357=ORIENTED_EDGE('',*,*,#731,.T.);
#358=ORIENTED_EDGE('',*,*,#732,.T.);
#359=ORIENTED_EDGE('',*,*,#733,.F.);
#360=ORIENTED_EDGE('',*,*,#734,.T.);
#361=ORIENTED_EDGE('',*,*,#735,.F.);
#362=ORIENTED_EDGE('',*,*,#736,.F.);
#363=ORIENTED_EDGE('',*,*,#737,.T.);
#364=ORIENTED_EDGE('',*,*,#738,.T.);
#365=ORIENTED_EDGE('',*,*,#739,.F.);
#366=ORIENTED_EDGE('',*,*,#740,.F.);
#367=ORIENTED_EDGE('',*,*,#741,.T.);
#368=ORIENTED_EDGE('',*,*,#742,.T.);
#369=ORIENTED_EDGE('',*,*,#743,.F.);
#370=ORIENTED_EDGE('',*,*,#744,.F.);
#371=ORIENTED_EDGE('',*,*,#739,.T.);
#372=ORIENTED_EDGE('',*,*,#743,.T.);
#373=ORIENTED_EDGE('',*,*,#745,.F.);
#374=ORIENTED_EDGE('',*,*,#746,.F.);
#375=ORIENTED_EDGE('',*,*,#747,.T.);
#376=ORIENTED_EDGE('',*,*,#746,.T.);
#377=ORIENTED_EDGE('',*,*,#748,.F.);
#378=ORIENTED_EDGE('',*,*,#749,.F.);
#379=ORIENTED_EDGE('',*,*,#750,.T.);
#380=ORIENTED_EDGE('',*,*,#751,.T.);
#381=ORIENTED_EDGE('',*,*,#752,.F.);
#382=ORIENTED_EDGE('',*,*,#753,.F.);
#383=ORIENTED_EDGE('',*,*,#749,.T.);
#384=ORIENTED_EDGE('',*,*,#754,.T.);
#385=ORIENTED_EDGE('',*,*,#734,.F.);
#386=ORIENTED_EDGE('',*,*,#755,.F.);
#387=ORIENTED_EDGE('',*,*,#752,.T.);
#388=ORIENTED_EDGE('',*,*,#756,.F.);
#389=ORIENTED_EDGE('',*,*,#757,.T.);
#390=ORIENTED_EDGE('',*,*,#758,.T.);
#391=ORIENTED_EDGE('',*,*,#759,.F.);
#392=ORIENTED_EDGE('',*,*,#760,.F.);
#393=ORIENTED_EDGE('',*,*,#761,.F.);
#394=ORIENTED_EDGE('',*,*,#762,.T.);
#395=ORIENTED_EDGE('',*,*,#763,.F.);
#396=ORIENTED_EDGE('',*,*,#764,.T.);
#397=ORIENTED_EDGE('',*,*,#760,.T.);
#398=ORIENTED_EDGE('',*,*,#765,.T.);
#399=ORIENTED_EDGE('',*,*,#766,.F.);
#400=ORIENTED_EDGE('',*,*,#767,.T.);
#401=ORIENTED_EDGE('',*,*,#766,.T.);
#402=ORIENTED_EDGE('',*,*,#768,.T.);
#403=ORIENTED_EDGE('',*,*,#769,.F.);
#404=ORIENTED_EDGE('',*,*,#762,.F.);
#405=ORIENTED_EDGE('',*,*,#770,.F.);
#406=ORIENTED_EDGE('',*,*,#769,.T.);
#407=ORIENTED_EDGE('',*,*,#771,.F.);
#408=ORIENTED_EDGE('',*,*,#772,.F.);
#409=ORIENTED_EDGE('',*,*,#773,.F.);
#410=ORIENTED_EDGE('',*,*,#774,.T.);
#411=ORIENTED_EDGE('',*,*,#775,.F.);
#412=ORIENTED_EDGE('',*,*,#776,.T.);
#413=ORIENTED_EDGE('',*,*,#772,.T.);
#414=ORIENTED_EDGE('',*,*,#777,.T.);
#415=ORIENTED_EDGE('',*,*,#778,.F.);
#416=ORIENTED_EDGE('',*,*,#779,.T.);
#417=ORIENTED_EDGE('',*,*,#778,.T.);
#418=ORIENTED_EDGE('',*,*,#780,.T.);
#419=ORIENTED_EDGE('',*,*,#781,.F.);
#420=ORIENTED_EDGE('',*,*,#774,.F.);
#421=ORIENTED_EDGE('',*,*,#782,.F.);
#422=ORIENTED_EDGE('',*,*,#781,.T.);
#423=ORIENTED_EDGE('',*,*,#783,.F.);
#424=ORIENTED_EDGE('',*,*,#784,.F.);
#425=ORIENTED_EDGE('',*,*,#785,.F.);
#426=ORIENTED_EDGE('',*,*,#786,.T.);
#427=ORIENTED_EDGE('',*,*,#787,.F.);
#428=ORIENTED_EDGE('',*,*,#788,.T.);
#429=ORIENTED_EDGE('',*,*,#784,.T.);
#430=ORIENTED_EDGE('',*,*,#789,.T.);
#431=ORIENTED_EDGE('',*,*,#790,.F.);
#432=ORIENTED_EDGE('',*,*,#791,.T.);
#433=ORIENTED_EDGE('',*,*,#790,.T.);
#434=ORIENTED_EDGE('',*,*,#792,.T.);
#435=ORIENTED_EDGE('',*,*,#793,.F.);
#436=ORIENTED_EDGE('',*,*,#786,.F.);
#437=ORIENTED_EDGE('',*,*,#794,.F.);
#438=ORIENTED_EDGE('',*,*,#793,.T.);
#439=ORIENTED_EDGE('',*,*,#795,.F.);
#440=ORIENTED_EDGE('',*,*,#796,.F.);
#441=ORIENTED_EDGE('',*,*,#797,.F.);
#442=ORIENTED_EDGE('',*,*,#798,.T.);
#443=ORIENTED_EDGE('',*,*,#799,.F.);
#444=ORIENTED_EDGE('',*,*,#800,.T.);
#445=ORIENTED_EDGE('',*,*,#796,.T.);
#446=ORIENTED_EDGE('',*,*,#801,.T.);
#447=ORIENTED_EDGE('',*,*,#802,.F.);
#448=ORIENTED_EDGE('',*,*,#803,.T.);
#449=ORIENTED_EDGE('',*,*,#802,.T.);
#450=ORIENTED_EDGE('',*,*,#804,.T.);
#451=ORIENTED_EDGE('',*,*,#805,.F.);
#452=ORIENTED_EDGE('',*,*,#798,.F.);
#453=ORIENTED_EDGE('',*,*,#806,.F.);
#454=ORIENTED_EDGE('',*,*,#805,.T.);
#455=ORIENTED_EDGE('',*,*,#807,.F.);
#456=ORIENTED_EDGE('',*,*,#808,.F.);
#457=ORIENTED_EDGE('',*,*,#809,.F.);
#458=ORIENTED_EDGE('',*,*,#810,.T.);
#459=ORIENTED_EDGE('',*,*,#811,.F.);
#460=ORIENTED_EDGE('',*,*,#812,.T.);
#461=ORIENTED_EDGE('',*,*,#808,.T.);
#462=ORIENTED_EDGE('',*,*,#813,.T.);
#463=ORIENTED_EDGE('',*,*,#814,.F.);
#464=ORIENTED_EDGE('',*,*,#815,.T.);
#465=ORIENTED_EDGE('',*,*,#814,.T.);
#466=ORIENTED_EDGE('',*,*,#816,.T.);
#467=ORIENTED_EDGE('',*,*,#817,.F.);
#468=ORIENTED_EDGE('',*,*,#810,.F.);
#469=ORIENTED_EDGE('',*,*,#818,.F.);
#470=ORIENTED_EDGE('',*,*,#817,.T.);
#471=ORIENTED_EDGE('',*,*,#819,.F.);
#472=ORIENTED_EDGE('',*,*,#799,.T.);
#473=ORIENTED_EDGE('',*,*,#807,.T.);
#474=ORIENTED_EDGE('',*,*,#804,.F.);
#475=ORIENTED_EDGE('',*,*,#801,.F.);
#476=ORIENTED_EDGE('',*,*,#775,.T.);
#477=ORIENTED_EDGE('',*,*,#783,.T.);
#478=ORIENTED_EDGE('',*,*,#780,.F.);
#479=ORIENTED_EDGE('',*,*,#777,.F.);
#480=ORIENTED_EDGE('',*,*,#759,.T.);
#481=ORIENTED_EDGE('',*,*,#820,.T.);
#482=ORIENTED_EDGE('',*,*,#821,.F.);
#483=ORIENTED_EDGE('',*,*,#822,.F.);
#484=ORIENTED_EDGE('',*,*,#823,.F.);
#485=ORIENTED_EDGE('',*,*,#824,.F.);
#486=ORIENTED_EDGE('',*,*,#825,.F.);
#487=ORIENTED_EDGE('',*,*,#826,.T.);
#488=ORIENTED_EDGE('',*,*,#827,.T.);
#489=ORIENTED_EDGE('',*,*,#828,.T.);
#490=ORIENTED_EDGE('',*,*,#829,.T.);
#491=ORIENTED_EDGE('',*,*,#830,.T.);
#492=ORIENTED_EDGE('',*,*,#831,.F.);
#493=ORIENTED_EDGE('',*,*,#832,.T.);
#494=ORIENTED_EDGE('',*,*,#763,.T.);
#495=ORIENTED_EDGE('',*,*,#771,.T.);
#496=ORIENTED_EDGE('',*,*,#768,.F.);
#497=ORIENTED_EDGE('',*,*,#765,.F.);
#498=ORIENTED_EDGE('',*,*,#787,.T.);
#499=ORIENTED_EDGE('',*,*,#795,.T.);
#500=ORIENTED_EDGE('',*,*,#792,.F.);
#501=ORIENTED_EDGE('',*,*,#789,.F.);
#502=ORIENTED_EDGE('',*,*,#811,.T.);
#503=ORIENTED_EDGE('',*,*,#819,.T.);
#504=ORIENTED_EDGE('',*,*,#816,.F.);
#505=ORIENTED_EDGE('',*,*,#813,.F.);
#506=ORIENTED_EDGE('',*,*,#833,.F.);
#507=ORIENTED_EDGE('',*,*,#834,.F.);
#508=ORIENTED_EDGE('',*,*,#835,.T.);
#509=ORIENTED_EDGE('',*,*,#836,.T.);
#510=ORIENTED_EDGE('',*,*,#837,.T.);
#511=ORIENTED_EDGE('',*,*,#838,.T.);
#512=ORIENTED_EDGE('',*,*,#839,.T.);
#513=ORIENTED_EDGE('',*,*,#840,.F.);
#514=ORIENTED_EDGE('',*,*,#841,.T.);
#515=ORIENTED_EDGE('',*,*,#842,.F.);
#516=ORIENTED_EDGE('',*,*,#843,.T.);
#517=ORIENTED_EDGE('',*,*,#844,.T.);
#518=ORIENTED_EDGE('',*,*,#845,.F.);
#519=ORIENTED_EDGE('',*,*,#827,.F.);
#520=ORIENTED_EDGE('',*,*,#846,.T.);
#521=ORIENTED_EDGE('',*,*,#834,.T.);
#522=ORIENTED_EDGE('',*,*,#847,.T.);
#523=ORIENTED_EDGE('',*,*,#836,.F.);
#524=ORIENTED_EDGE('',*,*,#848,.T.);
#525=ORIENTED_EDGE('',*,*,#825,.T.);
#526=ORIENTED_EDGE('',*,*,#849,.T.);
#527=ORIENTED_EDGE('',*,*,#831,.T.);
#528=ORIENTED_EDGE('',*,*,#850,.T.);
#529=ORIENTED_EDGE('',*,*,#838,.F.);
#530=ORIENTED_EDGE('',*,*,#851,.T.);
#531=ORIENTED_EDGE('',*,*,#829,.F.);
#532=ORIENTED_EDGE('',*,*,#852,.T.);
#533=ORIENTED_EDGE('',*,*,#840,.T.);
#534=ORIENTED_EDGE('',*,*,#853,.T.);
#535=ORIENTED_EDGE('',*,*,#843,.F.);
#536=ORIENTED_EDGE('',*,*,#854,.F.);
#537=ORIENTED_EDGE('',*,*,#855,.T.);
#538=ORIENTED_EDGE('',*,*,#856,.T.);
#539=ORIENTED_EDGE('',*,*,#842,.T.);
#540=ORIENTED_EDGE('',*,*,#857,.F.);
#541=ORIENTED_EDGE('',*,*,#858,.F.);
#542=ORIENTED_EDGE('',*,*,#854,.T.);
#543=ORIENTED_EDGE('',*,*,#845,.T.);
#544=ORIENTED_EDGE('',*,*,#859,.F.);
#545=ORIENTED_EDGE('',*,*,#860,.F.);
#546=ORIENTED_EDGE('',*,*,#857,.T.);
#547=ORIENTED_EDGE('',*,*,#728,.F.);
#548=ORIENTED_EDGE('',*,*,#861,.F.);
#549=ORIENTED_EDGE('',*,*,#862,.F.);
#550=ORIENTED_EDGE('',*,*,#863,.F.);
#551=ORIENTED_EDGE('',*,*,#864,.T.);
#552=ORIENTED_EDGE('',*,*,#865,.T.);
#553=ORIENTED_EDGE('',*,*,#863,.T.);
#554=ORIENTED_EDGE('',*,*,#866,.T.);
#555=ORIENTED_EDGE('',*,*,#867,.F.);
#556=ORIENTED_EDGE('',*,*,#868,.F.);
#557=ORIENTED_EDGE('',*,*,#867,.T.);
#558=ORIENTED_EDGE('',*,*,#869,.T.);
#559=ORIENTED_EDGE('',*,*,#870,.T.);
#560=ORIENTED_EDGE('',*,*,#726,.T.);
#561=ORIENTED_EDGE('',*,*,#871,.F.);
#562=ORIENTED_EDGE('',*,*,#872,.T.);
#563=ORIENTED_EDGE('',*,*,#873,.T.);
#564=ORIENTED_EDGE('',*,*,#730,.T.);
#565=ORIENTED_EDGE('',*,*,#874,.F.);
#566=ORIENTED_EDGE('',*,*,#875,.F.);
#567=ORIENTED_EDGE('',*,*,#729,.F.);
#568=ORIENTED_EDGE('',*,*,#865,.F.);
#569=ORIENTED_EDGE('',*,*,#876,.T.);
#570=ORIENTED_EDGE('',*,*,#874,.T.);
#571=ORIENTED_EDGE('',*,*,#844,.F.);
#572=ORIENTED_EDGE('',*,*,#856,.F.);
#573=ORIENTED_EDGE('',*,*,#877,.T.);
#574=ORIENTED_EDGE('',*,*,#859,.T.);
#575=ORIENTED_EDGE('',*,*,#864,.F.);
#576=ORIENTED_EDGE('',*,*,#868,.T.);
#577=ORIENTED_EDGE('',*,*,#875,.T.);
#578=ORIENTED_EDGE('',*,*,#876,.F.);
#579=ORIENTED_EDGE('',*,*,#855,.F.);
#580=ORIENTED_EDGE('',*,*,#858,.T.);
#581=ORIENTED_EDGE('',*,*,#860,.T.);
#582=ORIENTED_EDGE('',*,*,#877,.F.);
#583=ORIENTED_EDGE('',*,*,#724,.F.);
#584=ORIENTED_EDGE('',*,*,#824,.T.);
#585=ORIENTED_EDGE('',*,*,#725,.F.);
#586=ORIENTED_EDGE('',*,*,#823,.T.);
#587=ORIENTED_EDGE('',*,*,#822,.T.);
#588=ORIENTED_EDGE('',*,*,#878,.F.);
#589=ORIENTED_EDGE('',*,*,#731,.F.);
#590=ORIENTED_EDGE('',*,*,#873,.F.);
#591=ORIENTED_EDGE('',*,*,#879,.F.);
#592=ORIENTED_EDGE('',*,*,#756,.T.);
#593=ORIENTED_EDGE('',*,*,#821,.T.);
#594=ORIENTED_EDGE('',*,*,#880,.F.);
#595=ORIENTED_EDGE('',*,*,#732,.F.);
#596=ORIENTED_EDGE('',*,*,#878,.T.);
#597=ORIENTED_EDGE('',*,*,#820,.F.);
#598=ORIENTED_EDGE('',*,*,#758,.F.);
#599=ORIENTED_EDGE('',*,*,#881,.T.);
#600=ORIENTED_EDGE('',*,*,#871,.T.);
#601=ORIENTED_EDGE('',*,*,#733,.T.);
#602=ORIENTED_EDGE('',*,*,#880,.T.);
#603=ORIENTED_EDGE('',*,*,#882,.T.);
#604=ORIENTED_EDGE('',*,*,#883,.T.);
#605=ORIENTED_EDGE('',*,*,#884,.T.);
#606=ORIENTED_EDGE('',*,*,#885,.T.);
#607=ORIENTED_EDGE('',*,*,#886,.F.);
#608=ORIENTED_EDGE('',*,*,#887,.T.);
#609=ORIENTED_EDGE('',*,*,#888,.F.);
#610=ORIENTED_EDGE('',*,*,#889,.T.);
#611=ORIENTED_EDGE('',*,*,#890,.T.);
#612=ORIENTED_EDGE('',*,*,#891,.T.);
#613=ORIENTED_EDGE('',*,*,#882,.F.);
#614=ORIENTED_EDGE('',*,*,#833,.T.);
#615=ORIENTED_EDGE('',*,*,#892,.T.);
#616=ORIENTED_EDGE('',*,*,#893,.F.);
#617=ORIENTED_EDGE('',*,*,#894,.F.);
#618=ORIENTED_EDGE('',*,*,#889,.F.);
#619=ORIENTED_EDGE('',*,*,#895,.T.);
#620=ORIENTED_EDGE('',*,*,#896,.F.);
#621=ORIENTED_EDGE('',*,*,#897,.F.);
#622=ORIENTED_EDGE('',*,*,#885,.F.);
#623=ORIENTED_EDGE('',*,*,#898,.F.);
#624=ORIENTED_EDGE('',*,*,#899,.F.);
#625=ORIENTED_EDGE('',*,*,#886,.T.);
#626=ORIENTED_EDGE('',*,*,#897,.T.);
#627=ORIENTED_EDGE('',*,*,#899,.T.);
#628=ORIENTED_EDGE('',*,*,#900,.T.);
#629=ORIENTED_EDGE('',*,*,#901,.F.);
#630=ORIENTED_EDGE('',*,*,#887,.F.);
#631=ORIENTED_EDGE('',*,*,#902,.F.);
#632=ORIENTED_EDGE('',*,*,#895,.F.);
#633=ORIENTED_EDGE('',*,*,#888,.T.);
#634=ORIENTED_EDGE('',*,*,#901,.T.);
#635=ORIENTED_EDGE('',*,*,#894,.T.);
#636=ORIENTED_EDGE('',*,*,#903,.T.);
#637=ORIENTED_EDGE('',*,*,#904,.F.);
#638=ORIENTED_EDGE('',*,*,#890,.F.);
#639=ORIENTED_EDGE('',*,*,#904,.T.);
#640=ORIENTED_EDGE('',*,*,#905,.T.);
#641=ORIENTED_EDGE('',*,*,#906,.F.);
#642=ORIENTED_EDGE('',*,*,#891,.F.);
#643=ORIENTED_EDGE('',*,*,#906,.T.);
#644=ORIENTED_EDGE('',*,*,#907,.T.);
#645=ORIENTED_EDGE('',*,*,#892,.F.);
#646=ORIENTED_EDGE('',*,*,#884,.F.);
#647=ORIENTED_EDGE('',*,*,#903,.F.);
#648=ORIENTED_EDGE('',*,*,#893,.T.);
#649=ORIENTED_EDGE('',*,*,#907,.F.);
#650=ORIENTED_EDGE('',*,*,#905,.F.);
#651=ORIENTED_EDGE('',*,*,#896,.T.);
#652=ORIENTED_EDGE('',*,*,#902,.T.);
#653=ORIENTED_EDGE('',*,*,#900,.F.);
#654=ORIENTED_EDGE('',*,*,#898,.T.);
#655=ORIENTED_EDGE('',*,*,#736,.T.);
#656=ORIENTED_EDGE('',*,*,#908,.T.);
#657=ORIENTED_EDGE('',*,*,#741,.F.);
#658=ORIENTED_EDGE('',*,*,#909,.F.);
#659=ORIENTED_EDGE('',*,*,#761,.T.);
#660=ORIENTED_EDGE('',*,*,#764,.F.);
#661=ORIENTED_EDGE('',*,*,#767,.F.);
#662=ORIENTED_EDGE('',*,*,#770,.T.);
#663=ORIENTED_EDGE('',*,*,#788,.F.);
#664=ORIENTED_EDGE('',*,*,#791,.F.);
#665=ORIENTED_EDGE('',*,*,#794,.T.);
#666=ORIENTED_EDGE('',*,*,#785,.T.);
#667=ORIENTED_EDGE('',*,*,#812,.F.);
#668=ORIENTED_EDGE('',*,*,#815,.F.);
#669=ORIENTED_EDGE('',*,*,#818,.T.);
#670=ORIENTED_EDGE('',*,*,#809,.T.);
#671=ORIENTED_EDGE('',*,*,#737,.F.);
#672=ORIENTED_EDGE('',*,*,#909,.T.);
#673=ORIENTED_EDGE('',*,*,#740,.T.);
#674=ORIENTED_EDGE('',*,*,#744,.T.);
#675=ORIENTED_EDGE('',*,*,#747,.F.);
#676=ORIENTED_EDGE('',*,*,#750,.F.);
#677=ORIENTED_EDGE('',*,*,#753,.T.);
#678=ORIENTED_EDGE('',*,*,#755,.T.);
#679=ORIENTED_EDGE('',*,*,#773,.T.);
#680=ORIENTED_EDGE('',*,*,#776,.F.);
#681=ORIENTED_EDGE('',*,*,#779,.F.);
#682=ORIENTED_EDGE('',*,*,#782,.T.);
#683=ORIENTED_EDGE('',*,*,#806,.T.);
#684=ORIENTED_EDGE('',*,*,#797,.T.);
#685=ORIENTED_EDGE('',*,*,#800,.F.);
#686=ORIENTED_EDGE('',*,*,#803,.F.);
#687=ORIENTED_EDGE('',*,*,#835,.F.);
#688=ORIENTED_EDGE('',*,*,#846,.F.);
#689=ORIENTED_EDGE('',*,*,#826,.F.);
#690=ORIENTED_EDGE('',*,*,#848,.F.);
#691=ORIENTED_EDGE('',*,*,#841,.F.);
#692=ORIENTED_EDGE('',*,*,#852,.F.);
#693=ORIENTED_EDGE('',*,*,#828,.F.);
#694=ORIENTED_EDGE('',*,*,#847,.F.);
#695=ORIENTED_EDGE('',*,*,#839,.F.);
#696=ORIENTED_EDGE('',*,*,#850,.F.);
#697=ORIENTED_EDGE('',*,*,#830,.F.);
#698=ORIENTED_EDGE('',*,*,#853,.F.);
#699=ORIENTED_EDGE('',*,*,#837,.F.);
#700=ORIENTED_EDGE('',*,*,#849,.F.);
#701=ORIENTED_EDGE('',*,*,#832,.F.);
#702=ORIENTED_EDGE('',*,*,#851,.F.);
#703=ORIENTED_EDGE('',*,*,#881,.F.);
#704=ORIENTED_EDGE('',*,*,#757,.F.);
#705=ORIENTED_EDGE('',*,*,#879,.T.);
#706=ORIENTED_EDGE('',*,*,#872,.F.);
#707=ORIENTED_EDGE('',*,*,#727,.F.);
#708=ORIENTED_EDGE('',*,*,#870,.F.);
#709=ORIENTED_EDGE('',*,*,#910,.T.);
#710=ORIENTED_EDGE('',*,*,#861,.T.);
#711=ORIENTED_EDGE('',*,*,#862,.T.);
#712=ORIENTED_EDGE('',*,*,#910,.F.);
#713=ORIENTED_EDGE('',*,*,#869,.F.);
#714=ORIENTED_EDGE('',*,*,#866,.F.);
#715=ORIENTED_EDGE('',*,*,#748,.T.);
#716=ORIENTED_EDGE('',*,*,#745,.T.);
#717=ORIENTED_EDGE('',*,*,#742,.F.);
#718=ORIENTED_EDGE('',*,*,#738,.F.);
#719=ORIENTED_EDGE('',*,*,#908,.F.);
#720=ORIENTED_EDGE('',*,*,#735,.T.);
#721=ORIENTED_EDGE('',*,*,#754,.F.);
#722=ORIENTED_EDGE('',*,*,#751,.F.);
#723=ORIENTED_EDGE('',*,*,#883,.F.);
#724=EDGE_CURVE('',#911,#911,#1038,.T.);
#725=EDGE_CURVE('',#912,#912,#1039,.T.);
#726=EDGE_CURVE('',#913,#914,#22,.T.);
#727=EDGE_CURVE('',#913,#915,#23,.T.);
#728=EDGE_CURVE('',#915,#916,#24,.T.);
#729=EDGE_CURVE('',#916,#917,#25,.T.);
#730=EDGE_CURVE('',#918,#917,#26,.T.);
#731=EDGE_CURVE('',#918,#919,#27,.T.);
#732=EDGE_CURVE('',#919,#920,#28,.T.);
#733=EDGE_CURVE('',#914,#920,#29,.T.);
#734=EDGE_CURVE('',#921,#922,#30,.T.);
#735=EDGE_CURVE('',#923,#922,#31,.T.);
#736=EDGE_CURVE('',#924,#923,#32,.T.);
#737=EDGE_CURVE('',#924,#921,#33,.T.);
#738=EDGE_CURVE('',#925,#926,#34,.T.);
#739=EDGE_CURVE('',#927,#926,#35,.T.);
#740=EDGE_CURVE('',#928,#927,#36,.T.);
#741=EDGE_CURVE('',#928,#925,#37,.T.);
#742=EDGE_CURVE('',#926,#929,#38,.T.);
#743=EDGE_CURVE('',#930,#929,#39,.T.);
#744=EDGE_CURVE('',#927,#930,#40,.T.);
#745=EDGE_CURVE('',#931,#929,#41,.T.);
#746=EDGE_CURVE('',#932,#931,#42,.T.);
#747=EDGE_CURVE('',#932,#930,#43,.T.);
#748=EDGE_CURVE('',#933,#931,#44,.T.);
#749=EDGE_CURVE('',#934,#933,#45,.T.);
#750=EDGE_CURVE('',#934,#932,#46,.T.);
#751=EDGE_CURVE('',#933,#935,#47,.T.);
#752=EDGE_CURVE('',#936,#935,#48,.T.);
#753=EDGE_CURVE('',#934,#936,#49,.T.);
#754=EDGE_CURVE('',#935,#922,#50,.T.);
#755=EDGE_CURVE('',#936,#921,#51,.T.);
#756=EDGE_CURVE('',#937,#938,#52,.T.);
#757=EDGE_CURVE('',#937,#939,#53,.T.);
#758=EDGE_CURVE('',#939,#940,#54,.T.);
#759=EDGE_CURVE('',#938,#940,#55,.T.);
#760=EDGE_CURVE('',#941,#942,#56,.T.);
#761=EDGE_CURVE('',#943,#941,#57,.T.);
#762=EDGE_CURVE('',#943,#944,#58,.T.);
#763=EDGE_CURVE('',#942,#944,#59,.T.);
#764=EDGE_CURVE('',#945,#941,#60,.T.);
#765=EDGE_CURVE('',#942,#946,#61,.T.);
#766=EDGE_CURVE('',#945,#946,#62,.T.);
#767=EDGE_CURVE('',#947,#945,#63,.T.);
#768=EDGE_CURVE('',#946,#948,#64,.T.);
#769=EDGE_CURVE('',#947,#948,#65,.T.);
#770=EDGE_CURVE('',#947,#943,#66,.T.);
#771=EDGE_CURVE('',#944,#948,#67,.T.);
#772=EDGE_CURVE('',#949,#950,#68,.T.);
#773=EDGE_CURVE('',#951,#949,#69,.T.);
#774=EDGE_CURVE('',#951,#952,#70,.T.);
#775=EDGE_CURVE('',#950,#952,#71,.T.);
#776=EDGE_CURVE('',#953,#949,#72,.T.);
#777=EDGE_CURVE('',#950,#954,#73,.T.);
#778=EDGE_CURVE('',#953,#954,#74,.T.);
#779=EDGE_CURVE('',#955,#953,#75,.T.);
#780=EDGE_CURVE('',#954,#956,#76,.T.);
#781=EDGE_CURVE('',#955,#956,#77,.T.);
#782=EDGE_CURVE('',#955,#951,#78,.T.);
#783=EDGE_CURVE('',#952,#956,#79,.T.);
#784=EDGE_CURVE('',#957,#958,#80,.T.);
#785=EDGE_CURVE('',#959,#957,#81,.T.);
#786=EDGE_CURVE('',#959,#960,#82,.T.);
#787=EDGE_CURVE('',#958,#960,#83,.T.);
#788=EDGE_CURVE('',#961,#957,#84,.T.);
#789=EDGE_CURVE('',#958,#962,#85,.T.);
#790=EDGE_CURVE('',#961,#962,#86,.T.);
#791=EDGE_CURVE('',#963,#961,#87,.T.);
#792=EDGE_CURVE('',#962,#964,#88,.T.);
#793=EDGE_CURVE('',#963,#964,#89,.T.);
#794=EDGE_CURVE('',#963,#959,#90,.T.);
#795=EDGE_CURVE('',#960,#964,#91,.T.);
#796=EDGE_CURVE('',#965,#966,#92,.T.);
#797=EDGE_CURVE('',#967,#965,#93,.T.);
#798=EDGE_CURVE('',#967,#968,#94,.T.);
#799=EDGE_CURVE('',#966,#968,#95,.T.);
#800=EDGE_CURVE('',#969,#965,#96,.T.);
#801=EDGE_CURVE('',#966,#970,#97,.T.);
#802=EDGE_CURVE('',#969,#970,#98,.T.);
#803=EDGE_CURVE('',#971,#969,#99,.T.);
#804=EDGE_CURVE('',#970,#972,#100,.T.);
#805=EDGE_CURVE('',#971,#972,#101,.T.);
#806=EDGE_CURVE('',#971,#967,#102,.T.);
#807=EDGE_CURVE('',#968,#972,#103,.T.);
#808=EDGE_CURVE('',#973,#974,#104,.T.);
#809=EDGE_CURVE('',#975,#973,#105,.T.);
#810=EDGE_CURVE('',#975,#976,#106,.T.);
#811=EDGE_CURVE('',#974,#976,#107,.T.);
#812=EDGE_CURVE('',#977,#973,#108,.T.);
#813=EDGE_CURVE('',#974,#978,#109,.T.);
#814=EDGE_CURVE('',#977,#978,#110,.T.);
#815=EDGE_CURVE('',#979,#977,#111,.T.);
#816=EDGE_CURVE('',#978,#980,#112,.T.);
#817=EDGE_CURVE('',#979,#980,#113,.T.);
#818=EDGE_CURVE('',#979,#975,#114,.T.);
#819=EDGE_CURVE('',#976,#980,#115,.T.);
#820=EDGE_CURVE('',#940,#981,#116,.T.);
#821=EDGE_CURVE('',#982,#981,#117,.T.);
#822=EDGE_CURVE('',#938,#982,#118,.T.);
#823=EDGE_CURVE('',#983,#983,#1040,.T.);
#824=EDGE_CURVE('',#984,#984,#1041,.T.);
#825=EDGE_CURVE('',#985,#986,#119,.T.);
#826=EDGE_CURVE('',#985,#987,#1042,.F.);
#827=EDGE_CURVE('',#987,#988,#120,.T.);
#828=EDGE_CURVE('',#988,#989,#1043,.F.);
#829=EDGE_CURVE('',#989,#990,#121,.T.);
#830=EDGE_CURVE('',#990,#991,#1044,.F.);
#831=EDGE_CURVE('',#992,#991,#122,.T.);
#832=EDGE_CURVE('',#992,#986,#1045,.F.);
#833=EDGE_CURVE('',#993,#993,#1046,.T.);
#834=EDGE_CURVE('',#994,#995,#123,.T.);
#835=EDGE_CURVE('',#994,#996,#1047,.T.);
#836=EDGE_CURVE('',#996,#997,#124,.T.);
#837=EDGE_CURVE('',#997,#998,#1048,.T.);
#838=EDGE_CURVE('',#998,#999,#125,.T.);
#839=EDGE_CURVE('',#999,#1000,#1049,.T.);
#840=EDGE_CURVE('',#1001,#1000,#126,.T.);
#841=EDGE_CURVE('',#1001,#995,#1050,.T.);
#842=EDGE_CURVE('',#1002,#1003,#127,.T.);
#843=EDGE_CURVE('',#1002,#1004,#128,.T.);
#844=EDGE_CURVE('',#1004,#1005,#129,.T.);
#845=EDGE_CURVE('',#1003,#1005,#130,.T.);
#846=EDGE_CURVE('',#987,#994,#131,.F.);
#847=EDGE_CURVE('',#995,#988,#132,.T.);
#848=EDGE_CURVE('',#996,#985,#133,.T.);
#849=EDGE_CURVE('',#986,#997,#134,.F.);
#850=EDGE_CURVE('',#991,#999,#135,.F.);
#851=EDGE_CURVE('',#998,#992,#136,.T.);
#852=EDGE_CURVE('',#989,#1001,#137,.F.);
#853=EDGE_CURVE('',#1000,#990,#138,.T.);
#854=EDGE_CURVE('',#1006,#1002,#139,.T.);
#855=EDGE_CURVE('',#1006,#1007,#140,.T.);
#856=EDGE_CURVE('',#1007,#1004,#141,.T.);
#857=EDGE_CURVE('',#1008,#1003,#142,.T.);
#858=EDGE_CURVE('',#1006,#1008,#143,.T.);
#859=EDGE_CURVE('',#1009,#1005,#144,.T.);
#860=EDGE_CURVE('',#1008,#1009,#145,.T.);
#861=EDGE_CURVE('',#1010,#915,#146,.T.);
#862=EDGE_CURVE('',#1011,#1010,#147,.T.);
#863=EDGE_CURVE('',#1012,#1011,#148,.T.);
#864=EDGE_CURVE('',#1012,#1013,#149,.T.);
#865=EDGE_CURVE('',#1013,#916,#150,.T.);
#866=EDGE_CURVE('',#1011,#1014,#151,.T.);
#867=EDGE_CURVE('',#1015,#1014,#152,.T.);
#868=EDGE_CURVE('',#1012,#1015,#153,.T.);
#869=EDGE_CURVE('',#1014,#1016,#154,.T.);
#870=EDGE_CURVE('',#1016,#913,#155,.T.);
#871=EDGE_CURVE('',#1017,#914,#156,.T.);
#872=EDGE_CURVE('',#1017,#1018,#157,.T.);
#873=EDGE_CURVE('',#1018,#918,#158,.T.);
#874=EDGE_CURVE('',#1019,#917,#159,.T.);
#875=EDGE_CURVE('',#1015,#1019,#160,.T.);
#876=EDGE_CURVE('',#1013,#1019,#161,.T.);
#877=EDGE_CURVE('',#1007,#1009,#162,.T.);
#878=EDGE_CURVE('',#919,#982,#163,.T.);
#879=EDGE_CURVE('',#937,#1018,#164,.T.);
#880=EDGE_CURVE('',#920,#981,#165,.T.);
#881=EDGE_CURVE('',#939,#1017,#166,.T.);
#882=EDGE_CURVE('',#1020,#1020,#1051,.T.);
#883=EDGE_CURVE('',#1021,#1021,#1052,.T.);
#884=EDGE_CURVE('',#1022,#1023,#167,.T.);
#885=EDGE_CURVE('',#1023,#1024,#1053,.T.);
#886=EDGE_CURVE('',#1025,#1024,#168,.T.);
#887=EDGE_CURVE('',#1025,#1026,#1054,.T.);
#888=EDGE_CURVE('',#1027,#1026,#169,.T.);
#889=EDGE_CURVE('',#1027,#1028,#1055,.T.);
#890=EDGE_CURVE('',#1028,#1029,#170,.T.);
#891=EDGE_CURVE('',#1029,#1022,#1056,.T.);
#892=EDGE_CURVE('',#1023,#1030,#171,.T.);
#893=EDGE_CURVE('',#1031,#1030,#1057,.T.);
#894=EDGE_CURVE('',#1028,#1031,#172,.T.);
#895=EDGE_CURVE('',#1027,#1032,#173,.T.);
#896=EDGE_CURVE('',#1033,#1032,#1058,.T.);
#897=EDGE_CURVE('',#1024,#1033,#174,.T.);
#898=EDGE_CURVE('',#1034,#1033,#175,.T.);
#899=EDGE_CURVE('',#1025,#1034,#176,.T.);
#900=EDGE_CURVE('',#1034,#1035,#1059,.T.);
#901=EDGE_CURVE('',#1026,#1035,#177,.T.);
#902=EDGE_CURVE('',#1032,#1035,#178,.T.);
#903=EDGE_CURVE('',#1031,#1036,#179,.T.);
#904=EDGE_CURVE('',#1029,#1036,#180,.T.);
#905=EDGE_CURVE('',#1036,#1037,#1060,.T.);
#906=EDGE_CURVE('',#1022,#1037,#181,.T.);
#907=EDGE_CURVE('',#1037,#1030,#182,.T.);
#908=EDGE_CURVE('',#923,#925,#183,.T.);
#909=EDGE_CURVE('',#924,#928,#184,.T.);
#910=EDGE_CURVE('',#1016,#1010,#185,.T.);
#911=VERTEX_POINT('',#1835);
#912=VERTEX_POINT('',#1837);
#913=VERTEX_POINT('',#1839);
#914=VERTEX_POINT('',#1840);
#915=VERTEX_POINT('',#1842);
#916=VERTEX_POINT('',#1844);
#917=VERTEX_POINT('',#1846);
#918=VERTEX_POINT('',#1848);
#919=VERTEX_POINT('',#1850);
#920=VERTEX_POINT('',#1852);
#921=VERTEX_POINT('',#1856);
#922=VERTEX_POINT('',#1857);
#923=VERTEX_POINT('',#1859);
#924=VERTEX_POINT('',#1861);
#925=VERTEX_POINT('',#1865);
#926=VERTEX_POINT('',#1866);
#927=VERTEX_POINT('',#1868);
#928=VERTEX_POINT('',#1870);
#929=VERTEX_POINT('',#1874);
#930=VERTEX_POINT('',#1876);
#931=VERTEX_POINT('',#1880);
#932=VERTEX_POINT('',#1882);
#933=VERTEX_POINT('',#1886);
#934=VERTEX_POINT('',#1888);
#935=VERTEX_POINT('',#1892);
#936=VERTEX_POINT('',#1894);
#937=VERTEX_POINT('',#1901);
#938=VERTEX_POINT('',#1902);
#939=VERTEX_POINT('',#1904);
#940=VERTEX_POINT('',#1906);
#941=VERTEX_POINT('',#1910);
#942=VERTEX_POINT('',#1911);
#943=VERTEX_POINT('',#1913);
#944=VERTEX_POINT('',#1915);
#945=VERTEX_POINT('',#1919);
#946=VERTEX_POINT('',#1921);
#947=VERTEX_POINT('',#1925);
#948=VERTEX_POINT('',#1927);
#949=VERTEX_POINT('',#1934);
#950=VERTEX_POINT('',#1935);
#951=VERTEX_POINT('',#1937);
#952=VERTEX_POINT('',#1939);
#953=VERTEX_POINT('',#1943);
#954=VERTEX_POINT('',#1945);
#955=VERTEX_POINT('',#1949);
#956=VERTEX_POINT('',#1951);
#957=VERTEX_POINT('',#1958);
#958=VERTEX_POINT('',#1959);
#959=VERTEX_POINT('',#1961);
#960=VERTEX_POINT('',#1963);
#961=VERTEX_POINT('',#1967);
#962=VERTEX_POINT('',#1969);
#963=VERTEX_POINT('',#1973);
#964=VERTEX_POINT('',#1975);
#965=VERTEX_POINT('',#1982);
#966=VERTEX_POINT('',#1983);
#967=VERTEX_POINT('',#1985);
#968=VERTEX_POINT('',#1987);
#969=VERTEX_POINT('',#1991);
#970=VERTEX_POINT('',#1993);
#971=VERTEX_POINT('',#1997);
#972=VERTEX_POINT('',#1999);
#973=VERTEX_POINT('',#2006);
#974=VERTEX_POINT('',#2007);
#975=VERTEX_POINT('',#2009);
#976=VERTEX_POINT('',#2011);
#977=VERTEX_POINT('',#2015);
#978=VERTEX_POINT('',#2017);
#979=VERTEX_POINT('',#2021);
#980=VERTEX_POINT('',#2023);
#981=VERTEX_POINT('',#2030);
#982=VERTEX_POINT('',#2032);
#983=VERTEX_POINT('',#2035);
#984=VERTEX_POINT('',#2037);
#985=VERTEX_POINT('',#2039);
#986=VERTEX_POINT('',#2040);
#987=VERTEX_POINT('',#2042);
#988=VERTEX_POINT('',#2044);
#989=VERTEX_POINT('',#2046);
#990=VERTEX_POINT('',#2048);
#991=VERTEX_POINT('',#2050);
#992=VERTEX_POINT('',#2052);
#993=VERTEX_POINT('',#2055);
#994=VERTEX_POINT('',#2058);
#995=VERTEX_POINT('',#2059);
#996=VERTEX_POINT('',#2061);
#997=VERTEX_POINT('',#2063);
#998=VERTEX_POINT('',#2065);
#999=VERTEX_POINT('',#2067);
#1000=VERTEX_POINT('',#2069);
#1001=VERTEX_POINT('',#2071);
#1002=VERTEX_POINT('',#2074);
#1003=VERTEX_POINT('',#2075);
#1004=VERTEX_POINT('',#2077);
#1005=VERTEX_POINT('',#2079);
#1006=VERTEX_POINT('',#2095);
#1007=VERTEX_POINT('',#2097);
#1008=VERTEX_POINT('',#2101);
#1009=VERTEX_POINT('',#2105);
#1010=VERTEX_POINT('',#2109);
#1011=VERTEX_POINT('',#2111);
#1012=VERTEX_POINT('',#2113);
#1013=VERTEX_POINT('',#2115);
#1014=VERTEX_POINT('',#2119);
#1015=VERTEX_POINT('',#2121);
#1016=VERTEX_POINT('',#2125);
#1017=VERTEX_POINT('',#2128);
#1018=VERTEX_POINT('',#2130);
#1019=VERTEX_POINT('',#2133);
#1020=VERTEX_POINT('',#2151);
#1021=VERTEX_POINT('',#2153);
#1022=VERTEX_POINT('',#2156);
#1023=VERTEX_POINT('',#2157);
#1024=VERTEX_POINT('',#2159);
#1025=VERTEX_POINT('',#2161);
#1026=VERTEX_POINT('',#2163);
#1027=VERTEX_POINT('',#2165);
#1028=VERTEX_POINT('',#2167);
#1029=VERTEX_POINT('',#2169);
#1030=VERTEX_POINT('',#2173);
#1031=VERTEX_POINT('',#2175);
#1032=VERTEX_POINT('',#2178);
#1033=VERTEX_POINT('',#2180);
#1034=VERTEX_POINT('',#2184);
#1035=VERTEX_POINT('',#2188);
#1036=VERTEX_POINT('',#2194);
#1037=VERTEX_POINT('',#2198);
#1038=CIRCLE('',#1391,0.00125);
#1039=CIRCLE('',#1392,0.00125);
#1040=CIRCLE('',#1422,0.00125);
#1041=CIRCLE('',#1423,0.00125);
#1042=CIRCLE('',#1424,0.00762);
#1043=CIRCLE('',#1425,0.00762);
#1044=CIRCLE('',#1426,0.00762);
#1045=CIRCLE('',#1427,0.00762);
#1046=CIRCLE('',#1428,0.0061);
#1047=CIRCLE('',#1430,0.00762);
#1048=CIRCLE('',#1431,0.00762);
#1049=CIRCLE('',#1432,0.00762);
#1050=CIRCLE('',#1433,0.00762);
#1051=CIRCLE('',#1453,0.007);
#1052=CIRCLE('',#1454,0.007);
#1053=CIRCLE('',#1456,0.0061);
#1054=CIRCLE('',#1457,0.0045);
#1055=CIRCLE('',#1458,0.0061);
#1056=CIRCLE('',#1459,0.0045);
#1057=CIRCLE('',#1461,0.0061);
#1058=CIRCLE('',#1462,0.0061);
#1059=CIRCLE('',#1465,0.0045);
#1060=CIRCLE('',#1469,0.0045);
#1061=EDGE_LOOP('',(#350));
#1062=EDGE_LOOP('',(#351));
#1063=EDGE_LOOP('',(#352,#353,#354,#355,#356,#357,#358,#359));
#1064=EDGE_LOOP('',(#360,#361,#362,#363));
#1065=EDGE_LOOP('',(#364,#365,#366,#367));
#1066=EDGE_LOOP('',(#368,#369,#370,#371));
#1067=EDGE_LOOP('',(#372,#373,#374,#375));
#1068=EDGE_LOOP('',(#376,#377,#378,#379));
#1069=EDGE_LOOP('',(#380,#381,#382,#383));
#1070=EDGE_LOOP('',(#384,#385,#386,#387));
#1071=EDGE_LOOP('',(#388,#389,#390,#391));
#1072=EDGE_LOOP('',(#392,#393,#394,#395));
#1073=EDGE_LOOP('',(#396,#397,#398,#399));
#1074=EDGE_LOOP('',(#400,#401,#402,#403));
#1075=EDGE_LOOP('',(#404,#405,#406,#407));
#1076=EDGE_LOOP('',(#408,#409,#410,#411));
#1077=EDGE_LOOP('',(#412,#413,#414,#415));
#1078=EDGE_LOOP('',(#416,#417,#418,#419));
#1079=EDGE_LOOP('',(#420,#421,#422,#423));
#1080=EDGE_LOOP('',(#424,#425,#426,#427));
#1081=EDGE_LOOP('',(#428,#429,#430,#431));
#1082=EDGE_LOOP('',(#432,#433,#434,#435));
#1083=EDGE_LOOP('',(#436,#437,#438,#439));
#1084=EDGE_LOOP('',(#440,#441,#442,#443));
#1085=EDGE_LOOP('',(#444,#445,#446,#447));
#1086=EDGE_LOOP('',(#448,#449,#450,#451));
#1087=EDGE_LOOP('',(#452,#453,#454,#455));
#1088=EDGE_LOOP('',(#456,#457,#458,#459));
#1089=EDGE_LOOP('',(#460,#461,#462,#463));
#1090=EDGE_LOOP('',(#464,#465,#466,#467));
#1091=EDGE_LOOP('',(#468,#469,#470,#471));
#1092=EDGE_LOOP('',(#472,#473,#474,#475));
#1093=EDGE_LOOP('',(#476,#477,#478,#479));
#1094=EDGE_LOOP('',(#480,#481,#482,#483));
#1095=EDGE_LOOP('',(#484));
#1096=EDGE_LOOP('',(#485));
#1097=EDGE_LOOP('',(#486,#487,#488,#489,#490,#491,#492,#493));
#1098=EDGE_LOOP('',(#494,#495,#496,#497));
#1099=EDGE_LOOP('',(#498,#499,#500,#501));
#1100=EDGE_LOOP('',(#502,#503,#504,#505));
#1101=EDGE_LOOP('',(#506));
#1102=EDGE_LOOP('',(#507,#508,#509,#510,#511,#512,#513,#514));
#1103=EDGE_LOOP('',(#515,#516,#517,#518));
#1104=EDGE_LOOP('',(#519,#520,#521,#522));
#1105=EDGE_LOOP('',(#523,#524,#525,#526));
#1106=EDGE_LOOP('',(#527,#528,#529,#530));
#1107=EDGE_LOOP('',(#531,#532,#533,#534));
#1108=EDGE_LOOP('',(#535,#536,#537,#538));
#1109=EDGE_LOOP('',(#539,#540,#541,#542));
#1110=EDGE_LOOP('',(#543,#544,#545,#546));
#1111=EDGE_LOOP('',(#547,#548,#549,#550,#551,#552));
#1112=EDGE_LOOP('',(#553,#554,#555,#556));
#1113=EDGE_LOOP('',(#557,#558,#559,#560,#561,#562,#563,#564,#565,#566));
#1114=EDGE_LOOP('',(#567,#568,#569,#570));
#1115=EDGE_LOOP('',(#571,#572,#573,#574));
#1116=EDGE_LOOP('',(#575,#576,#577,#578));
#1117=EDGE_LOOP('',(#579,#580,#581,#582));
#1118=EDGE_LOOP('',(#583));
#1119=EDGE_LOOP('',(#584));
#1120=EDGE_LOOP('',(#585));
#1121=EDGE_LOOP('',(#586));
#1122=EDGE_LOOP('',(#587,#588,#589,#590,#591,#592));
#1123=EDGE_LOOP('',(#593,#594,#595,#596));
#1124=EDGE_LOOP('',(#597,#598,#599,#600,#601,#602));
#1125=EDGE_LOOP('',(#603));
#1126=EDGE_LOOP('',(#604));
#1127=EDGE_LOOP('',(#605,#606,#607,#608,#609,#610,#611,#612));
#1128=EDGE_LOOP('',(#613));
#1129=EDGE_LOOP('',(#614));
#1130=EDGE_LOOP('',(#615,#616,#617,#618,#619,#620,#621,#622));
#1131=EDGE_LOOP('',(#623,#624,#625,#626));
#1132=EDGE_LOOP('',(#627,#628,#629,#630));
#1133=EDGE_LOOP('',(#631,#632,#633,#634));
#1134=EDGE_LOOP('',(#635,#636,#637,#638));
#1135=EDGE_LOOP('',(#639,#640,#641,#642));
#1136=EDGE_LOOP('',(#643,#644,#645,#646));
#1137=EDGE_LOOP('',(#647,#648,#649,#650));
#1138=EDGE_LOOP('',(#651,#652,#653,#654));
#1139=EDGE_LOOP('',(#655,#656,#657,#658));
#1140=EDGE_LOOP('',(#659,#660,#661,#662));
#1141=EDGE_LOOP('',(#663,#664,#665,#666));
#1142=EDGE_LOOP('',(#667,#668,#669,#670));
#1143=EDGE_LOOP('',(#671,#672,#673,#674,#675,#676,#677,#678));
#1144=EDGE_LOOP('',(#679,#680,#681,#682));
#1145=EDGE_LOOP('',(#683,#684,#685,#686));
#1146=EDGE_LOOP('',(#687,#688,#689,#690));
#1147=EDGE_LOOP('',(#691,#692,#693,#694));
#1148=EDGE_LOOP('',(#695,#696,#697,#698));
#1149=EDGE_LOOP('',(#699,#700,#701,#702));
#1150=EDGE_LOOP('',(#703,#704,#705,#706));
#1151=EDGE_LOOP('',(#707,#708,#709,#710));
#1152=EDGE_LOOP('',(#711,#712,#713,#714));
#1153=EDGE_LOOP('',(#715,#716,#717,#718,#719,#720,#721,#722));
#1154=EDGE_LOOP('',(#723));
#1155=FACE_BOUND('',#1061,.T.);
#1156=FACE_BOUND('',#1062,.T.);
#1157=FACE_BOUND('',#1063,.T.);
#1158=FACE_BOUND('',#1064,.T.);
#1159=FACE_BOUND('',#1065,.T.);
#1160=FACE_BOUND('',#1066,.T.);
#1161=FACE_BOUND('',#1067,.T.);
#1162=FACE_BOUND('',#1068,.T.);
#1163=FACE_BOUND('',#1069,.T.);
#1164=FACE_BOUND('',#1070,.T.);
#1165=FACE_BOUND('',#1071,.T.);
#1166=FACE_BOUND('',#1072,.T.);
#1167=FACE_BOUND('',#1073,.T.);
#1168=FACE_BOUND('',#1074,.T.);
#1169=FACE_BOUND('',#1075,.T.);
#1170=FACE_BOUND('',#1076,.T.);
#1171=FACE_BOUND('',#1077,.T.);
#1172=FACE_BOUND('',#1078,.T.);
#1173=FACE_BOUND('',#1079,.T.);
#1174=FACE_BOUND('',#1080,.T.);
#1175=FACE_BOUND('',#1081,.T.);
#1176=FACE_BOUND('',#1082,.T.);
#1177=FACE_BOUND('',#1083,.T.);
#1178=FACE_BOUND('',#1084,.T.);
#1179=FACE_BOUND('',#1085,.T.);
#1180=FACE_BOUND('',#1086,.T.);
#1181=FACE_BOUND('',#1087,.T.);
#1182=FACE_BOUND('',#1088,.T.);
#1183=FACE_BOUND('',#1089,.T.);
#1184=FACE_BOUND('',#1090,.T.);
#1185=FACE_BOUND('',#1091,.T.);
#1186=FACE_BOUND('',#1092,.T.);
#1187=FACE_BOUND('',#1093,.T.);
#1188=FACE_BOUND('',#1094,.T.);
#1189=FACE_BOUND('',#1095,.T.);
#1190=FACE_BOUND('',#1096,.T.);
#1191=FACE_BOUND('',#1097,.T.);
#1192=FACE_BOUND('',#1098,.T.);
#1193=FACE_BOUND('',#1099,.T.);
#1194=FACE_BOUND('',#1100,.T.);
#1195=FACE_BOUND('',#1101,.T.);
#1196=FACE_BOUND('',#1102,.T.);
#1197=FACE_BOUND('',#1103,.T.);
#1198=FACE_BOUND('',#1104,.T.);
#1199=FACE_BOUND('',#1105,.T.);
#1200=FACE_BOUND('',#1106,.T.);
#1201=FACE_BOUND('',#1107,.T.);
#1202=FACE_BOUND('',#1108,.T.);
#1203=FACE_BOUND('',#1109,.T.);
#1204=FACE_BOUND('',#1110,.T.);
#1205=FACE_BOUND('',#1111,.T.);
#1206=FACE_BOUND('',#1112,.T.);
#1207=FACE_BOUND('',#1113,.T.);
#1208=FACE_BOUND('',#1114,.T.);
#1209=FACE_BOUND('',#1115,.T.);
#1210=FACE_BOUND('',#1116,.T.);
#1211=FACE_BOUND('',#1117,.T.);
#1212=FACE_BOUND('',#1118,.T.);
#1213=FACE_BOUND('',#1119,.T.);
#1214=FACE_BOUND('',#1120,.T.);
#1215=FACE_BOUND('',#1121,.T.);
#1216=FACE_BOUND('',#1122,.T.);
#1217=FACE_BOUND('',#1123,.T.);
#1218=FACE_BOUND('',#1124,.T.);
#1219=FACE_BOUND('',#1125,.T.);
#1220=FACE_BOUND('',#1126,.T.);
#1221=FACE_BOUND('',#1127,.T.);
#1222=FACE_BOUND('',#1128,.T.);
#1223=FACE_BOUND('',#1129,.T.);
#1224=FACE_BOUND('',#1130,.T.);
#1225=FACE_BOUND('',#1131,.T.);
#1226=FACE_BOUND('',#1132,.T.);
#1227=FACE_BOUND('',#1133,.T.);
#1228=FACE_BOUND('',#1134,.T.);
#1229=FACE_BOUND('',#1135,.T.);
#1230=FACE_BOUND('',#1136,.T.);
#1231=FACE_BOUND('',#1137,.T.);
#1232=FACE_BOUND('',#1138,.T.);
#1233=FACE_BOUND('',#1139,.T.);
#1234=FACE_BOUND('',#1140,.T.);
#1235=FACE_BOUND('',#1141,.T.);
#1236=FACE_BOUND('',#1142,.T.);
#1237=FACE_BOUND('',#1143,.T.);
#1238=FACE_BOUND('',#1144,.T.);
#1239=FACE_BOUND('',#1145,.T.);
#1240=FACE_BOUND('',#1146,.T.);
#1241=FACE_BOUND('',#1147,.T.);
#1242=FACE_BOUND('',#1148,.T.);
#1243=FACE_BOUND('',#1149,.T.);
#1244=FACE_BOUND('',#1150,.T.);
#1245=FACE_BOUND('',#1151,.T.);
#1246=FACE_BOUND('',#1152,.T.);
#1247=FACE_BOUND('',#1153,.T.);
#1248=FACE_BOUND('',#1154,.T.);
#1249=PLANE('',#1390);
#1250=PLANE('',#1393);
#1251=PLANE('',#1394);
#1252=PLANE('',#1395);
#1253=PLANE('',#1396);
#1254=PLANE('',#1397);
#1255=PLANE('',#1398);
#1256=PLANE('',#1399);
#1257=PLANE('',#1400);
#1258=PLANE('',#1401);
#1259=PLANE('',#1402);
#1260=PLANE('',#1403);
#1261=PLANE('',#1404);
#1262=PLANE('',#1405);
#1263=PLANE('',#1406);
#1264=PLANE('',#1407);
#1265=PLANE('',#1408);
#1266=PLANE('',#1409);
#1267=PLANE('',#1410);
#1268=PLANE('',#1411);
#1269=PLANE('',#1412);
#1270=PLANE('',#1413);
#1271=PLANE('',#1414);
#1272=PLANE('',#1415);
#1273=PLANE('',#1416);
#1274=PLANE('',#1417);
#1275=PLANE('',#1418);
#1276=PLANE('',#1419);
#1277=PLANE('',#1420);
#1278=PLANE('',#1421);
#1279=PLANE('',#1429);
#1280=PLANE('',#1434);
#1281=PLANE('',#1435);
#1282=PLANE('',#1436);
#1283=PLANE('',#1437);
#1284=PLANE('',#1438);
#1285=PLANE('',#1439);
#1286=PLANE('',#1440);
#1287=PLANE('',#1441);
#1288=PLANE('',#1442);
#1289=PLANE('',#1443);
#1290=PLANE('',#1444);
#1291=PLANE('',#1445);
#1292=PLANE('',#1446);
#1293=PLANE('',#1449);
#1294=PLANE('',#1450);
#1295=PLANE('',#1451);
#1296=PLANE('',#1455);
#1297=PLANE('',#1463);
#1298=PLANE('',#1466);
#1299=PLANE('',#1467);
#1300=PLANE('',#1470);
#1301=PLANE('',#1471);
#1302=PLANE('',#1472);
#1303=PLANE('',#1473);
#1304=PLANE('',#1474);
#1305=PLANE('',#1479);
#1306=PLANE('',#1480);
#1307=PLANE('',#1481);
#1308=ADVANCED_FACE('',(#1155,#1156,#1157),#1249,.T.);
#1309=ADVANCED_FACE('',(#1158),#1250,.T.);
#1310=ADVANCED_FACE('',(#1159),#1251,.F.);
#1311=ADVANCED_FACE('',(#1160),#1252,.F.);
#1312=ADVANCED_FACE('',(#1161),#1253,.T.);
#1313=ADVANCED_FACE('',(#1162),#1254,.T.);
#1314=ADVANCED_FACE('',(#1163),#1255,.F.);
#1315=ADVANCED_FACE('',(#1164),#1256,.F.);
#1316=ADVANCED_FACE('',(#1165),#1257,.T.);
#1317=ADVANCED_FACE('',(#1166),#1258,.T.);
#1318=ADVANCED_FACE('',(#1167),#1259,.F.);
#1319=ADVANCED_FACE('',(#1168),#1260,.F.);
#1320=ADVANCED_FACE('',(#1169),#1261,.T.);
#1321=ADVANCED_FACE('',(#1170),#1262,.T.);
#1322=ADVANCED_FACE('',(#1171),#1263,.F.);
#1323=ADVANCED_FACE('',(#1172),#1264,.F.);
#1324=ADVANCED_FACE('',(#1173),#1265,.T.);
#1325=ADVANCED_FACE('',(#1174),#1266,.T.);
#1326=ADVANCED_FACE('',(#1175),#1267,.F.);
#1327=ADVANCED_FACE('',(#1176),#1268,.F.);
#1328=ADVANCED_FACE('',(#1177),#1269,.T.);
#1329=ADVANCED_FACE('',(#1178),#1270,.T.);
#1330=ADVANCED_FACE('',(#1179),#1271,.F.);
#1331=ADVANCED_FACE('',(#1180),#1272,.F.);
#1332=ADVANCED_FACE('',(#1181),#1273,.T.);
#1333=ADVANCED_FACE('',(#1182),#1274,.T.);
#1334=ADVANCED_FACE('',(#1183),#1275,.F.);
#1335=ADVANCED_FACE('',(#1184),#1276,.F.);
#1336=ADVANCED_FACE('',(#1185),#1277,.T.);
#1337=ADVANCED_FACE('',(#1186,#1187,#1188,#1189,#1190,#1191,#1192,#1193,
#1194,#1195),#1278,.F.);
#1338=ADVANCED_FACE('',(#1196,#1197),#1279,.T.);
#1339=ADVANCED_FACE('',(#1198),#1280,.T.);
#1340=ADVANCED_FACE('',(#1199),#1281,.F.);
#1341=ADVANCED_FACE('',(#1200),#1282,.F.);
#1342=ADVANCED_FACE('',(#1201),#1283,.T.);
#1343=ADVANCED_FACE('',(#1202),#1284,.T.);
#1344=ADVANCED_FACE('',(#1203),#1285,.F.);
#1345=ADVANCED_FACE('',(#1204),#1286,.F.);
#1346=ADVANCED_FACE('',(#1205),#1287,.T.);
#1347=ADVANCED_FACE('',(#1206),#1288,.F.);
#1348=ADVANCED_FACE('',(#1207),#1289,.F.);
#1349=ADVANCED_FACE('',(#1208),#1290,.T.);
#1350=ADVANCED_FACE('',(#1209),#1291,.T.);
#1351=ADVANCED_FACE('',(#1210,#1211),#1292,.T.);
#1352=ADVANCED_FACE('',(#1212,#1213),#12,.F.);
#1353=ADVANCED_FACE('',(#1214,#1215),#13,.F.);
#1354=ADVANCED_FACE('',(#1216),#1293,.F.);
#1355=ADVANCED_FACE('',(#1217),#1294,.F.);
#1356=ADVANCED_FACE('',(#1218),#1295,.T.);
#1357=ADVANCED_FACE('',(#1219,#1220),#14,.T.);
#1358=ADVANCED_FACE('',(#1221,#1222),#1296,.F.);
#1359=ADVANCED_FACE('',(#1223,#1224),#15,.F.);
#1360=ADVANCED_FACE('',(#1225),#1297,.T.);
#1361=ADVANCED_FACE('',(#1226),#16,.F.);
#1362=ADVANCED_FACE('',(#1227),#1298,.T.);
#1363=ADVANCED_FACE('',(#1228),#1299,.F.);
#1364=ADVANCED_FACE('',(#1229),#17,.F.);
#1365=ADVANCED_FACE('',(#1230),#1300,.F.);
#1366=ADVANCED_FACE('',(#1231),#1301,.T.);
#1367=ADVANCED_FACE('',(#1232),#1302,.T.);
#1368=ADVANCED_FACE('',(#1233),#1303,.F.);
#1369=ADVANCED_FACE('',(#1234,#1235,#1236,#1237,#1238,#1239),#1304,.T.);
#1370=ADVANCED_FACE('',(#1240),#18,.T.);
#1371=ADVANCED_FACE('',(#1241),#19,.T.);
#1372=ADVANCED_FACE('',(#1242),#20,.T.);
#1373=ADVANCED_FACE('',(#1243),#21,.T.);
#1374=ADVANCED_FACE('',(#1244),#1305,.T.);
#1375=ADVANCED_FACE('',(#1245),#1306,.T.);
#1376=ADVANCED_FACE('',(#1246,#1247,#1248),#1307,.T.);
#1377=CLOSED_SHELL('',(#1308,#1309,#1310,#1311,#1312,#1313,#1314,#1315,
#1316,#1317,#1318,#1319,#1320,#1321,#1322,#1323,#1324,#1325,#1326,#1327,
#1328,#1329,#1330,#1331,#1332,#1333,#1334,#1335,#1336,#1337,#1338,#1339,
#1340,#1341,#1342,#1343,#1344,#1345,#1346,#1347,#1348,#1349,#1350,#1351,
#1352,#1353,#1354,#1355,#1356,#1357,#1358,#1359,#1360,#1361,#1362,#1363,
#1364,#1365,#1366,#1367,#1368,#1369,#1370,#1371,#1372,#1373,#1374,#1375,
#1376));
#1378=STYLED_ITEM('',(#1379),#1386);
#1379=PRESENTATION_STYLE_ASSIGNMENT((#1380));
#1380=SURFACE_STYLE_USAGE(.BOTH.,#1381);
#1381=SURFACE_SIDE_STYLE('',(#1382));
#1382=SURFACE_STYLE_FILL_AREA(#1383);
#1383=FILL_AREA_STYLE('',(#1384));
#1384=FILL_AREA_STYLE_COLOUR('',#1385);
#1385=COLOUR_RGB('',0.615686274509804,0.811764705882353,0.929411764705882);
#1386=MANIFOLD_SOLID_BREP('Part 1',#1377);
#1387=SHAPE_DEFINITION_REPRESENTATION(#2222,#1388);
#1388=SHAPE_REPRESENTATION('Part 1',(#1389),#2217);
#1389=AXIS2_PLACEMENT_3D('',#1832,#1482,#1483);
#1390=AXIS2_PLACEMENT_3D('',#1833,#1484,#1485);
#1391=AXIS2_PLACEMENT_3D('',#1834,#1486,#1487);
#1392=AXIS2_PLACEMENT_3D('',#1836,#1488,#1489);
#1393=AXIS2_PLACEMENT_3D('',#1854,#1498,#1499);
#1394=AXIS2_PLACEMENT_3D('',#1863,#1504,#1505);
#1395=AXIS2_PLACEMENT_3D('',#1872,#1510,#1511);
#1396=AXIS2_PLACEMENT_3D('',#1878,#1515,#1516);
#1397=AXIS2_PLACEMENT_3D('',#1884,#1520,#1521);
#1398=AXIS2_PLACEMENT_3D('',#1890,#1525,#1526);
#1399=AXIS2_PLACEMENT_3D('',#1896,#1530,#1531);
#1400=AXIS2_PLACEMENT_3D('',#1899,#1534,#1535);
#1401=AXIS2_PLACEMENT_3D('',#1908,#1540,#1541);
#1402=AXIS2_PLACEMENT_3D('',#1917,#1546,#1547);
#1403=AXIS2_PLACEMENT_3D('',#1923,#1551,#1552);
#1404=AXIS2_PLACEMENT_3D('',#1929,#1556,#1557);
#1405=AXIS2_PLACEMENT_3D('',#1932,#1560,#1561);
#1406=AXIS2_PLACEMENT_3D('',#1941,#1566,#1567);
#1407=AXIS2_PLACEMENT_3D('',#1947,#1571,#1572);
#1408=AXIS2_PLACEMENT_3D('',#1953,#1576,#1577);
#1409=AXIS2_PLACEMENT_3D('',#1956,#1580,#1581);
#1410=AXIS2_PLACEMENT_3D('',#1965,#1586,#1587);
#1411=AXIS2_PLACEMENT_3D('',#1971,#1591,#1592);
#1412=AXIS2_PLACEMENT_3D('',#1977,#1596,#1597);
#1413=AXIS2_PLACEMENT_3D('',#1980,#1600,#1601);
#1414=AXIS2_PLACEMENT_3D('',#1989,#1606,#1607);
#1415=AXIS2_PLACEMENT_3D('',#1995,#1611,#1612);
#1416=AXIS2_PLACEMENT_3D('',#2001,#1616,#1617);
#1417=AXIS2_PLACEMENT_3D('',#2004,#1620,#1621);
#1418=AXIS2_PLACEMENT_3D('',#2013,#1626,#1627);
#1419=AXIS2_PLACEMENT_3D('',#2019,#1631,#1632);
#1420=AXIS2_PLACEMENT_3D('',#2025,#1636,#1637);
#1421=AXIS2_PLACEMENT_3D('',#2028,#1640,#1641);
#1422=AXIS2_PLACEMENT_3D('',#2034,#1645,#1646);
#1423=AXIS2_PLACEMENT_3D('',#2036,#1647,#1648);
#1424=AXIS2_PLACEMENT_3D('',#2041,#1650,#1651);
#1425=AXIS2_PLACEMENT_3D('',#2045,#1653,#1654);
#1426=AXIS2_PLACEMENT_3D('',#2049,#1656,#1657);
#1427=AXIS2_PLACEMENT_3D('',#2053,#1659,#1660);
#1428=AXIS2_PLACEMENT_3D('',#2054,#1661,#1662);
#1429=AXIS2_PLACEMENT_3D('',#2056,#1663,#1664);
#1430=AXIS2_PLACEMENT_3D('',#2060,#1666,#1667);
#1431=AXIS2_PLACEMENT_3D('',#2064,#1669,#1670);
#1432=AXIS2_PLACEMENT_3D('',#2068,#1672,#1673);
#1433=AXIS2_PLACEMENT_3D('',#2072,#1675,#1676);
#1434=AXIS2_PLACEMENT_3D('',#2081,#1681,#1682);
#1435=AXIS2_PLACEMENT_3D('',#2084,#1685,#1686);
#1436=AXIS2_PLACEMENT_3D('',#2087,#1689,#1690);
#1437=AXIS2_PLACEMENT_3D('',#2090,#1693,#1694);
#1438=AXIS2_PLACEMENT_3D('',#2093,#1697,#1698);
#1439=AXIS2_PLACEMENT_3D('',#2099,#1702,#1703);
#1440=AXIS2_PLACEMENT_3D('',#2103,#1706,#1707);
#1441=AXIS2_PLACEMENT_3D('',#2107,#1710,#1711);
#1442=AXIS2_PLACEMENT_3D('',#2117,#1717,#1718);
#1443=AXIS2_PLACEMENT_3D('',#2123,#1722,#1723);
#1444=AXIS2_PLACEMENT_3D('',#2135,#1731,#1732);
#1445=AXIS2_PLACEMENT_3D('',#2137,#1734,#1735);
#1446=AXIS2_PLACEMENT_3D('',#2139,#1737,#1738);
#1447=AXIS2_PLACEMENT_3D('',#2140,#1739,#1740);
#1448=AXIS2_PLACEMENT_3D('',#2141,#1741,#1742);
#1449=AXIS2_PLACEMENT_3D('',#2142,#1743,#1744);
#1450=AXIS2_PLACEMENT_3D('',#2145,#1747,#1748);
#1451=AXIS2_PLACEMENT_3D('',#2147,#1750,#1751);
#1452=AXIS2_PLACEMENT_3D('',#2149,#1753,#1754);
#1453=AXIS2_PLACEMENT_3D('',#2150,#1755,#1756);
#1454=AXIS2_PLACEMENT_3D('',#2152,#1757,#1758);
#1455=AXIS2_PLACEMENT_3D('',#2154,#1759,#1760);
#1456=AXIS2_PLACEMENT_3D('',#2158,#1762,#1763);
#1457=AXIS2_PLACEMENT_3D('',#2162,#1765,#1766);
#1458=AXIS2_PLACEMENT_3D('',#2166,#1768,#1769);
#1459=AXIS2_PLACEMENT_3D('',#2170,#1771,#1772);
#1460=AXIS2_PLACEMENT_3D('',#2171,#1773,#1774);
#1461=AXIS2_PLACEMENT_3D('',#2174,#1776,#1777);
#1462=AXIS2_PLACEMENT_3D('',#2179,#1780,#1781);
#1463=AXIS2_PLACEMENT_3D('',#2182,#1783,#1784);
#1464=AXIS2_PLACEMENT_3D('',#2186,#1787,#1788);
#1465=AXIS2_PLACEMENT_3D('',#2187,#1789,#1790);
#1466=AXIS2_PLACEMENT_3D('',#2190,#1792,#1793);
#1467=AXIS2_PLACEMENT_3D('',#2192,#1795,#1796);
#1468=AXIS2_PLACEMENT_3D('',#2196,#1799,#1800);
#1469=AXIS2_PLACEMENT_3D('',#2197,#1801,#1802);
#1470=AXIS2_PLACEMENT_3D('',#2200,#1804,#1805);
#1471=AXIS2_PLACEMENT_3D('',#2202,#1807,#1808);
#1472=AXIS2_PLACEMENT_3D('',#2203,#1809,#1810);
#1473=AXIS2_PLACEMENT_3D('',#2204,#1811,#1812);
#1474=AXIS2_PLACEMENT_3D('',#2207,#1815,#1816);
#1475=AXIS2_PLACEMENT_3D('',#2208,#1817,#1818);
#1476=AXIS2_PLACEMENT_3D('',#2209,#1819,#1820);
#1477=AXIS2_PLACEMENT_3D('',#2210,#1821,#1822);
#1478=AXIS2_PLACEMENT_3D('',#2211,#1823,#1824);
#1479=AXIS2_PLACEMENT_3D('',#2212,#1825,#1826);
#1480=AXIS2_PLACEMENT_3D('',#2213,#1827,#1828);
#1481=AXIS2_PLACEMENT_3D('',#2215,#1830,#1831);
#1482=DIRECTION('',(0.,0.,1.));
#1483=DIRECTION('',(1.,0.,0.));
#1484=DIRECTION('',(0.,0.,1.));
#1485=DIRECTION('',(1.,0.,0.));
#1486=DIRECTION('',(0.,0.,-1.));
#1487=DIRECTION('',(-1.,0.,0.));
#1488=DIRECTION('',(0.,0.,-1.));
#1489=DIRECTION('',(-1.,0.,0.));
#1490=DIRECTION('',(0.,-1.,0.));
#1491=DIRECTION('',(-1.,0.,0.));
#1492=DIRECTION('',(0.,-1.,0.));
#1493=DIRECTION('',(1.,0.,0.));
#1494=DIRECTION('',(0.,-1.,0.));
#1495=DIRECTION('',(-1.,1.10141173077892E-16,0.));
#1496=DIRECTION('',(0.,1.,0.));
#1497=DIRECTION('',(-1.,2.20282346155785E-16,0.));
#1498=DIRECTION('',(1.,0.,0.));
#1499=DIRECTION('',(0.,0.,-1.));
#1500=DIRECTION('',(0.,0.,1.));
#1501=DIRECTION('',(0.,1.,0.));
#1502=DIRECTION('',(0.,0.,1.));
#1503=DIRECTION('',(0.,1.,0.));
#1504=DIRECTION('',(1.,0.,0.));
#1505=DIRECTION('',(0.,0.,-1.));
#1506=DIRECTION('',(0.,1.,0.));
#1507=DIRECTION('',(0.,0.,1.));
#1508=DIRECTION('',(0.,1.,0.));
#1509=DIRECTION('',(0.,0.,1.));
#1510=DIRECTION('',(0.,1.,0.));
#1511=DIRECTION('',(0.,0.,1.));
#1512=DIRECTION('',(-1.,0.,0.));
#1513=DIRECTION('',(0.,0.,1.));
#1514=DIRECTION('',(-1.,0.,0.));
#1515=DIRECTION('',(1.,0.,0.));
#1516=DIRECTION('',(0.,0.,-1.));
#1517=DIRECTION('',(0.,1.,0.));
#1518=DIRECTION('',(0.,0.,1.));
#1519=DIRECTION('',(0.,1.,0.));
#1520=DIRECTION('',(0.,1.,0.));
#1521=DIRECTION('',(0.,0.,1.));
#1522=DIRECTION('',(-1.,0.,0.));
#1523=DIRECTION('',(0.,0.,1.));
#1524=DIRECTION('',(-1.,0.,0.));
#1525=DIRECTION('',(1.,0.,0.));
#1526=DIRECTION('',(0.,0.,-1.));
#1527=DIRECTION('',(0.,1.,0.));
#1528=DIRECTION('',(0.,0.,1.));
#1529=DIRECTION('',(0.,1.,0.));
#1530=DIRECTION('',(0.,1.,0.));
#1531=DIRECTION('',(0.,0.,1.));
#1532=DIRECTION('',(-1.,0.,0.));
#1533=DIRECTION('',(-1.,0.,0.));
#1534=DIRECTION('',(-1.,0.,0.));
#1535=DIRECTION('',(0.,0.,1.));
#1536=DIRECTION('',(0.,0.,-1.));
#1537=DIRECTION('',(0.,1.,0.));
#1538=DIRECTION('',(0.,0.,-1.));
#1539=DIRECTION('',(0.,1.,0.));
#1540=DIRECTION('',(-1.,0.,0.));
#1541=DIRECTION('',(0.,0.,1.));
#1542=DIRECTION('',(0.,0.,-1.));
#1543=DIRECTION('',(0.,-1.,0.));
#1544=DIRECTION('',(0.,0.,-1.));
#1545=DIRECTION('',(0.,1.,0.));
#1546=DIRECTION('',(0.,-1.,0.));
#1547=DIRECTION('',(0.,0.,-1.));
#1548=DIRECTION('',(1.,0.,0.));
#1549=DIRECTION('',(-1.,0.,0.));
#1550=DIRECTION('',(0.,0.,-1.));
#1551=DIRECTION('',(-1.,0.,0.));
#1552=DIRECTION('',(0.,0.,1.));
#1553=DIRECTION('',(0.,-1.,0.));
#1554=DIRECTION('',(0.,1.,0.));
#1555=DIRECTION('',(0.,0.,-1.));
#1556=DIRECTION('',(0.,-1.,0.));
#1557=DIRECTION('',(0.,0.,-1.));
#1558=DIRECTION('',(1.,0.,0.));
#1559=DIRECTION('',(-1.,0.,0.));
#1560=DIRECTION('',(-1.,0.,0.));
#1561=DIRECTION('',(0.,0.,1.));
#1562=DIRECTION('',(0.,0.,-1.));
#1563=DIRECTION('',(0.,-1.,0.));
#1564=DIRECTION('',(0.,0.,-1.));
#1565=DIRECTION('',(0.,1.,0.));
#1566=DIRECTION('',(-1.1616451848059E-16,-1.,0.));
#1567=DIRECTION('',(1.,-1.1616451848059E-16,0.));
#1568=DIRECTION('',(1.,-1.1616451848059E-16,0.));
#1569=DIRECTION('',(-1.,1.1616451848059E-16,0.));
#1570=DIRECTION('',(0.,0.,-1.));
#1571=DIRECTION('',(-1.,0.,0.));
#1572=DIRECTION('',(0.,0.,1.));
#1573=DIRECTION('',(0.,-1.,0.));
#1574=DIRECTION('',(0.,1.,0.));
#1575=DIRECTION('',(0.,0.,-1.));
#1576=DIRECTION('',(0.,-1.,0.));
#1577=DIRECTION('',(0.,0.,-1.));
#1578=DIRECTION('',(1.,0.,0.));
#1579=DIRECTION('',(-1.,0.,0.));
#1580=DIRECTION('',(-1.,-2.47817639425258E-16,0.));
#1581=DIRECTION('',(2.47817639425259E-16,-1.,0.));
#1582=DIRECTION('',(0.,0.,-1.));
#1583=DIRECTION('',(2.47817639425259E-16,-1.,0.));
#1584=DIRECTION('',(0.,0.,-1.));
#1585=DIRECTION('',(-2.47817639425258E-16,1.,0.));
#1586=DIRECTION('',(1.23908819712629E-16,-1.,0.));
#1587=DIRECTION('',(1.,1.23908819712629E-16,0.));
#1588=DIRECTION('',(1.,1.23908819712629E-16,0.));
#1589=DIRECTION('',(-1.,-1.23908819712629E-16,0.));
#1590=DIRECTION('',(0.,0.,-1.));
#1591=DIRECTION('',(-1.,0.,0.));
#1592=DIRECTION('',(0.,0.,1.));
#1593=DIRECTION('',(0.,-1.,0.));
#1594=DIRECTION('',(0.,1.,0.));
#1595=DIRECTION('',(0.,0.,-1.));
#1596=DIRECTION('',(0.,-1.,0.));
#1597=DIRECTION('',(0.,0.,-1.));
#1598=DIRECTION('',(1.,0.,0.));
#1599=DIRECTION('',(-1.,0.,0.));
#1600=DIRECTION('',(-1.,0.,0.));
#1601=DIRECTION('',(0.,0.,1.));
#1602=DIRECTION('',(0.,0.,-1.));
#1603=DIRECTION('',(0.,-1.,0.));
#1604=DIRECTION('',(0.,0.,-1.));
#1605=DIRECTION('',(0.,1.,0.));
#1606=DIRECTION('',(0.,-1.,0.));
#1607=DIRECTION('',(0.,0.,-1.));
#1608=DIRECTION('',(1.,0.,0.));
#1609=DIRECTION('',(-1.,0.,0.));
#1610=DIRECTION('',(0.,0.,-1.));
#1611=DIRECTION('',(-1.,0.,0.));
#1612=DIRECTION('',(0.,0.,1.));
#1613=DIRECTION('',(0.,-1.,0.));
#1614=DIRECTION('',(0.,1.,0.));
#1615=DIRECTION('',(0.,0.,-1.));
#1616=DIRECTION('',(-1.23908819712629E-16,-1.,0.));
#1617=DIRECTION('',(1.,-1.23908819712629E-16,0.));
#1618=DIRECTION('',(1.,-1.23908819712629E-16,0.));
#1619=DIRECTION('',(-1.,1.23908819712629E-16,0.));
#1620=DIRECTION('',(-1.,6.19544098563145E-17,0.));
#1621=DIRECTION('',(-6.19544098563146E-17,-1.,0.));
#1622=DIRECTION('',(0.,0.,-1.));
#1623=DIRECTION('',(-6.19544098563146E-17,-1.,0.));
#1624=DIRECTION('',(0.,0.,-1.));
#1625=DIRECTION('',(6.19544098563145E-17,1.,0.));
#1626=DIRECTION('',(0.,-1.,0.));
#1627=DIRECTION('',(0.,0.,-1.));
#1628=DIRECTION('',(1.,0.,0.));
#1629=DIRECTION('',(-1.,0.,0.));
#1630=DIRECTION('',(0.,0.,-1.));
#1631=DIRECTION('',(-1.,6.19544098563145E-17,0.));
#1632=DIRECTION('',(-6.19544098563146E-17,-1.,0.));
#1633=DIRECTION('',(-6.19544098563146E-17,-1.,0.));
#1634=DIRECTION('',(6.19544098563145E-17,1.,0.));
#1635=DIRECTION('',(0.,0.,-1.));
#1636=DIRECTION('',(-1.23908819712629E-16,-1.,0.));
#1637=DIRECTION('',(1.,-1.23908819712629E-16,0.));
#1638=DIRECTION('',(1.,-1.23908819712629E-16,0.));
#1639=DIRECTION('',(-1.,1.23908819712629E-16,0.));
#1640=DIRECTION('',(0.,0.,1.));
#1641=DIRECTION('',(1.,0.,0.));
#1642=DIRECTION('',(-1.,2.20282346155785E-16,0.));
#1643=DIRECTION('',(0.,1.,0.));
#1644=DIRECTION('',(-1.,1.10141173077892E-16,0.));
#1645=DIRECTION('',(0.,0.,-1.));
#1646=DIRECTION('',(-1.,0.,0.));
#1647=DIRECTION('',(0.,0.,-1.));
#1648=DIRECTION('',(-1.,0.,0.));
#1649=DIRECTION('',(-1.82123199577617E-16,-1.,0.));
#1650=DIRECTION('',(0.,0.,1.));
#1651=DIRECTION('',(1.,0.,0.));
#1652=DIRECTION('',(1.,0.,0.));
#1653=DIRECTION('',(0.,0.,1.));
#1654=DIRECTION('',(1.,0.,0.));
#1655=DIRECTION('',(-1.82123199577617E-16,-1.,0.));
#1656=DIRECTION('',(0.,0.,1.));
#1657=DIRECTION('',(1.,0.,0.));
#1658=DIRECTION('',(1.,0.,0.));
#1659=DIRECTION('',(0.,0.,1.));
#1660=DIRECTION('',(1.,0.,0.));
#1661=DIRECTION('',(0.,0.,-1.));
#1662=DIRECTION('',(-1.,0.,0.));
#1663=DIRECTION('',(0.,0.,1.));
#1664=DIRECTION('',(1.,0.,0.));
#1665=DIRECTION('',(1.,0.,0.));
#1666=DIRECTION('',(0.,0.,1.));
#1667=DIRECTION('',(1.,0.,0.));
#1668=DIRECTION('',(-1.82123199577617E-16,-1.,0.));
#1669=DIRECTION('',(0.,0.,1.));
#1670=DIRECTION('',(1.,0.,0.));
#1671=DIRECTION('',(1.,0.,0.));
#1672=DIRECTION('',(0.,0.,1.));
#1673=DIRECTION('',(1.,0.,0.));
#1674=DIRECTION('',(-1.82123199577617E-16,-1.,0.));
#1675=DIRECTION('',(0.,0.,1.));
#1676=DIRECTION('',(1.,0.,0.));
#1677=DIRECTION('',(0.,-1.,0.));
#1678=DIRECTION('',(1.,0.,0.));
#1679=DIRECTION('',(0.,-1.,0.));
#1680=DIRECTION('',(1.,0.,0.));
#1681=DIRECTION('',(0.,1.,0.));
#1682=DIRECTION('',(0.,0.,1.));
#1683=DIRECTION('',(0.,0.,-1.));
#1684=DIRECTION('',(0.,0.,-1.));
#1685=DIRECTION('',(1.,-1.82123199577617E-16,0.));
#1686=DIRECTION('',(1.82123199577617E-16,1.,0.));
#1687=DIRECTION('',(0.,0.,-1.));
#1688=DIRECTION('',(0.,0.,-1.));
#1689=DIRECTION('',(0.,1.,0.));
#1690=DIRECTION('',(0.,0.,1.));
#1691=DIRECTION('',(0.,0.,-1.));
#1692=DIRECTION('',(0.,0.,-1.));
#1693=DIRECTION('',(1.,-1.82123199577617E-16,0.));
#1694=DIRECTION('',(1.82123199577617E-16,1.,0.));
#1695=DIRECTION('',(0.,0.,-1.));
#1696=DIRECTION('',(0.,0.,-1.));
#1697=DIRECTION('',(0.,1.,0.));
#1698=DIRECTION('',(0.,0.,1.));
#1699=DIRECTION('',(0.,0.,-1.));
#1700=DIRECTION('',(1.,0.,0.));
#1701=DIRECTION('',(0.,0.,-1.));
#1702=DIRECTION('',(1.,0.,0.));
#1703=DIRECTION('',(0.,0.,-1.));
#1704=DIRECTION('',(0.,0.,-1.));
#1705=DIRECTION('',(0.,-1.,0.));
#1706=DIRECTION('',(0.,1.,0.));
#1707=DIRECTION('',(0.,0.,1.));
#1708=DIRECTION('',(0.,0.,-1.));
#1709=DIRECTION('',(1.,0.,0.));
#1710=DIRECTION('',(1.,0.,0.));
#1711=DIRECTION('',(0.,0.,-1.));
#1712=DIRECTION('',(0.,0.,1.));
#1713=DIRECTION('',(0.,-1.,0.));
#1714=DIRECTION('',(0.,0.,-1.));
#1715=DIRECTION('',(0.,-1.,0.));
#1716=DIRECTION('',(0.,0.,-1.));
#1717=DIRECTION('',(0.,1.,0.));
#1718=DIRECTION('',(0.,0.,1.));
#1719=DIRECTION('',(1.,0.,0.));
#1720=DIRECTION('',(0.,0.,-1.));
#1721=DIRECTION('',(1.,0.,0.));
#1722=DIRECTION('',(1.,0.,0.));
#1723=DIRECTION('',(0.,0.,-1.));
#1724=DIRECTION('',(0.,-1.,0.));
#1725=DIRECTION('',(0.,0.,1.));
#1726=DIRECTION('',(0.,0.,1.));
#1727=DIRECTION('',(0.,-1.,0.));
#1728=DIRECTION('',(0.,0.,1.));
#1729=DIRECTION('',(0.,0.,-1.));
#1730=DIRECTION('',(0.,-1.,0.));
#1731=DIRECTION('',(0.,1.,0.));
#1732=DIRECTION('',(0.,0.,1.));
#1733=DIRECTION('',(1.,0.,0.));
#1734=DIRECTION('',(1.,0.,0.));
#1735=DIRECTION('',(0.,0.,-1.));
#1736=DIRECTION('',(0.,-1.,0.));
#1737=DIRECTION('',(0.,0.,1.));
#1738=DIRECTION('',(1.,0.,0.));
#1739=DIRECTION('',(0.,0.,-1.));
#1740=DIRECTION('',(-1.,0.,0.));
#1741=DIRECTION('',(0.,0.,-1.));
#1742=DIRECTION('',(-1.,0.,0.));
#1743=DIRECTION('',(-1.10141173077892E-16,-1.,0.));
#1744=DIRECTION('',(1.,-1.10141173077892E-16,0.));
#1745=DIRECTION('',(0.,0.,-1.));
#1746=DIRECTION('',(1.,0.,0.));
#1747=DIRECTION('',(-1.,0.,0.));
#1748=DIRECTION('',(0.,0.,1.));
#1749=DIRECTION('',(0.,0.,-1.));
#1750=DIRECTION('',(-2.20282346155785E-16,-1.,0.));
#1751=DIRECTION('',(1.,-2.20282346155785E-16,0.));
#1752=DIRECTION('',(1.,0.,0.));
#1753=DIRECTION('',(0.,0.,-1.));
#1754=DIRECTION('',(-1.,0.,0.));
#1755=DIRECTION('',(0.,0.,-1.));
#1756=DIRECTION('',(-1.,0.,0.));
#1757=DIRECTION('',(0.,0.,1.));
#1758=DIRECTION('',(1.,0.,0.));
#1759=DIRECTION('',(0.,0.,-1.));
#1760=DIRECTION('',(1.,0.,0.));
#1761=DIRECTION('',(-0.5,0.866025403784439,0.));
#1762=DIRECTION('',(0.,0.,-1.));
#1763=DIRECTION('',(-1.,0.,0.));
#1764=DIRECTION('',(0.5,0.866025403784439,0.));
#1765=DIRECTION('',(0.,0.,-1.));
#1766=DIRECTION('',(-1.,0.,0.));
#1767=DIRECTION('',(-0.5,0.866025403784438,0.));
#1768=DIRECTION('',(0.,0.,-1.));
#1769=DIRECTION('',(-1.,0.,0.));
#1770=DIRECTION('',(0.5,0.866025403784438,0.));
#1771=DIRECTION('',(0.,0.,-1.));
#1772=DIRECTION('',(-1.,0.,0.));
#1773=DIRECTION('',(0.,0.,-1.));
#1774=DIRECTION('',(-1.,0.,0.));
#1775=DIRECTION('',(0.,0.,-1.));
#1776=DIRECTION('',(0.,0.,-1.));
#1777=DIRECTION('',(-1.,0.,0.));
#1778=DIRECTION('',(0.,0.,-1.));
#1779=DIRECTION('',(0.,0.,-1.));
#1780=DIRECTION('',(0.,0.,-1.));
#1781=DIRECTION('',(-1.,0.,0.));
#1782=DIRECTION('',(0.,0.,-1.));
#1783=DIRECTION('',(-0.866025403784438,0.5,0.));
#1784=DIRECTION('',(-0.5,-0.866025403784439,0.));
#1785=DIRECTION('',(0.5,0.866025403784439,0.));
#1786=DIRECTION('',(0.,0.,-1.));
#1787=DIRECTION('',(0.,0.,-1.));
#1788=DIRECTION('',(-1.,0.,0.));
#1789=DIRECTION('',(0.,0.,-1.));
#1790=DIRECTION('',(-1.,0.,0.));
#1791=DIRECTION('',(0.,0.,-1.));
#1792=DIRECTION('',(-0.866025403784438,-0.5,0.));
#1793=DIRECTION('',(0.5,-0.866025403784438,0.));
#1794=DIRECTION('',(-0.5,0.866025403784438,0.));
#1795=DIRECTION('',(-0.866025403784438,0.5,0.));
#1796=DIRECTION('',(-0.5,-0.866025403784438,0.));
#1797=DIRECTION('',(0.5,0.866025403784439,0.));
#1798=DIRECTION('',(0.,0.,-1.));
#1799=DIRECTION('',(0.,0.,-1.));
#1800=DIRECTION('',(-1.,0.,0.));
#1801=DIRECTION('',(0.,0.,-1.));
#1802=DIRECTION('',(-1.,0.,0.));
#1803=DIRECTION('',(0.,0.,-1.));
#1804=DIRECTION('',(-0.866025403784439,-0.5,0.));
#1805=DIRECTION('',(0.5,-0.866025403784439,0.));
#1806=DIRECTION('',(-0.5,0.866025403784439,0.));
#1807=DIRECTION('',(0.,0.,-1.));
#1808=DIRECTION('',(1.,0.,0.));
#1809=DIRECTION('',(0.,0.,-1.));
#1810=DIRECTION('',(1.,0.,0.));
#1811=DIRECTION('',(0.,1.,0.));
#1812=DIRECTION('',(0.,0.,1.));
#1813=DIRECTION('',(-1.,0.,0.));
#1814=DIRECTION('',(-1.,0.,0.));
#1815=DIRECTION('',(0.,0.,1.));
#1816=DIRECTION('',(1.,0.,0.));
#1817=DIRECTION('',(0.,0.,1.));
#1818=DIRECTION('',(1.,0.,0.));
#1819=DIRECTION('',(0.,0.,-1.));
#1820=DIRECTION('',(-1.,0.,0.));
#1821=DIRECTION('',(0.,0.,1.));
#1822=DIRECTION('',(1.,0.,0.));
#1823=DIRECTION('',(0.,0.,-1.));
#1824=DIRECTION('',(-1.,0.,0.));
#1825=DIRECTION('',(0.,0.,1.));
#1826=DIRECTION('',(1.,0.,0.));
#1827=DIRECTION('',(0.,1.,0.));
#1828=DIRECTION('',(0.,0.,1.));
#1829=DIRECTION('',(-1.,0.,0.));
#1830=DIRECTION('',(0.,0.,1.));
#1831=DIRECTION('',(1.,0.,0.));
#1832=CARTESIAN_POINT('',(0.,0.,0.));
#1833=CARTESIAN_POINT('',(0.,6.93889390390723E-18,0.004));
#1834=CARTESIAN_POINT('',(-0.0362,-0.03253,0.004));
#1835=CARTESIAN_POINT('',(-0.03745,-0.03253,0.004));
#1836=CARTESIAN_POINT('',(-0.0362,-0.04919,0.004));
#1837=CARTESIAN_POINT('',(-0.03745,-0.04919,0.004));
#1838=CARTESIAN_POINT('',(0.04025,0.,0.004));
#1839=CARTESIAN_POINT('',(0.04025,-0.02665,0.004));
#1840=CARTESIAN_POINT('',(0.04025,-0.03165,0.004));
#1841=CARTESIAN_POINT('',(0.,-0.02665,0.004));
#1842=CARTESIAN_POINT('',(-0.04025,-0.02665,0.004));
#1843=CARTESIAN_POINT('',(-0.04025,0.,0.004));
#1844=CARTESIAN_POINT('',(-0.04025,-0.05295,0.004));
#1845=CARTESIAN_POINT('',(0.,-0.05295,0.004));
#1846=CARTESIAN_POINT('',(0.04025,-0.05295,0.004));
#1847=CARTESIAN_POINT('',(0.04025,0.,0.004));
#1848=CARTESIAN_POINT('',(0.04025,-0.04995,0.004));
#1849=CARTESIAN_POINT('',(2.77555756156289E-17,-0.04995,0.004));
#1850=CARTESIAN_POINT('',(-0.0315,-0.04995,0.004));
#1851=CARTESIAN_POINT('',(-0.0315,-0.0408,0.004));
#1852=CARTESIAN_POINT('',(-0.0315,-0.03165,0.004));
#1853=CARTESIAN_POINT('',(2.77555756156289E-17,-0.03165,0.004));
#1854=CARTESIAN_POINT('',(0.009525,0.0144,0.0015));
#1855=CARTESIAN_POINT('',(0.009525,0.0154,0.0015));
#1856=CARTESIAN_POINT('',(0.009525,0.0154,0.0015));
#1857=CARTESIAN_POINT('',(0.009525,0.0154,0.003));
#1858=CARTESIAN_POINT('',(0.009525,0.0144,0.003));
#1859=CARTESIAN_POINT('',(0.009525,-0.003125,0.003));
#1860=CARTESIAN_POINT('',(0.009525,-0.003125,0.0015));
#1861=CARTESIAN_POINT('',(0.009525,-0.003125,0.0015));
#1862=CARTESIAN_POINT('',(0.009525,0.0144,0.0015));
#1863=CARTESIAN_POINT('',(-0.009525,0.0144,0.0015));
#1864=CARTESIAN_POINT('',(-0.009525,0.0144,0.003));
#1865=CARTESIAN_POINT('',(-0.009525,-0.003125,0.003));
#1866=CARTESIAN_POINT('',(-0.009525,0.0154,0.003));
#1867=CARTESIAN_POINT('',(-0.009525,0.0154,0.0015));
#1868=CARTESIAN_POINT('',(-0.009525,0.0154,0.0015));
#1869=CARTESIAN_POINT('',(-0.009525,0.0144,0.0015));
#1870=CARTESIAN_POINT('',(-0.009525,-0.003125,0.0015));
#1871=CARTESIAN_POINT('',(-0.009525,-0.003125,0.0015));
#1872=CARTESIAN_POINT('',(-0.0187875,0.0154,0.0015));
#1873=CARTESIAN_POINT('',(-0.0187875,0.0154,0.003));
#1874=CARTESIAN_POINT('',(-0.02805,0.0154,0.003));
#1875=CARTESIAN_POINT('',(-0.02805,0.0154,0.0015));
#1876=CARTESIAN_POINT('',(-0.02805,0.0154,0.0015));
#1877=CARTESIAN_POINT('',(-0.0187875,0.0154,0.0015));
#1878=CARTESIAN_POINT('',(-0.02805,-0.003125,0.0015));
#1879=CARTESIAN_POINT('',(-0.02805,-0.003125,0.003));
#1880=CARTESIAN_POINT('',(-0.02805,-0.02165,0.003));
#1881=CARTESIAN_POINT('',(-0.02805,-0.02165,0.0015));
#1882=CARTESIAN_POINT('',(-0.02805,-0.02165,0.0015));
#1883=CARTESIAN_POINT('',(-0.02805,-0.003125,0.0015));
#1884=CARTESIAN_POINT('',(-3.46944695195361E-18,-0.02165,0.0015));
#1885=CARTESIAN_POINT('',(-3.46944695195361E-18,-0.02165,0.003));
#1886=CARTESIAN_POINT('',(0.02805,-0.02165,0.003));
#1887=CARTESIAN_POINT('',(0.02805,-0.02165,0.0015));
#1888=CARTESIAN_POINT('',(0.02805,-0.02165,0.0015));
#1889=CARTESIAN_POINT('',(-3.46944695195361E-18,-0.02165,0.0015));
#1890=CARTESIAN_POINT('',(0.02805,-0.003125,0.0015));
#1891=CARTESIAN_POINT('',(0.02805,-0.003125,0.003));
#1892=CARTESIAN_POINT('',(0.02805,0.0154,0.003));
#1893=CARTESIAN_POINT('',(0.02805,0.0154,0.0015));
#1894=CARTESIAN_POINT('',(0.02805,0.0154,0.0015));
#1895=CARTESIAN_POINT('',(0.02805,-0.003125,0.0015));
#1896=CARTESIAN_POINT('',(0.0187875,0.0154,0.0015));
#1897=CARTESIAN_POINT('',(0.0187875,0.0154,0.003));
#1898=CARTESIAN_POINT('',(0.0187875,0.0154,0.0015));
#1899=CARTESIAN_POINT('',(0.0315,-0.0408,0.004));
#1900=CARTESIAN_POINT('',(0.0315,-0.04995,0.004));
#1901=CARTESIAN_POINT('',(0.0315,-0.04995,0.001));
#1902=CARTESIAN_POINT('',(0.0315,-0.04995,0.));
#1903=CARTESIAN_POINT('',(0.0315,-0.0408,0.001));
#1904=CARTESIAN_POINT('',(0.0315,-0.03165,0.001));
#1905=CARTESIAN_POINT('',(0.0315,-0.03165,0.004));
#1906=CARTESIAN_POINT('',(0.0315,-0.03165,0.));
#1907=CARTESIAN_POINT('',(0.0315,-0.0408,0.));
#1908=CARTESIAN_POINT('',(-0.01205,-0.01265,0.0254));
#1909=CARTESIAN_POINT('',(-0.01205,-0.01965,0.0254));
#1910=CARTESIAN_POINT('',(-0.01205,-0.01965,0.0015));
#1911=CARTESIAN_POINT('',(-0.01205,-0.01965,0.));
#1912=CARTESIAN_POINT('',(-0.01205,6.93889390390723E-18,0.0015));
#1913=CARTESIAN_POINT('',(-0.01205,-0.00565,0.0015));
#1914=CARTESIAN_POINT('',(-0.01205,-0.00565,0.0254));
#1915=CARTESIAN_POINT('',(-0.01205,-0.00565,0.));
#1916=CARTESIAN_POINT('',(-0.01205,-0.01265,0.));
#1917=CARTESIAN_POINT('',(-0.01905,-0.01965,0.0254));
#1918=CARTESIAN_POINT('',(0.,-0.01965,0.0015));
#1919=CARTESIAN_POINT('',(-0.02605,-0.01965,0.0015));
#1920=CARTESIAN_POINT('',(-0.01905,-0.01965,0.));
#1921=CARTESIAN_POINT('',(-0.02605,-0.01965,0.));
#1922=CARTESIAN_POINT('',(-0.02605,-0.01965,0.0254));
#1923=CARTESIAN_POINT('',(-0.02605,-0.01265,0.0254));
#1924=CARTESIAN_POINT('',(-0.02605,6.93889390390723E-18,0.0015));
#1925=CARTESIAN_POINT('',(-0.02605,-0.00565,0.0015));
#1926=CARTESIAN_POINT('',(-0.02605,-0.01265,0.));
#1927=CARTESIAN_POINT('',(-0.02605,-0.00565,0.));
#1928=CARTESIAN_POINT('',(-0.02605,-0.00565,0.0254));
#1929=CARTESIAN_POINT('',(-0.01905,-0.00565,0.0254));
#1930=CARTESIAN_POINT('',(0.,-0.00565,0.0015));
#1931=CARTESIAN_POINT('',(-0.01905,-0.00565,0.));
#1932=CARTESIAN_POINT('',(0.02605,0.0064,0.0254));
#1933=CARTESIAN_POINT('',(0.02605,-0.0006,0.0254));
#1934=CARTESIAN_POINT('',(0.02605,-0.0006,0.0015));
#1935=CARTESIAN_POINT('',(0.02605,-0.0006,0.));
#1936=CARTESIAN_POINT('',(0.02605,6.93889390390723E-18,0.0015));
#1937=CARTESIAN_POINT('',(0.02605,0.0134,0.0015));
#1938=CARTESIAN_POINT('',(0.02605,0.0134,0.0254));
#1939=CARTESIAN_POINT('',(0.02605,0.0134,0.));
#1940=CARTESIAN_POINT('',(0.02605,0.0064,0.));
#1941=CARTESIAN_POINT('',(0.01905,-0.0006,0.0254));
#1942=CARTESIAN_POINT('',(-6.96987110883542E-20,-0.0006,0.0015));
#1943=CARTESIAN_POINT('',(0.01205,-0.0006,0.0015));
#1944=CARTESIAN_POINT('',(0.01905,-0.0006,0.));
#1945=CARTESIAN_POINT('',(0.01205,-0.0006,0.));
#1946=CARTESIAN_POINT('',(0.01205,-0.0006,0.0254));
#1947=CARTESIAN_POINT('',(0.01205,0.0064,0.0254));
#1948=CARTESIAN_POINT('',(0.01205,6.93889390390723E-18,0.0015));
#1949=CARTESIAN_POINT('',(0.01205,0.0134,0.0015));
#1950=CARTESIAN_POINT('',(0.01205,0.0064,0.));
#1951=CARTESIAN_POINT('',(0.01205,0.0134,0.));
#1952=CARTESIAN_POINT('',(0.01205,0.0134,0.0254));
#1953=CARTESIAN_POINT('',(0.01905,0.0134,0.0254));
#1954=CARTESIAN_POINT('',(0.,0.0134,0.0015));
#1955=CARTESIAN_POINT('',(0.01905,0.0134,0.));
#1956=CARTESIAN_POINT('',(-0.01205,0.0064,0.0254));
#1957=CARTESIAN_POINT('',(-0.01205,-0.00059999999999999,0.0254));
#1958=CARTESIAN_POINT('',(-0.01205,-0.00059999999999999,0.0015));
#1959=CARTESIAN_POINT('',(-0.01205,-0.00059999999999999,0.));
#1960=CARTESIAN_POINT('',(-0.01205,3.95269134883286E-18,0.0015));
#1961=CARTESIAN_POINT('',(-0.01205,0.0134,0.0015));
#1962=CARTESIAN_POINT('',(-0.01205,0.0134,0.0254));
#1963=CARTESIAN_POINT('',(-0.01205,0.0134,0.));
#1964=CARTESIAN_POINT('',(-0.01205,0.0064,0.));
#1965=CARTESIAN_POINT('',(-0.01905,-0.000599999999999991,0.0254));
#1966=CARTESIAN_POINT('',(7.43452918275769E-20,-0.000599999999999989,0.0015));
#1967=CARTESIAN_POINT('',(-0.02605,-0.000599999999999992,0.0015));
#1968=CARTESIAN_POINT('',(-0.01905,-0.000599999999999991,0.));
#1969=CARTESIAN_POINT('',(-0.02605,-0.000599999999999992,0.));
#1970=CARTESIAN_POINT('',(-0.02605,-0.000599999999999992,0.0254));
#1971=CARTESIAN_POINT('',(-0.02605,0.0064,0.0254));
#1972=CARTESIAN_POINT('',(-0.02605,6.93889390390723E-18,0.0015));
#1973=CARTESIAN_POINT('',(-0.02605,0.0134,0.0015));
#1974=CARTESIAN_POINT('',(-0.02605,0.0064,0.));
#1975=CARTESIAN_POINT('',(-0.02605,0.0134,0.));
#1976=CARTESIAN_POINT('',(-0.02605,0.0134,0.0254));
#1977=CARTESIAN_POINT('',(-0.01905,0.0134,0.0254));
#1978=CARTESIAN_POINT('',(0.,0.0134,0.0015));
#1979=CARTESIAN_POINT('',(-0.01905,0.0134,0.));
#1980=CARTESIAN_POINT('',(0.02605,-0.01265,0.0254));
#1981=CARTESIAN_POINT('',(0.02605,-0.01965,0.0254));
#1982=CARTESIAN_POINT('',(0.02605,-0.01965,0.0015));
#1983=CARTESIAN_POINT('',(0.02605,-0.01965,0.));
#1984=CARTESIAN_POINT('',(0.02605,6.93889390390723E-18,0.0015));
#1985=CARTESIAN_POINT('',(0.02605,-0.00565,0.0015));
#1986=CARTESIAN_POINT('',(0.02605,-0.00565,0.0254));
#1987=CARTESIAN_POINT('',(0.02605,-0.00565,0.));
#1988=CARTESIAN_POINT('',(0.02605,-0.01265,0.));
#1989=CARTESIAN_POINT('',(0.01905,-0.01965,0.0254));
#1990=CARTESIAN_POINT('',(0.,-0.01965,0.0015));
#1991=CARTESIAN_POINT('',(0.01205,-0.01965,0.0015));
#1992=CARTESIAN_POINT('',(0.01905,-0.01965,0.));
#1993=CARTESIAN_POINT('',(0.01205,-0.01965,0.));
#1994=CARTESIAN_POINT('',(0.01205,-0.01965,0.0254));
#1995=CARTESIAN_POINT('',(0.01205,-0.01265,0.0254));
#1996=CARTESIAN_POINT('',(0.01205,6.93889390390723E-18,0.0015));
#1997=CARTESIAN_POINT('',(0.01205,-0.00565,0.0015));
#1998=CARTESIAN_POINT('',(0.01205,-0.01265,0.));
#1999=CARTESIAN_POINT('',(0.01205,-0.00565,0.));
#2000=CARTESIAN_POINT('',(0.01205,-0.00565,0.0254));
#2001=CARTESIAN_POINT('',(0.01905,-0.00565,0.0254));
#2002=CARTESIAN_POINT('',(-7.00084831376355E-19,-0.00565,0.0015));
#2003=CARTESIAN_POINT('',(0.01905,-0.00565,0.));
#2004=CARTESIAN_POINT('',(0.007,-0.01265,0.0254));
#2005=CARTESIAN_POINT('',(0.007,-0.01965,0.0254));
#2006=CARTESIAN_POINT('',(0.007,-0.01965,0.0015));
#2007=CARTESIAN_POINT('',(0.007,-0.01965,0.));
#2008=CARTESIAN_POINT('',(0.007,6.50521303491303E-18,0.0015));
#2009=CARTESIAN_POINT('',(0.007,-0.00565,0.0015));
#2010=CARTESIAN_POINT('',(0.007,-0.00565,0.0254));
#2011=CARTESIAN_POINT('',(0.007,-0.00565,0.));
#2012=CARTESIAN_POINT('',(0.007,-0.01265,0.));
#2013=CARTESIAN_POINT('',(-0.0035,-0.01965,0.0254));
#2014=CARTESIAN_POINT('',(0.,-0.01965,0.0015));
#2015=CARTESIAN_POINT('',(-0.007,-0.01965,0.0015));
#2016=CARTESIAN_POINT('',(-0.0035,-0.01965,0.));
#2017=CARTESIAN_POINT('',(-0.007,-0.01965,0.));
#2018=CARTESIAN_POINT('',(-0.007,-0.01965,0.0254));
#2019=CARTESIAN_POINT('',(-0.007,-0.01265,0.0254));
#2020=CARTESIAN_POINT('',(-0.007,7.37257477290143E-18,0.0015));
#2021=CARTESIAN_POINT('',(-0.007,-0.00565,0.0015));
#2022=CARTESIAN_POINT('',(-0.007,-0.01265,0.));
#2023=CARTESIAN_POINT('',(-0.007,-0.00565,0.));
#2024=CARTESIAN_POINT('',(-0.007,-0.00565,0.0254));
#2025=CARTESIAN_POINT('',(-0.0035,-0.00565,0.0254));
#2026=CARTESIAN_POINT('',(-7.00084831376354E-19,-0.00565,0.0015));
#2027=CARTESIAN_POINT('',(-0.0035,-0.00565,0.));
#2028=CARTESIAN_POINT('',(0.,6.93889390390723E-18,0.));
#2029=CARTESIAN_POINT('',(2.77555756156289E-17,-0.03165,0.));
#2030=CARTESIAN_POINT('',(-0.0315,-0.03165,0.));
#2031=CARTESIAN_POINT('',(-0.0315,-0.0408,0.));
#2032=CARTESIAN_POINT('',(-0.0315,-0.04995,0.));
#2033=CARTESIAN_POINT('',(2.77555756156289E-17,-0.04995,0.));
#2034=CARTESIAN_POINT('',(-0.0362,-0.04919,0.));
#2035=CARTESIAN_POINT('',(-0.03745,-0.04919,0.));
#2036=CARTESIAN_POINT('',(-0.0362,-0.03253,0.));
#2037=CARTESIAN_POINT('',(-0.03745,-0.03253,0.));
#2038=CARTESIAN_POINT('',(-0.04445,6.93889390390723E-18,0.));
#2039=CARTESIAN_POINT('',(-0.04445,0.04953,0.));
#2040=CARTESIAN_POINT('',(-0.04445,-0.04953,0.));
#2041=CARTESIAN_POINT('',(-0.03683,0.04953,0.));
#2042=CARTESIAN_POINT('',(-0.03683,0.05715,0.));
#2043=CARTESIAN_POINT('',(1.38777878078145E-17,0.05715,0.));
#2044=CARTESIAN_POINT('',(0.03683,0.05715,0.));
#2045=CARTESIAN_POINT('',(0.03683,0.04953,0.));
#2046=CARTESIAN_POINT('',(0.04445,0.04953,0.));
#2047=CARTESIAN_POINT('',(0.04445,0.,0.));
#2048=CARTESIAN_POINT('',(0.04445,-0.04953,0.));
#2049=CARTESIAN_POINT('',(0.03683,-0.04953,0.));
#2050=CARTESIAN_POINT('',(0.03683,-0.05715,0.));
#2051=CARTESIAN_POINT('',(-6.93889390390723E-18,-0.05715,0.));
#2052=CARTESIAN_POINT('',(-0.03683,-0.05715,0.));
#2053=CARTESIAN_POINT('',(-0.03683,-0.04953,0.));
#2054=CARTESIAN_POINT('',(-1.34671986484423E-17,0.0064,0.));
#2055=CARTESIAN_POINT('',(-0.00610000000000001,0.0064,0.));
#2056=CARTESIAN_POINT('',(0.,6.93889390390723E-18,0.004));
#2057=CARTESIAN_POINT('',(1.38777878078145E-17,0.05715,0.004));
#2058=CARTESIAN_POINT('',(-0.03683,0.05715,0.004));
#2059=CARTESIAN_POINT('',(0.03683,0.05715,0.004));
#2060=CARTESIAN_POINT('',(-0.03683,0.04953,0.004));
#2061=CARTESIAN_POINT('',(-0.04445,0.04953,0.004));
#2062=CARTESIAN_POINT('',(-0.04445,6.93889390390723E-18,0.004));
#2063=CARTESIAN_POINT('',(-0.04445,-0.04953,0.004));
#2064=CARTESIAN_POINT('',(-0.03683,-0.04953,0.004));
#2065=CARTESIAN_POINT('',(-0.03683,-0.05715,0.004));
#2066=CARTESIAN_POINT('',(-6.93889390390723E-18,-0.05715,0.004));
#2067=CARTESIAN_POINT('',(0.03683,-0.05715,0.004));
#2068=CARTESIAN_POINT('',(0.03683,-0.04953,0.004));
#2069=CARTESIAN_POINT('',(0.04445,-0.04953,0.004));
#2070=CARTESIAN_POINT('',(0.04445,0.,0.004));
#2071=CARTESIAN_POINT('',(0.04445,0.04953,0.004));
#2072=CARTESIAN_POINT('',(0.03683,0.04953,0.004));
#2073=CARTESIAN_POINT('',(-0.04125,0.,0.004));
#2074=CARTESIAN_POINT('',(-0.04125,0.05395,0.004));
#2075=CARTESIAN_POINT('',(-0.04125,-0.05395,0.004));
#2076=CARTESIAN_POINT('',(0.,0.05395,0.004));
#2077=CARTESIAN_POINT('',(0.04125,0.05395,0.004));
#2078=CARTESIAN_POINT('',(0.04125,0.,0.004));
#2079=CARTESIAN_POINT('',(0.04125,-0.05395,0.004));
#2080=CARTESIAN_POINT('',(0.,-0.05395,0.004));
#2081=CARTESIAN_POINT('',(1.38777878078145E-17,0.05715,0.004));
#2082=CARTESIAN_POINT('',(-0.03683,0.05715,0.004));
#2083=CARTESIAN_POINT('',(0.03683,0.05715,0.004));
#2084=CARTESIAN_POINT('',(-0.04445,6.93889390390723E-18,0.004));
#2085=CARTESIAN_POINT('',(-0.04445,0.04953,0.));
#2086=CARTESIAN_POINT('',(-0.04445,-0.04953,0.004));
#2087=CARTESIAN_POINT('',(-6.93889390390723E-18,-0.05715,0.004));
#2088=CARTESIAN_POINT('',(0.03683,-0.05715,0.004));
#2089=CARTESIAN_POINT('',(-0.03683,-0.05715,0.004));
#2090=CARTESIAN_POINT('',(0.04445,0.,0.004));
#2091=CARTESIAN_POINT('',(0.04445,0.04953,0.004));
#2092=CARTESIAN_POINT('',(0.04445,-0.04953,0.));
#2093=CARTESIAN_POINT('',(0.,0.05395,0.007));
#2094=CARTESIAN_POINT('',(-0.04125,0.05395,0.007));
#2095=CARTESIAN_POINT('',(-0.04125,0.05395,0.007));
#2096=CARTESIAN_POINT('',(0.,0.05395,0.007));
#2097=CARTESIAN_POINT('',(0.04125,0.05395,0.007));
#2098=CARTESIAN_POINT('',(0.04125,0.05395,0.007));
#2099=CARTESIAN_POINT('',(-0.04125,0.,0.007));
#2100=CARTESIAN_POINT('',(-0.04125,-0.05395,0.007));
#2101=CARTESIAN_POINT('',(-0.04125,-0.05395,0.007));
#2102=CARTESIAN_POINT('',(-0.04125,0.,0.007));
#2103=CARTESIAN_POINT('',(0.,-0.05395,0.007));
#2104=CARTESIAN_POINT('',(0.04125,-0.05395,0.007));
#2105=CARTESIAN_POINT('',(0.04125,-0.05395,0.007));
#2106=CARTESIAN_POINT('',(0.,-0.05395,0.007));
#2107=CARTESIAN_POINT('',(-0.04025,0.,0.007));
#2108=CARTESIAN_POINT('',(-0.04025,-0.02665,0.003));
#2109=CARTESIAN_POINT('',(-0.04025,-0.02665,0.003));
#2110=CARTESIAN_POINT('',(-0.04025,0.,0.003));
#2111=CARTESIAN_POINT('',(-0.04025,0.05295,0.003));
#2112=CARTESIAN_POINT('',(-0.04025,0.05295,0.007));
#2113=CARTESIAN_POINT('',(-0.04025,0.05295,0.007));
#2114=CARTESIAN_POINT('',(-0.04025,0.,0.007));
#2115=CARTESIAN_POINT('',(-0.04025,-0.05295,0.007));
#2116=CARTESIAN_POINT('',(-0.04025,-0.05295,0.007));
#2117=CARTESIAN_POINT('',(0.,0.05295,0.007));
#2118=CARTESIAN_POINT('',(0.,0.05295,0.003));
#2119=CARTESIAN_POINT('',(0.04025,0.05295,0.003));
#2120=CARTESIAN_POINT('',(0.04025,0.05295,0.007));
#2121=CARTESIAN_POINT('',(0.04025,0.05295,0.007));
#2122=CARTESIAN_POINT('',(0.,0.05295,0.007));
#2123=CARTESIAN_POINT('',(0.04025,0.,0.007));
#2124=CARTESIAN_POINT('',(0.04025,0.,0.003));
#2125=CARTESIAN_POINT('',(0.04025,-0.02665,0.003));
#2126=CARTESIAN_POINT('',(0.04025,-0.02665,0.003));
#2127=CARTESIAN_POINT('',(0.04025,-0.03165,0.001));
#2128=CARTESIAN_POINT('',(0.04025,-0.03165,0.001));
#2129=CARTESIAN_POINT('',(0.04025,0.,0.001));
#2130=CARTESIAN_POINT('',(0.04025,-0.04995,0.001));
#2131=CARTESIAN_POINT('',(0.04025,-0.04995,0.001));
#2132=CARTESIAN_POINT('',(0.04025,-0.05295,0.007));
#2133=CARTESIAN_POINT('',(0.04025,-0.05295,0.007));
#2134=CARTESIAN_POINT('',(0.04025,0.,0.007));
#2135=CARTESIAN_POINT('',(0.,-0.05295,0.007));
#2136=CARTESIAN_POINT('',(0.,-0.05295,0.007));
#2137=CARTESIAN_POINT('',(0.04125,0.,0.007));
#2138=CARTESIAN_POINT('',(0.04125,0.,0.007));
#2139=CARTESIAN_POINT('',(0.,0.,0.007));
#2140=CARTESIAN_POINT('',(-0.0362,-0.03253,0.004));
#2141=CARTESIAN_POINT('',(-0.0362,-0.04919,0.004));
#2142=CARTESIAN_POINT('',(2.77555756156289E-17,-0.04995,0.004));
#2143=CARTESIAN_POINT('',(-0.0315,-0.04995,0.004));
#2144=CARTESIAN_POINT('',(0.035875,-0.04995,0.001));
#2145=CARTESIAN_POINT('',(-0.0315,-0.0408,0.004));
#2146=CARTESIAN_POINT('',(-0.0315,-0.03165,0.004));
#2147=CARTESIAN_POINT('',(2.77555756156289E-17,-0.03165,0.004));
#2148=CARTESIAN_POINT('',(0.035875,-0.03165,0.001));
#2149=CARTESIAN_POINT('',(-3.31653560152977E-18,0.0064,0.0116));
#2150=CARTESIAN_POINT('',(-3.31653560152977E-18,0.0064,0.0116));
#2151=CARTESIAN_POINT('',(-0.007,0.0064,0.0116));
#2152=CARTESIAN_POINT('',(-3.31653560152977E-18,0.0064,0.003));
#2153=CARTESIAN_POINT('',(0.007,0.0064,0.003));
#2154=CARTESIAN_POINT('',(0.,6.93889390390723E-18,0.0116));
#2155=CARTESIAN_POINT('',(0.0027712812921102,0.0016,0.0116));
#2156=CARTESIAN_POINT('',(-0.00225,0.01029711431703,0.0116));
#2157=CARTESIAN_POINT('',(-0.00305,0.0116827549630851,0.0116));
#2158=CARTESIAN_POINT('',(-1.34671986484423E-17,0.0064,0.0116));
#2159=CARTESIAN_POINT('',(0.00305,0.0116827549630851,0.0116));
#2160=CARTESIAN_POINT('',(-0.0027712812921102,0.0016,0.0116));
#2161=CARTESIAN_POINT('',(0.00225,0.01029711431703,0.0116));
#2162=CARTESIAN_POINT('',(-2.16840434497101E-18,0.0064,0.0116));
#2163=CARTESIAN_POINT('',(0.00225,0.00250288568297003,0.0116));
#2164=CARTESIAN_POINT('',(0.0027712812921102,0.0016,0.0116));
#2165=CARTESIAN_POINT('',(0.00305,0.00111724503691493,0.0116));
#2166=CARTESIAN_POINT('',(-1.58229372873423E-18,0.0064,0.0116));
#2167=CARTESIAN_POINT('',(-0.00305,0.00111724503691493,0.0116));
#2168=CARTESIAN_POINT('',(-0.0027712812921102,0.0016,0.0116));
#2169=CARTESIAN_POINT('',(-0.00225,0.00250288568297003,0.0116));
#2170=CARTESIAN_POINT('',(-2.38524477946811E-18,0.0064,0.0116));
#2171=CARTESIAN_POINT('',(-1.34671986484423E-17,0.0064,0.0254));
#2172=CARTESIAN_POINT('',(-0.00305,0.0116827549630851,0.0254));
#2173=CARTESIAN_POINT('',(-0.00305,0.0116827549630851,0.0096));
#2174=CARTESIAN_POINT('',(-2.38524477946811E-18,0.0064,0.0096));
#2175=CARTESIAN_POINT('',(-0.00305,0.00111724503691493,0.0096));
#2176=CARTESIAN_POINT('',(-0.00305,0.00111724503691493,0.0254));
#2177=CARTESIAN_POINT('',(0.00305,0.00111724503691493,0.0254));
#2178=CARTESIAN_POINT('',(0.00305,0.00111724503691493,0.0096));
#2179=CARTESIAN_POINT('',(-1.3010426069826E-18,0.0064,0.0096));
#2180=CARTESIAN_POINT('',(0.00305,0.0116827549630851,0.0096));
#2181=CARTESIAN_POINT('',(0.00305,0.0116827549630851,0.0254));
#2182=CARTESIAN_POINT('',(0.00265,0.0109899346400575,0.0254));
#2183=CARTESIAN_POINT('',(0.00265,0.0109899346400575,0.0096));
#2184=CARTESIAN_POINT('',(0.00225,0.01029711431703,0.0096));
#2185=CARTESIAN_POINT('',(0.00225,0.01029711431703,0.0254));
#2186=CARTESIAN_POINT('',(-2.16840434497101E-18,0.0064,0.0254));
#2187=CARTESIAN_POINT('',(-2.16840434497101E-18,0.0064,0.0096));
#2188=CARTESIAN_POINT('',(0.00225,0.00250288568297003,0.0096));
#2189=CARTESIAN_POINT('',(0.00225,0.00250288568297003,0.0254));
#2190=CARTESIAN_POINT('',(0.00265,0.00181006535994248,0.0254));
#2191=CARTESIAN_POINT('',(0.00265,0.00181006535994248,0.0096));
#2192=CARTESIAN_POINT('',(-0.00265,0.00181006535994248,0.0254));
#2193=CARTESIAN_POINT('',(-0.00265,0.00181006535994248,0.0096));
#2194=CARTESIAN_POINT('',(-0.00225,0.00250288568297003,0.0096));
#2195=CARTESIAN_POINT('',(-0.00225,0.00250288568297003,0.0254));
#2196=CARTESIAN_POINT('',(-2.38524477946811E-18,0.0064,0.0254));
#2197=CARTESIAN_POINT('',(-2.38524477946811E-18,0.0064,0.0096));
#2198=CARTESIAN_POINT('',(-0.00225,0.01029711431703,0.0096));
#2199=CARTESIAN_POINT('',(-0.00225,0.01029711431703,0.0254));
#2200=CARTESIAN_POINT('',(-0.00265,0.0109899346400575,0.0254));
#2201=CARTESIAN_POINT('',(-0.00265,0.0109899346400575,0.0096));
#2202=CARTESIAN_POINT('',(0.,6.93889390390723E-18,0.0096));
#2203=CARTESIAN_POINT('',(0.,6.93889390390723E-18,0.0096));
#2204=CARTESIAN_POINT('',(0.0047625,-0.003125,0.0015));
#2205=CARTESIAN_POINT('',(0.0047625,-0.003125,0.003));
#2206=CARTESIAN_POINT('',(0.0047625,-0.003125,0.0015));
#2207=CARTESIAN_POINT('',(0.,0.,0.0015));
#2208=CARTESIAN_POINT('',(-0.03683,0.04953,0.004));
#2209=CARTESIAN_POINT('',(0.03683,0.04953,0.004));
#2210=CARTESIAN_POINT('',(0.03683,-0.04953,0.004));
#2211=CARTESIAN_POINT('',(-0.03683,-0.04953,0.004));
#2212=CARTESIAN_POINT('',(0.,0.,0.001));
#2213=CARTESIAN_POINT('',(0.,-0.02665,0.003));
#2214=CARTESIAN_POINT('',(0.,-0.02665,0.003));
#2215=CARTESIAN_POINT('',(0.,0.,0.003));
#2216=MECHANICAL_DESIGN_GEOMETRIC_PRESENTATION_REPRESENTATION('',(#1378),
#2217);
#2217=(
GEOMETRIC_REPRESENTATION_CONTEXT(3)
GLOBAL_UNCERTAINTY_ASSIGNED_CONTEXT((#2218))
GLOBAL_UNIT_ASSIGNED_CONTEXT((#2221,#2220,#2219))
REPRESENTATION_CONTEXT('Part 1','TOP_LEVEL_ASSEMBLY_PART')
);
#2218=UNCERTAINTY_MEASURE_WITH_UNIT(LENGTH_MEASURE(1.E-8),#2221,
'DISTANCE_ACCURACY_VALUE','Maximum Tolerance applied to model');
#2219=(
NAMED_UNIT(*)
SI_UNIT($,.STERADIAN.)
SOLID_ANGLE_UNIT()
);
#2220=(
NAMED_UNIT(*)
PLANE_ANGLE_UNIT()
SI_UNIT($,.RADIAN.)
);
#2221=(
LENGTH_UNIT()
NAMED_UNIT(*)
SI_UNIT($,.METRE.)
);
#2222=PRODUCT_DEFINITION_SHAPE('','',#2223);
#2223=PRODUCT_DEFINITION('','',#2225,#2224);
#2224=PRODUCT_DEFINITION_CONTEXT('',#2231,'design');
#2225=PRODUCT_DEFINITION_FORMATION_WITH_SPECIFIED_SOURCE('','',#2227,
 .NOT_KNOWN.);
#2226=PRODUCT_RELATED_PRODUCT_CATEGORY('','',(#2227));
#2227=PRODUCT('Part 1','Part 1','Part 1',(#2229));
#2228=PRODUCT_CATEGORY('','');
#2229=PRODUCT_CONTEXT('',#2231,'mechanical');
#2230=APPLICATION_PROTOCOL_DEFINITION('international standard',
'ap242_managed_model_based_3d_engineering',2020,#2231);
#2231=APPLICATION_CONTEXT('managed model based 3d engineering');
ENDSEC;
END-ISO-10303-21;
