ISO-10303-21;
HEADER;
/* Generated by software containing ST-Developer
 * from STEP Tools, Inc. (www.steptools.com) 
 */
/* OPTION: using custom renumber hook */

FILE_DESCRIPTION(
/* description */ ('STEP AP242 Edition 2',
'CAx-IF Rec.Pracs.---Representation and Presentation of Product Manufa
cturing Information (PMI)---4.0---2014-10-13',
'CAx-IF Rec.Pracs.---3D Tessellated Geometry---0.4---2014-09-14','2;1',
'CAx-IF Rec.Pracs.---User Defined Attributes---1.5---2016-08-15'),
/* implementation_level */ '2;1');

FILE_NAME(
/* name */ 'Alarm Clock Lid v3',
/* time_stamp */ '2026-08-12T17:56:42Z',
/* author */ (''),
/* organization */ (''),
/* preprocessor_version */ 'ST-DEVELOPER v20',
/* originating_system */ 'ONSHAPE BY PTC INC, 1.219',
/* authorisation */ '  ');

FILE_SCHEMA (('AP242_MANAGED_MODEL_BASED_3D_ENGINEERING_MIM_LF { 1 0 10303 442 3 1 4 }'));
ENDSEC;

DATA;
#10=SHAPE_REPRESENTATION_RELATIONSHIP('','',#1346,#11);
#11=ADVANCED_BREP_SHAPE_REPRESENTATION('',(#1344),#2151);
#12=CYLINDRICAL_SURFACE('',#1399,0.00125);
#13=CYLINDRICAL_SURFACE('',#1400,0.00125);
#14=CYLINDRICAL_SURFACE('',#1404,0.007);
#15=CYLINDRICAL_SURFACE('',#1411,0.0061);
#16=CYLINDRICAL_SURFACE('',#1415,0.0045);
#17=CYLINDRICAL_SURFACE('',#1419,0.0045);
#18=CYLINDRICAL_SURFACE('',#1433,0.00762);
#19=CYLINDRICAL_SURFACE('',#1434,0.00762);
#20=CYLINDRICAL_SURFACE('',#1435,0.00762);
#21=CYLINDRICAL_SURFACE('',#1436,0.00762);
#22=LINE('',#1786,#180);
#23=LINE('',#1789,#181);
#24=LINE('',#1791,#182);
#25=LINE('',#1793,#183);
#26=LINE('',#1795,#184);
#27=LINE('',#1797,#185);
#28=LINE('',#1799,#186);
#29=LINE('',#1801,#187);
#30=LINE('',#1802,#188);
#31=LINE('',#1805,#189);
#32=LINE('',#1807,#190);
#33=LINE('',#1809,#191);
#34=LINE('',#1811,#192);
#35=LINE('',#1813,#193);
#36=LINE('',#1815,#194);
#37=LINE('',#1817,#195);
#38=LINE('',#1819,#196);
#39=LINE('',#1822,#197);
#40=LINE('',#1824,#198);
#41=LINE('',#1826,#199);
#42=LINE('',#1828,#200);
#43=LINE('',#1831,#201);
#44=LINE('',#1833,#202);
#45=LINE('',#1835,#203);
#46=LINE('',#1837,#204);
#47=LINE('',#1839,#205);
#48=LINE('',#1841,#206);
#49=LINE('',#1843,#207);
#50=LINE('',#1845,#208);
#51=LINE('',#1847,#209);
#52=LINE('',#1849,#210);
#53=LINE('',#1850,#211);
#54=LINE('',#1852,#212);
#55=LINE('',#1855,#213);
#56=LINE('',#1857,#214);
#57=LINE('',#1859,#215);
#58=LINE('',#1861,#216);
#59=LINE('',#1863,#217);
#60=LINE('',#1865,#218);
#61=LINE('',#1867,#219);
#62=LINE('',#1869,#220);
#63=LINE('',#1871,#221);
#64=LINE('',#1873,#222);
#65=LINE('',#1874,#223);
#66=LINE('',#1876,#224);
#67=LINE('',#1879,#225);
#68=LINE('',#1881,#226);
#69=LINE('',#1883,#227);
#70=LINE('',#1885,#228);
#71=LINE('',#1887,#229);
#72=LINE('',#1889,#230);
#73=LINE('',#1891,#231);
#74=LINE('',#1893,#232);
#75=LINE('',#1895,#233);
#76=LINE('',#1897,#234);
#77=LINE('',#1898,#235);
#78=LINE('',#1900,#236);
#79=LINE('',#1903,#237);
#80=LINE('',#1905,#238);
#81=LINE('',#1907,#239);
#82=LINE('',#1909,#240);
#83=LINE('',#1911,#241);
#84=LINE('',#1913,#242);
#85=LINE('',#1915,#243);
#86=LINE('',#1917,#244);
#87=LINE('',#1919,#245);
#88=LINE('',#1921,#246);
#89=LINE('',#1922,#247);
#90=LINE('',#1924,#248);
#91=LINE('',#1927,#249);
#92=LINE('',#1929,#250);
#93=LINE('',#1931,#251);
#94=LINE('',#1933,#252);
#95=LINE('',#1935,#253);
#96=LINE('',#1937,#254);
#97=LINE('',#1939,#255);
#98=LINE('',#1941,#256);
#99=LINE('',#1943,#257);
#100=LINE('',#1945,#258);
#101=LINE('',#1946,#259);
#102=LINE('',#1948,#260);
#103=LINE('',#1950,#261);
#104=LINE('',#1952,#262);
#105=LINE('',#1957,#263);
#106=LINE('',#1962,#264);
#107=LINE('',#1966,#265);
#108=LINE('',#1970,#266);
#109=LINE('',#1976,#267);
#110=LINE('',#1981,#268);
#111=LINE('',#1985,#269);
#112=LINE('',#1989,#270);
#113=LINE('',#1992,#271);
#114=LINE('',#1995,#272);
#115=LINE('',#1997,#273);
#116=LINE('',#1999,#274);
#117=LINE('',#2001,#275);
#118=LINE('',#2002,#276);
#119=LINE('',#2004,#277);
#120=LINE('',#2005,#278);
#121=LINE('',#2007,#279);
#122=LINE('',#2008,#280);
#123=LINE('',#2010,#281);
#124=LINE('',#2011,#282);
#125=LINE('',#2013,#283);
#126=LINE('',#2015,#284);
#127=LINE('',#2017,#285);
#128=LINE('',#2019,#286);
#129=LINE('',#2021,#287);
#130=LINE('',#2023,#288);
#131=LINE('',#2025,#289);
#132=LINE('',#2027,#290);
#133=LINE('',#2029,#291);
#134=LINE('',#2031,#292);
#135=LINE('',#2033,#293);
#136=LINE('',#2035,#294);
#137=LINE('',#2037,#295);
#138=LINE('',#2039,#296);
#139=LINE('',#2041,#297);
#140=LINE('',#2042,#298);
#141=LINE('',#2044,#299);
#142=LINE('',#2046,#300);
#143=LINE('',#2048,#301);
#144=LINE('',#2053,#302);
#145=LINE('',#2054,#303);
#146=LINE('',#2056,#304);
#147=LINE('',#2058,#305);
#148=LINE('',#2063,#306);
#149=LINE('',#2068,#307);
#150=LINE('',#2072,#308);
#151=LINE('',#2076,#309);
#152=LINE('',#2080,#310);
#153=LINE('',#2084,#311);
#154=LINE('',#2085,#312);
#155=LINE('',#2089,#313);
#156=LINE('',#2091,#314);
#157=LINE('',#2093,#315);
#158=LINE('',#2097,#316);
#159=LINE('',#2099,#317);
#160=LINE('',#2101,#318);
#161=LINE('',#2103,#319);
#162=LINE('',#2107,#320);
#163=LINE('',#2109,#321);
#164=LINE('',#2113,#322);
#165=LINE('',#2115,#323);
#166=LINE('',#2117,#324);
#167=LINE('',#2119,#325);
#168=LINE('',#2121,#326);
#169=LINE('',#2123,#327);
#170=LINE('',#2125,#328);
#171=LINE('',#2127,#329);
#172=LINE('',#2129,#330);
#173=LINE('',#2131,#331);
#174=LINE('',#2133,#332);
#175=LINE('',#2135,#333);
#176=LINE('',#2137,#334);
#177=LINE('',#2139,#335);
#178=LINE('',#2141,#336);
#179=LINE('',#2143,#337);
#180=VECTOR('',#1448,1.);
#181=VECTOR('',#1449,1.);
#182=VECTOR('',#1450,1.);
#183=VECTOR('',#1451,1.);
#184=VECTOR('',#1452,1.);
#185=VECTOR('',#1453,1.);
#186=VECTOR('',#1454,1.);
#187=VECTOR('',#1455,1.);
#188=VECTOR('',#1456,1.);
#189=VECTOR('',#1457,1.);
#190=VECTOR('',#1458,1.);
#191=VECTOR('',#1459,1.);
#192=VECTOR('',#1460,1.);
#193=VECTOR('',#1461,1.);
#194=VECTOR('',#1462,1.);
#195=VECTOR('',#1463,1.);
#196=VECTOR('',#1466,1.);
#197=VECTOR('',#1467,1.);
#198=VECTOR('',#1468,1.);
#199=VECTOR('',#1469,1.);
#200=VECTOR('',#1472,1.);
#201=VECTOR('',#1473,1.);
#202=VECTOR('',#1474,1.);
#203=VECTOR('',#1475,1.);
#204=VECTOR('',#1478,1.);
#205=VECTOR('',#1479,1.);
#206=VECTOR('',#1480,1.);
#207=VECTOR('',#1483,1.);
#208=VECTOR('',#1484,1.);
#209=VECTOR('',#1485,1.);
#210=VECTOR('',#1488,1.);
#211=VECTOR('',#1489,1.);
#212=VECTOR('',#1492,1.);
#213=VECTOR('',#1493,1.);
#214=VECTOR('',#1494,1.);
#215=VECTOR('',#1495,1.);
#216=VECTOR('',#1498,1.);
#217=VECTOR('',#1499,1.);
#218=VECTOR('',#1500,1.);
#219=VECTOR('',#1503,1.);
#220=VECTOR('',#1504,1.);
#221=VECTOR('',#1505,1.);
#222=VECTOR('',#1508,1.);
#223=VECTOR('',#1509,1.);
#224=VECTOR('',#1512,1.);
#225=VECTOR('',#1513,1.);
#226=VECTOR('',#1514,1.);
#227=VECTOR('',#1515,1.);
#228=VECTOR('',#1518,1.);
#229=VECTOR('',#1519,1.);
#230=VECTOR('',#1520,1.);
#231=VECTOR('',#1523,1.);
#232=VECTOR('',#1524,1.);
#233=VECTOR('',#1525,1.);
#234=VECTOR('',#1528,1.);
#235=VECTOR('',#1529,1.);
#236=VECTOR('',#1532,1.);
#237=VECTOR('',#1533,1.);
#238=VECTOR('',#1534,1.);
#239=VECTOR('',#1535,1.);
#240=VECTOR('',#1538,1.);
#241=VECTOR('',#1539,1.);
#242=VECTOR('',#1540,1.);
#243=VECTOR('',#1543,1.);
#244=VECTOR('',#1544,1.);
#245=VECTOR('',#1545,1.);
#246=VECTOR('',#1548,1.);
#247=VECTOR('',#1549,1.);
#248=VECTOR('',#1552,1.);
#249=VECTOR('',#1553,1.);
#250=VECTOR('',#1554,1.);
#251=VECTOR('',#1555,1.);
#252=VECTOR('',#1558,1.);
#253=VECTOR('',#1559,1.);
#254=VECTOR('',#1560,1.);
#255=VECTOR('',#1563,1.);
#256=VECTOR('',#1564,1.);
#257=VECTOR('',#1565,1.);
#258=VECTOR('',#1568,1.);
#259=VECTOR('',#1569,1.);
#260=VECTOR('',#1572,1.);
#261=VECTOR('',#1573,1.);
#262=VECTOR('',#1574,1.);
#263=VECTOR('',#1579,1.);
#264=VECTOR('',#1582,1.);
#265=VECTOR('',#1585,1.);
#266=VECTOR('',#1588,1.);
#267=VECTOR('',#1595,1.);
#268=VECTOR('',#1598,1.);
#269=VECTOR('',#1601,1.);
#270=VECTOR('',#1604,1.);
#271=VECTOR('',#1607,1.);
#272=VECTOR('',#1608,1.);
#273=VECTOR('',#1609,1.);
#274=VECTOR('',#1610,1.);
#275=VECTOR('',#1613,1.);
#276=VECTOR('',#1614,1.);
#277=VECTOR('',#1617,1.);
#278=VECTOR('',#1618,1.);
#279=VECTOR('',#1621,1.);
#280=VECTOR('',#1622,1.);
#281=VECTOR('',#1625,1.);
#282=VECTOR('',#1626,1.);
#283=VECTOR('',#1629,1.);
#284=VECTOR('',#1630,1.);
#285=VECTOR('',#1631,1.);
#286=VECTOR('',#1634,1.);
#287=VECTOR('',#1635,1.);
#288=VECTOR('',#1638,1.);
#289=VECTOR('',#1639,1.);
#290=VECTOR('',#1642,1.);
#291=VECTOR('',#1643,1.);
#292=VECTOR('',#1644,1.);
#293=VECTOR('',#1647,1.);
#294=VECTOR('',#1648,1.);
#295=VECTOR('',#1651,1.);
#296=VECTOR('',#1652,1.);
#297=VECTOR('',#1653,1.);
#298=VECTOR('',#1654,1.);
#299=VECTOR('',#1655,1.);
#300=VECTOR('',#1658,1.);
#301=VECTOR('',#1661,1.);
#302=VECTOR('',#1670,1.);
#303=VECTOR('',#1671,1.);
#304=VECTOR('',#1674,1.);
#305=VECTOR('',#1677,1.);
#306=VECTOR('',#1684,1.);
#307=VECTOR('',#1687,1.);
#308=VECTOR('',#1690,1.);
#309=VECTOR('',#1693,1.);
#310=VECTOR('',#1698,1.);
#311=VECTOR('',#1701,1.);
#312=VECTOR('',#1702,1.);
#313=VECTOR('',#1705,1.);
#314=VECTOR('',#1708,1.);
#315=VECTOR('',#1709,1.);
#316=VECTOR('',#1714,1.);
#317=VECTOR('',#1717,1.);
#318=VECTOR('',#1720,1.);
#319=VECTOR('',#1721,1.);
#320=VECTOR('',#1726,1.);
#321=VECTOR('',#1729,1.);
#322=VECTOR('',#1736,1.);
#323=VECTOR('',#1737,1.);
#324=VECTOR('',#1738,1.);
#325=VECTOR('',#1741,1.);
#326=VECTOR('',#1742,1.);
#327=VECTOR('',#1745,1.);
#328=VECTOR('',#1746,1.);
#329=VECTOR('',#1749,1.);
#330=VECTOR('',#1750,1.);
#331=VECTOR('',#1753,1.);
#332=VECTOR('',#1754,1.);
#333=VECTOR('',#1757,1.);
#334=VECTOR('',#1758,1.);
#335=VECTOR('',#1761,1.);
#336=VECTOR('',#1762,1.);
#337=VECTOR('',#1765,1.);
#338=ORIENTED_EDGE('',*,*,#700,.T.);
#339=ORIENTED_EDGE('',*,*,#701,.T.);
#340=ORIENTED_EDGE('',*,*,#702,.F.);
#341=ORIENTED_EDGE('',*,*,#703,.F.);
#342=ORIENTED_EDGE('',*,*,#704,.T.);
#343=ORIENTED_EDGE('',*,*,#705,.F.);
#344=ORIENTED_EDGE('',*,*,#706,.F.);
#345=ORIENTED_EDGE('',*,*,#707,.T.);
#346=ORIENTED_EDGE('',*,*,#708,.T.);
#347=ORIENTED_EDGE('',*,*,#709,.F.);
#348=ORIENTED_EDGE('',*,*,#710,.F.);
#349=ORIENTED_EDGE('',*,*,#711,.F.);
#350=ORIENTED_EDGE('',*,*,#712,.F.);
#351=ORIENTED_EDGE('',*,*,#713,.F.);
#352=ORIENTED_EDGE('',*,*,#714,.T.);
#353=ORIENTED_EDGE('',*,*,#715,.T.);
#354=ORIENTED_EDGE('',*,*,#716,.F.);
#355=ORIENTED_EDGE('',*,*,#717,.T.);
#356=ORIENTED_EDGE('',*,*,#718,.T.);
#357=ORIENTED_EDGE('',*,*,#719,.F.);
#358=ORIENTED_EDGE('',*,*,#720,.T.);
#359=ORIENTED_EDGE('',*,*,#721,.T.);
#360=ORIENTED_EDGE('',*,*,#722,.F.);
#361=ORIENTED_EDGE('',*,*,#723,.F.);
#362=ORIENTED_EDGE('',*,*,#724,.F.);
#363=ORIENTED_EDGE('',*,*,#725,.T.);
#364=ORIENTED_EDGE('',*,*,#726,.F.);
#365=ORIENTED_EDGE('',*,*,#727,.T.);
#366=ORIENTED_EDGE('',*,*,#723,.T.);
#367=ORIENTED_EDGE('',*,*,#728,.T.);
#368=ORIENTED_EDGE('',*,*,#729,.F.);
#369=ORIENTED_EDGE('',*,*,#730,.T.);
#370=ORIENTED_EDGE('',*,*,#729,.T.);
#371=ORIENTED_EDGE('',*,*,#731,.T.);
#372=ORIENTED_EDGE('',*,*,#732,.F.);
#373=ORIENTED_EDGE('',*,*,#725,.F.);
#374=ORIENTED_EDGE('',*,*,#733,.F.);
#375=ORIENTED_EDGE('',*,*,#732,.T.);
#376=ORIENTED_EDGE('',*,*,#734,.F.);
#377=ORIENTED_EDGE('',*,*,#735,.F.);
#378=ORIENTED_EDGE('',*,*,#736,.F.);
#379=ORIENTED_EDGE('',*,*,#737,.T.);
#380=ORIENTED_EDGE('',*,*,#738,.F.);
#381=ORIENTED_EDGE('',*,*,#739,.T.);
#382=ORIENTED_EDGE('',*,*,#735,.T.);
#383=ORIENTED_EDGE('',*,*,#740,.T.);
#384=ORIENTED_EDGE('',*,*,#741,.F.);
#385=ORIENTED_EDGE('',*,*,#742,.T.);
#386=ORIENTED_EDGE('',*,*,#741,.T.);
#387=ORIENTED_EDGE('',*,*,#743,.T.);
#388=ORIENTED_EDGE('',*,*,#744,.F.);
#389=ORIENTED_EDGE('',*,*,#737,.F.);
#390=ORIENTED_EDGE('',*,*,#745,.F.);
#391=ORIENTED_EDGE('',*,*,#744,.T.);
#392=ORIENTED_EDGE('',*,*,#746,.F.);
#393=ORIENTED_EDGE('',*,*,#747,.F.);
#394=ORIENTED_EDGE('',*,*,#748,.F.);
#395=ORIENTED_EDGE('',*,*,#749,.T.);
#396=ORIENTED_EDGE('',*,*,#750,.F.);
#397=ORIENTED_EDGE('',*,*,#751,.T.);
#398=ORIENTED_EDGE('',*,*,#747,.T.);
#399=ORIENTED_EDGE('',*,*,#752,.T.);
#400=ORIENTED_EDGE('',*,*,#753,.F.);
#401=ORIENTED_EDGE('',*,*,#754,.T.);
#402=ORIENTED_EDGE('',*,*,#753,.T.);
#403=ORIENTED_EDGE('',*,*,#755,.T.);
#404=ORIENTED_EDGE('',*,*,#756,.F.);
#405=ORIENTED_EDGE('',*,*,#749,.F.);
#406=ORIENTED_EDGE('',*,*,#757,.F.);
#407=ORIENTED_EDGE('',*,*,#756,.T.);
#408=ORIENTED_EDGE('',*,*,#758,.F.);
#409=ORIENTED_EDGE('',*,*,#759,.F.);
#410=ORIENTED_EDGE('',*,*,#760,.F.);
#411=ORIENTED_EDGE('',*,*,#761,.T.);
#412=ORIENTED_EDGE('',*,*,#762,.F.);
#413=ORIENTED_EDGE('',*,*,#763,.T.);
#414=ORIENTED_EDGE('',*,*,#759,.T.);
#415=ORIENTED_EDGE('',*,*,#764,.T.);
#416=ORIENTED_EDGE('',*,*,#765,.F.);
#417=ORIENTED_EDGE('',*,*,#766,.T.);
#418=ORIENTED_EDGE('',*,*,#765,.T.);
#419=ORIENTED_EDGE('',*,*,#767,.T.);
#420=ORIENTED_EDGE('',*,*,#768,.F.);
#421=ORIENTED_EDGE('',*,*,#761,.F.);
#422=ORIENTED_EDGE('',*,*,#769,.F.);
#423=ORIENTED_EDGE('',*,*,#768,.T.);
#424=ORIENTED_EDGE('',*,*,#770,.F.);
#425=ORIENTED_EDGE('',*,*,#771,.F.);
#426=ORIENTED_EDGE('',*,*,#772,.F.);
#427=ORIENTED_EDGE('',*,*,#773,.T.);
#428=ORIENTED_EDGE('',*,*,#774,.F.);
#429=ORIENTED_EDGE('',*,*,#775,.T.);
#430=ORIENTED_EDGE('',*,*,#771,.T.);
#431=ORIENTED_EDGE('',*,*,#776,.T.);
#432=ORIENTED_EDGE('',*,*,#777,.F.);
#433=ORIENTED_EDGE('',*,*,#778,.T.);
#434=ORIENTED_EDGE('',*,*,#777,.T.);
#435=ORIENTED_EDGE('',*,*,#779,.T.);
#436=ORIENTED_EDGE('',*,*,#780,.F.);
#437=ORIENTED_EDGE('',*,*,#773,.F.);
#438=ORIENTED_EDGE('',*,*,#781,.F.);
#439=ORIENTED_EDGE('',*,*,#780,.T.);
#440=ORIENTED_EDGE('',*,*,#782,.F.);
#441=ORIENTED_EDGE('',*,*,#762,.T.);
#442=ORIENTED_EDGE('',*,*,#770,.T.);
#443=ORIENTED_EDGE('',*,*,#767,.F.);
#444=ORIENTED_EDGE('',*,*,#764,.F.);
#445=ORIENTED_EDGE('',*,*,#738,.T.);
#446=ORIENTED_EDGE('',*,*,#746,.T.);
#447=ORIENTED_EDGE('',*,*,#743,.F.);
#448=ORIENTED_EDGE('',*,*,#740,.F.);
#449=ORIENTED_EDGE('',*,*,#722,.T.);
#450=ORIENTED_EDGE('',*,*,#783,.T.);
#451=ORIENTED_EDGE('',*,*,#784,.F.);
#452=ORIENTED_EDGE('',*,*,#785,.F.);
#453=ORIENTED_EDGE('',*,*,#786,.F.);
#454=ORIENTED_EDGE('',*,*,#787,.F.);
#455=ORIENTED_EDGE('',*,*,#788,.F.);
#456=ORIENTED_EDGE('',*,*,#789,.T.);
#457=ORIENTED_EDGE('',*,*,#790,.T.);
#458=ORIENTED_EDGE('',*,*,#791,.T.);
#459=ORIENTED_EDGE('',*,*,#792,.T.);
#460=ORIENTED_EDGE('',*,*,#793,.T.);
#461=ORIENTED_EDGE('',*,*,#794,.F.);
#462=ORIENTED_EDGE('',*,*,#795,.T.);
#463=ORIENTED_EDGE('',*,*,#726,.T.);
#464=ORIENTED_EDGE('',*,*,#734,.T.);
#465=ORIENTED_EDGE('',*,*,#731,.F.);
#466=ORIENTED_EDGE('',*,*,#728,.F.);
#467=ORIENTED_EDGE('',*,*,#750,.T.);
#468=ORIENTED_EDGE('',*,*,#758,.T.);
#469=ORIENTED_EDGE('',*,*,#755,.F.);
#470=ORIENTED_EDGE('',*,*,#752,.F.);
#471=ORIENTED_EDGE('',*,*,#774,.T.);
#472=ORIENTED_EDGE('',*,*,#782,.T.);
#473=ORIENTED_EDGE('',*,*,#779,.F.);
#474=ORIENTED_EDGE('',*,*,#776,.F.);
#475=ORIENTED_EDGE('',*,*,#796,.F.);
#476=ORIENTED_EDGE('',*,*,#797,.F.);
#477=ORIENTED_EDGE('',*,*,#798,.T.);
#478=ORIENTED_EDGE('',*,*,#799,.T.);
#479=ORIENTED_EDGE('',*,*,#800,.T.);
#480=ORIENTED_EDGE('',*,*,#801,.T.);
#481=ORIENTED_EDGE('',*,*,#802,.T.);
#482=ORIENTED_EDGE('',*,*,#803,.F.);
#483=ORIENTED_EDGE('',*,*,#804,.T.);
#484=ORIENTED_EDGE('',*,*,#805,.F.);
#485=ORIENTED_EDGE('',*,*,#806,.T.);
#486=ORIENTED_EDGE('',*,*,#807,.T.);
#487=ORIENTED_EDGE('',*,*,#808,.F.);
#488=ORIENTED_EDGE('',*,*,#790,.F.);
#489=ORIENTED_EDGE('',*,*,#809,.T.);
#490=ORIENTED_EDGE('',*,*,#797,.T.);
#491=ORIENTED_EDGE('',*,*,#810,.T.);
#492=ORIENTED_EDGE('',*,*,#799,.F.);
#493=ORIENTED_EDGE('',*,*,#811,.T.);
#494=ORIENTED_EDGE('',*,*,#788,.T.);
#495=ORIENTED_EDGE('',*,*,#812,.T.);
#496=ORIENTED_EDGE('',*,*,#794,.T.);
#497=ORIENTED_EDGE('',*,*,#813,.T.);
#498=ORIENTED_EDGE('',*,*,#801,.F.);
#499=ORIENTED_EDGE('',*,*,#814,.T.);
#500=ORIENTED_EDGE('',*,*,#792,.F.);
#501=ORIENTED_EDGE('',*,*,#815,.T.);
#502=ORIENTED_EDGE('',*,*,#803,.T.);
#503=ORIENTED_EDGE('',*,*,#816,.T.);
#504=ORIENTED_EDGE('',*,*,#806,.F.);
#505=ORIENTED_EDGE('',*,*,#817,.F.);
#506=ORIENTED_EDGE('',*,*,#818,.T.);
#507=ORIENTED_EDGE('',*,*,#819,.T.);
#508=ORIENTED_EDGE('',*,*,#805,.T.);
#509=ORIENTED_EDGE('',*,*,#820,.F.);
#510=ORIENTED_EDGE('',*,*,#821,.F.);
#511=ORIENTED_EDGE('',*,*,#817,.T.);
#512=ORIENTED_EDGE('',*,*,#808,.T.);
#513=ORIENTED_EDGE('',*,*,#822,.F.);
#514=ORIENTED_EDGE('',*,*,#823,.F.);
#515=ORIENTED_EDGE('',*,*,#820,.T.);
#516=ORIENTED_EDGE('',*,*,#714,.F.);
#517=ORIENTED_EDGE('',*,*,#824,.F.);
#518=ORIENTED_EDGE('',*,*,#825,.T.);
#519=ORIENTED_EDGE('',*,*,#826,.T.);
#520=ORIENTED_EDGE('',*,*,#713,.T.);
#521=ORIENTED_EDGE('',*,*,#827,.F.);
#522=ORIENTED_EDGE('',*,*,#828,.F.);
#523=ORIENTED_EDGE('',*,*,#824,.T.);
#524=ORIENTED_EDGE('',*,*,#712,.T.);
#525=ORIENTED_EDGE('',*,*,#829,.F.);
#526=ORIENTED_EDGE('',*,*,#830,.T.);
#527=ORIENTED_EDGE('',*,*,#831,.T.);
#528=ORIENTED_EDGE('',*,*,#716,.T.);
#529=ORIENTED_EDGE('',*,*,#832,.F.);
#530=ORIENTED_EDGE('',*,*,#833,.F.);
#531=ORIENTED_EDGE('',*,*,#827,.T.);
#532=ORIENTED_EDGE('',*,*,#715,.F.);
#533=ORIENTED_EDGE('',*,*,#826,.F.);
#534=ORIENTED_EDGE('',*,*,#834,.T.);
#535=ORIENTED_EDGE('',*,*,#832,.T.);
#536=ORIENTED_EDGE('',*,*,#807,.F.);
#537=ORIENTED_EDGE('',*,*,#819,.F.);
#538=ORIENTED_EDGE('',*,*,#835,.T.);
#539=ORIENTED_EDGE('',*,*,#822,.T.);
#540=ORIENTED_EDGE('',*,*,#825,.F.);
#541=ORIENTED_EDGE('',*,*,#828,.T.);
#542=ORIENTED_EDGE('',*,*,#833,.T.);
#543=ORIENTED_EDGE('',*,*,#834,.F.);
#544=ORIENTED_EDGE('',*,*,#818,.F.);
#545=ORIENTED_EDGE('',*,*,#821,.T.);
#546=ORIENTED_EDGE('',*,*,#823,.T.);
#547=ORIENTED_EDGE('',*,*,#835,.F.);
#548=ORIENTED_EDGE('',*,*,#701,.F.);
#549=ORIENTED_EDGE('',*,*,#787,.T.);
#550=ORIENTED_EDGE('',*,*,#700,.F.);
#551=ORIENTED_EDGE('',*,*,#786,.T.);
#552=ORIENTED_EDGE('',*,*,#785,.T.);
#553=ORIENTED_EDGE('',*,*,#836,.F.);
#554=ORIENTED_EDGE('',*,*,#717,.F.);
#555=ORIENTED_EDGE('',*,*,#831,.F.);
#556=ORIENTED_EDGE('',*,*,#837,.F.);
#557=ORIENTED_EDGE('',*,*,#719,.T.);
#558=ORIENTED_EDGE('',*,*,#784,.T.);
#559=ORIENTED_EDGE('',*,*,#838,.F.);
#560=ORIENTED_EDGE('',*,*,#718,.F.);
#561=ORIENTED_EDGE('',*,*,#836,.T.);
#562=ORIENTED_EDGE('',*,*,#783,.F.);
#563=ORIENTED_EDGE('',*,*,#721,.F.);
#564=ORIENTED_EDGE('',*,*,#839,.T.);
#565=ORIENTED_EDGE('',*,*,#829,.T.);
#566=ORIENTED_EDGE('',*,*,#711,.T.);
#567=ORIENTED_EDGE('',*,*,#838,.T.);
#568=ORIENTED_EDGE('',*,*,#702,.T.);
#569=ORIENTED_EDGE('',*,*,#840,.T.);
#570=ORIENTED_EDGE('',*,*,#841,.T.);
#571=ORIENTED_EDGE('',*,*,#842,.T.);
#572=ORIENTED_EDGE('',*,*,#843,.F.);
#573=ORIENTED_EDGE('',*,*,#844,.T.);
#574=ORIENTED_EDGE('',*,*,#845,.F.);
#575=ORIENTED_EDGE('',*,*,#846,.T.);
#576=ORIENTED_EDGE('',*,*,#847,.T.);
#577=ORIENTED_EDGE('',*,*,#848,.T.);
#578=ORIENTED_EDGE('',*,*,#840,.F.);
#579=ORIENTED_EDGE('',*,*,#796,.T.);
#580=ORIENTED_EDGE('',*,*,#849,.T.);
#581=ORIENTED_EDGE('',*,*,#850,.F.);
#582=ORIENTED_EDGE('',*,*,#851,.F.);
#583=ORIENTED_EDGE('',*,*,#846,.F.);
#584=ORIENTED_EDGE('',*,*,#852,.T.);
#585=ORIENTED_EDGE('',*,*,#853,.F.);
#586=ORIENTED_EDGE('',*,*,#854,.F.);
#587=ORIENTED_EDGE('',*,*,#842,.F.);
#588=ORIENTED_EDGE('',*,*,#855,.F.);
#589=ORIENTED_EDGE('',*,*,#856,.F.);
#590=ORIENTED_EDGE('',*,*,#843,.T.);
#591=ORIENTED_EDGE('',*,*,#854,.T.);
#592=ORIENTED_EDGE('',*,*,#856,.T.);
#593=ORIENTED_EDGE('',*,*,#857,.T.);
#594=ORIENTED_EDGE('',*,*,#858,.F.);
#595=ORIENTED_EDGE('',*,*,#844,.F.);
#596=ORIENTED_EDGE('',*,*,#859,.F.);
#597=ORIENTED_EDGE('',*,*,#852,.F.);
#598=ORIENTED_EDGE('',*,*,#845,.T.);
#599=ORIENTED_EDGE('',*,*,#858,.T.);
#600=ORIENTED_EDGE('',*,*,#851,.T.);
#601=ORIENTED_EDGE('',*,*,#860,.T.);
#602=ORIENTED_EDGE('',*,*,#861,.F.);
#603=ORIENTED_EDGE('',*,*,#847,.F.);
#604=ORIENTED_EDGE('',*,*,#861,.T.);
#605=ORIENTED_EDGE('',*,*,#862,.T.);
#606=ORIENTED_EDGE('',*,*,#863,.F.);
#607=ORIENTED_EDGE('',*,*,#848,.F.);
#608=ORIENTED_EDGE('',*,*,#863,.T.);
#609=ORIENTED_EDGE('',*,*,#864,.T.);
#610=ORIENTED_EDGE('',*,*,#849,.F.);
#611=ORIENTED_EDGE('',*,*,#841,.F.);
#612=ORIENTED_EDGE('',*,*,#860,.F.);
#613=ORIENTED_EDGE('',*,*,#850,.T.);
#614=ORIENTED_EDGE('',*,*,#864,.F.);
#615=ORIENTED_EDGE('',*,*,#862,.F.);
#616=ORIENTED_EDGE('',*,*,#853,.T.);
#617=ORIENTED_EDGE('',*,*,#859,.T.);
#618=ORIENTED_EDGE('',*,*,#857,.F.);
#619=ORIENTED_EDGE('',*,*,#855,.T.);
#620=ORIENTED_EDGE('',*,*,#704,.F.);
#621=ORIENTED_EDGE('',*,*,#865,.F.);
#622=ORIENTED_EDGE('',*,*,#866,.T.);
#623=ORIENTED_EDGE('',*,*,#867,.T.);
#624=ORIENTED_EDGE('',*,*,#703,.T.);
#625=ORIENTED_EDGE('',*,*,#868,.F.);
#626=ORIENTED_EDGE('',*,*,#869,.F.);
#627=ORIENTED_EDGE('',*,*,#865,.T.);
#628=ORIENTED_EDGE('',*,*,#710,.T.);
#629=ORIENTED_EDGE('',*,*,#870,.F.);
#630=ORIENTED_EDGE('',*,*,#871,.F.);
#631=ORIENTED_EDGE('',*,*,#868,.T.);
#632=ORIENTED_EDGE('',*,*,#709,.T.);
#633=ORIENTED_EDGE('',*,*,#872,.F.);
#634=ORIENTED_EDGE('',*,*,#873,.F.);
#635=ORIENTED_EDGE('',*,*,#870,.T.);
#636=ORIENTED_EDGE('',*,*,#708,.F.);
#637=ORIENTED_EDGE('',*,*,#874,.F.);
#638=ORIENTED_EDGE('',*,*,#875,.T.);
#639=ORIENTED_EDGE('',*,*,#872,.T.);
#640=ORIENTED_EDGE('',*,*,#707,.F.);
#641=ORIENTED_EDGE('',*,*,#876,.F.);
#642=ORIENTED_EDGE('',*,*,#877,.T.);
#643=ORIENTED_EDGE('',*,*,#874,.T.);
#644=ORIENTED_EDGE('',*,*,#706,.T.);
#645=ORIENTED_EDGE('',*,*,#878,.F.);
#646=ORIENTED_EDGE('',*,*,#879,.F.);
#647=ORIENTED_EDGE('',*,*,#876,.T.);
#648=ORIENTED_EDGE('',*,*,#705,.T.);
#649=ORIENTED_EDGE('',*,*,#867,.F.);
#650=ORIENTED_EDGE('',*,*,#880,.F.);
#651=ORIENTED_EDGE('',*,*,#878,.T.);
#652=ORIENTED_EDGE('',*,*,#724,.T.);
#653=ORIENTED_EDGE('',*,*,#727,.F.);
#654=ORIENTED_EDGE('',*,*,#730,.F.);
#655=ORIENTED_EDGE('',*,*,#733,.T.);
#656=ORIENTED_EDGE('',*,*,#751,.F.);
#657=ORIENTED_EDGE('',*,*,#754,.F.);
#658=ORIENTED_EDGE('',*,*,#757,.T.);
#659=ORIENTED_EDGE('',*,*,#748,.T.);
#660=ORIENTED_EDGE('',*,*,#775,.F.);
#661=ORIENTED_EDGE('',*,*,#778,.F.);
#662=ORIENTED_EDGE('',*,*,#781,.T.);
#663=ORIENTED_EDGE('',*,*,#772,.T.);
#664=ORIENTED_EDGE('',*,*,#866,.F.);
#665=ORIENTED_EDGE('',*,*,#869,.T.);
#666=ORIENTED_EDGE('',*,*,#871,.T.);
#667=ORIENTED_EDGE('',*,*,#873,.T.);
#668=ORIENTED_EDGE('',*,*,#875,.F.);
#669=ORIENTED_EDGE('',*,*,#877,.F.);
#670=ORIENTED_EDGE('',*,*,#879,.T.);
#671=ORIENTED_EDGE('',*,*,#880,.T.);
#672=ORIENTED_EDGE('',*,*,#736,.T.);
#673=ORIENTED_EDGE('',*,*,#739,.F.);
#674=ORIENTED_EDGE('',*,*,#742,.F.);
#675=ORIENTED_EDGE('',*,*,#745,.T.);
#676=ORIENTED_EDGE('',*,*,#769,.T.);
#677=ORIENTED_EDGE('',*,*,#760,.T.);
#678=ORIENTED_EDGE('',*,*,#763,.F.);
#679=ORIENTED_EDGE('',*,*,#766,.F.);
#680=ORIENTED_EDGE('',*,*,#798,.F.);
#681=ORIENTED_EDGE('',*,*,#809,.F.);
#682=ORIENTED_EDGE('',*,*,#789,.F.);
#683=ORIENTED_EDGE('',*,*,#811,.F.);
#684=ORIENTED_EDGE('',*,*,#804,.F.);
#685=ORIENTED_EDGE('',*,*,#815,.F.);
#686=ORIENTED_EDGE('',*,*,#791,.F.);
#687=ORIENTED_EDGE('',*,*,#810,.F.);
#688=ORIENTED_EDGE('',*,*,#802,.F.);
#689=ORIENTED_EDGE('',*,*,#813,.F.);
#690=ORIENTED_EDGE('',*,*,#793,.F.);
#691=ORIENTED_EDGE('',*,*,#816,.F.);
#692=ORIENTED_EDGE('',*,*,#800,.F.);
#693=ORIENTED_EDGE('',*,*,#812,.F.);
#694=ORIENTED_EDGE('',*,*,#795,.F.);
#695=ORIENTED_EDGE('',*,*,#814,.F.);
#696=ORIENTED_EDGE('',*,*,#839,.F.);
#697=ORIENTED_EDGE('',*,*,#720,.F.);
#698=ORIENTED_EDGE('',*,*,#837,.T.);
#699=ORIENTED_EDGE('',*,*,#830,.F.);
#700=EDGE_CURVE('',#881,#881,#1004,.T.);
#701=EDGE_CURVE('',#882,#882,#1005,.T.);
#702=EDGE_CURVE('',#883,#883,#1006,.T.);
#703=EDGE_CURVE('',#884,#885,#22,.T.);
#704=EDGE_CURVE('',#884,#886,#23,.T.);
#705=EDGE_CURVE('',#887,#886,#24,.T.);
#706=EDGE_CURVE('',#888,#887,#25,.T.);
#707=EDGE_CURVE('',#888,#889,#26,.T.);
#708=EDGE_CURVE('',#889,#890,#27,.T.);
#709=EDGE_CURVE('',#891,#890,#28,.T.);
#710=EDGE_CURVE('',#885,#891,#29,.T.);
#711=EDGE_CURVE('',#892,#893,#30,.T.);
#712=EDGE_CURVE('',#894,#892,#31,.T.);
#713=EDGE_CURVE('',#895,#894,#32,.T.);
#714=EDGE_CURVE('',#895,#896,#33,.T.);
#715=EDGE_CURVE('',#896,#897,#34,.T.);
#716=EDGE_CURVE('',#898,#897,#35,.T.);
#717=EDGE_CURVE('',#898,#899,#36,.T.);
#718=EDGE_CURVE('',#899,#893,#37,.T.);
#719=EDGE_CURVE('',#900,#901,#38,.T.);
#720=EDGE_CURVE('',#900,#902,#39,.T.);
#721=EDGE_CURVE('',#902,#903,#40,.T.);
#722=EDGE_CURVE('',#901,#903,#41,.T.);
#723=EDGE_CURVE('',#904,#905,#42,.T.);
#724=EDGE_CURVE('',#906,#904,#43,.T.);
#725=EDGE_CURVE('',#906,#907,#44,.T.);
#726=EDGE_CURVE('',#905,#907,#45,.T.);
#727=EDGE_CURVE('',#908,#904,#46,.T.);
#728=EDGE_CURVE('',#905,#909,#47,.T.);
#729=EDGE_CURVE('',#908,#909,#48,.T.);
#730=EDGE_CURVE('',#910,#908,#49,.T.);
#731=EDGE_CURVE('',#909,#911,#50,.T.);
#732=EDGE_CURVE('',#910,#911,#51,.T.);
#733=EDGE_CURVE('',#910,#906,#52,.T.);
#734=EDGE_CURVE('',#907,#911,#53,.T.);
#735=EDGE_CURVE('',#912,#913,#54,.T.);
#736=EDGE_CURVE('',#914,#912,#55,.T.);
#737=EDGE_CURVE('',#914,#915,#56,.T.);
#738=EDGE_CURVE('',#913,#915,#57,.T.);
#739=EDGE_CURVE('',#916,#912,#58,.T.);
#740=EDGE_CURVE('',#913,#917,#59,.T.);
#741=EDGE_CURVE('',#916,#917,#60,.T.);
#742=EDGE_CURVE('',#918,#916,#61,.T.);
#743=EDGE_CURVE('',#917,#919,#62,.T.);
#744=EDGE_CURVE('',#918,#919,#63,.T.);
#745=EDGE_CURVE('',#918,#914,#64,.T.);
#746=EDGE_CURVE('',#915,#919,#65,.T.);
#747=EDGE_CURVE('',#920,#921,#66,.T.);
#748=EDGE_CURVE('',#922,#920,#67,.T.);
#749=EDGE_CURVE('',#922,#923,#68,.T.);
#750=EDGE_CURVE('',#921,#923,#69,.T.);
#751=EDGE_CURVE('',#924,#920,#70,.T.);
#752=EDGE_CURVE('',#921,#925,#71,.T.);
#753=EDGE_CURVE('',#924,#925,#72,.T.);
#754=EDGE_CURVE('',#926,#924,#73,.T.);
#755=EDGE_CURVE('',#925,#927,#74,.T.);
#756=EDGE_CURVE('',#926,#927,#75,.T.);
#757=EDGE_CURVE('',#926,#922,#76,.T.);
#758=EDGE_CURVE('',#923,#927,#77,.T.);
#759=EDGE_CURVE('',#928,#929,#78,.T.);
#760=EDGE_CURVE('',#930,#928,#79,.T.);
#761=EDGE_CURVE('',#930,#931,#80,.T.);
#762=EDGE_CURVE('',#929,#931,#81,.T.);
#763=EDGE_CURVE('',#932,#928,#82,.T.);
#764=EDGE_CURVE('',#929,#933,#83,.T.);
#765=EDGE_CURVE('',#932,#933,#84,.T.);
#766=EDGE_CURVE('',#934,#932,#85,.T.);
#767=EDGE_CURVE('',#933,#935,#86,.T.);
#768=EDGE_CURVE('',#934,#935,#87,.T.);
#769=EDGE_CURVE('',#934,#930,#88,.T.);
#770=EDGE_CURVE('',#931,#935,#89,.T.);
#771=EDGE_CURVE('',#936,#937,#90,.T.);
#772=EDGE_CURVE('',#938,#936,#91,.T.);
#773=EDGE_CURVE('',#938,#939,#92,.T.);
#774=EDGE_CURVE('',#937,#939,#93,.T.);
#775=EDGE_CURVE('',#940,#936,#94,.T.);
#776=EDGE_CURVE('',#937,#941,#95,.T.);
#777=EDGE_CURVE('',#940,#941,#96,.T.);
#778=EDGE_CURVE('',#942,#940,#97,.T.);
#779=EDGE_CURVE('',#941,#943,#98,.T.);
#780=EDGE_CURVE('',#942,#943,#99,.T.);
#781=EDGE_CURVE('',#942,#938,#100,.T.);
#782=EDGE_CURVE('',#939,#943,#101,.T.);
#783=EDGE_CURVE('',#903,#944,#102,.T.);
#784=EDGE_CURVE('',#945,#944,#103,.T.);
#785=EDGE_CURVE('',#901,#945,#104,.T.);
#786=EDGE_CURVE('',#946,#946,#1007,.T.);
#787=EDGE_CURVE('',#947,#947,#1008,.T.);
#788=EDGE_CURVE('',#948,#949,#105,.T.);
#789=EDGE_CURVE('',#948,#950,#1009,.F.);
#790=EDGE_CURVE('',#950,#951,#106,.T.);
#791=EDGE_CURVE('',#951,#952,#1010,.F.);
#792=EDGE_CURVE('',#952,#953,#107,.T.);
#793=EDGE_CURVE('',#953,#954,#1011,.F.);
#794=EDGE_CURVE('',#955,#954,#108,.T.);
#795=EDGE_CURVE('',#955,#949,#1012,.F.);
#796=EDGE_CURVE('',#956,#956,#1013,.T.);
#797=EDGE_CURVE('',#957,#958,#109,.T.);
#798=EDGE_CURVE('',#957,#959,#1014,.T.);
#799=EDGE_CURVE('',#959,#960,#110,.T.);
#800=EDGE_CURVE('',#960,#961,#1015,.T.);
#801=EDGE_CURVE('',#961,#962,#111,.T.);
#802=EDGE_CURVE('',#962,#963,#1016,.T.);
#803=EDGE_CURVE('',#964,#963,#112,.T.);
#804=EDGE_CURVE('',#964,#958,#1017,.T.);
#805=EDGE_CURVE('',#965,#966,#113,.T.);
#806=EDGE_CURVE('',#965,#967,#114,.T.);
#807=EDGE_CURVE('',#967,#968,#115,.T.);
#808=EDGE_CURVE('',#966,#968,#116,.T.);
#809=EDGE_CURVE('',#950,#957,#117,.F.);
#810=EDGE_CURVE('',#958,#951,#118,.T.);
#811=EDGE_CURVE('',#959,#948,#119,.T.);
#812=EDGE_CURVE('',#949,#960,#120,.F.);
#813=EDGE_CURVE('',#954,#962,#121,.F.);
#814=EDGE_CURVE('',#961,#955,#122,.T.);
#815=EDGE_CURVE('',#952,#964,#123,.F.);
#816=EDGE_CURVE('',#963,#953,#124,.T.);
#817=EDGE_CURVE('',#969,#965,#125,.T.);
#818=EDGE_CURVE('',#969,#970,#126,.T.);
#819=EDGE_CURVE('',#970,#967,#127,.T.);
#820=EDGE_CURVE('',#971,#966,#128,.T.);
#821=EDGE_CURVE('',#969,#971,#129,.T.);
#822=EDGE_CURVE('',#972,#968,#130,.T.);
#823=EDGE_CURVE('',#971,#972,#131,.T.);
#824=EDGE_CURVE('',#973,#895,#132,.T.);
#825=EDGE_CURVE('',#973,#974,#133,.T.);
#826=EDGE_CURVE('',#974,#896,#134,.T.);
#827=EDGE_CURVE('',#975,#894,#135,.T.);
#828=EDGE_CURVE('',#973,#975,#136,.T.);
#829=EDGE_CURVE('',#976,#892,#137,.T.);
#830=EDGE_CURVE('',#976,#977,#138,.T.);
#831=EDGE_CURVE('',#977,#898,#139,.T.);
#832=EDGE_CURVE('',#978,#897,#140,.T.);
#833=EDGE_CURVE('',#975,#978,#141,.T.);
#834=EDGE_CURVE('',#974,#978,#142,.T.);
#835=EDGE_CURVE('',#970,#972,#143,.T.);
#836=EDGE_CURVE('',#899,#945,#144,.T.);
#837=EDGE_CURVE('',#900,#977,#145,.T.);
#838=EDGE_CURVE('',#893,#944,#146,.T.);
#839=EDGE_CURVE('',#902,#976,#147,.T.);
#840=EDGE_CURVE('',#979,#979,#1018,.T.);
#841=EDGE_CURVE('',#980,#981,#148,.T.);
#842=EDGE_CURVE('',#981,#982,#1019,.T.);
#843=EDGE_CURVE('',#983,#982,#149,.T.);
#844=EDGE_CURVE('',#983,#984,#1020,.T.);
#845=EDGE_CURVE('',#985,#984,#150,.T.);
#846=EDGE_CURVE('',#985,#986,#1021,.T.);
#847=EDGE_CURVE('',#986,#987,#151,.T.);
#848=EDGE_CURVE('',#987,#980,#1022,.T.);
#849=EDGE_CURVE('',#981,#988,#152,.T.);
#850=EDGE_CURVE('',#989,#988,#1023,.T.);
#851=EDGE_CURVE('',#986,#989,#153,.T.);
#852=EDGE_CURVE('',#985,#990,#154,.T.);
#853=EDGE_CURVE('',#991,#990,#1024,.T.);
#854=EDGE_CURVE('',#982,#991,#155,.T.);
#855=EDGE_CURVE('',#992,#991,#156,.T.);
#856=EDGE_CURVE('',#983,#992,#157,.T.);
#857=EDGE_CURVE('',#992,#993,#1025,.T.);
#858=EDGE_CURVE('',#984,#993,#158,.T.);
#859=EDGE_CURVE('',#990,#993,#159,.T.);
#860=EDGE_CURVE('',#989,#994,#160,.T.);
#861=EDGE_CURVE('',#987,#994,#161,.T.);
#862=EDGE_CURVE('',#994,#995,#1026,.T.);
#863=EDGE_CURVE('',#980,#995,#162,.T.);
#864=EDGE_CURVE('',#995,#988,#163,.T.);
#865=EDGE_CURVE('',#996,#884,#164,.T.);
#866=EDGE_CURVE('',#996,#997,#165,.T.);
#867=EDGE_CURVE('',#997,#886,#166,.T.);
#868=EDGE_CURVE('',#998,#885,#167,.T.);
#869=EDGE_CURVE('',#996,#998,#168,.T.);
#870=EDGE_CURVE('',#999,#891,#169,.T.);
#871=EDGE_CURVE('',#998,#999,#170,.T.);
#872=EDGE_CURVE('',#1000,#890,#171,.T.);
#873=EDGE_CURVE('',#999,#1000,#172,.T.);
#874=EDGE_CURVE('',#1001,#889,#173,.T.);
#875=EDGE_CURVE('',#1001,#1000,#174,.T.);
#876=EDGE_CURVE('',#1002,#888,#175,.T.);
#877=EDGE_CURVE('',#1002,#1001,#176,.T.);
#878=EDGE_CURVE('',#1003,#887,#177,.T.);
#879=EDGE_CURVE('',#1002,#1003,#178,.T.);
#880=EDGE_CURVE('',#1003,#997,#179,.T.);
#881=VERTEX_POINT('',#1781);
#882=VERTEX_POINT('',#1783);
#883=VERTEX_POINT('',#1785);
#884=VERTEX_POINT('',#1787);
#885=VERTEX_POINT('',#1788);
#886=VERTEX_POINT('',#1790);
#887=VERTEX_POINT('',#1792);
#888=VERTEX_POINT('',#1794);
#889=VERTEX_POINT('',#1796);
#890=VERTEX_POINT('',#1798);
#891=VERTEX_POINT('',#1800);
#892=VERTEX_POINT('',#1803);
#893=VERTEX_POINT('',#1804);
#894=VERTEX_POINT('',#1806);
#895=VERTEX_POINT('',#1808);
#896=VERTEX_POINT('',#1810);
#897=VERTEX_POINT('',#1812);
#898=VERTEX_POINT('',#1814);
#899=VERTEX_POINT('',#1816);
#900=VERTEX_POINT('',#1820);
#901=VERTEX_POINT('',#1821);
#902=VERTEX_POINT('',#1823);
#903=VERTEX_POINT('',#1825);
#904=VERTEX_POINT('',#1829);
#905=VERTEX_POINT('',#1830);
#906=VERTEX_POINT('',#1832);
#907=VERTEX_POINT('',#1834);
#908=VERTEX_POINT('',#1838);
#909=VERTEX_POINT('',#1840);
#910=VERTEX_POINT('',#1844);
#911=VERTEX_POINT('',#1846);
#912=VERTEX_POINT('',#1853);
#913=VERTEX_POINT('',#1854);
#914=VERTEX_POINT('',#1856);
#915=VERTEX_POINT('',#1858);
#916=VERTEX_POINT('',#1862);
#917=VERTEX_POINT('',#1864);
#918=VERTEX_POINT('',#1868);
#919=VERTEX_POINT('',#1870);
#920=VERTEX_POINT('',#1877);
#921=VERTEX_POINT('',#1878);
#922=VERTEX_POINT('',#1880);
#923=VERTEX_POINT('',#1882);
#924=VERTEX_POINT('',#1886);
#925=VERTEX_POINT('',#1888);
#926=VERTEX_POINT('',#1892);
#927=VERTEX_POINT('',#1894);
#928=VERTEX_POINT('',#1901);
#929=VERTEX_POINT('',#1902);
#930=VERTEX_POINT('',#1904);
#931=VERTEX_POINT('',#1906);
#932=VERTEX_POINT('',#1910);
#933=VERTEX_POINT('',#1912);
#934=VERTEX_POINT('',#1916);
#935=VERTEX_POINT('',#1918);
#936=VERTEX_POINT('',#1925);
#937=VERTEX_POINT('',#1926);
#938=VERTEX_POINT('',#1928);
#939=VERTEX_POINT('',#1930);
#940=VERTEX_POINT('',#1934);
#941=VERTEX_POINT('',#1936);
#942=VERTEX_POINT('',#1940);
#943=VERTEX_POINT('',#1942);
#944=VERTEX_POINT('',#1949);
#945=VERTEX_POINT('',#1951);
#946=VERTEX_POINT('',#1954);
#947=VERTEX_POINT('',#1956);
#948=VERTEX_POINT('',#1958);
#949=VERTEX_POINT('',#1959);
#950=VERTEX_POINT('',#1961);
#951=VERTEX_POINT('',#1963);
#952=VERTEX_POINT('',#1965);
#953=VERTEX_POINT('',#1967);
#954=VERTEX_POINT('',#1969);
#955=VERTEX_POINT('',#1971);
#956=VERTEX_POINT('',#1974);
#957=VERTEX_POINT('',#1977);
#958=VERTEX_POINT('',#1978);
#959=VERTEX_POINT('',#1980);
#960=VERTEX_POINT('',#1982);
#961=VERTEX_POINT('',#1984);
#962=VERTEX_POINT('',#1986);
#963=VERTEX_POINT('',#1988);
#964=VERTEX_POINT('',#1990);
#965=VERTEX_POINT('',#1993);
#966=VERTEX_POINT('',#1994);
#967=VERTEX_POINT('',#1996);
#968=VERTEX_POINT('',#1998);
#969=VERTEX_POINT('',#2014);
#970=VERTEX_POINT('',#2016);
#971=VERTEX_POINT('',#2020);
#972=VERTEX_POINT('',#2024);
#973=VERTEX_POINT('',#2028);
#974=VERTEX_POINT('',#2030);
#975=VERTEX_POINT('',#2034);
#976=VERTEX_POINT('',#2038);
#977=VERTEX_POINT('',#2040);
#978=VERTEX_POINT('',#2043);
#979=VERTEX_POINT('',#2061);
#980=VERTEX_POINT('',#2064);
#981=VERTEX_POINT('',#2065);
#982=VERTEX_POINT('',#2067);
#983=VERTEX_POINT('',#2069);
#984=VERTEX_POINT('',#2071);
#985=VERTEX_POINT('',#2073);
#986=VERTEX_POINT('',#2075);
#987=VERTEX_POINT('',#2077);
#988=VERTEX_POINT('',#2081);
#989=VERTEX_POINT('',#2083);
#990=VERTEX_POINT('',#2086);
#991=VERTEX_POINT('',#2088);
#992=VERTEX_POINT('',#2092);
#993=VERTEX_POINT('',#2096);
#994=VERTEX_POINT('',#2102);
#995=VERTEX_POINT('',#2106);
#996=VERTEX_POINT('',#2114);
#997=VERTEX_POINT('',#2116);
#998=VERTEX_POINT('',#2120);
#999=VERTEX_POINT('',#2124);
#1000=VERTEX_POINT('',#2128);
#1001=VERTEX_POINT('',#2132);
#1002=VERTEX_POINT('',#2136);
#1003=VERTEX_POINT('',#2140);
#1004=CIRCLE('',#1349,0.00125);
#1005=CIRCLE('',#1350,0.00125);
#1006=CIRCLE('',#1351,0.007);
#1007=CIRCLE('',#1374,0.00125);
#1008=CIRCLE('',#1375,0.00125);
#1009=CIRCLE('',#1376,0.00762);
#1010=CIRCLE('',#1377,0.00762);
#1011=CIRCLE('',#1378,0.00762);
#1012=CIRCLE('',#1379,0.00762);
#1013=CIRCLE('',#1380,0.0061);
#1014=CIRCLE('',#1382,0.00762);
#1015=CIRCLE('',#1383,0.00762);
#1016=CIRCLE('',#1384,0.00762);
#1017=CIRCLE('',#1385,0.00762);
#1018=CIRCLE('',#1405,0.007);
#1019=CIRCLE('',#1407,0.0061);
#1020=CIRCLE('',#1408,0.0045);
#1021=CIRCLE('',#1409,0.0061);
#1022=CIRCLE('',#1410,0.0045);
#1023=CIRCLE('',#1412,0.0061);
#1024=CIRCLE('',#1413,0.0061);
#1025=CIRCLE('',#1416,0.0045);
#1026=CIRCLE('',#1420,0.0045);
#1027=EDGE_LOOP('',(#338));
#1028=EDGE_LOOP('',(#339));
#1029=EDGE_LOOP('',(#340));
#1030=EDGE_LOOP('',(#341,#342,#343,#344,#345,#346,#347,#348));
#1031=EDGE_LOOP('',(#349,#350,#351,#352,#353,#354,#355,#356));
#1032=EDGE_LOOP('',(#357,#358,#359,#360));
#1033=EDGE_LOOP('',(#361,#362,#363,#364));
#1034=EDGE_LOOP('',(#365,#366,#367,#368));
#1035=EDGE_LOOP('',(#369,#370,#371,#372));
#1036=EDGE_LOOP('',(#373,#374,#375,#376));
#1037=EDGE_LOOP('',(#377,#378,#379,#380));
#1038=EDGE_LOOP('',(#381,#382,#383,#384));
#1039=EDGE_LOOP('',(#385,#386,#387,#388));
#1040=EDGE_LOOP('',(#389,#390,#391,#392));
#1041=EDGE_LOOP('',(#393,#394,#395,#396));
#1042=EDGE_LOOP('',(#397,#398,#399,#400));
#1043=EDGE_LOOP('',(#401,#402,#403,#404));
#1044=EDGE_LOOP('',(#405,#406,#407,#408));
#1045=EDGE_LOOP('',(#409,#410,#411,#412));
#1046=EDGE_LOOP('',(#413,#414,#415,#416));
#1047=EDGE_LOOP('',(#417,#418,#419,#420));
#1048=EDGE_LOOP('',(#421,#422,#423,#424));
#1049=EDGE_LOOP('',(#425,#426,#427,#428));
#1050=EDGE_LOOP('',(#429,#430,#431,#432));
#1051=EDGE_LOOP('',(#433,#434,#435,#436));
#1052=EDGE_LOOP('',(#437,#438,#439,#440));
#1053=EDGE_LOOP('',(#441,#442,#443,#444));
#1054=EDGE_LOOP('',(#445,#446,#447,#448));
#1055=EDGE_LOOP('',(#449,#450,#451,#452));
#1056=EDGE_LOOP('',(#453));
#1057=EDGE_LOOP('',(#454));
#1058=EDGE_LOOP('',(#455,#456,#457,#458,#459,#460,#461,#462));
#1059=EDGE_LOOP('',(#463,#464,#465,#466));
#1060=EDGE_LOOP('',(#467,#468,#469,#470));
#1061=EDGE_LOOP('',(#471,#472,#473,#474));
#1062=EDGE_LOOP('',(#475));
#1063=EDGE_LOOP('',(#476,#477,#478,#479,#480,#481,#482,#483));
#1064=EDGE_LOOP('',(#484,#485,#486,#487));
#1065=EDGE_LOOP('',(#488,#489,#490,#491));
#1066=EDGE_LOOP('',(#492,#493,#494,#495));
#1067=EDGE_LOOP('',(#496,#497,#498,#499));
#1068=EDGE_LOOP('',(#500,#501,#502,#503));
#1069=EDGE_LOOP('',(#504,#505,#506,#507));
#1070=EDGE_LOOP('',(#508,#509,#510,#511));
#1071=EDGE_LOOP('',(#512,#513,#514,#515));
#1072=EDGE_LOOP('',(#516,#517,#518,#519));
#1073=EDGE_LOOP('',(#520,#521,#522,#523));
#1074=EDGE_LOOP('',(#524,#525,#526,#527,#528,#529,#530,#531));
#1075=EDGE_LOOP('',(#532,#533,#534,#535));
#1076=EDGE_LOOP('',(#536,#537,#538,#539));
#1077=EDGE_LOOP('',(#540,#541,#542,#543));
#1078=EDGE_LOOP('',(#544,#545,#546,#547));
#1079=EDGE_LOOP('',(#548));
#1080=EDGE_LOOP('',(#549));
#1081=EDGE_LOOP('',(#550));
#1082=EDGE_LOOP('',(#551));
#1083=EDGE_LOOP('',(#552,#553,#554,#555,#556,#557));
#1084=EDGE_LOOP('',(#558,#559,#560,#561));
#1085=EDGE_LOOP('',(#562,#563,#564,#565,#566,#567));
#1086=EDGE_LOOP('',(#568));
#1087=EDGE_LOOP('',(#569));
#1088=EDGE_LOOP('',(#570,#571,#572,#573,#574,#575,#576,#577));
#1089=EDGE_LOOP('',(#578));
#1090=EDGE_LOOP('',(#579));
#1091=EDGE_LOOP('',(#580,#581,#582,#583,#584,#585,#586,#587));
#1092=EDGE_LOOP('',(#588,#589,#590,#591));
#1093=EDGE_LOOP('',(#592,#593,#594,#595));
#1094=EDGE_LOOP('',(#596,#597,#598,#599));
#1095=EDGE_LOOP('',(#600,#601,#602,#603));
#1096=EDGE_LOOP('',(#604,#605,#606,#607));
#1097=EDGE_LOOP('',(#608,#609,#610,#611));
#1098=EDGE_LOOP('',(#612,#613,#614,#615));
#1099=EDGE_LOOP('',(#616,#617,#618,#619));
#1100=EDGE_LOOP('',(#620,#621,#622,#623));
#1101=EDGE_LOOP('',(#624,#625,#626,#627));
#1102=EDGE_LOOP('',(#628,#629,#630,#631));
#1103=EDGE_LOOP('',(#632,#633,#634,#635));
#1104=EDGE_LOOP('',(#636,#637,#638,#639));
#1105=EDGE_LOOP('',(#640,#641,#642,#643));
#1106=EDGE_LOOP('',(#644,#645,#646,#647));
#1107=EDGE_LOOP('',(#648,#649,#650,#651));
#1108=EDGE_LOOP('',(#652,#653,#654,#655));
#1109=EDGE_LOOP('',(#656,#657,#658,#659));
#1110=EDGE_LOOP('',(#660,#661,#662,#663));
#1111=EDGE_LOOP('',(#664,#665,#666,#667,#668,#669,#670,#671));
#1112=EDGE_LOOP('',(#672,#673,#674,#675));
#1113=EDGE_LOOP('',(#676,#677,#678,#679));
#1114=EDGE_LOOP('',(#680,#681,#682,#683));
#1115=EDGE_LOOP('',(#684,#685,#686,#687));
#1116=EDGE_LOOP('',(#688,#689,#690,#691));
#1117=EDGE_LOOP('',(#692,#693,#694,#695));
#1118=EDGE_LOOP('',(#696,#697,#698,#699));
#1119=FACE_BOUND('',#1027,.T.);
#1120=FACE_BOUND('',#1028,.T.);
#1121=FACE_BOUND('',#1029,.T.);
#1122=FACE_BOUND('',#1030,.T.);
#1123=FACE_BOUND('',#1031,.T.);
#1124=FACE_BOUND('',#1032,.T.);
#1125=FACE_BOUND('',#1033,.T.);
#1126=FACE_BOUND('',#1034,.T.);
#1127=FACE_BOUND('',#1035,.T.);
#1128=FACE_BOUND('',#1036,.T.);
#1129=FACE_BOUND('',#1037,.T.);
#1130=FACE_BOUND('',#1038,.T.);
#1131=FACE_BOUND('',#1039,.T.);
#1132=FACE_BOUND('',#1040,.T.);
#1133=FACE_BOUND('',#1041,.T.);
#1134=FACE_BOUND('',#1042,.T.);
#1135=FACE_BOUND('',#1043,.T.);
#1136=FACE_BOUND('',#1044,.T.);
#1137=FACE_BOUND('',#1045,.T.);
#1138=FACE_BOUND('',#1046,.T.);
#1139=FACE_BOUND('',#1047,.T.);
#1140=FACE_BOUND('',#1048,.T.);
#1141=FACE_BOUND('',#1049,.T.);
#1142=FACE_BOUND('',#1050,.T.);
#1143=FACE_BOUND('',#1051,.T.);
#1144=FACE_BOUND('',#1052,.T.);
#1145=FACE_BOUND('',#1053,.T.);
#1146=FACE_BOUND('',#1054,.T.);
#1147=FACE_BOUND('',#1055,.T.);
#1148=FACE_BOUND('',#1056,.T.);
#1149=FACE_BOUND('',#1057,.T.);
#1150=FACE_BOUND('',#1058,.T.);
#1151=FACE_BOUND('',#1059,.T.);
#1152=FACE_BOUND('',#1060,.T.);
#1153=FACE_BOUND('',#1061,.T.);
#1154=FACE_BOUND('',#1062,.T.);
#1155=FACE_BOUND('',#1063,.T.);
#1156=FACE_BOUND('',#1064,.T.);
#1157=FACE_BOUND('',#1065,.T.);
#1158=FACE_BOUND('',#1066,.T.);
#1159=FACE_BOUND('',#1067,.T.);
#1160=FACE_BOUND('',#1068,.T.);
#1161=FACE_BOUND('',#1069,.T.);
#1162=FACE_BOUND('',#1070,.T.);
#1163=FACE_BOUND('',#1071,.T.);
#1164=FACE_BOUND('',#1072,.T.);
#1165=FACE_BOUND('',#1073,.T.);
#1166=FACE_BOUND('',#1074,.T.);
#1167=FACE_BOUND('',#1075,.T.);
#1168=FACE_BOUND('',#1076,.T.);
#1169=FACE_BOUND('',#1077,.T.);
#1170=FACE_BOUND('',#1078,.T.);
#1171=FACE_BOUND('',#1079,.T.);
#1172=FACE_BOUND('',#1080,.T.);
#1173=FACE_BOUND('',#1081,.T.);
#1174=FACE_BOUND('',#1082,.T.);
#1175=FACE_BOUND('',#1083,.T.);
#1176=FACE_BOUND('',#1084,.T.);
#1177=FACE_BOUND('',#1085,.T.);
#1178=FACE_BOUND('',#1086,.T.);
#1179=FACE_BOUND('',#1087,.T.);
#1180=FACE_BOUND('',#1088,.T.);
#1181=FACE_BOUND('',#1089,.T.);
#1182=FACE_BOUND('',#1090,.T.);
#1183=FACE_BOUND('',#1091,.T.);
#1184=FACE_BOUND('',#1092,.T.);
#1185=FACE_BOUND('',#1093,.T.);
#1186=FACE_BOUND('',#1094,.T.);
#1187=FACE_BOUND('',#1095,.T.);
#1188=FACE_BOUND('',#1096,.T.);
#1189=FACE_BOUND('',#1097,.T.);
#1190=FACE_BOUND('',#1098,.T.);
#1191=FACE_BOUND('',#1099,.T.);
#1192=FACE_BOUND('',#1100,.T.);
#1193=FACE_BOUND('',#1101,.T.);
#1194=FACE_BOUND('',#1102,.T.);
#1195=FACE_BOUND('',#1103,.T.);
#1196=FACE_BOUND('',#1104,.T.);
#1197=FACE_BOUND('',#1105,.T.);
#1198=FACE_BOUND('',#1106,.T.);
#1199=FACE_BOUND('',#1107,.T.);
#1200=FACE_BOUND('',#1108,.T.);
#1201=FACE_BOUND('',#1109,.T.);
#1202=FACE_BOUND('',#1110,.T.);
#1203=FACE_BOUND('',#1111,.T.);
#1204=FACE_BOUND('',#1112,.T.);
#1205=FACE_BOUND('',#1113,.T.);
#1206=FACE_BOUND('',#1114,.T.);
#1207=FACE_BOUND('',#1115,.T.);
#1208=FACE_BOUND('',#1116,.T.);
#1209=FACE_BOUND('',#1117,.T.);
#1210=FACE_BOUND('',#1118,.T.);
#1211=PLANE('',#1348);
#1212=PLANE('',#1352);
#1213=PLANE('',#1353);
#1214=PLANE('',#1354);
#1215=PLANE('',#1355);
#1216=PLANE('',#1356);
#1217=PLANE('',#1357);
#1218=PLANE('',#1358);
#1219=PLANE('',#1359);
#1220=PLANE('',#1360);
#1221=PLANE('',#1361);
#1222=PLANE('',#1362);
#1223=PLANE('',#1363);
#1224=PLANE('',#1364);
#1225=PLANE('',#1365);
#1226=PLANE('',#1366);
#1227=PLANE('',#1367);
#1228=PLANE('',#1368);
#1229=PLANE('',#1369);
#1230=PLANE('',#1370);
#1231=PLANE('',#1371);
#1232=PLANE('',#1372);
#1233=PLANE('',#1373);
#1234=PLANE('',#1381);
#1235=PLANE('',#1386);
#1236=PLANE('',#1387);
#1237=PLANE('',#1388);
#1238=PLANE('',#1389);
#1239=PLANE('',#1390);
#1240=PLANE('',#1391);
#1241=PLANE('',#1392);
#1242=PLANE('',#1393);
#1243=PLANE('',#1394);
#1244=PLANE('',#1395);
#1245=PLANE('',#1396);
#1246=PLANE('',#1397);
#1247=PLANE('',#1398);
#1248=PLANE('',#1401);
#1249=PLANE('',#1402);
#1250=PLANE('',#1403);
#1251=PLANE('',#1406);
#1252=PLANE('',#1414);
#1253=PLANE('',#1417);
#1254=PLANE('',#1418);
#1255=PLANE('',#1421);
#1256=PLANE('',#1422);
#1257=PLANE('',#1423);
#1258=PLANE('',#1424);
#1259=PLANE('',#1425);
#1260=PLANE('',#1426);
#1261=PLANE('',#1427);
#1262=PLANE('',#1428);
#1263=PLANE('',#1429);
#1264=PLANE('',#1430);
#1265=PLANE('',#1431);
#1266=PLANE('',#1432);
#1267=PLANE('',#1437);
#1268=ADVANCED_FACE('',(#1119,#1120,#1121,#1122,#1123),#1211,.T.);
#1269=ADVANCED_FACE('',(#1124),#1212,.T.);
#1270=ADVANCED_FACE('',(#1125),#1213,.T.);
#1271=ADVANCED_FACE('',(#1126),#1214,.F.);
#1272=ADVANCED_FACE('',(#1127),#1215,.F.);
#1273=ADVANCED_FACE('',(#1128),#1216,.T.);
#1274=ADVANCED_FACE('',(#1129),#1217,.T.);
#1275=ADVANCED_FACE('',(#1130),#1218,.F.);
#1276=ADVANCED_FACE('',(#1131),#1219,.F.);
#1277=ADVANCED_FACE('',(#1132),#1220,.T.);
#1278=ADVANCED_FACE('',(#1133),#1221,.T.);
#1279=ADVANCED_FACE('',(#1134),#1222,.F.);
#1280=ADVANCED_FACE('',(#1135),#1223,.F.);
#1281=ADVANCED_FACE('',(#1136),#1224,.T.);
#1282=ADVANCED_FACE('',(#1137),#1225,.T.);
#1283=ADVANCED_FACE('',(#1138),#1226,.F.);
#1284=ADVANCED_FACE('',(#1139),#1227,.F.);
#1285=ADVANCED_FACE('',(#1140),#1228,.T.);
#1286=ADVANCED_FACE('',(#1141),#1229,.T.);
#1287=ADVANCED_FACE('',(#1142),#1230,.F.);
#1288=ADVANCED_FACE('',(#1143),#1231,.F.);
#1289=ADVANCED_FACE('',(#1144),#1232,.T.);
#1290=ADVANCED_FACE('',(#1145,#1146,#1147,#1148,#1149,#1150,#1151,#1152,
#1153,#1154),#1233,.F.);
#1291=ADVANCED_FACE('',(#1155,#1156),#1234,.T.);
#1292=ADVANCED_FACE('',(#1157),#1235,.T.);
#1293=ADVANCED_FACE('',(#1158),#1236,.F.);
#1294=ADVANCED_FACE('',(#1159),#1237,.F.);
#1295=ADVANCED_FACE('',(#1160),#1238,.T.);
#1296=ADVANCED_FACE('',(#1161),#1239,.T.);
#1297=ADVANCED_FACE('',(#1162),#1240,.F.);
#1298=ADVANCED_FACE('',(#1163),#1241,.F.);
#1299=ADVANCED_FACE('',(#1164),#1242,.T.);
#1300=ADVANCED_FACE('',(#1165),#1243,.F.);
#1301=ADVANCED_FACE('',(#1166),#1244,.F.);
#1302=ADVANCED_FACE('',(#1167),#1245,.T.);
#1303=ADVANCED_FACE('',(#1168),#1246,.T.);
#1304=ADVANCED_FACE('',(#1169,#1170),#1247,.T.);
#1305=ADVANCED_FACE('',(#1171,#1172),#12,.F.);
#1306=ADVANCED_FACE('',(#1173,#1174),#13,.F.);
#1307=ADVANCED_FACE('',(#1175),#1248,.F.);
#1308=ADVANCED_FACE('',(#1176),#1249,.F.);
#1309=ADVANCED_FACE('',(#1177),#1250,.T.);
#1310=ADVANCED_FACE('',(#1178,#1179),#14,.T.);
#1311=ADVANCED_FACE('',(#1180,#1181),#1251,.F.);
#1312=ADVANCED_FACE('',(#1182,#1183),#15,.F.);
#1313=ADVANCED_FACE('',(#1184),#1252,.T.);
#1314=ADVANCED_FACE('',(#1185),#16,.F.);
#1315=ADVANCED_FACE('',(#1186),#1253,.T.);
#1316=ADVANCED_FACE('',(#1187),#1254,.F.);
#1317=ADVANCED_FACE('',(#1188),#17,.F.);
#1318=ADVANCED_FACE('',(#1189),#1255,.F.);
#1319=ADVANCED_FACE('',(#1190),#1256,.T.);
#1320=ADVANCED_FACE('',(#1191),#1257,.T.);
#1321=ADVANCED_FACE('',(#1192),#1258,.T.);
#1322=ADVANCED_FACE('',(#1193),#1259,.F.);
#1323=ADVANCED_FACE('',(#1194),#1260,.F.);
#1324=ADVANCED_FACE('',(#1195),#1261,.F.);
#1325=ADVANCED_FACE('',(#1196),#1262,.T.);
#1326=ADVANCED_FACE('',(#1197),#1263,.T.);
#1327=ADVANCED_FACE('',(#1198),#1264,.F.);
#1328=ADVANCED_FACE('',(#1199),#1265,.F.);
#1329=ADVANCED_FACE('',(#1200,#1201,#1202,#1203,#1204,#1205),#1266,.T.);
#1330=ADVANCED_FACE('',(#1206),#18,.T.);
#1331=ADVANCED_FACE('',(#1207),#19,.T.);
#1332=ADVANCED_FACE('',(#1208),#20,.T.);
#1333=ADVANCED_FACE('',(#1209),#21,.T.);
#1334=ADVANCED_FACE('',(#1210),#1267,.T.);
#1335=CLOSED_SHELL('',(#1268,#1269,#1270,#1271,#1272,#1273,#1274,#1275,
#1276,#1277,#1278,#1279,#1280,#1281,#1282,#1283,#1284,#1285,#1286,#1287,
#1288,#1289,#1290,#1291,#1292,#1293,#1294,#1295,#1296,#1297,#1298,#1299,
#1300,#1301,#1302,#1303,#1304,#1305,#1306,#1307,#1308,#1309,#1310,#1311,
#1312,#1313,#1314,#1315,#1316,#1317,#1318,#1319,#1320,#1321,#1322,#1323,
#1324,#1325,#1326,#1327,#1328,#1329,#1330,#1331,#1332,#1333,#1334));
#1336=STYLED_ITEM('',(#1337),#1344);
#1337=PRESENTATION_STYLE_ASSIGNMENT((#1338));
#1338=SURFACE_STYLE_USAGE(.BOTH.,#1339);
#1339=SURFACE_SIDE_STYLE('',(#1340));
#1340=SURFACE_STYLE_FILL_AREA(#1341);
#1341=FILL_AREA_STYLE('',(#1342));
#1342=FILL_AREA_STYLE_COLOUR('',#1343);
#1343=COLOUR_RGB('',0.615686274509804,0.811764705882353,0.929411764705882);
#1344=MANIFOLD_SOLID_BREP('Part 1',#1335);
#1345=SHAPE_DEFINITION_REPRESENTATION(#2156,#1346);
#1346=SHAPE_REPRESENTATION('Part 1',(#1347),#2151);
#1347=AXIS2_PLACEMENT_3D('',#1778,#1438,#1439);
#1348=AXIS2_PLACEMENT_3D('',#1779,#1440,#1441);
#1349=AXIS2_PLACEMENT_3D('',#1780,#1442,#1443);
#1350=AXIS2_PLACEMENT_3D('',#1782,#1444,#1445);
#1351=AXIS2_PLACEMENT_3D('',#1784,#1446,#1447);
#1352=AXIS2_PLACEMENT_3D('',#1818,#1464,#1465);
#1353=AXIS2_PLACEMENT_3D('',#1827,#1470,#1471);
#1354=AXIS2_PLACEMENT_3D('',#1836,#1476,#1477);
#1355=AXIS2_PLACEMENT_3D('',#1842,#1481,#1482);
#1356=AXIS2_PLACEMENT_3D('',#1848,#1486,#1487);
#1357=AXIS2_PLACEMENT_3D('',#1851,#1490,#1491);
#1358=AXIS2_PLACEMENT_3D('',#1860,#1496,#1497);
#1359=AXIS2_PLACEMENT_3D('',#1866,#1501,#1502);
#1360=AXIS2_PLACEMENT_3D('',#1872,#1506,#1507);
#1361=AXIS2_PLACEMENT_3D('',#1875,#1510,#1511);
#1362=AXIS2_PLACEMENT_3D('',#1884,#1516,#1517);
#1363=AXIS2_PLACEMENT_3D('',#1890,#1521,#1522);
#1364=AXIS2_PLACEMENT_3D('',#1896,#1526,#1527);
#1365=AXIS2_PLACEMENT_3D('',#1899,#1530,#1531);
#1366=AXIS2_PLACEMENT_3D('',#1908,#1536,#1537);
#1367=AXIS2_PLACEMENT_3D('',#1914,#1541,#1542);
#1368=AXIS2_PLACEMENT_3D('',#1920,#1546,#1547);
#1369=AXIS2_PLACEMENT_3D('',#1923,#1550,#1551);
#1370=AXIS2_PLACEMENT_3D('',#1932,#1556,#1557);
#1371=AXIS2_PLACEMENT_3D('',#1938,#1561,#1562);
#1372=AXIS2_PLACEMENT_3D('',#1944,#1566,#1567);
#1373=AXIS2_PLACEMENT_3D('',#1947,#1570,#1571);
#1374=AXIS2_PLACEMENT_3D('',#1953,#1575,#1576);
#1375=AXIS2_PLACEMENT_3D('',#1955,#1577,#1578);
#1376=AXIS2_PLACEMENT_3D('',#1960,#1580,#1581);
#1377=AXIS2_PLACEMENT_3D('',#1964,#1583,#1584);
#1378=AXIS2_PLACEMENT_3D('',#1968,#1586,#1587);
#1379=AXIS2_PLACEMENT_3D('',#1972,#1589,#1590);
#1380=AXIS2_PLACEMENT_3D('',#1973,#1591,#1592);
#1381=AXIS2_PLACEMENT_3D('',#1975,#1593,#1594);
#1382=AXIS2_PLACEMENT_3D('',#1979,#1596,#1597);
#1383=AXIS2_PLACEMENT_3D('',#1983,#1599,#1600);
#1384=AXIS2_PLACEMENT_3D('',#1987,#1602,#1603);
#1385=AXIS2_PLACEMENT_3D('',#1991,#1605,#1606);
#1386=AXIS2_PLACEMENT_3D('',#2000,#1611,#1612);
#1387=AXIS2_PLACEMENT_3D('',#2003,#1615,#1616);
#1388=AXIS2_PLACEMENT_3D('',#2006,#1619,#1620);
#1389=AXIS2_PLACEMENT_3D('',#2009,#1623,#1624);
#1390=AXIS2_PLACEMENT_3D('',#2012,#1627,#1628);
#1391=AXIS2_PLACEMENT_3D('',#2018,#1632,#1633);
#1392=AXIS2_PLACEMENT_3D('',#2022,#1636,#1637);
#1393=AXIS2_PLACEMENT_3D('',#2026,#1640,#1641);
#1394=AXIS2_PLACEMENT_3D('',#2032,#1645,#1646);
#1395=AXIS2_PLACEMENT_3D('',#2036,#1649,#1650);
#1396=AXIS2_PLACEMENT_3D('',#2045,#1656,#1657);
#1397=AXIS2_PLACEMENT_3D('',#2047,#1659,#1660);
#1398=AXIS2_PLACEMENT_3D('',#2049,#1662,#1663);
#1399=AXIS2_PLACEMENT_3D('',#2050,#1664,#1665);
#1400=AXIS2_PLACEMENT_3D('',#2051,#1666,#1667);
#1401=AXIS2_PLACEMENT_3D('',#2052,#1668,#1669);
#1402=AXIS2_PLACEMENT_3D('',#2055,#1672,#1673);
#1403=AXIS2_PLACEMENT_3D('',#2057,#1675,#1676);
#1404=AXIS2_PLACEMENT_3D('',#2059,#1678,#1679);
#1405=AXIS2_PLACEMENT_3D('',#2060,#1680,#1681);
#1406=AXIS2_PLACEMENT_3D('',#2062,#1682,#1683);
#1407=AXIS2_PLACEMENT_3D('',#2066,#1685,#1686);
#1408=AXIS2_PLACEMENT_3D('',#2070,#1688,#1689);
#1409=AXIS2_PLACEMENT_3D('',#2074,#1691,#1692);
#1410=AXIS2_PLACEMENT_3D('',#2078,#1694,#1695);
#1411=AXIS2_PLACEMENT_3D('',#2079,#1696,#1697);
#1412=AXIS2_PLACEMENT_3D('',#2082,#1699,#1700);
#1413=AXIS2_PLACEMENT_3D('',#2087,#1703,#1704);
#1414=AXIS2_PLACEMENT_3D('',#2090,#1706,#1707);
#1415=AXIS2_PLACEMENT_3D('',#2094,#1710,#1711);
#1416=AXIS2_PLACEMENT_3D('',#2095,#1712,#1713);
#1417=AXIS2_PLACEMENT_3D('',#2098,#1715,#1716);
#1418=AXIS2_PLACEMENT_3D('',#2100,#1718,#1719);
#1419=AXIS2_PLACEMENT_3D('',#2104,#1722,#1723);
#1420=AXIS2_PLACEMENT_3D('',#2105,#1724,#1725);
#1421=AXIS2_PLACEMENT_3D('',#2108,#1727,#1728);
#1422=AXIS2_PLACEMENT_3D('',#2110,#1730,#1731);
#1423=AXIS2_PLACEMENT_3D('',#2111,#1732,#1733);
#1424=AXIS2_PLACEMENT_3D('',#2112,#1734,#1735);
#1425=AXIS2_PLACEMENT_3D('',#2118,#1739,#1740);
#1426=AXIS2_PLACEMENT_3D('',#2122,#1743,#1744);
#1427=AXIS2_PLACEMENT_3D('',#2126,#1747,#1748);
#1428=AXIS2_PLACEMENT_3D('',#2130,#1751,#1752);
#1429=AXIS2_PLACEMENT_3D('',#2134,#1755,#1756);
#1430=AXIS2_PLACEMENT_3D('',#2138,#1759,#1760);
#1431=AXIS2_PLACEMENT_3D('',#2142,#1763,#1764);
#1432=AXIS2_PLACEMENT_3D('',#2144,#1766,#1767);
#1433=AXIS2_PLACEMENT_3D('',#2145,#1768,#1769);
#1434=AXIS2_PLACEMENT_3D('',#2146,#1770,#1771);
#1435=AXIS2_PLACEMENT_3D('',#2147,#1772,#1773);
#1436=AXIS2_PLACEMENT_3D('',#2148,#1774,#1775);
#1437=AXIS2_PLACEMENT_3D('',#2149,#1776,#1777);
#1438=DIRECTION('',(0.,0.,1.));
#1439=DIRECTION('',(1.,0.,0.));
#1440=DIRECTION('',(0.,0.,1.));
#1441=DIRECTION('',(1.,0.,0.));
#1442=DIRECTION('',(0.,0.,-1.));
#1443=DIRECTION('',(-1.,0.,0.));
#1444=DIRECTION('',(0.,0.,-1.));
#1445=DIRECTION('',(-1.,0.,0.));
#1446=DIRECTION('',(0.,0.,1.));
#1447=DIRECTION('',(1.,0.,0.));
#1448=DIRECTION('',(-1.,0.,0.));
#1449=DIRECTION('',(0.,1.,0.));
#1450=DIRECTION('',(-1.,0.,0.));
#1451=DIRECTION('',(0.,1.,0.));
#1452=DIRECTION('',(-1.,0.,0.));
#1453=DIRECTION('',(0.,1.,0.));
#1454=DIRECTION('',(-1.,0.,0.));
#1455=DIRECTION('',(0.,1.,0.));
#1456=DIRECTION('',(-1.,2.20282346155785E-16,0.));
#1457=DIRECTION('',(0.,-1.,0.));
#1458=DIRECTION('',(1.,0.,0.));
#1459=DIRECTION('',(0.,-1.,0.));
#1460=DIRECTION('',(1.,0.,0.));
#1461=DIRECTION('',(0.,-1.,0.));
#1462=DIRECTION('',(-1.,1.10141173077892E-16,0.));
#1463=DIRECTION('',(0.,1.,0.));
#1464=DIRECTION('',(-1.,0.,0.));
#1465=DIRECTION('',(0.,0.,1.));
#1466=DIRECTION('',(0.,0.,-1.));
#1467=DIRECTION('',(0.,1.,0.));
#1468=DIRECTION('',(0.,0.,-1.));
#1469=DIRECTION('',(0.,1.,0.));
#1470=DIRECTION('',(-1.,0.,0.));
#1471=DIRECTION('',(0.,0.,1.));
#1472=DIRECTION('',(0.,0.,-1.));
#1473=DIRECTION('',(0.,-1.,0.));
#1474=DIRECTION('',(0.,0.,-1.));
#1475=DIRECTION('',(0.,1.,0.));
#1476=DIRECTION('',(0.,-1.,0.));
#1477=DIRECTION('',(0.,0.,-1.));
#1478=DIRECTION('',(1.,0.,0.));
#1479=DIRECTION('',(-1.,0.,0.));
#1480=DIRECTION('',(0.,0.,-1.));
#1481=DIRECTION('',(-1.,0.,0.));
#1482=DIRECTION('',(0.,0.,1.));
#1483=DIRECTION('',(0.,-1.,0.));
#1484=DIRECTION('',(0.,1.,0.));
#1485=DIRECTION('',(0.,0.,-1.));
#1486=DIRECTION('',(0.,-1.,0.));
#1487=DIRECTION('',(0.,0.,-1.));
#1488=DIRECTION('',(1.,0.,0.));
#1489=DIRECTION('',(-1.,0.,0.));
#1490=DIRECTION('',(-1.,0.,0.));
#1491=DIRECTION('',(0.,0.,1.));
#1492=DIRECTION('',(0.,0.,-1.));
#1493=DIRECTION('',(0.,-1.,0.));
#1494=DIRECTION('',(0.,0.,-1.));
#1495=DIRECTION('',(0.,1.,0.));
#1496=DIRECTION('',(-1.1616451848059E-16,-1.,0.));
#1497=DIRECTION('',(1.,-1.1616451848059E-16,0.));
#1498=DIRECTION('',(1.,-1.1616451848059E-16,0.));
#1499=DIRECTION('',(-1.,1.1616451848059E-16,0.));
#1500=DIRECTION('',(0.,0.,-1.));
#1501=DIRECTION('',(-1.,0.,0.));
#1502=DIRECTION('',(0.,0.,1.));
#1503=DIRECTION('',(0.,-1.,0.));
#1504=DIRECTION('',(0.,1.,0.));
#1505=DIRECTION('',(0.,0.,-1.));
#1506=DIRECTION('',(0.,-1.,0.));
#1507=DIRECTION('',(0.,0.,-1.));
#1508=DIRECTION('',(1.,0.,0.));
#1509=DIRECTION('',(-1.,0.,0.));
#1510=DIRECTION('',(-1.,-2.47817639425258E-16,0.));
#1511=DIRECTION('',(2.47817639425259E-16,-1.,0.));
#1512=DIRECTION('',(0.,0.,-1.));
#1513=DIRECTION('',(2.47817639425259E-16,-1.,0.));
#1514=DIRECTION('',(0.,0.,-1.));
#1515=DIRECTION('',(-2.47817639425258E-16,1.,0.));
#1516=DIRECTION('',(1.23908819712629E-16,-1.,0.));
#1517=DIRECTION('',(1.,1.23908819712629E-16,0.));
#1518=DIRECTION('',(1.,1.23908819712629E-16,0.));
#1519=DIRECTION('',(-1.,-1.23908819712629E-16,0.));
#1520=DIRECTION('',(0.,0.,-1.));
#1521=DIRECTION('',(-1.,0.,0.));
#1522=DIRECTION('',(0.,0.,1.));
#1523=DIRECTION('',(0.,-1.,0.));
#1524=DIRECTION('',(0.,1.,0.));
#1525=DIRECTION('',(0.,0.,-1.));
#1526=DIRECTION('',(0.,-1.,0.));
#1527=DIRECTION('',(0.,0.,-1.));
#1528=DIRECTION('',(1.,0.,0.));
#1529=DIRECTION('',(-1.,0.,0.));
#1530=DIRECTION('',(-1.,0.,0.));
#1531=DIRECTION('',(0.,0.,1.));
#1532=DIRECTION('',(0.,0.,-1.));
#1533=DIRECTION('',(0.,-1.,0.));
#1534=DIRECTION('',(0.,0.,-1.));
#1535=DIRECTION('',(0.,1.,0.));
#1536=DIRECTION('',(0.,-1.,0.));
#1537=DIRECTION('',(0.,0.,-1.));
#1538=DIRECTION('',(1.,0.,0.));
#1539=DIRECTION('',(-1.,0.,0.));
#1540=DIRECTION('',(0.,0.,-1.));
#1541=DIRECTION('',(-1.,0.,0.));
#1542=DIRECTION('',(0.,0.,1.));
#1543=DIRECTION('',(0.,-1.,0.));
#1544=DIRECTION('',(0.,1.,0.));
#1545=DIRECTION('',(0.,0.,-1.));
#1546=DIRECTION('',(-1.23908819712629E-16,-1.,0.));
#1547=DIRECTION('',(1.,-1.23908819712629E-16,0.));
#1548=DIRECTION('',(1.,-1.23908819712629E-16,0.));
#1549=DIRECTION('',(-1.,1.23908819712629E-16,0.));
#1550=DIRECTION('',(-1.,6.19544098563145E-17,0.));
#1551=DIRECTION('',(-6.19544098563146E-17,-1.,0.));
#1552=DIRECTION('',(0.,0.,-1.));
#1553=DIRECTION('',(-6.19544098563146E-17,-1.,0.));
#1554=DIRECTION('',(0.,0.,-1.));
#1555=DIRECTION('',(6.19544098563145E-17,1.,0.));
#1556=DIRECTION('',(0.,-1.,0.));
#1557=DIRECTION('',(0.,0.,-1.));
#1558=DIRECTION('',(1.,0.,0.));
#1559=DIRECTION('',(-1.,0.,0.));
#1560=DIRECTION('',(0.,0.,-1.));
#1561=DIRECTION('',(-1.,6.19544098563145E-17,0.));
#1562=DIRECTION('',(-6.19544098563146E-17,-1.,0.));
#1563=DIRECTION('',(-6.19544098563146E-17,-1.,0.));
#1564=DIRECTION('',(6.19544098563145E-17,1.,0.));
#1565=DIRECTION('',(0.,0.,-1.));
#1566=DIRECTION('',(-1.23908819712629E-16,-1.,0.));
#1567=DIRECTION('',(1.,-1.23908819712629E-16,0.));
#1568=DIRECTION('',(1.,-1.23908819712629E-16,0.));
#1569=DIRECTION('',(-1.,1.23908819712629E-16,0.));
#1570=DIRECTION('',(0.,0.,1.));
#1571=DIRECTION('',(1.,0.,0.));
#1572=DIRECTION('',(-1.,2.20282346155785E-16,0.));
#1573=DIRECTION('',(0.,1.,0.));
#1574=DIRECTION('',(-1.,1.10141173077892E-16,0.));
#1575=DIRECTION('',(0.,0.,-1.));
#1576=DIRECTION('',(-1.,0.,0.));
#1577=DIRECTION('',(0.,0.,-1.));
#1578=DIRECTION('',(-1.,0.,0.));
#1579=DIRECTION('',(-1.82123199577617E-16,-1.,0.));
#1580=DIRECTION('',(0.,0.,1.));
#1581=DIRECTION('',(1.,0.,0.));
#1582=DIRECTION('',(1.,0.,0.));
#1583=DIRECTION('',(0.,0.,1.));
#1584=DIRECTION('',(1.,0.,0.));
#1585=DIRECTION('',(-1.82123199577617E-16,-1.,0.));
#1586=DIRECTION('',(0.,0.,1.));
#1587=DIRECTION('',(1.,0.,0.));
#1588=DIRECTION('',(1.,0.,0.));
#1589=DIRECTION('',(0.,0.,1.));
#1590=DIRECTION('',(1.,0.,0.));
#1591=DIRECTION('',(0.,0.,-1.));
#1592=DIRECTION('',(-1.,0.,0.));
#1593=DIRECTION('',(0.,0.,1.));
#1594=DIRECTION('',(1.,0.,0.));
#1595=DIRECTION('',(1.,0.,0.));
#1596=DIRECTION('',(0.,0.,1.));
#1597=DIRECTION('',(1.,0.,0.));
#1598=DIRECTION('',(-1.82123199577617E-16,-1.,0.));
#1599=DIRECTION('',(0.,0.,1.));
#1600=DIRECTION('',(1.,0.,0.));
#1601=DIRECTION('',(1.,0.,0.));
#1602=DIRECTION('',(0.,0.,1.));
#1603=DIRECTION('',(1.,0.,0.));
#1604=DIRECTION('',(-1.82123199577617E-16,-1.,0.));
#1605=DIRECTION('',(0.,0.,1.));
#1606=DIRECTION('',(1.,0.,0.));
#1607=DIRECTION('',(0.,-1.,0.));
#1608=DIRECTION('',(1.,0.,0.));
#1609=DIRECTION('',(0.,-1.,0.));
#1610=DIRECTION('',(1.,0.,0.));
#1611=DIRECTION('',(0.,1.,0.));
#1612=DIRECTION('',(0.,0.,1.));
#1613=DIRECTION('',(0.,0.,-1.));
#1614=DIRECTION('',(0.,0.,-1.));
#1615=DIRECTION('',(1.,-1.82123199577617E-16,0.));
#1616=DIRECTION('',(1.82123199577617E-16,1.,0.));
#1617=DIRECTION('',(0.,0.,-1.));
#1618=DIRECTION('',(0.,0.,-1.));
#1619=DIRECTION('',(0.,1.,0.));
#1620=DIRECTION('',(0.,0.,1.));
#1621=DIRECTION('',(0.,0.,-1.));
#1622=DIRECTION('',(0.,0.,-1.));
#1623=DIRECTION('',(1.,-1.82123199577617E-16,0.));
#1624=DIRECTION('',(1.82123199577617E-16,1.,0.));
#1625=DIRECTION('',(0.,0.,-1.));
#1626=DIRECTION('',(0.,0.,-1.));
#1627=DIRECTION('',(0.,1.,0.));
#1628=DIRECTION('',(0.,0.,1.));
#1629=DIRECTION('',(0.,0.,-1.));
#1630=DIRECTION('',(1.,0.,0.));
#1631=DIRECTION('',(0.,0.,-1.));
#1632=DIRECTION('',(1.,0.,0.));
#1633=DIRECTION('',(0.,0.,-1.));
#1634=DIRECTION('',(0.,0.,-1.));
#1635=DIRECTION('',(0.,-1.,0.));
#1636=DIRECTION('',(0.,1.,0.));
#1637=DIRECTION('',(0.,0.,1.));
#1638=DIRECTION('',(0.,0.,-1.));
#1639=DIRECTION('',(1.,0.,0.));
#1640=DIRECTION('',(1.,0.,0.));
#1641=DIRECTION('',(0.,0.,-1.));
#1642=DIRECTION('',(0.,0.,-1.));
#1643=DIRECTION('',(0.,-1.,0.));
#1644=DIRECTION('',(0.,0.,-1.));
#1645=DIRECTION('',(0.,1.,0.));
#1646=DIRECTION('',(0.,0.,1.));
#1647=DIRECTION('',(0.,0.,-1.));
#1648=DIRECTION('',(1.,0.,0.));
#1649=DIRECTION('',(1.,0.,0.));
#1650=DIRECTION('',(0.,0.,-1.));
#1651=DIRECTION('',(0.,0.,1.));
#1652=DIRECTION('',(0.,-1.,0.));
#1653=DIRECTION('',(0.,0.,1.));
#1654=DIRECTION('',(0.,0.,-1.));
#1655=DIRECTION('',(0.,-1.,0.));
#1656=DIRECTION('',(0.,1.,0.));
#1657=DIRECTION('',(0.,0.,1.));
#1658=DIRECTION('',(1.,0.,0.));
#1659=DIRECTION('',(1.,0.,0.));
#1660=DIRECTION('',(0.,0.,-1.));
#1661=DIRECTION('',(0.,-1.,0.));
#1662=DIRECTION('',(0.,0.,1.));
#1663=DIRECTION('',(1.,0.,0.));
#1664=DIRECTION('',(0.,0.,-1.));
#1665=DIRECTION('',(-1.,0.,0.));
#1666=DIRECTION('',(0.,0.,-1.));
#1667=DIRECTION('',(-1.,0.,0.));
#1668=DIRECTION('',(-1.10141173077892E-16,-1.,0.));
#1669=DIRECTION('',(1.,-1.10141173077892E-16,0.));
#1670=DIRECTION('',(0.,0.,-1.));
#1671=DIRECTION('',(1.,0.,0.));
#1672=DIRECTION('',(-1.,0.,0.));
#1673=DIRECTION('',(0.,0.,1.));
#1674=DIRECTION('',(0.,0.,-1.));
#1675=DIRECTION('',(-2.20282346155785E-16,-1.,0.));
#1676=DIRECTION('',(1.,-2.20282346155785E-16,0.));
#1677=DIRECTION('',(1.,0.,0.));
#1678=DIRECTION('',(0.,0.,-1.));
#1679=DIRECTION('',(-1.,0.,0.));
#1680=DIRECTION('',(0.,0.,-1.));
#1681=DIRECTION('',(-1.,0.,0.));
#1682=DIRECTION('',(0.,0.,-1.));
#1683=DIRECTION('',(1.,0.,0.));
#1684=DIRECTION('',(-0.5,0.866025403784439,0.));
#1685=DIRECTION('',(0.,0.,-1.));
#1686=DIRECTION('',(-1.,0.,0.));
#1687=DIRECTION('',(0.5,0.866025403784439,0.));
#1688=DIRECTION('',(0.,0.,-1.));
#1689=DIRECTION('',(-1.,0.,0.));
#1690=DIRECTION('',(-0.5,0.866025403784438,0.));
#1691=DIRECTION('',(0.,0.,-1.));
#1692=DIRECTION('',(-1.,0.,0.));
#1693=DIRECTION('',(0.5,0.866025403784438,0.));
#1694=DIRECTION('',(0.,0.,-1.));
#1695=DIRECTION('',(-1.,0.,0.));
#1696=DIRECTION('',(0.,0.,-1.));
#1697=DIRECTION('',(-1.,0.,0.));
#1698=DIRECTION('',(0.,0.,-1.));
#1699=DIRECTION('',(0.,0.,-1.));
#1700=DIRECTION('',(-1.,0.,0.));
#1701=DIRECTION('',(0.,0.,-1.));
#1702=DIRECTION('',(0.,0.,-1.));
#1703=DIRECTION('',(0.,0.,-1.));
#1704=DIRECTION('',(-1.,0.,0.));
#1705=DIRECTION('',(0.,0.,-1.));
#1706=DIRECTION('',(-0.866025403784438,0.5,0.));
#1707=DIRECTION('',(-0.5,-0.866025403784439,0.));
#1708=DIRECTION('',(0.5,0.866025403784439,0.));
#1709=DIRECTION('',(0.,0.,-1.));
#1710=DIRECTION('',(0.,0.,-1.));
#1711=DIRECTION('',(-1.,0.,0.));
#1712=DIRECTION('',(0.,0.,-1.));
#1713=DIRECTION('',(-1.,0.,0.));
#1714=DIRECTION('',(0.,0.,-1.));
#1715=DIRECTION('',(-0.866025403784438,-0.5,0.));
#1716=DIRECTION('',(0.5,-0.866025403784438,0.));
#1717=DIRECTION('',(-0.5,0.866025403784438,0.));
#1718=DIRECTION('',(-0.866025403784438,0.5,0.));
#1719=DIRECTION('',(-0.5,-0.866025403784438,0.));
#1720=DIRECTION('',(0.5,0.866025403784439,0.));
#1721=DIRECTION('',(0.,0.,-1.));
#1722=DIRECTION('',(0.,0.,-1.));
#1723=DIRECTION('',(-1.,0.,0.));
#1724=DIRECTION('',(0.,0.,-1.));
#1725=DIRECTION('',(-1.,0.,0.));
#1726=DIRECTION('',(0.,0.,-1.));
#1727=DIRECTION('',(-0.866025403784439,-0.5,0.));
#1728=DIRECTION('',(0.5,-0.866025403784439,0.));
#1729=DIRECTION('',(-0.5,0.866025403784439,0.));
#1730=DIRECTION('',(0.,0.,-1.));
#1731=DIRECTION('',(1.,0.,0.));
#1732=DIRECTION('',(0.,0.,-1.));
#1733=DIRECTION('',(1.,0.,0.));
#1734=DIRECTION('',(1.,0.,0.));
#1735=DIRECTION('',(0.,0.,-1.));
#1736=DIRECTION('',(0.,0.,1.));
#1737=DIRECTION('',(0.,1.,0.));
#1738=DIRECTION('',(0.,0.,1.));
#1739=DIRECTION('',(0.,1.,0.));
#1740=DIRECTION('',(0.,0.,1.));
#1741=DIRECTION('',(0.,0.,1.));
#1742=DIRECTION('',(-1.,0.,0.));
#1743=DIRECTION('',(1.,0.,0.));
#1744=DIRECTION('',(0.,0.,-1.));
#1745=DIRECTION('',(0.,0.,1.));
#1746=DIRECTION('',(0.,1.,0.));
#1747=DIRECTION('',(0.,1.,0.));
#1748=DIRECTION('',(0.,0.,1.));
#1749=DIRECTION('',(0.,0.,1.));
#1750=DIRECTION('',(-1.,0.,0.));
#1751=DIRECTION('',(1.,0.,0.));
#1752=DIRECTION('',(0.,0.,-1.));
#1753=DIRECTION('',(0.,0.,1.));
#1754=DIRECTION('',(0.,1.,0.));
#1755=DIRECTION('',(0.,1.,0.));
#1756=DIRECTION('',(0.,0.,1.));
#1757=DIRECTION('',(0.,0.,1.));
#1758=DIRECTION('',(-1.,0.,0.));
#1759=DIRECTION('',(1.,0.,0.));
#1760=DIRECTION('',(0.,0.,-1.));
#1761=DIRECTION('',(0.,0.,1.));
#1762=DIRECTION('',(0.,1.,0.));
#1763=DIRECTION('',(0.,1.,0.));
#1764=DIRECTION('',(0.,0.,1.));
#1765=DIRECTION('',(-1.,0.,0.));
#1766=DIRECTION('',(0.,0.,1.));
#1767=DIRECTION('',(1.,0.,0.));
#1768=DIRECTION('',(0.,0.,1.));
#1769=DIRECTION('',(1.,0.,0.));
#1770=DIRECTION('',(0.,0.,-1.));
#1771=DIRECTION('',(-1.,0.,0.));
#1772=DIRECTION('',(0.,0.,1.));
#1773=DIRECTION('',(1.,0.,0.));
#1774=DIRECTION('',(0.,0.,-1.));
#1775=DIRECTION('',(-1.,0.,0.));
#1776=DIRECTION('',(0.,0.,1.));
#1777=DIRECTION('',(1.,0.,0.));
#1778=CARTESIAN_POINT('',(0.,0.,0.));
#1779=CARTESIAN_POINT('',(0.,6.93889390390723E-18,0.004));
#1780=CARTESIAN_POINT('',(-0.0362,-0.04919,0.004));
#1781=CARTESIAN_POINT('',(-0.03745,-0.04919,0.004));
#1782=CARTESIAN_POINT('',(-0.0362,-0.03253,0.004));
#1783=CARTESIAN_POINT('',(-0.03745,-0.03253,0.004));
#1784=CARTESIAN_POINT('',(-3.31653560152977E-18,0.0064,0.004));
#1785=CARTESIAN_POINT('',(0.007,0.0064,0.004));
#1786=CARTESIAN_POINT('',(0.0047625,-0.003125,0.004));
#1787=CARTESIAN_POINT('',(0.009525,-0.003125,0.004));
#1788=CARTESIAN_POINT('',(-0.009525,-0.003125,0.004));
#1789=CARTESIAN_POINT('',(0.009525,0.0144,0.004));
#1790=CARTESIAN_POINT('',(0.009525,0.0154,0.004));
#1791=CARTESIAN_POINT('',(0.0187875,0.0154,0.004));
#1792=CARTESIAN_POINT('',(0.02805,0.0154,0.004));
#1793=CARTESIAN_POINT('',(0.02805,-0.003125,0.004));
#1794=CARTESIAN_POINT('',(0.02805,-0.02165,0.004));
#1795=CARTESIAN_POINT('',(-3.46944695195361E-18,-0.02165,0.004));
#1796=CARTESIAN_POINT('',(-0.02805,-0.02165,0.004));
#1797=CARTESIAN_POINT('',(-0.02805,-0.003125,0.004));
#1798=CARTESIAN_POINT('',(-0.02805,0.0154,0.004));
#1799=CARTESIAN_POINT('',(-0.0187875,0.0154,0.004));
#1800=CARTESIAN_POINT('',(-0.009525,0.0154,0.004));
#1801=CARTESIAN_POINT('',(-0.009525,0.0144,0.004));
#1802=CARTESIAN_POINT('',(2.77555756156289E-17,-0.03165,0.004));
#1803=CARTESIAN_POINT('',(0.04025,-0.03165,0.004));
#1804=CARTESIAN_POINT('',(-0.0315,-0.03165,0.004));
#1805=CARTESIAN_POINT('',(0.04025,0.,0.004));
#1806=CARTESIAN_POINT('',(0.04025,0.05295,0.004));
#1807=CARTESIAN_POINT('',(0.,0.05295,0.004));
#1808=CARTESIAN_POINT('',(-0.04025,0.05295,0.004));
#1809=CARTESIAN_POINT('',(-0.04025,0.,0.004));
#1810=CARTESIAN_POINT('',(-0.04025,-0.05295,0.004));
#1811=CARTESIAN_POINT('',(0.,-0.05295,0.004));
#1812=CARTESIAN_POINT('',(0.04025,-0.05295,0.004));
#1813=CARTESIAN_POINT('',(0.04025,0.,0.004));
#1814=CARTESIAN_POINT('',(0.04025,-0.04995,0.004));
#1815=CARTESIAN_POINT('',(2.77555756156289E-17,-0.04995,0.004));
#1816=CARTESIAN_POINT('',(-0.0315,-0.04995,0.004));
#1817=CARTESIAN_POINT('',(-0.0315,-0.0408,0.004));
#1818=CARTESIAN_POINT('',(0.0315,-0.0408,0.004));
#1819=CARTESIAN_POINT('',(0.0315,-0.04995,0.004));
#1820=CARTESIAN_POINT('',(0.0315,-0.04995,0.001));
#1821=CARTESIAN_POINT('',(0.0315,-0.04995,0.));
#1822=CARTESIAN_POINT('',(0.0315,-0.0408,0.001));
#1823=CARTESIAN_POINT('',(0.0315,-0.03165,0.001));
#1824=CARTESIAN_POINT('',(0.0315,-0.03165,0.004));
#1825=CARTESIAN_POINT('',(0.0315,-0.03165,0.));
#1826=CARTESIAN_POINT('',(0.0315,-0.0408,0.));
#1827=CARTESIAN_POINT('',(-0.01205,-0.01265,0.0254));
#1828=CARTESIAN_POINT('',(-0.01205,-0.01965,0.0254));
#1829=CARTESIAN_POINT('',(-0.01205,-0.01965,0.0015));
#1830=CARTESIAN_POINT('',(-0.01205,-0.01965,0.));
#1831=CARTESIAN_POINT('',(-0.01205,6.93889390390723E-18,0.0015));
#1832=CARTESIAN_POINT('',(-0.01205,-0.00565,0.0015));
#1833=CARTESIAN_POINT('',(-0.01205,-0.00565,0.0254));
#1834=CARTESIAN_POINT('',(-0.01205,-0.00565,0.));
#1835=CARTESIAN_POINT('',(-0.01205,-0.01265,0.));
#1836=CARTESIAN_POINT('',(-0.01905,-0.01965,0.0254));
#1837=CARTESIAN_POINT('',(0.,-0.01965,0.0015));
#1838=CARTESIAN_POINT('',(-0.02605,-0.01965,0.0015));
#1839=CARTESIAN_POINT('',(-0.01905,-0.01965,0.));
#1840=CARTESIAN_POINT('',(-0.02605,-0.01965,0.));
#1841=CARTESIAN_POINT('',(-0.02605,-0.01965,0.0254));
#1842=CARTESIAN_POINT('',(-0.02605,-0.01265,0.0254));
#1843=CARTESIAN_POINT('',(-0.02605,6.93889390390723E-18,0.0015));
#1844=CARTESIAN_POINT('',(-0.02605,-0.00565,0.0015));
#1845=CARTESIAN_POINT('',(-0.02605,-0.01265,0.));
#1846=CARTESIAN_POINT('',(-0.02605,-0.00565,0.));
#1847=CARTESIAN_POINT('',(-0.02605,-0.00565,0.0254));
#1848=CARTESIAN_POINT('',(-0.01905,-0.00565,0.0254));
#1849=CARTESIAN_POINT('',(0.,-0.00565,0.0015));
#1850=CARTESIAN_POINT('',(-0.01905,-0.00565,0.));
#1851=CARTESIAN_POINT('',(0.02605,0.0064,0.0254));
#1852=CARTESIAN_POINT('',(0.02605,-0.0006,0.0254));
#1853=CARTESIAN_POINT('',(0.02605,-0.0006,0.0015));
#1854=CARTESIAN_POINT('',(0.02605,-0.0006,0.));
#1855=CARTESIAN_POINT('',(0.02605,6.93889390390723E-18,0.0015));
#1856=CARTESIAN_POINT('',(0.02605,0.0134,0.0015));
#1857=CARTESIAN_POINT('',(0.02605,0.0134,0.0254));
#1858=CARTESIAN_POINT('',(0.02605,0.0134,0.));
#1859=CARTESIAN_POINT('',(0.02605,0.0064,0.));
#1860=CARTESIAN_POINT('',(0.01905,-0.0006,0.0254));
#1861=CARTESIAN_POINT('',(-6.96987110883542E-20,-0.0006,0.0015));
#1862=CARTESIAN_POINT('',(0.01205,-0.0006,0.0015));
#1863=CARTESIAN_POINT('',(0.01905,-0.0006,0.));
#1864=CARTESIAN_POINT('',(0.01205,-0.0006,0.));
#1865=CARTESIAN_POINT('',(0.01205,-0.0006,0.0254));
#1866=CARTESIAN_POINT('',(0.01205,0.0064,0.0254));
#1867=CARTESIAN_POINT('',(0.01205,6.93889390390723E-18,0.0015));
#1868=CARTESIAN_POINT('',(0.01205,0.0134,0.0015));
#1869=CARTESIAN_POINT('',(0.01205,0.0064,0.));
#1870=CARTESIAN_POINT('',(0.01205,0.0134,0.));
#1871=CARTESIAN_POINT('',(0.01205,0.0134,0.0254));
#1872=CARTESIAN_POINT('',(0.01905,0.0134,0.0254));
#1873=CARTESIAN_POINT('',(0.,0.0134,0.0015));
#1874=CARTESIAN_POINT('',(0.01905,0.0134,0.));
#1875=CARTESIAN_POINT('',(-0.01205,0.0064,0.0254));
#1876=CARTESIAN_POINT('',(-0.01205,-0.00059999999999999,0.0254));
#1877=CARTESIAN_POINT('',(-0.01205,-0.00059999999999999,0.0015));
#1878=CARTESIAN_POINT('',(-0.01205,-0.00059999999999999,0.));
#1879=CARTESIAN_POINT('',(-0.01205,3.95269134883286E-18,0.0015));
#1880=CARTESIAN_POINT('',(-0.01205,0.0134,0.0015));
#1881=CARTESIAN_POINT('',(-0.01205,0.0134,0.0254));
#1882=CARTESIAN_POINT('',(-0.01205,0.0134,0.));
#1883=CARTESIAN_POINT('',(-0.01205,0.0064,0.));
#1884=CARTESIAN_POINT('',(-0.01905,-0.000599999999999991,0.0254));
#1885=CARTESIAN_POINT('',(7.43452918275769E-20,-0.000599999999999989,0.0015));
#1886=CARTESIAN_POINT('',(-0.02605,-0.000599999999999992,0.0015));
#1887=CARTESIAN_POINT('',(-0.01905,-0.000599999999999991,0.));
#1888=CARTESIAN_POINT('',(-0.02605,-0.000599999999999992,0.));
#1889=CARTESIAN_POINT('',(-0.02605,-0.000599999999999992,0.0254));
#1890=CARTESIAN_POINT('',(-0.02605,0.0064,0.0254));
#1891=CARTESIAN_POINT('',(-0.02605,6.93889390390723E-18,0.0015));
#1892=CARTESIAN_POINT('',(-0.02605,0.0134,0.0015));
#1893=CARTESIAN_POINT('',(-0.02605,0.0064,0.));
#1894=CARTESIAN_POINT('',(-0.02605,0.0134,0.));
#1895=CARTESIAN_POINT('',(-0.02605,0.0134,0.0254));
#1896=CARTESIAN_POINT('',(-0.01905,0.0134,0.0254));
#1897=CARTESIAN_POINT('',(0.,0.0134,0.0015));
#1898=CARTESIAN_POINT('',(-0.01905,0.0134,0.));
#1899=CARTESIAN_POINT('',(0.02605,-0.01265,0.0254));
#1900=CARTESIAN_POINT('',(0.02605,-0.01965,0.0254));
#1901=CARTESIAN_POINT('',(0.02605,-0.01965,0.0015));
#1902=CARTESIAN_POINT('',(0.02605,-0.01965,0.));
#1903=CARTESIAN_POINT('',(0.02605,6.93889390390723E-18,0.0015));
#1904=CARTESIAN_POINT('',(0.02605,-0.00565,0.0015));
#1905=CARTESIAN_POINT('',(0.02605,-0.00565,0.0254));
#1906=CARTESIAN_POINT('',(0.02605,-0.00565,0.));
#1907=CARTESIAN_POINT('',(0.02605,-0.01265,0.));
#1908=CARTESIAN_POINT('',(0.01905,-0.01965,0.0254));
#1909=CARTESIAN_POINT('',(0.,-0.01965,0.0015));
#1910=CARTESIAN_POINT('',(0.01205,-0.01965,0.0015));
#1911=CARTESIAN_POINT('',(0.01905,-0.01965,0.));
#1912=CARTESIAN_POINT('',(0.01205,-0.01965,0.));
#1913=CARTESIAN_POINT('',(0.01205,-0.01965,0.0254));
#1914=CARTESIAN_POINT('',(0.01205,-0.01265,0.0254));
#1915=CARTESIAN_POINT('',(0.01205,6.93889390390723E-18,0.0015));
#1916=CARTESIAN_POINT('',(0.01205,-0.00565,0.0015));
#1917=CARTESIAN_POINT('',(0.01205,-0.01265,0.));
#1918=CARTESIAN_POINT('',(0.01205,-0.00565,0.));
#1919=CARTESIAN_POINT('',(0.01205,-0.00565,0.0254));
#1920=CARTESIAN_POINT('',(0.01905,-0.00565,0.0254));
#1921=CARTESIAN_POINT('',(-7.00084831376355E-19,-0.00565,0.0015));
#1922=CARTESIAN_POINT('',(0.01905,-0.00565,0.));
#1923=CARTESIAN_POINT('',(0.007,-0.01265,0.0254));
#1924=CARTESIAN_POINT('',(0.007,-0.01965,0.0254));
#1925=CARTESIAN_POINT('',(0.007,-0.01965,0.0015));
#1926=CARTESIAN_POINT('',(0.007,-0.01965,0.));
#1927=CARTESIAN_POINT('',(0.007,6.50521303491303E-18,0.0015));
#1928=CARTESIAN_POINT('',(0.007,-0.00565,0.0015));
#1929=CARTESIAN_POINT('',(0.007,-0.00565,0.0254));
#1930=CARTESIAN_POINT('',(0.007,-0.00565,0.));
#1931=CARTESIAN_POINT('',(0.007,-0.01265,0.));
#1932=CARTESIAN_POINT('',(-0.0035,-0.01965,0.0254));
#1933=CARTESIAN_POINT('',(0.,-0.01965,0.0015));
#1934=CARTESIAN_POINT('',(-0.007,-0.01965,0.0015));
#1935=CARTESIAN_POINT('',(-0.0035,-0.01965,0.));
#1936=CARTESIAN_POINT('',(-0.007,-0.01965,0.));
#1937=CARTESIAN_POINT('',(-0.007,-0.01965,0.0254));
#1938=CARTESIAN_POINT('',(-0.007,-0.01265,0.0254));
#1939=CARTESIAN_POINT('',(-0.007,7.37257477290143E-18,0.0015));
#1940=CARTESIAN_POINT('',(-0.007,-0.00565,0.0015));
#1941=CARTESIAN_POINT('',(-0.007,-0.01265,0.));
#1942=CARTESIAN_POINT('',(-0.007,-0.00565,0.));
#1943=CARTESIAN_POINT('',(-0.007,-0.00565,0.0254));
#1944=CARTESIAN_POINT('',(-0.0035,-0.00565,0.0254));
#1945=CARTESIAN_POINT('',(-7.00084831376354E-19,-0.00565,0.0015));
#1946=CARTESIAN_POINT('',(-0.0035,-0.00565,0.));
#1947=CARTESIAN_POINT('',(0.,6.93889390390723E-18,0.));
#1948=CARTESIAN_POINT('',(2.77555756156289E-17,-0.03165,0.));
#1949=CARTESIAN_POINT('',(-0.0315,-0.03165,0.));
#1950=CARTESIAN_POINT('',(-0.0315,-0.0408,0.));
#1951=CARTESIAN_POINT('',(-0.0315,-0.04995,0.));
#1952=CARTESIAN_POINT('',(2.77555756156289E-17,-0.04995,0.));
#1953=CARTESIAN_POINT('',(-0.0362,-0.04919,0.));
#1954=CARTESIAN_POINT('',(-0.03745,-0.04919,0.));
#1955=CARTESIAN_POINT('',(-0.0362,-0.03253,0.));
#1956=CARTESIAN_POINT('',(-0.03745,-0.03253,0.));
#1957=CARTESIAN_POINT('',(-0.04445,6.93889390390723E-18,0.));
#1958=CARTESIAN_POINT('',(-0.04445,0.04953,0.));
#1959=CARTESIAN_POINT('',(-0.04445,-0.04953,0.));
#1960=CARTESIAN_POINT('',(-0.03683,0.04953,0.));
#1961=CARTESIAN_POINT('',(-0.03683,0.05715,0.));
#1962=CARTESIAN_POINT('',(1.38777878078145E-17,0.05715,0.));
#1963=CARTESIAN_POINT('',(0.03683,0.05715,0.));
#1964=CARTESIAN_POINT('',(0.03683,0.04953,0.));
#1965=CARTESIAN_POINT('',(0.04445,0.04953,0.));
#1966=CARTESIAN_POINT('',(0.04445,0.,0.));
#1967=CARTESIAN_POINT('',(0.04445,-0.04953,0.));
#1968=CARTESIAN_POINT('',(0.03683,-0.04953,0.));
#1969=CARTESIAN_POINT('',(0.03683,-0.05715,0.));
#1970=CARTESIAN_POINT('',(-6.93889390390723E-18,-0.05715,0.));
#1971=CARTESIAN_POINT('',(-0.03683,-0.05715,0.));
#1972=CARTESIAN_POINT('',(-0.03683,-0.04953,0.));
#1973=CARTESIAN_POINT('',(-1.34671986484423E-17,0.0064,0.));
#1974=CARTESIAN_POINT('',(-0.00610000000000001,0.0064,0.));
#1975=CARTESIAN_POINT('',(0.,6.93889390390723E-18,0.004));
#1976=CARTESIAN_POINT('',(1.38777878078145E-17,0.05715,0.004));
#1977=CARTESIAN_POINT('',(-0.03683,0.05715,0.004));
#1978=CARTESIAN_POINT('',(0.03683,0.05715,0.004));
#1979=CARTESIAN_POINT('',(-0.03683,0.04953,0.004));
#1980=CARTESIAN_POINT('',(-0.04445,0.04953,0.004));
#1981=CARTESIAN_POINT('',(-0.04445,6.93889390390723E-18,0.004));
#1982=CARTESIAN_POINT('',(-0.04445,-0.04953,0.004));
#1983=CARTESIAN_POINT('',(-0.03683,-0.04953,0.004));
#1984=CARTESIAN_POINT('',(-0.03683,-0.05715,0.004));
#1985=CARTESIAN_POINT('',(-6.93889390390723E-18,-0.05715,0.004));
#1986=CARTESIAN_POINT('',(0.03683,-0.05715,0.004));
#1987=CARTESIAN_POINT('',(0.03683,-0.04953,0.004));
#1988=CARTESIAN_POINT('',(0.04445,-0.04953,0.004));
#1989=CARTESIAN_POINT('',(0.04445,0.,0.004));
#1990=CARTESIAN_POINT('',(0.04445,0.04953,0.004));
#1991=CARTESIAN_POINT('',(0.03683,0.04953,0.004));
#1992=CARTESIAN_POINT('',(-0.04125,0.,0.004));
#1993=CARTESIAN_POINT('',(-0.04125,0.05395,0.004));
#1994=CARTESIAN_POINT('',(-0.04125,-0.05395,0.004));
#1995=CARTESIAN_POINT('',(0.,0.05395,0.004));
#1996=CARTESIAN_POINT('',(0.04125,0.05395,0.004));
#1997=CARTESIAN_POINT('',(0.04125,0.,0.004));
#1998=CARTESIAN_POINT('',(0.04125,-0.05395,0.004));
#1999=CARTESIAN_POINT('',(0.,-0.05395,0.004));
#2000=CARTESIAN_POINT('',(1.38777878078145E-17,0.05715,0.004));
#2001=CARTESIAN_POINT('',(-0.03683,0.05715,0.004));
#2002=CARTESIAN_POINT('',(0.03683,0.05715,0.004));
#2003=CARTESIAN_POINT('',(-0.04445,6.93889390390723E-18,0.004));
#2004=CARTESIAN_POINT('',(-0.04445,0.04953,0.));
#2005=CARTESIAN_POINT('',(-0.04445,-0.04953,0.004));
#2006=CARTESIAN_POINT('',(-6.93889390390723E-18,-0.05715,0.004));
#2007=CARTESIAN_POINT('',(0.03683,-0.05715,0.004));
#2008=CARTESIAN_POINT('',(-0.03683,-0.05715,0.004));
#2009=CARTESIAN_POINT('',(0.04445,0.,0.004));
#2010=CARTESIAN_POINT('',(0.04445,0.04953,0.004));
#2011=CARTESIAN_POINT('',(0.04445,-0.04953,0.));
#2012=CARTESIAN_POINT('',(0.,0.05395,0.007));
#2013=CARTESIAN_POINT('',(-0.04125,0.05395,0.007));
#2014=CARTESIAN_POINT('',(-0.04125,0.05395,0.007));
#2015=CARTESIAN_POINT('',(0.,0.05395,0.007));
#2016=CARTESIAN_POINT('',(0.04125,0.05395,0.007));
#2017=CARTESIAN_POINT('',(0.04125,0.05395,0.007));
#2018=CARTESIAN_POINT('',(-0.04125,0.,0.007));
#2019=CARTESIAN_POINT('',(-0.04125,-0.05395,0.007));
#2020=CARTESIAN_POINT('',(-0.04125,-0.05395,0.007));
#2021=CARTESIAN_POINT('',(-0.04125,0.,0.007));
#2022=CARTESIAN_POINT('',(0.,-0.05395,0.007));
#2023=CARTESIAN_POINT('',(0.04125,-0.05395,0.007));
#2024=CARTESIAN_POINT('',(0.04125,-0.05395,0.007));
#2025=CARTESIAN_POINT('',(0.,-0.05395,0.007));
#2026=CARTESIAN_POINT('',(-0.04025,0.,0.007));
#2027=CARTESIAN_POINT('',(-0.04025,0.05295,0.007));
#2028=CARTESIAN_POINT('',(-0.04025,0.05295,0.007));
#2029=CARTESIAN_POINT('',(-0.04025,0.,0.007));
#2030=CARTESIAN_POINT('',(-0.04025,-0.05295,0.007));
#2031=CARTESIAN_POINT('',(-0.04025,-0.05295,0.007));
#2032=CARTESIAN_POINT('',(0.,0.05295,0.007));
#2033=CARTESIAN_POINT('',(0.04025,0.05295,0.007));
#2034=CARTESIAN_POINT('',(0.04025,0.05295,0.007));
#2035=CARTESIAN_POINT('',(0.,0.05295,0.007));
#2036=CARTESIAN_POINT('',(0.04025,0.,0.007));
#2037=CARTESIAN_POINT('',(0.04025,-0.03165,0.001));
#2038=CARTESIAN_POINT('',(0.04025,-0.03165,0.001));
#2039=CARTESIAN_POINT('',(0.04025,0.,0.001));
#2040=CARTESIAN_POINT('',(0.04025,-0.04995,0.001));
#2041=CARTESIAN_POINT('',(0.04025,-0.04995,0.001));
#2042=CARTESIAN_POINT('',(0.04025,-0.05295,0.007));
#2043=CARTESIAN_POINT('',(0.04025,-0.05295,0.007));
#2044=CARTESIAN_POINT('',(0.04025,0.,0.007));
#2045=CARTESIAN_POINT('',(0.,-0.05295,0.007));
#2046=CARTESIAN_POINT('',(0.,-0.05295,0.007));
#2047=CARTESIAN_POINT('',(0.04125,0.,0.007));
#2048=CARTESIAN_POINT('',(0.04125,0.,0.007));
#2049=CARTESIAN_POINT('',(0.,0.,0.007));
#2050=CARTESIAN_POINT('',(-0.0362,-0.03253,0.004));
#2051=CARTESIAN_POINT('',(-0.0362,-0.04919,0.004));
#2052=CARTESIAN_POINT('',(2.77555756156289E-17,-0.04995,0.004));
#2053=CARTESIAN_POINT('',(-0.0315,-0.04995,0.004));
#2054=CARTESIAN_POINT('',(0.035875,-0.04995,0.001));
#2055=CARTESIAN_POINT('',(-0.0315,-0.0408,0.004));
#2056=CARTESIAN_POINT('',(-0.0315,-0.03165,0.004));
#2057=CARTESIAN_POINT('',(2.77555756156289E-17,-0.03165,0.004));
#2058=CARTESIAN_POINT('',(0.035875,-0.03165,0.001));
#2059=CARTESIAN_POINT('',(-3.31653560152977E-18,0.0064,0.0116));
#2060=CARTESIAN_POINT('',(-3.31653560152977E-18,0.0064,0.0116));
#2061=CARTESIAN_POINT('',(-0.007,0.0064,0.0116));
#2062=CARTESIAN_POINT('',(0.,6.93889390390723E-18,0.0116));
#2063=CARTESIAN_POINT('',(0.0027712812921102,0.0016,0.0116));
#2064=CARTESIAN_POINT('',(-0.00225,0.01029711431703,0.0116));
#2065=CARTESIAN_POINT('',(-0.00305,0.0116827549630851,0.0116));
#2066=CARTESIAN_POINT('',(-1.34671986484423E-17,0.0064,0.0116));
#2067=CARTESIAN_POINT('',(0.00305,0.0116827549630851,0.0116));
#2068=CARTESIAN_POINT('',(-0.0027712812921102,0.0016,0.0116));
#2069=CARTESIAN_POINT('',(0.00225,0.01029711431703,0.0116));
#2070=CARTESIAN_POINT('',(-2.16840434497101E-18,0.0064,0.0116));
#2071=CARTESIAN_POINT('',(0.00225,0.00250288568297003,0.0116));
#2072=CARTESIAN_POINT('',(0.0027712812921102,0.0016,0.0116));
#2073=CARTESIAN_POINT('',(0.00305,0.00111724503691493,0.0116));
#2074=CARTESIAN_POINT('',(-1.58229372873423E-18,0.0064,0.0116));
#2075=CARTESIAN_POINT('',(-0.00305,0.00111724503691493,0.0116));
#2076=CARTESIAN_POINT('',(-0.0027712812921102,0.0016,0.0116));
#2077=CARTESIAN_POINT('',(-0.00225,0.00250288568297003,0.0116));
#2078=CARTESIAN_POINT('',(-2.38524477946811E-18,0.0064,0.0116));
#2079=CARTESIAN_POINT('',(-1.34671986484423E-17,0.0064,0.0254));
#2080=CARTESIAN_POINT('',(-0.00305,0.0116827549630851,0.0254));
#2081=CARTESIAN_POINT('',(-0.00305,0.0116827549630851,0.0096));
#2082=CARTESIAN_POINT('',(-2.38524477946811E-18,0.0064,0.0096));
#2083=CARTESIAN_POINT('',(-0.00305,0.00111724503691493,0.0096));
#2084=CARTESIAN_POINT('',(-0.00305,0.00111724503691493,0.0254));
#2085=CARTESIAN_POINT('',(0.00305,0.00111724503691493,0.0254));
#2086=CARTESIAN_POINT('',(0.00305,0.00111724503691493,0.0096));
#2087=CARTESIAN_POINT('',(-1.3010426069826E-18,0.0064,0.0096));
#2088=CARTESIAN_POINT('',(0.00305,0.0116827549630851,0.0096));
#2089=CARTESIAN_POINT('',(0.00305,0.0116827549630851,0.0254));
#2090=CARTESIAN_POINT('',(0.00265,0.0109899346400575,0.0254));
#2091=CARTESIAN_POINT('',(0.00265,0.0109899346400575,0.0096));
#2092=CARTESIAN_POINT('',(0.00225,0.01029711431703,0.0096));
#2093=CARTESIAN_POINT('',(0.00225,0.01029711431703,0.0254));
#2094=CARTESIAN_POINT('',(-2.16840434497101E-18,0.0064,0.0254));
#2095=CARTESIAN_POINT('',(-2.16840434497101E-18,0.0064,0.0096));
#2096=CARTESIAN_POINT('',(0.00225,0.00250288568297003,0.0096));
#2097=CARTESIAN_POINT('',(0.00225,0.00250288568297003,0.0254));
#2098=CARTESIAN_POINT('',(0.00265,0.00181006535994248,0.0254));
#2099=CARTESIAN_POINT('',(0.00265,0.00181006535994248,0.0096));
#2100=CARTESIAN_POINT('',(-0.00265,0.00181006535994248,0.0254));
#2101=CARTESIAN_POINT('',(-0.00265,0.00181006535994248,0.0096));
#2102=CARTESIAN_POINT('',(-0.00225,0.00250288568297003,0.0096));
#2103=CARTESIAN_POINT('',(-0.00225,0.00250288568297003,0.0254));
#2104=CARTESIAN_POINT('',(-2.38524477946811E-18,0.0064,0.0254));
#2105=CARTESIAN_POINT('',(-2.38524477946811E-18,0.0064,0.0096));
#2106=CARTESIAN_POINT('',(-0.00225,0.01029711431703,0.0096));
#2107=CARTESIAN_POINT('',(-0.00225,0.01029711431703,0.0254));
#2108=CARTESIAN_POINT('',(-0.00265,0.0109899346400575,0.0254));
#2109=CARTESIAN_POINT('',(-0.00265,0.0109899346400575,0.0096));
#2110=CARTESIAN_POINT('',(0.,6.93889390390723E-18,0.0096));
#2111=CARTESIAN_POINT('',(0.,6.93889390390723E-18,0.0096));
#2112=CARTESIAN_POINT('',(0.009525,0.0144,0.0015));
#2113=CARTESIAN_POINT('',(0.009525,-0.003125,0.0015));
#2114=CARTESIAN_POINT('',(0.009525,-0.003125,0.0015));
#2115=CARTESIAN_POINT('',(0.009525,0.0144,0.0015));
#2116=CARTESIAN_POINT('',(0.009525,0.0154,0.0015));
#2117=CARTESIAN_POINT('',(0.009525,0.0154,0.0015));
#2118=CARTESIAN_POINT('',(0.0047625,-0.003125,0.0015));
#2119=CARTESIAN_POINT('',(-0.009525,-0.003125,0.0015));
#2120=CARTESIAN_POINT('',(-0.009525,-0.003125,0.0015));
#2121=CARTESIAN_POINT('',(0.0047625,-0.003125,0.0015));
#2122=CARTESIAN_POINT('',(-0.009525,0.0144,0.0015));
#2123=CARTESIAN_POINT('',(-0.009525,0.0154,0.0015));
#2124=CARTESIAN_POINT('',(-0.009525,0.0154,0.0015));
#2125=CARTESIAN_POINT('',(-0.009525,0.0144,0.0015));
#2126=CARTESIAN_POINT('',(-0.0187875,0.0154,0.0015));
#2127=CARTESIAN_POINT('',(-0.02805,0.0154,0.0015));
#2128=CARTESIAN_POINT('',(-0.02805,0.0154,0.0015));
#2129=CARTESIAN_POINT('',(-0.0187875,0.0154,0.0015));
#2130=CARTESIAN_POINT('',(-0.02805,-0.003125,0.0015));
#2131=CARTESIAN_POINT('',(-0.02805,-0.02165,0.0015));
#2132=CARTESIAN_POINT('',(-0.02805,-0.02165,0.0015));
#2133=CARTESIAN_POINT('',(-0.02805,-0.003125,0.0015));
#2134=CARTESIAN_POINT('',(-3.46944695195361E-18,-0.02165,0.0015));
#2135=CARTESIAN_POINT('',(0.02805,-0.02165,0.0015));
#2136=CARTESIAN_POINT('',(0.02805,-0.02165,0.0015));
#2137=CARTESIAN_POINT('',(-3.46944695195361E-18,-0.02165,0.0015));
#2138=CARTESIAN_POINT('',(0.02805,-0.003125,0.0015));
#2139=CARTESIAN_POINT('',(0.02805,0.0154,0.0015));
#2140=CARTESIAN_POINT('',(0.02805,0.0154,0.0015));
#2141=CARTESIAN_POINT('',(0.02805,-0.003125,0.0015));
#2142=CARTESIAN_POINT('',(0.0187875,0.0154,0.0015));
#2143=CARTESIAN_POINT('',(0.0187875,0.0154,0.0015));
#2144=CARTESIAN_POINT('',(0.,0.,0.0015));
#2145=CARTESIAN_POINT('',(-0.03683,0.04953,0.004));
#2146=CARTESIAN_POINT('',(0.03683,0.04953,0.004));
#2147=CARTESIAN_POINT('',(0.03683,-0.04953,0.004));
#2148=CARTESIAN_POINT('',(-0.03683,-0.04953,0.004));
#2149=CARTESIAN_POINT('',(0.,0.,0.001));
#2150=MECHANICAL_DESIGN_GEOMETRIC_PRESENTATION_REPRESENTATION('',(#1336),
#2151);
#2151=(
GEOMETRIC_REPRESENTATION_CONTEXT(3)
GLOBAL_UNCERTAINTY_ASSIGNED_CONTEXT((#2152))
GLOBAL_UNIT_ASSIGNED_CONTEXT((#2155,#2154,#2153))
REPRESENTATION_CONTEXT('Part 1','TOP_LEVEL_ASSEMBLY_PART')
);
#2152=UNCERTAINTY_MEASURE_WITH_UNIT(LENGTH_MEASURE(1.E-8),#2155,
'DISTANCE_ACCURACY_VALUE','Maximum Tolerance applied to model');
#2153=(
NAMED_UNIT(*)
SI_UNIT($,.STERADIAN.)
SOLID_ANGLE_UNIT()
);
#2154=(
NAMED_UNIT(*)
PLANE_ANGLE_UNIT()
SI_UNIT($,.RADIAN.)
);
#2155=(
LENGTH_UNIT()
NAMED_UNIT(*)
SI_UNIT($,.METRE.)
);
#2156=PRODUCT_DEFINITION_SHAPE('','',#2157);
#2157=PRODUCT_DEFINITION('','',#2159,#2158);
#2158=PRODUCT_DEFINITION_CONTEXT('',#2165,'design');
#2159=PRODUCT_DEFINITION_FORMATION_WITH_SPECIFIED_SOURCE('','',#2161,
 .NOT_KNOWN.);
#2160=PRODUCT_RELATED_PRODUCT_CATEGORY('','',(#2161));
#2161=PRODUCT('Part 1','Part 1','Part 1',(#2163));
#2162=PRODUCT_CATEGORY('','');
#2163=PRODUCT_CONTEXT('',#2165,'mechanical');
#2164=APPLICATION_PROTOCOL_DEFINITION('international standard',
'ap242_managed_model_based_3d_engineering',2020,#2165);
#2165=APPLICATION_CONTEXT('managed model based 3d engineering');
ENDSEC;
END-ISO-10303-21;
