ISO-10303-21;
HEADER;
/* Generated by software containing ST-Developer
 * from STEP Tools, Inc. (www.steptools.com) 
 */
/* OPTION: using custom renumber hook */

FILE_DESCRIPTION(
/* description */ ('STEP AP242 Edition 2',
'CAx-IF Rec.Pracs.---Representation and Presentation of Product Manufa
cturing Information (PMI)---4.0---2014-10-13',
'CAx-IF Rec.Pracs.---3D Tessellated Geometry---0.4---2014-09-14','2;1',
'CAx-IF Rec.Pracs.---User Defined Attributes---1.5---2016-08-15'),
/* implementation_level */ '2;1');

FILE_NAME(
/* name */ 'Alarm Clock Base v3',
/* time_stamp */ '2026-08-12T17:39:02Z',
/* author */ (''),
/* organization */ (''),
/* preprocessor_version */ 'ST-DEVELOPER v20',
/* originating_system */ 'ONSHAPE BY PTC INC, 1.219',
/* authorisation */ '  ');

FILE_SCHEMA (('AP242_MANAGED_MODEL_BASED_3D_ENGINEERING_MIM_LF { 1 0 10303 442 3 1 4 }'));
ENDSEC;

DATA;
#10=SHAPE_REPRESENTATION_RELATIONSHIP('','',#926,#11);
#11=ADVANCED_BREP_SHAPE_REPRESENTATION('',(#924),#1496);
#12=CYLINDRICAL_SURFACE('',#981,0.0045);
#13=CYLINDRICAL_SURFACE('',#983,0.0045);
#14=CYLINDRICAL_SURFACE('',#986,0.0045);
#15=CYLINDRICAL_SURFACE('',#987,0.0045);
#16=CYLINDRICAL_SURFACE('',#988,0.00762);
#17=CYLINDRICAL_SURFACE('',#989,0.00762);
#18=CYLINDRICAL_SURFACE('',#990,0.00762);
#19=CYLINDRICAL_SURFACE('',#991,0.00762);
#20=CIRCLE('',#931,0.0045);
#21=CIRCLE('',#932,0.0045);
#22=CIRCLE('',#933,0.0045);
#23=CIRCLE('',#934,0.0045);
#24=CIRCLE('',#936,0.0045);
#25=CIRCLE('',#937,0.0045);
#26=CIRCLE('',#938,0.0045);
#27=CIRCLE('',#939,0.0045);
#28=CIRCLE('',#944,0.00762);
#29=CIRCLE('',#945,0.00762);
#30=CIRCLE('',#946,0.00762);
#31=CIRCLE('',#947,0.00762);
#32=CIRCLE('',#952,0.00762);
#33=CIRCLE('',#953,0.00762);
#34=CIRCLE('',#954,0.00762);
#35=CIRCLE('',#955,0.00762);
#36=CIRCLE('',#964,0.0045);
#37=CIRCLE('',#965,0.0045);
#38=ORIENTED_EDGE('',*,*,#296,.F.);
#39=ORIENTED_EDGE('',*,*,#297,.F.);
#40=ORIENTED_EDGE('',*,*,#298,.T.);
#41=ORIENTED_EDGE('',*,*,#299,.T.);
#42=ORIENTED_EDGE('',*,*,#300,.T.);
#43=ORIENTED_EDGE('',*,*,#301,.F.);
#44=ORIENTED_EDGE('',*,*,#302,.T.);
#45=ORIENTED_EDGE('',*,*,#303,.F.);
#46=ORIENTED_EDGE('',*,*,#304,.F.);
#47=ORIENTED_EDGE('',*,*,#305,.T.);
#48=ORIENTED_EDGE('',*,*,#306,.T.);
#49=ORIENTED_EDGE('',*,*,#307,.T.);
#50=ORIENTED_EDGE('',*,*,#308,.F.);
#51=ORIENTED_EDGE('',*,*,#309,.T.);
#52=ORIENTED_EDGE('',*,*,#310,.F.);
#53=ORIENTED_EDGE('',*,*,#311,.T.);
#54=ORIENTED_EDGE('',*,*,#312,.T.);
#55=ORIENTED_EDGE('',*,*,#313,.F.);
#56=ORIENTED_EDGE('',*,*,#297,.T.);
#57=ORIENTED_EDGE('',*,*,#314,.T.);
#58=ORIENTED_EDGE('',*,*,#315,.F.);
#59=ORIENTED_EDGE('',*,*,#316,.T.);
#60=ORIENTED_EDGE('',*,*,#317,.T.);
#61=ORIENTED_EDGE('',*,*,#318,.T.);
#62=ORIENTED_EDGE('',*,*,#319,.T.);
#63=ORIENTED_EDGE('',*,*,#320,.T.);
#64=ORIENTED_EDGE('',*,*,#321,.T.);
#65=ORIENTED_EDGE('',*,*,#322,.F.);
#66=ORIENTED_EDGE('',*,*,#323,.T.);
#67=ORIENTED_EDGE('',*,*,#324,.F.);
#68=ORIENTED_EDGE('',*,*,#325,.F.);
#69=ORIENTED_EDGE('',*,*,#326,.T.);
#70=ORIENTED_EDGE('',*,*,#303,.T.);
#71=ORIENTED_EDGE('',*,*,#327,.F.);
#72=ORIENTED_EDGE('',*,*,#328,.T.);
#73=ORIENTED_EDGE('',*,*,#329,.T.);
#74=ORIENTED_EDGE('',*,*,#330,.F.);
#75=ORIENTED_EDGE('',*,*,#331,.T.);
#76=ORIENTED_EDGE('',*,*,#332,.F.);
#77=ORIENTED_EDGE('',*,*,#333,.F.);
#78=ORIENTED_EDGE('',*,*,#334,.F.);
#79=ORIENTED_EDGE('',*,*,#335,.F.);
#80=ORIENTED_EDGE('',*,*,#336,.F.);
#81=ORIENTED_EDGE('',*,*,#337,.T.);
#82=ORIENTED_EDGE('',*,*,#338,.F.);
#83=ORIENTED_EDGE('',*,*,#339,.T.);
#84=ORIENTED_EDGE('',*,*,#340,.T.);
#85=ORIENTED_EDGE('',*,*,#341,.T.);
#86=ORIENTED_EDGE('',*,*,#342,.F.);
#87=ORIENTED_EDGE('',*,*,#343,.T.);
#88=ORIENTED_EDGE('',*,*,#344,.T.);
#89=ORIENTED_EDGE('',*,*,#345,.T.);
#90=ORIENTED_EDGE('',*,*,#346,.F.);
#91=ORIENTED_EDGE('',*,*,#347,.T.);
#92=ORIENTED_EDGE('',*,*,#348,.T.);
#93=ORIENTED_EDGE('',*,*,#349,.T.);
#94=ORIENTED_EDGE('',*,*,#350,.T.);
#95=ORIENTED_EDGE('',*,*,#351,.T.);
#96=ORIENTED_EDGE('',*,*,#352,.F.);
#97=ORIENTED_EDGE('',*,*,#353,.T.);
#98=ORIENTED_EDGE('',*,*,#344,.F.);
#99=ORIENTED_EDGE('',*,*,#354,.T.);
#100=ORIENTED_EDGE('',*,*,#338,.T.);
#101=ORIENTED_EDGE('',*,*,#355,.T.);
#102=ORIENTED_EDGE('',*,*,#352,.T.);
#103=ORIENTED_EDGE('',*,*,#356,.T.);
#104=ORIENTED_EDGE('',*,*,#348,.F.);
#105=ORIENTED_EDGE('',*,*,#357,.T.);
#106=ORIENTED_EDGE('',*,*,#305,.F.);
#107=ORIENTED_EDGE('',*,*,#358,.F.);
#108=ORIENTED_EDGE('',*,*,#359,.T.);
#109=ORIENTED_EDGE('',*,*,#360,.T.);
#110=ORIENTED_EDGE('',*,*,#304,.T.);
#111=ORIENTED_EDGE('',*,*,#326,.F.);
#112=ORIENTED_EDGE('',*,*,#361,.F.);
#113=ORIENTED_EDGE('',*,*,#358,.T.);
#114=ORIENTED_EDGE('',*,*,#362,.F.);
#115=ORIENTED_EDGE('',*,*,#363,.T.);
#116=ORIENTED_EDGE('',*,*,#300,.F.);
#117=ORIENTED_EDGE('',*,*,#364,.F.);
#118=ORIENTED_EDGE('',*,*,#365,.F.);
#119=ORIENTED_EDGE('',*,*,#366,.T.);
#120=ORIENTED_EDGE('',*,*,#306,.F.);
#121=ORIENTED_EDGE('',*,*,#360,.F.);
#122=ORIENTED_EDGE('',*,*,#367,.T.);
#123=ORIENTED_EDGE('',*,*,#324,.T.);
#124=ORIENTED_EDGE('',*,*,#359,.F.);
#125=ORIENTED_EDGE('',*,*,#361,.T.);
#126=ORIENTED_EDGE('',*,*,#325,.T.);
#127=ORIENTED_EDGE('',*,*,#367,.F.);
#128=ORIENTED_EDGE('',*,*,#340,.F.);
#129=ORIENTED_EDGE('',*,*,#368,.T.);
#130=ORIENTED_EDGE('',*,*,#342,.T.);
#131=ORIENTED_EDGE('',*,*,#369,.T.);
#132=ORIENTED_EDGE('',*,*,#346,.T.);
#133=ORIENTED_EDGE('',*,*,#370,.T.);
#134=ORIENTED_EDGE('',*,*,#350,.F.);
#135=ORIENTED_EDGE('',*,*,#371,.T.);
#136=ORIENTED_EDGE('',*,*,#307,.F.);
#137=ORIENTED_EDGE('',*,*,#366,.F.);
#138=ORIENTED_EDGE('',*,*,#372,.T.);
#139=ORIENTED_EDGE('',*,*,#373,.T.);
#140=ORIENTED_EDGE('',*,*,#309,.F.);
#141=ORIENTED_EDGE('',*,*,#374,.F.);
#142=ORIENTED_EDGE('',*,*,#375,.F.);
#143=ORIENTED_EDGE('',*,*,#376,.F.);
#144=ORIENTED_EDGE('',*,*,#377,.T.);
#145=ORIENTED_EDGE('',*,*,#364,.T.);
#146=ORIENTED_EDGE('',*,*,#378,.F.);
#147=ORIENTED_EDGE('',*,*,#379,.F.);
#148=ORIENTED_EDGE('',*,*,#380,.T.);
#149=ORIENTED_EDGE('',*,*,#376,.T.);
#150=ORIENTED_EDGE('',*,*,#381,.F.);
#151=ORIENTED_EDGE('',*,*,#382,.F.);
#152=ORIENTED_EDGE('',*,*,#383,.T.);
#153=ORIENTED_EDGE('',*,*,#379,.T.);
#154=ORIENTED_EDGE('',*,*,#308,.T.);
#155=ORIENTED_EDGE('',*,*,#373,.F.);
#156=ORIENTED_EDGE('',*,*,#384,.F.);
#157=ORIENTED_EDGE('',*,*,#382,.T.);
#158=ORIENTED_EDGE('',*,*,#385,.T.);
#159=ORIENTED_EDGE('',*,*,#374,.T.);
#160=ORIENTED_EDGE('',*,*,#372,.F.);
#161=ORIENTED_EDGE('',*,*,#365,.T.);
#162=ORIENTED_EDGE('',*,*,#377,.F.);
#163=ORIENTED_EDGE('',*,*,#380,.F.);
#164=ORIENTED_EDGE('',*,*,#383,.F.);
#165=ORIENTED_EDGE('',*,*,#384,.T.);
#166=ORIENTED_EDGE('',*,*,#302,.F.);
#167=ORIENTED_EDGE('',*,*,#386,.F.);
#168=ORIENTED_EDGE('',*,*,#387,.T.);
#169=ORIENTED_EDGE('',*,*,#327,.T.);
#170=ORIENTED_EDGE('',*,*,#388,.F.);
#171=ORIENTED_EDGE('',*,*,#389,.T.);
#172=ORIENTED_EDGE('',*,*,#299,.F.);
#173=ORIENTED_EDGE('',*,*,#390,.F.);
#174=ORIENTED_EDGE('',*,*,#391,.F.);
#175=ORIENTED_EDGE('',*,*,#386,.T.);
#176=ORIENTED_EDGE('',*,*,#301,.T.);
#177=ORIENTED_EDGE('',*,*,#363,.F.);
#178=ORIENTED_EDGE('',*,*,#392,.F.);
#179=ORIENTED_EDGE('',*,*,#393,.T.);
#180=ORIENTED_EDGE('',*,*,#394,.F.);
#181=ORIENTED_EDGE('',*,*,#395,.T.);
#182=ORIENTED_EDGE('',*,*,#298,.F.);
#183=ORIENTED_EDGE('',*,*,#329,.F.);
#184=ORIENTED_EDGE('',*,*,#396,.T.);
#185=ORIENTED_EDGE('',*,*,#390,.T.);
#186=ORIENTED_EDGE('',*,*,#387,.F.);
#187=ORIENTED_EDGE('',*,*,#391,.T.);
#188=ORIENTED_EDGE('',*,*,#396,.F.);
#189=ORIENTED_EDGE('',*,*,#328,.F.);
#190=ORIENTED_EDGE('',*,*,#397,.T.);
#191=ORIENTED_EDGE('',*,*,#398,.T.);
#192=ORIENTED_EDGE('',*,*,#399,.F.);
#193=ORIENTED_EDGE('',*,*,#400,.F.);
#194=ORIENTED_EDGE('',*,*,#310,.T.);
#195=ORIENTED_EDGE('',*,*,#401,.F.);
#196=ORIENTED_EDGE('',*,*,#402,.F.);
#197=ORIENTED_EDGE('',*,*,#399,.T.);
#198=ORIENTED_EDGE('',*,*,#403,.T.);
#199=ORIENTED_EDGE('',*,*,#404,.T.);
#200=ORIENTED_EDGE('',*,*,#313,.T.);
#201=ORIENTED_EDGE('',*,*,#405,.F.);
#202=ORIENTED_EDGE('',*,*,#406,.F.);
#203=ORIENTED_EDGE('',*,*,#401,.T.);
#204=ORIENTED_EDGE('',*,*,#312,.F.);
#205=ORIENTED_EDGE('',*,*,#407,.F.);
#206=ORIENTED_EDGE('',*,*,#408,.T.);
#207=ORIENTED_EDGE('',*,*,#405,.T.);
#208=ORIENTED_EDGE('',*,*,#311,.F.);
#209=ORIENTED_EDGE('',*,*,#404,.F.);
#210=ORIENTED_EDGE('',*,*,#409,.F.);
#211=ORIENTED_EDGE('',*,*,#410,.F.);
#212=ORIENTED_EDGE('',*,*,#411,.T.);
#213=ORIENTED_EDGE('',*,*,#407,.T.);
#214=ORIENTED_EDGE('',*,*,#412,.F.);
#215=ORIENTED_EDGE('',*,*,#397,.F.);
#216=ORIENTED_EDGE('',*,*,#413,.T.);
#217=ORIENTED_EDGE('',*,*,#410,.T.);
#218=ORIENTED_EDGE('',*,*,#400,.T.);
#219=ORIENTED_EDGE('',*,*,#402,.T.);
#220=ORIENTED_EDGE('',*,*,#406,.T.);
#221=ORIENTED_EDGE('',*,*,#408,.F.);
#222=ORIENTED_EDGE('',*,*,#411,.F.);
#223=ORIENTED_EDGE('',*,*,#413,.F.);
#224=ORIENTED_EDGE('',*,*,#414,.F.);
#225=ORIENTED_EDGE('',*,*,#393,.F.);
#226=ORIENTED_EDGE('',*,*,#415,.T.);
#227=ORIENTED_EDGE('',*,*,#322,.T.);
#228=ORIENTED_EDGE('',*,*,#415,.F.);
#229=ORIENTED_EDGE('',*,*,#392,.T.);
#230=ORIENTED_EDGE('',*,*,#362,.T.);
#231=ORIENTED_EDGE('',*,*,#323,.F.);
#232=ORIENTED_EDGE('',*,*,#416,.F.);
#233=ORIENTED_EDGE('',*,*,#394,.T.);
#234=ORIENTED_EDGE('',*,*,#414,.T.);
#235=ORIENTED_EDGE('',*,*,#321,.F.);
#236=ORIENTED_EDGE('',*,*,#398,.F.);
#237=ORIENTED_EDGE('',*,*,#412,.T.);
#238=ORIENTED_EDGE('',*,*,#409,.T.);
#239=ORIENTED_EDGE('',*,*,#403,.F.);
#240=ORIENTED_EDGE('',*,*,#385,.F.);
#241=ORIENTED_EDGE('',*,*,#381,.T.);
#242=ORIENTED_EDGE('',*,*,#378,.T.);
#243=ORIENTED_EDGE('',*,*,#375,.T.);
#244=ORIENTED_EDGE('',*,*,#315,.T.);
#245=ORIENTED_EDGE('',*,*,#417,.T.);
#246=ORIENTED_EDGE('',*,*,#337,.F.);
#247=ORIENTED_EDGE('',*,*,#418,.F.);
#248=ORIENTED_EDGE('',*,*,#418,.T.);
#249=ORIENTED_EDGE('',*,*,#336,.T.);
#250=ORIENTED_EDGE('',*,*,#419,.F.);
#251=ORIENTED_EDGE('',*,*,#316,.F.);
#252=ORIENTED_EDGE('',*,*,#419,.T.);
#253=ORIENTED_EDGE('',*,*,#335,.T.);
#254=ORIENTED_EDGE('',*,*,#420,.F.);
#255=ORIENTED_EDGE('',*,*,#317,.F.);
#256=ORIENTED_EDGE('',*,*,#420,.T.);
#257=ORIENTED_EDGE('',*,*,#334,.T.);
#258=ORIENTED_EDGE('',*,*,#421,.F.);
#259=ORIENTED_EDGE('',*,*,#318,.F.);
#260=ORIENTED_EDGE('',*,*,#421,.T.);
#261=ORIENTED_EDGE('',*,*,#333,.T.);
#262=ORIENTED_EDGE('',*,*,#422,.F.);
#263=ORIENTED_EDGE('',*,*,#319,.F.);
#264=ORIENTED_EDGE('',*,*,#388,.T.);
#265=ORIENTED_EDGE('',*,*,#423,.T.);
#266=ORIENTED_EDGE('',*,*,#331,.F.);
#267=ORIENTED_EDGE('',*,*,#424,.F.);
#268=ORIENTED_EDGE('',*,*,#296,.T.);
#269=ORIENTED_EDGE('',*,*,#389,.F.);
#270=ORIENTED_EDGE('',*,*,#424,.T.);
#271=ORIENTED_EDGE('',*,*,#330,.T.);
#272=ORIENTED_EDGE('',*,*,#417,.F.);
#273=ORIENTED_EDGE('',*,*,#314,.F.);
#274=ORIENTED_EDGE('',*,*,#422,.T.);
#275=ORIENTED_EDGE('',*,*,#332,.T.);
#276=ORIENTED_EDGE('',*,*,#423,.F.);
#277=ORIENTED_EDGE('',*,*,#395,.F.);
#278=ORIENTED_EDGE('',*,*,#416,.T.);
#279=ORIENTED_EDGE('',*,*,#320,.F.);
#280=ORIENTED_EDGE('',*,*,#368,.F.);
#281=ORIENTED_EDGE('',*,*,#339,.F.);
#282=ORIENTED_EDGE('',*,*,#354,.F.);
#283=ORIENTED_EDGE('',*,*,#343,.F.);
#284=ORIENTED_EDGE('',*,*,#369,.F.);
#285=ORIENTED_EDGE('',*,*,#345,.F.);
#286=ORIENTED_EDGE('',*,*,#357,.F.);
#287=ORIENTED_EDGE('',*,*,#347,.F.);
#288=ORIENTED_EDGE('',*,*,#370,.F.);
#289=ORIENTED_EDGE('',*,*,#349,.F.);
#290=ORIENTED_EDGE('',*,*,#356,.F.);
#291=ORIENTED_EDGE('',*,*,#351,.F.);
#292=ORIENTED_EDGE('',*,*,#371,.F.);
#293=ORIENTED_EDGE('',*,*,#353,.F.);
#294=ORIENTED_EDGE('',*,*,#355,.F.);
#295=ORIENTED_EDGE('',*,*,#341,.F.);
#296=EDGE_CURVE('',#425,#426,#511,.F.);
#297=EDGE_CURVE('',#427,#425,#512,.T.);
#298=EDGE_CURVE('',#427,#428,#513,.T.);
#299=EDGE_CURVE('',#428,#426,#514,.T.);
#300=EDGE_CURVE('',#429,#430,#515,.T.);
#301=EDGE_CURVE('',#431,#430,#516,.T.);
#302=EDGE_CURVE('',#431,#432,#517,.T.);
#303=EDGE_CURVE('',#433,#432,#518,.T.);
#304=EDGE_CURVE('',#434,#433,#519,.T.);
#305=EDGE_CURVE('',#434,#435,#520,.T.);
#306=EDGE_CURVE('',#435,#436,#521,.T.);
#307=EDGE_CURVE('',#436,#437,#522,.T.);
#308=EDGE_CURVE('',#438,#437,#523,.T.);
#309=EDGE_CURVE('',#438,#429,#524,.T.);
#310=EDGE_CURVE('',#439,#440,#525,.T.);
#311=EDGE_CURVE('',#439,#441,#526,.T.);
#312=EDGE_CURVE('',#441,#442,#527,.T.);
#313=EDGE_CURVE('',#440,#442,#528,.T.);
#314=EDGE_CURVE('',#425,#443,#20,.T.);
#315=EDGE_CURVE('',#444,#443,#529,.T.);
#316=EDGE_CURVE('',#444,#445,#21,.T.);
#317=EDGE_CURVE('',#445,#446,#530,.T.);
#318=EDGE_CURVE('',#446,#447,#22,.T.);
#319=EDGE_CURVE('',#447,#448,#531,.T.);
#320=EDGE_CURVE('',#448,#449,#23,.T.);
#321=EDGE_CURVE('',#449,#450,#532,.T.);
#322=EDGE_CURVE('',#451,#450,#533,.T.);
#323=EDGE_CURVE('',#451,#452,#534,.T.);
#324=EDGE_CURVE('',#453,#452,#535,.T.);
#325=EDGE_CURVE('',#454,#453,#536,.T.);
#326=EDGE_CURVE('',#454,#433,#537,.T.);
#327=EDGE_CURVE('',#455,#432,#538,.T.);
#328=EDGE_CURVE('',#455,#456,#539,.T.);
#329=EDGE_CURVE('',#456,#427,#540,.T.);
#330=EDGE_CURVE('',#457,#458,#24,.T.);
#331=EDGE_CURVE('',#457,#459,#541,.T.);
#332=EDGE_CURVE('',#460,#459,#25,.T.);
#333=EDGE_CURVE('',#461,#460,#542,.T.);
#334=EDGE_CURVE('',#462,#461,#26,.T.);
#335=EDGE_CURVE('',#463,#462,#543,.T.);
#336=EDGE_CURVE('',#464,#463,#27,.T.);
#337=EDGE_CURVE('',#464,#458,#544,.T.);
#338=EDGE_CURVE('',#465,#466,#545,.T.);
#339=EDGE_CURVE('',#465,#467,#546,.F.);
#340=EDGE_CURVE('',#467,#468,#547,.T.);
#341=EDGE_CURVE('',#468,#466,#548,.T.);
#342=EDGE_CURVE('',#469,#470,#549,.T.);
#343=EDGE_CURVE('',#469,#471,#550,.T.);
#344=EDGE_CURVE('',#471,#472,#551,.T.);
#345=EDGE_CURVE('',#472,#470,#552,.F.);
#346=EDGE_CURVE('',#473,#474,#553,.T.);
#347=EDGE_CURVE('',#473,#475,#554,.T.);
#348=EDGE_CURVE('',#475,#476,#555,.T.);
#349=EDGE_CURVE('',#476,#474,#556,.F.);
#350=EDGE_CURVE('',#477,#478,#557,.T.);
#351=EDGE_CURVE('',#478,#479,#558,.T.);
#352=EDGE_CURVE('',#480,#479,#559,.T.);
#353=EDGE_CURVE('',#480,#477,#560,.F.);
#354=EDGE_CURVE('',#471,#465,#28,.F.);
#355=EDGE_CURVE('',#466,#480,#29,.F.);
#356=EDGE_CURVE('',#479,#476,#30,.F.);
#357=EDGE_CURVE('',#475,#472,#31,.F.);
#358=EDGE_CURVE('',#481,#434,#561,.T.);
#359=EDGE_CURVE('',#481,#482,#562,.T.);
#360=EDGE_CURVE('',#482,#435,#563,.T.);
#361=EDGE_CURVE('',#481,#454,#564,.T.);
#362=EDGE_CURVE('',#483,#452,#565,.T.);
#363=EDGE_CURVE('',#483,#430,#566,.T.);
#364=EDGE_CURVE('',#484,#429,#567,.T.);
#365=EDGE_CURVE('',#485,#484,#568,.T.);
#366=EDGE_CURVE('',#485,#436,#569,.T.);
#367=EDGE_CURVE('',#482,#453,#570,.T.);
#368=EDGE_CURVE('',#467,#469,#32,.T.);
#369=EDGE_CURVE('',#470,#473,#33,.T.);
#370=EDGE_CURVE('',#474,#478,#34,.T.);
#371=EDGE_CURVE('',#477,#468,#35,.T.);
#372=EDGE_CURVE('',#485,#486,#571,.T.);
#373=EDGE_CURVE('',#486,#437,#572,.T.);
#374=EDGE_CURVE('',#487,#438,#573,.T.);
#375=EDGE_CURVE('',#488,#487,#574,.T.);
#376=EDGE_CURVE('',#489,#488,#575,.T.);
#377=EDGE_CURVE('',#489,#484,#576,.T.);
#378=EDGE_CURVE('',#490,#488,#577,.T.);
#379=EDGE_CURVE('',#491,#490,#578,.T.);
#380=EDGE_CURVE('',#491,#489,#579,.T.);
#381=EDGE_CURVE('',#492,#490,#580,.T.);
#382=EDGE_CURVE('',#493,#492,#581,.T.);
#383=EDGE_CURVE('',#493,#491,#582,.T.);
#384=EDGE_CURVE('',#493,#486,#583,.T.);
#385=EDGE_CURVE('',#492,#487,#584,.T.);
#386=EDGE_CURVE('',#494,#431,#585,.T.);
#387=EDGE_CURVE('',#494,#455,#586,.T.);
#388=EDGE_CURVE('',#495,#496,#587,.T.);
#389=EDGE_CURVE('',#495,#426,#36,.T.);
#390=EDGE_CURVE('',#497,#428,#588,.T.);
#391=EDGE_CURVE('',#494,#497,#589,.T.);
#392=EDGE_CURVE('',#498,#483,#590,.T.);
#393=EDGE_CURVE('',#498,#499,#591,.T.);
#394=EDGE_CURVE('',#500,#499,#592,.T.);
#395=EDGE_CURVE('',#500,#496,#37,.T.);
#396=EDGE_CURVE('',#456,#497,#593,.T.);
#397=EDGE_CURVE('',#501,#502,#594,.T.);
#398=EDGE_CURVE('',#502,#503,#595,.T.);
#399=EDGE_CURVE('',#504,#503,#596,.T.);
#400=EDGE_CURVE('',#501,#504,#597,.T.);
#401=EDGE_CURVE('',#505,#440,#598,.T.);
#402=EDGE_CURVE('',#504,#505,#599,.T.);
#403=EDGE_CURVE('',#503,#506,#600,.T.);
#404=EDGE_CURVE('',#506,#439,#601,.T.);
#405=EDGE_CURVE('',#507,#442,#602,.T.);
#406=EDGE_CURVE('',#505,#507,#603,.T.);
#407=EDGE_CURVE('',#508,#441,#604,.T.);
#408=EDGE_CURVE('',#508,#507,#605,.T.);
#409=EDGE_CURVE('',#509,#506,#606,.T.);
#410=EDGE_CURVE('',#510,#509,#607,.T.);
#411=EDGE_CURVE('',#510,#508,#608,.T.);
#412=EDGE_CURVE('',#502,#509,#609,.T.);
#413=EDGE_CURVE('',#501,#510,#610,.T.);
#414=EDGE_CURVE('',#499,#450,#611,.T.);
#415=EDGE_CURVE('',#498,#451,#612,.T.);
#416=EDGE_CURVE('',#500,#449,#613,.T.);
#417=EDGE_CURVE('',#443,#458,#614,.T.);
#418=EDGE_CURVE('',#444,#464,#615,.T.);
#419=EDGE_CURVE('',#445,#463,#616,.T.);
#420=EDGE_CURVE('',#446,#462,#617,.T.);
#421=EDGE_CURVE('',#447,#461,#618,.T.);
#422=EDGE_CURVE('',#448,#460,#619,.T.);
#423=EDGE_CURVE('',#496,#459,#620,.T.);
#424=EDGE_CURVE('',#495,#457,#621,.T.);
#425=VERTEX_POINT('',#1236);
#426=VERTEX_POINT('',#1237);
#427=VERTEX_POINT('',#1239);
#428=VERTEX_POINT('',#1241);
#429=VERTEX_POINT('',#1245);
#430=VERTEX_POINT('',#1246);
#431=VERTEX_POINT('',#1248);
#432=VERTEX_POINT('',#1250);
#433=VERTEX_POINT('',#1252);
#434=VERTEX_POINT('',#1254);
#435=VERTEX_POINT('',#1256);
#436=VERTEX_POINT('',#1258);
#437=VERTEX_POINT('',#1260);
#438=VERTEX_POINT('',#1262);
#439=VERTEX_POINT('',#1265);
#440=VERTEX_POINT('',#1266);
#441=VERTEX_POINT('',#1268);
#442=VERTEX_POINT('',#1270);
#443=VERTEX_POINT('',#1274);
#444=VERTEX_POINT('',#1276);
#445=VERTEX_POINT('',#1278);
#446=VERTEX_POINT('',#1280);
#447=VERTEX_POINT('',#1282);
#448=VERTEX_POINT('',#1284);
#449=VERTEX_POINT('',#1286);
#450=VERTEX_POINT('',#1288);
#451=VERTEX_POINT('',#1290);
#452=VERTEX_POINT('',#1292);
#453=VERTEX_POINT('',#1294);
#454=VERTEX_POINT('',#1296);
#455=VERTEX_POINT('',#1299);
#456=VERTEX_POINT('',#1301);
#457=VERTEX_POINT('',#1305);
#458=VERTEX_POINT('',#1306);
#459=VERTEX_POINT('',#1308);
#460=VERTEX_POINT('',#1310);
#461=VERTEX_POINT('',#1312);
#462=VERTEX_POINT('',#1314);
#463=VERTEX_POINT('',#1316);
#464=VERTEX_POINT('',#1318);
#465=VERTEX_POINT('',#1321);
#466=VERTEX_POINT('',#1322);
#467=VERTEX_POINT('',#1324);
#468=VERTEX_POINT('',#1326);
#469=VERTEX_POINT('',#1330);
#470=VERTEX_POINT('',#1331);
#471=VERTEX_POINT('',#1333);
#472=VERTEX_POINT('',#1335);
#473=VERTEX_POINT('',#1339);
#474=VERTEX_POINT('',#1340);
#475=VERTEX_POINT('',#1342);
#476=VERTEX_POINT('',#1344);
#477=VERTEX_POINT('',#1348);
#478=VERTEX_POINT('',#1349);
#479=VERTEX_POINT('',#1351);
#480=VERTEX_POINT('',#1353);
#481=VERTEX_POINT('',#1362);
#482=VERTEX_POINT('',#1364);
#483=VERTEX_POINT('',#1370);
#484=VERTEX_POINT('',#1373);
#485=VERTEX_POINT('',#1375);
#486=VERTEX_POINT('',#1385);
#487=VERTEX_POINT('',#1389);
#488=VERTEX_POINT('',#1391);
#489=VERTEX_POINT('',#1393);
#490=VERTEX_POINT('',#1397);
#491=VERTEX_POINT('',#1399);
#492=VERTEX_POINT('',#1403);
#493=VERTEX_POINT('',#1405);
#494=VERTEX_POINT('',#1413);
#495=VERTEX_POINT('',#1417);
#496=VERTEX_POINT('',#1418);
#497=VERTEX_POINT('',#1421);
#498=VERTEX_POINT('',#1424);
#499=VERTEX_POINT('',#1426);
#500=VERTEX_POINT('',#1428);
#501=VERTEX_POINT('',#1435);
#502=VERTEX_POINT('',#1436);
#503=VERTEX_POINT('',#1438);
#504=VERTEX_POINT('',#1440);
#505=VERTEX_POINT('',#1444);
#506=VERTEX_POINT('',#1447);
#507=VERTEX_POINT('',#1451);
#508=VERTEX_POINT('',#1455);
#509=VERTEX_POINT('',#1459);
#510=VERTEX_POINT('',#1461);
#511=LINE('',#1235,#622);
#512=LINE('',#1238,#623);
#513=LINE('',#1240,#624);
#514=LINE('',#1242,#625);
#515=LINE('',#1244,#626);
#516=LINE('',#1247,#627);
#517=LINE('',#1249,#628);
#518=LINE('',#1251,#629);
#519=LINE('',#1253,#630);
#520=LINE('',#1255,#631);
#521=LINE('',#1257,#632);
#522=LINE('',#1259,#633);
#523=LINE('',#1261,#634);
#524=LINE('',#1263,#635);
#525=LINE('',#1264,#636);
#526=LINE('',#1267,#637);
#527=LINE('',#1269,#638);
#528=LINE('',#1271,#639);
#529=LINE('',#1275,#640);
#530=LINE('',#1279,#641);
#531=LINE('',#1283,#642);
#532=LINE('',#1287,#643);
#533=LINE('',#1289,#644);
#534=LINE('',#1291,#645);
#535=LINE('',#1293,#646);
#536=LINE('',#1295,#647);
#537=LINE('',#1297,#648);
#538=LINE('',#1298,#649);
#539=LINE('',#1300,#650);
#540=LINE('',#1302,#651);
#541=LINE('',#1307,#652);
#542=LINE('',#1311,#653);
#543=LINE('',#1315,#654);
#544=LINE('',#1319,#655);
#545=LINE('',#1320,#656);
#546=LINE('',#1323,#657);
#547=LINE('',#1325,#658);
#548=LINE('',#1327,#659);
#549=LINE('',#1329,#660);
#550=LINE('',#1332,#661);
#551=LINE('',#1334,#662);
#552=LINE('',#1336,#663);
#553=LINE('',#1338,#664);
#554=LINE('',#1341,#665);
#555=LINE('',#1343,#666);
#556=LINE('',#1345,#667);
#557=LINE('',#1347,#668);
#558=LINE('',#1350,#669);
#559=LINE('',#1352,#670);
#560=LINE('',#1354,#671);
#561=LINE('',#1361,#672);
#562=LINE('',#1363,#673);
#563=LINE('',#1365,#674);
#564=LINE('',#1367,#675);
#565=LINE('',#1369,#676);
#566=LINE('',#1371,#677);
#567=LINE('',#1372,#678);
#568=LINE('',#1374,#679);
#569=LINE('',#1376,#680);
#570=LINE('',#1377,#681);
#571=LINE('',#1384,#682);
#572=LINE('',#1386,#683);
#573=LINE('',#1388,#684);
#574=LINE('',#1390,#685);
#575=LINE('',#1392,#686);
#576=LINE('',#1394,#687);
#577=LINE('',#1396,#688);
#578=LINE('',#1398,#689);
#579=LINE('',#1400,#690);
#580=LINE('',#1402,#691);
#581=LINE('',#1404,#692);
#582=LINE('',#1406,#693);
#583=LINE('',#1408,#694);
#584=LINE('',#1409,#695);
#585=LINE('',#1412,#696);
#586=LINE('',#1414,#697);
#587=LINE('',#1416,#698);
#588=LINE('',#1420,#699);
#589=LINE('',#1422,#700);
#590=LINE('',#1423,#701);
#591=LINE('',#1425,#702);
#592=LINE('',#1427,#703);
#593=LINE('',#1431,#704);
#594=LINE('',#1434,#705);
#595=LINE('',#1437,#706);
#596=LINE('',#1439,#707);
#597=LINE('',#1441,#708);
#598=LINE('',#1443,#709);
#599=LINE('',#1445,#710);
#600=LINE('',#1446,#711);
#601=LINE('',#1448,#712);
#602=LINE('',#1450,#713);
#603=LINE('',#1452,#714);
#604=LINE('',#1454,#715);
#605=LINE('',#1456,#716);
#606=LINE('',#1458,#717);
#607=LINE('',#1460,#718);
#608=LINE('',#1462,#719);
#609=LINE('',#1464,#720);
#610=LINE('',#1465,#721);
#611=LINE('',#1468,#722);
#612=LINE('',#1469,#723);
#613=LINE('',#1472,#724);
#614=LINE('',#1476,#725);
#615=LINE('',#1477,#726);
#616=LINE('',#1479,#727);
#617=LINE('',#1481,#728);
#618=LINE('',#1483,#729);
#619=LINE('',#1485,#730);
#620=LINE('',#1487,#731);
#621=LINE('',#1488,#732);
#622=VECTOR('',#996,1.);
#623=VECTOR('',#997,1.);
#624=VECTOR('',#998,1.);
#625=VECTOR('',#999,1.);
#626=VECTOR('',#1002,1.);
#627=VECTOR('',#1003,1.);
#628=VECTOR('',#1004,1.);
#629=VECTOR('',#1005,1.);
#630=VECTOR('',#1006,1.);
#631=VECTOR('',#1007,1.);
#632=VECTOR('',#1008,1.);
#633=VECTOR('',#1009,1.);
#634=VECTOR('',#1010,1.);
#635=VECTOR('',#1011,1.);
#636=VECTOR('',#1012,1.);
#637=VECTOR('',#1013,1.);
#638=VECTOR('',#1014,1.);
#639=VECTOR('',#1015,1.);
#640=VECTOR('',#1020,1.);
#641=VECTOR('',#1023,1.);
#642=VECTOR('',#1026,1.);
#643=VECTOR('',#1029,1.);
#644=VECTOR('',#1030,1.);
#645=VECTOR('',#1031,1.);
#646=VECTOR('',#1032,1.);
#647=VECTOR('',#1033,1.);
#648=VECTOR('',#1034,1.);
#649=VECTOR('',#1035,1.);
#650=VECTOR('',#1036,1.);
#651=VECTOR('',#1037,1.);
#652=VECTOR('',#1042,1.);
#653=VECTOR('',#1045,1.);
#654=VECTOR('',#1048,1.);
#655=VECTOR('',#1051,1.);
#656=VECTOR('',#1052,1.);
#657=VECTOR('',#1053,1.);
#658=VECTOR('',#1054,1.);
#659=VECTOR('',#1055,1.);
#660=VECTOR('',#1058,1.);
#661=VECTOR('',#1059,1.);
#662=VECTOR('',#1060,1.);
#663=VECTOR('',#1061,1.);
#664=VECTOR('',#1064,1.);
#665=VECTOR('',#1065,1.);
#666=VECTOR('',#1066,1.);
#667=VECTOR('',#1067,1.);
#668=VECTOR('',#1070,1.);
#669=VECTOR('',#1071,1.);
#670=VECTOR('',#1072,1.);
#671=VECTOR('',#1073,1.);
#672=VECTOR('',#1086,1.);
#673=VECTOR('',#1087,1.);
#674=VECTOR('',#1088,1.);
#675=VECTOR('',#1091,1.);
#676=VECTOR('',#1094,1.);
#677=VECTOR('',#1095,1.);
#678=VECTOR('',#1096,1.);
#679=VECTOR('',#1097,1.);
#680=VECTOR('',#1098,1.);
#681=VECTOR('',#1099,1.);
#682=VECTOR('',#1112,1.);
#683=VECTOR('',#1113,1.);
#684=VECTOR('',#1116,1.);
#685=VECTOR('',#1117,1.);
#686=VECTOR('',#1118,1.);
#687=VECTOR('',#1119,1.);
#688=VECTOR('',#1122,1.);
#689=VECTOR('',#1123,1.);
#690=VECTOR('',#1124,1.);
#691=VECTOR('',#1127,1.);
#692=VECTOR('',#1128,1.);
#693=VECTOR('',#1129,1.);
#694=VECTOR('',#1132,1.);
#695=VECTOR('',#1133,1.);
#696=VECTOR('',#1138,1.);
#697=VECTOR('',#1139,1.);
#698=VECTOR('',#1142,1.);
#699=VECTOR('',#1145,1.);
#700=VECTOR('',#1146,1.);
#701=VECTOR('',#1147,1.);
#702=VECTOR('',#1148,1.);
#703=VECTOR('',#1149,1.);
#704=VECTOR('',#1154,1.);
#705=VECTOR('',#1159,1.);
#706=VECTOR('',#1160,1.);
#707=VECTOR('',#1161,1.);
#708=VECTOR('',#1162,1.);
#709=VECTOR('',#1165,1.);
#710=VECTOR('',#1166,1.);
#711=VECTOR('',#1167,1.);
#712=VECTOR('',#1168,1.);
#713=VECTOR('',#1171,1.);
#714=VECTOR('',#1172,1.);
#715=VECTOR('',#1175,1.);
#716=VECTOR('',#1176,1.);
#717=VECTOR('',#1179,1.);
#718=VECTOR('',#1180,1.);
#719=VECTOR('',#1181,1.);
#720=VECTOR('',#1184,1.);
#721=VECTOR('',#1185,1.);
#722=VECTOR('',#1190,1.);
#723=VECTOR('',#1191,1.);
#724=VECTOR('',#1196,1.);
#725=VECTOR('',#1203,1.);
#726=VECTOR('',#1204,1.);
#727=VECTOR('',#1207,1.);
#728=VECTOR('',#1210,1.);
#729=VECTOR('',#1213,1.);
#730=VECTOR('',#1216,1.);
#731=VECTOR('',#1219,1.);
#732=VECTOR('',#1220,1.);
#733=EDGE_LOOP('',(#38,#39,#40,#41));
#734=EDGE_LOOP('',(#42,#43,#44,#45,#46,#47,#48,#49,#50,#51));
#735=EDGE_LOOP('',(#52,#53,#54,#55));
#736=EDGE_LOOP('',(#56,#57,#58,#59,#60,#61,#62,#63,#64,#65,#66,#67,#68,
#69,#70,#71,#72,#73));
#737=EDGE_LOOP('',(#74,#75,#76,#77,#78,#79,#80,#81));
#738=EDGE_LOOP('',(#82,#83,#84,#85));
#739=EDGE_LOOP('',(#86,#87,#88,#89));
#740=EDGE_LOOP('',(#90,#91,#92,#93));
#741=EDGE_LOOP('',(#94,#95,#96,#97));
#742=EDGE_LOOP('',(#98,#99,#100,#101,#102,#103,#104,#105));
#743=EDGE_LOOP('',(#106,#107,#108,#109));
#744=EDGE_LOOP('',(#110,#111,#112,#113));
#745=EDGE_LOOP('',(#114,#115,#116,#117,#118,#119,#120,#121,#122,#123));
#746=EDGE_LOOP('',(#124,#125,#126,#127));
#747=EDGE_LOOP('',(#128,#129,#130,#131,#132,#133,#134,#135));
#748=EDGE_LOOP('',(#136,#137,#138,#139));
#749=EDGE_LOOP('',(#140,#141,#142,#143,#144,#145));
#750=EDGE_LOOP('',(#146,#147,#148,#149));
#751=EDGE_LOOP('',(#150,#151,#152,#153));
#752=EDGE_LOOP('',(#154,#155,#156,#157,#158,#159));
#753=EDGE_LOOP('',(#160,#161,#162,#163,#164,#165));
#754=EDGE_LOOP('',(#166,#167,#168,#169));
#755=EDGE_LOOP('',(#170,#171,#172,#173,#174,#175,#176,#177,#178,#179,#180,
#181));
#756=EDGE_LOOP('',(#182,#183,#184,#185));
#757=EDGE_LOOP('',(#186,#187,#188,#189));
#758=EDGE_LOOP('',(#190,#191,#192,#193));
#759=EDGE_LOOP('',(#194,#195,#196,#197,#198,#199));
#760=EDGE_LOOP('',(#200,#201,#202,#203));
#761=EDGE_LOOP('',(#204,#205,#206,#207));
#762=EDGE_LOOP('',(#208,#209,#210,#211,#212,#213));
#763=EDGE_LOOP('',(#214,#215,#216,#217));
#764=EDGE_LOOP('',(#218,#219,#220,#221,#222,#223));
#765=EDGE_LOOP('',(#224,#225,#226,#227));
#766=EDGE_LOOP('',(#228,#229,#230,#231));
#767=EDGE_LOOP('',(#232,#233,#234,#235));
#768=EDGE_LOOP('',(#236,#237,#238,#239));
#769=EDGE_LOOP('',(#240,#241,#242,#243));
#770=EDGE_LOOP('',(#244,#245,#246,#247));
#771=EDGE_LOOP('',(#248,#249,#250,#251));
#772=EDGE_LOOP('',(#252,#253,#254,#255));
#773=EDGE_LOOP('',(#256,#257,#258,#259));
#774=EDGE_LOOP('',(#260,#261,#262,#263));
#775=EDGE_LOOP('',(#264,#265,#266,#267));
#776=EDGE_LOOP('',(#268,#269,#270,#271,#272,#273));
#777=EDGE_LOOP('',(#274,#275,#276,#277,#278,#279));
#778=EDGE_LOOP('',(#280,#281,#282,#283));
#779=EDGE_LOOP('',(#284,#285,#286,#287));
#780=EDGE_LOOP('',(#288,#289,#290,#291));
#781=EDGE_LOOP('',(#292,#293,#294,#295));
#782=FACE_BOUND('',#733,.T.);
#783=FACE_BOUND('',#734,.T.);
#784=FACE_BOUND('',#735,.T.);
#785=FACE_BOUND('',#736,.T.);
#786=FACE_BOUND('',#737,.T.);
#787=FACE_BOUND('',#738,.T.);
#788=FACE_BOUND('',#739,.T.);
#789=FACE_BOUND('',#740,.T.);
#790=FACE_BOUND('',#741,.T.);
#791=FACE_BOUND('',#742,.T.);
#792=FACE_BOUND('',#743,.T.);
#793=FACE_BOUND('',#744,.T.);
#794=FACE_BOUND('',#745,.T.);
#795=FACE_BOUND('',#746,.T.);
#796=FACE_BOUND('',#747,.T.);
#797=FACE_BOUND('',#748,.T.);
#798=FACE_BOUND('',#749,.T.);
#799=FACE_BOUND('',#750,.T.);
#800=FACE_BOUND('',#751,.T.);
#801=FACE_BOUND('',#752,.T.);
#802=FACE_BOUND('',#753,.T.);
#803=FACE_BOUND('',#754,.T.);
#804=FACE_BOUND('',#755,.T.);
#805=FACE_BOUND('',#756,.T.);
#806=FACE_BOUND('',#757,.T.);
#807=FACE_BOUND('',#758,.T.);
#808=FACE_BOUND('',#759,.T.);
#809=FACE_BOUND('',#760,.T.);
#810=FACE_BOUND('',#761,.T.);
#811=FACE_BOUND('',#762,.T.);
#812=FACE_BOUND('',#763,.T.);
#813=FACE_BOUND('',#764,.T.);
#814=FACE_BOUND('',#765,.T.);
#815=FACE_BOUND('',#766,.T.);
#816=FACE_BOUND('',#767,.T.);
#817=FACE_BOUND('',#768,.T.);
#818=FACE_BOUND('',#769,.T.);
#819=FACE_BOUND('',#770,.T.);
#820=FACE_BOUND('',#771,.T.);
#821=FACE_BOUND('',#772,.T.);
#822=FACE_BOUND('',#773,.T.);
#823=FACE_BOUND('',#774,.T.);
#824=FACE_BOUND('',#775,.T.);
#825=FACE_BOUND('',#776,.T.);
#826=FACE_BOUND('',#777,.T.);
#827=FACE_BOUND('',#778,.T.);
#828=FACE_BOUND('',#779,.T.);
#829=FACE_BOUND('',#780,.T.);
#830=FACE_BOUND('',#781,.T.);
#831=PLANE('',#928);
#832=PLANE('',#929);
#833=PLANE('',#930);
#834=PLANE('',#935);
#835=PLANE('',#940);
#836=PLANE('',#941);
#837=PLANE('',#942);
#838=PLANE('',#943);
#839=PLANE('',#948);
#840=PLANE('',#949);
#841=PLANE('',#950);
#842=PLANE('',#951);
#843=PLANE('',#956);
#844=PLANE('',#957);
#845=PLANE('',#958);
#846=PLANE('',#959);
#847=PLANE('',#960);
#848=PLANE('',#961);
#849=PLANE('',#962);
#850=PLANE('',#963);
#851=PLANE('',#966);
#852=PLANE('',#967);
#853=PLANE('',#968);
#854=PLANE('',#969);
#855=PLANE('',#970);
#856=PLANE('',#971);
#857=PLANE('',#972);
#858=PLANE('',#973);
#859=PLANE('',#974);
#860=PLANE('',#975);
#861=PLANE('',#976);
#862=PLANE('',#977);
#863=PLANE('',#978);
#864=PLANE('',#979);
#865=PLANE('',#980);
#866=PLANE('',#982);
#867=PLANE('',#984);
#868=PLANE('',#985);
#869=ADVANCED_FACE('',(#782),#831,.T.);
#870=ADVANCED_FACE('',(#783,#784),#832,.T.);
#871=ADVANCED_FACE('',(#785),#833,.F.);
#872=ADVANCED_FACE('',(#786,#787),#834,.T.);
#873=ADVANCED_FACE('',(#788),#835,.F.);
#874=ADVANCED_FACE('',(#789),#836,.F.);
#875=ADVANCED_FACE('',(#790),#837,.T.);
#876=ADVANCED_FACE('',(#791),#838,.F.);
#877=ADVANCED_FACE('',(#792),#839,.T.);
#878=ADVANCED_FACE('',(#793),#840,.F.);
#879=ADVANCED_FACE('',(#794),#841,.T.);
#880=ADVANCED_FACE('',(#795,#796),#842,.T.);
#881=ADVANCED_FACE('',(#797),#843,.T.);
#882=ADVANCED_FACE('',(#798),#844,.T.);
#883=ADVANCED_FACE('',(#799),#845,.T.);
#884=ADVANCED_FACE('',(#800),#846,.T.);
#885=ADVANCED_FACE('',(#801),#847,.F.);
#886=ADVANCED_FACE('',(#802),#848,.T.);
#887=ADVANCED_FACE('',(#803),#849,.T.);
#888=ADVANCED_FACE('',(#804),#850,.F.);
#889=ADVANCED_FACE('',(#805),#851,.T.);
#890=ADVANCED_FACE('',(#806),#852,.T.);
#891=ADVANCED_FACE('',(#807),#853,.F.);
#892=ADVANCED_FACE('',(#808),#854,.F.);
#893=ADVANCED_FACE('',(#809),#855,.F.);
#894=ADVANCED_FACE('',(#810),#856,.T.);
#895=ADVANCED_FACE('',(#811),#857,.T.);
#896=ADVANCED_FACE('',(#812),#858,.T.);
#897=ADVANCED_FACE('',(#813),#859,.T.);
#898=ADVANCED_FACE('',(#814),#860,.T.);
#899=ADVANCED_FACE('',(#815),#861,.T.);
#900=ADVANCED_FACE('',(#816),#862,.T.);
#901=ADVANCED_FACE('',(#817),#863,.T.);
#902=ADVANCED_FACE('',(#818),#864,.T.);
#903=ADVANCED_FACE('',(#819),#865,.T.);
#904=ADVANCED_FACE('',(#820),#12,.F.);
#905=ADVANCED_FACE('',(#821),#866,.F.);
#906=ADVANCED_FACE('',(#822),#13,.F.);
#907=ADVANCED_FACE('',(#823),#867,.F.);
#908=ADVANCED_FACE('',(#824),#868,.T.);
#909=ADVANCED_FACE('',(#825),#14,.F.);
#910=ADVANCED_FACE('',(#826),#15,.F.);
#911=ADVANCED_FACE('',(#827),#16,.T.);
#912=ADVANCED_FACE('',(#828),#17,.T.);
#913=ADVANCED_FACE('',(#829),#18,.T.);
#914=ADVANCED_FACE('',(#830),#19,.T.);
#915=CLOSED_SHELL('',(#869,#870,#871,#872,#873,#874,#875,#876,#877,#878,
#879,#880,#881,#882,#883,#884,#885,#886,#887,#888,#889,#890,#891,#892,#893,
#894,#895,#896,#897,#898,#899,#900,#901,#902,#903,#904,#905,#906,#907,#908,
#909,#910,#911,#912,#913,#914));
#916=STYLED_ITEM('',(#917),#924);
#917=PRESENTATION_STYLE_ASSIGNMENT((#918));
#918=SURFACE_STYLE_USAGE(.BOTH.,#919);
#919=SURFACE_SIDE_STYLE('',(#920));
#920=SURFACE_STYLE_FILL_AREA(#921);
#921=FILL_AREA_STYLE('',(#922));
#922=FILL_AREA_STYLE_COLOUR('',#923);
#923=COLOUR_RGB('',0.615686274509804,0.811764705882353,0.929411764705882);
#924=MANIFOLD_SOLID_BREP('Part 1',#915);
#925=SHAPE_DEFINITION_REPRESENTATION(#1501,#926);
#926=SHAPE_REPRESENTATION('Part 1',(#927),#1496);
#927=AXIS2_PLACEMENT_3D('',#1233,#992,#993);
#928=AXIS2_PLACEMENT_3D('',#1234,#994,#995);
#929=AXIS2_PLACEMENT_3D('',#1243,#1000,#1001);
#930=AXIS2_PLACEMENT_3D('',#1272,#1016,#1017);
#931=AXIS2_PLACEMENT_3D('',#1273,#1018,#1019);
#932=AXIS2_PLACEMENT_3D('',#1277,#1021,#1022);
#933=AXIS2_PLACEMENT_3D('',#1281,#1024,#1025);
#934=AXIS2_PLACEMENT_3D('',#1285,#1027,#1028);
#935=AXIS2_PLACEMENT_3D('',#1303,#1038,#1039);
#936=AXIS2_PLACEMENT_3D('',#1304,#1040,#1041);
#937=AXIS2_PLACEMENT_3D('',#1309,#1043,#1044);
#938=AXIS2_PLACEMENT_3D('',#1313,#1046,#1047);
#939=AXIS2_PLACEMENT_3D('',#1317,#1049,#1050);
#940=AXIS2_PLACEMENT_3D('',#1328,#1056,#1057);
#941=AXIS2_PLACEMENT_3D('',#1337,#1062,#1063);
#942=AXIS2_PLACEMENT_3D('',#1346,#1068,#1069);
#943=AXIS2_PLACEMENT_3D('',#1355,#1074,#1075);
#944=AXIS2_PLACEMENT_3D('',#1356,#1076,#1077);
#945=AXIS2_PLACEMENT_3D('',#1357,#1078,#1079);
#946=AXIS2_PLACEMENT_3D('',#1358,#1080,#1081);
#947=AXIS2_PLACEMENT_3D('',#1359,#1082,#1083);
#948=AXIS2_PLACEMENT_3D('',#1360,#1084,#1085);
#949=AXIS2_PLACEMENT_3D('',#1366,#1089,#1090);
#950=AXIS2_PLACEMENT_3D('',#1368,#1092,#1093);
#951=AXIS2_PLACEMENT_3D('',#1378,#1100,#1101);
#952=AXIS2_PLACEMENT_3D('',#1379,#1102,#1103);
#953=AXIS2_PLACEMENT_3D('',#1380,#1104,#1105);
#954=AXIS2_PLACEMENT_3D('',#1381,#1106,#1107);
#955=AXIS2_PLACEMENT_3D('',#1382,#1108,#1109);
#956=AXIS2_PLACEMENT_3D('',#1383,#1110,#1111);
#957=AXIS2_PLACEMENT_3D('',#1387,#1114,#1115);
#958=AXIS2_PLACEMENT_3D('',#1395,#1120,#1121);
#959=AXIS2_PLACEMENT_3D('',#1401,#1125,#1126);
#960=AXIS2_PLACEMENT_3D('',#1407,#1130,#1131);
#961=AXIS2_PLACEMENT_3D('',#1410,#1134,#1135);
#962=AXIS2_PLACEMENT_3D('',#1411,#1136,#1137);
#963=AXIS2_PLACEMENT_3D('',#1415,#1140,#1141);
#964=AXIS2_PLACEMENT_3D('',#1419,#1143,#1144);
#965=AXIS2_PLACEMENT_3D('',#1429,#1150,#1151);
#966=AXIS2_PLACEMENT_3D('',#1430,#1152,#1153);
#967=AXIS2_PLACEMENT_3D('',#1432,#1155,#1156);
#968=AXIS2_PLACEMENT_3D('',#1433,#1157,#1158);
#969=AXIS2_PLACEMENT_3D('',#1442,#1163,#1164);
#970=AXIS2_PLACEMENT_3D('',#1449,#1169,#1170);
#971=AXIS2_PLACEMENT_3D('',#1453,#1173,#1174);
#972=AXIS2_PLACEMENT_3D('',#1457,#1177,#1178);
#973=AXIS2_PLACEMENT_3D('',#1463,#1182,#1183);
#974=AXIS2_PLACEMENT_3D('',#1466,#1186,#1187);
#975=AXIS2_PLACEMENT_3D('',#1467,#1188,#1189);
#976=AXIS2_PLACEMENT_3D('',#1470,#1192,#1193);
#977=AXIS2_PLACEMENT_3D('',#1471,#1194,#1195);
#978=AXIS2_PLACEMENT_3D('',#1473,#1197,#1198);
#979=AXIS2_PLACEMENT_3D('',#1474,#1199,#1200);
#980=AXIS2_PLACEMENT_3D('',#1475,#1201,#1202);
#981=AXIS2_PLACEMENT_3D('',#1478,#1205,#1206);
#982=AXIS2_PLACEMENT_3D('',#1480,#1208,#1209);
#983=AXIS2_PLACEMENT_3D('',#1482,#1211,#1212);
#984=AXIS2_PLACEMENT_3D('',#1484,#1214,#1215);
#985=AXIS2_PLACEMENT_3D('',#1486,#1217,#1218);
#986=AXIS2_PLACEMENT_3D('',#1489,#1221,#1222);
#987=AXIS2_PLACEMENT_3D('',#1490,#1223,#1224);
#988=AXIS2_PLACEMENT_3D('',#1491,#1225,#1226);
#989=AXIS2_PLACEMENT_3D('',#1492,#1227,#1228);
#990=AXIS2_PLACEMENT_3D('',#1493,#1229,#1230);
#991=AXIS2_PLACEMENT_3D('',#1494,#1231,#1232);
#992=DIRECTION('',(0.,0.,1.));
#993=DIRECTION('',(1.,0.,0.));
#994=DIRECTION('',(0.,0.,1.));
#995=DIRECTION('',(1.,0.,0.));
#996=DIRECTION('',(1.,-6.07077331925392E-17,0.));
#997=DIRECTION('',(0.,-1.,0.));
#998=DIRECTION('',(-1.,0.,0.));
#999=DIRECTION('',(0.,-1.,0.));
#1000=DIRECTION('',(0.,0.,1.));
#1001=DIRECTION('',(1.,0.,0.));
#1002=DIRECTION('',(1.,0.,0.));
#1003=DIRECTION('',(4.68061675808623E-15,-1.,0.));
#1004=DIRECTION('',(1.,0.,0.));
#1005=DIRECTION('',(0.,-1.,0.));
#1006=DIRECTION('',(1.,0.,0.));
#1007=DIRECTION('',(0.,-1.,0.));
#1008=DIRECTION('',(1.,0.,0.));
#1009=DIRECTION('',(1.67606132944619E-16,1.,0.));
#1010=DIRECTION('',(-1.,0.,0.));
#1011=DIRECTION('',(0.,-1.,0.));
#1012=DIRECTION('',(0.,1.,0.));
#1013=DIRECTION('',(-1.,0.,0.));
#1014=DIRECTION('',(3.35212265889238E-16,1.,0.));
#1015=DIRECTION('',(-1.,0.,0.));
#1016=DIRECTION('',(1.,0.,0.));
#1017=DIRECTION('',(0.,0.,-1.));
#1018=DIRECTION('',(1.,0.,0.));
#1019=DIRECTION('',(0.,0.,-1.));
#1020=DIRECTION('',(0.,0.,-1.));
#1021=DIRECTION('',(1.,0.,0.));
#1022=DIRECTION('',(0.,0.,-1.));
#1023=DIRECTION('',(0.,-1.,0.));
#1024=DIRECTION('',(1.,0.,0.));
#1025=DIRECTION('',(0.,0.,-1.));
#1026=DIRECTION('',(0.,0.,-1.));
#1027=DIRECTION('',(1.,0.,0.));
#1028=DIRECTION('',(0.,0.,-1.));
#1029=DIRECTION('',(0.,-1.,0.));
#1030=DIRECTION('',(0.,0.,-1.));
#1031=DIRECTION('',(0.,-1.,0.));
#1032=DIRECTION('',(0.,0.,-1.));
#1033=DIRECTION('',(0.,-1.,0.));
#1034=DIRECTION('',(0.,0.,-1.));
#1035=DIRECTION('',(0.,0.,-1.));
#1036=DIRECTION('',(0.,-1.,0.));
#1037=DIRECTION('',(0.,0.,-1.));
#1038=DIRECTION('',(1.,-6.07077331925392E-17,0.));
#1039=DIRECTION('',(6.07077331925392E-17,1.,0.));
#1040=DIRECTION('',(1.,-6.07077331925392E-17,0.));
#1041=DIRECTION('',(6.07077331925392E-17,1.,0.));
#1042=DIRECTION('',(-6.07077331925392E-17,-1.,0.));
#1043=DIRECTION('',(1.,-6.07077331925392E-17,0.));
#1044=DIRECTION('',(6.07077331925392E-17,1.,0.));
#1045=DIRECTION('',(0.,0.,-1.));
#1046=DIRECTION('',(1.,-6.07077331925392E-17,0.));
#1047=DIRECTION('',(6.07077331925392E-17,1.,0.));
#1048=DIRECTION('',(-6.07077331925392E-17,-1.,0.));
#1049=DIRECTION('',(1.,-6.07077331925392E-17,0.));
#1050=DIRECTION('',(6.07077331925392E-17,1.,0.));
#1051=DIRECTION('',(0.,0.,-1.));
#1052=DIRECTION('',(-6.07077331925392E-17,-1.,0.));
#1053=DIRECTION('',(0.,0.,-1.));
#1054=DIRECTION('',(-6.07077331925392E-17,-1.,0.));
#1055=DIRECTION('',(0.,0.,-1.));
#1056=DIRECTION('',(0.,-1.,0.));
#1057=DIRECTION('',(0.,0.,-1.));
#1058=DIRECTION('',(-1.,0.,0.));
#1059=DIRECTION('',(0.,0.,-1.));
#1060=DIRECTION('',(-1.,0.,0.));
#1061=DIRECTION('',(0.,0.,-1.));
#1062=DIRECTION('',(1.,-6.07077331925392E-17,0.));
#1063=DIRECTION('',(6.07077331925392E-17,1.,0.));
#1064=DIRECTION('',(-6.07077331925392E-17,-1.,0.));
#1065=DIRECTION('',(0.,0.,-1.));
#1066=DIRECTION('',(-6.07077331925392E-17,-1.,0.));
#1067=DIRECTION('',(0.,0.,-1.));
#1068=DIRECTION('',(0.,-1.,0.));
#1069=DIRECTION('',(0.,0.,-1.));
#1070=DIRECTION('',(-1.,0.,0.));
#1071=DIRECTION('',(0.,0.,-1.));
#1072=DIRECTION('',(-1.,0.,0.));
#1073=DIRECTION('',(0.,0.,-1.));
#1074=DIRECTION('',(0.,0.,1.));
#1075=DIRECTION('',(1.,0.,0.));
#1076=DIRECTION('',(0.,0.,1.));
#1077=DIRECTION('',(1.,0.,0.));
#1078=DIRECTION('',(0.,0.,1.));
#1079=DIRECTION('',(1.,0.,0.));
#1080=DIRECTION('',(0.,0.,1.));
#1081=DIRECTION('',(1.,0.,0.));
#1082=DIRECTION('',(0.,0.,1.));
#1083=DIRECTION('',(1.,0.,0.));
#1084=DIRECTION('',(1.,0.,0.));
#1085=DIRECTION('',(0.,0.,-1.));
#1086=DIRECTION('',(0.,0.,-1.));
#1087=DIRECTION('',(0.,-1.,0.));
#1088=DIRECTION('',(0.,0.,-1.));
#1089=DIRECTION('',(0.,1.,0.));
#1090=DIRECTION('',(0.,0.,1.));
#1091=DIRECTION('',(1.,0.,0.));
#1092=DIRECTION('',(0.,1.,0.));
#1093=DIRECTION('',(0.,0.,1.));
#1094=DIRECTION('',(1.,0.,0.));
#1095=DIRECTION('',(0.,0.,-1.));
#1096=DIRECTION('',(0.,0.,-1.));
#1097=DIRECTION('',(1.,0.,0.));
#1098=DIRECTION('',(0.,0.,-1.));
#1099=DIRECTION('',(1.,0.,0.));
#1100=DIRECTION('',(0.,0.,1.));
#1101=DIRECTION('',(1.,0.,0.));
#1102=DIRECTION('',(0.,0.,1.));
#1103=DIRECTION('',(1.,0.,0.));
#1104=DIRECTION('',(0.,0.,1.));
#1105=DIRECTION('',(1.,0.,0.));
#1106=DIRECTION('',(0.,0.,1.));
#1107=DIRECTION('',(1.,0.,0.));
#1108=DIRECTION('',(0.,0.,1.));
#1109=DIRECTION('',(1.,0.,0.));
#1110=DIRECTION('',(-1.,1.67606132944619E-16,0.));
#1111=DIRECTION('',(-1.67606132944619E-16,-1.,0.));
#1112=DIRECTION('',(1.67606132944619E-16,1.,0.));
#1113=DIRECTION('',(0.,0.,-1.));
#1114=DIRECTION('',(1.,0.,0.));
#1115=DIRECTION('',(0.,0.,-1.));
#1116=DIRECTION('',(0.,0.,-1.));
#1117=DIRECTION('',(0.,1.,0.));
#1118=DIRECTION('',(0.,0.,-1.));
#1119=DIRECTION('',(0.,-1.,0.));
#1120=DIRECTION('',(0.,1.,0.));
#1121=DIRECTION('',(0.,0.,1.));
#1122=DIRECTION('',(1.,0.,0.));
#1123=DIRECTION('',(0.,0.,-1.));
#1124=DIRECTION('',(1.,0.,0.));
#1125=DIRECTION('',(1.,0.,0.));
#1126=DIRECTION('',(0.,0.,-1.));
#1127=DIRECTION('',(0.,-1.,0.));
#1128=DIRECTION('',(0.,0.,-1.));
#1129=DIRECTION('',(0.,-1.,0.));
#1130=DIRECTION('',(0.,-1.,0.));
#1131=DIRECTION('',(0.,0.,-1.));
#1132=DIRECTION('',(-1.,0.,0.));
#1133=DIRECTION('',(1.,0.,0.));
#1134=DIRECTION('',(0.,0.,1.));
#1135=DIRECTION('',(1.,0.,0.));
#1136=DIRECTION('',(0.,1.,0.));
#1137=DIRECTION('',(0.,0.,1.));
#1138=DIRECTION('',(0.,0.,-1.));
#1139=DIRECTION('',(1.,0.,0.));
#1140=DIRECTION('',(1.,4.68061675808623E-15,0.));
#1141=DIRECTION('',(-4.68061675808623E-15,1.,0.));
#1142=DIRECTION('',(4.68061675808623E-15,-1.,0.));
#1143=DIRECTION('',(1.,4.68061675808623E-15,0.));
#1144=DIRECTION('',(-4.68061675808623E-15,1.,0.));
#1145=DIRECTION('',(0.,0.,-1.));
#1146=DIRECTION('',(4.68061675808623E-15,-1.,0.));
#1147=DIRECTION('',(0.,-1.,0.));
#1148=DIRECTION('',(0.,0.,-1.));
#1149=DIRECTION('',(0.,-1.,0.));
#1150=DIRECTION('',(1.,4.68061675808623E-15,0.));
#1151=DIRECTION('',(-4.68061675808623E-15,1.,0.));
#1152=DIRECTION('',(0.,-1.,0.));
#1153=DIRECTION('',(0.,0.,-1.));
#1154=DIRECTION('',(-1.,0.,0.));
#1155=DIRECTION('',(0.,0.,1.));
#1156=DIRECTION('',(1.,0.,0.));
#1157=DIRECTION('',(0.,1.,0.));
#1158=DIRECTION('',(0.,0.,1.));
#1159=DIRECTION('',(0.,0.,-1.));
#1160=DIRECTION('',(1.,0.,0.));
#1161=DIRECTION('',(0.,0.,-1.));
#1162=DIRECTION('',(1.,0.,0.));
#1163=DIRECTION('',(-1.,0.,0.));
#1164=DIRECTION('',(0.,0.,1.));
#1165=DIRECTION('',(0.,0.,-1.));
#1166=DIRECTION('',(0.,1.,0.));
#1167=DIRECTION('',(0.,-1.,0.));
#1168=DIRECTION('',(0.,0.,-1.));
#1169=DIRECTION('',(0.,-1.,0.));
#1170=DIRECTION('',(0.,0.,-1.));
#1171=DIRECTION('',(0.,0.,-1.));
#1172=DIRECTION('',(-1.,0.,0.));
#1173=DIRECTION('',(-1.,3.35212265889238E-16,0.));
#1174=DIRECTION('',(-3.35212265889238E-16,-1.,0.));
#1175=DIRECTION('',(0.,0.,-1.));
#1176=DIRECTION('',(3.35212265889238E-16,1.,0.));
#1177=DIRECTION('',(0.,-1.,0.));
#1178=DIRECTION('',(0.,0.,-1.));
#1179=DIRECTION('',(1.,0.,0.));
#1180=DIRECTION('',(0.,0.,-1.));
#1181=DIRECTION('',(-1.,0.,0.));
#1182=DIRECTION('',(1.,0.,0.));
#1183=DIRECTION('',(0.,0.,-1.));
#1184=DIRECTION('',(0.,-1.,0.));
#1185=DIRECTION('',(0.,-1.,0.));
#1186=DIRECTION('',(0.,0.,1.));
#1187=DIRECTION('',(1.,0.,0.));
#1188=DIRECTION('',(0.,1.,0.));
#1189=DIRECTION('',(0.,0.,1.));
#1190=DIRECTION('',(1.,0.,0.));
#1191=DIRECTION('',(1.,0.,0.));
#1192=DIRECTION('',(0.,0.,1.));
#1193=DIRECTION('',(1.,0.,0.));
#1194=DIRECTION('',(0.,0.,1.));
#1195=DIRECTION('',(1.,0.,0.));
#1196=DIRECTION('',(1.,-6.07077331925392E-17,0.));
#1197=DIRECTION('',(0.,0.,1.));
#1198=DIRECTION('',(1.,0.,0.));
#1199=DIRECTION('',(0.,0.,1.));
#1200=DIRECTION('',(1.,0.,0.));
#1201=DIRECTION('',(-6.07077331925392E-17,-1.,0.));
#1202=DIRECTION('',(1.,-6.07077331925392E-17,0.));
#1203=DIRECTION('',(1.,-6.07077331925392E-17,0.));
#1204=DIRECTION('',(1.,-6.07077331925392E-17,0.));
#1205=DIRECTION('',(1.,-6.07077331925392E-17,0.));
#1206=DIRECTION('',(6.07077331925392E-17,1.,0.));
#1207=DIRECTION('',(1.,-6.07077331925392E-17,0.));
#1208=DIRECTION('',(0.,0.,1.));
#1209=DIRECTION('',(1.,0.,0.));
#1210=DIRECTION('',(1.,-6.07077331925392E-17,0.));
#1211=DIRECTION('',(1.,-6.07077331925392E-17,0.));
#1212=DIRECTION('',(6.07077331925392E-17,1.,0.));
#1213=DIRECTION('',(1.,-6.07077331925392E-17,0.));
#1214=DIRECTION('',(-6.07077331925392E-17,-1.,0.));
#1215=DIRECTION('',(1.,-6.07077331925392E-17,0.));
#1216=DIRECTION('',(1.,-6.07077331925392E-17,0.));
#1217=DIRECTION('',(0.,0.,1.));
#1218=DIRECTION('',(1.,0.,0.));
#1219=DIRECTION('',(1.,-6.07077331925392E-17,0.));
#1220=DIRECTION('',(1.,-6.07077331925392E-17,0.));
#1221=DIRECTION('',(1.,-6.07077331925392E-17,0.));
#1222=DIRECTION('',(6.07077331925392E-17,1.,0.));
#1223=DIRECTION('',(1.,-6.07077331925392E-17,0.));
#1224=DIRECTION('',(6.07077331925392E-17,1.,0.));
#1225=DIRECTION('',(0.,0.,1.));
#1226=DIRECTION('',(1.,0.,0.));
#1227=DIRECTION('',(0.,0.,-1.));
#1228=DIRECTION('',(-1.,0.,0.));
#1229=DIRECTION('',(0.,0.,1.));
#1230=DIRECTION('',(1.,0.,0.));
#1231=DIRECTION('',(0.,0.,-1.));
#1232=DIRECTION('',(-1.,0.,0.));
#1233=CARTESIAN_POINT('',(0.,0.,0.));
#1234=CARTESIAN_POINT('',(0.,0.,0.025));
#1235=CARTESIAN_POINT('',(0.03445,-0.0309449237152958,0.025));
#1236=CARTESIAN_POINT('',(0.04145,-0.0309449237152958,0.025));
#1237=CARTESIAN_POINT('',(0.03637,-0.0309449237152958,0.025));
#1238=CARTESIAN_POINT('',(0.04145,0.,0.025));
#1239=CARTESIAN_POINT('',(0.04145,-0.0251425257316422,0.025));
#1240=CARTESIAN_POINT('',(0.03891,-0.0251425257316422,0.025));
#1241=CARTESIAN_POINT('',(0.03637,-0.0251425257316422,0.025));
#1242=CARTESIAN_POINT('',(0.03637,-0.0253837628658211,0.025));
#1243=CARTESIAN_POINT('',(0.,0.,0.003));
#1244=CARTESIAN_POINT('',(-6.93889390390723E-18,-0.05415,0.003));
#1245=CARTESIAN_POINT('',(0.0102,-0.05415,0.003));
#1246=CARTESIAN_POINT('',(0.03637,-0.05415,0.003));
#1247=CARTESIAN_POINT('',(0.03637,-0.0238837628658211,0.003));
#1248=CARTESIAN_POINT('',(0.03637,-0.0231425257316422,0.003));
#1249=CARTESIAN_POINT('',(0.03891,-0.0231425257316422,0.003));
#1250=CARTESIAN_POINT('',(0.04145,-0.0231425257316422,0.003));
#1251=CARTESIAN_POINT('',(0.04145,0.,0.003));
#1252=CARTESIAN_POINT('',(0.04145,0.05415,0.003));
#1253=CARTESIAN_POINT('',(0.,0.05415,0.003));
#1254=CARTESIAN_POINT('',(-0.04145,0.05415,0.003));
#1255=CARTESIAN_POINT('',(-0.04145,6.93889390390723E-18,0.003));
#1256=CARTESIAN_POINT('',(-0.04145,-0.05415,0.003));
#1257=CARTESIAN_POINT('',(-6.93889390390723E-18,-0.05415,0.003));
#1258=CARTESIAN_POINT('',(0.005025,-0.05415,0.003));
#1259=CARTESIAN_POINT('',(0.005025,-0.0515625,0.003));
#1260=CARTESIAN_POINT('',(0.005025,-0.048975,0.003));
#1261=CARTESIAN_POINT('',(0.006025,-0.048975,0.003));
#1262=CARTESIAN_POINT('',(0.0102,-0.048975,0.003));
#1263=CARTESIAN_POINT('',(0.0102,-0.05315,0.003));
#1264=CARTESIAN_POINT('',(0.0102,-0.025625,0.003));
#1265=CARTESIAN_POINT('',(0.0102,-0.0298,0.003));
#1266=CARTESIAN_POINT('',(0.0102,-0.024625,0.003));
#1267=CARTESIAN_POINT('',(0.006025,-0.0298,0.003));
#1268=CARTESIAN_POINT('',(0.005025,-0.0298,0.003));
#1269=CARTESIAN_POINT('',(0.005025,-0.0272125,0.003));
#1270=CARTESIAN_POINT('',(0.005025,-0.024625,0.003));
#1271=CARTESIAN_POINT('',(0.0076125,-0.024625,0.003));
#1272=CARTESIAN_POINT('',(0.04145,0.,0.038));
#1273=CARTESIAN_POINT('',(0.04145,-0.034891263,0.0271625));
#1274=CARTESIAN_POINT('',(0.04145,-0.030391263,0.0271625));
#1275=CARTESIAN_POINT('',(0.04145,-0.030391263,0.038));
#1276=CARTESIAN_POINT('',(0.04145,-0.030391263,0.0276875));
#1277=CARTESIAN_POINT('',(0.04145,-0.034891263,0.0276875));
#1278=CARTESIAN_POINT('',(0.04145,-0.034891263,0.0321875));
#1279=CARTESIAN_POINT('',(0.04145,0.,0.0321875));
#1280=CARTESIAN_POINT('',(0.04145,-0.042401263,0.0321875));
#1281=CARTESIAN_POINT('',(0.04145,-0.042401263,0.0276875));
#1282=CARTESIAN_POINT('',(0.04145,-0.046901263,0.0276875));
#1283=CARTESIAN_POINT('',(0.04145,-0.046901263,0.038));
#1284=CARTESIAN_POINT('',(0.04145,-0.046901263,0.0271625));
#1285=CARTESIAN_POINT('',(0.04145,-0.042401263,0.0271625));
#1286=CARTESIAN_POINT('',(0.04145,-0.0463476022847043,0.025));
#1287=CARTESIAN_POINT('',(0.04145,0.,0.025));
#1288=CARTESIAN_POINT('',(0.04145,-0.05215,0.025));
#1289=CARTESIAN_POINT('',(0.04145,-0.05215,0.028));
#1290=CARTESIAN_POINT('',(0.04145,-0.05215,0.028));
#1291=CARTESIAN_POINT('',(0.04145,0.,0.028));
#1292=CARTESIAN_POINT('',(0.04145,-0.05415,0.028));
#1293=CARTESIAN_POINT('',(0.04145,-0.05415,0.038));
#1294=CARTESIAN_POINT('',(0.04145,-0.05415,0.038));
#1295=CARTESIAN_POINT('',(0.04145,0.,0.038));
#1296=CARTESIAN_POINT('',(0.04145,0.05415,0.038));
#1297=CARTESIAN_POINT('',(0.04145,0.05415,0.038));
#1298=CARTESIAN_POINT('',(0.04145,-0.0231425257316422,0.028));
#1299=CARTESIAN_POINT('',(0.04145,-0.0231425257316422,0.028));
#1300=CARTESIAN_POINT('',(0.04145,0.,0.028));
#1301=CARTESIAN_POINT('',(0.04145,-0.0251425257316422,0.028));
#1302=CARTESIAN_POINT('',(0.04145,-0.0251425257316422,0.028));
#1303=CARTESIAN_POINT('',(0.04445,0.,0.003));
#1304=CARTESIAN_POINT('',(0.04445,-0.034891263,0.0271625));
#1305=CARTESIAN_POINT('',(0.04445,-0.034891263,0.0226625));
#1306=CARTESIAN_POINT('',(0.04445,-0.030391263,0.0271625));
#1307=CARTESIAN_POINT('',(0.04445,-0.040523763,0.0226625));
#1308=CARTESIAN_POINT('',(0.04445,-0.042401263,0.0226625));
#1309=CARTESIAN_POINT('',(0.04445,-0.042401263,0.0271625));
#1310=CARTESIAN_POINT('',(0.04445,-0.046901263,0.0271625));
#1311=CARTESIAN_POINT('',(0.04445,-0.046901263,0.027425));
#1312=CARTESIAN_POINT('',(0.04445,-0.046901263,0.0276875));
#1313=CARTESIAN_POINT('',(0.04445,-0.042401263,0.0276875));
#1314=CARTESIAN_POINT('',(0.04445,-0.042401263,0.0321875));
#1315=CARTESIAN_POINT('',(0.04445,-0.040523763,0.0321875));
#1316=CARTESIAN_POINT('',(0.04445,-0.034891263,0.0321875));
#1317=CARTESIAN_POINT('',(0.04445,-0.034891263,0.0276875));
#1318=CARTESIAN_POINT('',(0.04445,-0.030391263,0.0276875));
#1319=CARTESIAN_POINT('',(0.04445,-0.030391263,0.027425));
#1320=CARTESIAN_POINT('',(0.04445,0.,0.));
#1321=CARTESIAN_POINT('',(0.04445,0.04953,0.));
#1322=CARTESIAN_POINT('',(0.04445,-0.04953,0.));
#1323=CARTESIAN_POINT('',(0.04445,0.04953,0.038));
#1324=CARTESIAN_POINT('',(0.04445,0.04953,0.038));
#1325=CARTESIAN_POINT('',(0.04445,0.,0.038));
#1326=CARTESIAN_POINT('',(0.04445,-0.04953,0.038));
#1327=CARTESIAN_POINT('',(0.04445,-0.04953,0.003));
#1328=CARTESIAN_POINT('',(0.,0.05715,0.003));
#1329=CARTESIAN_POINT('',(0.,0.05715,0.038));
#1330=CARTESIAN_POINT('',(0.03683,0.05715,0.038));
#1331=CARTESIAN_POINT('',(-0.03683,0.05715,0.038));
#1332=CARTESIAN_POINT('',(0.03683,0.05715,0.));
#1333=CARTESIAN_POINT('',(0.03683,0.05715,0.));
#1334=CARTESIAN_POINT('',(0.,0.05715,0.));
#1335=CARTESIAN_POINT('',(-0.03683,0.05715,0.));
#1336=CARTESIAN_POINT('',(-0.03683,0.05715,0.003));
#1337=CARTESIAN_POINT('',(-0.04445,0.,0.003));
#1338=CARTESIAN_POINT('',(-0.04445,0.,0.038));
#1339=CARTESIAN_POINT('',(-0.04445,0.04953,0.038));
#1340=CARTESIAN_POINT('',(-0.04445,-0.04953,0.038));
#1341=CARTESIAN_POINT('',(-0.04445,0.04953,0.003));
#1342=CARTESIAN_POINT('',(-0.04445,0.04953,0.));
#1343=CARTESIAN_POINT('',(-0.04445,0.,0.));
#1344=CARTESIAN_POINT('',(-0.04445,-0.04953,0.));
#1345=CARTESIAN_POINT('',(-0.04445,-0.04953,0.038));
#1346=CARTESIAN_POINT('',(-6.93889390390723E-18,-0.05715,0.003));
#1347=CARTESIAN_POINT('',(-6.93889390390723E-18,-0.05715,0.038));
#1348=CARTESIAN_POINT('',(0.03683,-0.05715,0.038));
#1349=CARTESIAN_POINT('',(-0.03683,-0.05715,0.038));
#1350=CARTESIAN_POINT('',(-0.03683,-0.05715,0.));
#1351=CARTESIAN_POINT('',(-0.03683,-0.05715,0.));
#1352=CARTESIAN_POINT('',(-6.93889390390723E-18,-0.05715,0.));
#1353=CARTESIAN_POINT('',(0.03683,-0.05715,0.));
#1354=CARTESIAN_POINT('',(0.03683,-0.05715,0.003));
#1355=CARTESIAN_POINT('',(0.,0.,0.));
#1356=CARTESIAN_POINT('',(0.03683,0.04953,0.));
#1357=CARTESIAN_POINT('',(0.03683,-0.04953,0.));
#1358=CARTESIAN_POINT('',(-0.03683,-0.04953,0.));
#1359=CARTESIAN_POINT('',(-0.03683,0.04953,0.));
#1360=CARTESIAN_POINT('',(-0.04145,6.93889390390723E-18,0.038));
#1361=CARTESIAN_POINT('',(-0.04145,0.05415,0.038));
#1362=CARTESIAN_POINT('',(-0.04145,0.05415,0.038));
#1363=CARTESIAN_POINT('',(-0.04145,6.93889390390723E-18,0.038));
#1364=CARTESIAN_POINT('',(-0.04145,-0.05415,0.038));
#1365=CARTESIAN_POINT('',(-0.04145,-0.05415,0.038));
#1366=CARTESIAN_POINT('',(0.,0.05415,0.038));
#1367=CARTESIAN_POINT('',(0.,0.05415,0.038));
#1368=CARTESIAN_POINT('',(-6.93889390390723E-18,-0.05415,0.038));
#1369=CARTESIAN_POINT('',(-6.93889390390723E-18,-0.05415,0.028));
#1370=CARTESIAN_POINT('',(0.03637,-0.05415,0.028));
#1371=CARTESIAN_POINT('',(0.03637,-0.05415,0.028));
#1372=CARTESIAN_POINT('',(0.0102,-0.05415,0.028));
#1373=CARTESIAN_POINT('',(0.0102,-0.05415,0.028));
#1374=CARTESIAN_POINT('',(-6.93889390390723E-18,-0.05415,0.028));
#1375=CARTESIAN_POINT('',(0.005025,-0.05415,0.028));
#1376=CARTESIAN_POINT('',(0.005025,-0.05415,0.028));
#1377=CARTESIAN_POINT('',(-6.93889390390723E-18,-0.05415,0.038));
#1378=CARTESIAN_POINT('',(0.,0.,0.038));
#1379=CARTESIAN_POINT('',(0.03683,0.04953,0.038));
#1380=CARTESIAN_POINT('',(-0.03683,0.04953,0.038));
#1381=CARTESIAN_POINT('',(-0.03683,-0.04953,0.038));
#1382=CARTESIAN_POINT('',(0.03683,-0.04953,0.038));
#1383=CARTESIAN_POINT('',(0.005025,-0.0515625,0.028));
#1384=CARTESIAN_POINT('',(0.005025,-0.0515625,0.028));
#1385=CARTESIAN_POINT('',(0.005025,-0.048975,0.028));
#1386=CARTESIAN_POINT('',(0.005025,-0.048975,0.028));
#1387=CARTESIAN_POINT('',(0.0102,-0.05315,0.028));
#1388=CARTESIAN_POINT('',(0.0102,-0.048975,0.025));
#1389=CARTESIAN_POINT('',(0.0102,-0.048975,0.025));
#1390=CARTESIAN_POINT('',(0.0102,-0.0505625,0.025));
#1391=CARTESIAN_POINT('',(0.0102,-0.05215,0.025));
#1392=CARTESIAN_POINT('',(0.0102,-0.05215,0.028));
#1393=CARTESIAN_POINT('',(0.0102,-0.05215,0.028));
#1394=CARTESIAN_POINT('',(0.0102,-0.05315,0.028));
#1395=CARTESIAN_POINT('',(0.0086125,-0.05215,0.028));
#1396=CARTESIAN_POINT('',(0.0086125,-0.05215,0.025));
#1397=CARTESIAN_POINT('',(0.007025,-0.05215,0.025));
#1398=CARTESIAN_POINT('',(0.007025,-0.05215,0.028));
#1399=CARTESIAN_POINT('',(0.007025,-0.05215,0.028));
#1400=CARTESIAN_POINT('',(0.0086125,-0.05215,0.028));
#1401=CARTESIAN_POINT('',(0.007025,-0.0505625,0.028));
#1402=CARTESIAN_POINT('',(0.007025,-0.0505625,0.025));
#1403=CARTESIAN_POINT('',(0.007025,-0.048975,0.025));
#1404=CARTESIAN_POINT('',(0.007025,-0.048975,0.028));
#1405=CARTESIAN_POINT('',(0.007025,-0.048975,0.028));
#1406=CARTESIAN_POINT('',(0.007025,-0.0505625,0.028));
#1407=CARTESIAN_POINT('',(0.006025,-0.048975,0.028));
#1408=CARTESIAN_POINT('',(0.006025,-0.048975,0.028));
#1409=CARTESIAN_POINT('',(0.0086125,-0.048975,0.025));
#1410=CARTESIAN_POINT('',(0.,0.,0.028));
#1411=CARTESIAN_POINT('',(0.03891,-0.0231425257316422,0.028));
#1412=CARTESIAN_POINT('',(0.03637,-0.0231425257316422,0.028));
#1413=CARTESIAN_POINT('',(0.03637,-0.0231425257316422,0.028));
#1414=CARTESIAN_POINT('',(0.03891,-0.0231425257316422,0.028));
#1415=CARTESIAN_POINT('',(0.03637,-0.0238837628658211,0.028));
#1416=CARTESIAN_POINT('',(0.03637,-0.0238837628658211,0.0226625));
#1417=CARTESIAN_POINT('',(0.03637,-0.034891263,0.0226625));
#1418=CARTESIAN_POINT('',(0.03637,-0.042401263,0.0226625));
#1419=CARTESIAN_POINT('',(0.03637,-0.034891263,0.0271625));
#1420=CARTESIAN_POINT('',(0.03637,-0.0251425257316422,0.028));
#1421=CARTESIAN_POINT('',(0.03637,-0.0251425257316422,0.028));
#1422=CARTESIAN_POINT('',(0.03637,-0.0238837628658211,0.028));
#1423=CARTESIAN_POINT('',(0.03637,-0.05315,0.028));
#1424=CARTESIAN_POINT('',(0.03637,-0.05215,0.028));
#1425=CARTESIAN_POINT('',(0.03637,-0.05215,0.028));
#1426=CARTESIAN_POINT('',(0.03637,-0.05215,0.025));
#1427=CARTESIAN_POINT('',(0.03637,-0.0253837628658211,0.025));
#1428=CARTESIAN_POINT('',(0.03637,-0.0463476022847043,0.025));
#1429=CARTESIAN_POINT('',(0.03637,-0.042401263,0.0271625));
#1430=CARTESIAN_POINT('',(0.03891,-0.0251425257316422,0.028));
#1431=CARTESIAN_POINT('',(0.03891,-0.0251425257316422,0.028));
#1432=CARTESIAN_POINT('',(0.,0.,0.028));
#1433=CARTESIAN_POINT('',(0.0086125,-0.026625,0.028));
#1434=CARTESIAN_POINT('',(0.007025,-0.026625,0.028));
#1435=CARTESIAN_POINT('',(0.007025,-0.026625,0.028));
#1436=CARTESIAN_POINT('',(0.007025,-0.026625,0.025));
#1437=CARTESIAN_POINT('',(0.0086125,-0.026625,0.025));
#1438=CARTESIAN_POINT('',(0.0102,-0.026625,0.025));
#1439=CARTESIAN_POINT('',(0.0102,-0.026625,0.028));
#1440=CARTESIAN_POINT('',(0.0102,-0.026625,0.028));
#1441=CARTESIAN_POINT('',(0.0086125,-0.026625,0.028));
#1442=CARTESIAN_POINT('',(0.0102,-0.025625,0.028));
#1443=CARTESIAN_POINT('',(0.0102,-0.024625,0.028));
#1444=CARTESIAN_POINT('',(0.0102,-0.024625,0.028));
#1445=CARTESIAN_POINT('',(0.0102,-0.025625,0.028));
#1446=CARTESIAN_POINT('',(0.0102,-0.0282125,0.025));
#1447=CARTESIAN_POINT('',(0.0102,-0.0298,0.025));
#1448=CARTESIAN_POINT('',(0.0102,-0.0298,0.025));
#1449=CARTESIAN_POINT('',(0.0076125,-0.024625,0.028));
#1450=CARTESIAN_POINT('',(0.005025,-0.024625,0.028));
#1451=CARTESIAN_POINT('',(0.005025,-0.024625,0.028));
#1452=CARTESIAN_POINT('',(0.0076125,-0.024625,0.028));
#1453=CARTESIAN_POINT('',(0.005025,-0.0272125,0.028));
#1454=CARTESIAN_POINT('',(0.005025,-0.0298,0.028));
#1455=CARTESIAN_POINT('',(0.005025,-0.0298,0.028));
#1456=CARTESIAN_POINT('',(0.005025,-0.0272125,0.028));
#1457=CARTESIAN_POINT('',(0.006025,-0.0298,0.028));
#1458=CARTESIAN_POINT('',(0.0086125,-0.0298,0.025));
#1459=CARTESIAN_POINT('',(0.007025,-0.0298,0.025));
#1460=CARTESIAN_POINT('',(0.007025,-0.0298,0.028));
#1461=CARTESIAN_POINT('',(0.007025,-0.0298,0.028));
#1462=CARTESIAN_POINT('',(0.006025,-0.0298,0.028));
#1463=CARTESIAN_POINT('',(0.007025,-0.0282125,0.028));
#1464=CARTESIAN_POINT('',(0.007025,-0.0282125,0.025));
#1465=CARTESIAN_POINT('',(0.007025,-0.0282125,0.028));
#1466=CARTESIAN_POINT('',(0.,0.,0.028));
#1467=CARTESIAN_POINT('',(0.03891,-0.05215,0.028));
#1468=CARTESIAN_POINT('',(0.03891,-0.05215,0.025));
#1469=CARTESIAN_POINT('',(0.03891,-0.05215,0.028));
#1470=CARTESIAN_POINT('',(0.,0.,0.028));
#1471=CARTESIAN_POINT('',(0.,0.,0.025));
#1472=CARTESIAN_POINT('',(0.03445,-0.0463476022847043,0.025));
#1473=CARTESIAN_POINT('',(0.,0.,0.025));
#1474=CARTESIAN_POINT('',(0.,0.,0.025));
#1475=CARTESIAN_POINT('',(0.03445,-0.030391263,0.027425));
#1476=CARTESIAN_POINT('',(0.03445,-0.030391263,0.0271625));
#1477=CARTESIAN_POINT('',(0.03445,-0.030391263,0.0276875));
#1478=CARTESIAN_POINT('',(0.03445,-0.034891263,0.0276875));
#1479=CARTESIAN_POINT('',(0.03445,-0.034891263,0.0321875));
#1480=CARTESIAN_POINT('',(0.03445,-0.040523763,0.0321875));
#1481=CARTESIAN_POINT('',(0.03445,-0.042401263,0.0321875));
#1482=CARTESIAN_POINT('',(0.03445,-0.042401263,0.0276875));
#1483=CARTESIAN_POINT('',(0.03445,-0.046901263,0.0276875));
#1484=CARTESIAN_POINT('',(0.03445,-0.046901263,0.027425));
#1485=CARTESIAN_POINT('',(0.03445,-0.046901263,0.0271625));
#1486=CARTESIAN_POINT('',(0.03445,-0.040523763,0.0226625));
#1487=CARTESIAN_POINT('',(0.03445,-0.042401263,0.0226625));
#1488=CARTESIAN_POINT('',(0.03445,-0.034891263,0.0226625));
#1489=CARTESIAN_POINT('',(0.03445,-0.034891263,0.0271625));
#1490=CARTESIAN_POINT('',(0.03445,-0.042401263,0.0271625));
#1491=CARTESIAN_POINT('',(0.03683,0.04953,0.003));
#1492=CARTESIAN_POINT('',(-0.03683,0.04953,0.003));
#1493=CARTESIAN_POINT('',(-0.03683,-0.04953,0.003));
#1494=CARTESIAN_POINT('',(0.03683,-0.04953,0.003));
#1495=MECHANICAL_DESIGN_GEOMETRIC_PRESENTATION_REPRESENTATION('',(#916),
#1496);
#1496=(
GEOMETRIC_REPRESENTATION_CONTEXT(3)
GLOBAL_UNCERTAINTY_ASSIGNED_CONTEXT((#1497))
GLOBAL_UNIT_ASSIGNED_CONTEXT((#1500,#1499,#1498))
REPRESENTATION_CONTEXT('Part 1','TOP_LEVEL_ASSEMBLY_PART')
);
#1497=UNCERTAINTY_MEASURE_WITH_UNIT(LENGTH_MEASURE(1.E-8),#1500,
'DISTANCE_ACCURACY_VALUE','Maximum Tolerance applied to model');
#1498=(
NAMED_UNIT(*)
SI_UNIT($,.STERADIAN.)
SOLID_ANGLE_UNIT()
);
#1499=(
NAMED_UNIT(*)
PLANE_ANGLE_UNIT()
SI_UNIT($,.RADIAN.)
);
#1500=(
LENGTH_UNIT()
NAMED_UNIT(*)
SI_UNIT($,.METRE.)
);
#1501=PRODUCT_DEFINITION_SHAPE('','',#1502);
#1502=PRODUCT_DEFINITION('','',#1504,#1503);
#1503=PRODUCT_DEFINITION_CONTEXT('',#1510,'design');
#1504=PRODUCT_DEFINITION_FORMATION_WITH_SPECIFIED_SOURCE('','',#1506,
 .NOT_KNOWN.);
#1505=PRODUCT_RELATED_PRODUCT_CATEGORY('','',(#1506));
#1506=PRODUCT('Part 1','Part 1','Part 1',(#1508));
#1507=PRODUCT_CATEGORY('','');
#1508=PRODUCT_CONTEXT('',#1510,'mechanical');
#1509=APPLICATION_PROTOCOL_DEFINITION('international standard',
'ap242_managed_model_based_3d_engineering',2020,#1510);
#1510=APPLICATION_CONTEXT('managed model based 3d engineering');
ENDSEC;
END-ISO-10303-21;
