ISO-10303-21;
HEADER;
/* Generated by software containing ST-Developer
 * from STEP Tools, Inc. (www.steptools.com) 
 */
/* OPTION: using custom renumber hook */

FILE_DESCRIPTION(
/* description */ ('STEP AP242 Edition 2',
'CAx-IF Rec.Pracs.---Representation and Presentation of Product Manufa
cturing Information (PMI)---4.0---2014-10-13',
'CAx-IF Rec.Pracs.---3D Tessellated Geometry---0.4---2014-09-14','2;1',
'CAx-IF Rec.Pracs.---User Defined Attributes---1.5---2016-08-15'),
/* implementation_level */ '2;1');

FILE_NAME(
/* name */ 'Alarm Clock Lid v5',
/* time_stamp */ '2026-08-13T00:18:24Z',
/* author */ (''),
/* organization */ (''),
/* preprocessor_version */ 'ST-DEVELOPER v20',
/* originating_system */ 'ONSHAPE BY PTC INC, 1.219',
/* authorisation */ '  ');

FILE_SCHEMA (('AP242_MANAGED_MODEL_BASED_3D_ENGINEERING_MIM_LF { 1 0 10303 442 3 1 4 }'));
ENDSEC;

DATA;
#10=SHAPE_REPRESENTATION_RELATIONSHIP('','',#1451,#11);
#11=ADVANCED_BREP_SHAPE_REPRESENTATION('',(#1449),#2316);
#12=CYLINDRICAL_SURFACE('',#1512,0.00125);
#13=CYLINDRICAL_SURFACE('',#1513,0.00125);
#14=CYLINDRICAL_SURFACE('',#1515,0.007);
#15=CYLINDRICAL_SURFACE('',#1523,0.0061);
#16=CYLINDRICAL_SURFACE('',#1527,0.0045);
#17=CYLINDRICAL_SURFACE('',#1531,0.0045);
#18=CYLINDRICAL_SURFACE('',#1538,0.00762);
#19=CYLINDRICAL_SURFACE('',#1539,0.00762);
#20=CYLINDRICAL_SURFACE('',#1540,0.00762);
#21=CYLINDRICAL_SURFACE('',#1541,0.00762);
#22=LINE('',#1919,#195);
#23=LINE('',#1922,#196);
#24=LINE('',#1924,#197);
#25=LINE('',#1926,#198);
#26=LINE('',#1928,#199);
#27=LINE('',#1930,#200);
#28=LINE('',#1932,#201);
#29=LINE('',#1934,#202);
#30=LINE('',#1936,#203);
#31=LINE('',#1938,#204);
#32=LINE('',#1940,#205);
#33=LINE('',#1943,#206);
#34=LINE('',#1945,#207);
#35=LINE('',#1947,#208);
#36=LINE('',#1949,#209);
#37=LINE('',#1952,#210);
#38=LINE('',#1954,#211);
#39=LINE('',#1956,#212);
#40=LINE('',#1958,#213);
#41=LINE('',#1960,#214);
#42=LINE('',#1962,#215);
#43=LINE('',#1964,#216);
#44=LINE('',#1966,#217);
#45=LINE('',#1968,#218);
#46=LINE('',#1970,#219);
#47=LINE('',#1972,#220);
#48=LINE('',#1974,#221);
#49=LINE('',#1976,#222);
#50=LINE('',#1978,#223);
#51=LINE('',#1980,#224);
#52=LINE('',#1982,#225);
#53=LINE('',#1983,#226);
#54=LINE('',#1985,#227);
#55=LINE('',#1988,#228);
#56=LINE('',#1990,#229);
#57=LINE('',#1992,#230);
#58=LINE('',#1994,#231);
#59=LINE('',#1996,#232);
#60=LINE('',#1997,#233);
#61=LINE('',#1999,#234);
#62=LINE('',#2001,#235);
#63=LINE('',#2003,#236);
#64=LINE('',#2004,#237);
#65=LINE('',#2006,#238);
#66=LINE('',#2008,#239);
#67=LINE('',#2011,#240);
#68=LINE('',#2013,#241);
#69=LINE('',#2015,#242);
#70=LINE('',#2017,#243);
#71=LINE('',#2019,#244);
#72=LINE('',#2021,#245);
#73=LINE('',#2023,#246);
#74=LINE('',#2025,#247);
#75=LINE('',#2027,#248);
#76=LINE('',#2029,#249);
#77=LINE('',#2030,#250);
#78=LINE('',#2032,#251);
#79=LINE('',#2035,#252);
#80=LINE('',#2037,#253);
#81=LINE('',#2039,#254);
#82=LINE('',#2041,#255);
#83=LINE('',#2043,#256);
#84=LINE('',#2045,#257);
#85=LINE('',#2047,#258);
#86=LINE('',#2049,#259);
#87=LINE('',#2051,#260);
#88=LINE('',#2053,#261);
#89=LINE('',#2054,#262);
#90=LINE('',#2056,#263);
#91=LINE('',#2059,#264);
#92=LINE('',#2061,#265);
#93=LINE('',#2063,#266);
#94=LINE('',#2065,#267);
#95=LINE('',#2067,#268);
#96=LINE('',#2069,#269);
#97=LINE('',#2071,#270);
#98=LINE('',#2073,#271);
#99=LINE('',#2075,#272);
#100=LINE('',#2077,#273);
#101=LINE('',#2078,#274);
#102=LINE('',#2080,#275);
#103=LINE('',#2083,#276);
#104=LINE('',#2085,#277);
#105=LINE('',#2087,#278);
#106=LINE('',#2089,#279);
#107=LINE('',#2091,#280);
#108=LINE('',#2093,#281);
#109=LINE('',#2095,#282);
#110=LINE('',#2097,#283);
#111=LINE('',#2099,#284);
#112=LINE('',#2101,#285);
#113=LINE('',#2102,#286);
#114=LINE('',#2104,#287);
#115=LINE('',#2107,#288);
#116=LINE('',#2109,#289);
#117=LINE('',#2111,#290);
#118=LINE('',#2113,#291);
#119=LINE('',#2115,#292);
#120=LINE('',#2117,#293);
#121=LINE('',#2119,#294);
#122=LINE('',#2121,#295);
#123=LINE('',#2123,#296);
#124=LINE('',#2125,#297);
#125=LINE('',#2126,#298);
#126=LINE('',#2128,#299);
#127=LINE('',#2133,#300);
#128=LINE('',#2138,#301);
#129=LINE('',#2142,#302);
#130=LINE('',#2146,#303);
#131=LINE('',#2152,#304);
#132=LINE('',#2157,#305);
#133=LINE('',#2161,#306);
#134=LINE('',#2165,#307);
#135=LINE('',#2168,#308);
#136=LINE('',#2171,#309);
#137=LINE('',#2173,#310);
#138=LINE('',#2175,#311);
#139=LINE('',#2177,#312);
#140=LINE('',#2178,#313);
#141=LINE('',#2180,#314);
#142=LINE('',#2181,#315);
#143=LINE('',#2183,#316);
#144=LINE('',#2184,#317);
#145=LINE('',#2186,#318);
#146=LINE('',#2187,#319);
#147=LINE('',#2189,#320);
#148=LINE('',#2191,#321);
#149=LINE('',#2193,#322);
#150=LINE('',#2195,#323);
#151=LINE('',#2197,#324);
#152=LINE('',#2199,#325);
#153=LINE('',#2201,#326);
#154=LINE('',#2203,#327);
#155=LINE('',#2205,#328);
#156=LINE('',#2207,#329);
#157=LINE('',#2209,#330);
#158=LINE('',#2211,#331);
#159=LINE('',#2213,#332);
#160=LINE('',#2215,#333);
#161=LINE('',#2217,#334);
#162=LINE('',#2219,#335);
#163=LINE('',#2221,#336);
#164=LINE('',#2222,#337);
#165=LINE('',#2224,#338);
#166=LINE('',#2226,#339);
#167=LINE('',#2228,#340);
#168=LINE('',#2230,#341);
#169=LINE('',#2231,#342);
#170=LINE('',#2233,#343);
#171=LINE('',#2235,#344);
#172=LINE('',#2246,#345);
#173=LINE('',#2251,#346);
#174=LINE('',#2255,#347);
#175=LINE('',#2259,#348);
#176=LINE('',#2263,#349);
#177=LINE('',#2267,#350);
#178=LINE('',#2268,#351);
#179=LINE('',#2272,#352);
#180=LINE('',#2274,#353);
#181=LINE('',#2276,#354);
#182=LINE('',#2280,#355);
#183=LINE('',#2282,#356);
#184=LINE('',#2284,#357);
#185=LINE('',#2286,#358);
#186=LINE('',#2290,#359);
#187=LINE('',#2292,#360);
#188=LINE('',#2296,#361);
#189=LINE('',#2297,#362);
#190=LINE('',#2304,#363);
#191=LINE('',#2306,#364);
#192=LINE('',#2308,#365);
#193=LINE('',#2310,#366);
#194=LINE('',#2313,#367);
#195=VECTOR('',#1556,1.);
#196=VECTOR('',#1557,1.);
#197=VECTOR('',#1558,1.);
#198=VECTOR('',#1559,1.);
#199=VECTOR('',#1560,1.);
#200=VECTOR('',#1561,1.);
#201=VECTOR('',#1562,1.);
#202=VECTOR('',#1563,1.);
#203=VECTOR('',#1564,1.);
#204=VECTOR('',#1565,1.);
#205=VECTOR('',#1568,1.);
#206=VECTOR('',#1569,1.);
#207=VECTOR('',#1570,1.);
#208=VECTOR('',#1571,1.);
#209=VECTOR('',#1574,1.);
#210=VECTOR('',#1575,1.);
#211=VECTOR('',#1576,1.);
#212=VECTOR('',#1577,1.);
#213=VECTOR('',#1580,1.);
#214=VECTOR('',#1581,1.);
#215=VECTOR('',#1582,1.);
#216=VECTOR('',#1585,1.);
#217=VECTOR('',#1586,1.);
#218=VECTOR('',#1587,1.);
#219=VECTOR('',#1590,1.);
#220=VECTOR('',#1591,1.);
#221=VECTOR('',#1592,1.);
#222=VECTOR('',#1595,1.);
#223=VECTOR('',#1596,1.);
#224=VECTOR('',#1597,1.);
#225=VECTOR('',#1600,1.);
#226=VECTOR('',#1601,1.);
#227=VECTOR('',#1604,1.);
#228=VECTOR('',#1605,1.);
#229=VECTOR('',#1606,1.);
#230=VECTOR('',#1607,1.);
#231=VECTOR('',#1610,1.);
#232=VECTOR('',#1611,1.);
#233=VECTOR('',#1612,1.);
#234=VECTOR('',#1613,1.);
#235=VECTOR('',#1616,1.);
#236=VECTOR('',#1617,1.);
#237=VECTOR('',#1618,1.);
#238=VECTOR('',#1619,1.);
#239=VECTOR('',#1622,1.);
#240=VECTOR('',#1623,1.);
#241=VECTOR('',#1624,1.);
#242=VECTOR('',#1625,1.);
#243=VECTOR('',#1628,1.);
#244=VECTOR('',#1629,1.);
#245=VECTOR('',#1630,1.);
#246=VECTOR('',#1633,1.);
#247=VECTOR('',#1634,1.);
#248=VECTOR('',#1635,1.);
#249=VECTOR('',#1638,1.);
#250=VECTOR('',#1639,1.);
#251=VECTOR('',#1642,1.);
#252=VECTOR('',#1643,1.);
#253=VECTOR('',#1644,1.);
#254=VECTOR('',#1645,1.);
#255=VECTOR('',#1648,1.);
#256=VECTOR('',#1649,1.);
#257=VECTOR('',#1650,1.);
#258=VECTOR('',#1653,1.);
#259=VECTOR('',#1654,1.);
#260=VECTOR('',#1655,1.);
#261=VECTOR('',#1658,1.);
#262=VECTOR('',#1659,1.);
#263=VECTOR('',#1662,1.);
#264=VECTOR('',#1663,1.);
#265=VECTOR('',#1664,1.);
#266=VECTOR('',#1665,1.);
#267=VECTOR('',#1668,1.);
#268=VECTOR('',#1669,1.);
#269=VECTOR('',#1670,1.);
#270=VECTOR('',#1673,1.);
#271=VECTOR('',#1674,1.);
#272=VECTOR('',#1675,1.);
#273=VECTOR('',#1678,1.);
#274=VECTOR('',#1679,1.);
#275=VECTOR('',#1682,1.);
#276=VECTOR('',#1683,1.);
#277=VECTOR('',#1684,1.);
#278=VECTOR('',#1685,1.);
#279=VECTOR('',#1688,1.);
#280=VECTOR('',#1689,1.);
#281=VECTOR('',#1690,1.);
#282=VECTOR('',#1693,1.);
#283=VECTOR('',#1694,1.);
#284=VECTOR('',#1695,1.);
#285=VECTOR('',#1698,1.);
#286=VECTOR('',#1699,1.);
#287=VECTOR('',#1702,1.);
#288=VECTOR('',#1703,1.);
#289=VECTOR('',#1704,1.);
#290=VECTOR('',#1705,1.);
#291=VECTOR('',#1708,1.);
#292=VECTOR('',#1709,1.);
#293=VECTOR('',#1710,1.);
#294=VECTOR('',#1713,1.);
#295=VECTOR('',#1714,1.);
#296=VECTOR('',#1715,1.);
#297=VECTOR('',#1718,1.);
#298=VECTOR('',#1719,1.);
#299=VECTOR('',#1722,1.);
#300=VECTOR('',#1727,1.);
#301=VECTOR('',#1730,1.);
#302=VECTOR('',#1733,1.);
#303=VECTOR('',#1736,1.);
#304=VECTOR('',#1743,1.);
#305=VECTOR('',#1746,1.);
#306=VECTOR('',#1749,1.);
#307=VECTOR('',#1752,1.);
#308=VECTOR('',#1755,1.);
#309=VECTOR('',#1756,1.);
#310=VECTOR('',#1757,1.);
#311=VECTOR('',#1758,1.);
#312=VECTOR('',#1761,1.);
#313=VECTOR('',#1762,1.);
#314=VECTOR('',#1765,1.);
#315=VECTOR('',#1766,1.);
#316=VECTOR('',#1769,1.);
#317=VECTOR('',#1770,1.);
#318=VECTOR('',#1773,1.);
#319=VECTOR('',#1774,1.);
#320=VECTOR('',#1777,1.);
#321=VECTOR('',#1778,1.);
#322=VECTOR('',#1779,1.);
#323=VECTOR('',#1782,1.);
#324=VECTOR('',#1783,1.);
#325=VECTOR('',#1786,1.);
#326=VECTOR('',#1787,1.);
#327=VECTOR('',#1790,1.);
#328=VECTOR('',#1791,1.);
#329=VECTOR('',#1792,1.);
#330=VECTOR('',#1793,1.);
#331=VECTOR('',#1794,1.);
#332=VECTOR('',#1797,1.);
#333=VECTOR('',#1798,1.);
#334=VECTOR('',#1799,1.);
#335=VECTOR('',#1802,1.);
#336=VECTOR('',#1803,1.);
#337=VECTOR('',#1804,1.);
#338=VECTOR('',#1805,1.);
#339=VECTOR('',#1806,1.);
#340=VECTOR('',#1807,1.);
#341=VECTOR('',#1810,1.);
#342=VECTOR('',#1811,1.);
#343=VECTOR('',#1812,1.);
#344=VECTOR('',#1815,1.);
#345=VECTOR('',#1832,1.);
#346=VECTOR('',#1835,1.);
#347=VECTOR('',#1838,1.);
#348=VECTOR('',#1841,1.);
#349=VECTOR('',#1846,1.);
#350=VECTOR('',#1849,1.);
#351=VECTOR('',#1850,1.);
#352=VECTOR('',#1853,1.);
#353=VECTOR('',#1856,1.);
#354=VECTOR('',#1857,1.);
#355=VECTOR('',#1862,1.);
#356=VECTOR('',#1865,1.);
#357=VECTOR('',#1868,1.);
#358=VECTOR('',#1869,1.);
#359=VECTOR('',#1874,1.);
#360=VECTOR('',#1877,1.);
#361=VECTOR('',#1884,1.);
#362=VECTOR('',#1885,1.);
#363=VECTOR('',#1898,1.);
#364=VECTOR('',#1901,1.);
#365=VECTOR('',#1902,1.);
#366=VECTOR('',#1905,1.);
#367=VECTOR('',#1910,1.);
#368=ORIENTED_EDGE('',*,*,#760,.T.);
#369=ORIENTED_EDGE('',*,*,#761,.T.);
#370=ORIENTED_EDGE('',*,*,#762,.F.);
#371=ORIENTED_EDGE('',*,*,#763,.T.);
#372=ORIENTED_EDGE('',*,*,#764,.T.);
#373=ORIENTED_EDGE('',*,*,#765,.T.);
#374=ORIENTED_EDGE('',*,*,#766,.T.);
#375=ORIENTED_EDGE('',*,*,#767,.T.);
#376=ORIENTED_EDGE('',*,*,#768,.T.);
#377=ORIENTED_EDGE('',*,*,#769,.F.);
#378=ORIENTED_EDGE('',*,*,#770,.T.);
#379=ORIENTED_EDGE('',*,*,#771,.F.);
#380=ORIENTED_EDGE('',*,*,#772,.T.);
#381=ORIENTED_EDGE('',*,*,#773,.F.);
#382=ORIENTED_EDGE('',*,*,#774,.F.);
#383=ORIENTED_EDGE('',*,*,#775,.T.);
#384=ORIENTED_EDGE('',*,*,#776,.T.);
#385=ORIENTED_EDGE('',*,*,#777,.F.);
#386=ORIENTED_EDGE('',*,*,#778,.F.);
#387=ORIENTED_EDGE('',*,*,#779,.T.);
#388=ORIENTED_EDGE('',*,*,#780,.T.);
#389=ORIENTED_EDGE('',*,*,#781,.F.);
#390=ORIENTED_EDGE('',*,*,#782,.F.);
#391=ORIENTED_EDGE('',*,*,#777,.T.);
#392=ORIENTED_EDGE('',*,*,#781,.T.);
#393=ORIENTED_EDGE('',*,*,#783,.F.);
#394=ORIENTED_EDGE('',*,*,#784,.F.);
#395=ORIENTED_EDGE('',*,*,#785,.T.);
#396=ORIENTED_EDGE('',*,*,#784,.T.);
#397=ORIENTED_EDGE('',*,*,#786,.F.);
#398=ORIENTED_EDGE('',*,*,#787,.F.);
#399=ORIENTED_EDGE('',*,*,#788,.T.);
#400=ORIENTED_EDGE('',*,*,#789,.T.);
#401=ORIENTED_EDGE('',*,*,#790,.F.);
#402=ORIENTED_EDGE('',*,*,#791,.F.);
#403=ORIENTED_EDGE('',*,*,#787,.T.);
#404=ORIENTED_EDGE('',*,*,#792,.T.);
#405=ORIENTED_EDGE('',*,*,#772,.F.);
#406=ORIENTED_EDGE('',*,*,#793,.F.);
#407=ORIENTED_EDGE('',*,*,#790,.T.);
#408=ORIENTED_EDGE('',*,*,#794,.F.);
#409=ORIENTED_EDGE('',*,*,#795,.T.);
#410=ORIENTED_EDGE('',*,*,#796,.T.);
#411=ORIENTED_EDGE('',*,*,#797,.F.);
#412=ORIENTED_EDGE('',*,*,#798,.F.);
#413=ORIENTED_EDGE('',*,*,#799,.F.);
#414=ORIENTED_EDGE('',*,*,#794,.T.);
#415=ORIENTED_EDGE('',*,*,#800,.T.);
#416=ORIENTED_EDGE('',*,*,#801,.F.);
#417=ORIENTED_EDGE('',*,*,#767,.F.);
#418=ORIENTED_EDGE('',*,*,#802,.T.);
#419=ORIENTED_EDGE('',*,*,#803,.T.);
#420=ORIENTED_EDGE('',*,*,#769,.T.);
#421=ORIENTED_EDGE('',*,*,#804,.T.);
#422=ORIENTED_EDGE('',*,*,#805,.F.);
#423=ORIENTED_EDGE('',*,*,#796,.F.);
#424=ORIENTED_EDGE('',*,*,#806,.F.);
#425=ORIENTED_EDGE('',*,*,#807,.F.);
#426=ORIENTED_EDGE('',*,*,#808,.T.);
#427=ORIENTED_EDGE('',*,*,#809,.F.);
#428=ORIENTED_EDGE('',*,*,#810,.T.);
#429=ORIENTED_EDGE('',*,*,#806,.T.);
#430=ORIENTED_EDGE('',*,*,#811,.T.);
#431=ORIENTED_EDGE('',*,*,#812,.F.);
#432=ORIENTED_EDGE('',*,*,#813,.T.);
#433=ORIENTED_EDGE('',*,*,#812,.T.);
#434=ORIENTED_EDGE('',*,*,#814,.T.);
#435=ORIENTED_EDGE('',*,*,#815,.F.);
#436=ORIENTED_EDGE('',*,*,#808,.F.);
#437=ORIENTED_EDGE('',*,*,#816,.F.);
#438=ORIENTED_EDGE('',*,*,#815,.T.);
#439=ORIENTED_EDGE('',*,*,#817,.F.);
#440=ORIENTED_EDGE('',*,*,#818,.F.);
#441=ORIENTED_EDGE('',*,*,#819,.F.);
#442=ORIENTED_EDGE('',*,*,#820,.T.);
#443=ORIENTED_EDGE('',*,*,#821,.F.);
#444=ORIENTED_EDGE('',*,*,#822,.T.);
#445=ORIENTED_EDGE('',*,*,#818,.T.);
#446=ORIENTED_EDGE('',*,*,#823,.T.);
#447=ORIENTED_EDGE('',*,*,#824,.F.);
#448=ORIENTED_EDGE('',*,*,#825,.T.);
#449=ORIENTED_EDGE('',*,*,#824,.T.);
#450=ORIENTED_EDGE('',*,*,#826,.T.);
#451=ORIENTED_EDGE('',*,*,#827,.F.);
#452=ORIENTED_EDGE('',*,*,#820,.F.);
#453=ORIENTED_EDGE('',*,*,#828,.F.);
#454=ORIENTED_EDGE('',*,*,#827,.T.);
#455=ORIENTED_EDGE('',*,*,#829,.F.);
#456=ORIENTED_EDGE('',*,*,#830,.F.);
#457=ORIENTED_EDGE('',*,*,#831,.F.);
#458=ORIENTED_EDGE('',*,*,#832,.T.);
#459=ORIENTED_EDGE('',*,*,#833,.F.);
#460=ORIENTED_EDGE('',*,*,#834,.T.);
#461=ORIENTED_EDGE('',*,*,#830,.T.);
#462=ORIENTED_EDGE('',*,*,#835,.T.);
#463=ORIENTED_EDGE('',*,*,#836,.F.);
#464=ORIENTED_EDGE('',*,*,#837,.T.);
#465=ORIENTED_EDGE('',*,*,#836,.T.);
#466=ORIENTED_EDGE('',*,*,#838,.T.);
#467=ORIENTED_EDGE('',*,*,#839,.F.);
#468=ORIENTED_EDGE('',*,*,#832,.F.);
#469=ORIENTED_EDGE('',*,*,#840,.F.);
#470=ORIENTED_EDGE('',*,*,#839,.T.);
#471=ORIENTED_EDGE('',*,*,#841,.F.);
#472=ORIENTED_EDGE('',*,*,#842,.F.);
#473=ORIENTED_EDGE('',*,*,#843,.F.);
#474=ORIENTED_EDGE('',*,*,#844,.T.);
#475=ORIENTED_EDGE('',*,*,#845,.F.);
#476=ORIENTED_EDGE('',*,*,#846,.T.);
#477=ORIENTED_EDGE('',*,*,#842,.T.);
#478=ORIENTED_EDGE('',*,*,#847,.T.);
#479=ORIENTED_EDGE('',*,*,#848,.F.);
#480=ORIENTED_EDGE('',*,*,#849,.T.);
#481=ORIENTED_EDGE('',*,*,#848,.T.);
#482=ORIENTED_EDGE('',*,*,#850,.T.);
#483=ORIENTED_EDGE('',*,*,#851,.F.);
#484=ORIENTED_EDGE('',*,*,#844,.F.);
#485=ORIENTED_EDGE('',*,*,#852,.F.);
#486=ORIENTED_EDGE('',*,*,#851,.T.);
#487=ORIENTED_EDGE('',*,*,#853,.F.);
#488=ORIENTED_EDGE('',*,*,#854,.F.);
#489=ORIENTED_EDGE('',*,*,#855,.F.);
#490=ORIENTED_EDGE('',*,*,#856,.T.);
#491=ORIENTED_EDGE('',*,*,#857,.F.);
#492=ORIENTED_EDGE('',*,*,#858,.T.);
#493=ORIENTED_EDGE('',*,*,#854,.T.);
#494=ORIENTED_EDGE('',*,*,#859,.T.);
#495=ORIENTED_EDGE('',*,*,#860,.F.);
#496=ORIENTED_EDGE('',*,*,#861,.T.);
#497=ORIENTED_EDGE('',*,*,#860,.T.);
#498=ORIENTED_EDGE('',*,*,#862,.T.);
#499=ORIENTED_EDGE('',*,*,#863,.F.);
#500=ORIENTED_EDGE('',*,*,#856,.F.);
#501=ORIENTED_EDGE('',*,*,#864,.F.);
#502=ORIENTED_EDGE('',*,*,#863,.T.);
#503=ORIENTED_EDGE('',*,*,#865,.F.);
#504=ORIENTED_EDGE('',*,*,#845,.T.);
#505=ORIENTED_EDGE('',*,*,#853,.T.);
#506=ORIENTED_EDGE('',*,*,#850,.F.);
#507=ORIENTED_EDGE('',*,*,#847,.F.);
#508=ORIENTED_EDGE('',*,*,#821,.T.);
#509=ORIENTED_EDGE('',*,*,#829,.T.);
#510=ORIENTED_EDGE('',*,*,#826,.F.);
#511=ORIENTED_EDGE('',*,*,#823,.F.);
#512=ORIENTED_EDGE('',*,*,#797,.T.);
#513=ORIENTED_EDGE('',*,*,#805,.T.);
#514=ORIENTED_EDGE('',*,*,#866,.F.);
#515=ORIENTED_EDGE('',*,*,#800,.F.);
#516=ORIENTED_EDGE('',*,*,#867,.F.);
#517=ORIENTED_EDGE('',*,*,#868,.F.);
#518=ORIENTED_EDGE('',*,*,#869,.F.);
#519=ORIENTED_EDGE('',*,*,#870,.T.);
#520=ORIENTED_EDGE('',*,*,#871,.T.);
#521=ORIENTED_EDGE('',*,*,#872,.T.);
#522=ORIENTED_EDGE('',*,*,#873,.T.);
#523=ORIENTED_EDGE('',*,*,#874,.T.);
#524=ORIENTED_EDGE('',*,*,#875,.F.);
#525=ORIENTED_EDGE('',*,*,#876,.T.);
#526=ORIENTED_EDGE('',*,*,#809,.T.);
#527=ORIENTED_EDGE('',*,*,#817,.T.);
#528=ORIENTED_EDGE('',*,*,#814,.F.);
#529=ORIENTED_EDGE('',*,*,#811,.F.);
#530=ORIENTED_EDGE('',*,*,#833,.T.);
#531=ORIENTED_EDGE('',*,*,#841,.T.);
#532=ORIENTED_EDGE('',*,*,#838,.F.);
#533=ORIENTED_EDGE('',*,*,#835,.F.);
#534=ORIENTED_EDGE('',*,*,#857,.T.);
#535=ORIENTED_EDGE('',*,*,#865,.T.);
#536=ORIENTED_EDGE('',*,*,#862,.F.);
#537=ORIENTED_EDGE('',*,*,#859,.F.);
#538=ORIENTED_EDGE('',*,*,#877,.F.);
#539=ORIENTED_EDGE('',*,*,#878,.F.);
#540=ORIENTED_EDGE('',*,*,#879,.T.);
#541=ORIENTED_EDGE('',*,*,#880,.T.);
#542=ORIENTED_EDGE('',*,*,#881,.T.);
#543=ORIENTED_EDGE('',*,*,#882,.T.);
#544=ORIENTED_EDGE('',*,*,#883,.T.);
#545=ORIENTED_EDGE('',*,*,#884,.F.);
#546=ORIENTED_EDGE('',*,*,#885,.T.);
#547=ORIENTED_EDGE('',*,*,#886,.F.);
#548=ORIENTED_EDGE('',*,*,#887,.T.);
#549=ORIENTED_EDGE('',*,*,#888,.T.);
#550=ORIENTED_EDGE('',*,*,#889,.F.);
#551=ORIENTED_EDGE('',*,*,#871,.F.);
#552=ORIENTED_EDGE('',*,*,#890,.T.);
#553=ORIENTED_EDGE('',*,*,#878,.T.);
#554=ORIENTED_EDGE('',*,*,#891,.T.);
#555=ORIENTED_EDGE('',*,*,#880,.F.);
#556=ORIENTED_EDGE('',*,*,#892,.T.);
#557=ORIENTED_EDGE('',*,*,#869,.T.);
#558=ORIENTED_EDGE('',*,*,#893,.T.);
#559=ORIENTED_EDGE('',*,*,#875,.T.);
#560=ORIENTED_EDGE('',*,*,#894,.T.);
#561=ORIENTED_EDGE('',*,*,#882,.F.);
#562=ORIENTED_EDGE('',*,*,#895,.T.);
#563=ORIENTED_EDGE('',*,*,#873,.F.);
#564=ORIENTED_EDGE('',*,*,#896,.T.);
#565=ORIENTED_EDGE('',*,*,#884,.T.);
#566=ORIENTED_EDGE('',*,*,#897,.T.);
#567=ORIENTED_EDGE('',*,*,#887,.F.);
#568=ORIENTED_EDGE('',*,*,#898,.F.);
#569=ORIENTED_EDGE('',*,*,#899,.T.);
#570=ORIENTED_EDGE('',*,*,#900,.T.);
#571=ORIENTED_EDGE('',*,*,#886,.T.);
#572=ORIENTED_EDGE('',*,*,#901,.F.);
#573=ORIENTED_EDGE('',*,*,#902,.F.);
#574=ORIENTED_EDGE('',*,*,#898,.T.);
#575=ORIENTED_EDGE('',*,*,#889,.T.);
#576=ORIENTED_EDGE('',*,*,#903,.F.);
#577=ORIENTED_EDGE('',*,*,#904,.F.);
#578=ORIENTED_EDGE('',*,*,#901,.T.);
#579=ORIENTED_EDGE('',*,*,#764,.F.);
#580=ORIENTED_EDGE('',*,*,#905,.F.);
#581=ORIENTED_EDGE('',*,*,#906,.F.);
#582=ORIENTED_EDGE('',*,*,#907,.F.);
#583=ORIENTED_EDGE('',*,*,#908,.T.);
#584=ORIENTED_EDGE('',*,*,#909,.T.);
#585=ORIENTED_EDGE('',*,*,#907,.T.);
#586=ORIENTED_EDGE('',*,*,#910,.T.);
#587=ORIENTED_EDGE('',*,*,#911,.F.);
#588=ORIENTED_EDGE('',*,*,#912,.F.);
#589=ORIENTED_EDGE('',*,*,#911,.T.);
#590=ORIENTED_EDGE('',*,*,#913,.T.);
#591=ORIENTED_EDGE('',*,*,#914,.T.);
#592=ORIENTED_EDGE('',*,*,#762,.T.);
#593=ORIENTED_EDGE('',*,*,#915,.F.);
#594=ORIENTED_EDGE('',*,*,#916,.T.);
#595=ORIENTED_EDGE('',*,*,#917,.F.);
#596=ORIENTED_EDGE('',*,*,#918,.F.);
#597=ORIENTED_EDGE('',*,*,#765,.F.);
#598=ORIENTED_EDGE('',*,*,#909,.F.);
#599=ORIENTED_EDGE('',*,*,#919,.T.);
#600=ORIENTED_EDGE('',*,*,#917,.T.);
#601=ORIENTED_EDGE('',*,*,#920,.F.);
#602=ORIENTED_EDGE('',*,*,#921,.T.);
#603=ORIENTED_EDGE('',*,*,#888,.F.);
#604=ORIENTED_EDGE('',*,*,#900,.F.);
#605=ORIENTED_EDGE('',*,*,#922,.T.);
#606=ORIENTED_EDGE('',*,*,#903,.T.);
#607=ORIENTED_EDGE('',*,*,#908,.F.);
#608=ORIENTED_EDGE('',*,*,#912,.T.);
#609=ORIENTED_EDGE('',*,*,#918,.T.);
#610=ORIENTED_EDGE('',*,*,#919,.F.);
#611=ORIENTED_EDGE('',*,*,#899,.F.);
#612=ORIENTED_EDGE('',*,*,#902,.T.);
#613=ORIENTED_EDGE('',*,*,#904,.T.);
#614=ORIENTED_EDGE('',*,*,#922,.F.);
#615=ORIENTED_EDGE('',*,*,#760,.F.);
#616=ORIENTED_EDGE('',*,*,#868,.T.);
#617=ORIENTED_EDGE('',*,*,#761,.F.);
#618=ORIENTED_EDGE('',*,*,#867,.T.);
#619=ORIENTED_EDGE('',*,*,#866,.T.);
#620=ORIENTED_EDGE('',*,*,#804,.F.);
#621=ORIENTED_EDGE('',*,*,#768,.F.);
#622=ORIENTED_EDGE('',*,*,#801,.T.);
#623=ORIENTED_EDGE('',*,*,#923,.T.);
#624=ORIENTED_EDGE('',*,*,#924,.T.);
#625=ORIENTED_EDGE('',*,*,#925,.T.);
#626=ORIENTED_EDGE('',*,*,#926,.T.);
#627=ORIENTED_EDGE('',*,*,#927,.F.);
#628=ORIENTED_EDGE('',*,*,#928,.T.);
#629=ORIENTED_EDGE('',*,*,#929,.F.);
#630=ORIENTED_EDGE('',*,*,#930,.T.);
#631=ORIENTED_EDGE('',*,*,#931,.T.);
#632=ORIENTED_EDGE('',*,*,#932,.T.);
#633=ORIENTED_EDGE('',*,*,#923,.F.);
#634=ORIENTED_EDGE('',*,*,#877,.T.);
#635=ORIENTED_EDGE('',*,*,#933,.T.);
#636=ORIENTED_EDGE('',*,*,#934,.F.);
#637=ORIENTED_EDGE('',*,*,#935,.F.);
#638=ORIENTED_EDGE('',*,*,#930,.F.);
#639=ORIENTED_EDGE('',*,*,#936,.T.);
#640=ORIENTED_EDGE('',*,*,#937,.F.);
#641=ORIENTED_EDGE('',*,*,#938,.F.);
#642=ORIENTED_EDGE('',*,*,#926,.F.);
#643=ORIENTED_EDGE('',*,*,#939,.F.);
#644=ORIENTED_EDGE('',*,*,#940,.F.);
#645=ORIENTED_EDGE('',*,*,#927,.T.);
#646=ORIENTED_EDGE('',*,*,#938,.T.);
#647=ORIENTED_EDGE('',*,*,#940,.T.);
#648=ORIENTED_EDGE('',*,*,#941,.T.);
#649=ORIENTED_EDGE('',*,*,#942,.F.);
#650=ORIENTED_EDGE('',*,*,#928,.F.);
#651=ORIENTED_EDGE('',*,*,#943,.F.);
#652=ORIENTED_EDGE('',*,*,#936,.F.);
#653=ORIENTED_EDGE('',*,*,#929,.T.);
#654=ORIENTED_EDGE('',*,*,#942,.T.);
#655=ORIENTED_EDGE('',*,*,#935,.T.);
#656=ORIENTED_EDGE('',*,*,#944,.T.);
#657=ORIENTED_EDGE('',*,*,#945,.F.);
#658=ORIENTED_EDGE('',*,*,#931,.F.);
#659=ORIENTED_EDGE('',*,*,#945,.T.);
#660=ORIENTED_EDGE('',*,*,#946,.T.);
#661=ORIENTED_EDGE('',*,*,#947,.F.);
#662=ORIENTED_EDGE('',*,*,#932,.F.);
#663=ORIENTED_EDGE('',*,*,#947,.T.);
#664=ORIENTED_EDGE('',*,*,#948,.T.);
#665=ORIENTED_EDGE('',*,*,#933,.F.);
#666=ORIENTED_EDGE('',*,*,#925,.F.);
#667=ORIENTED_EDGE('',*,*,#944,.F.);
#668=ORIENTED_EDGE('',*,*,#934,.T.);
#669=ORIENTED_EDGE('',*,*,#948,.F.);
#670=ORIENTED_EDGE('',*,*,#946,.F.);
#671=ORIENTED_EDGE('',*,*,#937,.T.);
#672=ORIENTED_EDGE('',*,*,#943,.T.);
#673=ORIENTED_EDGE('',*,*,#941,.F.);
#674=ORIENTED_EDGE('',*,*,#939,.T.);
#675=ORIENTED_EDGE('',*,*,#774,.T.);
#676=ORIENTED_EDGE('',*,*,#949,.T.);
#677=ORIENTED_EDGE('',*,*,#779,.F.);
#678=ORIENTED_EDGE('',*,*,#950,.F.);
#679=ORIENTED_EDGE('',*,*,#807,.T.);
#680=ORIENTED_EDGE('',*,*,#810,.F.);
#681=ORIENTED_EDGE('',*,*,#813,.F.);
#682=ORIENTED_EDGE('',*,*,#816,.T.);
#683=ORIENTED_EDGE('',*,*,#834,.F.);
#684=ORIENTED_EDGE('',*,*,#837,.F.);
#685=ORIENTED_EDGE('',*,*,#840,.T.);
#686=ORIENTED_EDGE('',*,*,#831,.T.);
#687=ORIENTED_EDGE('',*,*,#858,.F.);
#688=ORIENTED_EDGE('',*,*,#861,.F.);
#689=ORIENTED_EDGE('',*,*,#864,.T.);
#690=ORIENTED_EDGE('',*,*,#855,.T.);
#691=ORIENTED_EDGE('',*,*,#775,.F.);
#692=ORIENTED_EDGE('',*,*,#950,.T.);
#693=ORIENTED_EDGE('',*,*,#778,.T.);
#694=ORIENTED_EDGE('',*,*,#782,.T.);
#695=ORIENTED_EDGE('',*,*,#785,.F.);
#696=ORIENTED_EDGE('',*,*,#788,.F.);
#697=ORIENTED_EDGE('',*,*,#791,.T.);
#698=ORIENTED_EDGE('',*,*,#793,.T.);
#699=ORIENTED_EDGE('',*,*,#819,.T.);
#700=ORIENTED_EDGE('',*,*,#822,.F.);
#701=ORIENTED_EDGE('',*,*,#825,.F.);
#702=ORIENTED_EDGE('',*,*,#828,.T.);
#703=ORIENTED_EDGE('',*,*,#852,.T.);
#704=ORIENTED_EDGE('',*,*,#843,.T.);
#705=ORIENTED_EDGE('',*,*,#846,.F.);
#706=ORIENTED_EDGE('',*,*,#849,.F.);
#707=ORIENTED_EDGE('',*,*,#879,.F.);
#708=ORIENTED_EDGE('',*,*,#890,.F.);
#709=ORIENTED_EDGE('',*,*,#870,.F.);
#710=ORIENTED_EDGE('',*,*,#892,.F.);
#711=ORIENTED_EDGE('',*,*,#885,.F.);
#712=ORIENTED_EDGE('',*,*,#896,.F.);
#713=ORIENTED_EDGE('',*,*,#872,.F.);
#714=ORIENTED_EDGE('',*,*,#891,.F.);
#715=ORIENTED_EDGE('',*,*,#883,.F.);
#716=ORIENTED_EDGE('',*,*,#894,.F.);
#717=ORIENTED_EDGE('',*,*,#874,.F.);
#718=ORIENTED_EDGE('',*,*,#897,.F.);
#719=ORIENTED_EDGE('',*,*,#881,.F.);
#720=ORIENTED_EDGE('',*,*,#893,.F.);
#721=ORIENTED_EDGE('',*,*,#876,.F.);
#722=ORIENTED_EDGE('',*,*,#895,.F.);
#723=ORIENTED_EDGE('',*,*,#798,.T.);
#724=ORIENTED_EDGE('',*,*,#766,.F.);
#725=ORIENTED_EDGE('',*,*,#921,.F.);
#726=ORIENTED_EDGE('',*,*,#951,.T.);
#727=ORIENTED_EDGE('',*,*,#799,.T.);
#728=ORIENTED_EDGE('',*,*,#951,.F.);
#729=ORIENTED_EDGE('',*,*,#920,.T.);
#730=ORIENTED_EDGE('',*,*,#916,.F.);
#731=ORIENTED_EDGE('',*,*,#952,.T.);
#732=ORIENTED_EDGE('',*,*,#953,.F.);
#733=ORIENTED_EDGE('',*,*,#802,.F.);
#734=ORIENTED_EDGE('',*,*,#795,.F.);
#735=ORIENTED_EDGE('',*,*,#953,.T.);
#736=ORIENTED_EDGE('',*,*,#954,.T.);
#737=ORIENTED_EDGE('',*,*,#770,.F.);
#738=ORIENTED_EDGE('',*,*,#803,.F.);
#739=ORIENTED_EDGE('',*,*,#771,.T.);
#740=ORIENTED_EDGE('',*,*,#954,.F.);
#741=ORIENTED_EDGE('',*,*,#952,.F.);
#742=ORIENTED_EDGE('',*,*,#915,.T.);
#743=ORIENTED_EDGE('',*,*,#763,.F.);
#744=ORIENTED_EDGE('',*,*,#914,.F.);
#745=ORIENTED_EDGE('',*,*,#955,.T.);
#746=ORIENTED_EDGE('',*,*,#905,.T.);
#747=ORIENTED_EDGE('',*,*,#906,.T.);
#748=ORIENTED_EDGE('',*,*,#955,.F.);
#749=ORIENTED_EDGE('',*,*,#913,.F.);
#750=ORIENTED_EDGE('',*,*,#910,.F.);
#751=ORIENTED_EDGE('',*,*,#786,.T.);
#752=ORIENTED_EDGE('',*,*,#783,.T.);
#753=ORIENTED_EDGE('',*,*,#780,.F.);
#754=ORIENTED_EDGE('',*,*,#776,.F.);
#755=ORIENTED_EDGE('',*,*,#949,.F.);
#756=ORIENTED_EDGE('',*,*,#773,.T.);
#757=ORIENTED_EDGE('',*,*,#792,.F.);
#758=ORIENTED_EDGE('',*,*,#789,.F.);
#759=ORIENTED_EDGE('',*,*,#924,.F.);
#760=EDGE_CURVE('',#956,#956,#1089,.T.);
#761=EDGE_CURVE('',#957,#957,#1090,.T.);
#762=EDGE_CURVE('',#958,#959,#22,.T.);
#763=EDGE_CURVE('',#958,#960,#23,.T.);
#764=EDGE_CURVE('',#960,#961,#24,.T.);
#765=EDGE_CURVE('',#961,#962,#25,.T.);
#766=EDGE_CURVE('',#962,#963,#26,.T.);
#767=EDGE_CURVE('',#963,#964,#27,.T.);
#768=EDGE_CURVE('',#964,#965,#28,.T.);
#769=EDGE_CURVE('',#966,#965,#29,.T.);
#770=EDGE_CURVE('',#966,#967,#30,.T.);
#771=EDGE_CURVE('',#959,#967,#31,.T.);
#772=EDGE_CURVE('',#968,#969,#32,.T.);
#773=EDGE_CURVE('',#970,#969,#33,.T.);
#774=EDGE_CURVE('',#971,#970,#34,.T.);
#775=EDGE_CURVE('',#971,#968,#35,.T.);
#776=EDGE_CURVE('',#972,#973,#36,.T.);
#777=EDGE_CURVE('',#974,#973,#37,.T.);
#778=EDGE_CURVE('',#975,#974,#38,.T.);
#779=EDGE_CURVE('',#975,#972,#39,.T.);
#780=EDGE_CURVE('',#973,#976,#40,.T.);
#781=EDGE_CURVE('',#977,#976,#41,.T.);
#782=EDGE_CURVE('',#974,#977,#42,.T.);
#783=EDGE_CURVE('',#978,#976,#43,.T.);
#784=EDGE_CURVE('',#979,#978,#44,.T.);
#785=EDGE_CURVE('',#979,#977,#45,.T.);
#786=EDGE_CURVE('',#980,#978,#46,.T.);
#787=EDGE_CURVE('',#981,#980,#47,.T.);
#788=EDGE_CURVE('',#981,#979,#48,.T.);
#789=EDGE_CURVE('',#980,#982,#49,.T.);
#790=EDGE_CURVE('',#983,#982,#50,.T.);
#791=EDGE_CURVE('',#981,#983,#51,.T.);
#792=EDGE_CURVE('',#982,#969,#52,.T.);
#793=EDGE_CURVE('',#983,#968,#53,.T.);
#794=EDGE_CURVE('',#984,#985,#54,.T.);
#795=EDGE_CURVE('',#984,#986,#55,.T.);
#796=EDGE_CURVE('',#986,#987,#56,.T.);
#797=EDGE_CURVE('',#985,#987,#57,.T.);
#798=EDGE_CURVE('',#988,#963,#58,.T.);
#799=EDGE_CURVE('',#984,#988,#59,.T.);
#800=EDGE_CURVE('',#985,#989,#60,.T.);
#801=EDGE_CURVE('',#964,#989,#61,.T.);
#802=EDGE_CURVE('',#986,#990,#62,.T.);
#803=EDGE_CURVE('',#990,#966,#63,.T.);
#804=EDGE_CURVE('',#965,#991,#64,.T.);
#805=EDGE_CURVE('',#987,#991,#65,.T.);
#806=EDGE_CURVE('',#992,#993,#66,.T.);
#807=EDGE_CURVE('',#994,#992,#67,.T.);
#808=EDGE_CURVE('',#994,#995,#68,.T.);
#809=EDGE_CURVE('',#993,#995,#69,.T.);
#810=EDGE_CURVE('',#996,#992,#70,.T.);
#811=EDGE_CURVE('',#993,#997,#71,.T.);
#812=EDGE_CURVE('',#996,#997,#72,.T.);
#813=EDGE_CURVE('',#998,#996,#73,.T.);
#814=EDGE_CURVE('',#997,#999,#74,.T.);
#815=EDGE_CURVE('',#998,#999,#75,.T.);
#816=EDGE_CURVE('',#998,#994,#76,.T.);
#817=EDGE_CURVE('',#995,#999,#77,.T.);
#818=EDGE_CURVE('',#1000,#1001,#78,.T.);
#819=EDGE_CURVE('',#1002,#1000,#79,.T.);
#820=EDGE_CURVE('',#1002,#1003,#80,.T.);
#821=EDGE_CURVE('',#1001,#1003,#81,.T.);
#822=EDGE_CURVE('',#1004,#1000,#82,.T.);
#823=EDGE_CURVE('',#1001,#1005,#83,.T.);
#824=EDGE_CURVE('',#1004,#1005,#84,.T.);
#825=EDGE_CURVE('',#1006,#1004,#85,.T.);
#826=EDGE_CURVE('',#1005,#1007,#86,.T.);
#827=EDGE_CURVE('',#1006,#1007,#87,.T.);
#828=EDGE_CURVE('',#1006,#1002,#88,.T.);
#829=EDGE_CURVE('',#1003,#1007,#89,.T.);
#830=EDGE_CURVE('',#1008,#1009,#90,.T.);
#831=EDGE_CURVE('',#1010,#1008,#91,.T.);
#832=EDGE_CURVE('',#1010,#1011,#92,.T.);
#833=EDGE_CURVE('',#1009,#1011,#93,.T.);
#834=EDGE_CURVE('',#1012,#1008,#94,.T.);
#835=EDGE_CURVE('',#1009,#1013,#95,.T.);
#836=EDGE_CURVE('',#1012,#1013,#96,.T.);
#837=EDGE_CURVE('',#1014,#1012,#97,.T.);
#838=EDGE_CURVE('',#1013,#1015,#98,.T.);
#839=EDGE_CURVE('',#1014,#1015,#99,.T.);
#840=EDGE_CURVE('',#1014,#1010,#100,.T.);
#841=EDGE_CURVE('',#1011,#1015,#101,.T.);
#842=EDGE_CURVE('',#1016,#1017,#102,.T.);
#843=EDGE_CURVE('',#1018,#1016,#103,.T.);
#844=EDGE_CURVE('',#1018,#1019,#104,.T.);
#845=EDGE_CURVE('',#1017,#1019,#105,.T.);
#846=EDGE_CURVE('',#1020,#1016,#106,.T.);
#847=EDGE_CURVE('',#1017,#1021,#107,.T.);
#848=EDGE_CURVE('',#1020,#1021,#108,.T.);
#849=EDGE_CURVE('',#1022,#1020,#109,.T.);
#850=EDGE_CURVE('',#1021,#1023,#110,.T.);
#851=EDGE_CURVE('',#1022,#1023,#111,.T.);
#852=EDGE_CURVE('',#1022,#1018,#112,.T.);
#853=EDGE_CURVE('',#1019,#1023,#113,.T.);
#854=EDGE_CURVE('',#1024,#1025,#114,.T.);
#855=EDGE_CURVE('',#1026,#1024,#115,.T.);
#856=EDGE_CURVE('',#1026,#1027,#116,.T.);
#857=EDGE_CURVE('',#1025,#1027,#117,.T.);
#858=EDGE_CURVE('',#1028,#1024,#118,.T.);
#859=EDGE_CURVE('',#1025,#1029,#119,.T.);
#860=EDGE_CURVE('',#1028,#1029,#120,.T.);
#861=EDGE_CURVE('',#1030,#1028,#121,.T.);
#862=EDGE_CURVE('',#1029,#1031,#122,.T.);
#863=EDGE_CURVE('',#1030,#1031,#123,.T.);
#864=EDGE_CURVE('',#1030,#1026,#124,.T.);
#865=EDGE_CURVE('',#1027,#1031,#125,.T.);
#866=EDGE_CURVE('',#989,#991,#126,.T.);
#867=EDGE_CURVE('',#1032,#1032,#1091,.T.);
#868=EDGE_CURVE('',#1033,#1033,#1092,.T.);
#869=EDGE_CURVE('',#1034,#1035,#127,.T.);
#870=EDGE_CURVE('',#1034,#1036,#1093,.F.);
#871=EDGE_CURVE('',#1036,#1037,#128,.T.);
#872=EDGE_CURVE('',#1037,#1038,#1094,.F.);
#873=EDGE_CURVE('',#1038,#1039,#129,.T.);
#874=EDGE_CURVE('',#1039,#1040,#1095,.F.);
#875=EDGE_CURVE('',#1041,#1040,#130,.T.);
#876=EDGE_CURVE('',#1041,#1035,#1096,.F.);
#877=EDGE_CURVE('',#1042,#1042,#1097,.T.);
#878=EDGE_CURVE('',#1043,#1044,#131,.T.);
#879=EDGE_CURVE('',#1043,#1045,#1098,.T.);
#880=EDGE_CURVE('',#1045,#1046,#132,.T.);
#881=EDGE_CURVE('',#1046,#1047,#1099,.T.);
#882=EDGE_CURVE('',#1047,#1048,#133,.T.);
#883=EDGE_CURVE('',#1048,#1049,#1100,.T.);
#884=EDGE_CURVE('',#1050,#1049,#134,.T.);
#885=EDGE_CURVE('',#1050,#1044,#1101,.T.);
#886=EDGE_CURVE('',#1051,#1052,#135,.T.);
#887=EDGE_CURVE('',#1051,#1053,#136,.T.);
#888=EDGE_CURVE('',#1053,#1054,#137,.T.);
#889=EDGE_CURVE('',#1052,#1054,#138,.T.);
#890=EDGE_CURVE('',#1036,#1043,#139,.F.);
#891=EDGE_CURVE('',#1044,#1037,#140,.T.);
#892=EDGE_CURVE('',#1045,#1034,#141,.T.);
#893=EDGE_CURVE('',#1035,#1046,#142,.F.);
#894=EDGE_CURVE('',#1040,#1048,#143,.F.);
#895=EDGE_CURVE('',#1047,#1041,#144,.T.);
#896=EDGE_CURVE('',#1038,#1050,#145,.F.);
#897=EDGE_CURVE('',#1049,#1039,#146,.T.);
#898=EDGE_CURVE('',#1055,#1051,#147,.T.);
#899=EDGE_CURVE('',#1055,#1056,#148,.T.);
#900=EDGE_CURVE('',#1056,#1053,#149,.T.);
#901=EDGE_CURVE('',#1057,#1052,#150,.T.);
#902=EDGE_CURVE('',#1055,#1057,#151,.T.);
#903=EDGE_CURVE('',#1058,#1054,#152,.T.);
#904=EDGE_CURVE('',#1057,#1058,#153,.T.);
#905=EDGE_CURVE('',#1059,#960,#154,.T.);
#906=EDGE_CURVE('',#1060,#1059,#155,.T.);
#907=EDGE_CURVE('',#1061,#1060,#156,.T.);
#908=EDGE_CURVE('',#1061,#1062,#157,.T.);
#909=EDGE_CURVE('',#1062,#961,#158,.T.);
#910=EDGE_CURVE('',#1060,#1063,#159,.T.);
#911=EDGE_CURVE('',#1064,#1063,#160,.T.);
#912=EDGE_CURVE('',#1061,#1064,#161,.T.);
#913=EDGE_CURVE('',#1063,#1065,#162,.T.);
#914=EDGE_CURVE('',#1065,#958,#163,.T.);
#915=EDGE_CURVE('',#1066,#959,#164,.T.);
#916=EDGE_CURVE('',#1066,#1067,#165,.T.);
#917=EDGE_CURVE('',#1068,#1067,#166,.T.);
#918=EDGE_CURVE('',#1064,#1068,#167,.T.);
#919=EDGE_CURVE('',#1062,#1068,#168,.T.);
#920=EDGE_CURVE('',#1069,#1067,#169,.T.);
#921=EDGE_CURVE('',#1069,#962,#170,.T.);
#922=EDGE_CURVE('',#1056,#1058,#171,.T.);
#923=EDGE_CURVE('',#1070,#1070,#1102,.T.);
#924=EDGE_CURVE('',#1071,#1071,#1103,.T.);
#925=EDGE_CURVE('',#1072,#1073,#172,.T.);
#926=EDGE_CURVE('',#1073,#1074,#1104,.T.);
#927=EDGE_CURVE('',#1075,#1074,#173,.T.);
#928=EDGE_CURVE('',#1075,#1076,#1105,.T.);
#929=EDGE_CURVE('',#1077,#1076,#174,.T.);
#930=EDGE_CURVE('',#1077,#1078,#1106,.T.);
#931=EDGE_CURVE('',#1078,#1079,#175,.T.);
#932=EDGE_CURVE('',#1079,#1072,#1107,.T.);
#933=EDGE_CURVE('',#1073,#1080,#176,.T.);
#934=EDGE_CURVE('',#1081,#1080,#1108,.T.);
#935=EDGE_CURVE('',#1078,#1081,#177,.T.);
#936=EDGE_CURVE('',#1077,#1082,#178,.T.);
#937=EDGE_CURVE('',#1083,#1082,#1109,.T.);
#938=EDGE_CURVE('',#1074,#1083,#179,.T.);
#939=EDGE_CURVE('',#1084,#1083,#180,.T.);
#940=EDGE_CURVE('',#1075,#1084,#181,.T.);
#941=EDGE_CURVE('',#1084,#1085,#1110,.T.);
#942=EDGE_CURVE('',#1076,#1085,#182,.T.);
#943=EDGE_CURVE('',#1082,#1085,#183,.T.);
#944=EDGE_CURVE('',#1081,#1086,#184,.T.);
#945=EDGE_CURVE('',#1079,#1086,#185,.T.);
#946=EDGE_CURVE('',#1086,#1087,#1111,.T.);
#947=EDGE_CURVE('',#1072,#1087,#186,.T.);
#948=EDGE_CURVE('',#1087,#1080,#187,.T.);
#949=EDGE_CURVE('',#970,#972,#188,.T.);
#950=EDGE_CURVE('',#971,#975,#189,.T.);
#951=EDGE_CURVE('',#1069,#988,#190,.T.);
#952=EDGE_CURVE('',#1066,#1088,#191,.T.);
#953=EDGE_CURVE('',#990,#1088,#192,.T.);
#954=EDGE_CURVE('',#1088,#967,#193,.T.);
#955=EDGE_CURVE('',#1065,#1059,#194,.T.);
#956=VERTEX_POINT('',#1916);
#957=VERTEX_POINT('',#1918);
#958=VERTEX_POINT('',#1920);
#959=VERTEX_POINT('',#1921);
#960=VERTEX_POINT('',#1923);
#961=VERTEX_POINT('',#1925);
#962=VERTEX_POINT('',#1927);
#963=VERTEX_POINT('',#1929);
#964=VERTEX_POINT('',#1931);
#965=VERTEX_POINT('',#1933);
#966=VERTEX_POINT('',#1935);
#967=VERTEX_POINT('',#1937);
#968=VERTEX_POINT('',#1941);
#969=VERTEX_POINT('',#1942);
#970=VERTEX_POINT('',#1944);
#971=VERTEX_POINT('',#1946);
#972=VERTEX_POINT('',#1950);
#973=VERTEX_POINT('',#1951);
#974=VERTEX_POINT('',#1953);
#975=VERTEX_POINT('',#1955);
#976=VERTEX_POINT('',#1959);
#977=VERTEX_POINT('',#1961);
#978=VERTEX_POINT('',#1965);
#979=VERTEX_POINT('',#1967);
#980=VERTEX_POINT('',#1971);
#981=VERTEX_POINT('',#1973);
#982=VERTEX_POINT('',#1977);
#983=VERTEX_POINT('',#1979);
#984=VERTEX_POINT('',#1986);
#985=VERTEX_POINT('',#1987);
#986=VERTEX_POINT('',#1989);
#987=VERTEX_POINT('',#1991);
#988=VERTEX_POINT('',#1995);
#989=VERTEX_POINT('',#1998);
#990=VERTEX_POINT('',#2002);
#991=VERTEX_POINT('',#2005);
#992=VERTEX_POINT('',#2009);
#993=VERTEX_POINT('',#2010);
#994=VERTEX_POINT('',#2012);
#995=VERTEX_POINT('',#2014);
#996=VERTEX_POINT('',#2018);
#997=VERTEX_POINT('',#2020);
#998=VERTEX_POINT('',#2024);
#999=VERTEX_POINT('',#2026);
#1000=VERTEX_POINT('',#2033);
#1001=VERTEX_POINT('',#2034);
#1002=VERTEX_POINT('',#2036);
#1003=VERTEX_POINT('',#2038);
#1004=VERTEX_POINT('',#2042);
#1005=VERTEX_POINT('',#2044);
#1006=VERTEX_POINT('',#2048);
#1007=VERTEX_POINT('',#2050);
#1008=VERTEX_POINT('',#2057);
#1009=VERTEX_POINT('',#2058);
#1010=VERTEX_POINT('',#2060);
#1011=VERTEX_POINT('',#2062);
#1012=VERTEX_POINT('',#2066);
#1013=VERTEX_POINT('',#2068);
#1014=VERTEX_POINT('',#2072);
#1015=VERTEX_POINT('',#2074);
#1016=VERTEX_POINT('',#2081);
#1017=VERTEX_POINT('',#2082);
#1018=VERTEX_POINT('',#2084);
#1019=VERTEX_POINT('',#2086);
#1020=VERTEX_POINT('',#2090);
#1021=VERTEX_POINT('',#2092);
#1022=VERTEX_POINT('',#2096);
#1023=VERTEX_POINT('',#2098);
#1024=VERTEX_POINT('',#2105);
#1025=VERTEX_POINT('',#2106);
#1026=VERTEX_POINT('',#2108);
#1027=VERTEX_POINT('',#2110);
#1028=VERTEX_POINT('',#2114);
#1029=VERTEX_POINT('',#2116);
#1030=VERTEX_POINT('',#2120);
#1031=VERTEX_POINT('',#2122);
#1032=VERTEX_POINT('',#2130);
#1033=VERTEX_POINT('',#2132);
#1034=VERTEX_POINT('',#2134);
#1035=VERTEX_POINT('',#2135);
#1036=VERTEX_POINT('',#2137);
#1037=VERTEX_POINT('',#2139);
#1038=VERTEX_POINT('',#2141);
#1039=VERTEX_POINT('',#2143);
#1040=VERTEX_POINT('',#2145);
#1041=VERTEX_POINT('',#2147);
#1042=VERTEX_POINT('',#2150);
#1043=VERTEX_POINT('',#2153);
#1044=VERTEX_POINT('',#2154);
#1045=VERTEX_POINT('',#2156);
#1046=VERTEX_POINT('',#2158);
#1047=VERTEX_POINT('',#2160);
#1048=VERTEX_POINT('',#2162);
#1049=VERTEX_POINT('',#2164);
#1050=VERTEX_POINT('',#2166);
#1051=VERTEX_POINT('',#2169);
#1052=VERTEX_POINT('',#2170);
#1053=VERTEX_POINT('',#2172);
#1054=VERTEX_POINT('',#2174);
#1055=VERTEX_POINT('',#2190);
#1056=VERTEX_POINT('',#2192);
#1057=VERTEX_POINT('',#2196);
#1058=VERTEX_POINT('',#2200);
#1059=VERTEX_POINT('',#2204);
#1060=VERTEX_POINT('',#2206);
#1061=VERTEX_POINT('',#2208);
#1062=VERTEX_POINT('',#2210);
#1063=VERTEX_POINT('',#2214);
#1064=VERTEX_POINT('',#2216);
#1065=VERTEX_POINT('',#2220);
#1066=VERTEX_POINT('',#2223);
#1067=VERTEX_POINT('',#2225);
#1068=VERTEX_POINT('',#2227);
#1069=VERTEX_POINT('',#2232);
#1070=VERTEX_POINT('',#2242);
#1071=VERTEX_POINT('',#2244);
#1072=VERTEX_POINT('',#2247);
#1073=VERTEX_POINT('',#2248);
#1074=VERTEX_POINT('',#2250);
#1075=VERTEX_POINT('',#2252);
#1076=VERTEX_POINT('',#2254);
#1077=VERTEX_POINT('',#2256);
#1078=VERTEX_POINT('',#2258);
#1079=VERTEX_POINT('',#2260);
#1080=VERTEX_POINT('',#2264);
#1081=VERTEX_POINT('',#2266);
#1082=VERTEX_POINT('',#2269);
#1083=VERTEX_POINT('',#2271);
#1084=VERTEX_POINT('',#2275);
#1085=VERTEX_POINT('',#2279);
#1086=VERTEX_POINT('',#2285);
#1087=VERTEX_POINT('',#2289);
#1088=VERTEX_POINT('',#2307);
#1089=CIRCLE('',#1454,0.00125);
#1090=CIRCLE('',#1455,0.00125);
#1091=CIRCLE('',#1487,0.00125);
#1092=CIRCLE('',#1488,0.00125);
#1093=CIRCLE('',#1489,0.00762);
#1094=CIRCLE('',#1490,0.00762);
#1095=CIRCLE('',#1491,0.00762);
#1096=CIRCLE('',#1492,0.00762);
#1097=CIRCLE('',#1493,0.0061);
#1098=CIRCLE('',#1495,0.00762);
#1099=CIRCLE('',#1496,0.00762);
#1100=CIRCLE('',#1497,0.00762);
#1101=CIRCLE('',#1498,0.00762);
#1102=CIRCLE('',#1516,0.007);
#1103=CIRCLE('',#1517,0.007);
#1104=CIRCLE('',#1519,0.0061);
#1105=CIRCLE('',#1520,0.0045);
#1106=CIRCLE('',#1521,0.0061);
#1107=CIRCLE('',#1522,0.0045);
#1108=CIRCLE('',#1524,0.0061);
#1109=CIRCLE('',#1525,0.0061);
#1110=CIRCLE('',#1528,0.0045);
#1111=CIRCLE('',#1532,0.0045);
#1112=EDGE_LOOP('',(#368));
#1113=EDGE_LOOP('',(#369));
#1114=EDGE_LOOP('',(#370,#371,#372,#373,#374,#375,#376,#377,#378,#379));
#1115=EDGE_LOOP('',(#380,#381,#382,#383));
#1116=EDGE_LOOP('',(#384,#385,#386,#387));
#1117=EDGE_LOOP('',(#388,#389,#390,#391));
#1118=EDGE_LOOP('',(#392,#393,#394,#395));
#1119=EDGE_LOOP('',(#396,#397,#398,#399));
#1120=EDGE_LOOP('',(#400,#401,#402,#403));
#1121=EDGE_LOOP('',(#404,#405,#406,#407));
#1122=EDGE_LOOP('',(#408,#409,#410,#411));
#1123=EDGE_LOOP('',(#412,#413,#414,#415,#416,#417));
#1124=EDGE_LOOP('',(#418,#419,#420,#421,#422,#423));
#1125=EDGE_LOOP('',(#424,#425,#426,#427));
#1126=EDGE_LOOP('',(#428,#429,#430,#431));
#1127=EDGE_LOOP('',(#432,#433,#434,#435));
#1128=EDGE_LOOP('',(#436,#437,#438,#439));
#1129=EDGE_LOOP('',(#440,#441,#442,#443));
#1130=EDGE_LOOP('',(#444,#445,#446,#447));
#1131=EDGE_LOOP('',(#448,#449,#450,#451));
#1132=EDGE_LOOP('',(#452,#453,#454,#455));
#1133=EDGE_LOOP('',(#456,#457,#458,#459));
#1134=EDGE_LOOP('',(#460,#461,#462,#463));
#1135=EDGE_LOOP('',(#464,#465,#466,#467));
#1136=EDGE_LOOP('',(#468,#469,#470,#471));
#1137=EDGE_LOOP('',(#472,#473,#474,#475));
#1138=EDGE_LOOP('',(#476,#477,#478,#479));
#1139=EDGE_LOOP('',(#480,#481,#482,#483));
#1140=EDGE_LOOP('',(#484,#485,#486,#487));
#1141=EDGE_LOOP('',(#488,#489,#490,#491));
#1142=EDGE_LOOP('',(#492,#493,#494,#495));
#1143=EDGE_LOOP('',(#496,#497,#498,#499));
#1144=EDGE_LOOP('',(#500,#501,#502,#503));
#1145=EDGE_LOOP('',(#504,#505,#506,#507));
#1146=EDGE_LOOP('',(#508,#509,#510,#511));
#1147=EDGE_LOOP('',(#512,#513,#514,#515));
#1148=EDGE_LOOP('',(#516));
#1149=EDGE_LOOP('',(#517));
#1150=EDGE_LOOP('',(#518,#519,#520,#521,#522,#523,#524,#525));
#1151=EDGE_LOOP('',(#526,#527,#528,#529));
#1152=EDGE_LOOP('',(#530,#531,#532,#533));
#1153=EDGE_LOOP('',(#534,#535,#536,#537));
#1154=EDGE_LOOP('',(#538));
#1155=EDGE_LOOP('',(#539,#540,#541,#542,#543,#544,#545,#546));
#1156=EDGE_LOOP('',(#547,#548,#549,#550));
#1157=EDGE_LOOP('',(#551,#552,#553,#554));
#1158=EDGE_LOOP('',(#555,#556,#557,#558));
#1159=EDGE_LOOP('',(#559,#560,#561,#562));
#1160=EDGE_LOOP('',(#563,#564,#565,#566));
#1161=EDGE_LOOP('',(#567,#568,#569,#570));
#1162=EDGE_LOOP('',(#571,#572,#573,#574));
#1163=EDGE_LOOP('',(#575,#576,#577,#578));
#1164=EDGE_LOOP('',(#579,#580,#581,#582,#583,#584));
#1165=EDGE_LOOP('',(#585,#586,#587,#588));
#1166=EDGE_LOOP('',(#589,#590,#591,#592,#593,#594,#595,#596));
#1167=EDGE_LOOP('',(#597,#598,#599,#600,#601,#602));
#1168=EDGE_LOOP('',(#603,#604,#605,#606));
#1169=EDGE_LOOP('',(#607,#608,#609,#610));
#1170=EDGE_LOOP('',(#611,#612,#613,#614));
#1171=EDGE_LOOP('',(#615));
#1172=EDGE_LOOP('',(#616));
#1173=EDGE_LOOP('',(#617));
#1174=EDGE_LOOP('',(#618));
#1175=EDGE_LOOP('',(#619,#620,#621,#622));
#1176=EDGE_LOOP('',(#623));
#1177=EDGE_LOOP('',(#624));
#1178=EDGE_LOOP('',(#625,#626,#627,#628,#629,#630,#631,#632));
#1179=EDGE_LOOP('',(#633));
#1180=EDGE_LOOP('',(#634));
#1181=EDGE_LOOP('',(#635,#636,#637,#638,#639,#640,#641,#642));
#1182=EDGE_LOOP('',(#643,#644,#645,#646));
#1183=EDGE_LOOP('',(#647,#648,#649,#650));
#1184=EDGE_LOOP('',(#651,#652,#653,#654));
#1185=EDGE_LOOP('',(#655,#656,#657,#658));
#1186=EDGE_LOOP('',(#659,#660,#661,#662));
#1187=EDGE_LOOP('',(#663,#664,#665,#666));
#1188=EDGE_LOOP('',(#667,#668,#669,#670));
#1189=EDGE_LOOP('',(#671,#672,#673,#674));
#1190=EDGE_LOOP('',(#675,#676,#677,#678));
#1191=EDGE_LOOP('',(#679,#680,#681,#682));
#1192=EDGE_LOOP('',(#683,#684,#685,#686));
#1193=EDGE_LOOP('',(#687,#688,#689,#690));
#1194=EDGE_LOOP('',(#691,#692,#693,#694,#695,#696,#697,#698));
#1195=EDGE_LOOP('',(#699,#700,#701,#702));
#1196=EDGE_LOOP('',(#703,#704,#705,#706));
#1197=EDGE_LOOP('',(#707,#708,#709,#710));
#1198=EDGE_LOOP('',(#711,#712,#713,#714));
#1199=EDGE_LOOP('',(#715,#716,#717,#718));
#1200=EDGE_LOOP('',(#719,#720,#721,#722));
#1201=EDGE_LOOP('',(#723,#724,#725,#726));
#1202=EDGE_LOOP('',(#727,#728,#729,#730,#731,#732,#733,#734));
#1203=EDGE_LOOP('',(#735,#736,#737,#738));
#1204=EDGE_LOOP('',(#739,#740,#741,#742));
#1205=EDGE_LOOP('',(#743,#744,#745,#746));
#1206=EDGE_LOOP('',(#747,#748,#749,#750));
#1207=EDGE_LOOP('',(#751,#752,#753,#754,#755,#756,#757,#758));
#1208=EDGE_LOOP('',(#759));
#1209=FACE_BOUND('',#1112,.T.);
#1210=FACE_BOUND('',#1113,.T.);
#1211=FACE_BOUND('',#1114,.T.);
#1212=FACE_BOUND('',#1115,.T.);
#1213=FACE_BOUND('',#1116,.T.);
#1214=FACE_BOUND('',#1117,.T.);
#1215=FACE_BOUND('',#1118,.T.);
#1216=FACE_BOUND('',#1119,.T.);
#1217=FACE_BOUND('',#1120,.T.);
#1218=FACE_BOUND('',#1121,.T.);
#1219=FACE_BOUND('',#1122,.T.);
#1220=FACE_BOUND('',#1123,.T.);
#1221=FACE_BOUND('',#1124,.T.);
#1222=FACE_BOUND('',#1125,.T.);
#1223=FACE_BOUND('',#1126,.T.);
#1224=FACE_BOUND('',#1127,.T.);
#1225=FACE_BOUND('',#1128,.T.);
#1226=FACE_BOUND('',#1129,.T.);
#1227=FACE_BOUND('',#1130,.T.);
#1228=FACE_BOUND('',#1131,.T.);
#1229=FACE_BOUND('',#1132,.T.);
#1230=FACE_BOUND('',#1133,.T.);
#1231=FACE_BOUND('',#1134,.T.);
#1232=FACE_BOUND('',#1135,.T.);
#1233=FACE_BOUND('',#1136,.T.);
#1234=FACE_BOUND('',#1137,.T.);
#1235=FACE_BOUND('',#1138,.T.);
#1236=FACE_BOUND('',#1139,.T.);
#1237=FACE_BOUND('',#1140,.T.);
#1238=FACE_BOUND('',#1141,.T.);
#1239=FACE_BOUND('',#1142,.T.);
#1240=FACE_BOUND('',#1143,.T.);
#1241=FACE_BOUND('',#1144,.T.);
#1242=FACE_BOUND('',#1145,.T.);
#1243=FACE_BOUND('',#1146,.T.);
#1244=FACE_BOUND('',#1147,.T.);
#1245=FACE_BOUND('',#1148,.T.);
#1246=FACE_BOUND('',#1149,.T.);
#1247=FACE_BOUND('',#1150,.T.);
#1248=FACE_BOUND('',#1151,.T.);
#1249=FACE_BOUND('',#1152,.T.);
#1250=FACE_BOUND('',#1153,.T.);
#1251=FACE_BOUND('',#1154,.T.);
#1252=FACE_BOUND('',#1155,.T.);
#1253=FACE_BOUND('',#1156,.T.);
#1254=FACE_BOUND('',#1157,.T.);
#1255=FACE_BOUND('',#1158,.T.);
#1256=FACE_BOUND('',#1159,.T.);
#1257=FACE_BOUND('',#1160,.T.);
#1258=FACE_BOUND('',#1161,.T.);
#1259=FACE_BOUND('',#1162,.T.);
#1260=FACE_BOUND('',#1163,.T.);
#1261=FACE_BOUND('',#1164,.T.);
#1262=FACE_BOUND('',#1165,.T.);
#1263=FACE_BOUND('',#1166,.T.);
#1264=FACE_BOUND('',#1167,.T.);
#1265=FACE_BOUND('',#1168,.T.);
#1266=FACE_BOUND('',#1169,.T.);
#1267=FACE_BOUND('',#1170,.T.);
#1268=FACE_BOUND('',#1171,.T.);
#1269=FACE_BOUND('',#1172,.T.);
#1270=FACE_BOUND('',#1173,.T.);
#1271=FACE_BOUND('',#1174,.T.);
#1272=FACE_BOUND('',#1175,.T.);
#1273=FACE_BOUND('',#1176,.T.);
#1274=FACE_BOUND('',#1177,.T.);
#1275=FACE_BOUND('',#1178,.T.);
#1276=FACE_BOUND('',#1179,.T.);
#1277=FACE_BOUND('',#1180,.T.);
#1278=FACE_BOUND('',#1181,.T.);
#1279=FACE_BOUND('',#1182,.T.);
#1280=FACE_BOUND('',#1183,.T.);
#1281=FACE_BOUND('',#1184,.T.);
#1282=FACE_BOUND('',#1185,.T.);
#1283=FACE_BOUND('',#1186,.T.);
#1284=FACE_BOUND('',#1187,.T.);
#1285=FACE_BOUND('',#1188,.T.);
#1286=FACE_BOUND('',#1189,.T.);
#1287=FACE_BOUND('',#1190,.T.);
#1288=FACE_BOUND('',#1191,.T.);
#1289=FACE_BOUND('',#1192,.T.);
#1290=FACE_BOUND('',#1193,.T.);
#1291=FACE_BOUND('',#1194,.T.);
#1292=FACE_BOUND('',#1195,.T.);
#1293=FACE_BOUND('',#1196,.T.);
#1294=FACE_BOUND('',#1197,.T.);
#1295=FACE_BOUND('',#1198,.T.);
#1296=FACE_BOUND('',#1199,.T.);
#1297=FACE_BOUND('',#1200,.T.);
#1298=FACE_BOUND('',#1201,.T.);
#1299=FACE_BOUND('',#1202,.T.);
#1300=FACE_BOUND('',#1203,.T.);
#1301=FACE_BOUND('',#1204,.T.);
#1302=FACE_BOUND('',#1205,.T.);
#1303=FACE_BOUND('',#1206,.T.);
#1304=FACE_BOUND('',#1207,.T.);
#1305=FACE_BOUND('',#1208,.T.);
#1306=PLANE('',#1453);
#1307=PLANE('',#1456);
#1308=PLANE('',#1457);
#1309=PLANE('',#1458);
#1310=PLANE('',#1459);
#1311=PLANE('',#1460);
#1312=PLANE('',#1461);
#1313=PLANE('',#1462);
#1314=PLANE('',#1463);
#1315=PLANE('',#1464);
#1316=PLANE('',#1465);
#1317=PLANE('',#1466);
#1318=PLANE('',#1467);
#1319=PLANE('',#1468);
#1320=PLANE('',#1469);
#1321=PLANE('',#1470);
#1322=PLANE('',#1471);
#1323=PLANE('',#1472);
#1324=PLANE('',#1473);
#1325=PLANE('',#1474);
#1326=PLANE('',#1475);
#1327=PLANE('',#1476);
#1328=PLANE('',#1477);
#1329=PLANE('',#1478);
#1330=PLANE('',#1479);
#1331=PLANE('',#1480);
#1332=PLANE('',#1481);
#1333=PLANE('',#1482);
#1334=PLANE('',#1483);
#1335=PLANE('',#1484);
#1336=PLANE('',#1485);
#1337=PLANE('',#1486);
#1338=PLANE('',#1494);
#1339=PLANE('',#1499);
#1340=PLANE('',#1500);
#1341=PLANE('',#1501);
#1342=PLANE('',#1502);
#1343=PLANE('',#1503);
#1344=PLANE('',#1504);
#1345=PLANE('',#1505);
#1346=PLANE('',#1506);
#1347=PLANE('',#1507);
#1348=PLANE('',#1508);
#1349=PLANE('',#1509);
#1350=PLANE('',#1510);
#1351=PLANE('',#1511);
#1352=PLANE('',#1514);
#1353=PLANE('',#1518);
#1354=PLANE('',#1526);
#1355=PLANE('',#1529);
#1356=PLANE('',#1530);
#1357=PLANE('',#1533);
#1358=PLANE('',#1534);
#1359=PLANE('',#1535);
#1360=PLANE('',#1536);
#1361=PLANE('',#1537);
#1362=PLANE('',#1542);
#1363=PLANE('',#1543);
#1364=PLANE('',#1544);
#1365=PLANE('',#1545);
#1366=PLANE('',#1546);
#1367=PLANE('',#1547);
#1368=ADVANCED_FACE('',(#1209,#1210,#1211),#1306,.T.);
#1369=ADVANCED_FACE('',(#1212),#1307,.T.);
#1370=ADVANCED_FACE('',(#1213),#1308,.F.);
#1371=ADVANCED_FACE('',(#1214),#1309,.F.);
#1372=ADVANCED_FACE('',(#1215),#1310,.T.);
#1373=ADVANCED_FACE('',(#1216),#1311,.T.);
#1374=ADVANCED_FACE('',(#1217),#1312,.F.);
#1375=ADVANCED_FACE('',(#1218),#1313,.F.);
#1376=ADVANCED_FACE('',(#1219),#1314,.T.);
#1377=ADVANCED_FACE('',(#1220),#1315,.F.);
#1378=ADVANCED_FACE('',(#1221),#1316,.T.);
#1379=ADVANCED_FACE('',(#1222),#1317,.T.);
#1380=ADVANCED_FACE('',(#1223),#1318,.F.);
#1381=ADVANCED_FACE('',(#1224),#1319,.F.);
#1382=ADVANCED_FACE('',(#1225),#1320,.T.);
#1383=ADVANCED_FACE('',(#1226),#1321,.T.);
#1384=ADVANCED_FACE('',(#1227),#1322,.F.);
#1385=ADVANCED_FACE('',(#1228),#1323,.F.);
#1386=ADVANCED_FACE('',(#1229),#1324,.T.);
#1387=ADVANCED_FACE('',(#1230),#1325,.T.);
#1388=ADVANCED_FACE('',(#1231),#1326,.F.);
#1389=ADVANCED_FACE('',(#1232),#1327,.F.);
#1390=ADVANCED_FACE('',(#1233),#1328,.T.);
#1391=ADVANCED_FACE('',(#1234),#1329,.T.);
#1392=ADVANCED_FACE('',(#1235),#1330,.F.);
#1393=ADVANCED_FACE('',(#1236),#1331,.F.);
#1394=ADVANCED_FACE('',(#1237),#1332,.T.);
#1395=ADVANCED_FACE('',(#1238),#1333,.T.);
#1396=ADVANCED_FACE('',(#1239),#1334,.F.);
#1397=ADVANCED_FACE('',(#1240),#1335,.F.);
#1398=ADVANCED_FACE('',(#1241),#1336,.T.);
#1399=ADVANCED_FACE('',(#1242,#1243,#1244,#1245,#1246,#1247,#1248,#1249,
#1250,#1251),#1337,.F.);
#1400=ADVANCED_FACE('',(#1252,#1253),#1338,.T.);
#1401=ADVANCED_FACE('',(#1254),#1339,.T.);
#1402=ADVANCED_FACE('',(#1255),#1340,.F.);
#1403=ADVANCED_FACE('',(#1256),#1341,.F.);
#1404=ADVANCED_FACE('',(#1257),#1342,.T.);
#1405=ADVANCED_FACE('',(#1258),#1343,.T.);
#1406=ADVANCED_FACE('',(#1259),#1344,.F.);
#1407=ADVANCED_FACE('',(#1260),#1345,.F.);
#1408=ADVANCED_FACE('',(#1261),#1346,.T.);
#1409=ADVANCED_FACE('',(#1262),#1347,.F.);
#1410=ADVANCED_FACE('',(#1263),#1348,.F.);
#1411=ADVANCED_FACE('',(#1264),#1349,.T.);
#1412=ADVANCED_FACE('',(#1265),#1350,.T.);
#1413=ADVANCED_FACE('',(#1266,#1267),#1351,.T.);
#1414=ADVANCED_FACE('',(#1268,#1269),#12,.F.);
#1415=ADVANCED_FACE('',(#1270,#1271),#13,.F.);
#1416=ADVANCED_FACE('',(#1272),#1352,.F.);
#1417=ADVANCED_FACE('',(#1273,#1274),#14,.T.);
#1418=ADVANCED_FACE('',(#1275,#1276),#1353,.F.);
#1419=ADVANCED_FACE('',(#1277,#1278),#15,.F.);
#1420=ADVANCED_FACE('',(#1279),#1354,.T.);
#1421=ADVANCED_FACE('',(#1280),#16,.F.);
#1422=ADVANCED_FACE('',(#1281),#1355,.T.);
#1423=ADVANCED_FACE('',(#1282),#1356,.F.);
#1424=ADVANCED_FACE('',(#1283),#17,.F.);
#1425=ADVANCED_FACE('',(#1284),#1357,.F.);
#1426=ADVANCED_FACE('',(#1285),#1358,.T.);
#1427=ADVANCED_FACE('',(#1286),#1359,.T.);
#1428=ADVANCED_FACE('',(#1287),#1360,.F.);
#1429=ADVANCED_FACE('',(#1288,#1289,#1290,#1291,#1292,#1293),#1361,.T.);
#1430=ADVANCED_FACE('',(#1294),#18,.T.);
#1431=ADVANCED_FACE('',(#1295),#19,.T.);
#1432=ADVANCED_FACE('',(#1296),#20,.T.);
#1433=ADVANCED_FACE('',(#1297),#21,.T.);
#1434=ADVANCED_FACE('',(#1298),#1362,.T.);
#1435=ADVANCED_FACE('',(#1299),#1363,.T.);
#1436=ADVANCED_FACE('',(#1300),#1364,.T.);
#1437=ADVANCED_FACE('',(#1301),#1365,.F.);
#1438=ADVANCED_FACE('',(#1302),#1366,.T.);
#1439=ADVANCED_FACE('',(#1303,#1304,#1305),#1367,.T.);
#1440=CLOSED_SHELL('',(#1368,#1369,#1370,#1371,#1372,#1373,#1374,#1375,
#1376,#1377,#1378,#1379,#1380,#1381,#1382,#1383,#1384,#1385,#1386,#1387,
#1388,#1389,#1390,#1391,#1392,#1393,#1394,#1395,#1396,#1397,#1398,#1399,
#1400,#1401,#1402,#1403,#1404,#1405,#1406,#1407,#1408,#1409,#1410,#1411,
#1412,#1413,#1414,#1415,#1416,#1417,#1418,#1419,#1420,#1421,#1422,#1423,
#1424,#1425,#1426,#1427,#1428,#1429,#1430,#1431,#1432,#1433,#1434,#1435,
#1436,#1437,#1438,#1439));
#1441=STYLED_ITEM('',(#1442),#1449);
#1442=PRESENTATION_STYLE_ASSIGNMENT((#1443));
#1443=SURFACE_STYLE_USAGE(.BOTH.,#1444);
#1444=SURFACE_SIDE_STYLE('',(#1445));
#1445=SURFACE_STYLE_FILL_AREA(#1446);
#1446=FILL_AREA_STYLE('',(#1447));
#1447=FILL_AREA_STYLE_COLOUR('',#1448);
#1448=COLOUR_RGB('',0.615686274509804,0.811764705882353,0.929411764705882);
#1449=MANIFOLD_SOLID_BREP('Part 1',#1440);
#1450=SHAPE_DEFINITION_REPRESENTATION(#2321,#1451);
#1451=SHAPE_REPRESENTATION('Part 1',(#1452),#2316);
#1452=AXIS2_PLACEMENT_3D('',#1913,#1548,#1549);
#1453=AXIS2_PLACEMENT_3D('',#1914,#1550,#1551);
#1454=AXIS2_PLACEMENT_3D('',#1915,#1552,#1553);
#1455=AXIS2_PLACEMENT_3D('',#1917,#1554,#1555);
#1456=AXIS2_PLACEMENT_3D('',#1939,#1566,#1567);
#1457=AXIS2_PLACEMENT_3D('',#1948,#1572,#1573);
#1458=AXIS2_PLACEMENT_3D('',#1957,#1578,#1579);
#1459=AXIS2_PLACEMENT_3D('',#1963,#1583,#1584);
#1460=AXIS2_PLACEMENT_3D('',#1969,#1588,#1589);
#1461=AXIS2_PLACEMENT_3D('',#1975,#1593,#1594);
#1462=AXIS2_PLACEMENT_3D('',#1981,#1598,#1599);
#1463=AXIS2_PLACEMENT_3D('',#1984,#1602,#1603);
#1464=AXIS2_PLACEMENT_3D('',#1993,#1608,#1609);
#1465=AXIS2_PLACEMENT_3D('',#2000,#1614,#1615);
#1466=AXIS2_PLACEMENT_3D('',#2007,#1620,#1621);
#1467=AXIS2_PLACEMENT_3D('',#2016,#1626,#1627);
#1468=AXIS2_PLACEMENT_3D('',#2022,#1631,#1632);
#1469=AXIS2_PLACEMENT_3D('',#2028,#1636,#1637);
#1470=AXIS2_PLACEMENT_3D('',#2031,#1640,#1641);
#1471=AXIS2_PLACEMENT_3D('',#2040,#1646,#1647);
#1472=AXIS2_PLACEMENT_3D('',#2046,#1651,#1652);
#1473=AXIS2_PLACEMENT_3D('',#2052,#1656,#1657);
#1474=AXIS2_PLACEMENT_3D('',#2055,#1660,#1661);
#1475=AXIS2_PLACEMENT_3D('',#2064,#1666,#1667);
#1476=AXIS2_PLACEMENT_3D('',#2070,#1671,#1672);
#1477=AXIS2_PLACEMENT_3D('',#2076,#1676,#1677);
#1478=AXIS2_PLACEMENT_3D('',#2079,#1680,#1681);
#1479=AXIS2_PLACEMENT_3D('',#2088,#1686,#1687);
#1480=AXIS2_PLACEMENT_3D('',#2094,#1691,#1692);
#1481=AXIS2_PLACEMENT_3D('',#2100,#1696,#1697);
#1482=AXIS2_PLACEMENT_3D('',#2103,#1700,#1701);
#1483=AXIS2_PLACEMENT_3D('',#2112,#1706,#1707);
#1484=AXIS2_PLACEMENT_3D('',#2118,#1711,#1712);
#1485=AXIS2_PLACEMENT_3D('',#2124,#1716,#1717);
#1486=AXIS2_PLACEMENT_3D('',#2127,#1720,#1721);
#1487=AXIS2_PLACEMENT_3D('',#2129,#1723,#1724);
#1488=AXIS2_PLACEMENT_3D('',#2131,#1725,#1726);
#1489=AXIS2_PLACEMENT_3D('',#2136,#1728,#1729);
#1490=AXIS2_PLACEMENT_3D('',#2140,#1731,#1732);
#1491=AXIS2_PLACEMENT_3D('',#2144,#1734,#1735);
#1492=AXIS2_PLACEMENT_3D('',#2148,#1737,#1738);
#1493=AXIS2_PLACEMENT_3D('',#2149,#1739,#1740);
#1494=AXIS2_PLACEMENT_3D('',#2151,#1741,#1742);
#1495=AXIS2_PLACEMENT_3D('',#2155,#1744,#1745);
#1496=AXIS2_PLACEMENT_3D('',#2159,#1747,#1748);
#1497=AXIS2_PLACEMENT_3D('',#2163,#1750,#1751);
#1498=AXIS2_PLACEMENT_3D('',#2167,#1753,#1754);
#1499=AXIS2_PLACEMENT_3D('',#2176,#1759,#1760);
#1500=AXIS2_PLACEMENT_3D('',#2179,#1763,#1764);
#1501=AXIS2_PLACEMENT_3D('',#2182,#1767,#1768);
#1502=AXIS2_PLACEMENT_3D('',#2185,#1771,#1772);
#1503=AXIS2_PLACEMENT_3D('',#2188,#1775,#1776);
#1504=AXIS2_PLACEMENT_3D('',#2194,#1780,#1781);
#1505=AXIS2_PLACEMENT_3D('',#2198,#1784,#1785);
#1506=AXIS2_PLACEMENT_3D('',#2202,#1788,#1789);
#1507=AXIS2_PLACEMENT_3D('',#2212,#1795,#1796);
#1508=AXIS2_PLACEMENT_3D('',#2218,#1800,#1801);
#1509=AXIS2_PLACEMENT_3D('',#2229,#1808,#1809);
#1510=AXIS2_PLACEMENT_3D('',#2234,#1813,#1814);
#1511=AXIS2_PLACEMENT_3D('',#2236,#1816,#1817);
#1512=AXIS2_PLACEMENT_3D('',#2237,#1818,#1819);
#1513=AXIS2_PLACEMENT_3D('',#2238,#1820,#1821);
#1514=AXIS2_PLACEMENT_3D('',#2239,#1822,#1823);
#1515=AXIS2_PLACEMENT_3D('',#2240,#1824,#1825);
#1516=AXIS2_PLACEMENT_3D('',#2241,#1826,#1827);
#1517=AXIS2_PLACEMENT_3D('',#2243,#1828,#1829);
#1518=AXIS2_PLACEMENT_3D('',#2245,#1830,#1831);
#1519=AXIS2_PLACEMENT_3D('',#2249,#1833,#1834);
#1520=AXIS2_PLACEMENT_3D('',#2253,#1836,#1837);
#1521=AXIS2_PLACEMENT_3D('',#2257,#1839,#1840);
#1522=AXIS2_PLACEMENT_3D('',#2261,#1842,#1843);
#1523=AXIS2_PLACEMENT_3D('',#2262,#1844,#1845);
#1524=AXIS2_PLACEMENT_3D('',#2265,#1847,#1848);
#1525=AXIS2_PLACEMENT_3D('',#2270,#1851,#1852);
#1526=AXIS2_PLACEMENT_3D('',#2273,#1854,#1855);
#1527=AXIS2_PLACEMENT_3D('',#2277,#1858,#1859);
#1528=AXIS2_PLACEMENT_3D('',#2278,#1860,#1861);
#1529=AXIS2_PLACEMENT_3D('',#2281,#1863,#1864);
#1530=AXIS2_PLACEMENT_3D('',#2283,#1866,#1867);
#1531=AXIS2_PLACEMENT_3D('',#2287,#1870,#1871);
#1532=AXIS2_PLACEMENT_3D('',#2288,#1872,#1873);
#1533=AXIS2_PLACEMENT_3D('',#2291,#1875,#1876);
#1534=AXIS2_PLACEMENT_3D('',#2293,#1878,#1879);
#1535=AXIS2_PLACEMENT_3D('',#2294,#1880,#1881);
#1536=AXIS2_PLACEMENT_3D('',#2295,#1882,#1883);
#1537=AXIS2_PLACEMENT_3D('',#2298,#1886,#1887);
#1538=AXIS2_PLACEMENT_3D('',#2299,#1888,#1889);
#1539=AXIS2_PLACEMENT_3D('',#2300,#1890,#1891);
#1540=AXIS2_PLACEMENT_3D('',#2301,#1892,#1893);
#1541=AXIS2_PLACEMENT_3D('',#2302,#1894,#1895);
#1542=AXIS2_PLACEMENT_3D('',#2303,#1896,#1897);
#1543=AXIS2_PLACEMENT_3D('',#2305,#1899,#1900);
#1544=AXIS2_PLACEMENT_3D('',#2309,#1903,#1904);
#1545=AXIS2_PLACEMENT_3D('',#2311,#1906,#1907);
#1546=AXIS2_PLACEMENT_3D('',#2312,#1908,#1909);
#1547=AXIS2_PLACEMENT_3D('',#2314,#1911,#1912);
#1548=DIRECTION('',(0.,0.,1.));
#1549=DIRECTION('',(1.,0.,0.));
#1550=DIRECTION('',(0.,0.,1.));
#1551=DIRECTION('',(1.,0.,0.));
#1552=DIRECTION('',(0.,0.,-1.));
#1553=DIRECTION('',(-1.,0.,0.));
#1554=DIRECTION('',(0.,0.,-1.));
#1555=DIRECTION('',(-1.,0.,0.));
#1556=DIRECTION('',(0.,-1.,0.));
#1557=DIRECTION('',(-1.,0.,0.));
#1558=DIRECTION('',(0.,-1.,0.));
#1559=DIRECTION('',(1.,0.,0.));
#1560=DIRECTION('',(-2.85551189461203E-16,1.,0.));
#1561=DIRECTION('',(-1.,1.10141173077892E-16,0.));
#1562=DIRECTION('',(0.,1.,0.));
#1563=DIRECTION('',(-1.,2.20282346155785E-16,0.));
#1564=DIRECTION('',(-2.85551189461203E-16,1.,0.));
#1565=DIRECTION('',(-1.,0.,0.));
#1566=DIRECTION('',(1.,0.,0.));
#1567=DIRECTION('',(0.,0.,-1.));
#1568=DIRECTION('',(0.,0.,1.));
#1569=DIRECTION('',(0.,1.,0.));
#1570=DIRECTION('',(0.,0.,1.));
#1571=DIRECTION('',(0.,1.,0.));
#1572=DIRECTION('',(1.,0.,0.));
#1573=DIRECTION('',(0.,0.,-1.));
#1574=DIRECTION('',(0.,1.,0.));
#1575=DIRECTION('',(0.,0.,1.));
#1576=DIRECTION('',(0.,1.,0.));
#1577=DIRECTION('',(0.,0.,1.));
#1578=DIRECTION('',(0.,1.,0.));
#1579=DIRECTION('',(0.,0.,1.));
#1580=DIRECTION('',(-1.,0.,0.));
#1581=DIRECTION('',(0.,0.,1.));
#1582=DIRECTION('',(-1.,0.,0.));
#1583=DIRECTION('',(1.,0.,0.));
#1584=DIRECTION('',(0.,0.,-1.));
#1585=DIRECTION('',(0.,1.,0.));
#1586=DIRECTION('',(0.,0.,1.));
#1587=DIRECTION('',(0.,1.,0.));
#1588=DIRECTION('',(0.,1.,0.));
#1589=DIRECTION('',(0.,0.,1.));
#1590=DIRECTION('',(-1.,0.,0.));
#1591=DIRECTION('',(0.,0.,1.));
#1592=DIRECTION('',(-1.,0.,0.));
#1593=DIRECTION('',(1.,0.,0.));
#1594=DIRECTION('',(0.,0.,-1.));
#1595=DIRECTION('',(0.,1.,0.));
#1596=DIRECTION('',(0.,0.,1.));
#1597=DIRECTION('',(0.,1.,0.));
#1598=DIRECTION('',(0.,1.,0.));
#1599=DIRECTION('',(0.,0.,1.));
#1600=DIRECTION('',(-1.,0.,0.));
#1601=DIRECTION('',(-1.,0.,0.));
#1602=DIRECTION('',(-1.,0.,0.));
#1603=DIRECTION('',(0.,0.,1.));
#1604=DIRECTION('',(0.,0.,-1.));
#1605=DIRECTION('',(0.,1.,0.));
#1606=DIRECTION('',(0.,0.,-1.));
#1607=DIRECTION('',(0.,1.,0.));
#1608=DIRECTION('',(-1.10141173077892E-16,-1.,0.));
#1609=DIRECTION('',(1.,-1.10141173077892E-16,0.));
#1610=DIRECTION('',(0.,0.,1.));
#1611=DIRECTION('',(-1.,1.10141173077892E-16,0.));
#1612=DIRECTION('',(-1.,1.10141173077892E-16,0.));
#1613=DIRECTION('',(0.,0.,-1.));
#1614=DIRECTION('',(-2.20282346155785E-16,-1.,0.));
#1615=DIRECTION('',(1.,-2.20282346155785E-16,0.));
#1616=DIRECTION('',(-1.,2.20282346155785E-16,0.));
#1617=DIRECTION('',(0.,0.,1.));
#1618=DIRECTION('',(0.,0.,-1.));
#1619=DIRECTION('',(-1.,2.20282346155785E-16,0.));
#1620=DIRECTION('',(-1.,0.,0.));
#1621=DIRECTION('',(0.,0.,1.));
#1622=DIRECTION('',(0.,0.,-1.));
#1623=DIRECTION('',(0.,-1.,0.));
#1624=DIRECTION('',(0.,0.,-1.));
#1625=DIRECTION('',(0.,1.,0.));
#1626=DIRECTION('',(0.,-1.,0.));
#1627=DIRECTION('',(0.,0.,-1.));
#1628=DIRECTION('',(1.,0.,0.));
#1629=DIRECTION('',(-1.,0.,0.));
#1630=DIRECTION('',(0.,0.,-1.));
#1631=DIRECTION('',(-1.,0.,0.));
#1632=DIRECTION('',(0.,0.,1.));
#1633=DIRECTION('',(0.,-1.,0.));
#1634=DIRECTION('',(0.,1.,0.));
#1635=DIRECTION('',(0.,0.,-1.));
#1636=DIRECTION('',(0.,-1.,0.));
#1637=DIRECTION('',(0.,0.,-1.));
#1638=DIRECTION('',(1.,0.,0.));
#1639=DIRECTION('',(-1.,0.,0.));
#1640=DIRECTION('',(-1.,0.,0.));
#1641=DIRECTION('',(0.,0.,1.));
#1642=DIRECTION('',(0.,0.,-1.));
#1643=DIRECTION('',(0.,-1.,0.));
#1644=DIRECTION('',(0.,0.,-1.));
#1645=DIRECTION('',(0.,1.,0.));
#1646=DIRECTION('',(-1.1616451848059E-16,-1.,0.));
#1647=DIRECTION('',(1.,-1.1616451848059E-16,0.));
#1648=DIRECTION('',(1.,-1.1616451848059E-16,0.));
#1649=DIRECTION('',(-1.,1.1616451848059E-16,0.));
#1650=DIRECTION('',(0.,0.,-1.));
#1651=DIRECTION('',(-1.,0.,0.));
#1652=DIRECTION('',(0.,0.,1.));
#1653=DIRECTION('',(0.,-1.,0.));
#1654=DIRECTION('',(0.,1.,0.));
#1655=DIRECTION('',(0.,0.,-1.));
#1656=DIRECTION('',(0.,-1.,0.));
#1657=DIRECTION('',(0.,0.,-1.));
#1658=DIRECTION('',(1.,0.,0.));
#1659=DIRECTION('',(-1.,0.,0.));
#1660=DIRECTION('',(-1.,-2.47817639425258E-16,0.));
#1661=DIRECTION('',(2.47817639425259E-16,-1.,0.));
#1662=DIRECTION('',(0.,0.,-1.));
#1663=DIRECTION('',(2.47817639425259E-16,-1.,0.));
#1664=DIRECTION('',(0.,0.,-1.));
#1665=DIRECTION('',(-2.47817639425258E-16,1.,0.));
#1666=DIRECTION('',(1.23908819712629E-16,-1.,0.));
#1667=DIRECTION('',(1.,1.23908819712629E-16,0.));
#1668=DIRECTION('',(1.,1.23908819712629E-16,0.));
#1669=DIRECTION('',(-1.,-1.23908819712629E-16,0.));
#1670=DIRECTION('',(0.,0.,-1.));
#1671=DIRECTION('',(-1.,0.,0.));
#1672=DIRECTION('',(0.,0.,1.));
#1673=DIRECTION('',(0.,-1.,0.));
#1674=DIRECTION('',(0.,1.,0.));
#1675=DIRECTION('',(0.,0.,-1.));
#1676=DIRECTION('',(0.,-1.,0.));
#1677=DIRECTION('',(0.,0.,-1.));
#1678=DIRECTION('',(1.,0.,0.));
#1679=DIRECTION('',(-1.,0.,0.));
#1680=DIRECTION('',(-1.,0.,0.));
#1681=DIRECTION('',(0.,0.,1.));
#1682=DIRECTION('',(0.,0.,-1.));
#1683=DIRECTION('',(0.,-1.,0.));
#1684=DIRECTION('',(0.,0.,-1.));
#1685=DIRECTION('',(0.,1.,0.));
#1686=DIRECTION('',(0.,-1.,0.));
#1687=DIRECTION('',(0.,0.,-1.));
#1688=DIRECTION('',(1.,0.,0.));
#1689=DIRECTION('',(-1.,0.,0.));
#1690=DIRECTION('',(0.,0.,-1.));
#1691=DIRECTION('',(-1.,0.,0.));
#1692=DIRECTION('',(0.,0.,1.));
#1693=DIRECTION('',(0.,-1.,0.));
#1694=DIRECTION('',(0.,1.,0.));
#1695=DIRECTION('',(0.,0.,-1.));
#1696=DIRECTION('',(-1.23908819712629E-16,-1.,0.));
#1697=DIRECTION('',(1.,-1.23908819712629E-16,0.));
#1698=DIRECTION('',(1.,-1.23908819712629E-16,0.));
#1699=DIRECTION('',(-1.,1.23908819712629E-16,0.));
#1700=DIRECTION('',(-1.,6.19544098563145E-17,0.));
#1701=DIRECTION('',(-6.19544098563146E-17,-1.,0.));
#1702=DIRECTION('',(0.,0.,-1.));
#1703=DIRECTION('',(-6.19544098563146E-17,-1.,0.));
#1704=DIRECTION('',(0.,0.,-1.));
#1705=DIRECTION('',(6.19544098563145E-17,1.,0.));
#1706=DIRECTION('',(0.,-1.,0.));
#1707=DIRECTION('',(0.,0.,-1.));
#1708=DIRECTION('',(1.,0.,0.));
#1709=DIRECTION('',(-1.,0.,0.));
#1710=DIRECTION('',(0.,0.,-1.));
#1711=DIRECTION('',(-1.,6.19544098563145E-17,0.));
#1712=DIRECTION('',(-6.19544098563146E-17,-1.,0.));
#1713=DIRECTION('',(-6.19544098563146E-17,-1.,0.));
#1714=DIRECTION('',(6.19544098563145E-17,1.,0.));
#1715=DIRECTION('',(0.,0.,-1.));
#1716=DIRECTION('',(-1.23908819712629E-16,-1.,0.));
#1717=DIRECTION('',(1.,-1.23908819712629E-16,0.));
#1718=DIRECTION('',(1.,-1.23908819712629E-16,0.));
#1719=DIRECTION('',(-1.,1.23908819712629E-16,0.));
#1720=DIRECTION('',(0.,0.,1.));
#1721=DIRECTION('',(1.,0.,0.));
#1722=DIRECTION('',(0.,1.,0.));
#1723=DIRECTION('',(0.,0.,-1.));
#1724=DIRECTION('',(-1.,0.,0.));
#1725=DIRECTION('',(0.,0.,-1.));
#1726=DIRECTION('',(-1.,0.,0.));
#1727=DIRECTION('',(-1.82123199577617E-16,-1.,0.));
#1728=DIRECTION('',(0.,0.,1.));
#1729=DIRECTION('',(1.,0.,0.));
#1730=DIRECTION('',(1.,0.,0.));
#1731=DIRECTION('',(0.,0.,1.));
#1732=DIRECTION('',(1.,0.,0.));
#1733=DIRECTION('',(-1.82123199577617E-16,-1.,0.));
#1734=DIRECTION('',(0.,0.,1.));
#1735=DIRECTION('',(1.,0.,0.));
#1736=DIRECTION('',(1.,0.,0.));
#1737=DIRECTION('',(0.,0.,1.));
#1738=DIRECTION('',(1.,0.,0.));
#1739=DIRECTION('',(0.,0.,-1.));
#1740=DIRECTION('',(-1.,0.,0.));
#1741=DIRECTION('',(0.,0.,1.));
#1742=DIRECTION('',(1.,0.,0.));
#1743=DIRECTION('',(1.,0.,0.));
#1744=DIRECTION('',(0.,0.,1.));
#1745=DIRECTION('',(1.,0.,0.));
#1746=DIRECTION('',(-1.82123199577617E-16,-1.,0.));
#1747=DIRECTION('',(0.,0.,1.));
#1748=DIRECTION('',(1.,0.,0.));
#1749=DIRECTION('',(1.,0.,0.));
#1750=DIRECTION('',(0.,0.,1.));
#1751=DIRECTION('',(1.,0.,0.));
#1752=DIRECTION('',(-1.82123199577617E-16,-1.,0.));
#1753=DIRECTION('',(0.,0.,1.));
#1754=DIRECTION('',(1.,0.,0.));
#1755=DIRECTION('',(0.,-1.,0.));
#1756=DIRECTION('',(1.,0.,0.));
#1757=DIRECTION('',(0.,-1.,0.));
#1758=DIRECTION('',(1.,0.,0.));
#1759=DIRECTION('',(0.,1.,0.));
#1760=DIRECTION('',(0.,0.,1.));
#1761=DIRECTION('',(0.,0.,-1.));
#1762=DIRECTION('',(0.,0.,-1.));
#1763=DIRECTION('',(1.,-1.82123199577617E-16,0.));
#1764=DIRECTION('',(1.82123199577617E-16,1.,0.));
#1765=DIRECTION('',(0.,0.,-1.));
#1766=DIRECTION('',(0.,0.,-1.));
#1767=DIRECTION('',(0.,1.,0.));
#1768=DIRECTION('',(0.,0.,1.));
#1769=DIRECTION('',(0.,0.,-1.));
#1770=DIRECTION('',(0.,0.,-1.));
#1771=DIRECTION('',(1.,-1.82123199577617E-16,0.));
#1772=DIRECTION('',(1.82123199577617E-16,1.,0.));
#1773=DIRECTION('',(0.,0.,-1.));
#1774=DIRECTION('',(0.,0.,-1.));
#1775=DIRECTION('',(0.,1.,0.));
#1776=DIRECTION('',(0.,0.,1.));
#1777=DIRECTION('',(0.,0.,-1.));
#1778=DIRECTION('',(1.,0.,0.));
#1779=DIRECTION('',(0.,0.,-1.));
#1780=DIRECTION('',(1.,0.,0.));
#1781=DIRECTION('',(0.,0.,-1.));
#1782=DIRECTION('',(0.,0.,-1.));
#1783=DIRECTION('',(0.,-1.,0.));
#1784=DIRECTION('',(0.,1.,0.));
#1785=DIRECTION('',(0.,0.,1.));
#1786=DIRECTION('',(0.,0.,-1.));
#1787=DIRECTION('',(1.,0.,0.));
#1788=DIRECTION('',(1.,0.,0.));
#1789=DIRECTION('',(0.,0.,-1.));
#1790=DIRECTION('',(0.,0.,1.));
#1791=DIRECTION('',(0.,-1.,0.));
#1792=DIRECTION('',(0.,0.,-1.));
#1793=DIRECTION('',(0.,-1.,0.));
#1794=DIRECTION('',(0.,0.,-1.));
#1795=DIRECTION('',(0.,1.,0.));
#1796=DIRECTION('',(0.,0.,1.));
#1797=DIRECTION('',(1.,0.,0.));
#1798=DIRECTION('',(0.,0.,-1.));
#1799=DIRECTION('',(1.,0.,0.));
#1800=DIRECTION('',(1.,0.,0.));
#1801=DIRECTION('',(0.,0.,-1.));
#1802=DIRECTION('',(0.,-1.,0.));
#1803=DIRECTION('',(0.,0.,1.));
#1804=DIRECTION('',(0.,0.,1.));
#1805=DIRECTION('',(0.,-1.,0.));
#1806=DIRECTION('',(0.,0.,-1.));
#1807=DIRECTION('',(0.,-1.,0.));
#1808=DIRECTION('',(0.,1.,0.));
#1809=DIRECTION('',(0.,0.,1.));
#1810=DIRECTION('',(1.,0.,0.));
#1811=DIRECTION('',(1.,0.,0.));
#1812=DIRECTION('',(0.,0.,1.));
#1813=DIRECTION('',(1.,0.,0.));
#1814=DIRECTION('',(0.,0.,-1.));
#1815=DIRECTION('',(0.,-1.,0.));
#1816=DIRECTION('',(0.,0.,1.));
#1817=DIRECTION('',(1.,0.,0.));
#1818=DIRECTION('',(0.,0.,-1.));
#1819=DIRECTION('',(-1.,0.,0.));
#1820=DIRECTION('',(0.,0.,-1.));
#1821=DIRECTION('',(-1.,0.,0.));
#1822=DIRECTION('',(-1.,0.,0.));
#1823=DIRECTION('',(0.,0.,1.));
#1824=DIRECTION('',(0.,0.,-1.));
#1825=DIRECTION('',(-1.,0.,0.));
#1826=DIRECTION('',(0.,0.,-1.));
#1827=DIRECTION('',(-1.,0.,0.));
#1828=DIRECTION('',(0.,0.,1.));
#1829=DIRECTION('',(1.,0.,0.));
#1830=DIRECTION('',(0.,0.,-1.));
#1831=DIRECTION('',(1.,0.,0.));
#1832=DIRECTION('',(-0.5,0.866025403784439,0.));
#1833=DIRECTION('',(0.,0.,-1.));
#1834=DIRECTION('',(-1.,0.,0.));
#1835=DIRECTION('',(0.5,0.866025403784439,0.));
#1836=DIRECTION('',(0.,0.,-1.));
#1837=DIRECTION('',(-1.,0.,0.));
#1838=DIRECTION('',(-0.5,0.866025403784438,0.));
#1839=DIRECTION('',(0.,0.,-1.));
#1840=DIRECTION('',(-1.,0.,0.));
#1841=DIRECTION('',(0.5,0.866025403784438,0.));
#1842=DIRECTION('',(0.,0.,-1.));
#1843=DIRECTION('',(-1.,0.,0.));
#1844=DIRECTION('',(0.,0.,-1.));
#1845=DIRECTION('',(-1.,0.,0.));
#1846=DIRECTION('',(0.,0.,-1.));
#1847=DIRECTION('',(0.,0.,-1.));
#1848=DIRECTION('',(-1.,0.,0.));
#1849=DIRECTION('',(0.,0.,-1.));
#1850=DIRECTION('',(0.,0.,-1.));
#1851=DIRECTION('',(0.,0.,-1.));
#1852=DIRECTION('',(-1.,0.,0.));
#1853=DIRECTION('',(0.,0.,-1.));
#1854=DIRECTION('',(-0.866025403784438,0.5,0.));
#1855=DIRECTION('',(-0.5,-0.866025403784439,0.));
#1856=DIRECTION('',(0.5,0.866025403784439,0.));
#1857=DIRECTION('',(0.,0.,-1.));
#1858=DIRECTION('',(0.,0.,-1.));
#1859=DIRECTION('',(-1.,0.,0.));
#1860=DIRECTION('',(0.,0.,-1.));
#1861=DIRECTION('',(-1.,0.,0.));
#1862=DIRECTION('',(0.,0.,-1.));
#1863=DIRECTION('',(-0.866025403784438,-0.5,0.));
#1864=DIRECTION('',(0.5,-0.866025403784438,0.));
#1865=DIRECTION('',(-0.5,0.866025403784438,0.));
#1866=DIRECTION('',(-0.866025403784438,0.5,0.));
#1867=DIRECTION('',(-0.5,-0.866025403784438,0.));
#1868=DIRECTION('',(0.5,0.866025403784439,0.));
#1869=DIRECTION('',(0.,0.,-1.));
#1870=DIRECTION('',(0.,0.,-1.));
#1871=DIRECTION('',(-1.,0.,0.));
#1872=DIRECTION('',(0.,0.,-1.));
#1873=DIRECTION('',(-1.,0.,0.));
#1874=DIRECTION('',(0.,0.,-1.));
#1875=DIRECTION('',(-0.866025403784439,-0.5,0.));
#1876=DIRECTION('',(0.5,-0.866025403784439,0.));
#1877=DIRECTION('',(-0.5,0.866025403784439,0.));
#1878=DIRECTION('',(0.,0.,-1.));
#1879=DIRECTION('',(1.,0.,0.));
#1880=DIRECTION('',(0.,0.,-1.));
#1881=DIRECTION('',(1.,0.,0.));
#1882=DIRECTION('',(0.,1.,0.));
#1883=DIRECTION('',(0.,0.,1.));
#1884=DIRECTION('',(-1.,0.,0.));
#1885=DIRECTION('',(-1.,0.,0.));
#1886=DIRECTION('',(0.,0.,1.));
#1887=DIRECTION('',(1.,0.,0.));
#1888=DIRECTION('',(0.,0.,1.));
#1889=DIRECTION('',(1.,0.,0.));
#1890=DIRECTION('',(0.,0.,-1.));
#1891=DIRECTION('',(-1.,0.,0.));
#1892=DIRECTION('',(0.,0.,1.));
#1893=DIRECTION('',(1.,0.,0.));
#1894=DIRECTION('',(0.,0.,-1.));
#1895=DIRECTION('',(-1.,0.,0.));
#1896=DIRECTION('',(1.,2.85551189461203E-16,0.));
#1897=DIRECTION('',(-2.85551189461203E-16,1.,0.));
#1898=DIRECTION('',(-2.85551189461203E-16,1.,0.));
#1899=DIRECTION('',(0.,0.,1.));
#1900=DIRECTION('',(1.,0.,0.));
#1901=DIRECTION('',(-1.,0.,0.));
#1902=DIRECTION('',(-2.85551189461203E-16,1.,0.));
#1903=DIRECTION('',(1.,2.85551189461203E-16,0.));
#1904=DIRECTION('',(-2.85551189461203E-16,1.,0.));
#1905=DIRECTION('',(0.,0.,1.));
#1906=DIRECTION('',(0.,1.,0.));
#1907=DIRECTION('',(0.,0.,1.));
#1908=DIRECTION('',(0.,1.,0.));
#1909=DIRECTION('',(0.,0.,1.));
#1910=DIRECTION('',(-1.,0.,0.));
#1911=DIRECTION('',(0.,0.,1.));
#1912=DIRECTION('',(1.,0.,0.));
#1913=CARTESIAN_POINT('',(0.,0.,0.));
#1914=CARTESIAN_POINT('',(0.,6.93889390390723E-18,0.004));
#1915=CARTESIAN_POINT('',(-0.0362,-0.03253,0.004));
#1916=CARTESIAN_POINT('',(-0.03745,-0.03253,0.004));
#1917=CARTESIAN_POINT('',(-0.0362,-0.04919,0.004));
#1918=CARTESIAN_POINT('',(-0.03745,-0.04919,0.004));
#1919=CARTESIAN_POINT('',(0.04025,0.,0.004));
#1920=CARTESIAN_POINT('',(0.04025,-0.02665,0.004));
#1921=CARTESIAN_POINT('',(0.04025,-0.02865,0.004));
#1922=CARTESIAN_POINT('',(0.,-0.02665,0.004));
#1923=CARTESIAN_POINT('',(-0.04025,-0.02665,0.004));
#1924=CARTESIAN_POINT('',(-0.04025,0.,0.004));
#1925=CARTESIAN_POINT('',(-0.04025,-0.05295,0.004));
#1926=CARTESIAN_POINT('',(0.,-0.05295,0.004));
#1927=CARTESIAN_POINT('',(0.0285,-0.05295,0.004));
#1928=CARTESIAN_POINT('',(0.0285,-0.0408,0.004));
#1929=CARTESIAN_POINT('',(0.0285,-0.04995,0.004));
#1930=CARTESIAN_POINT('',(2.77555756156289E-17,-0.04995,0.004));
#1931=CARTESIAN_POINT('',(-0.0315,-0.04995,0.004));
#1932=CARTESIAN_POINT('',(-0.0315,-0.0408,0.004));
#1933=CARTESIAN_POINT('',(-0.0315,-0.03165,0.004));
#1934=CARTESIAN_POINT('',(2.77555756156289E-17,-0.03165,0.004));
#1935=CARTESIAN_POINT('',(0.0285,-0.03165,0.004));
#1936=CARTESIAN_POINT('',(0.0285,-0.0408,0.004));
#1937=CARTESIAN_POINT('',(0.0285,-0.02865,0.004));
#1938=CARTESIAN_POINT('',(0.035875,-0.02865,0.004));
#1939=CARTESIAN_POINT('',(0.009525,0.0144,0.0015));
#1940=CARTESIAN_POINT('',(0.009525,0.0154,0.0015));
#1941=CARTESIAN_POINT('',(0.009525,0.0154,0.0015));
#1942=CARTESIAN_POINT('',(0.009525,0.0154,0.003));
#1943=CARTESIAN_POINT('',(0.009525,0.0144,0.003));
#1944=CARTESIAN_POINT('',(0.009525,-0.003125,0.003));
#1945=CARTESIAN_POINT('',(0.009525,-0.003125,0.0015));
#1946=CARTESIAN_POINT('',(0.009525,-0.003125,0.0015));
#1947=CARTESIAN_POINT('',(0.009525,0.0144,0.0015));
#1948=CARTESIAN_POINT('',(-0.009525,0.0144,0.0015));
#1949=CARTESIAN_POINT('',(-0.009525,0.0144,0.003));
#1950=CARTESIAN_POINT('',(-0.009525,-0.003125,0.003));
#1951=CARTESIAN_POINT('',(-0.009525,0.0154,0.003));
#1952=CARTESIAN_POINT('',(-0.009525,0.0154,0.0015));
#1953=CARTESIAN_POINT('',(-0.009525,0.0154,0.0015));
#1954=CARTESIAN_POINT('',(-0.009525,0.0144,0.0015));
#1955=CARTESIAN_POINT('',(-0.009525,-0.003125,0.0015));
#1956=CARTESIAN_POINT('',(-0.009525,-0.003125,0.0015));
#1957=CARTESIAN_POINT('',(-0.0187875,0.0154,0.0015));
#1958=CARTESIAN_POINT('',(-0.0187875,0.0154,0.003));
#1959=CARTESIAN_POINT('',(-0.02805,0.0154,0.003));
#1960=CARTESIAN_POINT('',(-0.02805,0.0154,0.0015));
#1961=CARTESIAN_POINT('',(-0.02805,0.0154,0.0015));
#1962=CARTESIAN_POINT('',(-0.0187875,0.0154,0.0015));
#1963=CARTESIAN_POINT('',(-0.02805,-0.003125,0.0015));
#1964=CARTESIAN_POINT('',(-0.02805,-0.003125,0.003));
#1965=CARTESIAN_POINT('',(-0.02805,-0.02165,0.003));
#1966=CARTESIAN_POINT('',(-0.02805,-0.02165,0.0015));
#1967=CARTESIAN_POINT('',(-0.02805,-0.02165,0.0015));
#1968=CARTESIAN_POINT('',(-0.02805,-0.003125,0.0015));
#1969=CARTESIAN_POINT('',(-3.46944695195361E-18,-0.02165,0.0015));
#1970=CARTESIAN_POINT('',(-3.46944695195361E-18,-0.02165,0.003));
#1971=CARTESIAN_POINT('',(0.02805,-0.02165,0.003));
#1972=CARTESIAN_POINT('',(0.02805,-0.02165,0.0015));
#1973=CARTESIAN_POINT('',(0.02805,-0.02165,0.0015));
#1974=CARTESIAN_POINT('',(-3.46944695195361E-18,-0.02165,0.0015));
#1975=CARTESIAN_POINT('',(0.02805,-0.003125,0.0015));
#1976=CARTESIAN_POINT('',(0.02805,-0.003125,0.003));
#1977=CARTESIAN_POINT('',(0.02805,0.0154,0.003));
#1978=CARTESIAN_POINT('',(0.02805,0.0154,0.0015));
#1979=CARTESIAN_POINT('',(0.02805,0.0154,0.0015));
#1980=CARTESIAN_POINT('',(0.02805,-0.003125,0.0015));
#1981=CARTESIAN_POINT('',(0.0187875,0.0154,0.0015));
#1982=CARTESIAN_POINT('',(0.0187875,0.0154,0.003));
#1983=CARTESIAN_POINT('',(0.0187875,0.0154,0.0015));
#1984=CARTESIAN_POINT('',(0.0315,-0.0408,0.004));
#1985=CARTESIAN_POINT('',(0.0315,-0.04995,0.004));
#1986=CARTESIAN_POINT('',(0.0315,-0.04995,0.001));
#1987=CARTESIAN_POINT('',(0.0315,-0.04995,0.));
#1988=CARTESIAN_POINT('',(0.0315,-0.0408,0.001));
#1989=CARTESIAN_POINT('',(0.0315,-0.03165,0.001));
#1990=CARTESIAN_POINT('',(0.0315,-0.03165,0.004));
#1991=CARTESIAN_POINT('',(0.0315,-0.03165,0.));
#1992=CARTESIAN_POINT('',(0.0315,-0.0408,0.));
#1993=CARTESIAN_POINT('',(2.77555756156289E-17,-0.04995,0.004));
#1994=CARTESIAN_POINT('',(0.0285,-0.04995,0.004));
#1995=CARTESIAN_POINT('',(0.0285,-0.04995,0.001));
#1996=CARTESIAN_POINT('',(2.77555756156289E-17,-0.04995,0.001));
#1997=CARTESIAN_POINT('',(2.77555756156289E-17,-0.04995,0.));
#1998=CARTESIAN_POINT('',(-0.0315,-0.04995,0.));
#1999=CARTESIAN_POINT('',(-0.0315,-0.04995,0.004));
#2000=CARTESIAN_POINT('',(2.77555756156289E-17,-0.03165,0.004));
#2001=CARTESIAN_POINT('',(2.77555756156289E-17,-0.03165,0.001));
#2002=CARTESIAN_POINT('',(0.0285,-0.03165,0.001));
#2003=CARTESIAN_POINT('',(0.0285,-0.03165,0.004));
#2004=CARTESIAN_POINT('',(-0.0315,-0.03165,0.004));
#2005=CARTESIAN_POINT('',(-0.0315,-0.03165,0.));
#2006=CARTESIAN_POINT('',(2.77555756156289E-17,-0.03165,0.));
#2007=CARTESIAN_POINT('',(-0.01205,-0.01265,0.0254));
#2008=CARTESIAN_POINT('',(-0.01205,-0.01965,0.0254));
#2009=CARTESIAN_POINT('',(-0.01205,-0.01965,0.0015));
#2010=CARTESIAN_POINT('',(-0.01205,-0.01965,0.));
#2011=CARTESIAN_POINT('',(-0.01205,6.93889390390723E-18,0.0015));
#2012=CARTESIAN_POINT('',(-0.01205,-0.00565,0.0015));
#2013=CARTESIAN_POINT('',(-0.01205,-0.00565,0.0254));
#2014=CARTESIAN_POINT('',(-0.01205,-0.00565,0.));
#2015=CARTESIAN_POINT('',(-0.01205,-0.01265,0.));
#2016=CARTESIAN_POINT('',(-0.01905,-0.01965,0.0254));
#2017=CARTESIAN_POINT('',(0.,-0.01965,0.0015));
#2018=CARTESIAN_POINT('',(-0.02605,-0.01965,0.0015));
#2019=CARTESIAN_POINT('',(-0.01905,-0.01965,0.));
#2020=CARTESIAN_POINT('',(-0.02605,-0.01965,0.));
#2021=CARTESIAN_POINT('',(-0.02605,-0.01965,0.0254));
#2022=CARTESIAN_POINT('',(-0.02605,-0.01265,0.0254));
#2023=CARTESIAN_POINT('',(-0.02605,6.93889390390723E-18,0.0015));
#2024=CARTESIAN_POINT('',(-0.02605,-0.00565,0.0015));
#2025=CARTESIAN_POINT('',(-0.02605,-0.01265,0.));
#2026=CARTESIAN_POINT('',(-0.02605,-0.00565,0.));
#2027=CARTESIAN_POINT('',(-0.02605,-0.00565,0.0254));
#2028=CARTESIAN_POINT('',(-0.01905,-0.00565,0.0254));
#2029=CARTESIAN_POINT('',(0.,-0.00565,0.0015));
#2030=CARTESIAN_POINT('',(-0.01905,-0.00565,0.));
#2031=CARTESIAN_POINT('',(0.02605,0.0064,0.0254));
#2032=CARTESIAN_POINT('',(0.02605,-0.0006,0.0254));
#2033=CARTESIAN_POINT('',(0.02605,-0.0006,0.0015));
#2034=CARTESIAN_POINT('',(0.02605,-0.0006,0.));
#2035=CARTESIAN_POINT('',(0.02605,6.93889390390723E-18,0.0015));
#2036=CARTESIAN_POINT('',(0.02605,0.0134,0.0015));
#2037=CARTESIAN_POINT('',(0.02605,0.0134,0.0254));
#2038=CARTESIAN_POINT('',(0.02605,0.0134,0.));
#2039=CARTESIAN_POINT('',(0.02605,0.0064,0.));
#2040=CARTESIAN_POINT('',(0.01905,-0.0006,0.0254));
#2041=CARTESIAN_POINT('',(-6.96987110883542E-20,-0.0006,0.0015));
#2042=CARTESIAN_POINT('',(0.01205,-0.0006,0.0015));
#2043=CARTESIAN_POINT('',(0.01905,-0.0006,0.));
#2044=CARTESIAN_POINT('',(0.01205,-0.0006,0.));
#2045=CARTESIAN_POINT('',(0.01205,-0.0006,0.0254));
#2046=CARTESIAN_POINT('',(0.01205,0.0064,0.0254));
#2047=CARTESIAN_POINT('',(0.01205,6.93889390390723E-18,0.0015));
#2048=CARTESIAN_POINT('',(0.01205,0.0134,0.0015));
#2049=CARTESIAN_POINT('',(0.01205,0.0064,0.));
#2050=CARTESIAN_POINT('',(0.01205,0.0134,0.));
#2051=CARTESIAN_POINT('',(0.01205,0.0134,0.0254));
#2052=CARTESIAN_POINT('',(0.01905,0.0134,0.0254));
#2053=CARTESIAN_POINT('',(0.,0.0134,0.0015));
#2054=CARTESIAN_POINT('',(0.01905,0.0134,0.));
#2055=CARTESIAN_POINT('',(-0.01205,0.0064,0.0254));
#2056=CARTESIAN_POINT('',(-0.01205,-0.00059999999999999,0.0254));
#2057=CARTESIAN_POINT('',(-0.01205,-0.00059999999999999,0.0015));
#2058=CARTESIAN_POINT('',(-0.01205,-0.00059999999999999,0.));
#2059=CARTESIAN_POINT('',(-0.01205,3.95269134883286E-18,0.0015));
#2060=CARTESIAN_POINT('',(-0.01205,0.0134,0.0015));
#2061=CARTESIAN_POINT('',(-0.01205,0.0134,0.0254));
#2062=CARTESIAN_POINT('',(-0.01205,0.0134,0.));
#2063=CARTESIAN_POINT('',(-0.01205,0.0064,0.));
#2064=CARTESIAN_POINT('',(-0.01905,-0.000599999999999991,0.0254));
#2065=CARTESIAN_POINT('',(7.43452918275769E-20,-0.000599999999999989,0.0015));
#2066=CARTESIAN_POINT('',(-0.02605,-0.000599999999999992,0.0015));
#2067=CARTESIAN_POINT('',(-0.01905,-0.000599999999999991,0.));
#2068=CARTESIAN_POINT('',(-0.02605,-0.000599999999999992,0.));
#2069=CARTESIAN_POINT('',(-0.02605,-0.000599999999999992,0.0254));
#2070=CARTESIAN_POINT('',(-0.02605,0.0064,0.0254));
#2071=CARTESIAN_POINT('',(-0.02605,6.93889390390723E-18,0.0015));
#2072=CARTESIAN_POINT('',(-0.02605,0.0134,0.0015));
#2073=CARTESIAN_POINT('',(-0.02605,0.0064,0.));
#2074=CARTESIAN_POINT('',(-0.02605,0.0134,0.));
#2075=CARTESIAN_POINT('',(-0.02605,0.0134,0.0254));
#2076=CARTESIAN_POINT('',(-0.01905,0.0134,0.0254));
#2077=CARTESIAN_POINT('',(0.,0.0134,0.0015));
#2078=CARTESIAN_POINT('',(-0.01905,0.0134,0.));
#2079=CARTESIAN_POINT('',(0.02605,-0.01265,0.0254));
#2080=CARTESIAN_POINT('',(0.02605,-0.01965,0.0254));
#2081=CARTESIAN_POINT('',(0.02605,-0.01965,0.0015));
#2082=CARTESIAN_POINT('',(0.02605,-0.01965,0.));
#2083=CARTESIAN_POINT('',(0.02605,6.93889390390723E-18,0.0015));
#2084=CARTESIAN_POINT('',(0.02605,-0.00565,0.0015));
#2085=CARTESIAN_POINT('',(0.02605,-0.00565,0.0254));
#2086=CARTESIAN_POINT('',(0.02605,-0.00565,0.));
#2087=CARTESIAN_POINT('',(0.02605,-0.01265,0.));
#2088=CARTESIAN_POINT('',(0.01905,-0.01965,0.0254));
#2089=CARTESIAN_POINT('',(0.,-0.01965,0.0015));
#2090=CARTESIAN_POINT('',(0.01205,-0.01965,0.0015));
#2091=CARTESIAN_POINT('',(0.01905,-0.01965,0.));
#2092=CARTESIAN_POINT('',(0.01205,-0.01965,0.));
#2093=CARTESIAN_POINT('',(0.01205,-0.01965,0.0254));
#2094=CARTESIAN_POINT('',(0.01205,-0.01265,0.0254));
#2095=CARTESIAN_POINT('',(0.01205,6.93889390390723E-18,0.0015));
#2096=CARTESIAN_POINT('',(0.01205,-0.00565,0.0015));
#2097=CARTESIAN_POINT('',(0.01205,-0.01265,0.));
#2098=CARTESIAN_POINT('',(0.01205,-0.00565,0.));
#2099=CARTESIAN_POINT('',(0.01205,-0.00565,0.0254));
#2100=CARTESIAN_POINT('',(0.01905,-0.00565,0.0254));
#2101=CARTESIAN_POINT('',(-7.00084831376355E-19,-0.00565,0.0015));
#2102=CARTESIAN_POINT('',(0.01905,-0.00565,0.));
#2103=CARTESIAN_POINT('',(0.007,-0.01265,0.0254));
#2104=CARTESIAN_POINT('',(0.007,-0.01965,0.0254));
#2105=CARTESIAN_POINT('',(0.007,-0.01965,0.0015));
#2106=CARTESIAN_POINT('',(0.007,-0.01965,0.));
#2107=CARTESIAN_POINT('',(0.007,6.50521303491303E-18,0.0015));
#2108=CARTESIAN_POINT('',(0.007,-0.00565,0.0015));
#2109=CARTESIAN_POINT('',(0.007,-0.00565,0.0254));
#2110=CARTESIAN_POINT('',(0.007,-0.00565,0.));
#2111=CARTESIAN_POINT('',(0.007,-0.01265,0.));
#2112=CARTESIAN_POINT('',(-0.0035,-0.01965,0.0254));
#2113=CARTESIAN_POINT('',(0.,-0.01965,0.0015));
#2114=CARTESIAN_POINT('',(-0.007,-0.01965,0.0015));
#2115=CARTESIAN_POINT('',(-0.0035,-0.01965,0.));
#2116=CARTESIAN_POINT('',(-0.007,-0.01965,0.));
#2117=CARTESIAN_POINT('',(-0.007,-0.01965,0.0254));
#2118=CARTESIAN_POINT('',(-0.007,-0.01265,0.0254));
#2119=CARTESIAN_POINT('',(-0.007,7.37257477290143E-18,0.0015));
#2120=CARTESIAN_POINT('',(-0.007,-0.00565,0.0015));
#2121=CARTESIAN_POINT('',(-0.007,-0.01265,0.));
#2122=CARTESIAN_POINT('',(-0.007,-0.00565,0.));
#2123=CARTESIAN_POINT('',(-0.007,-0.00565,0.0254));
#2124=CARTESIAN_POINT('',(-0.0035,-0.00565,0.0254));
#2125=CARTESIAN_POINT('',(-7.00084831376354E-19,-0.00565,0.0015));
#2126=CARTESIAN_POINT('',(-0.0035,-0.00565,0.));
#2127=CARTESIAN_POINT('',(0.,6.93889390390723E-18,0.));
#2128=CARTESIAN_POINT('',(-0.0315,-0.0408,0.));
#2129=CARTESIAN_POINT('',(-0.0362,-0.04919,0.));
#2130=CARTESIAN_POINT('',(-0.03745,-0.04919,0.));
#2131=CARTESIAN_POINT('',(-0.0362,-0.03253,0.));
#2132=CARTESIAN_POINT('',(-0.03745,-0.03253,0.));
#2133=CARTESIAN_POINT('',(-0.04445,6.93889390390723E-18,0.));
#2134=CARTESIAN_POINT('',(-0.04445,0.04953,0.));
#2135=CARTESIAN_POINT('',(-0.04445,-0.04953,0.));
#2136=CARTESIAN_POINT('',(-0.03683,0.04953,0.));
#2137=CARTESIAN_POINT('',(-0.03683,0.05715,0.));
#2138=CARTESIAN_POINT('',(1.38777878078145E-17,0.05715,0.));
#2139=CARTESIAN_POINT('',(0.03683,0.05715,0.));
#2140=CARTESIAN_POINT('',(0.03683,0.04953,0.));
#2141=CARTESIAN_POINT('',(0.04445,0.04953,0.));
#2142=CARTESIAN_POINT('',(0.04445,0.,0.));
#2143=CARTESIAN_POINT('',(0.04445,-0.04953,0.));
#2144=CARTESIAN_POINT('',(0.03683,-0.04953,0.));
#2145=CARTESIAN_POINT('',(0.03683,-0.05715,0.));
#2146=CARTESIAN_POINT('',(-6.93889390390723E-18,-0.05715,0.));
#2147=CARTESIAN_POINT('',(-0.03683,-0.05715,0.));
#2148=CARTESIAN_POINT('',(-0.03683,-0.04953,0.));
#2149=CARTESIAN_POINT('',(-1.34671986484423E-17,0.0064,0.));
#2150=CARTESIAN_POINT('',(-0.00610000000000001,0.0064,0.));
#2151=CARTESIAN_POINT('',(0.,6.93889390390723E-18,0.004));
#2152=CARTESIAN_POINT('',(1.38777878078145E-17,0.05715,0.004));
#2153=CARTESIAN_POINT('',(-0.03683,0.05715,0.004));
#2154=CARTESIAN_POINT('',(0.03683,0.05715,0.004));
#2155=CARTESIAN_POINT('',(-0.03683,0.04953,0.004));
#2156=CARTESIAN_POINT('',(-0.04445,0.04953,0.004));
#2157=CARTESIAN_POINT('',(-0.04445,6.93889390390723E-18,0.004));
#2158=CARTESIAN_POINT('',(-0.04445,-0.04953,0.004));
#2159=CARTESIAN_POINT('',(-0.03683,-0.04953,0.004));
#2160=CARTESIAN_POINT('',(-0.03683,-0.05715,0.004));
#2161=CARTESIAN_POINT('',(-6.93889390390723E-18,-0.05715,0.004));
#2162=CARTESIAN_POINT('',(0.03683,-0.05715,0.004));
#2163=CARTESIAN_POINT('',(0.03683,-0.04953,0.004));
#2164=CARTESIAN_POINT('',(0.04445,-0.04953,0.004));
#2165=CARTESIAN_POINT('',(0.04445,0.,0.004));
#2166=CARTESIAN_POINT('',(0.04445,0.04953,0.004));
#2167=CARTESIAN_POINT('',(0.03683,0.04953,0.004));
#2168=CARTESIAN_POINT('',(-0.04125,0.,0.004));
#2169=CARTESIAN_POINT('',(-0.04125,0.05395,0.004));
#2170=CARTESIAN_POINT('',(-0.04125,-0.05395,0.004));
#2171=CARTESIAN_POINT('',(0.,0.05395,0.004));
#2172=CARTESIAN_POINT('',(0.04125,0.05395,0.004));
#2173=CARTESIAN_POINT('',(0.04125,0.,0.004));
#2174=CARTESIAN_POINT('',(0.04125,-0.05395,0.004));
#2175=CARTESIAN_POINT('',(0.,-0.05395,0.004));
#2176=CARTESIAN_POINT('',(1.38777878078145E-17,0.05715,0.004));
#2177=CARTESIAN_POINT('',(-0.03683,0.05715,0.004));
#2178=CARTESIAN_POINT('',(0.03683,0.05715,0.004));
#2179=CARTESIAN_POINT('',(-0.04445,6.93889390390723E-18,0.004));
#2180=CARTESIAN_POINT('',(-0.04445,0.04953,0.));
#2181=CARTESIAN_POINT('',(-0.04445,-0.04953,0.004));
#2182=CARTESIAN_POINT('',(-6.93889390390723E-18,-0.05715,0.004));
#2183=CARTESIAN_POINT('',(0.03683,-0.05715,0.004));
#2184=CARTESIAN_POINT('',(-0.03683,-0.05715,0.004));
#2185=CARTESIAN_POINT('',(0.04445,0.,0.004));
#2186=CARTESIAN_POINT('',(0.04445,0.04953,0.004));
#2187=CARTESIAN_POINT('',(0.04445,-0.04953,0.));
#2188=CARTESIAN_POINT('',(0.,0.05395,0.007));
#2189=CARTESIAN_POINT('',(-0.04125,0.05395,0.007));
#2190=CARTESIAN_POINT('',(-0.04125,0.05395,0.007));
#2191=CARTESIAN_POINT('',(0.,0.05395,0.007));
#2192=CARTESIAN_POINT('',(0.04125,0.05395,0.007));
#2193=CARTESIAN_POINT('',(0.04125,0.05395,0.007));
#2194=CARTESIAN_POINT('',(-0.04125,0.,0.007));
#2195=CARTESIAN_POINT('',(-0.04125,-0.05395,0.007));
#2196=CARTESIAN_POINT('',(-0.04125,-0.05395,0.007));
#2197=CARTESIAN_POINT('',(-0.04125,0.,0.007));
#2198=CARTESIAN_POINT('',(0.,-0.05395,0.007));
#2199=CARTESIAN_POINT('',(0.04125,-0.05395,0.007));
#2200=CARTESIAN_POINT('',(0.04125,-0.05395,0.007));
#2201=CARTESIAN_POINT('',(0.,-0.05395,0.007));
#2202=CARTESIAN_POINT('',(-0.04025,0.,0.007));
#2203=CARTESIAN_POINT('',(-0.04025,-0.02665,0.003));
#2204=CARTESIAN_POINT('',(-0.04025,-0.02665,0.003));
#2205=CARTESIAN_POINT('',(-0.04025,0.,0.003));
#2206=CARTESIAN_POINT('',(-0.04025,0.05295,0.003));
#2207=CARTESIAN_POINT('',(-0.04025,0.05295,0.007));
#2208=CARTESIAN_POINT('',(-0.04025,0.05295,0.007));
#2209=CARTESIAN_POINT('',(-0.04025,0.,0.007));
#2210=CARTESIAN_POINT('',(-0.04025,-0.05295,0.007));
#2211=CARTESIAN_POINT('',(-0.04025,-0.05295,0.007));
#2212=CARTESIAN_POINT('',(0.,0.05295,0.007));
#2213=CARTESIAN_POINT('',(0.,0.05295,0.003));
#2214=CARTESIAN_POINT('',(0.04025,0.05295,0.003));
#2215=CARTESIAN_POINT('',(0.04025,0.05295,0.007));
#2216=CARTESIAN_POINT('',(0.04025,0.05295,0.007));
#2217=CARTESIAN_POINT('',(0.,0.05295,0.007));
#2218=CARTESIAN_POINT('',(0.04025,0.,0.007));
#2219=CARTESIAN_POINT('',(0.04025,0.,0.003));
#2220=CARTESIAN_POINT('',(0.04025,-0.02665,0.003));
#2221=CARTESIAN_POINT('',(0.04025,-0.02665,0.003));
#2222=CARTESIAN_POINT('',(0.04025,-0.02865,0.001));
#2223=CARTESIAN_POINT('',(0.04025,-0.02865,0.001));
#2224=CARTESIAN_POINT('',(0.04025,0.,0.001));
#2225=CARTESIAN_POINT('',(0.04025,-0.05295,0.001));
#2226=CARTESIAN_POINT('',(0.04025,-0.05295,0.007));
#2227=CARTESIAN_POINT('',(0.04025,-0.05295,0.007));
#2228=CARTESIAN_POINT('',(0.04025,0.,0.007));
#2229=CARTESIAN_POINT('',(0.,-0.05295,0.007));
#2230=CARTESIAN_POINT('',(0.,-0.05295,0.007));
#2231=CARTESIAN_POINT('',(0.,-0.05295,0.001));
#2232=CARTESIAN_POINT('',(0.0285,-0.05295,0.001));
#2233=CARTESIAN_POINT('',(0.0285,-0.05295,0.001));
#2234=CARTESIAN_POINT('',(0.04125,0.,0.007));
#2235=CARTESIAN_POINT('',(0.04125,0.,0.007));
#2236=CARTESIAN_POINT('',(0.,0.,0.007));
#2237=CARTESIAN_POINT('',(-0.0362,-0.03253,0.004));
#2238=CARTESIAN_POINT('',(-0.0362,-0.04919,0.004));
#2239=CARTESIAN_POINT('',(-0.0315,-0.0408,0.004));
#2240=CARTESIAN_POINT('',(-3.31653560152977E-18,0.0064,0.0116));
#2241=CARTESIAN_POINT('',(-3.31653560152977E-18,0.0064,0.0116));
#2242=CARTESIAN_POINT('',(-0.007,0.0064,0.0116));
#2243=CARTESIAN_POINT('',(-3.31653560152977E-18,0.0064,0.003));
#2244=CARTESIAN_POINT('',(0.007,0.0064,0.003));
#2245=CARTESIAN_POINT('',(0.,6.93889390390723E-18,0.0116));
#2246=CARTESIAN_POINT('',(0.0027712812921102,0.0016,0.0116));
#2247=CARTESIAN_POINT('',(-0.00225,0.01029711431703,0.0116));
#2248=CARTESIAN_POINT('',(-0.00305,0.0116827549630851,0.0116));
#2249=CARTESIAN_POINT('',(-1.34671986484423E-17,0.0064,0.0116));
#2250=CARTESIAN_POINT('',(0.00305,0.0116827549630851,0.0116));
#2251=CARTESIAN_POINT('',(-0.0027712812921102,0.0016,0.0116));
#2252=CARTESIAN_POINT('',(0.00225,0.01029711431703,0.0116));
#2253=CARTESIAN_POINT('',(-2.16840434497101E-18,0.0064,0.0116));
#2254=CARTESIAN_POINT('',(0.00225,0.00250288568297003,0.0116));
#2255=CARTESIAN_POINT('',(0.0027712812921102,0.0016,0.0116));
#2256=CARTESIAN_POINT('',(0.00305,0.00111724503691493,0.0116));
#2257=CARTESIAN_POINT('',(-1.58229372873423E-18,0.0064,0.0116));
#2258=CARTESIAN_POINT('',(-0.00305,0.00111724503691493,0.0116));
#2259=CARTESIAN_POINT('',(-0.0027712812921102,0.0016,0.0116));
#2260=CARTESIAN_POINT('',(-0.00225,0.00250288568297003,0.0116));
#2261=CARTESIAN_POINT('',(-2.38524477946811E-18,0.0064,0.0116));
#2262=CARTESIAN_POINT('',(-1.34671986484423E-17,0.0064,0.0254));
#2263=CARTESIAN_POINT('',(-0.00305,0.0116827549630851,0.0254));
#2264=CARTESIAN_POINT('',(-0.00305,0.0116827549630851,0.0096));
#2265=CARTESIAN_POINT('',(-2.38524477946811E-18,0.0064,0.0096));
#2266=CARTESIAN_POINT('',(-0.00305,0.00111724503691493,0.0096));
#2267=CARTESIAN_POINT('',(-0.00305,0.00111724503691493,0.0254));
#2268=CARTESIAN_POINT('',(0.00305,0.00111724503691493,0.0254));
#2269=CARTESIAN_POINT('',(0.00305,0.00111724503691493,0.0096));
#2270=CARTESIAN_POINT('',(-1.3010426069826E-18,0.0064,0.0096));
#2271=CARTESIAN_POINT('',(0.00305,0.0116827549630851,0.0096));
#2272=CARTESIAN_POINT('',(0.00305,0.0116827549630851,0.0254));
#2273=CARTESIAN_POINT('',(0.00265,0.0109899346400575,0.0254));
#2274=CARTESIAN_POINT('',(0.00265,0.0109899346400575,0.0096));
#2275=CARTESIAN_POINT('',(0.00225,0.01029711431703,0.0096));
#2276=CARTESIAN_POINT('',(0.00225,0.01029711431703,0.0254));
#2277=CARTESIAN_POINT('',(-2.16840434497101E-18,0.0064,0.0254));
#2278=CARTESIAN_POINT('',(-2.16840434497101E-18,0.0064,0.0096));
#2279=CARTESIAN_POINT('',(0.00225,0.00250288568297003,0.0096));
#2280=CARTESIAN_POINT('',(0.00225,0.00250288568297003,0.0254));
#2281=CARTESIAN_POINT('',(0.00265,0.00181006535994248,0.0254));
#2282=CARTESIAN_POINT('',(0.00265,0.00181006535994248,0.0096));
#2283=CARTESIAN_POINT('',(-0.00265,0.00181006535994248,0.0254));
#2284=CARTESIAN_POINT('',(-0.00265,0.00181006535994248,0.0096));
#2285=CARTESIAN_POINT('',(-0.00225,0.00250288568297003,0.0096));
#2286=CARTESIAN_POINT('',(-0.00225,0.00250288568297003,0.0254));
#2287=CARTESIAN_POINT('',(-2.38524477946811E-18,0.0064,0.0254));
#2288=CARTESIAN_POINT('',(-2.38524477946811E-18,0.0064,0.0096));
#2289=CARTESIAN_POINT('',(-0.00225,0.01029711431703,0.0096));
#2290=CARTESIAN_POINT('',(-0.00225,0.01029711431703,0.0254));
#2291=CARTESIAN_POINT('',(-0.00265,0.0109899346400575,0.0254));
#2292=CARTESIAN_POINT('',(-0.00265,0.0109899346400575,0.0096));
#2293=CARTESIAN_POINT('',(0.,6.93889390390723E-18,0.0096));
#2294=CARTESIAN_POINT('',(0.,6.93889390390723E-18,0.0096));
#2295=CARTESIAN_POINT('',(0.0047625,-0.003125,0.0015));
#2296=CARTESIAN_POINT('',(0.0047625,-0.003125,0.003));
#2297=CARTESIAN_POINT('',(0.0047625,-0.003125,0.0015));
#2298=CARTESIAN_POINT('',(0.,0.,0.0015));
#2299=CARTESIAN_POINT('',(-0.03683,0.04953,0.004));
#2300=CARTESIAN_POINT('',(0.03683,0.04953,0.004));
#2301=CARTESIAN_POINT('',(0.03683,-0.04953,0.004));
#2302=CARTESIAN_POINT('',(-0.03683,-0.04953,0.004));
#2303=CARTESIAN_POINT('',(0.0285,-0.0408,0.001));
#2304=CARTESIAN_POINT('',(0.0285,-0.0408,0.001));
#2305=CARTESIAN_POINT('',(0.,0.,0.001));
#2306=CARTESIAN_POINT('',(0.035875,-0.02865,0.001));
#2307=CARTESIAN_POINT('',(0.0285,-0.02865,0.001));
#2308=CARTESIAN_POINT('',(0.0285,-0.0408,0.001));
#2309=CARTESIAN_POINT('',(0.0285,-0.0408,0.001));
#2310=CARTESIAN_POINT('',(0.0285,-0.02865,0.001));
#2311=CARTESIAN_POINT('',(0.035875,-0.02865,0.001));
#2312=CARTESIAN_POINT('',(0.,-0.02665,0.003));
#2313=CARTESIAN_POINT('',(0.,-0.02665,0.003));
#2314=CARTESIAN_POINT('',(0.,0.,0.003));
#2315=MECHANICAL_DESIGN_GEOMETRIC_PRESENTATION_REPRESENTATION('',(#1441),
#2316);
#2316=(
GEOMETRIC_REPRESENTATION_CONTEXT(3)
GLOBAL_UNCERTAINTY_ASSIGNED_CONTEXT((#2317))
GLOBAL_UNIT_ASSIGNED_CONTEXT((#2320,#2319,#2318))
REPRESENTATION_CONTEXT('Part 1','TOP_LEVEL_ASSEMBLY_PART')
);
#2317=UNCERTAINTY_MEASURE_WITH_UNIT(LENGTH_MEASURE(1.E-8),#2320,
'DISTANCE_ACCURACY_VALUE','Maximum Tolerance applied to model');
#2318=(
NAMED_UNIT(*)
SI_UNIT($,.STERADIAN.)
SOLID_ANGLE_UNIT()
);
#2319=(
NAMED_UNIT(*)
PLANE_ANGLE_UNIT()
SI_UNIT($,.RADIAN.)
);
#2320=(
LENGTH_UNIT()
NAMED_UNIT(*)
SI_UNIT($,.METRE.)
);
#2321=PRODUCT_DEFINITION_SHAPE('','',#2322);
#2322=PRODUCT_DEFINITION('','',#2324,#2323);
#2323=PRODUCT_DEFINITION_CONTEXT('',#2330,'design');
#2324=PRODUCT_DEFINITION_FORMATION_WITH_SPECIFIED_SOURCE('','',#2326,
 .NOT_KNOWN.);
#2325=PRODUCT_RELATED_PRODUCT_CATEGORY('','',(#2326));
#2326=PRODUCT('Part 1','Part 1','Part 1',(#2328));
#2327=PRODUCT_CATEGORY('','');
#2328=PRODUCT_CONTEXT('',#2330,'mechanical');
#2329=APPLICATION_PROTOCOL_DEFINITION('international standard',
'ap242_managed_model_based_3d_engineering',2020,#2330);
#2330=APPLICATION_CONTEXT('managed model based 3d engineering');
ENDSEC;
END-ISO-10303-21;
