ISO-10303-21;
HEADER;
/* Generated by software containing ST-Developer
 * from STEP Tools, Inc. (www.steptools.com) 
 */
/* OPTION: using custom renumber hook */

FILE_DESCRIPTION(
/* description */ ('STEP AP242 Edition 2',
'CAx-IF Rec.Pracs.---Representation and Presentation of Product Manufa
cturing Information (PMI)---4.0---2014-10-13',
'CAx-IF Rec.Pracs.---3D Tessellated Geometry---0.4---2014-09-14','2;1',
'CAx-IF Rec.Pracs.---User Defined Attributes---1.5---2016-08-15'),
/* implementation_level */ '2;1');

FILE_NAME(
/* name */ 'Alarm Clock Base v1',
/* time_stamp */ '2026-08-12T17:49:03Z',
/* author */ (''),
/* organization */ (''),
/* preprocessor_version */ 'ST-DEVELOPER v20',
/* originating_system */ 'ONSHAPE BY PTC INC, 1.219',
/* authorisation */ '  ');

FILE_SCHEMA (('AP242_MANAGED_MODEL_BASED_3D_ENGINEERING_MIM_LF { 1 0 10303 442 3 1 4 }'));
ENDSEC;

DATA;
#10=SHAPE_REPRESENTATION_RELATIONSHIP('','',#281,#11);
#11=ADVANCED_BREP_SHAPE_REPRESENTATION('',(#279),#459);
#12=CYLINDRICAL_SURFACE('',#302,0.00508);
#13=CYLINDRICAL_SURFACE('',#303,0.00508);
#14=CYLINDRICAL_SURFACE('',#304,0.00508);
#15=CYLINDRICAL_SURFACE('',#305,0.00508);
#16=CIRCLE('',#292,0.00508);
#17=CIRCLE('',#293,0.00508);
#18=CIRCLE('',#294,0.00508);
#19=CIRCLE('',#295,0.00508);
#20=CIRCLE('',#297,0.00508);
#21=CIRCLE('',#298,0.00508);
#22=CIRCLE('',#299,0.00508);
#23=CIRCLE('',#300,0.00508);
#24=ORIENTED_EDGE('',*,*,#96,.F.);
#25=ORIENTED_EDGE('',*,*,#97,.T.);
#26=ORIENTED_EDGE('',*,*,#98,.F.);
#27=ORIENTED_EDGE('',*,*,#99,.F.);
#28=ORIENTED_EDGE('',*,*,#100,.F.);
#29=ORIENTED_EDGE('',*,*,#101,.T.);
#30=ORIENTED_EDGE('',*,*,#99,.T.);
#31=ORIENTED_EDGE('',*,*,#102,.T.);
#32=ORIENTED_EDGE('',*,*,#103,.F.);
#33=ORIENTED_EDGE('',*,*,#104,.T.);
#34=ORIENTED_EDGE('',*,*,#100,.T.);
#35=ORIENTED_EDGE('',*,*,#105,.T.);
#36=ORIENTED_EDGE('',*,*,#106,.F.);
#37=ORIENTED_EDGE('',*,*,#103,.T.);
#38=ORIENTED_EDGE('',*,*,#107,.F.);
#39=ORIENTED_EDGE('',*,*,#97,.F.);
#40=ORIENTED_EDGE('',*,*,#108,.T.);
#41=ORIENTED_EDGE('',*,*,#109,.T.);
#42=ORIENTED_EDGE('',*,*,#110,.F.);
#43=ORIENTED_EDGE('',*,*,#111,.T.);
#44=ORIENTED_EDGE('',*,*,#112,.T.);
#45=ORIENTED_EDGE('',*,*,#113,.T.);
#46=ORIENTED_EDGE('',*,*,#114,.F.);
#47=ORIENTED_EDGE('',*,*,#115,.T.);
#48=ORIENTED_EDGE('',*,*,#116,.F.);
#49=ORIENTED_EDGE('',*,*,#117,.T.);
#50=ORIENTED_EDGE('',*,*,#118,.T.);
#51=ORIENTED_EDGE('',*,*,#119,.T.);
#52=ORIENTED_EDGE('',*,*,#120,.F.);
#53=ORIENTED_EDGE('',*,*,#121,.T.);
#54=ORIENTED_EDGE('',*,*,#122,.T.);
#55=ORIENTED_EDGE('',*,*,#123,.T.);
#56=ORIENTED_EDGE('',*,*,#110,.T.);
#57=ORIENTED_EDGE('',*,*,#124,.T.);
#58=ORIENTED_EDGE('',*,*,#116,.T.);
#59=ORIENTED_EDGE('',*,*,#125,.T.);
#60=ORIENTED_EDGE('',*,*,#120,.T.);
#61=ORIENTED_EDGE('',*,*,#126,.T.);
#62=ORIENTED_EDGE('',*,*,#112,.F.);
#63=ORIENTED_EDGE('',*,*,#127,.T.);
#64=ORIENTED_EDGE('',*,*,#118,.F.);
#65=ORIENTED_EDGE('',*,*,#128,.T.);
#66=ORIENTED_EDGE('',*,*,#108,.F.);
#67=ORIENTED_EDGE('',*,*,#129,.T.);
#68=ORIENTED_EDGE('',*,*,#114,.T.);
#69=ORIENTED_EDGE('',*,*,#130,.T.);
#70=ORIENTED_EDGE('',*,*,#122,.F.);
#71=ORIENTED_EDGE('',*,*,#131,.T.);
#72=ORIENTED_EDGE('',*,*,#98,.T.);
#73=ORIENTED_EDGE('',*,*,#107,.T.);
#74=ORIENTED_EDGE('',*,*,#105,.F.);
#75=ORIENTED_EDGE('',*,*,#102,.F.);
#76=ORIENTED_EDGE('',*,*,#96,.T.);
#77=ORIENTED_EDGE('',*,*,#101,.F.);
#78=ORIENTED_EDGE('',*,*,#104,.F.);
#79=ORIENTED_EDGE('',*,*,#106,.T.);
#80=ORIENTED_EDGE('',*,*,#128,.F.);
#81=ORIENTED_EDGE('',*,*,#117,.F.);
#82=ORIENTED_EDGE('',*,*,#124,.F.);
#83=ORIENTED_EDGE('',*,*,#109,.F.);
#84=ORIENTED_EDGE('',*,*,#131,.F.);
#85=ORIENTED_EDGE('',*,*,#121,.F.);
#86=ORIENTED_EDGE('',*,*,#125,.F.);
#87=ORIENTED_EDGE('',*,*,#119,.F.);
#88=ORIENTED_EDGE('',*,*,#130,.F.);
#89=ORIENTED_EDGE('',*,*,#113,.F.);
#90=ORIENTED_EDGE('',*,*,#126,.F.);
#91=ORIENTED_EDGE('',*,*,#123,.F.);
#92=ORIENTED_EDGE('',*,*,#129,.F.);
#93=ORIENTED_EDGE('',*,*,#111,.F.);
#94=ORIENTED_EDGE('',*,*,#127,.F.);
#95=ORIENTED_EDGE('',*,*,#115,.F.);
#96=EDGE_CURVE('',#132,#133,#156,.T.);
#97=EDGE_CURVE('',#132,#134,#157,.T.);
#98=EDGE_CURVE('',#135,#134,#158,.T.);
#99=EDGE_CURVE('',#133,#135,#159,.T.);
#100=EDGE_CURVE('',#136,#137,#160,.T.);
#101=EDGE_CURVE('',#136,#133,#161,.T.);
#102=EDGE_CURVE('',#135,#137,#162,.T.);
#103=EDGE_CURVE('',#138,#139,#163,.T.);
#104=EDGE_CURVE('',#138,#136,#164,.T.);
#105=EDGE_CURVE('',#137,#139,#165,.T.);
#106=EDGE_CURVE('',#138,#132,#166,.T.);
#107=EDGE_CURVE('',#134,#139,#167,.T.);
#108=EDGE_CURVE('',#140,#141,#168,.T.);
#109=EDGE_CURVE('',#141,#142,#169,.T.);
#110=EDGE_CURVE('',#143,#142,#170,.T.);
#111=EDGE_CURVE('',#143,#140,#171,.F.);
#112=EDGE_CURVE('',#144,#145,#172,.T.);
#113=EDGE_CURVE('',#145,#146,#173,.F.);
#114=EDGE_CURVE('',#147,#146,#174,.T.);
#115=EDGE_CURVE('',#147,#144,#175,.T.);
#116=EDGE_CURVE('',#148,#149,#176,.T.);
#117=EDGE_CURVE('',#148,#150,#177,.F.);
#118=EDGE_CURVE('',#150,#151,#178,.T.);
#119=EDGE_CURVE('',#151,#149,#179,.T.);
#120=EDGE_CURVE('',#152,#153,#180,.T.);
#121=EDGE_CURVE('',#152,#154,#181,.F.);
#122=EDGE_CURVE('',#154,#155,#182,.T.);
#123=EDGE_CURVE('',#155,#153,#183,.T.);
#124=EDGE_CURVE('',#142,#148,#16,.T.);
#125=EDGE_CURVE('',#149,#152,#17,.T.);
#126=EDGE_CURVE('',#153,#145,#18,.T.);
#127=EDGE_CURVE('',#144,#143,#19,.T.);
#128=EDGE_CURVE('',#150,#141,#20,.T.);
#129=EDGE_CURVE('',#140,#147,#21,.T.);
#130=EDGE_CURVE('',#146,#155,#22,.T.);
#131=EDGE_CURVE('',#154,#151,#23,.T.);
#132=VERTEX_POINT('',#385);
#133=VERTEX_POINT('',#386);
#134=VERTEX_POINT('',#388);
#135=VERTEX_POINT('',#390);
#136=VERTEX_POINT('',#394);
#137=VERTEX_POINT('',#395);
#138=VERTEX_POINT('',#400);
#139=VERTEX_POINT('',#401);
#140=VERTEX_POINT('',#409);
#141=VERTEX_POINT('',#410);
#142=VERTEX_POINT('',#412);
#143=VERTEX_POINT('',#414);
#144=VERTEX_POINT('',#418);
#145=VERTEX_POINT('',#419);
#146=VERTEX_POINT('',#421);
#147=VERTEX_POINT('',#423);
#148=VERTEX_POINT('',#427);
#149=VERTEX_POINT('',#428);
#150=VERTEX_POINT('',#430);
#151=VERTEX_POINT('',#432);
#152=VERTEX_POINT('',#436);
#153=VERTEX_POINT('',#437);
#154=VERTEX_POINT('',#439);
#155=VERTEX_POINT('',#441);
#156=LINE('',#384,#184);
#157=LINE('',#387,#185);
#158=LINE('',#389,#186);
#159=LINE('',#391,#187);
#160=LINE('',#393,#188);
#161=LINE('',#396,#189);
#162=LINE('',#397,#190);
#163=LINE('',#399,#191);
#164=LINE('',#402,#192);
#165=LINE('',#403,#193);
#166=LINE('',#405,#194);
#167=LINE('',#406,#195);
#168=LINE('',#408,#196);
#169=LINE('',#411,#197);
#170=LINE('',#413,#198);
#171=LINE('',#415,#199);
#172=LINE('',#417,#200);
#173=LINE('',#420,#201);
#174=LINE('',#422,#202);
#175=LINE('',#424,#203);
#176=LINE('',#426,#204);
#177=LINE('',#429,#205);
#178=LINE('',#431,#206);
#179=LINE('',#433,#207);
#180=LINE('',#435,#208);
#181=LINE('',#438,#209);
#182=LINE('',#440,#210);
#183=LINE('',#442,#211);
#184=VECTOR('',#310,1.);
#185=VECTOR('',#311,1.);
#186=VECTOR('',#312,1.);
#187=VECTOR('',#313,1.);
#188=VECTOR('',#316,1.);
#189=VECTOR('',#317,1.);
#190=VECTOR('',#318,1.);
#191=VECTOR('',#321,1.);
#192=VECTOR('',#322,1.);
#193=VECTOR('',#323,1.);
#194=VECTOR('',#326,1.);
#195=VECTOR('',#327,1.);
#196=VECTOR('',#330,1.);
#197=VECTOR('',#331,1.);
#198=VECTOR('',#332,1.);
#199=VECTOR('',#333,1.);
#200=VECTOR('',#336,1.);
#201=VECTOR('',#337,1.);
#202=VECTOR('',#338,1.);
#203=VECTOR('',#339,1.);
#204=VECTOR('',#342,1.);
#205=VECTOR('',#343,1.);
#206=VECTOR('',#344,1.);
#207=VECTOR('',#345,1.);
#208=VECTOR('',#348,1.);
#209=VECTOR('',#349,1.);
#210=VECTOR('',#350,1.);
#211=VECTOR('',#351,1.);
#212=EDGE_LOOP('',(#24,#25,#26,#27));
#213=EDGE_LOOP('',(#28,#29,#30,#31));
#214=EDGE_LOOP('',(#32,#33,#34,#35));
#215=EDGE_LOOP('',(#36,#37,#38,#39));
#216=EDGE_LOOP('',(#40,#41,#42,#43));
#217=EDGE_LOOP('',(#44,#45,#46,#47));
#218=EDGE_LOOP('',(#48,#49,#50,#51));
#219=EDGE_LOOP('',(#52,#53,#54,#55));
#220=EDGE_LOOP('',(#56,#57,#58,#59,#60,#61,#62,#63));
#221=EDGE_LOOP('',(#64,#65,#66,#67,#68,#69,#70,#71));
#222=EDGE_LOOP('',(#72,#73,#74,#75));
#223=EDGE_LOOP('',(#76,#77,#78,#79));
#224=EDGE_LOOP('',(#80,#81,#82,#83));
#225=EDGE_LOOP('',(#84,#85,#86,#87));
#226=EDGE_LOOP('',(#88,#89,#90,#91));
#227=EDGE_LOOP('',(#92,#93,#94,#95));
#228=FACE_BOUND('',#212,.T.);
#229=FACE_BOUND('',#213,.T.);
#230=FACE_BOUND('',#214,.T.);
#231=FACE_BOUND('',#215,.T.);
#232=FACE_BOUND('',#216,.T.);
#233=FACE_BOUND('',#217,.T.);
#234=FACE_BOUND('',#218,.T.);
#235=FACE_BOUND('',#219,.T.);
#236=FACE_BOUND('',#220,.T.);
#237=FACE_BOUND('',#221,.T.);
#238=FACE_BOUND('',#222,.T.);
#239=FACE_BOUND('',#223,.T.);
#240=FACE_BOUND('',#224,.T.);
#241=FACE_BOUND('',#225,.T.);
#242=FACE_BOUND('',#226,.T.);
#243=FACE_BOUND('',#227,.T.);
#244=PLANE('',#283);
#245=PLANE('',#284);
#246=PLANE('',#285);
#247=PLANE('',#286);
#248=PLANE('',#287);
#249=PLANE('',#288);
#250=PLANE('',#289);
#251=PLANE('',#290);
#252=PLANE('',#291);
#253=PLANE('',#296);
#254=PLANE('',#301);
#255=ADVANCED_FACE('',(#228),#244,.F.);
#256=ADVANCED_FACE('',(#229),#245,.T.);
#257=ADVANCED_FACE('',(#230),#246,.T.);
#258=ADVANCED_FACE('',(#231),#247,.F.);
#259=ADVANCED_FACE('',(#232),#248,.T.);
#260=ADVANCED_FACE('',(#233),#249,.F.);
#261=ADVANCED_FACE('',(#234),#250,.T.);
#262=ADVANCED_FACE('',(#235),#251,.T.);
#263=ADVANCED_FACE('',(#236),#252,.T.);
#264=ADVANCED_FACE('',(#237,#238),#253,.T.);
#265=ADVANCED_FACE('',(#239),#254,.F.);
#266=ADVANCED_FACE('',(#240),#12,.T.);
#267=ADVANCED_FACE('',(#241),#13,.T.);
#268=ADVANCED_FACE('',(#242),#14,.T.);
#269=ADVANCED_FACE('',(#243),#15,.T.);
#270=CLOSED_SHELL('',(#255,#256,#257,#258,#259,#260,#261,#262,#263,#264,
#265,#266,#267,#268,#269));
#271=STYLED_ITEM('',(#272),#279);
#272=PRESENTATION_STYLE_ASSIGNMENT((#273));
#273=SURFACE_STYLE_USAGE(.BOTH.,#274);
#274=SURFACE_SIDE_STYLE('',(#275));
#275=SURFACE_STYLE_FILL_AREA(#276);
#276=FILL_AREA_STYLE('',(#277));
#277=FILL_AREA_STYLE_COLOUR('',#278);
#278=COLOUR_RGB('',0.941176470588235,0.874509803921569,0.67843137254902);
#279=MANIFOLD_SOLID_BREP('Part 1',#270);
#280=SHAPE_DEFINITION_REPRESENTATION(#464,#281);
#281=SHAPE_REPRESENTATION('Part 1',(#282),#459);
#282=AXIS2_PLACEMENT_3D('',#382,#306,#307);
#283=AXIS2_PLACEMENT_3D('',#383,#308,#309);
#284=AXIS2_PLACEMENT_3D('',#392,#314,#315);
#285=AXIS2_PLACEMENT_3D('',#398,#319,#320);
#286=AXIS2_PLACEMENT_3D('',#404,#324,#325);
#287=AXIS2_PLACEMENT_3D('',#407,#328,#329);
#288=AXIS2_PLACEMENT_3D('',#416,#334,#335);
#289=AXIS2_PLACEMENT_3D('',#425,#340,#341);
#290=AXIS2_PLACEMENT_3D('',#434,#346,#347);
#291=AXIS2_PLACEMENT_3D('',#443,#352,#353);
#292=AXIS2_PLACEMENT_3D('',#444,#354,#355);
#293=AXIS2_PLACEMENT_3D('',#445,#356,#357);
#294=AXIS2_PLACEMENT_3D('',#446,#358,#359);
#295=AXIS2_PLACEMENT_3D('',#447,#360,#361);
#296=AXIS2_PLACEMENT_3D('',#448,#362,#363);
#297=AXIS2_PLACEMENT_3D('',#449,#364,#365);
#298=AXIS2_PLACEMENT_3D('',#450,#366,#367);
#299=AXIS2_PLACEMENT_3D('',#451,#368,#369);
#300=AXIS2_PLACEMENT_3D('',#452,#370,#371);
#301=AXIS2_PLACEMENT_3D('',#453,#372,#373);
#302=AXIS2_PLACEMENT_3D('',#454,#374,#375);
#303=AXIS2_PLACEMENT_3D('',#455,#376,#377);
#304=AXIS2_PLACEMENT_3D('',#456,#378,#379);
#305=AXIS2_PLACEMENT_3D('',#457,#380,#381);
#306=DIRECTION('',(0.,0.,1.));
#307=DIRECTION('',(1.,0.,0.));
#308=DIRECTION('',(1.,0.,1.73559127161261E-16));
#309=DIRECTION('',(1.73559127161261E-16,0.,-1.));
#310=DIRECTION('',(1.73559127161261E-16,0.,-1.));
#311=DIRECTION('',(0.,1.,0.));
#312=DIRECTION('',(-1.73559127161261E-16,0.,1.));
#313=DIRECTION('',(0.,1.,0.));
#314=DIRECTION('',(-3.59761187500051E-16,0.,1.));
#315=DIRECTION('',(1.,0.,3.59761187500051E-16));
#316=DIRECTION('',(0.,1.,0.));
#317=DIRECTION('',(1.,0.,3.59761187500051E-16));
#318=DIRECTION('',(-1.,0.,-3.59761187500051E-16));
#319=DIRECTION('',(1.,0.,0.));
#320=DIRECTION('',(0.,0.,-1.));
#321=DIRECTION('',(0.,1.,0.));
#322=DIRECTION('',(0.,0.,-1.));
#323=DIRECTION('',(0.,0.,1.));
#324=DIRECTION('',(0.,0.,1.));
#325=DIRECTION('',(1.,0.,0.));
#326=DIRECTION('',(1.,0.,0.));
#327=DIRECTION('',(-1.,0.,0.));
#328=DIRECTION('',(0.,0.,1.));
#329=DIRECTION('',(1.,0.,0.));
#330=DIRECTION('',(-1.,0.,0.));
#331=DIRECTION('',(0.,-1.,0.));
#332=DIRECTION('',(-1.,0.,0.));
#333=DIRECTION('',(0.,-1.,0.));
#334=DIRECTION('',(-1.,0.,0.));
#335=DIRECTION('',(0.,0.,1.));
#336=DIRECTION('',(0.,0.,-1.));
#337=DIRECTION('',(0.,-1.,0.));
#338=DIRECTION('',(0.,0.,-1.));
#339=DIRECTION('',(0.,-1.,0.));
#340=DIRECTION('',(-1.,0.,0.));
#341=DIRECTION('',(0.,0.,1.));
#342=DIRECTION('',(0.,0.,-1.));
#343=DIRECTION('',(0.,-1.,0.));
#344=DIRECTION('',(0.,0.,-1.));
#345=DIRECTION('',(0.,-1.,0.));
#346=DIRECTION('',(0.,0.,-1.));
#347=DIRECTION('',(-1.,0.,0.));
#348=DIRECTION('',(1.,0.,0.));
#349=DIRECTION('',(0.,-1.,0.));
#350=DIRECTION('',(1.,0.,0.));
#351=DIRECTION('',(0.,-1.,0.));
#352=DIRECTION('',(0.,-1.,0.));
#353=DIRECTION('',(1.,0.,0.));
#354=DIRECTION('',(0.,-1.,0.));
#355=DIRECTION('',(0.,0.,-1.));
#356=DIRECTION('',(0.,-1.,0.));
#357=DIRECTION('',(0.,0.,-1.));
#358=DIRECTION('',(0.,-1.,0.));
#359=DIRECTION('',(0.,0.,-1.));
#360=DIRECTION('',(0.,-1.,0.));
#361=DIRECTION('',(0.,0.,-1.));
#362=DIRECTION('',(0.,1.,0.));
#363=DIRECTION('',(-1.,0.,0.));
#364=DIRECTION('',(0.,1.,0.));
#365=DIRECTION('',(0.,0.,1.));
#366=DIRECTION('',(0.,1.,0.));
#367=DIRECTION('',(0.,0.,1.));
#368=DIRECTION('',(0.,1.,0.));
#369=DIRECTION('',(0.,0.,1.));
#370=DIRECTION('',(0.,1.,0.));
#371=DIRECTION('',(0.,0.,1.));
#372=DIRECTION('',(0.,-1.,0.));
#373=DIRECTION('',(1.,0.,0.));
#374=DIRECTION('',(0.,-1.,0.));
#375=DIRECTION('',(0.,0.,-1.));
#376=DIRECTION('',(0.,-1.,0.));
#377=DIRECTION('',(0.,0.,-1.));
#378=DIRECTION('',(0.,1.,0.));
#379=DIRECTION('',(0.,0.,1.));
#380=DIRECTION('',(0.,1.,0.));
#381=DIRECTION('',(0.,0.,1.));
#382=CARTESIAN_POINT('',(0.,0.,0.));
#383=CARTESIAN_POINT('',(0.038575,-0.0158,-0.02299));
#384=CARTESIAN_POINT('',(0.038575,-0.0128,-0.02299));
#385=CARTESIAN_POINT('',(0.038575,-0.0128,-0.003));
#386=CARTESIAN_POINT('',(0.038575,-0.0128,-0.07468));
#387=CARTESIAN_POINT('',(0.038575,-0.0158,-0.003));
#388=CARTESIAN_POINT('',(0.038575,0.0162,-0.003));
#389=CARTESIAN_POINT('',(0.038575,0.0162,-0.02299));
#390=CARTESIAN_POINT('',(0.038575,0.0162,-0.07468));
#391=CARTESIAN_POINT('',(0.038575,-0.0158,-0.07468));
#392=CARTESIAN_POINT('',(0.0192875,-0.0158,-0.07468));
#393=CARTESIAN_POINT('',(-0.038575,-0.0158,-0.07468));
#394=CARTESIAN_POINT('',(-0.038575,-0.0128,-0.07468));
#395=CARTESIAN_POINT('',(-0.038575,0.0162,-0.07468));
#396=CARTESIAN_POINT('',(0.0192875,-0.0128,-0.07468));
#397=CARTESIAN_POINT('',(0.0192875,0.0162,-0.07468));
#398=CARTESIAN_POINT('',(-0.038575,-0.0158,-0.02299));
#399=CARTESIAN_POINT('',(-0.038575,-0.0158,-0.003));
#400=CARTESIAN_POINT('',(-0.038575,-0.0128,-0.003));
#401=CARTESIAN_POINT('',(-0.038575,0.0162,-0.003));
#402=CARTESIAN_POINT('',(-0.038575,-0.0128,-0.02299));
#403=CARTESIAN_POINT('',(-0.038575,0.0162,-0.02299));
#404=CARTESIAN_POINT('',(0.,-0.0158,-0.003));
#405=CARTESIAN_POINT('',(0.,-0.0128,-0.003));
#406=CARTESIAN_POINT('',(0.,0.0162,-0.003));
#407=CARTESIAN_POINT('',(0.,0.0192,-4.33680868994202E-18));
#408=CARTESIAN_POINT('',(0.,0.0162,-4.33680868994202E-18));
#409=CARTESIAN_POINT('',(0.036495,0.0162,-4.33680868994202E-18));
#410=CARTESIAN_POINT('',(-0.036495,0.0162,-4.33680868994202E-18));
#411=CARTESIAN_POINT('',(-0.036495,0.0192,-4.33680868994202E-18));
#412=CARTESIAN_POINT('',(-0.036495,-0.0158,-4.33680868994202E-18));
#413=CARTESIAN_POINT('',(0.,-0.0158,-4.33680868994202E-18));
#414=CARTESIAN_POINT('',(0.036495,-0.0158,-4.33680868994202E-18));
#415=CARTESIAN_POINT('',(0.036495,0.0162,-4.33680868994202E-18));
#416=CARTESIAN_POINT('',(0.041575,0.0192,-0.01554));
#417=CARTESIAN_POINT('',(0.041575,-0.0158,-0.01554));
#418=CARTESIAN_POINT('',(0.041575,-0.0158,-0.00508));
#419=CARTESIAN_POINT('',(0.041575,-0.0158,-0.0726));
#420=CARTESIAN_POINT('',(0.041575,0.0162,-0.0726));
#421=CARTESIAN_POINT('',(0.041575,0.0162,-0.0726));
#422=CARTESIAN_POINT('',(0.041575,0.0162,-0.01554));
#423=CARTESIAN_POINT('',(0.041575,0.0162,-0.00508));
#424=CARTESIAN_POINT('',(0.041575,-0.0158,-0.00508));
#425=CARTESIAN_POINT('',(-0.041575,0.0192,-0.01554));
#426=CARTESIAN_POINT('',(-0.041575,-0.0158,-0.01554));
#427=CARTESIAN_POINT('',(-0.041575,-0.0158,-0.00508));
#428=CARTESIAN_POINT('',(-0.041575,-0.0158,-0.0726));
#429=CARTESIAN_POINT('',(-0.041575,0.0192,-0.00508));
#430=CARTESIAN_POINT('',(-0.041575,0.0162,-0.00508));
#431=CARTESIAN_POINT('',(-0.041575,0.0162,-0.01554));
#432=CARTESIAN_POINT('',(-0.041575,0.0162,-0.0726));
#433=CARTESIAN_POINT('',(-0.041575,0.0192,-0.0726));
#434=CARTESIAN_POINT('',(0.,0.0192,-0.07768));
#435=CARTESIAN_POINT('',(0.,-0.0158,-0.07768));
#436=CARTESIAN_POINT('',(-0.036495,-0.0158,-0.07768));
#437=CARTESIAN_POINT('',(0.036495,-0.0158,-0.07768));
#438=CARTESIAN_POINT('',(-0.036495,0.0192,-0.07768));
#439=CARTESIAN_POINT('',(-0.036495,0.0162,-0.07768));
#440=CARTESIAN_POINT('',(0.,0.0162,-0.07768));
#441=CARTESIAN_POINT('',(0.036495,0.0162,-0.07768));
#442=CARTESIAN_POINT('',(0.036495,-0.0158,-0.07768));
#443=CARTESIAN_POINT('',(0.,-0.0158,-0.03884));
#444=CARTESIAN_POINT('',(-0.036495,-0.0158,-0.00508));
#445=CARTESIAN_POINT('',(-0.036495,-0.0158,-0.0726));
#446=CARTESIAN_POINT('',(0.036495,-0.0158,-0.0726));
#447=CARTESIAN_POINT('',(0.036495,-0.0158,-0.00508));
#448=CARTESIAN_POINT('',(0.,0.0162,-0.03884));
#449=CARTESIAN_POINT('',(-0.036495,0.0162,-0.00508));
#450=CARTESIAN_POINT('',(0.036495,0.0162,-0.00508));
#451=CARTESIAN_POINT('',(0.036495,0.0162,-0.0726));
#452=CARTESIAN_POINT('',(-0.036495,0.0162,-0.0726));
#453=CARTESIAN_POINT('',(0.,-0.0128,-0.03884));
#454=CARTESIAN_POINT('',(-0.036495,0.0192,-0.00508));
#455=CARTESIAN_POINT('',(-0.036495,0.0192,-0.0726));
#456=CARTESIAN_POINT('',(0.036495,0.0192,-0.0726));
#457=CARTESIAN_POINT('',(0.036495,0.0192,-0.00508));
#458=MECHANICAL_DESIGN_GEOMETRIC_PRESENTATION_REPRESENTATION('',(#271),
#459);
#459=(
GEOMETRIC_REPRESENTATION_CONTEXT(3)
GLOBAL_UNCERTAINTY_ASSIGNED_CONTEXT((#460))
GLOBAL_UNIT_ASSIGNED_CONTEXT((#463,#462,#461))
REPRESENTATION_CONTEXT('Part 1','TOP_LEVEL_ASSEMBLY_PART')
);
#460=UNCERTAINTY_MEASURE_WITH_UNIT(LENGTH_MEASURE(1.E-8),#463,
'DISTANCE_ACCURACY_VALUE','Maximum Tolerance applied to model');
#461=(
NAMED_UNIT(*)
SI_UNIT($,.STERADIAN.)
SOLID_ANGLE_UNIT()
);
#462=(
NAMED_UNIT(*)
PLANE_ANGLE_UNIT()
SI_UNIT($,.RADIAN.)
);
#463=(
LENGTH_UNIT()
NAMED_UNIT(*)
SI_UNIT($,.METRE.)
);
#464=PRODUCT_DEFINITION_SHAPE('','',#465);
#465=PRODUCT_DEFINITION('','',#467,#466);
#466=PRODUCT_DEFINITION_CONTEXT('',#473,'design');
#467=PRODUCT_DEFINITION_FORMATION_WITH_SPECIFIED_SOURCE('','',#469,
 .NOT_KNOWN.);
#468=PRODUCT_RELATED_PRODUCT_CATEGORY('','',(#469));
#469=PRODUCT('Part 1','Part 1','Part 1',(#471));
#470=PRODUCT_CATEGORY('','');
#471=PRODUCT_CONTEXT('',#473,'mechanical');
#472=APPLICATION_PROTOCOL_DEFINITION('international standard',
'ap242_managed_model_based_3d_engineering',2020,#473);
#473=APPLICATION_CONTEXT('managed model based 3d engineering');
ENDSEC;
END-ISO-10303-21;
